<svg width="29" height="40" viewBox="0 0 29 40" fill="none" xmlns="http://www.w3.org/2000/svg">
<path d="M17.4908 35.3435H11.4336V38.8048H17.4908V35.3435Z" stroke="black" stroke-width="0.86532" stroke-miterlimit="10"/>
<path d="M1.05078 13.751C1.05078 21.1205 14.4592 32.7475 14.4592 32.7475C14.4592 32.7475 27.8757 21.1205 27.8757 13.751C27.7893 10.2685 26.3383 6.95763 23.8324 4.52499C21.3265 2.09235 17.9643 0.730713 14.4633 0.730713C10.9624 0.730713 7.59999 2.09235 5.09407 4.52499C2.58814 6.95763 1.13715 10.2685 1.05078 13.751V13.751Z" stroke="black" stroke-width="0.86532" stroke-miterlimit="10"/>
<path d="M14.0302 0.730713C-7.38643 8.26834 14.0302 32.7475 14.0302 32.7475" stroke="black" stroke-width="0.86532" stroke-miterlimit="10"/>
<path d="M14.0297 32.7475C14.0297 32.7475 4.29488 10.6656 14.0297 0.730713" stroke="black" stroke-width="0.86532" stroke-miterlimit="10"/>
<path d="M14.0312 0.730713V35.3435" stroke="black" stroke-width="0.86532" stroke-miterlimit="10"/>
<path d="M14.0312 0.730713C37.3949 8.26834 14.0312 32.7475 14.0312 32.7475" stroke="black" stroke-width="0.86532" stroke-miterlimit="10"/>
<path d="M14.0312 32.7475C14.0312 32.7475 27.66 10.6656 14.0312 0.730713" stroke="black" stroke-width="0.86532" stroke-miterlimit="10"/>
</svg>
