<svg width="105" height="109" viewBox="0 0 105 109" fill="none" xmlns="http://www.w3.org/2000/svg">
<g clip-path="url(#clip0_1_874)">
<path d="M11.8068 34.9569L8.63077 33.3104L8.96452 32.6604L13.9277 30.8514L14.4767 29.7898L14.3368 29.714L8.84609 31.7721L7.00509 26.1392L6.86513 26.0742L6.32683 27.1033L8.16783 32.2921L7.85561 32.8987L4.30281 31.0464L3.8291 31.9563L11.3438 35.8668L11.8068 34.9569Z" fill="black"/>
<path d="M8.05531 23.4147L7.39062 24.4141L8.21378 24.9683L8.87846 23.9689L8.05531 23.4147Z" fill="black"/>
<path d="M9.92038 24.7979L9.3877 25.5991L14.8374 29.2671L15.3701 28.4659L9.92038 24.7979Z" fill="black"/>
<path d="M16.903 26.5396L14.007 24.1022C13.7852 23.925 13.6034 23.7023 13.4734 23.4491C13.3434 23.1958 13.2681 22.9177 13.2529 22.6331C13.2376 22.3484 13.2827 22.0638 13.3848 21.798C13.487 21.5321 13.644 21.291 13.8456 21.0908C13.9778 20.9055 14.1502 20.7532 14.35 20.6453C14.5497 20.5375 14.7714 20.4771 14.9979 20.4687C15.2244 20.4604 15.4498 20.5043 15.6569 20.5971C15.8639 20.6899 16.0472 20.8291 16.1925 21.0041L19.3146 23.6365L19.9391 22.8782L16.7093 20.1159C16.4964 19.8852 16.2361 19.7038 15.9465 19.5846C15.6569 19.4654 15.3451 19.4112 15.0326 19.4256C14.7201 19.4401 14.4143 19.5229 14.1368 19.6683C13.8593 19.8137 13.6165 20.0181 13.4256 20.2675C13.0698 20.6898 12.8639 21.2195 12.8405 21.7726C12.8171 22.3258 12.9776 22.871 13.2965 23.3223L13.2211 23.4089L11.9184 22.3257L11.3047 23.0731L16.3326 27.2978L16.903 26.5396Z" fill="black"/>
<path d="M22.5203 20.6905C22.9522 20.3219 23.2453 19.8155 23.3511 19.2556C23.4569 18.6958 23.3688 18.1164 23.1014 17.614L23.1661 17.5599L24.3289 18.8923L25.0393 18.2532L19.0749 11.407L18.3537 12.0461L21.1745 15.2959L21.1098 15.3609C20.6589 15.0077 20.097 14.8288 19.5262 14.8566C18.9554 14.8844 18.4132 15.1172 17.9983 15.5126C16.7602 16.5958 16.8356 18.1774 18.3106 19.8456C19.7855 21.5138 21.3145 21.7954 22.5203 20.6905ZM18.8596 15.9241C19.0819 15.7245 19.3431 15.5736 19.6264 15.4807C19.9096 15.3878 20.2088 15.3551 20.5053 15.3846C20.8018 15.4142 21.0891 15.5053 21.3488 15.6522C21.6085 15.7991 21.8349 15.9987 22.014 16.2383L22.3478 16.6174C22.5647 16.8231 22.7353 17.073 22.8483 17.3505C22.9612 17.6279 23.0138 17.9264 23.0026 18.2261C22.9914 18.5257 22.9167 18.8194 22.7834 19.0876C22.65 19.3557 22.4612 19.5919 22.2296 19.7805C21.1529 20.7013 20.1625 20.5063 18.9997 19.2064C17.837 17.9065 17.8476 16.8232 18.8596 15.9241Z" fill="black"/>
<path d="M28.5279 16.1079C29.1148 15.8167 29.5719 15.3148 29.809 14.7012C30.0462 14.0876 30.0462 13.4068 29.809 12.7932L28.948 13.0423C29.1254 13.474 29.1339 13.9573 28.9721 14.3952C28.8104 14.8331 28.4904 15.1934 28.0759 15.4038C27.8262 15.5834 27.5414 15.7072 27.2403 15.7669C26.9392 15.8267 26.6288 15.8209 26.33 15.7501C26.0313 15.6793 25.7511 15.5452 25.5081 15.3565C25.2652 15.1679 25.0652 14.9291 24.9215 14.6564L29.2279 11.8832C29.1243 11.6748 29.0092 11.4722 28.8833 11.2766C28.7073 10.914 28.4537 10.5951 28.1405 10.343C27.8273 10.0908 27.4625 9.91171 27.0723 9.81847C26.6821 9.72523 26.2761 9.72024 25.8837 9.80379C25.4913 9.88734 25.1222 10.0573 24.8029 10.3016C24.4135 10.5265 24.0773 10.8341 23.8181 11.203C23.5588 11.5719 23.3825 11.9932 23.3016 12.4376C23.2206 12.882 23.237 13.3388 23.3494 13.7763C23.4618 14.2137 23.6675 14.6213 23.9524 14.9705C24.1476 15.3788 24.43 15.7385 24.7795 16.0242C25.129 16.3098 25.537 16.5143 25.9742 16.6229C26.4113 16.7316 26.8669 16.7418 27.3083 16.6527C27.7498 16.5637 28.1662 16.3777 28.5279 16.1079ZM25.2227 10.9949C25.4497 10.8231 25.7122 10.7045 25.9907 10.6478C26.2692 10.5912 26.5568 10.5978 26.8323 10.6674C27.1079 10.737 27.3644 10.8677 27.5833 11.05C27.8022 11.2322 27.9779 11.4614 28.0974 11.7208L24.523 14.0173C24.3571 13.7771 24.2431 13.5046 24.1884 13.2173C24.1337 12.9301 24.1395 12.6345 24.2055 12.3497C24.2714 12.0648 24.3961 11.7971 24.5714 11.5638C24.7466 11.3304 24.9684 11.1366 25.2227 10.9949Z" fill="black"/>
<path d="M32.5737 13.6382L31.0989 10.5834C30.4098 9.15353 30.7219 8.30859 32.0354 7.66947L32.3153 7.53949L31.8524 6.57544L31.6048 6.69458C31.139 6.91281 30.7706 7.29775 30.5716 7.7744C30.3726 8.25105 30.3571 8.78523 30.5282 9.27273H30.4528L29.6885 7.68031L28.8379 8.09196L31.6908 14.0282L32.5737 13.6382Z" fill="black"/>
<path d="M35.3119 6.17427L36.3346 5.8493L37.4651 9.51071C37.5071 9.77739 37.6074 10.0313 37.759 10.2541C37.9106 10.4769 38.1096 10.663 38.3414 10.7989C38.5733 10.9347 38.8324 11.0169 39.0998 11.0396C39.3671 11.0622 39.6363 11.0247 39.8875 10.9298C40.3309 10.7984 40.7493 10.5934 41.1255 10.3232L40.7273 9.54324C40.4392 9.74343 40.1235 9.90033 39.7905 10.009C39.0369 10.2473 38.5956 9.93316 38.3588 9.15322L37.2822 5.56765L39.4354 4.89603L39.1986 4.10528L37.0454 4.76605L36.4855 2.95703L35.5703 3.23869L36.1301 5.04771L35.1074 5.37267L35.3119 6.17427Z" fill="black"/>
<path d="M44.5457 9.84695C46.5697 9.48947 47.5063 7.97292 47.1402 5.86057C46.9975 5.00874 46.5243 4.24885 45.8247 3.74808C45.1251 3.24732 44.2563 3.04674 43.4097 3.19039C42.5631 3.33404 41.808 3.81013 41.3104 4.51404C40.8127 5.21796 40.6133 6.09199 40.756 6.94383C41.1221 9.09951 42.5001 10.2153 44.5457 9.84695ZM43.4691 3.89988C44.9117 3.6399 45.8699 4.45235 46.1498 6.0664C46.4297 7.68045 45.8482 8.78538 44.3517 9.05619C42.8552 9.327 41.9509 8.4279 41.671 6.88968C41.3911 5.35146 42.0588 4.15987 43.5014 3.89988H43.4691Z" fill="black"/>
<path d="M51.4632 7.06281C51.4632 8.28689 52.023 9.16432 53.3364 9.22932C53.7999 9.22947 54.2595 9.14507 54.693 8.98019L54.5637 8.1136C54.2155 8.2234 53.8518 8.27466 53.487 8.26527C52.7011 8.26527 52.4104 7.82109 52.4104 6.99781L52.4643 3.23895H54.693V2.48066H52.4751V0.584961H51.517V2.4915H50.4404V3.32563H51.517L51.4632 7.06281Z" fill="black"/>
<path d="M56.8481 5.38366C56.8788 5.10045 56.9688 4.82703 57.1122 4.5814C57.2557 4.33578 57.4493 4.12353 57.6802 3.95872C57.9112 3.7939 58.1744 3.6803 58.4522 3.62529C58.73 3.57028 59.0162 3.57516 59.292 3.63964C60.3686 3.78046 60.7454 4.60372 60.6162 5.58949L60.0887 9.65169L61.0467 9.78168L61.6066 5.44866C61.6859 5.14767 61.6998 4.83301 61.6473 4.52613C61.5948 4.21925 61.4772 3.9274 61.3025 3.67038C61.1277 3.41337 60.9001 3.19725 60.6348 3.03679C60.3696 2.87633 60.0732 2.77527 59.7656 2.74052C59.2143 2.65224 58.6494 2.75402 58.1628 3.02932C57.6762 3.30461 57.2964 3.73727 57.0849 4.2571H56.9879L57.537 0.0865283L56.5681 -0.043457L55.3945 8.98008L56.3529 9.11007L56.8481 5.38366Z" fill="black"/>
<path d="M64.8444 10.9733C65.4495 11.2205 66.1244 11.232 66.7374 11.0057C67.3505 10.7794 67.8578 10.3315 68.1605 9.74925L67.3961 9.26177C67.1969 9.68295 66.8445 10.011 66.4118 10.1783C65.979 10.3457 65.4988 10.3394 65.0705 10.1609C64.7708 10.0914 64.4894 9.95798 64.2452 9.76981C64.0009 9.58165 63.7997 9.34306 63.6548 9.07003C63.51 8.79701 63.4249 8.49592 63.4054 8.18705C63.3859 7.87818 63.4324 7.56867 63.5418 7.2794L68.462 8.72014C68.553 8.50565 68.6286 8.28483 68.688 8.05937C68.8423 7.68672 68.9127 7.28424 68.8938 6.88098C68.8749 6.47771 68.7674 6.08366 68.5789 5.72724C68.3905 5.37082 68.1259 5.06089 67.8041 4.81979C67.4822 4.57869 67.1111 4.41245 66.7177 4.33297C66.2935 4.18875 65.8432 4.13906 65.398 4.18732C64.9527 4.23558 64.5232 4.38062 64.1392 4.61245C63.7552 4.84428 63.4257 5.15736 63.1738 5.52995C62.922 5.90254 62.7536 6.32576 62.6805 6.7703C62.5056 7.18655 62.4242 7.6364 62.4418 8.08794C62.4593 8.53948 62.5756 8.98159 62.7822 9.38283C62.9888 9.78407 63.2805 10.1346 63.6369 10.4095C63.9934 10.6844 64.4057 10.8769 64.8444 10.9733ZM66.4701 5.0912C66.75 5.14924 67.0134 5.26956 67.2411 5.44327C67.4687 5.61698 67.6551 5.83971 67.7862 6.09518C67.9173 6.35065 67.9899 6.63242 67.9988 6.91979C68.0077 7.20716 67.9525 7.49286 67.8374 7.75603L63.7571 6.56448C63.8359 6.28651 63.9693 6.02721 64.1492 5.80189C64.3292 5.57656 64.5522 5.38975 64.805 5.25246C65.0578 5.11517 65.3354 5.03016 65.6214 5.00247C65.9074 4.97478 66.1959 5.00494 66.4701 5.0912Z" fill="black"/>
<path d="M73.1528 10.5293L75.1123 11.6126C75.4132 11.825 75.7566 11.9689 76.1184 12.0343C76.4802 12.0997 76.8518 12.085 77.2074 11.9911C77.563 11.8973 77.8939 11.7267 78.1773 11.491C78.4606 11.2554 78.6895 10.9605 78.8481 10.6268C79.6663 9.0561 79.2034 7.832 77.5239 6.94373L74.6925 5.43799L70.752 12.9666L71.6456 13.4433L73.1528 10.5293ZM75.1769 6.66207L77.0179 7.64787C78.3206 8.33032 78.5145 9.04525 77.9547 10.1285C77.3948 11.2118 76.6195 11.3851 75.4137 10.746L73.5512 9.76017L75.1769 6.66207Z" fill="black"/>
<path d="M81.8234 8.84094L76.7812 16.408L77.5771 16.9448L82.6193 9.3778L81.8234 8.84094Z" fill="black"/>
<path d="M82.1585 14.7102C82.464 14.4112 82.8735 14.2438 83.2997 14.2438C83.726 14.2438 84.1352 14.4112 84.4407 14.7102C84.6351 14.8303 84.7983 14.9953 84.9165 15.1915C85.0347 15.3877 85.1044 15.6095 85.1202 15.8383C85.136 16.0672 85.0973 16.2966 85.0072 16.5074C84.9171 16.7181 84.7784 16.9042 84.6024 17.0501L84.2147 17.5159L82.4815 16.0752C81.2865 15.0786 80.1775 15.2519 79.4885 16.0752C78.7995 16.8984 78.9501 17.9817 79.9406 18.7941C80.3309 19.1643 80.8354 19.3887 81.3702 19.4301C81.905 19.4715 82.4377 19.3273 82.8797 19.0217L82.9659 19.0866L81.9755 20.2999L82.686 20.8957L85.356 17.6459C85.6123 17.4092 85.8096 17.1151 85.9321 16.7875C86.0546 16.4599 86.0989 16.1078 86.0612 15.7599C86.0234 15.4119 85.9048 15.0777 85.715 14.7844C85.5252 14.491 85.2695 14.2467 84.9685 14.0712C84.5257 13.6266 83.9341 13.3637 83.3092 13.3337C82.6843 13.3037 82.0708 13.5086 81.5878 13.9087L82.1585 14.7102ZM83.4719 18.4258C83.2879 18.6173 83.0665 18.7685 82.8219 18.8702C82.5772 18.9718 82.3146 19.0216 82.0499 19.0166C81.7853 19.0115 81.5244 18.9516 81.2837 18.8406C81.0431 18.7297 80.8279 18.57 80.6513 18.3717C79.8546 17.7 79.9084 17.0718 80.2744 16.6276C80.6404 16.1835 81.351 16.0968 82.1046 16.7035L83.7626 18.0792L83.4719 18.4258Z" fill="black"/>
<path d="M84.2092 22.4667L87.0085 19.9103C87.2139 19.7147 87.4582 19.5651 87.7252 19.4714C87.9922 19.3777 88.2759 19.3419 88.5577 19.3665C88.8394 19.391 89.1126 19.4754 89.3596 19.6139C89.6066 19.7525 89.8218 19.9421 89.9907 20.1702C90.155 20.3285 90.2813 20.5223 90.36 20.7369C90.4387 20.9516 90.4674 21.1815 90.4446 21.4091C90.4218 21.6368 90.3478 21.8562 90.228 22.0507C90.1083 22.2452 89.9462 22.4097 89.7539 22.5317L86.7285 25.2723L87.3746 25.9982L90.6044 23.1058C90.8637 22.9331 91.0811 22.7044 91.2413 22.4362C91.4015 22.168 91.5002 21.8673 91.5302 21.5559C91.5601 21.2444 91.5204 20.9302 91.4142 20.6362C91.3081 20.3421 91.138 20.0756 90.9164 19.8561C90.5512 19.4402 90.0585 19.1589 89.5163 19.0568C88.9741 18.9548 88.4136 19.0379 87.9237 19.2928L87.8482 19.2061L89.1078 18.1229L88.462 17.408L83.5957 21.8276L84.2092 22.4667Z" fill="black"/>
<path d="M89.5101 29.3992C89.8069 29.9842 90.3118 30.4351 90.9244 30.662C91.537 30.8889 92.2121 30.875 92.8151 30.6233L92.5567 29.7676C92.1318 29.9551 91.652 29.9733 91.2143 29.8185C90.7766 29.6636 90.4137 29.3473 90.199 28.9334C90.0146 28.6851 89.8854 28.3999 89.82 28.097C89.7546 27.7941 89.7546 27.4806 89.82 27.1777C89.8853 26.8748 90.0144 26.5895 90.1987 26.3411C90.383 26.0927 90.6181 25.887 90.8881 25.7378L93.7195 30.0708C93.9456 29.9517 94.1825 29.7892 94.3117 29.7134C94.6689 29.5293 94.9812 29.2681 95.2264 28.9484C95.4716 28.6288 95.6436 28.2585 95.73 27.8641C95.8164 27.4698 95.8152 27.0611 95.7263 26.6673C95.6375 26.2735 95.463 25.9044 95.2159 25.5862C94.986 25.1984 94.6752 24.8657 94.3046 24.6111C93.934 24.3565 93.5126 24.1861 93.07 24.1119C92.6274 24.0377 92.1742 24.0613 91.7416 24.1812C91.309 24.3012 90.9075 24.5144 90.5651 24.8062C90.1671 25.0101 89.8182 25.2991 89.5432 25.6531C89.2681 26.0071 89.0736 26.4174 88.9731 26.8552C88.8725 27.293 88.8685 27.7476 88.9612 28.1871C89.054 28.6266 89.2413 29.0404 89.5101 29.3992ZM94.5377 25.987C95.2914 27.1353 94.9682 28.0885 93.8593 28.901L91.5232 25.337C91.7585 25.1679 92.0264 25.0501 92.3096 24.9911C92.5928 24.9321 92.8851 24.9332 93.1678 24.9943C93.4505 25.0555 93.7175 25.1754 93.9516 25.3463C94.1856 25.5173 94.3815 25.7355 94.527 25.987H94.5377Z" fill="black"/>
<path d="M93.445 32.0757C93.1889 32.1601 92.9547 32.301 92.7597 32.4881C92.5647 32.6752 92.4139 32.9037 92.3179 33.157C92.2219 33.4103 92.1834 33.682 92.2051 33.9523C92.2269 34.2225 92.3085 34.4844 92.4438 34.7189C92.6401 35.1239 92.9062 35.4906 93.2297 35.8021L93.9402 35.293C93.6927 35.0415 93.4856 34.7528 93.3264 34.4372C92.9711 33.7223 93.2081 33.2348 93.9402 32.8773L97.2777 31.1983L98.2681 33.2023L99.0217 32.834L98.0205 30.83L99.7217 29.9851L99.2909 29.1185L97.6008 29.9634L97.1269 28.9993L96.3733 29.3676L96.8577 30.3317L93.445 32.0757Z" fill="black"/>
<path d="M2.71316 70.726C3.61751 70.466 4.12367 69.8052 3.95141 67.8662C3.82222 66.2847 4.12363 65.8189 4.71576 65.6997C5.3079 65.5805 5.91067 65.8838 6.20135 66.9129C6.29227 67.1171 6.33933 67.3383 6.33961 67.562C6.33989 67.7857 6.29333 68.0071 6.20293 68.2115C6.11253 68.4159 5.98035 68.5988 5.81497 68.7484C5.64959 68.898 5.4549 69.0107 5.24329 69.0795L5.63072 69.8161C6.19128 69.5813 6.63661 69.1324 6.86871 68.5679C7.10081 68.0034 7.10089 67.3693 6.86898 66.8046C6.42757 65.2556 5.52323 64.6381 4.45739 64.9848C3.39155 65.3314 3.01455 66.068 3.19758 67.8879C3.33754 69.2961 3.13303 69.8594 2.44401 70.0544C1.75498 70.2494 1.16285 69.8811 0.839872 68.7436C0.738857 68.5052 0.686652 68.2488 0.686371 67.9896C0.68609 67.7304 0.737797 67.4738 0.838295 67.2352C0.938792 66.9966 1.08594 66.7808 1.2712 66.6007C1.45646 66.4207 1.67597 66.28 1.91648 66.1872L1.53956 65.483C0.279931 66.0355 -0.355057 67.1188 0.140182 68.9062C0.635422 70.6935 1.60425 71.0077 2.71316 70.726Z" fill="black"/>
<path d="M7.22084 72.3941C7.07332 71.9132 6.75422 71.5043 6.3248 71.2463C5.89539 70.9883 5.38618 70.8994 4.89546 70.9967L5.00323 71.7659C5.33009 71.6738 5.67958 71.7125 5.97864 71.8741C6.2777 72.0356 6.50308 72.3074 6.60736 72.6324C6.97341 73.5099 6.60715 74.0082 5.85353 74.344L5.40143 74.5281L4.71252 72.8491C4.23881 71.7009 3.39906 71.3975 2.55931 71.7659C1.71955 72.1342 1.48254 72.9033 1.85936 73.8565C1.99324 74.2685 2.26502 74.621 2.62817 74.854C2.99133 75.0871 3.4235 75.1863 3.85118 75.1348V75.2214L2.68836 75.6981L2.96829 76.3805L6.07983 75.0915C6.3598 75.0324 6.62128 74.9061 6.84234 74.7234C7.06341 74.5407 7.23732 74.3071 7.34937 74.0423C7.46141 73.7774 7.50842 73.4892 7.48605 73.2023C7.46367 72.9154 7.37256 72.6381 7.22084 72.3941ZM4.5401 74.8964C3.79724 75.1997 2.9792 74.7773 2.57008 73.8132C2.2471 73.0332 2.56993 72.6108 2.94674 72.4375C3.32355 72.2641 3.92664 72.4916 4.21732 73.1958L4.87391 74.7881L4.5401 74.8964Z" fill="black"/>
<path d="M10.0714 78.5137L7.91819 78.7954C7.01384 78.9037 6.04489 79.0337 5.2159 79.1745L5.11891 78.9904C5.71104 78.3621 6.32464 77.6471 6.92754 76.943L8.3164 75.3073L7.91819 74.5598L4.33301 78.9904L4.7851 79.8461L10.4265 79.2503L10.0714 78.5137Z" fill="black"/>
<path d="M8.07763 84.0928C7.92688 83.8961 7.81998 83.6691 7.76406 83.4271C7.70813 83.1851 7.70454 82.9339 7.75354 82.6904C7.80255 82.447 7.90311 82.217 8.04819 82.016C8.19328 81.815 8.37943 81.6477 8.59438 81.5255L10.9092 84.9377C11.0693 84.8498 11.2238 84.7521 11.3721 84.6452C11.6582 84.4973 11.9077 84.2869 12.1023 84.0293C12.2969 83.7717 12.4315 83.4735 12.4966 83.1566C12.5616 82.8397 12.5554 82.5121 12.4782 82.198C12.4009 81.8839 12.2546 81.5911 12.0502 81.3413C11.8617 81.0347 11.6094 80.773 11.3106 80.5741C11.0118 80.3752 10.6736 80.244 10.3194 80.1894C9.96527 80.1348 9.60367 80.1582 9.25937 80.2579C8.91508 80.3577 8.59629 80.5315 8.32523 80.7672C8.00563 80.9337 7.72647 81.1692 7.50779 81.4568C7.2891 81.7444 7.13627 82.0769 7.06016 82.4309C6.98405 82.7848 6.98656 83.1513 7.06752 83.5041C7.14849 83.857 7.30594 84.1874 7.52855 84.4719C7.77284 84.9367 8.18225 85.2918 8.67507 85.4664C9.16789 85.6411 9.70792 85.6225 10.1877 85.4144L9.97247 84.7319C9.63492 84.8867 9.25153 84.9068 8.89981 84.7882C8.54808 84.6695 8.25425 84.4211 8.07763 84.0928ZM11.5119 81.688C11.655 81.8659 11.7566 82.0739 11.809 82.2966C11.8614 82.5194 11.8633 82.7511 11.8147 82.9747C11.7662 83.1983 11.6682 83.4081 11.5282 83.5885C11.3883 83.7689 11.2098 83.9153 11.006 84.017L9.08958 81.2005C9.27672 81.0615 9.49073 80.9634 9.71777 80.9125C9.94482 80.8616 10.1799 80.859 10.408 80.9049C10.6361 80.9508 10.8521 81.0441 11.0422 81.179C11.2324 81.3139 11.3923 81.4872 11.5119 81.688Z" fill="black"/>
<path d="M15.0467 85.2956C14.2177 84.3098 13.3349 84.2123 12.6566 84.7756C11.9784 85.3389 11.9999 86.0105 12.6566 87.1805C13.2488 88.1879 13.3349 88.6428 12.915 89.0003C12.4951 89.3578 11.9677 89.2603 11.4294 88.6212C11.1276 88.3506 10.9445 87.9708 10.9203 87.5648C10.8961 87.1588 11.0326 86.7596 11.3001 86.4547L10.7294 85.9997C10.5456 86.2085 10.4051 86.452 10.3157 86.7161C10.2264 86.9801 10.19 87.2595 10.209 87.5378C10.2281 87.816 10.3019 88.0877 10.4264 88.337C10.5509 88.5862 10.7236 88.808 10.9342 88.9895C11.8601 90.0727 12.7319 90.1377 13.4317 89.5419C14.1315 88.9462 14.0671 88.2529 13.3135 86.9855C12.7644 86.0647 12.7858 85.6098 13.141 85.3064C13.4963 85.0031 14.0347 85.0681 14.5299 85.6531C14.6445 85.7661 14.7356 85.9009 14.7977 86.0497C14.8599 86.1985 14.8918 86.3583 14.8918 86.5197C14.8918 86.6811 14.8599 86.8408 14.7977 86.9896C14.7356 87.1385 14.6445 87.2733 14.5299 87.3863L15.1221 87.8304C15.4397 87.481 15.6095 87.0209 15.5955 86.5476C15.5814 86.0743 15.3845 85.6252 15.0467 85.2956Z" fill="black"/>
<path d="M21.1799 89.4013C19.8987 88.318 18.6176 88.383 17.7348 89.4013C17.5347 89.6077 17.3828 89.8564 17.2903 90.1292C17.1978 90.4021 17.1669 90.6923 17.1999 90.9787C17.2329 91.2651 17.329 91.5405 17.4811 91.7848C17.6333 92.0291 17.8376 92.2363 18.0794 92.3911C18.4084 92.7715 18.8623 93.0202 19.3584 93.0918C19.8545 93.1634 20.3597 93.0531 20.7817 92.781L20.8571 92.8569L20.5448 93.2361C19.2099 94.7851 18.0686 95.1209 16.992 94.1785C16.8067 94.0532 16.648 93.8923 16.5249 93.705C16.4018 93.5176 16.3167 93.3077 16.2747 93.0871C16.2326 92.8665 16.2344 92.6398 16.2799 92.4199C16.3255 92.2001 16.4138 91.9915 16.5399 91.8062L15.8723 91.4054C15.6998 91.661 15.5799 91.9487 15.5195 92.2516C15.4592 92.5545 15.4597 92.8666 15.5209 93.1693C15.582 93.4721 15.7025 93.7595 15.8757 94.0146C16.0488 94.2698 16.2711 94.4876 16.5291 94.6551C18.0579 96.0092 19.6835 95.3375 21.0508 93.7452C22.7303 91.9036 22.4395 90.5062 21.1799 89.4013ZM18.6608 92.0877C17.8856 91.4161 17.7025 90.6795 18.327 89.9212C18.469 89.7388 18.6503 89.5913 18.8574 89.4899C19.0644 89.3884 19.2918 89.3358 19.5221 89.3358C19.7524 89.3358 19.9795 89.3884 20.1866 89.4899C20.3936 89.5913 20.575 89.7388 20.717 89.9212C21.6537 90.7553 21.7184 91.7087 21.1694 92.3369C20.6203 92.9652 19.7051 93.0085 18.6608 92.0877Z" fill="black"/>
<path d="M25.9074 93.052C25.6708 92.8538 25.3972 92.7049 25.1029 92.6138C24.8085 92.5228 24.4991 92.4914 24.1926 92.5217C23.8862 92.5519 23.5888 92.6431 23.3176 92.7899C23.0465 92.9367 22.8069 93.1363 22.613 93.377L23.1836 93.897C23.3192 93.7216 23.488 93.575 23.6804 93.4658C23.8727 93.3566 24.0848 93.2868 24.3041 93.2606C24.5234 93.2344 24.7456 93.2522 24.958 93.3131C25.1704 93.374 25.3686 93.4768 25.5413 93.6154C26.3595 94.1787 26.5641 94.6986 26.058 95.4894C25.9614 95.6413 25.8327 95.7699 25.6809 95.8658C25.5291 95.9618 25.3581 96.0229 25.1801 96.0446C25.0022 96.0664 24.8218 96.0482 24.6516 95.9916C24.4814 95.9349 24.3255 95.8411 24.1955 95.7169L23.2806 95.0994L22.9252 95.6194L23.8833 96.2693C24.9599 97.0168 25.0354 97.5476 24.5832 98.23C24.1311 98.9125 23.3451 98.9775 22.43 98.3383C22.2011 98.2233 21.9978 98.0626 21.8326 97.8659C21.6674 97.6693 21.5439 97.4408 21.4693 97.1945C21.3948 96.9482 21.3707 96.6892 21.3989 96.4333C21.4271 96.1774 21.507 95.9299 21.6333 95.706L20.9121 95.3485C20.7508 95.6558 20.6518 95.9923 20.6214 96.3384C20.591 96.6846 20.6297 97.0333 20.7349 97.3642C20.8402 97.6951 21.0101 98.0015 21.2346 98.2655C21.4591 98.5295 21.7337 98.7458 22.0423 98.9017C23.528 99.9091 24.5939 99.7032 25.2721 98.7283C25.7997 97.9267 25.7243 97.2984 24.7015 96.4535L24.7662 96.356C25.1152 96.5443 25.5221 96.5932 25.9053 96.4928C26.2886 96.3923 26.6201 96.15 26.8334 95.8143C27.4686 94.7961 27.1563 93.897 25.9074 93.052Z" fill="black"/>
<path d="M30.329 98.3051L31.9332 99.0959L32.2236 98.4893L30.6302 97.6985L31.2871 96.3336L30.5982 95.9978L29.9413 97.3627L29.1662 96.9835L28.8755 97.5793L29.6398 97.9585L28.3049 100.71C28.1845 100.889 28.105 101.092 28.072 101.306C28.039 101.519 28.0533 101.737 28.114 101.944C28.1748 102.151 28.2803 102.342 28.4231 102.503C28.566 102.665 28.7426 102.792 28.9402 102.876C29.278 103.046 29.6421 103.156 30.0168 103.201L30.2213 102.53C29.9417 102.486 29.6697 102.402 29.4138 102.281C28.8432 101.999 28.7677 101.577 29.0477 100.992L30.329 98.3051Z" fill="black"/>
<path d="M34.9906 99.4643C34.6621 99.3214 34.3068 99.2515 33.949 99.2594C33.5911 99.2673 33.2393 99.3529 32.9173 99.5102C32.5954 99.6676 32.3108 99.893 32.0833 100.171C31.8559 100.449 31.6909 100.773 31.5994 101.122C31.464 101.446 31.3949 101.794 31.3965 102.145C31.3981 102.497 31.4703 102.844 31.6086 103.167C31.747 103.49 31.9486 103.781 32.2016 104.024C32.4546 104.266 32.7537 104.455 33.0808 104.578C33.408 104.701 33.7564 104.757 34.1054 104.742C34.4544 104.726 34.7967 104.64 35.1118 104.488C35.4269 104.336 35.7082 104.122 35.939 103.858C36.1698 103.594 36.3454 103.286 36.4549 102.952C36.6148 102.63 36.7035 102.278 36.7149 101.918C36.7263 101.558 36.66 101.201 36.5209 100.869C36.3818 100.538 36.1729 100.24 35.9087 99.9979C35.6446 99.7554 35.3314 99.5734 34.9906 99.4643ZM35.7227 102.714C35.6714 102.976 35.563 103.223 35.4051 103.437C35.2473 103.651 35.044 103.828 34.8101 103.953C34.5761 104.078 34.3174 104.15 34.0525 104.162C33.7877 104.175 33.5235 104.128 33.279 104.025C32.1486 103.591 31.89 102.617 32.3314 101.425C32.3998 101.181 32.5178 100.953 32.6781 100.757C32.8385 100.561 33.0375 100.401 33.2627 100.287C33.4879 100.172 33.7342 100.106 33.986 100.093C34.2379 100.08 34.49 100.119 34.726 100.209C34.9619 100.298 35.1767 100.436 35.3568 100.614C35.5369 100.792 35.6783 101.005 35.7721 101.241C35.8658 101.476 35.9099 101.729 35.9014 101.983C35.8929 102.236 35.8319 102.485 35.7227 102.714Z" fill="black"/>
<path d="M40.9161 101.285C40.4882 101.174 40.0361 101.21 39.6308 101.387C39.2254 101.563 38.8896 101.87 38.6767 102.259H38.5907L38.9137 100.938L38.1707 100.754L36.9111 105.878L37.6647 106.062L38.3862 103.115C38.4347 102.893 38.5291 102.683 38.6638 102.5C38.7984 102.317 38.9701 102.165 39.1674 102.054C39.3646 101.942 39.5829 101.874 39.8082 101.853C40.0335 101.833 40.2608 101.86 40.4748 101.934C40.6551 101.965 40.8261 102.036 40.9747 102.143C41.1233 102.251 41.2456 102.391 41.3319 102.553C41.4182 102.715 41.4662 102.895 41.4725 103.079C41.4788 103.263 41.4431 103.446 41.3682 103.613L40.5823 106.787L41.3361 106.982L42.1651 103.635C42.2666 103.4 42.3137 103.145 42.3034 102.889C42.293 102.633 42.2253 102.382 42.1052 102.156C41.9851 101.93 41.8156 101.734 41.6097 101.583C41.4038 101.432 41.1667 101.33 40.9161 101.285Z" fill="black"/>
<path d="M46.4618 102.259C46.017 102.19 45.562 102.275 45.171 102.499C44.78 102.723 44.4761 103.074 44.3086 103.494H44.2224L44.3946 102.14L43.6302 102.043L42.9736 107.275L43.7488 107.372L44.1254 104.361C44.1476 104.134 44.2172 103.915 44.3296 103.717C44.4421 103.519 44.595 103.348 44.7781 103.214C44.9611 103.08 45.1703 102.986 45.3918 102.939C45.6133 102.893 45.8422 102.893 46.0634 102.942C47 103.072 47.2476 103.711 47.14 104.502L46.731 107.752L47.5061 107.849L47.9366 104.426C48.008 104.185 48.0248 103.931 47.9861 103.682C47.9473 103.433 47.8538 103.196 47.7124 102.989C47.5711 102.781 47.3855 102.608 47.1691 102.482C46.9527 102.356 46.7111 102.28 46.4618 102.259Z" fill="black"/>
<path d="M51.5767 102.585C51.2191 102.562 50.8609 102.619 50.5269 102.749C50.193 102.88 49.8912 103.082 49.6425 103.342C49.3937 103.601 49.2038 103.912 49.086 104.253C48.9683 104.593 48.9254 104.956 48.9604 105.314C48.9124 105.673 48.9435 106.037 49.0516 106.382C49.1597 106.727 49.3423 107.044 49.586 107.31C49.8296 107.576 50.1285 107.784 50.4615 107.92C50.7944 108.057 51.1531 108.117 51.5121 108.098C52.0298 108.165 52.5534 108.033 52.9798 107.731C53.4062 107.428 53.7044 106.976 53.8159 106.463L53.127 106.246C53.061 106.613 52.8582 106.941 52.56 107.162C52.2618 107.384 51.8908 107.482 51.5228 107.438C51.2765 107.446 51.031 107.402 50.8029 107.308C50.5749 107.214 50.3696 107.072 50.2005 106.891C50.0313 106.711 49.9024 106.496 49.8222 106.262C49.7421 106.027 49.7124 105.778 49.7355 105.531L53.8374 105.596C53.8517 105.412 53.8517 105.227 53.8374 105.044C53.881 104.726 53.8541 104.403 53.7586 104.097C53.6631 103.792 53.5015 103.511 53.2852 103.276C53.069 103.041 52.8034 102.857 52.508 102.737C52.2126 102.618 51.8946 102.565 51.5767 102.585ZM49.7571 104.935C49.752 104.702 49.7954 104.47 49.8845 104.254C49.9737 104.038 50.1066 103.843 50.2749 103.682C50.4431 103.521 50.643 103.397 50.8615 103.318C51.0801 103.239 51.3128 103.207 51.5444 103.224C52.621 103.224 53.127 103.884 53.1485 104.989L49.7571 104.935Z" fill="black"/>
<path d="M56.9123 104.772C55.8357 104.697 55.4911 104.404 55.448 103.938C55.405 103.472 55.7603 103.072 56.5247 103.007C56.6817 102.972 56.8441 102.969 57.0022 102.998C57.1604 103.028 57.3112 103.089 57.4457 103.177C57.5801 103.266 57.6954 103.381 57.785 103.516C57.8746 103.65 57.9367 103.801 57.9674 103.96L58.6671 103.732C58.5544 103.269 58.2663 102.868 57.8641 102.615C57.4619 102.362 56.9774 102.277 56.5139 102.378C55.2435 102.497 54.6514 103.169 54.7268 104.047C54.8022 104.924 55.3513 105.303 56.6971 105.401C57.8598 105.498 58.2689 105.682 58.3228 106.235C58.3766 106.787 57.9889 107.166 57.1599 107.242C56.7791 107.332 56.3786 107.269 56.0431 107.066C55.7077 106.864 55.4636 106.539 55.3621 106.159L54.6514 106.376C54.7156 106.647 54.8329 106.903 54.9965 107.129C55.1601 107.354 55.3666 107.544 55.6042 107.689C55.8417 107.833 56.1056 107.928 56.3801 107.968C56.6546 108.009 56.9344 107.994 57.2031 107.925C58.6242 107.795 59.1732 107.101 59.0871 106.191C59.001 105.281 58.3765 104.87 56.9123 104.772Z" fill="black"/>
<path d="M63.5846 101.198C63.0407 101.297 62.5389 101.558 62.1445 101.948C61.7501 102.338 61.4812 102.838 61.3728 103.383C61.2644 103.928 61.3216 104.494 61.5368 105.006C61.752 105.518 62.1153 105.954 62.5795 106.256C63.0438 106.558 63.5877 106.712 64.1403 106.699C64.6929 106.686 65.2288 106.506 65.6784 106.183C66.1281 105.859 66.4707 105.407 66.6617 104.885C66.8528 104.363 66.8835 103.796 66.7498 103.256C66.7026 102.899 66.5788 102.556 66.3871 102.251C66.1953 101.947 65.9402 101.688 65.6393 101.492C65.3383 101.296 64.9989 101.169 64.6442 101.118C64.2894 101.067 63.9279 101.094 63.5846 101.198ZM64.6612 105.899C63.477 106.192 62.7125 105.52 62.411 104.285C62.3103 104.043 62.2643 103.782 62.2765 103.52C62.2886 103.258 62.3585 103.002 62.4812 102.771C62.6039 102.54 62.7761 102.339 62.9856 102.183C63.1951 102.027 63.4367 101.92 63.6924 101.869C63.9435 101.798 64.2068 101.784 64.4641 101.827C64.7214 101.87 64.9664 101.969 65.1811 102.118C65.3959 102.267 65.5755 102.462 65.7071 102.688C65.8387 102.915 65.9189 103.168 65.9423 103.429C66.0452 103.671 66.0946 103.932 66.0869 104.195C66.0792 104.458 66.0145 104.715 65.8977 104.951C65.7808 105.186 65.6146 105.392 65.4103 105.556C65.2061 105.72 64.9689 105.837 64.7151 105.899H64.6612Z" fill="black"/>
<path d="M69.6918 99.432L68.0553 100.006L67.937 99.6703C67.7002 98.977 67.8186 98.4896 68.4969 98.2512C68.7314 98.1707 68.9728 98.1127 69.2181 98.078L69.0568 97.4822C68.7671 97.5164 68.482 97.5818 68.2062 97.6772C67.9813 97.7377 67.7726 97.8478 67.5951 97.9995C67.4176 98.1511 67.2759 98.3407 67.18 98.5542C67.0842 98.7677 67.0367 99 67.041 99.2342C67.0453 99.4685 67.1014 99.6988 67.205 99.9087L67.3233 100.255L66.3652 100.591L66.5805 101.219L67.5386 100.884L69.046 105.217L69.7672 104.957L68.2708 100.624L69.9071 100.049L69.6918 99.432Z" fill="black"/>
<path d="M77.8379 98.4464C78.0675 98.9683 78.0833 99.5602 77.8818 100.094C77.6802 100.627 77.2775 101.059 76.7613 101.295C75.3401 102.043 74.156 101.436 73.37 99.9088C72.5841 98.3814 72.7672 97.0924 74.1991 96.3341C74.6766 96.0554 75.2423 95.972 75.7793 96.101C76.3162 96.23 76.7834 96.5617 77.0843 97.0274L77.6873 96.5291C77.2861 95.9138 76.6615 95.4809 75.9472 95.323C75.233 95.165 74.4857 95.2947 73.8652 95.6841C72.0781 96.6265 71.6581 98.3922 72.6485 100.288C73.639 102.184 75.2756 102.899 77.0951 101.945C77.7836 101.649 78.3291 101.092 78.6148 100.396C78.9006 99.6993 78.9038 98.9178 78.6238 98.2189L77.8379 98.4464Z" fill="black"/>
<path d="M79.4493 92.2287C78.8537 92.6093 78.3857 93.1613 78.1057 93.8129C77.8256 94.4645 77.7465 95.1857 77.8788 95.883C78.0111 96.5803 78.3485 97.2215 78.8474 97.7235C79.3463 98.2255 79.9838 98.5651 80.6768 98.6982C81.3698 98.8313 82.0865 98.7519 82.7341 98.4701C83.3817 98.1884 83.9302 97.7173 84.3085 97.1181C84.6868 96.5189 84.8775 95.8191 84.8557 95.1095C84.834 94.3999 84.6006 93.7133 84.1863 93.1387C83.9599 92.7372 83.6497 92.3901 83.2768 92.1213C82.904 91.8525 82.4776 91.6684 82.027 91.5819C81.5765 91.4953 81.1124 91.5084 80.6673 91.62C80.2223 91.7317 79.8067 91.9394 79.4493 92.2287ZM83.1205 97.3742C81.7209 98.3816 80.3967 97.905 79.4385 96.5617C79.1912 96.3019 79.0042 95.9902 78.8908 95.649C78.7774 95.3078 78.7403 94.9456 78.7825 94.5883C78.8247 94.2311 78.945 93.8876 79.1347 93.5826C79.3244 93.2777 79.5789 93.0188 79.8799 92.8246C81.2579 91.828 82.5823 92.2721 83.5297 93.6153C84.4771 94.9585 84.4664 96.3667 83.0776 97.3742H83.1205Z" fill="black"/>
<path d="M88.5153 94.0379C88.1708 94.352 87.7402 94.807 87.4387 95.1211C87.0942 94.6878 87.148 94.3195 87.6971 93.4637C88.2462 92.608 88.5046 91.9147 88.0201 91.3731C87.5357 90.8314 86.8035 90.8531 86.0499 91.5356C85.7087 91.7923 85.4823 92.1743 85.4198 92.5984C85.3573 93.0225 85.4639 93.4542 85.7163 93.7995L86.2331 93.4854C86.1368 93.3736 86.0644 93.2431 86.0202 93.1019C85.976 92.9608 85.9609 92.8121 85.976 92.6649C85.9911 92.5177 86.0362 92.3752 86.1082 92.2462C86.1802 92.1172 86.2775 92.0043 86.3945 91.9147C86.8897 91.4597 87.2774 91.4814 87.5573 91.7847C87.8372 92.088 87.7833 92.4996 87.2342 93.3446C86.6852 94.1895 86.5451 94.9153 87.148 95.5869L87.3528 95.8252L89.9689 93.4529L89.6135 93.0412L88.5153 94.0379Z" fill="black"/>
<path d="M89.0753 85.3498C88.7195 85.703 88.5061 86.1761 88.4763 86.6781C88.4464 87.1801 88.6024 87.6755 88.9139 88.0688L89.5384 87.6138C89.3035 87.3677 89.1723 87.0397 89.1723 86.6984C89.1723 86.3572 89.3035 86.0292 89.5384 85.7831C89.635 85.6268 89.7673 85.4962 89.9245 85.4022C90.0817 85.3082 90.259 85.2536 90.4415 85.2429C90.6241 85.2323 90.8066 85.266 90.9735 85.3412C91.1405 85.4163 91.2871 85.5307 91.4009 85.6747L91.7668 85.9889L90.6042 87.3755C89.7968 88.3287 89.9152 89.217 90.6042 89.7803C91.2933 90.3436 92.1115 90.2352 92.7575 89.4553C93.0577 89.1439 93.2419 88.738 93.2792 88.3058C93.3165 87.8736 93.2044 87.4417 92.9619 87.083L93.0158 87.018L93.9739 87.8304L94.4475 87.2672L91.8853 85.1007C91.7011 84.8982 91.473 84.7412 91.2188 84.6417C90.9645 84.5423 90.6909 84.5031 90.4192 84.5272C90.1475 84.5513 89.885 84.638 89.652 84.7807C89.4189 84.9233 89.2215 85.1181 89.0753 85.3498ZM92.5096 86.6063C92.6591 86.7564 92.7765 86.9358 92.8542 87.1334C92.9318 87.331 92.9682 87.5425 92.9612 87.7548C92.9541 87.9672 92.9035 88.1758 92.8129 88.3677C92.7223 88.5596 92.5936 88.7307 92.4344 88.8704C91.8961 89.5095 91.3578 89.4553 91.0456 89.1629C90.7333 88.8704 90.6473 88.2638 91.1318 87.6788L92.2084 86.368L92.5096 86.6063Z" fill="black"/>
<path d="M94.7414 77.4207L94.3001 78.1248L95.5166 79.7172C95.9903 80.3346 96.701 81.2662 97.2716 81.992L97.1961 82.1112C96.3025 81.927 95.1076 81.7104 94.3432 81.5587L92.3945 81.2012L91.9316 81.927L97.5838 82.7395C98.219 83.6927 98.1544 84.126 97.8206 84.6568C97.7061 84.8497 97.5686 85.0279 97.4114 85.1876L97.9497 85.6751C98.1247 85.4858 98.28 85.2788 98.4128 85.0576C98.9619 84.1802 98.8326 83.3569 98.0359 82.1978L94.7414 77.4207Z" fill="black"/>
<path d="M100.222 74.5821L99.7378 75.1238C100.036 75.3417 100.241 75.6645 100.313 76.0278C100.384 76.3912 100.318 76.7685 100.125 77.0845C100.032 77.3141 99.89 77.5208 99.7097 77.6902C99.5294 77.8596 99.3146 77.9878 99.0804 78.066C98.8463 78.1441 98.5981 78.1705 98.3529 78.1432C98.1077 78.1159 97.8713 78.0356 97.6598 77.9077L99.4471 74.203C99.2909 74.1035 99.1292 74.0131 98.9627 73.9322C98.6896 73.7483 98.3781 73.6296 98.0525 73.5854C97.7268 73.5412 97.3954 73.5726 97.0836 73.6771C96.7719 73.7817 96.4883 73.9566 96.2541 74.1886C96.0199 74.4206 95.8416 74.7035 95.7329 75.0155C95.5614 75.3326 95.4603 75.6835 95.4369 76.0438C95.4135 76.4041 95.4682 76.7652 95.5972 77.1021C95.7263 77.439 95.9265 77.7437 96.1842 77.995C96.4418 78.2464 96.7505 78.4383 97.0891 78.5577C97.391 78.7548 97.7326 78.8821 98.0893 78.9304C98.4459 78.9786 98.8088 78.9467 99.1517 78.8369C99.4946 78.727 99.8091 78.542 100.072 78.2952C100.336 78.0484 100.541 77.7458 100.674 77.4094C100.971 76.9687 101.089 76.431 101.005 75.9057C100.921 75.3803 100.641 74.907 100.222 74.5821ZM97.1215 77.6369C96.9091 77.543 96.7186 77.4054 96.5624 77.2328C96.4062 77.0602 96.2877 76.8565 96.2147 76.6349C96.1416 76.4134 96.1158 76.1788 96.1384 75.9465C96.1611 75.7142 96.2319 75.4893 96.3464 75.2863C96.4288 75.0729 96.5579 74.8808 96.7241 74.7244C96.8902 74.5679 97.0892 74.451 97.3063 74.3824C97.5233 74.3138 97.7529 74.2951 97.9781 74.3278C98.2033 74.3605 98.4184 74.4437 98.6073 74.5713L97.1215 77.6369Z" fill="black"/>
<path d="M97.7537 70.1731C97.5422 70.6287 97.5066 71.1471 97.6539 71.6276C97.8011 72.1081 98.1206 72.5164 98.5504 72.773L98.981 72.1338C98.6757 71.9839 98.4409 71.72 98.3262 71.3982C98.2116 71.0765 98.2264 70.7224 98.3675 70.4115C98.6797 69.5124 99.2501 69.3282 100.068 69.6532L100.531 69.8156L99.9177 71.5272C99.5086 72.6971 99.9178 73.4879 100.747 73.7804C101.576 74.0729 102.319 73.6721 102.663 72.6971C102.834 72.3006 102.863 71.8571 102.748 71.4411C102.632 71.025 102.378 70.6615 102.028 70.4115V70.3248L103.201 70.7473L103.449 70.054L100.284 68.9707C100.043 68.8489 99.7776 68.7839 99.508 68.7806C99.2383 68.7774 98.9714 68.8358 98.7276 68.9517C98.4838 69.0676 98.2694 69.2378 98.1007 69.4494C97.932 69.661 97.8133 69.9085 97.7537 70.1731ZM101.414 70.1731C101.608 70.2614 101.782 70.3894 101.925 70.5488C102.067 70.7082 102.176 70.8957 102.242 71.0994C102.309 71.303 102.333 71.5185 102.313 71.732C102.293 71.9455 102.229 72.1524 102.125 72.3396C101.845 73.1196 101.36 73.2496 100.94 73.0979C100.521 72.9463 100.241 72.4047 100.488 71.6897L101.07 70.0648L101.414 70.1731Z" fill="black"/>
<path d="M101.534 67.0643C100.307 66.7393 99.9622 66.1111 100.253 64.9845L100.317 64.7461L99.4993 64.5295V64.7353C99.3835 65.132 99.4212 65.5581 99.605 65.9279C99.7887 66.2977 100.105 66.5837 100.49 66.7285V66.7935L99.1224 66.436L98.9395 67.1726L104.01 68.5051L104.204 67.7468L101.534 67.0643Z" fill="black"/>
<path d="M52.0751 25.6519C46.4395 25.6454 40.9285 27.321 36.2396 30.4666C31.5507 33.6122 27.8945 38.0865 25.7335 43.3234C23.5724 48.5603 23.0036 54.3245 24.0991 59.8867C25.1946 65.4489 27.9052 70.5592 31.8879 74.5711C35.8706 78.5829 40.9466 81.316 46.4734 82.4246C52.0002 83.5332 57.7297 82.9675 62.9369 80.799C68.1441 78.6305 72.5949 74.9568 75.7266 70.2425C78.8582 65.5282 80.5298 59.9851 80.5298 54.3148C80.5241 46.7203 77.5255 39.438 72.1913 34.0648C66.8572 28.6917 59.623 25.6662 52.0751 25.6519ZM76.8371 42.4315C75.5667 43.0056 74.2532 43.5147 73.2734 42.9081C73.1012 42.8106 72.9397 42.6806 72.7675 42.5615C72.5029 42.2887 72.1713 42.0909 71.8065 41.9882C71.4417 41.8855 71.0566 41.8815 70.6897 41.9765C69.6131 42.399 69.6131 43.8072 69.6131 44.4139C69.6131 45.0205 69.4622 45.6054 69.15 45.6379C68.9031 45.6059 68.6692 45.5087 68.4718 45.3563C68.2468 45.1744 67.9791 45.0539 67.6943 45.0065C67.4096 44.959 67.1174 44.9863 66.8461 45.0855C66.5874 45.2248 66.377 45.4402 66.2432 45.7029C65.939 46.3664 65.8805 47.1172 66.0778 47.8203C66.2752 48.5233 66.7156 49.1324 67.3198 49.5376L67.6967 49.7976C67.9775 49.9408 68.2237 50.1441 68.4179 50.3934C68.5091 50.6531 68.5321 50.9321 68.485 51.2034C68.4378 51.4748 68.3221 51.7292 68.1488 51.9424C68.0304 52.1266 67.8903 52.3216 67.7503 52.5057C67.4914 52.8449 67.2645 53.2076 67.0722 53.589C64.7682 53.6973 62.3351 53.7732 59.8266 53.8274C59.8653 53.4645 59.7996 53.098 59.6374 52.7716C59.4752 52.4452 59.2231 52.1724 58.9114 51.9858C58.247 51.6439 57.5027 51.4904 56.7582 51.5416H56.5322C54.6912 51.5416 52.5058 50.8267 51.8491 49.1152C51.5507 48.1917 51.5965 47.1906 51.9781 46.2987C52.3338 45.2248 53.0592 44.3143 54.0236 43.7314C55.66 42.8323 57.6948 43.2981 59.6758 43.7314L60.6664 43.9481C61.6568 44.2455 62.7121 44.2455 63.7025 43.9481C64.2653 43.7503 64.7372 43.3533 65.0304 42.831C65.3236 42.3088 65.4181 41.697 65.2959 41.1099C65.1021 40.4599 64.4882 39.6042 62.6472 39.2576C61.2636 38.9907 59.8476 38.9395 58.4485 39.1059H58.33C57.9754 39.1846 57.608 39.1846 57.2534 39.1059C57.0381 39.0409 56.8552 38.8351 56.8767 38.6942C56.8983 38.5534 57.1565 38.4235 57.5657 38.261C57.9286 38.1414 58.2678 37.958 58.5671 37.7194C58.9497 37.3184 59.1981 36.807 59.2775 36.2569C59.328 35.9699 59.4302 35.6946 59.579 35.4445C60.0479 34.9719 60.6715 34.687 61.3338 34.6429H61.5814C62.9594 34.3396 63.8316 33.5596 63.907 32.6172C63.9185 32.3243 63.8821 32.0316 63.7992 31.7506V31.5231C63.6812 30.8704 63.7916 30.1967 64.1115 29.6166C69.6535 32.3391 74.1298 36.8507 76.8263 42.4315H76.8371ZM69.3976 49.8626C69.1248 49.4527 68.7548 49.1176 68.3209 48.8877L67.9874 48.671C67.5926 48.4195 67.2964 48.0382 67.1492 47.592C67.002 47.1457 67.013 46.662 67.1799 46.2229C67.216 46.1478 67.2717 46.0841 67.3413 46.0387C67.449 45.9846 67.6644 46.1037 67.9658 46.277C68.3458 46.5589 68.8073 46.7074 69.2793 46.6995C70.1621 46.602 70.722 45.7029 70.6897 44.3922C70.6897 43.8505 70.6895 43.1031 71.0771 42.9623C71.4647 42.8214 71.6585 43.0706 72.1537 43.4281C72.3507 43.573 72.5557 43.7068 72.7675 43.8289C74.1563 44.6088 75.7604 44.0889 77.2892 43.4064C78.5349 46.3335 79.2636 49.4567 79.4424 52.6357C76.3633 53.0257 72.5843 53.329 68.3533 53.5457C68.4502 53.4049 68.5363 53.2749 68.644 53.1341C68.7516 52.9932 68.9456 52.7332 69.0856 52.5166C69.3752 52.1457 69.5567 51.7012 69.6099 51.2326C69.6632 50.764 69.5858 50.2896 69.3868 49.8626H69.3976ZM31.7163 44.793H31.8672C32.5257 44.7178 33.1614 44.5056 33.7342 44.17C34.3069 43.8343 34.8039 43.3824 35.1937 42.8431C35.5059 42.4748 35.7859 42.0849 36.0766 41.6949C36.4667 41.1321 36.8986 40.5997 37.3685 40.1025C37.6996 39.7245 38.1192 39.4355 38.5891 39.2615C39.059 39.0875 39.5644 39.034 40.06 39.1059C40.554 39.2691 41.0139 39.5224 41.4165 39.8533C41.6991 40.0623 41.994 40.254 42.2994 40.4275C43.0219 40.8313 43.8445 41.0173 44.6692 40.9636C45.4939 40.9098 46.2859 40.6184 46.9505 40.1241C47.618 39.5901 48.0724 38.8322 48.2305 37.9889C48.3886 37.1456 48.24 36.2733 47.8118 35.5312C47.0474 34.3396 45.5508 33.7004 43.3868 33.6246C42.4609 33.6246 41.5134 33.6246 40.5875 33.6246C38.559 33.8348 36.5095 33.6546 34.5479 33.0938C37.2346 30.8287 40.3309 29.1072 43.6667 28.0242C44.6082 28.5653 45.3918 29.3461 45.9385 30.2882L46.0245 30.429C46.2489 30.8241 46.5534 31.1673 46.9181 31.4364C47.239 31.6454 47.6125 31.7582 47.9947 31.7614C48.6125 31.744 49.2128 31.5526 49.7279 31.209C50.0179 31.0263 50.2949 30.8236 50.5569 30.6024C50.8869 30.3165 51.2481 30.0694 51.6335 29.8658C52.4214 29.5743 53.2614 29.4525 54.099 29.5083C55.0082 29.5617 55.9197 29.4516 56.7905 29.1833C57.1913 29.0389 57.5585 28.8135 57.8695 28.521C58.1805 28.2285 58.4288 27.8752 58.5992 27.4826C60.1639 27.8742 61.6916 28.4034 63.1642 29.0641C62.7502 29.8472 62.6098 30.7476 62.7657 31.6206L62.8304 31.8806C62.879 32.057 62.9041 32.2391 62.9056 32.4222C62.9056 32.9855 62.0982 33.343 61.4092 33.5055L61.1616 33.5596C60.4768 33.5363 59.8075 33.7674 59.2812 34.209C58.755 34.6505 58.4088 35.2716 58.3087 35.9536C58.2669 36.296 58.1286 36.6193 57.9102 36.8852C57.7032 37.0351 57.4745 37.152 57.2321 37.2319C56.7046 37.4377 56.0371 37.6977 55.8971 38.4451C55.8527 38.8022 55.9367 39.1635 56.1342 39.4636C56.3317 39.7636 56.6296 39.9827 56.9737 40.0808C57.4523 40.1883 57.9484 40.1883 58.427 40.0808H58.5455C59.8408 39.9323 61.1507 39.9798 62.4319 40.2217C63.1533 40.3625 64.0683 40.6658 64.2621 41.3049C64.304 41.6361 64.2304 41.9716 64.0537 42.2542C63.8769 42.5367 63.6081 42.7487 63.2933 42.854C62.4991 43.0893 61.6543 43.0893 60.8601 42.854L59.8913 42.6373C57.8242 42.1607 55.477 41.6299 53.496 42.724C52.3085 43.4304 51.4113 44.5407 50.9662 45.8545C50.4955 46.9876 50.4495 48.254 50.8369 49.4185C51.9135 52.1916 55.4232 52.5058 56.4783 52.5274H56.7151C57.28 52.4822 57.847 52.5828 58.3623 52.8199C58.5204 52.9152 58.643 53.0602 58.7111 53.2324C58.7792 53.4047 58.7891 53.5947 58.7392 53.7731C56.7475 53.7731 54.7128 53.8274 52.6457 53.8274C43.2945 53.9318 33.9458 53.4506 24.654 52.3866C24.8787 48.8783 25.7743 45.4466 27.2916 42.2798C28.3682 43.4606 29.9291 44.793 31.6947 44.793H31.7163ZM57.6088 27.2768C57.3533 27.7144 56.9532 28.048 56.4783 28.2192C55.692 28.4468 54.8722 28.5348 54.0559 28.4792C53.3181 28.3939 52.5708 28.4677 51.8635 28.6956C51.1563 28.9234 50.5056 29.3001 49.9542 29.8007C49.7066 29.9848 49.4695 30.1798 49.2004 30.3423C48.9634 30.5303 48.6811 30.6515 48.3822 30.6934C48.0832 30.7353 47.7786 30.6964 47.4995 30.5807C47.2629 30.3854 47.0655 30.1464 46.9181 29.8765L46.8211 29.7357C46.3234 28.95 45.7058 28.2482 44.991 27.6559C47.3088 27.033 49.6975 26.7162 52.0967 26.7134C53.9411 26.7139 55.7806 26.9026 57.5872 27.2768H57.6088ZM33.6435 33.8954C35.8726 34.7005 38.2552 34.9821 40.6091 34.7187C41.5027 34.7187 42.4394 34.6537 43.3329 34.7187C45.1309 34.7837 46.326 35.2603 46.8966 36.1378C47.1772 36.6588 47.2684 37.262 47.1544 37.8433C47.0404 38.4247 46.7283 38.9478 46.2721 39.3226C45.7715 39.6899 45.1765 39.9046 44.558 39.9411C43.9396 39.9776 43.3237 39.8343 42.7839 39.5284C42.513 39.369 42.2507 39.1954 41.998 39.0084C41.491 38.6056 40.9141 38.3008 40.2968 38.1093C39.6266 37.9892 38.9372 38.0426 38.2932 38.2643C37.6491 38.486 37.0716 38.8688 36.6149 39.3767C36.0938 39.9095 35.6183 40.4857 35.1937 41.0991C34.9353 41.4674 34.6662 41.8357 34.3755 42.1824C33.7559 43.0326 32.827 43.6012 31.7917 43.7639C30.2307 43.8289 28.6374 42.269 27.873 41.3807C29.3534 38.5696 31.3056 36.0373 33.6435 33.8954ZM29.337 69.6429C31.2534 69.6429 36.6042 69.8703 39.6618 73.0009C40.5034 73.9204 41.1373 75.0122 41.5201 76.2014C41.9029 77.3906 42.0257 78.6491 41.8797 79.8905C36.7608 77.8171 32.3769 74.2476 29.2939 69.6429H29.337ZM62.3673 79.8905C62.2212 78.6491 62.344 77.3906 62.7268 76.2014C63.1097 75.0122 63.7435 73.9204 64.5851 73.0009C67.6319 69.8703 72.9935 69.632 74.9099 69.6429C71.8256 74.2489 67.4427 77.8215 62.3244 79.9012L62.3673 79.8905ZM75.5665 68.6029C74.5975 68.5379 67.7074 68.2888 63.8316 72.2535C62.8446 73.3202 62.108 74.596 61.6757 75.987C61.2435 77.378 61.1265 78.8489 61.3338 80.2913C55.3772 82.4285 48.8697 82.4285 42.9132 80.2913C43.1204 78.8489 43.0035 77.378 42.5712 75.987C42.139 74.596 41.4023 73.3202 40.4154 72.2535C36.5396 68.2888 29.6494 68.5379 28.6697 68.6029C26.0652 64.2943 24.6905 59.347 24.6968 54.304C24.6968 54.044 24.6968 53.784 24.6968 53.5349C33.9897 54.5853 43.3377 55.0628 52.6886 54.9648C61.6302 55.0458 70.5694 54.6227 79.4639 53.6974C79.4639 53.8924 79.4639 54.0982 79.4639 54.304C79.487 59.3483 78.1234 64.3007 75.5236 68.6137L75.5665 68.6029Z" fill="black"/>
<path d="M38.3081 51.5628C40.7273 52.2691 43.2205 52.6872 45.7366 52.8086C47.5884 52.8086 48.256 52.332 48.5682 51.8553C48.758 51.5151 48.8382 51.1239 48.7977 50.7358C48.7572 50.3478 48.5981 49.982 48.3422 49.6888C47.3385 48.2055 46.8433 46.4331 46.9317 44.6408C46.9256 44.125 46.7419 43.6273 46.4121 43.2323C46.0823 42.8373 45.627 42.5694 45.1231 42.4743C43.5297 41.9543 40.9565 42.2685 40.1491 43.4167C39.9787 43.6468 39.8867 43.9261 39.8867 44.213C39.8867 44.4999 39.9787 44.7791 40.1491 45.0091C39.3096 45.5278 38.409 45.939 37.4683 46.2332C35.3151 47.0348 33.4527 47.7281 33.5173 48.9305C33.6142 49.9596 34.9922 50.7179 38.3081 51.5628ZM40.6874 44.7275L40.2676 45.0525L40.6874 44.7275ZM37.8989 47.2081C39.9013 46.4607 41.0535 45.9949 41.2688 45.2258C41.3114 45.0858 41.3188 44.9374 41.2906 44.7937C41.2624 44.6501 41.1994 44.5157 41.1071 44.4025C40.9241 44.1642 40.9889 44.0667 41.0427 44.0017C41.7334 43.4591 42.6028 43.1997 43.4759 43.2759C43.9346 43.2703 44.3916 43.3324 44.8324 43.4601C45.543 43.6876 45.909 44.0667 45.909 44.5434C45.8135 46.5575 46.377 48.5476 47.5131 50.2088C47.5131 50.2738 47.9545 50.8587 47.7392 51.1837C47.5239 51.5087 46.1997 52.4077 38.5988 50.4579C34.7553 49.483 34.6475 48.8222 34.6475 48.8114C34.6475 48.4431 36.9084 47.5981 37.8773 47.2407L37.8989 47.2081Z" fill="black"/>
</g>
<defs>
<clipPath id="clip0_1_874">
<rect width="104.129" height="108.109" fill="white"/>
</clipPath>
</defs>
</svg>
