<svg width="104" height="109" viewBox="0 0 104 109" fill="none" xmlns="http://www.w3.org/2000/svg">
<g clip-path="url(#clip0_1_825)">
<path d="M4.31004 33.5071C5.40269 34.0539 6.55006 33.7586 7.94865 31.8449C9.0413 30.4014 9.66392 30.0624 10.4834 30.467C11.3029 30.8716 11.5762 31.7027 10.8878 33.0587C10.78 33.3696 10.61 33.6554 10.3884 33.8985C10.1669 34.1417 9.89827 34.3373 9.59883 34.4734C9.29939 34.6094 8.97554 34.683 8.64676 34.6899C8.31799 34.6967 7.99126 34.6366 7.68643 34.5131L7.44608 35.4974C9.1069 36.0441 10.6146 35.563 11.6636 33.4634C12.7125 31.3637 12.1881 30.1826 10.8769 29.5046C9.78423 28.9907 8.77897 29.1766 7.30389 31.145C6.09105 32.7416 5.41373 32.9166 4.70351 32.5666C3.99329 32.2167 3.74189 31.3747 4.34285 30.1718C4.4342 29.9133 4.57746 29.6765 4.76407 29.4758C4.95067 29.2751 5.1765 29.115 5.4275 29.0052C5.6785 28.8955 5.94935 28.8386 6.22325 28.838C6.49714 28.8374 6.7683 28.8931 7.01979 29.0016L7.28202 27.9846C6.92333 27.8563 6.54287 27.8 6.16242 27.819C5.78197 27.8381 5.40906 27.9321 5.06497 28.0956C4.72088 28.2592 4.41235 28.4891 4.15718 28.7722C3.90202 29.0552 3.7053 29.3859 3.57805 29.7453C2.72578 31.5715 3.0972 32.8838 4.31004 33.5071Z" fill="black"/>
<path d="M14.8229 28.1047C15.1495 27.6475 15.3159 27.095 15.2962 26.5333C15.2764 25.9716 15.0718 25.4321 14.7138 24.999V24.9116L16.1234 25.9067L16.6807 25.1084L11.2174 21.27L10.6492 22.0792L13.785 24.2664C14.0239 24.4263 14.2264 24.6349 14.3793 24.8785C14.5322 25.1221 14.6323 25.3952 14.6725 25.6801C14.7127 25.9649 14.6922 26.2551 14.6127 26.5316C14.5333 26.8081 14.3966 27.0646 14.2113 27.2846C14.0941 27.4836 13.9326 27.6531 13.7396 27.7799C13.5467 27.9067 13.3274 27.9875 13.0983 28.016C12.8693 28.0446 12.6365 28.02 12.4184 27.9444C12.2002 27.8688 12.0024 27.7441 11.84 27.5799L8.45297 25.185L7.88477 25.9942L11.4359 28.4984C12.7143 29.3623 13.927 29.3842 14.8229 28.1047Z" fill="black"/>
<path d="M19.7983 24.9336L16.9138 22.156H16.9685C17.4682 22.4622 18.0586 22.5849 18.6387 22.5031C19.2188 22.4213 19.7524 22.1402 20.1481 21.7077C21.2407 20.5267 21.0769 18.9628 19.4598 17.41C17.8427 15.8571 16.2911 15.6603 15.0892 16.9179C14.6805 17.3191 14.4267 17.8519 14.3727 18.4223C14.3187 18.9927 14.468 19.5637 14.7942 20.0345L14.7285 20.1002L13.4502 18.8535L12.7617 19.5643L19.132 25.6992L19.7983 24.9336ZM15.6571 20.9422C15.4166 20.7559 15.2191 20.52 15.0777 20.2505C14.9364 19.9809 14.8545 19.6841 14.8379 19.3801C14.8213 19.0762 14.8705 18.7723 14.9817 18.4889C15.0929 18.2056 15.2636 17.9495 15.4824 17.7381C16.4549 16.743 17.5038 16.8414 18.7604 18.0662C20.0169 19.2909 20.1698 20.3517 19.2192 21.3468C19.0146 21.5688 18.7663 21.746 18.4899 21.8672C18.2134 21.9884 17.9148 22.0509 17.613 22.0509C17.3112 22.0509 17.0129 21.9884 16.7365 21.8672C16.46 21.746 16.2115 21.5688 16.0069 21.3468L15.6571 20.9422Z" fill="black"/>
<path d="M22.1828 17.0815C22.634 17.4568 23.2022 17.6622 23.7889 17.6622C24.3756 17.6622 24.9438 17.4568 25.3951 17.0815C26.6953 16.0863 26.739 14.5116 25.3951 12.7072C24.0511 10.9029 22.5322 10.5201 21.1445 11.5481C20.6794 11.8807 20.3474 12.3677 20.2074 12.9224C20.0673 13.477 20.1283 14.0634 20.3797 14.5772H20.3032L19.2105 13.1556L18.4238 13.7461L23.778 20.7996L24.5647 20.1981L22.1828 17.0815ZM21.4286 16.0864L21.1226 15.6927C20.914 15.471 20.7556 15.207 20.6579 14.9185C20.5603 14.6301 20.5257 14.324 20.5568 14.0211C20.5879 13.7181 20.6841 13.4254 20.8383 13.1628C20.9925 12.9003 21.2012 12.674 21.4505 12.4995C22.5431 11.6574 23.5813 11.9199 24.6412 13.3196C25.7011 14.7194 25.6792 15.802 24.5865 16.6003C24.3494 16.7845 24.0769 16.9178 23.786 16.992C23.4951 17.0661 23.1921 17.0795 22.8958 17.0313C22.5995 16.983 22.3165 16.8743 22.064 16.7117C21.8116 16.5491 21.5952 16.3363 21.4286 16.0864Z" fill="black"/>
<path d="M30.7418 13.7352C32.5775 12.74 32.9928 10.9794 31.9657 9.07662C31.7598 8.69606 31.4809 8.35985 31.1452 8.08712C30.8094 7.81439 30.4232 7.61052 30.0088 7.48714C29.5943 7.36377 29.1597 7.32325 28.7296 7.368C28.2995 7.41276 27.8825 7.54191 27.5023 7.74798C27.122 7.95406 26.7859 8.23306 26.5134 8.56909C26.2409 8.90511 26.0373 9.29154 25.914 9.70636C25.7907 10.1212 25.7503 10.5563 25.795 10.9867C25.8397 11.4172 25.9687 11.8346 26.1746 12.2151C27.2563 14.1179 28.8843 14.7303 30.7418 13.7352ZM27.8464 8.36585C29.1466 7.65503 30.3267 8.12527 31.1243 9.53596C31.922 10.9466 31.7035 12.237 30.3486 12.9697C28.9937 13.7024 27.8355 13.1446 27.0707 11.7339C26.8599 11.4755 26.711 11.1724 26.6353 10.8475C26.5596 10.5226 26.5591 10.1848 26.634 9.85974C26.7088 9.5347 26.8571 9.23109 27.0672 8.97216C27.2773 8.71324 27.5439 8.50584 27.8464 8.36585Z" fill="black"/>
<path d="M35.3531 11.3947L34.1076 8.21253C33.5285 6.71436 33.911 5.89421 35.2877 5.35837L35.5718 5.23809L35.1893 4.24292L34.938 4.34137C34.4445 4.51611 34.0358 4.87192 33.7944 5.33681C33.553 5.8017 33.497 6.34097 33.6378 6.84559H33.5612L32.9055 5.18336L32.0098 5.53331L34.4354 11.7337L35.3531 11.3947Z" fill="black"/>
<path d="M36.1661 4.86667L37.2588 4.57139L38.3514 8.2895C38.3851 8.56151 38.4792 8.82249 38.6267 9.0534C38.7743 9.28431 38.9717 9.47931 39.2043 9.62401C39.4369 9.76871 39.6988 9.85944 39.9709 9.88965C40.2431 9.91987 40.5185 9.88879 40.7771 9.79861C41.2269 9.68124 41.6525 9.48498 42.0338 9.219L41.6622 8.42072C41.3639 8.62099 41.0358 8.77232 40.6899 8.86905C39.925 9.08776 39.4879 8.75974 39.2694 7.96145L38.2423 4.30894L40.4276 3.69655L40.1982 2.88733L38.0129 3.49972L37.4885 1.65161L36.5596 1.91405L37.0731 3.76217L35.9805 4.05745L36.1661 4.86667Z" fill="black"/>
<path d="M42.2177 -0.0770127L41.0273 0.156494L41.2207 1.14376L42.411 0.910253L42.2177 -0.0770127Z" fill="black"/>
<path d="M42.556 2.42124L41.6016 2.60864L42.8827 9.14384L43.8371 8.95643L42.556 2.42124Z" fill="black"/>
<path d="M46.3308 8.50808L46.0029 4.68064C45.9703 4.39541 45.9988 4.10648 46.0864 3.83311C46.174 3.55973 46.3189 3.30812 46.5111 3.09504C46.7033 2.88195 46.9387 2.71228 47.2015 2.59725C47.4643 2.48222 47.7485 2.42451 48.0354 2.42792C49.2264 2.31856 49.6963 3.05123 49.7837 4.0573L50.1332 8.17996L51.1277 8.09253L50.7451 3.7183C50.6249 2.26387 49.8492 1.32342 48.2976 1.46558C47.739 1.50794 47.2104 1.7351 46.7949 2.11128C46.3795 2.48745 46.1008 2.99122 46.0029 3.5433H45.8938L45.7407 1.82641L44.7793 1.91391L45.3475 8.5518L46.3308 8.50808Z" fill="black"/>
<path d="M54.6899 10.6404C57.2249 10.7935 58.0661 10.2577 58.1426 8.9892C58.2082 8.005 57.5417 7.38164 56.2414 7.30509L53.9467 7.18481C53.4769 7.18481 53.2257 7.0208 53.2366 6.72554C53.2665 6.54542 53.3548 6.38018 53.4879 6.25532L53.7501 5.90537C54.1025 6.02854 54.4702 6.10216 54.8428 6.12409C56.6675 6.23345 57.6508 5.55542 57.7382 4.25409C57.7928 3.22615 57.0389 2.75589 56.1102 2.51531V2.39503C56.7221 2.49345 57.1482 2.54817 57.4979 2.57004H58.3174V1.76075L55.1597 1.56392C53.4005 1.4655 52.3079 2.19818 52.2096 3.75103C52.1631 4.20002 52.268 4.6517 52.5076 5.03414C52.7471 5.41659 53.1076 5.70783 53.5317 5.86158L53.0072 6.16781C52.6466 6.36465 52.3515 6.61619 52.3296 6.94426C52.3207 7.1513 52.3864 7.35466 52.5148 7.51727C52.6431 7.67987 52.8258 7.79088 53.0291 7.83004V7.89565C52.0785 8.01594 51.5211 8.42056 51.4883 8.9892C51.4992 9.85311 52.2096 10.4873 54.6899 10.6404ZM53.2038 3.79482C53.2585 2.8981 53.8375 2.3622 55.0722 2.43875C56.3069 2.5153 56.9299 3.10583 56.8752 4.02442C56.8206 4.94301 56.2087 5.44608 54.9084 5.35859C53.6082 5.27111 53.1492 4.72434 53.2038 3.79482ZM53.772 7.92842L56.2086 8.08153C57.0062 8.08153 57.3013 8.50802 57.3013 8.96731C57.3013 9.64532 56.7767 9.97338 54.7662 9.85309C52.7558 9.7328 52.3734 9.43754 52.4171 8.75953C52.439 8.35492 52.8542 7.87374 53.772 7.92842Z" fill="black"/>
<path d="M63.2305 5.83933L67.0657 6.85633L67.3061 5.97055L63.46 4.95355L64.2576 1.9244L68.6063 3.07263L68.8467 2.14311L63.5146 0.732422L61.3184 9.03251L62.3127 9.29496L63.2305 5.83933Z" fill="black"/>
<path d="M71.9596 6.19004C72.1809 6.24803 72.3853 6.35786 72.5558 6.51048C72.7263 6.66311 72.858 6.85415 72.9402 7.06781C73.0224 7.28147 73.0527 7.5116 73.0285 7.73927C73.0043 7.96693 72.9263 8.1856 72.8009 8.37715L72.5606 8.94575L70.4519 8.05998C68.9986 7.44759 67.9714 7.93969 67.5452 8.9567C67.1191 9.97371 67.5454 10.9579 68.7801 11.4609C69.2681 11.7014 69.8237 11.7674 70.3545 11.6481C70.8852 11.5287 71.359 11.2311 71.6974 10.8048H71.8067L71.1948 12.2702L72.0471 12.631L73.697 8.69426C73.865 8.39292 73.9615 8.05699 73.9792 7.71237C73.997 7.36774 73.9354 7.0236 73.7992 6.70658C73.663 6.38957 73.456 6.10814 73.1939 5.88395C72.9318 5.65976 72.6215 5.49883 72.2874 5.41359C71.7329 5.12762 71.0927 5.0554 70.4884 5.21062C69.8841 5.36584 69.3579 5.73772 69.0095 6.25565L69.7852 6.84615C69.9967 6.4809 70.3391 6.20984 70.7429 6.08799C71.1467 5.96613 71.5817 6.00264 71.9596 6.19004ZM72.1018 10.0612C71.978 10.3005 71.8062 10.5116 71.5971 10.6814C71.3879 10.8512 71.1459 10.9759 70.8864 11.0478C70.6269 11.1196 70.3554 11.1371 70.0888 11.099C69.8222 11.061 69.5664 10.9683 69.3373 10.8267C68.3649 10.4221 68.2446 9.79877 68.4632 9.26293C68.6817 8.72709 69.3918 8.43178 70.2769 8.80359L72.2765 9.64565L72.1018 10.0612Z" fill="black"/>
<path d="M74.0019 13.5714L76.1872 10.3891C76.3425 10.1486 76.5468 9.94372 76.7866 9.7877C77.0265 9.63168 77.2963 9.52806 77.5789 9.48368C77.8615 9.43929 78.1503 9.45514 78.4264 9.53013C78.7025 9.60512 78.9597 9.73756 79.1811 9.91885C79.379 10.0362 79.5478 10.1967 79.6751 10.3885C79.8024 10.5802 79.885 10.7982 79.9165 11.0263C79.948 11.2543 79.9276 11.4866 79.857 11.7057C79.7865 11.9248 79.6676 12.1251 79.5089 12.2919L77.1924 15.7147L78.0119 16.2724L80.1972 13.0902C80.35 12.8469 80.5533 12.6393 80.7931 12.4812C81.0329 12.3231 81.3036 12.2183 81.5872 12.1737C81.8709 12.1292 82.1608 12.1459 82.4374 12.2229C82.7141 12.2999 82.971 12.4353 83.191 12.62C83.3889 12.7373 83.558 12.8979 83.6853 13.0896C83.8127 13.2813 83.895 13.4993 83.9265 13.7273C83.958 13.9554 83.9378 14.1876 83.8673 14.4067C83.7967 14.6259 83.6775 14.8263 83.5189 14.993L81.2023 18.4158L82.0218 18.9735L84.4587 15.3757C84.6648 15.1379 84.8172 14.8584 84.9055 14.5563C84.9938 14.2541 85.0157 13.9365 84.97 13.625C84.9244 13.3136 84.8121 13.0156 84.6409 12.7515C84.4696 12.4875 84.2434 12.2635 83.9777 12.095C83.51 11.7339 82.9253 11.5588 82.3363 11.6032C81.7473 11.6476 81.1956 11.9085 80.7872 12.3356L80.6669 12.2591C80.8212 12.0322 80.9273 11.7759 80.9785 11.5063C81.0297 11.2367 81.0248 10.9595 80.9644 10.6918C80.9039 10.4241 80.7892 10.1717 80.6272 9.95029C80.4651 9.72891 80.2592 9.54331 80.0224 9.40492C79.5624 9.0782 79.0057 8.9166 78.4424 8.94638C77.8791 8.97615 77.3423 9.19551 76.9192 9.56891L76.821 9.5033L77.7934 8.08169L76.9848 7.53491L73.248 13.0027L74.0019 13.5714Z" fill="black"/>
<path d="M88.8228 13.2852L88.1348 14.0186L89.0189 14.8495L89.707 14.1162L88.8228 13.2852Z" fill="black"/>
<path d="M87.1923 15.0557L82.6445 19.9026L83.3534 20.5688L87.9011 15.722L87.1923 15.0557Z" fill="black"/>
<path d="M91.4085 15.7421L84.7363 22.0657L85.405 22.7723L92.0771 16.4487L91.4085 15.7421Z" fill="black"/>
<path d="M91.5689 19.632L86.4746 23.9163L87.1002 24.6614L92.1946 20.3771L91.5689 19.632Z" fill="black"/>
<path d="M90.6216 23.6862C90.2161 23.8952 89.8616 24.1912 89.5834 24.553C89.3052 24.9148 89.1101 25.3335 89.012 25.7794C88.9139 26.2253 88.9153 26.6873 89.016 27.1326C89.1167 27.5779 89.3143 27.9955 89.5946 28.3556C89.9037 28.9439 90.4218 29.3949 91.0468 29.6196C91.6719 29.8443 92.3582 29.8264 92.9707 29.5695L92.6976 28.6946C92.269 28.8897 91.7825 28.9147 91.3363 28.7645C90.89 28.6143 90.5174 28.3001 90.2938 27.8854C90.0956 27.6356 89.9546 27.3454 89.8803 27.0352C89.806 26.725 89.8005 26.4023 89.864 26.0897C89.9275 25.7772 90.0585 25.4823 90.2479 25.2258C90.4373 24.9693 90.6805 24.7573 90.9604 24.6047L93.8777 28.979C94.0842 28.8654 94.2849 28.7413 94.4787 28.6072C94.8381 28.4162 95.1511 28.1484 95.3956 27.8229C95.64 27.4973 95.81 27.1219 95.8934 26.7234C95.9768 26.3248 95.9716 25.9127 95.8782 25.5163C95.7847 25.12 95.6055 24.7491 95.3529 24.4298C95.1135 24.0428 94.7933 23.7121 94.4144 23.4604C94.0356 23.2086 93.607 23.0417 93.1577 22.9711C92.7085 22.9005 92.2494 22.9278 91.8117 23.0512C91.3739 23.1746 90.968 23.3913 90.6216 23.6862ZM94.6644 24.8562C94.8445 25.0832 94.9718 25.3477 95.0368 25.6301C95.1017 25.9126 95.1028 26.206 95.04 26.489C94.9772 26.7719 94.8518 27.0372 94.6735 27.2656C94.4951 27.494 94.2682 27.6795 94.009 27.8088L91.594 24.233C91.8329 24.0532 92.1071 23.9259 92.3985 23.8597C92.69 23.7934 92.9922 23.7896 93.2852 23.8484C93.5783 23.9073 93.8555 24.0276 94.0989 24.2013C94.3422 24.3749 94.5461 24.5981 94.6972 24.8562H94.6644Z" fill="black"/>
<path d="M95.4081 32.0742C95.8343 33.4959 95.8015 34.0754 95.1678 34.3816C94.534 34.6878 93.9224 34.3817 93.4634 33.4521C93.1852 33.0346 93.0819 32.5244 93.1759 32.0315C93.2699 31.5385 93.5537 31.1022 93.966 30.8166L93.3978 30.073C92.3052 30.9479 91.8571 32.0086 92.7312 33.7911C93.6053 35.5736 94.5889 35.7485 95.6269 35.2455C96.6649 34.7425 96.8177 33.8567 96.2714 32.0852C95.878 30.7839 96.0529 30.2371 96.5773 29.9746C97.1018 29.7122 97.7464 29.9746 98.1835 30.8276C98.3006 31.0017 98.3812 31.1978 98.4199 31.4041C98.4586 31.6104 98.4547 31.8224 98.4087 32.0272C98.3626 32.2319 98.2753 32.4251 98.152 32.5949C98.0288 32.7647 97.8722 32.9076 97.6919 33.0147L98.2929 33.7365C98.7912 33.3893 99.1333 32.8601 99.2457 32.2629C99.3581 31.6656 99.2319 31.0481 98.8939 30.5432C98.1837 29.0888 97.1238 28.6842 96.1185 29.1763C95.1133 29.6684 94.9274 30.4339 95.4081 32.0742Z" fill="black"/>
<path d="M5.39021 75.0947C5.84251 74.9795 6.26231 74.7619 6.61731 74.4586C6.97231 74.1554 7.25312 73.7746 7.43787 73.3457C7.62261 72.9167 7.7065 72.451 7.68302 71.9845C7.65954 71.518 7.52922 71.0631 7.30235 70.6549L6.36255 68.26L-0.0292969 70.7752L0.921171 73.2029C1.05718 73.6452 1.28828 74.0524 1.59821 74.3958C1.90814 74.7392 2.28955 75.0106 2.7154 75.1908C3.14126 75.3711 3.60126 75.4559 4.06334 75.4393C4.52543 75.4227 4.97836 75.3051 5.39021 75.0947ZM1.56593 72.9076L0.932108 71.3111L6.00216 69.3208L6.60317 70.8409C7.29154 72.6015 6.79971 73.6841 5.09517 74.3511C3.39064 75.0182 2.27618 74.6355 1.58781 72.8748L1.56593 72.9076Z" fill="black"/>
<path d="M8.74252 77.0517C8.50132 76.5477 8.11444 76.1279 7.63199 75.8467C7.14955 75.5655 6.59373 75.4358 6.03677 75.4745C5.4798 75.5131 4.94724 75.7184 4.50823 76.0636C4.06921 76.4088 3.74391 76.8781 3.57457 77.4105C3.40522 77.943 3.39972 78.5141 3.55856 79.0497C3.7174 79.5854 4.03341 80.061 4.46555 80.4148C4.89769 80.7685 5.42598 80.9842 5.98208 81.0339C6.53818 81.0835 7.09636 80.9649 7.58424 80.6932C7.91971 80.5534 8.22081 80.3421 8.46642 80.074C8.71204 79.806 8.89639 79.4876 9.00661 79.1411C9.11684 78.7945 9.15011 78.428 9.10451 78.0672C9.05891 77.7064 8.93549 77.3598 8.74252 77.0517ZM4.47008 79.3809C3.86912 78.2874 4.31726 77.3797 5.44269 76.7564C5.65792 76.6401 5.89401 76.5673 6.13733 76.5423C6.38066 76.5172 6.62641 76.5404 6.86079 76.6105C7.09517 76.6805 7.3134 76.7961 7.50315 76.9506C7.69289 77.1051 7.85055 77.2955 7.96678 77.5109C8.083 77.7263 8.15571 77.9626 8.18072 78.2061C8.20573 78.4496 8.18244 78.6957 8.11243 78.9303C8.04242 79.1648 7.92695 79.3833 7.77258 79.5732C7.6182 79.7631 7.42788 79.9207 7.21265 80.037C6.99915 80.204 6.751 80.3206 6.48626 80.3783C6.22151 80.436 5.9471 80.4332 5.68357 80.3702C5.42005 80.3071 5.17419 80.1855 4.96412 80.0142C4.75406 79.8429 4.58505 79.6265 4.47008 79.3809Z" fill="black"/>
<path d="M12.1093 82.3448C11.8523 81.9786 11.4813 81.7081 11.0543 81.5756C10.6272 81.443 10.1682 81.4558 9.74928 81.6121L9.69459 81.5356L10.7872 80.7373L10.3394 80.103L5.96875 83.1978L6.42758 83.843L8.92979 82.0605C9.11338 81.9228 9.32406 81.8254 9.54788 81.7748C9.77169 81.7242 10.0035 81.7216 10.2284 81.767C10.4533 81.8124 10.6662 81.9049 10.8529 82.0384C11.0396 82.1719 11.1959 82.3434 11.3117 82.5416C11.4293 82.6841 11.5129 82.8515 11.556 83.0311C11.5992 83.2108 11.6009 83.3978 11.5609 83.5782C11.5208 83.7585 11.4401 83.9274 11.325 84.0718C11.2099 84.2163 11.0634 84.3325 10.8966 84.4116L8.1978 86.3254L8.65663 86.9706L11.4976 84.9584C11.7304 84.8478 11.9352 84.6862 12.097 84.4855C12.2588 84.2847 12.3733 84.0501 12.4321 83.799C12.4909 83.548 12.4925 83.2868 12.4366 83.0351C12.3807 82.7833 12.2688 82.5474 12.1093 82.3448Z" fill="black"/>
<path d="M15.2261 86.2272C14.9221 85.8196 14.478 85.5392 13.9795 85.4402C13.481 85.3412 12.9637 85.4307 12.5273 85.6913L12.8879 86.3802C13.1716 86.182 13.5207 86.101 13.8627 86.154C14.2046 86.2069 14.5129 86.3898 14.7235 86.6646C14.8667 86.7823 14.9793 86.933 15.0516 87.1037C15.124 87.2745 15.1539 87.4603 15.1389 87.6451C15.1238 87.83 15.0642 88.0085 14.9652 88.1653C14.8662 88.3221 14.7307 88.4525 14.5704 88.5455L14.1991 88.8736L13.0408 87.4957C12.9192 87.2984 12.7558 87.1303 12.5622 87.003C12.3687 86.8758 12.1496 86.7925 11.9204 86.7591C11.6912 86.7258 11.4576 86.7431 11.2359 86.8099C11.0141 86.8767 10.8097 86.9913 10.637 87.1457C9.87215 87.8237 9.97049 88.6002 10.637 89.3328C10.9043 89.6764 11.2823 89.9166 11.7067 90.0123C12.1311 90.108 12.5755 90.0534 12.9642 89.8577L13.0298 89.9343L12.0794 90.7763L12.582 91.3341L15.1167 89.0595C15.3372 88.899 15.5184 88.6906 15.6468 88.4499C15.7751 88.2092 15.8475 87.9424 15.858 87.6698C15.8686 87.3972 15.817 87.1257 15.7076 86.8758C15.5982 86.6259 15.4335 86.4042 15.2261 86.2272ZM13.4996 89.5078C13.3284 89.6379 13.1324 89.7314 12.9237 89.7828C12.7149 89.8341 12.4981 89.8421 12.2861 89.8062C12.0742 89.7703 11.8718 89.6914 11.6915 89.5743C11.5112 89.4571 11.357 89.3042 11.238 89.1251C10.6808 88.4908 10.8009 88.0315 11.1396 87.6925C11.4783 87.3535 12.1012 87.3973 12.6038 87.9768L13.7728 89.2672L13.4996 89.5078Z" fill="black"/>
<path d="M15.6449 92.1103L17.7101 89.9232L19.0322 91.1589L19.491 90.6669L18.169 89.4311L19.2616 88.3376L18.6825 87.8018L17.6445 88.8953L17.0107 88.2938L16.5409 88.7969L17.1857 89.3874L15.077 91.651C14.906 91.7883 14.7679 91.9623 14.6731 92.1601C14.5783 92.3579 14.5293 92.5744 14.5293 92.7938C14.5293 93.0131 14.5783 93.2297 14.6731 93.4275C14.7679 93.6253 14.906 93.7993 15.077 93.9366C15.3498 94.1946 15.6635 94.4053 16.0055 94.5599L16.3881 93.9694C16.128 93.8465 15.8883 93.6842 15.6777 93.4882C15.1423 93.0289 15.2297 92.6024 15.6449 92.1103Z" fill="black"/>
<path d="M21.8902 92.4054C21.6123 92.1694 21.2863 91.9967 20.935 91.8994C20.5837 91.802 20.2153 91.7822 19.8557 91.8416C19.496 91.9009 19.1536 92.0378 18.8521 92.2428C18.5506 92.4478 18.2971 92.716 18.1094 93.0287C17.8549 93.2886 17.6606 93.6013 17.5402 93.9446C17.4198 94.288 17.3764 94.6536 17.4129 95.0157C17.4494 95.3777 17.565 95.7274 17.7515 96.0398C17.9379 96.3521 18.1907 96.6197 18.492 96.8234C18.8719 97.1945 19.3778 97.4084 19.9085 97.4226C20.4391 97.4368 20.9556 97.2501 21.3549 96.8999L20.9286 96.3094C20.655 96.567 20.2934 96.7104 19.9178 96.7104C19.5422 96.7104 19.1809 96.567 18.9073 96.3094C18.7016 96.1684 18.5287 95.9848 18.4002 95.7709C18.2717 95.5571 18.1908 95.3181 18.1628 95.0702C18.1348 94.8222 18.1605 94.5711 18.238 94.334C18.3156 94.0968 18.4432 93.8792 18.6123 93.6958L21.8902 96.2438C22.0323 96.0907 22.1741 95.9157 22.2506 95.8173C22.4864 95.5865 22.6669 95.3052 22.7786 94.9947C22.8902 94.6841 22.9304 94.3523 22.8957 94.0241C22.861 93.6958 22.7523 93.3797 22.5782 93.0994C22.4041 92.8191 22.169 92.5818 21.8902 92.4054ZM21.7043 95.3034L18.9836 93.2037C19.1196 93.0114 19.2945 92.8498 19.4969 92.7294C19.6992 92.609 19.9247 92.5324 20.1584 92.5045C20.3922 92.4767 20.629 92.4983 20.8539 92.5679C21.0788 92.6375 21.2867 92.7535 21.464 92.9085C21.6577 93.0342 21.8207 93.2019 21.9409 93.3991C22.0612 93.5964 22.1358 93.8182 22.1589 94.0482C22.1819 94.2781 22.153 94.5102 22.0743 94.7275C21.9956 94.9448 21.8692 95.1416 21.7043 95.3034Z" fill="black"/>
<path d="M32.0211 98.7052L30.5568 100.225C29.8903 100.914 29.2894 101.527 28.6775 102.215L28.4916 102.117C28.732 101.253 28.9178 100.345 29.0817 99.4925L29.4314 97.3382L28.6228 96.9227L27.1258 98.4537C26.5139 99.0661 25.8802 99.7659 25.3121 100.444L25.1155 100.345C25.3449 99.4488 25.4979 98.6067 25.6618 97.6553L26.0441 95.5667L25.3339 95.1948L24.416 100.663L25.3011 101.133L27.0167 99.3722C27.5776 98.8036 28.1129 98.2131 28.6228 97.6007L28.7647 97.6772C28.5681 98.4536 28.3823 99.2191 28.2294 100.006L27.7705 102.423L28.6775 102.904L32.6875 98.9895L32.0211 98.7052Z" fill="black"/>
<path d="M33.3509 99.1263L31.3887 104.076L32.1097 104.363L34.072 99.4126L33.3509 99.1263Z" fill="black"/>
<path d="M34.179 97.4717L33.8848 98.2136L34.7886 98.5727L35.0829 97.8307L34.179 97.4717Z" fill="black"/>
<path d="M35.3011 103.811L36.2407 100.935L37.9562 101.493L38.1638 100.848L36.4482 100.29L36.9182 98.8357L36.186 98.5842L35.7053 100.05L34.8858 99.7762L34.6673 100.421L35.4977 100.684L34.5361 103.626C34.4378 103.822 34.385 104.037 34.3811 104.256C34.3772 104.476 34.4224 104.693 34.5137 104.892C34.6049 105.092 34.7398 105.268 34.9082 105.409C35.0766 105.549 35.2743 105.65 35.4868 105.703C35.8377 105.826 36.2077 105.886 36.5795 105.878L36.6886 105.189C36.4026 105.184 36.1193 105.136 35.8475 105.047C35.2356 104.85 35.0935 104.446 35.3011 103.811Z" fill="black"/>
<path d="M41.7252 101.58C41.286 101.47 40.8228 101.512 40.4103 101.699C39.9979 101.885 39.6603 102.206 39.4524 102.608H39.3761L40.119 99.3273L39.3433 99.1523L37.748 106.337L38.5238 106.501L39.1902 103.505C39.2343 103.279 39.3262 103.065 39.4593 102.878C39.5925 102.69 39.7639 102.533 39.9624 102.418C40.1609 102.302 40.3818 102.229 40.6104 102.206C40.839 102.182 41.0702 102.207 41.2882 102.28C42.1951 102.477 42.3807 103.155 42.2168 103.942L41.5067 107.223L42.2715 107.398L43.0254 103.997C43.1392 103.755 43.1949 103.491 43.1878 103.224C43.1808 102.957 43.111 102.695 42.9846 102.46C42.8581 102.225 42.6783 102.023 42.4596 101.87C42.2408 101.717 41.9893 101.618 41.7252 101.58Z" fill="black"/>
<path d="M48.7842 102.532C48.4219 102.494 48.0558 102.534 47.7107 102.651C47.3657 102.768 47.05 102.958 46.7853 103.208C46.5206 103.458 46.313 103.763 46.1771 104.101C46.0412 104.44 45.9801 104.803 45.9978 105.167C45.932 105.526 45.9459 105.895 46.0387 106.247C46.1314 106.6 46.3006 106.928 46.5343 107.208C46.768 107.487 47.0603 107.712 47.3906 107.866C47.7209 108.02 48.081 108.099 48.4454 108.098C48.9679 108.192 49.5068 108.086 49.9544 107.8C50.4021 107.515 50.7257 107.07 50.8604 106.556L50.1828 106.305C50.0872 106.665 49.8606 106.977 49.5474 107.179C49.2341 107.382 48.8568 107.46 48.4891 107.398C48.239 107.394 47.9925 107.338 47.7662 107.231C47.5399 107.125 47.339 106.971 47.1767 106.78C47.0143 106.59 46.8943 106.367 46.8248 106.127C46.7553 105.886 46.7381 105.634 46.7738 105.386L50.9257 105.659C50.9588 105.475 50.9808 105.289 50.9913 105.102C51.0482 104.782 51.0333 104.454 50.9478 104.141C50.8624 103.828 50.7083 103.539 50.497 103.293C50.2857 103.047 50.0226 102.851 49.7264 102.719C49.4301 102.588 49.1082 102.524 48.7842 102.532ZM46.8173 104.817C46.8247 104.582 46.8812 104.35 46.983 104.138C47.0848 103.925 47.2298 103.736 47.4087 103.583C47.5877 103.429 47.7965 103.315 48.022 103.247C48.2476 103.179 48.4848 103.159 48.7185 103.188C49.8112 103.254 50.2812 103.932 50.2593 105.036L46.8173 104.817Z" fill="black"/>
<path d="M55.0283 104.708C54.7224 105.572 54.4055 106.512 54.1651 107.343H53.9575C53.6516 106.523 53.2692 105.648 52.8649 104.784L51.9907 102.794H51.1387L53.5643 108.032H54.5367L56.5144 102.619H55.6621L55.0283 104.708Z" fill="black"/>
<path d="M59.8767 106.961C59.6313 107.012 59.3778 107.009 59.1336 106.953C58.8893 106.897 58.66 106.789 58.4611 106.637C58.2621 106.484 58.0981 106.291 57.9803 106.069C57.8626 105.848 57.7939 105.604 57.7787 105.353L61.898 104.752C61.8945 104.565 61.8762 104.378 61.8433 104.194C61.8374 103.868 61.7585 103.547 61.6123 103.254C61.4661 102.962 61.2566 102.707 60.9987 102.506C60.7409 102.306 60.4414 102.166 60.1224 102.097C59.8035 102.027 59.4731 102.03 59.1554 102.106C58.7934 102.143 58.4437 102.258 58.1303 102.443C57.8168 102.628 57.5472 102.878 57.3396 103.178C57.132 103.477 56.9915 103.817 56.9277 104.176C56.8639 104.534 56.8784 104.903 56.9701 105.255C56.9799 105.62 57.0697 105.979 57.2334 106.306C57.3971 106.633 57.6307 106.919 57.9174 107.146C58.2041 107.372 58.5368 107.533 58.8924 107.616C59.248 107.699 59.6176 107.703 59.9749 107.628C60.5054 107.61 61.0096 107.393 61.3879 107.02C61.7663 106.647 61.9913 106.146 62.0183 105.616L61.297 105.517C61.2838 105.892 61.1305 106.249 60.8675 106.516C60.6045 106.783 60.2511 106.942 59.8767 106.961ZM59.2211 102.762C60.3137 102.598 60.9146 103.166 61.1113 104.26L57.7024 104.752C57.6655 104.523 57.676 104.289 57.7336 104.064C57.7912 103.84 57.8946 103.63 58.0372 103.447C58.1797 103.264 58.3584 103.113 58.5622 103.003C58.7659 102.892 58.9902 102.825 59.2211 102.805V102.762Z" fill="black"/>
<path d="M64.8147 101.011C64.4051 101.099 64.0437 101.338 63.8026 101.68C63.5615 102.023 63.4585 102.444 63.5145 102.86H63.4489L63.1104 101.471L62.3672 101.646L63.602 106.829L64.3778 106.643L63.733 103.986C63.438 102.739 63.8315 102.116 64.9788 101.799H65.2301L65.0225 100.968L64.8147 101.011Z" fill="black"/>
<path d="M69.3056 101.646C69.3056 102.433 69.24 103.614 69.2181 104.555H69.0872C68.5081 103.833 67.7105 102.893 67.2078 102.28L65.9074 100.738L65.0879 101.012L68.9887 105.287C68.8795 106.447 68.5517 106.742 67.9508 106.939C67.7342 107.012 67.5108 107.063 67.2841 107.092L67.3935 107.814C67.6537 107.776 67.9097 107.713 68.1583 107.628C69.1417 107.3 69.5789 106.534 69.6882 105.156L70.1689 99.3057L69.3822 99.5791L69.3056 101.646Z" fill="black"/>
<path d="M74.8811 96.9651C74.4654 97.1605 74.1332 97.4985 73.9448 97.9177C73.7564 98.3369 73.7241 98.8097 73.8538 99.2507H73.7885L73.1328 97.9822L72.4336 98.343L75.7115 104.631L76.4107 104.27L74.9465 101.427C75.2462 101.787 75.6619 102.033 76.1224 102.12C76.5828 102.208 77.0594 102.133 77.4706 101.908C78.6288 101.307 78.8801 100.071 78.0606 98.4742C77.2412 96.8776 76.1158 96.3308 74.8811 96.9651ZM76.8586 101.427C76.6461 101.543 76.4114 101.613 76.1698 101.632C75.9283 101.651 75.6857 101.619 75.4576 101.538C75.2295 101.456 75.0211 101.327 74.8464 101.159C74.6717 100.991 74.5345 100.788 74.4439 100.563L74.2692 100.202C74.1345 99.9993 74.0451 99.7699 74.0069 99.5295C73.9688 99.289 73.983 99.0432 74.0483 98.8087C74.1136 98.5742 74.2286 98.3565 74.3855 98.1705C74.5424 97.9844 74.7374 97.8344 74.9574 97.7306C75.9517 97.2276 76.7168 97.5775 77.3615 98.8242C78.0061 100.071 77.842 100.924 76.8586 101.427Z" fill="black"/>
<path d="M80.6795 93.5326L82.3951 96.0806C82.5281 96.2681 82.6201 96.4818 82.6648 96.7075C82.7094 96.9331 82.7057 97.1657 82.6541 97.3899C82.6025 97.614 82.504 97.8247 82.3652 98.0081C82.2264 98.1914 82.0504 98.3433 81.8487 98.4536C81.7047 98.5678 81.5364 98.6474 81.3568 98.6863C81.1772 98.7251 80.991 98.7223 80.8126 98.678C80.6343 98.6336 80.4687 98.5489 80.3282 98.4304C80.1877 98.3119 80.0761 98.1627 80.0022 97.9943L78.1557 95.2386L77.5 95.6869L79.434 98.5739C79.5425 98.8058 79.7018 99.0102 79.9 99.1721C80.0983 99.334 80.3302 99.4491 80.579 99.509C80.8277 99.5688 81.0867 99.5719 81.3368 99.5179C81.5869 99.4639 81.8215 99.3544 82.0235 99.1973C82.3982 98.9519 82.6811 98.5889 82.8275 98.1654C82.9738 97.7418 82.9755 97.2816 82.8323 96.857H82.8976L83.6624 97.9506L84.3072 97.5131L81.3352 93.1389L80.6795 93.5326Z" fill="black"/>
<path d="M84.7276 91.3663L84.9133 91.2023L84.3779 90.5461L84.2032 90.6774C83.8888 90.9365 83.6789 91.301 83.6125 91.7032C83.5462 92.1054 83.6279 92.518 83.8425 92.8645H83.7878L82.8808 91.7709L82.291 92.263L85.6562 96.3748L86.2681 95.8827L84.5307 93.7612C83.7222 92.8317 83.8098 92.1099 84.7276 91.3663Z" fill="black"/>
<path d="M90.0101 89.8245C90.2738 90.1407 90.4013 90.5487 90.3644 90.9589C90.3275 91.369 90.1294 91.7477 89.8135 92.0116C89.6313 92.2043 89.4086 92.3542 89.1615 92.4503C88.9145 92.5465 88.6492 92.5867 88.3847 92.5679C88.1203 92.5491 87.8634 92.4717 87.6325 92.3415C87.4015 92.2113 87.2022 92.0314 87.0491 91.8148C86.8334 91.6613 86.6548 91.4614 86.5265 91.2297C86.3982 90.998 86.3235 90.7405 86.3077 90.4762C86.292 90.2118 86.3359 89.9472 86.4358 89.702C86.5357 89.4567 86.6893 89.237 86.8853 89.059C87.0139 88.8989 87.1736 88.7668 87.355 88.6707C87.5365 88.5746 87.7355 88.5166 87.9401 88.5002C88.1446 88.4838 88.3504 88.5094 88.5448 88.5754C88.7392 88.6414 88.9182 88.7465 89.0706 88.8841L89.4966 88.2498C89.0505 87.8859 88.479 87.7129 87.9062 87.7682C87.3334 87.8234 86.8055 88.1026 86.4371 88.5451C86.1666 88.7887 85.9515 89.0877 85.8068 89.4219C85.662 89.7561 85.5909 90.1176 85.5982 90.4818C85.6054 90.8459 85.6909 91.2043 85.8489 91.5324C86.0069 91.8605 86.2336 92.1508 86.5137 92.3834C86.7387 92.674 87.0251 92.9114 87.3521 93.0788C87.6792 93.2461 88.039 93.3394 88.4061 93.3519C88.7732 93.3645 89.1384 93.2959 89.4761 93.1512C89.8137 93.0065 90.1155 92.7892 90.3598 92.5147C90.8054 92.1559 91.0927 91.6366 91.1601 91.0683C91.2275 90.4999 91.0698 89.9278 90.7205 89.4746L90.0101 89.8245Z" fill="black"/>
<path d="M90.483 83.9967C90.1894 84.3393 90.0206 84.7715 90.0047 85.2226C89.9888 85.6736 90.1267 86.1167 90.3955 86.4791L90.3408 86.5447L87.7077 84.3576L87.2051 84.97L92.9087 89.6067L93.4003 88.9943L91.0294 87.0587C90.8465 86.9188 90.6954 86.7415 90.5865 86.5386C90.4777 86.3357 90.4134 86.1118 90.3979 85.882C90.3824 85.6522 90.416 85.4218 90.4966 85.206C90.5772 84.9903 90.7029 84.7942 90.8653 84.631C90.9712 84.4814 91.1097 84.3578 91.2702 84.2695C91.4308 84.1811 91.6091 84.1303 91.792 84.1208C91.975 84.1113 92.1578 84.1435 92.3266 84.2148C92.4954 84.2861 92.6457 84.3947 92.7665 84.5326L95.3343 86.6213L95.826 86.0089L93.1272 83.8218C92.9547 83.6352 92.7426 83.4895 92.5067 83.3954C92.2707 83.3013 92.0167 83.2611 91.7632 83.2779C91.5098 83.2947 91.2634 83.3679 91.0419 83.4923C90.8204 83.6166 90.6295 83.789 90.483 83.9967Z" fill="black"/>
<path d="M93.3631 79.9721C93.0511 80.373 92.8986 80.8754 92.935 81.3823C92.9713 81.8891 93.1938 82.3646 93.5597 82.7169L94.1388 82.1811C93.8698 81.9641 93.6963 81.6504 93.6555 81.307C93.6146 80.9637 93.7097 80.618 93.9204 80.3439C93.9965 80.1747 94.1122 80.0262 94.2576 79.9111C94.4029 79.7959 94.5736 79.7173 94.7556 79.6819C94.9376 79.6466 95.1257 79.6554 95.3035 79.7078C95.4814 79.7602 95.644 79.8546 95.7778 79.983L96.1932 80.2564L95.1987 81.7983C95.0424 81.9682 94.9252 82.1704 94.8551 82.3904C94.785 82.6105 94.7635 82.8433 94.7927 83.0724C94.8218 83.3016 94.9007 83.5216 95.0237 83.7171C95.1467 83.9126 95.3108 84.0788 95.5047 84.2041C96.3569 84.7509 97.0781 84.4556 97.69 83.5808C97.9524 83.2316 98.0862 82.8023 98.0682 82.3657C98.0503 81.9292 97.8817 81.5123 97.5915 81.1859V81.1093L98.6842 81.7983L99.0886 81.1749L96.215 79.3269C96.002 79.1354 95.7463 78.9978 95.4692 78.9256C95.1921 78.8533 94.9018 78.8486 94.6225 78.9118C94.3432 78.975 94.0829 79.1043 93.8638 79.2887C93.6447 79.4732 93.4731 79.7075 93.3631 79.9721ZM96.9908 80.7703C97.1605 80.901 97.3014 81.0652 97.4051 81.2526C97.5087 81.4401 97.5729 81.6469 97.5934 81.8602C97.6139 82.0734 97.5904 82.2887 97.5243 82.4925C97.4582 82.6963 97.351 82.8843 97.2093 83.0449C96.7503 83.7558 96.2368 83.7667 95.8544 83.5261C95.472 83.2855 95.3298 82.6731 95.745 82.0279L96.6848 80.5735L96.9908 80.7703Z" fill="black"/>
<path d="M100.458 75.4658C99.6928 75.0721 99.0046 75.3673 98.1304 76.5593C97.4858 77.4342 97.0377 77.5873 96.6334 77.3795C96.2291 77.1717 96.0652 76.6359 96.4149 75.9469C96.4694 75.7926 96.5545 75.651 96.6651 75.5304C96.7758 75.4099 96.9096 75.313 97.0586 75.2456C97.2076 75.1781 97.3689 75.1416 97.5324 75.1381C97.6959 75.1346 97.8584 75.1642 98.0101 75.2252L98.1849 74.4925C97.7226 74.3396 97.2189 74.3756 96.783 74.5927C96.3472 74.8098 96.0145 75.1904 95.8576 75.6516C95.2676 76.7452 95.5188 77.6748 96.3165 78.0794C97.1141 78.484 97.726 78.2106 98.5018 77.117C99.2775 76.0235 99.5944 75.9032 100.086 76.1547C100.578 76.4062 100.709 76.942 100.326 77.6966C100.19 78.075 99.9122 78.3857 99.5515 78.5631C99.1907 78.7406 98.7754 78.771 98.3927 78.648L98.1958 79.3698C98.4626 79.46 98.7448 79.4961 99.0257 79.4761C99.3066 79.456 99.5806 79.3801 99.8318 79.2529C100.083 79.1256 100.306 78.9495 100.489 78.7349C100.671 78.5202 100.809 78.2714 100.895 78.0028C101.55 76.6687 101.277 75.8266 100.458 75.4658Z" fill="black"/>
<path d="M102.438 69.9987L102.001 70.5783C102.322 70.7725 102.559 71.0803 102.664 71.4408C102.77 71.8013 102.736 72.1882 102.569 72.5248C102.498 72.7665 102.377 72.99 102.211 73.18C102.046 73.3701 101.842 73.5222 101.613 73.626C101.384 73.7298 101.135 73.7829 100.883 73.7816C100.631 73.7803 100.383 73.7246 100.155 73.6184L101.63 69.7144L101.116 69.4957C100.827 69.3412 100.507 69.2536 100.18 69.2396C99.8527 69.2255 99.5266 69.2852 99.2255 69.4144C98.9244 69.5435 98.6563 69.7388 98.4407 69.9857C98.2252 70.2326 98.0678 70.5248 97.9803 70.8408C97.8364 71.176 97.7669 71.5383 97.7762 71.903C97.7856 72.2677 97.8738 72.6261 98.0347 72.9534C98.1957 73.2807 98.4253 73.5693 98.7083 73.7993C98.9913 74.0292 99.3208 74.1951 99.674 74.2854C99.9984 74.4537 100.356 74.5485 100.721 74.563C101.086 74.5776 101.45 74.5115 101.787 74.3696C102.123 74.2277 102.425 74.0134 102.67 73.7418C102.915 73.4702 103.097 73.1481 103.203 72.7982C103.455 72.3217 103.516 71.7671 103.374 71.2471C103.232 70.7272 102.897 70.2808 102.438 69.9987ZM99.5865 73.2794C99.364 73.2025 99.16 73.0804 98.9871 72.9207C98.8141 72.761 98.676 72.5672 98.5816 72.3514C98.4871 72.1357 98.4384 71.9028 98.4383 71.6672C98.4383 71.4317 98.487 71.1987 98.5813 70.983C98.6476 70.7665 98.7604 70.5671 98.9118 70.3989C99.0632 70.2307 99.2497 70.0977 99.4579 70.0091C99.6661 69.9206 99.891 69.8786 100.117 69.8863C100.343 69.8939 100.565 69.951 100.767 70.0534L99.5865 73.2794Z" fill="black"/>
</g>
<path d="M93.4361 18.1296L92.6621 18.7734L93.4384 19.7081L94.2123 19.0643L93.4361 18.1296Z" fill="black"/>
<path d="M24.6105 63.4173V63.5157C24.6105 71.6149 30.4488 79.0256 39.2173 79.0256C46.1885 79.0256 50.2298 73.9977 51.6131 69.2977C52.9856 73.9977 57.0592 79.0256 63.9978 79.0256C72.7663 79.0256 78.6048 71.6149 78.6048 63.5157V63.3955C78.6048 61.6357 78.6048 43.7213 51.6131 29.1077C24.6106 43.7322 24.567 61.6575 24.6105 63.4173Z" stroke="black" stroke-width="0.828072" stroke-miterlimit="10"/>
<defs>
<clipPath id="clip0_1_825">
<rect width="103.409" height="108.109" fill="white"/>
</clipPath>
</defs>
</svg>
