<svg width="108" height="109" viewBox="0 0 108 109" fill="none" xmlns="http://www.w3.org/2000/svg">
<g clip-path="url(#clip0_1_918)">
<path d="M80.9169 62.8941V62.2297C80.9169 61.5544 80.9169 60.7483 80.9169 60.7483V37.1223H47.6631C46.9486 35.8184 46.5618 34.3706 46.5339 32.896V29.5411L46.4661 29.0073H45.3369V32.896C45.3253 34.3635 44.9659 35.8091 44.2866 37.1223H28.8623V60.781V63.0685V63.221C29.8593 66.6306 31.7358 69.741 34.3163 72.2618C40.5154 78.3399 43.9254 78.9389 44.1512 78.9607H50.9149H65.7633C66.1698 78.8844 69.5461 78.1002 75.4743 72.2836C78.0448 69.7512 79.9195 66.6399 80.9282 63.2318L81.0184 62.9268L80.9169 62.8941ZM45.9128 35.9459C46.448 37.5797 47.3799 39.0666 48.631 40.2829C49.882 41.4993 51.416 42.4099 53.1054 42.9389C51.4169 43.4696 49.8837 44.3807 48.6329 45.5968C47.3821 46.8129 46.4497 48.299 45.9128 49.932C45.3972 48.2953 44.4774 46.8038 43.2324 45.5857C41.9874 44.3676 40.4543 43.4594 38.7651 42.9389C40.4636 42.4263 42.0067 41.5213 43.2603 40.3026C44.5138 39.0839 45.4399 37.5884 45.958 35.9459H45.9128ZM43.5867 38.1898C42.6911 39.4692 41.4858 40.5187 40.0751 41.2475C38.6644 41.9763 37.0909 42.3625 35.4906 42.3725L34.9487 42.4379V43.5272H35.4906C38.0874 43.5444 40.5723 44.5493 42.4054 46.3237C44.2385 48.0981 45.2715 50.4987 45.2804 53.0037V56.8924H46.4096V53.0037C46.4529 50.509 47.4972 48.1277 49.3229 46.3604C51.1486 44.5931 53.6134 43.5776 56.1993 43.5272L56.7413 43.4618V42.3725H56.1993C54.6104 42.3455 53.0514 41.9517 51.6526 41.224C50.2539 40.4962 49.0561 39.4558 48.1598 38.1898H79.6521V62.3713L79.178 62.5674C75.6933 64.0125 72.579 66.1764 70.0542 68.9069C67.6304 71.5098 65.8165 74.586 64.7359 77.926H44.7158C43.6352 74.586 41.8213 71.5098 39.3975 68.9069C36.8727 66.1764 33.7584 64.0125 30.2738 62.5674L29.8222 62.3822C29.8222 62.0119 29.8222 61.5108 29.8222 60.8028V38.1898H43.5867ZM30.1497 63.6457C33.4052 65.0233 36.316 67.0589 38.686 69.6149C40.88 71.9807 42.5514 74.753 43.598 77.7625C42.3898 77.305 39.4878 75.8781 35.1066 71.5865C32.8518 69.3438 31.1698 66.6249 30.1946 63.6457H30.1497ZM74.5822 71.5538C70.1446 75.9108 67.22 77.3268 66.0795 77.7516C67.1306 74.7473 68.8016 71.9795 70.9915 69.6149C73.3669 67.0572 76.2812 65.0184 79.5394 63.6349C78.5706 66.6105 76.8876 69.3236 74.6274 71.5538H74.5822Z" fill="black"/>
<path d="M6.74108 40.1177L1.38885 38.8978L1.63751 37.8848L7.03467 39.1156C7.50793 39.1631 7.96383 39.3146 8.36701 39.5583C8.7702 39.8021 9.11011 40.1316 9.36082 40.5217C9.61153 40.9118 9.76621 41.3521 9.8132 41.8089C9.86019 42.2656 9.79814 42.7267 9.63181 43.1568C9.1011 45.3353 7.64448 46.3156 5.39744 45.8037L0 44.5728L0.248383 43.5707L5.51047 44.7689C7.02355 45.1174 8.24312 44.7689 8.69479 42.9498C9.14645 41.1307 8.24287 40.4554 6.74108 40.1177Z" fill="black"/>
<path d="M11.0497 37.9388L10.6546 38.8538L4.30859 36.2941L4.69261 35.4009L6.32984 36.0544L6.38636 35.9564C5.92656 35.6166 5.59709 35.1388 5.44989 34.5984C5.30268 34.058 5.34616 33.4858 5.57339 32.9718C5.69207 32.6788 5.87502 32.4141 6.10985 32.1958C6.34469 31.9776 6.62563 31.811 6.93357 31.7075C7.24151 31.604 7.56916 31.566 7.89375 31.5963C8.21833 31.6265 8.53222 31.7242 8.81395 31.8826L12.9692 33.5491L12.5742 34.4641L8.63338 32.8738C8.43296 32.7489 8.20562 32.6698 7.96873 32.6424C7.73184 32.615 7.49165 32.6401 7.26631 32.7157C7.04097 32.7913 6.8365 32.9154 6.66837 33.0787C6.50024 33.242 6.37278 33.4402 6.29594 33.6581C6.15689 33.9131 6.07596 34.1938 6.0583 34.4814C6.04064 34.769 6.08679 35.057 6.19366 35.3261C6.30053 35.5951 6.46564 35.8391 6.67802 36.0417C6.8904 36.2443 7.14501 36.4009 7.4251 36.501L11.0497 37.9388Z" fill="black"/>
<path d="M13.6481 32.4386L7.6748 29.1708L8.17157 28.3321L9.77517 29.2144V29.149C9.33527 28.8456 9.03028 28.3931 8.92141 27.8822C8.81254 27.3712 8.9078 26.8394 9.18798 26.3932L9.32334 26.1536L10.2945 26.6873L10.125 26.9596C9.37976 28.2341 9.60565 29.1381 11.0397 29.9115L14.111 31.5999L13.6481 32.4386Z" fill="black"/>
<path d="M8.95486 24.3233L8.09668 23.7677L8.79662 22.7656L9.65479 23.3211L8.95486 24.3233ZM15.933 28.7456L10.2307 25.0204L10.7953 24.2252L16.4976 27.9396L15.933 28.7456Z" fill="black"/>
<path d="M18.5845 25.2382L11.4707 23.1251L12.1819 22.3081L14.8469 23.1577C15.9761 23.539 17.1052 23.9202 18.2344 24.3124L18.4037 24.1163C17.8165 23.2122 17.1843 22.1339 16.6085 21.1317L15.2306 18.7789L15.9308 17.9729L19.4088 24.3015L18.5845 25.2382Z" fill="black"/>
<path d="M23.4407 18.1143L23.3619 18.1905C23.6177 18.6755 23.6921 19.2308 23.5727 19.7626C23.4534 20.2944 23.1477 20.7702 22.7068 21.1097C21.7245 21.992 20.7195 22.1228 19.8274 21.1969C18.9354 20.271 19.0371 19.258 20.234 18.1905L21.973 16.6438L21.5438 16.1863C21.4194 15.9884 21.2475 15.8223 21.0423 15.7022C20.8372 15.5822 20.605 15.5116 20.3655 15.4967C20.1261 15.4817 19.8865 15.5227 19.667 15.6162C19.4475 15.7098 19.2547 15.853 19.1049 16.0338C18.7546 16.3005 18.525 16.6876 18.4639 17.1139C18.4029 17.5403 18.5152 17.973 18.7774 18.3212L17.8853 18.7896C17.5423 18.2492 17.4183 17.6057 17.5371 16.9824C17.6559 16.3592 18.0092 15.8003 18.529 15.4129C18.7538 15.1353 19.0431 14.9127 19.3737 14.763C19.7043 14.6134 20.0669 14.5409 20.432 14.5516C20.797 14.5622 21.1542 14.6555 21.4749 14.8241C21.7955 14.9927 22.0705 15.2317 22.2776 15.5219L25.2701 18.648L24.5586 19.2798L23.4407 18.1143ZM22.8086 17.5152L22.4924 17.1775L20.8325 18.648C20.1099 19.2907 19.9743 19.9334 20.4937 20.478C21.0131 21.0226 21.5437 21.0444 22.3454 20.3364C22.576 20.1868 22.7721 19.993 22.9216 19.7671C23.0711 19.5411 23.1706 19.2879 23.2141 19.0231C23.2575 18.7584 23.2439 18.4878 23.1741 18.2284C23.1043 17.9689 22.98 17.7261 22.8086 17.5152Z" fill="black"/>
<path d="M27.0268 17.4064L26.2248 17.9946L20.4775 10.7183L21.2792 10.1301L27.0268 17.4064Z" fill="black"/>
<path d="M29.2432 15.8817L28.4076 16.4264L23.1006 8.80155L23.9362 8.26782L29.2432 15.8817Z" fill="black"/>
<path d="M28.4562 12.3631C28.1871 11.9908 28.005 11.5665 27.9225 11.1197C27.8399 10.6728 27.859 10.214 27.9781 9.77496C28.0973 9.33587 28.3138 8.92695 28.6127 8.57644C28.9117 8.22592 29.2857 7.94213 29.7094 7.7447C30.0629 7.52455 30.4628 7.38278 30.8799 7.32958C31.297 7.27638 31.7211 7.31311 32.1218 7.43708C32.5225 7.56106 32.8897 7.7692 33.1969 8.04653C33.5042 8.32387 33.7437 8.66349 33.8985 9.04092C33.9776 9.18252 34.1131 9.43304 34.2147 9.67268L29.4723 12.1235C29.6009 12.4097 29.7916 12.6659 30.0316 12.8749C30.2717 13.0838 30.5556 13.2405 30.8639 13.3345C31.1722 13.4285 31.4979 13.4575 31.8188 13.4196C32.1398 13.3816 32.4485 13.2777 32.7242 13.1147C33.181 12.9432 33.5527 12.6095 33.7626 12.1822C33.9726 11.7548 34.005 11.2662 33.8533 10.8164L34.768 10.6312C34.9864 11.269 34.9432 11.9632 34.647 12.5711C34.3508 13.179 33.8244 13.6542 33.176 13.899C32.7732 14.1472 32.3178 14.305 31.8434 14.3609C31.3689 14.4168 30.8873 14.3693 30.4344 14.222C29.9815 14.0746 29.5688 13.8311 29.2264 13.5094C28.884 13.1877 28.6208 12.796 28.4562 12.3631ZM29.1222 11.4591L33.0404 9.42217C32.9344 9.15294 32.7679 8.90985 32.5524 8.71057C32.3369 8.51128 32.0782 8.3608 31.7949 8.27005C31.5116 8.1793 31.2106 8.15058 30.9144 8.18595C30.6181 8.22131 30.3339 8.31989 30.0821 8.47452C29.8059 8.59923 29.5599 8.77816 29.3596 8.9999C29.1592 9.22164 29.0088 9.48129 28.9185 9.76223C28.8281 10.0432 28.7996 10.3392 28.8347 10.6314C28.8697 10.9236 28.9677 11.2055 29.1222 11.4591Z" fill="black"/>
<path d="M40.8547 8.65987H40.7643C40.8325 9.22939 40.6945 9.80415 40.3734 10.2866C40.0523 10.7691 39.5679 11.1295 39.0027 11.3068C37.3542 11.8623 35.9994 11.0235 35.2428 8.92128C34.4863 6.81901 35.017 5.29406 36.643 4.74943C37.2002 4.53841 37.8173 4.52676 38.3828 4.71656C38.9482 4.90635 39.4245 5.28509 39.7256 5.78424H39.8157L38.3367 1.71039L39.285 1.39453L42.4015 10.0323L41.4532 10.3482L40.8547 8.65987ZM40.4255 7.47258L40.2449 6.9933C40.1644 6.70403 40.0228 6.43388 39.8292 6.19973C39.6356 5.96557 39.3941 5.77244 39.1196 5.63239C38.8452 5.49235 38.5438 5.40841 38.2342 5.38581C37.9246 5.3632 37.6135 5.40243 37.3203 5.50102C35.9766 5.94762 35.5927 6.97152 36.1911 8.62719C36.7896 10.2829 37.7043 10.8057 39.0706 10.37C39.369 10.2823 39.6446 10.1341 39.8788 9.93534C40.1131 9.7366 40.3005 9.49188 40.4288 9.21756C40.5571 8.94324 40.6232 8.64567 40.6226 8.34474C40.622 8.0438 40.5548 7.74644 40.4255 7.47258Z" fill="black"/>
<path d="M49.5709 5.4464L49.8193 8.71417L48.758 8.77953L48.1143 0.250615L51.5018 0.0109771C53.4891 -0.130626 54.5732 0.675447 54.7087 2.45094C54.7521 2.82138 54.711 3.19648 54.5885 3.55004C54.4659 3.90359 54.2647 4.22705 53.9991 4.49782C53.7335 4.76859 53.4097 4.9801 53.0505 5.11761C52.6913 5.25511 52.3052 5.31528 51.9194 5.29389L49.5709 5.4464ZM49.2434 1.08937L49.5144 4.60765L51.7049 4.45517C53.139 4.35714 53.7148 3.75802 53.6245 2.55984C53.5341 1.36165 52.9583 0.827927 51.4339 0.936853L49.2434 1.08937Z" fill="black"/>
<path d="M55.1521 5.07569C55.1297 4.62286 55.2094 4.17074 55.3856 3.75045C55.5617 3.33016 55.8303 2.95169 56.1726 2.64111C56.515 2.33054 56.9228 2.09526 57.3685 1.95142C57.8142 1.80758 58.2869 1.7586 58.7541 1.80792C59.178 1.80041 59.5984 1.88443 59.9844 2.0538C60.3704 2.22318 60.7123 2.47365 60.9851 2.78688C61.2578 3.10011 61.4547 3.46819 61.561 3.8642C61.6673 4.26021 61.6804 4.67412 61.5996 5.07569C61.5996 5.23908 61.5995 5.5223 61.5205 5.77283L56.1569 5.42426C56.1078 5.73649 56.1299 6.0553 56.2212 6.35858C56.3124 6.66186 56.4709 6.94237 56.6857 7.18068C56.9005 7.41899 57.1663 7.60939 57.465 7.7387C57.7637 7.86801 58.0879 7.93315 58.4153 7.92958C58.8942 8.00853 59.3865 7.9082 59.7914 7.64912C60.1964 7.39003 60.4838 6.9917 60.5947 6.53533L61.4755 6.85119C61.2993 7.48918 60.8813 8.04016 60.3042 8.39516C59.7271 8.75015 59.033 8.88331 58.359 8.76829C57.8808 8.77504 57.407 8.67886 56.9721 8.48677C56.5372 8.29468 56.152 8.0115 55.8449 7.65783C55.5377 7.30415 55.3163 6.88888 55.1965 6.44222C55.0766 5.99555 55.0614 5.52871 55.1521 5.07569ZM56.2247 4.63999L60.6623 4.92321C60.6623 3.53985 60.098 2.7447 58.6752 2.61399C58.3737 2.57741 58.0673 2.60209 57.7762 2.68642C57.4852 2.77075 57.2158 2.91287 56.9851 3.10367C56.7543 3.29447 56.5674 3.52971 56.4365 3.7943C56.3055 4.05888 56.2334 4.34694 56.2247 4.63999Z" fill="black"/>
<path d="M62.2607 8.98697L63.5366 2.45142L64.5078 2.62567L64.169 4.37939H64.2481C64.4035 3.88051 64.7471 3.456 65.2113 3.18978C65.6754 2.92355 66.2262 2.83499 66.7548 2.94156H67.0258L66.8226 4.03082L66.5064 3.97637C65.0159 3.70406 64.248 4.19421 63.9206 5.76274L63.2656 9.11767L62.2607 8.98697Z" fill="black"/>
<path d="M70.1056 3.89954L72.2848 4.50953L72.0477 5.32647L69.8572 4.70558L68.1747 10.2717L67.2148 9.9994L68.8973 4.43327L67.6102 4.07383L67.8585 3.26779L69.1344 3.62723L69.27 3.19153C69.3144 2.90005 69.4261 2.62189 69.5967 2.37748C69.7672 2.13307 69.9923 1.92862 70.2555 1.7792C70.5188 1.62978 70.8133 1.53918 71.1176 1.51403C71.4219 1.48888 71.7281 1.52985 72.0138 1.6339C72.3841 1.73368 72.7404 1.8763 73.0751 2.05869L72.7929 2.78851C72.5092 2.63928 72.2105 2.5188 71.901 2.42904C70.9977 2.17851 70.5009 2.58153 70.2299 3.5183L70.1056 3.89954Z" fill="black"/>
<path d="M71.4093 7.66877C71.5828 7.27182 71.8358 6.91174 72.1536 6.60906C72.4714 6.30638 72.8476 6.06701 73.2613 5.90467C73.6749 5.74233 74.1178 5.66019 74.5644 5.66291C75.0109 5.66562 75.4524 5.75317 75.8639 5.92053C76.2754 6.08789 76.6487 6.33179 76.9625 6.63831C77.2763 6.94484 77.5245 7.30797 77.6927 7.707C77.861 8.10602 77.9461 8.53311 77.9433 8.96389C77.9405 9.39467 77.8497 9.82068 77.6762 10.2176C76.8067 12.2001 75.1243 12.9626 73.1595 12.1565C71.1948 11.3505 70.5398 9.65122 71.4093 7.66877ZM72.3579 8.02824C71.7143 9.49874 71.9965 10.7514 73.487 11.296C74.9775 11.8406 76.1179 11.296 76.7615 9.77106C77.4051 8.2461 77.0212 7.09149 75.6323 6.50329C75.3199 6.34605 74.9738 6.26149 74.6214 6.25643C74.2691 6.25137 73.9205 6.32593 73.6034 6.47413C73.2862 6.62233 73.0094 6.84005 72.7951 7.10991C72.5808 7.37977 72.4349 7.69428 72.3692 8.02824H72.3579Z" fill="black"/>
<path d="M77.0986 13.8008L80.4861 8.04956L81.3443 8.52884L80.4183 10.0756H80.4974C80.8153 9.6551 81.2849 9.36478 81.8138 9.26195C82.3426 9.15911 82.8923 9.2512 83.3543 9.52007L83.5913 9.66167L83.0381 10.5876L82.7558 10.4241C81.4346 9.69433 80.4975 9.9122 79.6958 11.2956L77.9342 14.2474L77.0986 13.8008Z" fill="black"/>
<path d="M81.5886 16.2301L80.8096 15.5983L85.2132 10.5115L85.9925 11.1324L84.8634 12.4504L84.9535 12.5157C85.4266 12.1915 85.9993 12.0303 86.5789 12.0579C87.1585 12.0856 87.7115 12.3005 88.1491 12.6682C88.3804 12.8265 88.5751 13.0296 88.7206 13.2645C88.8661 13.4993 88.9593 13.7608 88.9944 14.0323C89.0294 14.3038 89.0054 14.5794 88.9241 14.8415C88.8427 15.1036 88.7058 15.3465 88.5219 15.5547L88.6346 15.6419C89.0995 15.2603 89.6939 15.0571 90.3041 15.0712C90.9143 15.0852 91.4978 15.3155 91.9433 15.7181C92.2051 15.9113 92.4199 16.1574 92.5726 16.4391C92.7254 16.7209 92.8123 17.0315 92.8273 17.3492C92.8424 17.6668 92.7852 17.9838 92.6597 18.2778C92.5343 18.5719 92.3437 18.8359 92.1012 19.0513L89.2218 22.319L88.4427 21.6872L91.1752 18.5284C91.354 18.378 91.4956 18.191 91.5898 17.9811C91.6841 17.7711 91.7286 17.5435 91.72 17.3149C91.7113 17.0863 91.6498 16.8624 91.5399 16.6596C91.4301 16.4569 91.2747 16.2803 91.0851 16.1429C90.8766 15.9398 90.6254 15.7819 90.3488 15.6795C90.0721 15.5771 89.7762 15.5327 89.4804 15.5492C89.1846 15.5657 88.8958 15.6427 88.6332 15.7751C88.3706 15.9075 88.1402 16.0923 87.9573 16.3172L85.4167 19.2473L84.6263 18.6156L87.3701 15.4567C87.5488 15.3063 87.6905 15.1193 87.7847 14.9094C87.8789 14.6994 87.9232 14.4718 87.9145 14.2432C87.9059 14.0145 87.8444 13.7907 87.7345 13.5879C87.6247 13.3851 87.4693 13.2086 87.2797 13.0712C87.0693 12.8695 86.8171 12.7128 86.5398 12.6113C86.2624 12.5098 85.9659 12.4659 85.6697 12.4824C85.3736 12.4988 85.0844 12.5753 84.8209 12.7067C84.5574 12.8382 84.3256 13.0218 84.1406 13.2455L81.5886 16.2301Z" fill="black"/>
<path d="M93.8242 25.6848L93.7451 25.5977C93.2269 25.8098 92.6487 25.8433 92.1079 25.6925C91.567 25.5417 91.0966 25.2159 90.7755 24.7698C89.9287 23.7568 89.8607 22.7874 90.8883 21.9922C91.9158 21.1971 92.9436 21.3714 93.9599 22.5913L95.4389 24.3777L95.9359 23.9856C96.1482 23.8794 96.3308 23.7256 96.4685 23.537C96.6062 23.3484 96.6947 23.1307 96.7268 22.9021C96.7589 22.6735 96.7336 22.4408 96.6529 22.2237C96.5722 22.0066 96.4385 21.8114 96.2631 21.6545C96.0146 21.2969 95.6308 21.0475 95.1938 20.9599C94.7568 20.8724 94.3016 20.9536 93.926 21.1862L93.508 20.293C94.0829 20.0116 94.7446 19.9426 95.3686 20.0991C95.9925 20.2556 96.5355 20.6267 96.8955 21.1426C97.1664 21.3775 97.3763 21.6705 97.5083 21.9979C97.6404 22.3254 97.6907 22.6782 97.6556 23.0279C97.6204 23.3776 97.5008 23.7145 97.306 24.0113C97.1112 24.3082 96.8467 24.5568 96.5341 24.7372L93.1466 27.395L92.5484 26.676L93.8242 25.6848ZM94.4905 25.1184L94.8517 24.8243L93.4515 23.136C92.8305 22.3953 92.1757 22.221 91.5772 22.6894C90.9787 23.1577 90.9223 23.6479 91.5772 24.4758C91.7164 24.7156 91.9063 24.9244 92.1346 25.0888C92.3629 25.2532 92.6245 25.3696 92.9024 25.4302C93.1803 25.4908 93.4682 25.4943 93.7476 25.4406C94.027 25.3869 94.2918 25.2771 94.5244 25.1184H94.4905Z" fill="black"/>
<path d="M94.4094 29.2254L93.9014 28.3758L99.8295 25.0317L100.338 25.8705L98.8018 26.731L98.8696 26.829C99.4265 26.681 100.019 26.7163 100.552 26.9294C101.086 27.1425 101.531 27.5211 101.817 28.0054C101.992 28.2718 102.105 28.5717 102.149 28.8845C102.192 29.1972 102.164 29.5153 102.068 29.8168C101.971 30.1182 101.808 30.3958 101.589 30.6303C101.37 30.8649 101.101 31.0508 100.8 31.1752L96.9161 33.3537L96.4081 32.5041L100.089 30.4236C100.314 30.3463 100.517 30.22 100.683 30.0544C100.849 29.8889 100.972 29.6885 101.045 29.4691C101.117 29.2498 101.135 29.0172 101.099 28.7898C101.063 28.5623 100.972 28.346 100.834 28.1579C100.71 27.8985 100.529 27.6678 100.305 27.4808C100.081 27.2939 99.818 27.1551 99.534 27.0737C99.2499 26.9923 98.951 26.9702 98.6573 27.0088C98.3637 27.0473 98.082 27.1457 97.8308 27.2974L94.4094 29.2254Z" fill="black"/>
<path d="M104.234 34.9107C103.692 33.6145 102.518 33.1352 100.847 33.767C99.1754 34.3988 98.6674 35.4771 99.2319 36.8605C99.3932 37.3426 99.7428 37.7453 100.206 37.9831C100.67 38.221 101.211 38.2754 101.716 38.1349L101.829 39.0717C101.115 39.2509 100.357 39.1557 99.7146 38.8062C99.0722 38.4567 98.5954 37.8801 98.3851 37.1982C98.1797 36.7853 98.0713 36.3338 98.0675 35.8759C98.0637 35.418 98.1644 34.9648 98.3627 34.5488C98.5611 34.1328 98.8522 33.7641 99.2151 33.4689C99.5781 33.1737 100.004 32.9594 100.463 32.8411C100.879 32.6312 101.337 32.5101 101.806 32.4861C102.276 32.4621 102.745 32.5358 103.182 32.7022C103.619 32.8685 104.014 33.1237 104.339 33.4502C104.665 33.7768 104.914 34.1672 105.07 34.5948C105.246 34.9064 105.357 35.2485 105.395 35.6015C105.434 35.9545 105.4 36.3113 105.295 36.6515C105.19 36.9917 105.016 37.3085 104.784 37.5837C104.551 37.8588 104.265 38.0869 103.94 38.2547L103.387 37.4596C103.618 37.3478 103.824 37.1927 103.992 37.0033C104.16 36.814 104.287 36.5942 104.366 36.3568C104.445 36.1194 104.474 35.8693 104.451 35.621C104.428 35.3726 104.355 35.1312 104.234 34.9107Z" fill="black"/>
<path d="M103.134 39.5295C103.576 39.3768 104.048 39.3181 104.515 39.3577C104.983 39.3972 105.436 39.534 105.844 39.7586C106.251 39.9832 106.604 40.2903 106.877 40.6588C107.15 41.0272 107.337 41.4484 107.425 41.8932C107.555 42.2799 107.594 42.6896 107.54 43.0927C107.486 43.4957 107.339 43.8822 107.111 44.224C106.883 44.5659 106.579 44.8546 106.222 45.0694C105.864 45.2842 105.461 45.4196 105.043 45.466C104.885 45.466 104.591 45.564 104.331 45.5967L103.101 40.5425C102.782 40.5891 102.477 40.7008 102.207 40.8702C101.937 41.0397 101.708 41.263 101.534 41.5251C101.361 41.7871 101.248 42.0819 101.203 42.3897C101.157 42.6974 101.181 43.0109 101.271 43.3092C101.333 43.7731 101.575 44.1972 101.948 44.4963C102.321 44.7953 102.797 44.9472 103.281 44.9214V45.8254C102.596 45.8493 101.927 45.624 101.406 45.1942C100.886 44.7645 100.551 44.1617 100.469 43.5053C100.33 43.074 100.291 42.6186 100.355 42.1711C100.418 41.7236 100.583 41.295 100.837 40.9157C101.092 40.5365 101.429 40.2157 101.826 39.9761C102.223 39.7366 102.67 39.5841 103.134 39.5295ZM103.868 40.3791L104.885 44.5619C106.262 44.1915 106.928 43.3964 106.601 42.0566C106.549 41.7668 106.434 41.4908 106.265 41.2461C106.096 41.0014 105.876 40.7935 105.619 40.6356C105.362 40.4777 105.073 40.3733 104.772 40.3292C104.47 40.285 104.162 40.302 103.868 40.3791Z" fill="black"/>
<path d="M5.74373 75.7251L6.22919 76.3678C6.00338 76.5082 5.80945 76.6913 5.6591 76.9061C5.50874 77.1209 5.40514 77.3629 5.35448 77.6174C5.30382 77.872 5.3072 78.1338 5.3644 78.3871C5.4216 78.6403 5.53138 78.8798 5.68722 79.0909C6.2518 80.1039 7.00844 80.4089 7.76498 80.0168C8.52152 79.6246 8.71349 79.1235 8.05857 77.9471L7.49399 76.9232L8.08118 76.6183L8.62316 77.6095C8.68341 77.7815 8.78233 77.9385 8.91289 78.0693C9.04345 78.2 9.20232 78.3013 9.37823 78.3658C9.55414 78.4304 9.74276 78.4566 9.93041 78.4426C10.1181 78.4286 10.3 78.3747 10.4636 78.2848C11.2879 77.86 11.3783 77.2609 10.8928 76.3786C10.8031 76.179 10.6736 75.9984 10.5115 75.8471C10.3495 75.6959 10.1581 75.5769 9.94833 75.497C9.7386 75.4171 9.51465 75.3778 9.28919 75.3814C9.06372 75.385 8.8413 75.4315 8.63446 75.5181L8.34086 74.7774C8.63887 74.6555 8.95888 74.5914 9.28257 74.5889C9.60626 74.5865 9.92734 74.6456 10.2273 74.763C10.5273 74.8804 10.8002 75.0536 11.0306 75.2729C11.2611 75.4922 11.4444 75.7532 11.5701 76.0409C12.3041 77.3807 12.1686 78.3284 11.0394 78.9166C10.6772 79.115 10.2507 79.1747 9.84495 79.0839C9.43914 78.9931 9.08369 78.7584 8.84893 78.4264L8.74721 78.4809C9.28921 79.7117 9.05207 80.3109 8.17132 80.7683C7.09862 81.3239 6.00338 81.008 5.12263 79.4068C4.90817 79.1273 4.75385 78.8093 4.66887 78.4714C4.5839 78.1335 4.56991 77.7827 4.6278 77.4395C4.68568 77.0964 4.81438 76.7679 5.00602 76.4734C5.19767 76.1789 5.44849 75.9245 5.74373 75.7251Z" fill="black"/>
<path d="M12.6735 82.1844L12.1429 81.4873L12.6961 81.0842L13.2271 81.7923L14.5142 80.8882L14.9884 81.5091L13.7012 82.4132L14.8304 83.8727L14.2658 84.2649L13.1367 82.8162L10.6073 84.5917C10.0428 84.9838 9.91855 85.3977 10.3138 85.9206C10.4927 86.1493 10.7058 86.3512 10.9462 86.5196L10.4265 87.0207C10.1147 86.8018 9.84042 86.5372 9.61354 86.2365C9.47005 86.0681 9.36711 85.8711 9.31223 85.6597C9.25734 85.4483 9.25193 85.2278 9.29624 85.0141C9.34054 84.8004 9.43365 84.5989 9.5686 84.4241C9.70356 84.2493 9.8771 84.1056 10.0767 84.0034L12.6735 82.1844Z" fill="black"/>
<path d="M11.1543 87.9143L15.3887 84.5267L15.908 85.1258L11.6624 88.5133L11.1543 87.9143ZM16.2355 83.7315L16.8679 83.2305L17.5114 83.9712L16.8792 84.4831L16.2355 83.7315Z" fill="black"/>
<path d="M13.4671 90.6371L12.8799 90.1034L16.6737 86.2583L17.2496 86.792L16.2787 87.7833L16.3462 87.8486C16.7387 87.6086 17.2043 87.5048 17.6662 87.5543C18.128 87.6038 18.5585 87.8037 18.8868 88.121C19.0625 88.2588 19.2068 88.4303 19.3103 88.6246C19.4137 88.819 19.4743 89.0319 19.4881 89.25C19.5019 89.468 19.4684 89.6864 19.3902 89.8915C19.312 90.0965 19.1908 90.2836 19.0338 90.4411L19.1242 90.5282C19.5143 90.2475 19.9975 90.1145 20.4824 90.1547C20.9674 90.1948 21.4202 90.4052 21.755 90.746C21.9603 90.9074 22.1259 91.1109 22.2396 91.3417C22.3533 91.5725 22.4124 91.8249 22.4124 92.0804C22.4124 92.336 22.3533 92.5882 22.2396 92.819C22.1259 93.0498 21.9603 93.2533 21.755 93.4147L19.2822 95.92L18.695 95.3863L21.0437 92.9899C21.1953 92.8809 21.3193 92.7402 21.4065 92.5784C21.4937 92.4165 21.5417 92.2377 21.5471 92.0554C21.5525 91.8731 21.5154 91.692 21.4379 91.5256C21.3605 91.3592 21.2451 91.2119 21.1002 91.0946C20.9444 90.9215 20.7519 90.7827 20.5357 90.6875C20.3194 90.5924 20.0844 90.5432 19.8467 90.5432C19.6091 90.5432 19.3741 90.5924 19.1578 90.6875C18.9416 90.7827 18.7491 90.9215 18.5932 91.0946L16.4027 93.2731L15.8155 92.7285L18.1643 90.343C18.316 90.2329 18.4401 90.0912 18.5274 89.9285C18.6146 89.7658 18.6625 89.5861 18.668 89.403C18.6734 89.2199 18.6362 89.038 18.5588 88.8707C18.4813 88.7034 18.3658 88.5551 18.2208 88.4368C18.064 88.2653 17.8709 88.1279 17.6548 88.0338C17.4388 87.9397 17.2044 87.8911 16.9673 87.8911C16.7302 87.8911 16.4959 87.9397 16.2798 88.0338C16.0637 88.1279 15.8709 88.2653 15.7141 88.4368L13.4671 90.6371Z" fill="black"/>
<path d="M22.1233 94.6238C22.3008 94.3041 22.5484 94.0257 22.8489 93.8078C23.1493 93.5899 23.4954 93.4378 23.8631 93.3621C24.2307 93.2864 24.6108 93.2889 24.9773 93.3695C25.3438 93.4501 25.6876 93.6068 25.9849 93.8286C26.2793 93.9894 26.5324 94.2118 26.7257 94.4795C26.919 94.7472 27.0475 95.0534 27.1017 95.3754C27.1559 95.6975 27.1344 96.0272 27.0388 96.3401C26.9433 96.6531 26.776 96.9413 26.5495 97.1836C26.4705 97.2816 26.3352 97.4667 26.1997 97.6192L22.6653 95.2447C22.5013 95.4371 22.382 95.6613 22.3154 95.902C22.2489 96.1427 22.2365 96.3944 22.2793 96.6401C22.3221 96.8858 22.4191 97.1198 22.5635 97.3263C22.708 97.5327 22.8966 97.7069 23.1168 97.8371C23.4083 98.0861 23.7883 98.2172 24.1773 98.203C24.5664 98.1888 24.9347 98.0304 25.2059 97.7609L25.6687 98.3273C25.2734 98.693 24.7503 98.9026 24.2027 98.9147C23.6551 98.9268 23.1228 98.7405 22.7105 98.3926C22.3871 98.2049 22.1108 97.9506 21.9011 97.6479C21.6914 97.3452 21.5533 97.0016 21.4972 96.6415C21.4411 96.2815 21.4681 95.914 21.5763 95.5652C21.6845 95.2164 21.8714 94.8949 22.1233 94.6238ZM23.038 94.7545L25.951 96.726C26.1122 96.5557 26.2324 96.3529 26.3025 96.1324C26.3726 95.9118 26.3908 95.679 26.3563 95.4508C26.3217 95.2225 26.2349 95.0045 26.1024 94.8125C25.9698 94.6205 25.7949 94.4594 25.5899 94.3406C25.3983 94.1956 25.1773 94.0907 24.9412 94.0327C24.7052 93.9747 24.4592 93.9649 24.219 94.0038C23.9788 94.0428 23.7497 94.1297 23.5463 94.2589C23.3429 94.3882 23.1699 94.557 23.038 94.7545Z" fill="black"/>
<path d="M26.4545 98.6652L27.1883 98.8831C27.0504 99.2606 27.0684 99.6749 27.2388 100.04C27.4091 100.405 27.7186 100.693 28.103 100.844C28.8595 101.247 29.4127 101.171 29.695 100.669C29.9773 100.168 29.6949 99.7871 28.769 99.0464C27.8431 98.3057 27.4481 97.5214 27.8546 96.8025C28.2611 96.0836 29.2096 95.8005 30.3839 96.4322C30.8585 96.6013 31.244 96.9453 31.4558 97.3886C31.6675 97.8318 31.6881 98.338 31.5131 98.7959L30.7677 98.5889C30.834 98.4397 30.869 98.2792 30.8702 98.1168C30.8714 97.9544 30.839 97.7934 30.7748 97.6432C30.7107 97.4931 30.6159 97.3567 30.4964 97.2423C30.3769 97.1279 30.2351 97.0377 30.079 96.9769C29.3789 96.5956 28.8595 96.6718 28.5885 97.1402C28.3175 97.6086 28.4981 97.9898 29.3788 98.6652C30.587 99.5802 30.8695 100.266 30.4404 101.018C30.0114 101.77 29.0966 102.107 27.7868 101.399C27.5113 101.307 27.2576 101.162 27.0408 100.974C26.824 100.785 26.6486 100.557 26.5245 100.303C26.4004 100.048 26.3303 99.7719 26.3183 99.4907C26.3062 99.2095 26.3525 98.9289 26.4545 98.6652Z" fill="black"/>
<path d="M36.2381 99.2748L37.9318 99.9284L37.6721 100.549L35.9784 99.9066L34.2168 104.264L33.4717 103.98L35.2332 99.6234L34.2394 99.2422L34.4991 98.6213L35.4929 98.9916L35.6283 98.654C35.6825 98.4272 35.7881 98.2148 35.9373 98.0319C36.0865 97.8491 36.2756 97.7003 36.4914 97.5962C36.7072 97.4921 36.9444 97.4353 37.1856 97.4299C37.4268 97.4244 37.666 97.4705 37.8866 97.5647C38.175 97.6729 38.4481 97.8156 38.6996 97.9895L38.4173 98.5451C38.2037 98.4079 37.977 98.2912 37.74 98.1965C37.0286 97.9242 36.6108 98.1965 36.3285 98.9045L36.2381 99.2748Z" fill="black"/>
<path d="M40.4939 104.885H40.4035C40.1608 105.251 39.7958 105.527 39.3686 105.665C38.9414 105.804 38.4779 105.798 38.055 105.647C37.0275 105.353 36.5192 104.743 36.8241 103.774C37.129 102.804 37.8855 102.456 39.0824 102.815L40.9002 103.338L41.0472 102.859C41.1358 102.695 41.1824 102.513 41.1831 102.329C41.1838 102.144 41.1384 101.962 41.051 101.797C40.9636 101.633 40.8367 101.491 40.6808 101.384C40.5249 101.277 40.3446 101.207 40.1551 101.181C39.8221 101.058 39.4526 101.064 39.1241 101.198C38.7955 101.332 38.5335 101.584 38.3935 101.9L37.7049 101.497C37.9472 101.05 38.3524 100.706 38.8426 100.531C39.3328 100.356 39.8728 100.363 40.3583 100.55C40.6471 100.577 40.9252 100.67 41.1701 100.82C41.415 100.97 41.62 101.174 41.7683 101.414C41.9167 101.655 42.0043 101.926 42.0242 102.205C42.044 102.484 41.9956 102.764 41.8827 103.022L40.8779 106.29L40.1438 106.083L40.4939 104.885ZM40.6632 104.22L40.7649 103.872L39.0485 103.371C38.292 103.153 37.7725 103.371 37.6032 103.905C37.4338 104.438 37.6032 104.82 38.4613 105.07C39.5453 105.375 40.426 104.994 40.6632 104.22Z" fill="black"/>
<path d="M42.4492 105.004H43.217C43.2014 105.405 43.3487 105.795 43.6272 106.092C43.9056 106.389 44.2932 106.569 44.7075 106.595C45.5657 106.747 46.0626 106.508 46.1755 105.941C46.2884 105.375 45.9158 105.092 44.7641 104.689C43.4429 104.209 43.0137 103.599 43.1718 102.826C43.3298 102.053 44.1316 101.475 45.4301 101.737C45.6793 101.746 45.9241 101.804 46.1504 101.905C46.3767 102.006 46.5801 102.149 46.7489 102.326C46.9178 102.503 47.0489 102.711 47.1346 102.937C47.2203 103.162 47.2588 103.402 47.2482 103.643H46.4804C46.509 103.323 46.4069 103.005 46.1959 102.757C45.985 102.509 45.6819 102.35 45.3512 102.314C44.5608 102.172 44.0979 102.401 43.9963 102.924C43.8947 103.447 44.1768 103.763 45.2382 104.133C46.6723 104.634 47.1692 105.222 46.9998 106.05C46.8304 106.878 46.0737 107.466 44.6058 107.205C43.1379 106.943 42.4831 106.115 42.4492 105.004Z" fill="black"/>
<path d="M48.8677 103.022L47.9756 102.935L48.0434 102.26L48.9355 102.347L49.0934 100.833L49.8954 100.909L49.7371 102.423L51.6004 102.608L51.5326 103.273L49.6693 103.098L49.3644 106.105C49.2967 106.758 49.5228 107.129 50.189 107.194C50.4837 107.218 50.7804 107.2 51.0695 107.14V107.848C50.6989 107.927 50.3172 107.945 49.9403 107.902C49.7136 107.896 49.4913 107.84 49.2897 107.74C49.0882 107.64 48.9128 107.497 48.7761 107.322C48.6395 107.148 48.5455 106.945 48.5007 106.731C48.456 106.516 48.4616 106.295 48.5176 106.083L48.8677 103.022Z" fill="black"/>
<path d="M52.0437 105.31C52.0073 104.948 52.0524 104.584 52.1758 104.241C52.2992 103.898 52.4979 103.585 52.7586 103.323C53.0192 103.061 53.3357 102.857 53.6859 102.724C54.0362 102.591 54.4118 102.533 54.7875 102.554C55.1247 102.529 55.4635 102.578 55.7786 102.697C56.0936 102.815 56.377 103.001 56.6078 103.239C56.8387 103.477 57.0111 103.763 57.1123 104.074C57.2135 104.385 57.2411 104.714 57.1928 105.037C57.1928 105.157 57.1928 105.386 57.1928 105.593L52.8906 105.527C52.8643 105.776 52.8937 106.026 52.9772 106.263C53.0606 106.499 53.1961 106.715 53.3741 106.896C53.5521 107.077 53.7684 107.219 54.0085 107.311C54.2485 107.404 54.5066 107.446 54.7649 107.434C55.1492 107.479 55.537 107.381 55.8494 107.161C56.1619 106.94 56.3757 106.613 56.4474 106.246L57.1702 106.453C57.0557 106.971 56.7438 107.429 56.2963 107.735C55.8488 108.042 55.2982 108.175 54.7536 108.109C54.3744 108.133 53.9944 108.076 53.641 107.941C53.2876 107.806 52.9697 107.597 52.7103 107.329C52.4509 107.062 52.2566 106.741 52.1413 106.392C52.026 106.043 51.9927 105.673 52.0437 105.31ZM52.8793 104.917H56.4361C56.4361 103.828 55.8941 103.164 54.7536 103.153C54.5036 103.129 54.2514 103.157 54.014 103.236C53.7765 103.316 53.5596 103.443 53.3783 103.611C53.1969 103.779 53.0554 103.982 52.9634 104.208C52.8714 104.433 52.8311 104.676 52.8454 104.917H52.8793Z" fill="black"/>
<path d="M58.4334 107.891L57.9932 102.608L58.7835 102.542L58.9079 103.969H58.9754C59.1561 102.88 59.7095 102.423 60.5903 102.357H60.8161L60.8952 103.218H60.6355C59.416 103.305 58.919 103.849 59.0206 105.124L59.2464 107.836L58.4334 107.891Z" fill="black"/>
<path d="M67.85 105.277H67.7483C67.7222 105.712 67.5418 106.124 67.2375 106.446C66.9332 106.767 66.5234 106.977 66.0772 107.042C65.0271 107.26 64.2818 106.955 64.0559 105.952C63.8301 104.95 64.3384 104.308 65.6143 104.046L67.4547 103.665L67.3533 103.186C67.1613 102.325 66.7095 101.922 65.7384 102.096C65.395 102.155 65.0878 102.337 64.8783 102.606C64.6687 102.875 64.5724 103.211 64.6092 103.545H63.7962C63.7867 103.039 63.9718 102.547 64.3159 102.165C64.66 101.783 65.1387 101.537 65.6595 101.476C65.9312 101.374 66.2235 101.336 66.5133 101.364C66.8031 101.391 67.0823 101.484 67.3282 101.634C67.5741 101.785 67.78 101.989 67.9294 102.23C68.0789 102.471 68.1678 102.742 68.1889 103.022L68.9227 106.29L68.1776 106.443L67.85 105.277ZM67.6582 104.613L67.5791 104.253L65.8288 104.613C65.0497 104.776 64.6998 105.168 64.824 105.702C64.9482 106.236 65.2981 106.497 66.1563 106.323C67.2403 106.138 67.8501 105.408 67.6469 104.613H67.6582Z" fill="black"/>
<path d="M70.1069 101.987H70.1747C70.1171 101.534 70.2269 101.076 70.4851 100.693C70.7433 100.311 71.1333 100.028 71.5862 99.8959C72.9524 99.4602 74.0138 100.157 74.6009 101.857C75.1881 103.556 74.7364 104.743 73.4718 105.124C73.0169 105.287 72.5171 105.292 72.0592 105.137C71.6013 104.981 71.2142 104.677 70.9651 104.275H70.9085L71.394 105.647L70.6149 105.898L68.21 98.9483L68.989 98.6978L70.1069 101.987ZM73.8332 102.085C73.3702 100.756 72.6363 100.299 71.5748 100.648C71.3316 100.712 71.1058 100.827 70.913 100.984C70.7201 101.141 70.5645 101.337 70.4573 101.557C70.35 101.778 70.2936 102.018 70.2916 102.261C70.2896 102.505 70.3421 102.746 70.4457 102.968L70.581 103.349C70.6363 103.585 70.7433 103.806 70.8945 103.999C71.0457 104.192 71.2378 104.351 71.458 104.467C71.6781 104.582 71.9212 104.651 72.1711 104.669C72.4211 104.686 72.672 104.652 72.9072 104.569C73.9799 104.231 74.2848 103.403 73.8332 102.085Z" fill="black"/>
<path d="M75.7589 102.467L76.3799 102.031C76.6085 102.364 76.9629 102.599 77.3677 102.684C77.7725 102.77 78.1958 102.699 78.5479 102.489C79.3383 102.129 79.5979 101.661 79.3495 101.138C79.1011 100.615 78.6269 100.593 77.4526 100.898C76.0863 101.258 75.3863 101.029 75.0363 100.277C74.6863 99.5257 75.0363 98.6325 76.1655 98.0988C76.5874 97.8383 77.0984 97.7482 77.5885 97.8481C78.0786 97.9479 78.5083 98.2297 78.7849 98.6325L78.1751 99.101C78.0914 98.96 77.9792 98.8367 77.8449 98.7386C77.7106 98.6404 77.557 98.5694 77.3936 98.5297C77.2302 98.4901 77.0605 98.4827 76.8941 98.5078C76.7276 98.533 76.5681 98.5902 76.4252 98.6761C75.6912 98.992 75.4539 99.4386 75.6797 99.9287C75.9056 100.419 76.3347 100.506 77.4187 100.212C78.8979 99.8198 79.6771 100.016 80.0158 100.789C80.3546 101.563 80.106 102.467 78.7623 103.066C78.2809 103.368 77.6953 103.474 77.1328 103.362C76.5704 103.25 76.0766 102.928 75.7589 102.467Z" fill="black"/>
<path d="M80.1663 99.3406C79.9296 98.883 79.8365 98.3687 79.8986 97.8608C79.9607 97.3529 80.1752 96.8736 80.5159 96.4817C80.8565 96.0898 81.3086 95.8024 81.8162 95.6549C82.3238 95.5073 82.8649 95.506 83.3732 95.6511C83.8816 95.7962 84.3351 96.0813 84.6777 96.4715C85.0204 96.8618 85.2374 97.3401 85.3021 97.8477C85.3669 98.3553 85.2765 98.87 85.0422 99.3288C84.8078 99.7875 84.4398 100.17 83.983 100.43C83.6668 100.632 83.3084 100.765 82.9333 100.819C82.5581 100.874 82.1751 100.848 81.8113 100.744C81.4475 100.64 81.1118 100.461 80.8276 100.218C80.5435 99.9758 80.3176 99.6762 80.1663 99.3406ZM80.8552 98.9267C80.9626 99.17 81.123 99.3884 81.3252 99.567C81.5275 99.7456 81.7669 99.8804 82.0277 99.9622C82.2884 100.044 82.5643 100.071 82.8368 100.041C83.1092 100.012 83.372 99.9258 83.6073 99.79C83.8425 99.6541 84.045 99.4712 84.2008 99.2536C84.3566 99.036 84.4622 98.7887 84.5107 98.5283C84.5591 98.268 84.5491 98.0006 84.4814 97.7443C84.4138 97.488 84.29 97.2486 84.1184 97.0423C84.0021 96.8136 83.8382 96.6107 83.6365 96.4464C83.4348 96.2821 83.1999 96.1599 82.9468 96.0877C82.6936 96.0154 82.4274 95.9945 82.1655 96.0265C81.9036 96.0585 81.6516 96.1425 81.425 96.2734C81.1985 96.4042 81.0026 96.5789 80.8497 96.7865C80.6968 96.9941 80.5901 97.23 80.5365 97.4794C80.483 97.7288 80.4836 97.9861 80.5385 98.2353C80.5933 98.4844 80.7012 98.7198 80.8552 98.9267Z" fill="black"/>
<path d="M87.3635 98.1423L84.1113 93.8615L84.755 93.4149L85.6245 94.5586H85.681C85.4738 94.1986 85.4109 93.7776 85.5046 93.3759C85.5983 92.9742 85.842 92.6197 86.1891 92.3801L86.3697 92.2603L86.8893 92.9465L86.6859 93.099C85.7035 93.7852 85.5566 94.5041 86.3471 95.5389L88.0185 97.7174L87.3635 98.1423Z" fill="black"/>
<path d="M92.8983 94.036C92.5444 94.3563 92.0862 94.5478 91.602 94.5776C91.1178 94.6074 90.638 94.4737 90.2449 94.1994L92.4467 96.5958L91.8369 97.1186L86.9814 91.8357L87.6025 91.3129L88.5737 92.4021H88.63C88.3906 92.0086 88.3046 91.5456 88.3874 91.0964C88.4702 90.6472 88.7165 90.2411 89.0818 89.9513C90.1545 89.0254 91.4304 89.2651 92.6612 90.6048C93.892 91.9446 93.9032 93.2191 92.8983 94.036ZM91.9949 91.095C91.0351 90.0058 90.1771 89.8969 89.3189 90.6375C89.1198 90.793 88.9591 90.9893 88.8483 91.2121C88.7375 91.4349 88.6796 91.6786 88.6785 91.9257C88.6774 92.1728 88.7332 92.4171 88.842 92.6407C88.9508 92.8644 89.1099 93.062 89.3076 93.2191L89.5786 93.5241C89.7266 93.7195 89.916 93.8823 90.1341 94.0018C90.3522 94.1213 90.5942 94.1948 90.8439 94.2175C91.0937 94.2401 91.3454 94.2114 91.5827 94.1332C91.8201 94.0549 92.0377 93.929 92.2209 93.7637C93.0113 93.0121 92.9547 92.1298 91.9949 91.095Z" fill="black"/>
<path d="M92.1197 88.1538L91.5099 88.7965L90.9905 88.3281L91.6116 87.6963L90.4824 86.6615L91.0357 86.0842L92.1649 87.1735L93.4407 85.8555L93.949 86.3129L92.6729 87.631L94.9313 89.6897C95.4394 90.1472 95.8798 90.1907 96.3314 89.6897C96.5338 89.4797 96.7013 89.2409 96.8282 88.9816L97.438 89.3629C97.2742 89.7017 97.057 90.014 96.7943 90.2888C96.6525 90.4592 96.4731 90.5967 96.2688 90.6912C96.0646 90.7857 95.8409 90.8347 95.6144 90.8347C95.3879 90.8347 95.1644 90.7857 94.9602 90.6912C94.756 90.5967 94.5763 90.4592 94.4345 90.2888L92.1197 88.1538Z" fill="black"/>
<path d="M93.0592 84.5046L92.4268 83.9927L93.0592 83.252L93.7026 83.753L93.0592 84.5046ZM98.2645 88.5349L94.0188 85.1473L94.5382 84.5591L98.7725 87.9358L98.2645 88.5349Z" fill="black"/>
<path d="M97.4619 85.2894C97.1653 85.092 96.9118 84.8402 96.7162 84.5484C96.5205 84.2565 96.3864 83.9303 96.3214 83.5884C96.2564 83.2466 96.2618 82.8957 96.3374 82.5558C96.4129 82.216 96.5573 81.8939 96.7619 81.6078C96.9666 81.3217 97.2274 81.0773 97.53 80.8885C97.8325 80.6997 98.1707 80.5703 98.5251 80.5075C98.8795 80.4448 99.2433 80.4501 99.5956 80.523C99.9479 80.5959 100.282 80.735 100.578 80.9324C101.177 81.331 101.588 81.943 101.719 82.6334C101.85 83.3239 101.692 84.0363 101.279 84.6141C100.865 85.1918 100.231 85.5876 99.5151 85.7143C98.7993 85.841 98.0608 85.6881 97.4619 85.2894ZM97.9247 84.6359C98.1274 84.8099 98.3662 84.9405 98.6249 85.019C98.8837 85.0976 99.1566 85.1223 99.426 85.0916C99.6954 85.0609 99.955 84.9756 100.188 84.841C100.42 84.7065 100.621 84.526 100.776 84.3112C100.931 84.0965 101.037 83.8526 101.088 83.5954C101.138 83.3383 101.131 83.0737 101.067 82.8193C101.004 82.5649 100.885 82.3263 100.719 82.1194C100.553 81.9124 100.344 81.7417 100.104 81.6186C99.9016 81.4446 99.663 81.3141 99.4043 81.2355C99.1455 81.157 98.8723 81.1322 98.6029 81.1629C98.3335 81.1935 98.0739 81.279 97.8412 81.4135C97.6085 81.548 97.408 81.7285 97.2529 81.9432C97.0978 82.158 96.9916 82.402 96.9414 82.6591C96.8912 82.9163 96.8983 83.1808 96.9618 83.4353C97.0253 83.6897 97.1439 83.9282 97.31 84.1351C97.476 84.3421 97.6853 84.5128 97.9247 84.6359Z" fill="black"/>
<path d="M103.984 80.5614L103.6 81.2586L98.7451 78.7424L99.1289 78.0562L100.382 78.7097V78.6225C100.043 78.3199 99.8179 77.9161 99.7442 77.4758C99.6705 77.0354 99.752 76.5839 99.9757 76.1935C100.085 75.9599 100.247 75.7531 100.45 75.5885C100.654 75.4239 100.893 75.3057 101.15 75.2429C101.407 75.18 101.676 75.1741 101.936 75.2256C102.196 75.277 102.441 75.3845 102.652 75.54L105.814 77.1848L105.43 77.8709L102.415 76.3133C102.266 76.1974 102.091 76.1164 101.904 76.0764C101.717 76.0365 101.523 76.0387 101.337 76.083C101.151 76.1273 100.979 76.2124 100.833 76.3317C100.687 76.451 100.571 76.6013 100.495 76.7708C100.364 76.9618 100.277 77.1772 100.239 77.403C100.201 77.6287 100.212 77.8597 100.273 78.0809C100.334 78.302 100.442 78.5083 100.592 78.6861C100.741 78.8639 100.927 79.0093 101.139 79.1127L103.984 80.5614Z" fill="black"/>
</g>
<defs>
<clipPath id="clip0_1_918">
<rect width="107.53" height="108.109" fill="white"/>
</clipPath>
</defs>
</svg>
