<svg width="37" height="20" viewBox="0 0 37 20" fill="none" xmlns="http://www.w3.org/2000/svg">
<path d="M27.2636 19.2658C29.5547 19.2658 31.412 17.4085 31.412 15.1174C31.412 12.8263 29.5547 10.969 27.2636 10.969C24.9725 10.969 23.1152 12.8263 23.1152 15.1174C23.1152 17.4085 24.9725 19.2658 27.2636 19.2658Z" stroke="black" stroke-width="0.86532" stroke-miterlimit="10"/>
<path d="M8.75386 19.2658C11.045 19.2658 12.9023 17.4085 12.9023 15.1174C12.9023 12.8263 11.045 10.969 8.75386 10.969C6.46277 10.969 4.60547 12.8263 4.60547 15.1174C4.60547 17.4085 6.46277 19.2658 8.75386 19.2658Z" stroke="black" stroke-width="0.86532" stroke-miterlimit="10"/>
<path d="M23.1138 15.4365H12.9023" stroke="black" stroke-width="0.86532" stroke-miterlimit="10"/>
<path d="M31.255 15.4365H33.1468C33.559 15.436 33.9658 15.3401 34.3367 15.1562C34.7076 14.9722 35.0329 14.7049 35.2885 14.3742C35.5441 14.0435 35.7233 13.658 35.8127 13.2465C35.902 12.835 35.8993 12.4081 35.8046 11.9978L34.1886 8.50438C33.9854 7.98666 33.6353 7.54295 33.1835 7.23028C32.7317 6.91761 32.1988 6.75027 31.6533 6.7498H25.0355L22.4314 1.97172C22.1814 1.5968 21.8455 1.29009 21.453 1.07846C21.0605 0.866835 20.6233 0.75668 20.1796 0.757574H9.31094C8.91456 0.758314 8.523 0.846885 8.16334 1.01727C7.80368 1.18765 7.48429 1.43581 7.22742 1.74453L2.06501 7.96386C1.64334 8.46794 1.41246 9.10995 1.41407 9.77331V12.6324C1.41307 13.0002 1.48299 13.3647 1.61996 13.7049C1.75692 14.0451 1.95816 14.3542 2.21217 14.6147C2.46619 14.8752 2.76797 15.0819 3.10022 15.2229C3.43247 15.3639 3.78879 15.4365 4.14852 15.4365H4.53916" stroke="black" stroke-width="0.86532" stroke-miterlimit="10"/>
</svg>
