<svg width="87" height="80" viewBox="0 0 87 80" fill="none" xmlns="http://www.w3.org/2000/svg">
<path d="M62.8059 80C52.3184 80 45.945 73.1624 43.2697 66.1447C40.5382 73.1624 34.2772 80 23.7335 80C8.87333 80 0.00446839 67.2261 0.00446839 54.8803V54.7001L0.71263 54.6325H0.00446839C-0.0742161 51.4559 0.409132 22.9794 42.9212 0L43.0786 0.292886L42.9325 0H43.6069C61.5919 9.70994 74.1814 21.4024 81.1506 34.9197C86.3438 44.9563 86.5686 52.5711 86.5124 54.6775V54.8578C86.5349 67.2261 77.6548 80 62.8059 80ZM43.9441 63.7679C46.0461 70.9321 52.1048 78.5919 62.8059 78.5919C76.778 78.5919 85.1523 66.5277 85.1523 54.8803V54.7001C85.2422 51.6023 84.7476 24.0496 43.3034 1.50946C1.84793 24.0383 1.36458 51.6023 1.44327 54.6775V54.824C1.44327 66.5502 9.78382 78.6144 23.7672 78.6144C34.4683 78.6144 40.527 70.9546 42.629 63.7905L43.9441 63.7679Z" fill="black"/>
</svg>
