<svg width="81" height="80" viewBox="0 0 81 80" fill="none" xmlns="http://www.w3.org/2000/svg">
<path d="M40.0089 0C29.4029 0.0131343 19.2351 4.23212 11.7356 11.7317C4.23605 19.2312 0.0170406 29.399 0.00390625 40.005C0.0170456 50.61 4.23638 60.7768 11.7362 68.2748C19.236 75.7727 29.4038 79.9895 40.0089 80C50.6139 79.9895 60.7817 75.7727 68.2816 68.2748C75.7814 60.7768 80.0007 50.61 80.0139 40.005C80.0007 29.399 75.7817 19.2312 68.2822 11.7317C60.7826 4.23212 50.6148 0.0131343 40.0089 0ZM78.7234 37.7218C74.296 38.2678 68.7966 38.7145 62.7214 39.0123C62.8902 38.7542 63.0788 38.4961 63.2773 38.238C63.4758 37.9799 63.7042 37.6622 63.8928 37.3743C64.2871 36.872 64.5339 36.2699 64.6058 35.6353C64.6777 35.0008 64.5717 34.3587 64.2998 33.7808C63.924 33.231 63.4197 32.7812 62.8306 32.4705C62.6718 32.3712 62.5129 32.272 62.364 32.1628C61.2522 31.3786 60.5176 29.7506 61.1827 28.5693C61.2398 28.4425 61.333 28.3355 61.4508 28.2616C61.6692 28.1524 61.967 28.3211 62.4434 28.5991C62.9626 28.9751 63.5893 29.1735 64.2303 29.1649C65.6597 29.026 66.1263 27.4079 66.0965 26.0678C66.0965 25.1942 66.0965 24.1717 66.712 23.9434C67.3274 23.7151 67.6153 24.0824 68.3499 24.6085C68.6278 24.807 68.9157 25.0155 69.1937 25.1743C71.0996 26.2365 73.3331 25.5119 75.4674 24.5589L74.9611 23.4272C73.1247 24.2412 71.2287 24.8865 69.8091 24.0923C69.5538 23.943 69.3084 23.7772 69.0745 23.596C68.3002 23.05 67.3572 22.365 66.2653 22.7919C64.806 23.3676 64.8457 25.2736 64.8557 26.0876C64.8656 26.9016 64.6869 27.8745 64.1012 27.934C63.7392 27.892 63.3958 27.7512 63.1085 27.527C62.8103 27.2804 62.4529 27.1159 62.0716 27.0497C61.6904 26.9836 61.2984 27.018 60.9346 27.1498C60.5879 27.3302 60.3067 27.6149 60.1305 27.9638C59.1378 29.7804 60.1305 32.0834 61.6692 33.1753L62.2052 33.5228C62.6216 33.733 62.9849 34.035 63.2674 34.4062C63.7439 35.2302 63.0887 36.3916 62.8802 36.6993C62.6718 37.0071 62.5129 37.2354 62.3144 37.4935C61.927 37.9855 61.5942 38.518 61.3217 39.0818C58.0161 39.2307 54.5318 39.3498 50.9184 39.4193C51.0037 38.9138 50.9347 38.3944 50.7204 37.9287C50.5062 37.463 50.1566 37.0727 49.7173 36.8086C48.7937 36.3526 47.7676 36.1439 46.7393 36.203H46.4216C43.8009 36.1335 40.6641 35.2103 39.7111 32.7187C39.2876 31.3962 39.3545 29.9655 39.8997 28.6884C40.4215 27.1501 41.4783 25.8502 42.8777 25.0254C45.2204 23.7449 48.1191 24.4099 50.9284 25.0254L52.3181 25.3332C53.6964 25.7236 55.1583 25.7063 56.5271 25.2835C57.2908 25.0146 57.9315 24.4787 58.331 23.7744C58.7306 23.0702 58.862 22.2453 58.701 21.4518C58.3238 20.1911 57.0631 19.3176 55.0678 18.9403C53.1308 18.5737 51.1493 18.5034 49.1912 18.7319H49.0125C48.5206 18.8258 48.0154 18.8258 47.5235 18.7319C47.1959 18.6227 46.8584 18.2951 46.9179 18.0072C46.9775 17.7193 47.2852 17.5704 47.9106 17.3123C48.4118 17.1496 48.8793 16.8974 49.2904 16.5678C49.8161 16.0228 50.1624 15.33 50.2831 14.5825C50.3598 14.1649 50.504 13.7625 50.71 13.3912C51.3909 12.7068 52.2978 12.2939 53.2612 12.2298L53.6185 12.1504C55.5046 11.7335 56.6859 10.711 56.7852 9.42052C56.8069 9.0217 56.7599 8.62211 56.6462 8.23923C56.6462 8.13996 56.6462 8.03077 56.5767 7.9315C56.4013 6.94746 56.5845 5.93316 57.0929 5.07258C63.2712 8.11684 68.5286 12.7495 72.3262 18.4956C76.1238 24.2416 78.3248 30.8943 78.7035 37.7714L78.7234 37.7218ZM33.8741 13.7288C32.8219 12.0909 30.7571 11.2173 27.7493 11.1081C26.4489 11.1081 25.1088 11.1081 23.7786 11.1081C20.6516 11.2173 17.6736 11.3165 15.0231 10.2841C18.8752 7.0283 23.3264 4.55652 28.1265 3.00779C29.491 3.78171 30.6277 4.90128 31.4222 6.25387L31.5413 6.44248C31.8494 6.97546 32.2612 7.44127 32.7524 7.81238C33.2043 8.10508 33.7329 8.2571 34.2712 8.24916C35.1118 8.22088 35.9288 7.96344 36.6338 7.50465C37.0363 7.24516 37.424 6.96343 37.7952 6.66084C38.2808 6.25275 38.8101 5.89984 39.3736 5.6086C40.4543 5.20562 41.6073 5.03322 42.7586 5.10239H42.9075C44.169 5.17705 45.4337 5.02232 46.64 4.64573C47.2071 4.45011 47.7252 4.13411 48.1587 3.71946C48.5922 3.3048 48.9308 2.80131 49.1515 2.24347C51.4408 2.8012 53.6739 3.56881 55.8223 4.53655C55.2116 5.63945 55.0045 6.92068 55.2366 8.1598C55.2366 8.27892 55.2366 8.39808 55.316 8.51721C55.388 8.77579 55.4248 9.04291 55.4252 9.31134C55.3557 10.165 54.2439 10.7011 53.2215 10.9294L52.874 11.0088C51.6729 11.2669 50.3129 11.5548 49.5485 12.6963C49.26 13.1814 49.0553 13.7117 48.943 14.2648C48.8797 14.7661 48.6729 15.2383 48.3474 15.6248C48.0475 15.8485 47.7119 16.0197 47.3547 16.131C46.64 16.409 45.7366 16.7664 45.548 17.7491C45.4938 18.2221 45.6113 18.6988 45.8791 19.0924C46.147 19.486 46.5474 19.7702 47.0073 19.8933C47.6583 20.0467 48.3336 20.0669 48.9926 19.9528H49.1614C50.994 19.7404 52.8483 19.8074 54.6608 20.1514C55.723 20.3499 57.0433 20.7966 57.3411 21.7992C57.4083 22.292 57.3012 22.7929 57.0384 23.2152C56.7756 23.6375 56.3735 23.9548 55.9017 24.1122C54.7607 24.4447 53.5485 24.4447 52.4075 24.1122L51.0376 23.8044C48 23.1195 44.8631 22.3948 42.1034 23.9136C40.4596 24.8866 39.2171 26.4143 38.5993 28.2219C37.9358 29.799 37.8723 31.5645 38.4206 33.1853C39.8898 36.9972 44.7837 37.424 46.2528 37.4637H46.5804C47.3978 37.4047 48.2169 37.5514 48.9629 37.8906C49.2213 38.0513 49.4178 38.2948 49.5205 38.5813C49.6232 38.8678 49.6261 39.1806 49.5287 39.4689C46.6996 39.5186 43.8009 39.5384 40.8527 39.5384C25.0492 39.5384 10.3476 38.784 1.28446 37.5531C1.59678 32.5215 2.89535 27.6004 5.10628 23.0699C6.50596 24.6085 8.77919 26.5641 11.241 26.5641H11.4495C12.3604 26.4585 13.2397 26.1659 14.0322 25.7047C14.8248 25.2435 15.5136 24.6236 16.0555 23.8839C16.4923 23.3677 16.8894 22.8217 17.2765 22.2857C17.8277 21.4872 18.4454 20.7367 19.1229 20.0422C19.6043 19.4972 20.2142 19.081 20.8972 18.8313C21.5802 18.5817 22.3147 18.5066 23.0341 18.6127C23.7536 18.8463 24.4258 19.206 25.0194 19.6749C25.4147 19.9702 25.8292 20.2388 26.2603 20.479C27.256 21.0279 28.388 21.2803 29.5226 21.2064C30.6572 21.1325 31.7469 20.7354 32.6631 20.062C33.5705 19.3231 34.1877 18.2874 34.4057 17.1377C34.6236 15.9879 34.4283 14.7981 33.8543 13.7784L33.8741 13.7288ZM47.9702 2.01511C47.6083 2.72243 46.9907 3.26549 46.2429 3.53394C45.1715 3.85173 44.0527 3.9794 42.9373 3.91116H42.7288C41.3985 3.83533 40.0676 4.04869 38.8276 4.53655C38.1819 4.86344 37.5758 5.26312 37.0209 5.72778C36.6536 6.01566 36.3161 6.27372 35.9587 6.50204C35.6031 6.77875 35.1798 6.95506 34.7328 7.01268C34.2859 7.07029 33.8317 7.00711 33.4175 6.82964C33.0737 6.55464 32.7842 6.218 32.5638 5.83696L32.4347 5.64835C31.7038 4.48823 30.7806 3.46102 29.7049 2.61075C33.0482 1.68758 36.5008 1.22008 39.9692 1.22098C42.6516 1.22498 45.3264 1.50779 47.9503 2.06479L47.9702 2.01511ZM14.0305 11.2272C17.0879 12.617 20.5325 12.5177 23.858 12.3986C25.1386 12.3986 26.4489 12.3092 27.7096 12.3986C30.2905 12.4879 32.0079 13.1828 32.8318 14.4534C33.2499 15.2066 33.3876 16.0836 33.2204 16.9286C33.0532 17.7737 32.5919 18.5321 31.9185 19.0693C31.1933 19.5933 30.3337 19.8996 29.4405 19.9523C28.5473 20.0051 27.6576 19.8021 26.8757 19.3672C26.4918 19.1467 26.1206 18.9048 25.7639 18.6425C25.0627 18.0797 24.261 17.6553 23.4014 17.3918C22.4779 17.2301 21.5287 17.3046 20.6418 17.6083C19.7549 17.912 18.9592 18.4352 18.3288 19.129C17.5981 19.8738 16.9338 20.6809 16.3434 21.5412C15.9662 22.0474 15.579 22.5338 15.172 23.0599C14.7301 23.6608 14.1736 24.1683 13.5348 24.5534C12.8959 24.9384 12.1872 25.1933 11.4495 25.3034C9.13656 25.4027 6.84347 23.1195 5.77137 21.8786C7.88528 17.8956 10.6729 14.3087 14.0106 11.2768L14.0305 11.2272ZM7.70709 61.3178C10.1987 61.2682 18.1005 61.5064 22.5973 66.0429C24.9896 68.475 26.0419 71.8104 25.7441 75.9697C18.3827 73.0475 12.0848 67.9546 7.68724 61.3675L7.70709 61.3178ZM54.363 75.9598C54.0652 71.8104 55.1175 68.475 57.4999 66.0331C61.957 61.4965 69.8687 61.2583 72.3901 61.3079C68.0076 67.9318 61.7081 73.0608 54.3333 76.0095L54.363 75.9598ZM73.1346 60.077C72.0327 60.0075 62.1357 59.5409 56.6164 65.1496C53.8965 67.9191 52.7251 71.7111 53.142 76.4065C48.9397 77.9217 44.5058 78.6943 40.0387 78.6897C35.5715 78.6943 31.1376 77.9217 26.9353 76.4065C27.3522 71.7111 26.1809 67.9191 23.451 65.1496C17.9118 59.6203 7.98504 60.0471 6.91295 60.1464C3.19781 54.0857 1.23575 47.1137 1.24476 40.005C1.24476 39.588 1.24476 39.191 1.24476 38.784C10.3675 40.0546 25.0691 40.7694 40.8725 40.7694C53.5099 40.8805 66.1435 40.2806 78.7135 38.9726C78.7135 39.3002 78.7135 39.6278 78.7135 39.9653C78.7478 47.0818 76.8062 54.0681 73.1048 60.1464L73.1346 60.077Z" fill="black"/>
<path d="M30.1889 23.5562C27.9951 22.8613 24.3917 23.3081 23.3196 24.8368C23.092 25.1561 22.9799 25.5433 23.0015 25.9347C23.0232 26.3262 23.1773 26.6987 23.4387 26.9909C23.1409 27.4873 20.8875 28.3211 19.5375 28.8174C16.5595 29.9292 13.9686 30.8822 14.0579 32.4804C14.1274 33.8205 16.1028 34.8827 20.6493 36.0441C24.0302 37.011 27.5107 37.5872 31.0228 37.7615C33.0876 37.7615 34.3979 37.3346 34.9935 36.5008C35.2498 36.0397 35.3569 35.5105 35.3 34.9861C35.2431 34.4617 35.0251 33.9678 34.6759 33.5724C33.25 31.475 32.5525 28.9674 32.6905 26.435C32.6668 25.7411 32.4054 25.0763 31.95 24.5522C31.4945 24.0281 30.8728 23.6765 30.1889 23.5562ZM33.9512 35.796C33.6336 36.2625 31.7375 37.5729 20.957 34.8033C15.5072 33.4235 15.2988 32.4904 15.2988 32.3911C15.2988 31.6962 18.2768 30.5645 19.9644 29.959C22.6744 28.9663 24.352 28.2913 24.6498 27.2688C24.6918 27.0977 24.6939 26.9192 24.6561 26.7471C24.6182 26.575 24.5414 26.4139 24.4314 26.2762C24.1237 25.8692 24.2627 25.6707 24.3321 25.5714C24.7689 24.9559 26.3175 24.4893 27.8959 24.4893C28.5444 24.4802 29.1906 24.5706 29.8117 24.7574C30.864 25.0949 31.4 25.6706 31.4 26.4548C31.2672 29.2459 32.0517 32.0037 33.6335 34.307C33.7924 34.4459 34.2986 35.2897 33.9512 35.796Z" fill="black"/>
</svg>
