<svg width="80" height="80" viewBox="0 0 80 80" fill="none" xmlns="http://www.w3.org/2000/svg">
<path d="M80 54.3487V53.2035C80 52.1271 80 50.8216 80 50.8216V13.0317H28.7106C27.6307 10.882 27.0575 8.5115 27.0352 6.10359L26.9782 0.709986L26.8756 0H25.4623L25.4053 6.10359C25.3848 8.51308 24.8074 10.8848 23.7185 13.0317H0V54.4174L0.125357 54.8296C1.66131 60.2824 4.54281 65.2573 8.50263 69.2928C18.0197 79.0266 23.2398 79.9656 23.4563 80H33.851H56.6462C56.8628 80 62.0715 79.0266 71.5885 69.2928C75.5517 65.2579 78.437 60.2832 79.9772 54.8296L80 54.3487ZM26.2146 10.5468C26.9752 13.3247 28.4333 15.8598 30.449 17.9091C32.4647 19.9584 34.9704 21.4532 37.7261 22.2502C34.9697 23.0422 32.4628 24.5339 30.4466 26.5817C28.4304 28.6295 26.9729 31.1643 26.2146 33.9421C25.4602 31.1641 24.0055 28.6286 21.991 26.5804C19.9764 24.5323 17.4702 23.0409 14.7143 22.2502C17.47 21.4555 19.9755 19.9612 21.9897 17.9115C24.0039 15.8617 25.4589 13.3254 26.2146 10.5468ZM1.4247 14.4746H22.9092C21.5262 16.6089 19.6387 18.3659 17.4152 19.5888C15.1917 20.8117 12.7014 21.4624 10.1667 21.4829L9.46002 21.586V22.9945H10.1667C14.2079 23.0276 18.0734 24.6592 20.9257 27.5357C23.778 30.4122 25.3874 34.3021 25.4053 38.3624L25.4623 44.466H26.9668L27.0352 38.3624C27.0471 34.3002 28.6546 30.4069 31.5082 27.5291C34.3618 24.6513 38.2308 23.0217 42.2738 22.9945L42.9691 22.8915V21.4829H42.2738C39.7389 21.4635 37.2482 20.8132 35.0246 19.5902C32.8009 18.3672 30.9136 16.6096 29.5313 14.4746H78.5411V53.547L77.7433 53.902C72.3766 56.2047 67.5819 59.6692 63.7014 64.0481C59.9542 68.2428 57.1581 73.2048 55.5065 78.5914H24.4935C22.8338 73.2083 20.0387 68.2479 16.2986 64.0481C12.4158 59.6717 7.62172 56.2077 2.25671 53.902L1.48168 53.5585C1.48168 52.9516 1.48168 52.1042 1.48168 50.8789L1.4247 14.4746ZM1.68683 55.219C6.84507 57.4498 11.455 60.7877 15.193 64.9985C18.6604 68.8866 21.2843 73.4573 22.8978 78.4197C21.1996 77.8128 16.595 75.6256 9.47143 68.3539C5.86966 64.6651 3.20363 60.1601 1.69824 55.219H1.68683ZM70.5513 68.308C63.405 75.6026 58.789 77.7784 57.1135 78.3853C58.7291 73.4391 61.3445 68.8815 64.7955 64.9985C68.54 60.7798 73.1628 57.4409 78.3359 55.219C76.8149 60.1423 74.1461 64.6297 70.5513 68.308Z" fill="black"/>
</svg>
