<svg width="103" height="195" viewBox="0 0 103 195" fill="none" xmlns="http://www.w3.org/2000/svg">
<g clip-path="url(#clip0_1_6094)">
<path d="M1.20034 3.08197C1.83684 3.08197 2.35283 2.56453 2.35283 1.92624C2.35283 1.28795 1.83684 0.770508 1.20034 0.770508C0.563839 0.770508 0.0478516 1.28795 0.0478516 1.92624C0.0478516 2.56453 0.563839 3.08197 1.20034 3.08197Z" fill="white"/>
<path d="M13.1085 3.08197C13.745 3.08197 14.261 2.56453 14.261 1.92624C14.261 1.28795 13.745 0.770508 13.1085 0.770508C12.472 0.770508 11.9561 1.28795 11.9561 1.92624C11.9561 2.56453 12.472 3.08197 13.1085 3.08197Z" fill="white"/>
<path d="M96.4992 3.08197C97.1357 3.08197 97.6517 2.56453 97.6517 1.92624C97.6517 1.28795 97.1357 0.770508 96.4992 0.770508C95.8627 0.770508 95.3467 1.28795 95.3467 1.92624C95.3467 2.56453 95.8627 3.08197 96.4992 3.08197Z" fill="white"/>
<path d="M84.5822 3.08197C85.2187 3.08197 85.7347 2.56453 85.7347 1.92624C85.7347 1.28795 85.2187 0.770508 84.5822 0.770508C83.9457 0.770508 83.4297 1.28795 83.4297 1.92624C83.4297 2.56453 83.9457 3.08197 84.5822 3.08197Z" fill="white"/>
<path d="M72.674 3.08197C73.3105 3.08197 73.8265 2.56453 73.8265 1.92624C73.8265 1.28795 73.3105 0.770508 72.674 0.770508C72.0375 0.770508 71.5215 1.28795 71.5215 1.92624C71.5215 2.56453 72.0375 3.08197 72.674 3.08197Z" fill="white"/>
<path d="M60.7599 3.08197C61.3964 3.08197 61.9124 2.56453 61.9124 1.92624C61.9124 1.28795 61.3964 0.770508 60.7599 0.770508C60.1234 0.770508 59.6074 1.28795 59.6074 1.92624C59.6074 2.56453 60.1234 3.08197 60.7599 3.08197Z" fill="white"/>
<path d="M48.8458 3.08197C49.4824 3.08197 49.9983 2.56453 49.9983 1.92624C49.9983 1.28795 49.4824 0.770508 48.8458 0.770508C48.2093 0.770508 47.6934 1.28795 47.6934 1.92624C47.6934 2.56453 48.2093 3.08197 48.8458 3.08197Z" fill="white"/>
<path d="M36.9376 3.08197C37.5742 3.08197 38.0901 2.56453 38.0901 1.92624C38.0901 1.28795 37.5742 0.770508 36.9376 0.770508C36.3011 0.770508 35.7852 1.28795 35.7852 1.92624C35.7852 2.56453 36.3011 3.08197 36.9376 3.08197Z" fill="white"/>
<path d="M25.0226 3.08197C25.6591 3.08197 26.1751 2.56453 26.1751 1.92624C26.1751 1.28795 25.6591 0.770508 25.0226 0.770508C24.3861 0.770508 23.8701 1.28795 23.8701 1.92624C23.8701 2.56453 24.3861 3.08197 25.0226 3.08197Z" fill="white"/>
<path d="M1.20034 15.0246C1.83684 15.0246 2.35283 14.5072 2.35283 13.8689C2.35283 13.2306 1.83684 12.7131 1.20034 12.7131C0.563839 12.7131 0.0478516 13.2306 0.0478516 13.8689C0.0478516 14.5072 0.563839 15.0246 1.20034 15.0246Z" fill="white"/>
<path d="M13.1085 15.0243C13.745 15.0243 14.261 14.5069 14.261 13.8686C14.261 13.2303 13.745 12.7129 13.1085 12.7129C12.472 12.7129 11.9561 13.2303 11.9561 13.8686C11.9561 14.5069 12.472 15.0243 13.1085 15.0243Z" fill="white"/>
<path d="M96.4992 15.0243C97.1357 15.0243 97.6517 14.5069 97.6517 13.8686C97.6517 13.2303 97.1357 12.7129 96.4992 12.7129C95.8627 12.7129 95.3467 13.2303 95.3467 13.8686C95.3467 14.5069 95.8627 15.0243 96.4992 15.0243Z" fill="white"/>
<path d="M84.5822 15.0243C85.2187 15.0243 85.7347 14.5069 85.7347 13.8686C85.7347 13.2303 85.2187 12.7129 84.5822 12.7129C83.9457 12.7129 83.4297 13.2303 83.4297 13.8686C83.4297 14.5069 83.9457 15.0243 84.5822 15.0243Z" fill="white"/>
<path d="M72.674 15.0243C73.3105 15.0243 73.8265 14.5069 73.8265 13.8686C73.8265 13.2303 73.3105 12.7129 72.674 12.7129C72.0375 12.7129 71.5215 13.2303 71.5215 13.8686C71.5215 14.5069 72.0375 15.0243 72.674 15.0243Z" fill="white"/>
<path d="M60.7599 15.0243C61.3964 15.0243 61.9124 14.5069 61.9124 13.8686C61.9124 13.2303 61.3964 12.7129 60.7599 12.7129C60.1234 12.7129 59.6074 13.2303 59.6074 13.8686C59.6074 14.5069 60.1234 15.0243 60.7599 15.0243Z" fill="white"/>
<path d="M48.8458 15.0243C49.4824 15.0243 49.9983 14.5069 49.9983 13.8686C49.9983 13.2303 49.4824 12.7129 48.8458 12.7129C48.2093 12.7129 47.6934 13.2303 47.6934 13.8686C47.6934 14.5069 48.2093 15.0243 48.8458 15.0243Z" fill="white"/>
<path d="M36.9376 15.0243C37.5742 15.0243 38.0901 14.5069 38.0901 13.8686C38.0901 13.2303 37.5742 12.7129 36.9376 12.7129C36.3011 12.7129 35.7852 13.2303 35.7852 13.8686C35.7852 14.5069 36.3011 15.0243 36.9376 15.0243Z" fill="white"/>
<path d="M25.0226 15.0243C25.6591 15.0243 26.1751 14.5069 26.1751 13.8686C26.1751 13.2303 25.6591 12.7129 25.0226 12.7129C24.3861 12.7129 23.8701 13.2303 23.8701 13.8686C23.8701 14.5069 24.3861 15.0243 25.0226 15.0243Z" fill="white"/>
<path d="M1.20034 26.9721C1.83684 26.9721 2.35283 26.4547 2.35283 25.8164C2.35283 25.1781 1.83684 24.6606 1.20034 24.6606C0.563839 24.6606 0.0478516 25.1781 0.0478516 25.8164C0.0478516 26.4547 0.563839 26.9721 1.20034 26.9721Z" fill="white"/>
<path d="M13.1085 26.9719C13.745 26.9719 14.261 26.4544 14.261 25.8161C14.261 25.1778 13.745 24.6604 13.1085 24.6604C12.472 24.6604 11.9561 25.1778 11.9561 25.8161C11.9561 26.4544 12.472 26.9719 13.1085 26.9719Z" fill="white"/>
<path d="M96.4992 26.9719C97.1357 26.9719 97.6517 26.4544 97.6517 25.8161C97.6517 25.1778 97.1357 24.6604 96.4992 24.6604C95.8627 24.6604 95.3467 25.1778 95.3467 25.8161C95.3467 26.4544 95.8627 26.9719 96.4992 26.9719Z" fill="white"/>
<path d="M84.5822 26.9723C85.2187 26.9723 85.7347 26.4549 85.7347 25.8166C85.7347 25.1783 85.2187 24.6609 84.5822 24.6609C83.9457 24.6609 83.4297 25.1783 83.4297 25.8166C83.4297 26.4549 83.9457 26.9723 84.5822 26.9723Z" fill="white"/>
<path d="M72.674 26.9719C73.3105 26.9719 73.8265 26.4544 73.8265 25.8161C73.8265 25.1778 73.3105 24.6604 72.674 24.6604C72.0375 24.6604 71.5215 25.1778 71.5215 25.8161C71.5215 26.4544 72.0375 26.9719 72.674 26.9719Z" fill="white"/>
<path d="M60.7599 26.9723C61.3964 26.9723 61.9124 26.4549 61.9124 25.8166C61.9124 25.1783 61.3964 24.6609 60.7599 24.6609C60.1234 24.6609 59.6074 25.1783 59.6074 25.8166C59.6074 26.4549 60.1234 26.9723 60.7599 26.9723Z" fill="white"/>
<path d="M48.8458 26.9723C49.4824 26.9723 49.9983 26.4549 49.9983 25.8166C49.9983 25.1783 49.4824 24.6609 48.8458 24.6609C48.2093 24.6609 47.6934 25.1783 47.6934 25.8166C47.6934 26.4549 48.2093 26.9723 48.8458 26.9723Z" fill="white"/>
<path d="M36.9376 26.9723C37.5742 26.9723 38.0901 26.4549 38.0901 25.8166C38.0901 25.1783 37.5742 24.6609 36.9376 24.6609C36.3011 24.6609 35.7852 25.1783 35.7852 25.8166C35.7852 26.4549 36.3011 26.9723 36.9376 26.9723Z" fill="white"/>
<path d="M25.0226 26.9723C25.6591 26.9723 26.1751 26.4549 26.1751 25.8166C26.1751 25.1783 25.6591 24.6609 25.0226 24.6609C24.3861 24.6609 23.8701 25.1783 23.8701 25.8166C23.8701 26.4549 24.3861 26.9723 25.0226 26.9723Z" fill="white"/>
<path d="M1.20034 38.9196C1.83684 38.9196 2.35283 38.4022 2.35283 37.7639C2.35283 37.1256 1.83684 36.6082 1.20034 36.6082C0.563839 36.6082 0.0478516 37.1256 0.0478516 37.7639C0.0478516 38.4022 0.563839 38.9196 1.20034 38.9196Z" fill="white"/>
<path d="M13.1085 38.9196C13.745 38.9196 14.261 38.4022 14.261 37.7639C14.261 37.1256 13.745 36.6082 13.1085 36.6082C12.472 36.6082 11.9561 37.1256 11.9561 37.7639C11.9561 38.4022 12.472 38.9196 13.1085 38.9196Z" fill="white"/>
<path d="M96.4992 38.9196C97.1357 38.9196 97.6517 38.4022 97.6517 37.7639C97.6517 37.1256 97.1357 36.6082 96.4992 36.6082C95.8627 36.6082 95.3467 37.1256 95.3467 37.7639C95.3467 38.4022 95.8627 38.9196 96.4992 38.9196Z" fill="white"/>
<path d="M84.5822 38.9196C85.2187 38.9196 85.7347 38.4022 85.7347 37.7639C85.7347 37.1256 85.2187 36.6082 84.5822 36.6082C83.9457 36.6082 83.4297 37.1256 83.4297 37.7639C83.4297 38.4022 83.9457 38.9196 84.5822 38.9196Z" fill="white"/>
<path d="M72.674 38.9196C73.3105 38.9196 73.8265 38.4022 73.8265 37.7639C73.8265 37.1256 73.3105 36.6082 72.674 36.6082C72.0375 36.6082 71.5215 37.1256 71.5215 37.7639C71.5215 38.4022 72.0375 38.9196 72.674 38.9196Z" fill="white"/>
<path d="M60.7599 38.9196C61.3964 38.9196 61.9124 38.4022 61.9124 37.7639C61.9124 37.1256 61.3964 36.6082 60.7599 36.6082C60.1234 36.6082 59.6074 37.1256 59.6074 37.7639C59.6074 38.4022 60.1234 38.9196 60.7599 38.9196Z" fill="white"/>
<path d="M48.8458 38.9196C49.4824 38.9196 49.9983 38.4022 49.9983 37.7639C49.9983 37.1256 49.4824 36.6082 48.8458 36.6082C48.2093 36.6082 47.6934 37.1256 47.6934 37.7639C47.6934 38.4022 48.2093 38.9196 48.8458 38.9196Z" fill="white"/>
<path d="M36.9376 38.9196C37.5742 38.9196 38.0901 38.4022 38.0901 37.7639C38.0901 37.1256 37.5742 36.6082 36.9376 36.6082C36.3011 36.6082 35.7852 37.1256 35.7852 37.7639C35.7852 38.4022 36.3011 38.9196 36.9376 38.9196Z" fill="white"/>
<path d="M25.0226 38.9196C25.6591 38.9196 26.1751 38.4022 26.1751 37.7639C26.1751 37.1256 25.6591 36.6082 25.0226 36.6082C24.3861 36.6082 23.8701 37.1256 23.8701 37.7639C23.8701 38.4022 24.3861 38.9196 25.0226 38.9196Z" fill="white"/>
<path d="M1.20034 50.8622C1.83684 50.8622 2.35283 50.3448 2.35283 49.7065C2.35283 49.0682 1.83684 48.5508 1.20034 48.5508C0.563839 48.5508 0.0478516 49.0682 0.0478516 49.7065C0.0478516 50.3448 0.563839 50.8622 1.20034 50.8622Z" fill="white"/>
<path d="M13.1085 50.8622C13.745 50.8622 14.261 50.3448 14.261 49.7065C14.261 49.0682 13.745 48.5508 13.1085 48.5508C12.472 48.5508 11.9561 49.0682 11.9561 49.7065C11.9561 50.3448 12.472 50.8622 13.1085 50.8622Z" fill="white"/>
<path d="M96.4992 50.8622C97.1357 50.8622 97.6517 50.3448 97.6517 49.7065C97.6517 49.0682 97.1357 48.5508 96.4992 48.5508C95.8627 48.5508 95.3467 49.0682 95.3467 49.7065C95.3467 50.3448 95.8627 50.8622 96.4992 50.8622Z" fill="white"/>
<path d="M84.5822 50.8622C85.2187 50.8622 85.7347 50.3448 85.7347 49.7065C85.7347 49.0682 85.2187 48.5508 84.5822 48.5508C83.9457 48.5508 83.4297 49.0682 83.4297 49.7065C83.4297 50.3448 83.9457 50.8622 84.5822 50.8622Z" fill="white"/>
<path d="M72.674 50.8622C73.3105 50.8622 73.8265 50.3448 73.8265 49.7065C73.8265 49.0682 73.3105 48.5508 72.674 48.5508C72.0375 48.5508 71.5215 49.0682 71.5215 49.7065C71.5215 50.3448 72.0375 50.8622 72.674 50.8622Z" fill="white"/>
<path d="M60.7599 50.8622C61.3964 50.8622 61.9124 50.3448 61.9124 49.7065C61.9124 49.0682 61.3964 48.5508 60.7599 48.5508C60.1234 48.5508 59.6074 49.0682 59.6074 49.7065C59.6074 50.3448 60.1234 50.8622 60.7599 50.8622Z" fill="white"/>
<path d="M48.8458 50.8622C49.4824 50.8622 49.9983 50.3448 49.9983 49.7065C49.9983 49.0682 49.4824 48.5508 48.8458 48.5508C48.2093 48.5508 47.6934 49.0682 47.6934 49.7065C47.6934 50.3448 48.2093 50.8622 48.8458 50.8622Z" fill="white"/>
<path d="M36.9376 50.8622C37.5742 50.8622 38.0901 50.3448 38.0901 49.7065C38.0901 49.0682 37.5742 48.5508 36.9376 48.5508C36.3011 48.5508 35.7852 49.0682 35.7852 49.7065C35.7852 50.3448 36.3011 50.8622 36.9376 50.8622Z" fill="white"/>
<path d="M25.0226 50.8622C25.6591 50.8622 26.1751 50.3448 26.1751 49.7065C26.1751 49.0682 25.6591 48.5508 25.0226 48.5508C24.3861 48.5508 23.8701 49.0682 23.8701 49.7065C23.8701 50.3448 24.3861 50.8622 25.0226 50.8622Z" fill="white"/>
<path d="M1.20034 62.8097C1.83684 62.8097 2.35283 62.2923 2.35283 61.654C2.35283 61.0157 1.83684 60.4983 1.20034 60.4983C0.563839 60.4983 0.0478516 61.0157 0.0478516 61.654C0.0478516 62.2923 0.563839 62.8097 1.20034 62.8097Z" fill="white"/>
<path d="M13.1085 62.81C13.745 62.81 14.261 62.2926 14.261 61.6543C14.261 61.016 13.745 60.4985 13.1085 60.4985C12.472 60.4985 11.9561 61.016 11.9561 61.6543C11.9561 62.2926 12.472 62.81 13.1085 62.81Z" fill="white"/>
<path d="M96.4992 62.81C97.1357 62.81 97.6517 62.2926 97.6517 61.6543C97.6517 61.016 97.1357 60.4985 96.4992 60.4985C95.8627 60.4985 95.3467 61.016 95.3467 61.6543C95.3467 62.2926 95.8627 62.81 96.4992 62.81Z" fill="white"/>
<path d="M84.5822 62.81C85.2187 62.81 85.7347 62.2926 85.7347 61.6543C85.7347 61.016 85.2187 60.4985 84.5822 60.4985C83.9457 60.4985 83.4297 61.016 83.4297 61.6543C83.4297 62.2926 83.9457 62.81 84.5822 62.81Z" fill="white"/>
<path d="M72.674 62.81C73.3105 62.81 73.8265 62.2926 73.8265 61.6543C73.8265 61.016 73.3105 60.4985 72.674 60.4985C72.0375 60.4985 71.5215 61.016 71.5215 61.6543C71.5215 62.2926 72.0375 62.81 72.674 62.81Z" fill="white"/>
<path d="M60.7599 62.81C61.3964 62.81 61.9124 62.2926 61.9124 61.6543C61.9124 61.016 61.3964 60.4985 60.7599 60.4985C60.1234 60.4985 59.6074 61.016 59.6074 61.6543C59.6074 62.2926 60.1234 62.81 60.7599 62.81Z" fill="white"/>
<path d="M48.8458 62.81C49.4824 62.81 49.9983 62.2926 49.9983 61.6543C49.9983 61.016 49.4824 60.4985 48.8458 60.4985C48.2093 60.4985 47.6934 61.016 47.6934 61.6543C47.6934 62.2926 48.2093 62.81 48.8458 62.81Z" fill="white"/>
<path d="M36.9376 62.81C37.5742 62.81 38.0901 62.2926 38.0901 61.6543C38.0901 61.016 37.5742 60.4985 36.9376 60.4985C36.3011 60.4985 35.7852 61.016 35.7852 61.6543C35.7852 62.2926 36.3011 62.81 36.9376 62.81Z" fill="white"/>
<path d="M25.0226 62.81C25.6591 62.81 26.1751 62.2926 26.1751 61.6543C26.1751 61.016 25.6591 60.4985 25.0226 60.4985C24.3861 60.4985 23.8701 61.016 23.8701 61.6543C23.8701 62.2926 24.3861 62.81 25.0226 62.81Z" fill="white"/>
<path d="M1.20034 74.7575C1.83684 74.7575 2.35283 74.2401 2.35283 73.6018C2.35283 72.9635 1.83684 72.446 1.20034 72.446C0.563839 72.446 0.0478516 72.9635 0.0478516 73.6018C0.0478516 74.2401 0.563839 74.7575 1.20034 74.7575Z" fill="white"/>
<path d="M13.1085 74.7573C13.745 74.7573 14.261 74.2398 14.261 73.6015C14.261 72.9632 13.745 72.4458 13.1085 72.4458C12.472 72.4458 11.9561 72.9632 11.9561 73.6015C11.9561 74.2398 12.472 74.7573 13.1085 74.7573Z" fill="white"/>
<path d="M96.4992 74.7573C97.1357 74.7573 97.6517 74.2398 97.6517 73.6015C97.6517 72.9632 97.1357 72.4458 96.4992 72.4458C95.8627 72.4458 95.3467 72.9632 95.3467 73.6015C95.3467 74.2398 95.8627 74.7573 96.4992 74.7573Z" fill="white"/>
<path d="M84.5822 74.7573C85.2187 74.7573 85.7347 74.2398 85.7347 73.6015C85.7347 72.9632 85.2187 72.4458 84.5822 72.4458C83.9457 72.4458 83.4297 72.9632 83.4297 73.6015C83.4297 74.2398 83.9457 74.7573 84.5822 74.7573Z" fill="white"/>
<path d="M72.674 74.7573C73.3105 74.7573 73.8265 74.2398 73.8265 73.6015C73.8265 72.9632 73.3105 72.4458 72.674 72.4458C72.0375 72.4458 71.5215 72.9632 71.5215 73.6015C71.5215 74.2398 72.0375 74.7573 72.674 74.7573Z" fill="white"/>
<path d="M60.7599 74.7573C61.3964 74.7573 61.9124 74.2398 61.9124 73.6015C61.9124 72.9632 61.3964 72.4458 60.7599 72.4458C60.1234 72.4458 59.6074 72.9632 59.6074 73.6015C59.6074 74.2398 60.1234 74.7573 60.7599 74.7573Z" fill="white"/>
<path d="M48.8458 74.7573C49.4824 74.7573 49.9983 74.2398 49.9983 73.6015C49.9983 72.9632 49.4824 72.4458 48.8458 72.4458C48.2093 72.4458 47.6934 72.9632 47.6934 73.6015C47.6934 74.2398 48.2093 74.7573 48.8458 74.7573Z" fill="white"/>
<path d="M36.9376 74.7573C37.5742 74.7573 38.0901 74.2398 38.0901 73.6015C38.0901 72.9632 37.5742 72.4458 36.9376 72.4458C36.3011 72.4458 35.7852 72.9632 35.7852 73.6015C35.7852 74.2398 36.3011 74.7573 36.9376 74.7573Z" fill="white"/>
<path d="M25.0226 74.7573C25.6591 74.7573 26.1751 74.2398 26.1751 73.6015C26.1751 72.9632 25.6591 72.4458 25.0226 72.4458C24.3861 72.4458 23.8701 72.9632 23.8701 73.6015C23.8701 74.2398 24.3861 74.7573 25.0226 74.7573Z" fill="white"/>
<path d="M1.20034 86.6999C1.83684 86.6999 2.35283 86.1824 2.35283 85.5442C2.35283 84.9059 1.83684 84.3884 1.20034 84.3884C0.563839 84.3884 0.0478516 84.9059 0.0478516 85.5442C0.0478516 86.1824 0.563839 86.6999 1.20034 86.6999Z" fill="white"/>
<path d="M13.1085 86.6999C13.745 86.6999 14.261 86.1824 14.261 85.5442C14.261 84.9059 13.745 84.3884 13.1085 84.3884C12.472 84.3884 11.9561 84.9059 11.9561 85.5442C11.9561 86.1824 12.472 86.6999 13.1085 86.6999Z" fill="white"/>
<path d="M96.4992 86.6999C97.1357 86.6999 97.6517 86.1824 97.6517 85.5442C97.6517 84.9059 97.1357 84.3884 96.4992 84.3884C95.8627 84.3884 95.3467 84.9059 95.3467 85.5442C95.3467 86.1824 95.8627 86.6999 96.4992 86.6999Z" fill="white"/>
<path d="M84.5822 86.6999C85.2187 86.6999 85.7347 86.1824 85.7347 85.5442C85.7347 84.9059 85.2187 84.3884 84.5822 84.3884C83.9457 84.3884 83.4297 84.9059 83.4297 85.5442C83.4297 86.1824 83.9457 86.6999 84.5822 86.6999Z" fill="white"/>
<path d="M72.674 86.6999C73.3105 86.6999 73.8265 86.1824 73.8265 85.5442C73.8265 84.9059 73.3105 84.3884 72.674 84.3884C72.0375 84.3884 71.5215 84.9059 71.5215 85.5442C71.5215 86.1824 72.0375 86.6999 72.674 86.6999Z" fill="white"/>
<path d="M60.7599 86.6999C61.3964 86.6999 61.9124 86.1824 61.9124 85.5442C61.9124 84.9059 61.3964 84.3884 60.7599 84.3884C60.1234 84.3884 59.6074 84.9059 59.6074 85.5442C59.6074 86.1824 60.1234 86.6999 60.7599 86.6999Z" fill="white"/>
<path d="M48.8458 86.6999C49.4824 86.6999 49.9983 86.1824 49.9983 85.5442C49.9983 84.9059 49.4824 84.3884 48.8458 84.3884C48.2093 84.3884 47.6934 84.9059 47.6934 85.5442C47.6934 86.1824 48.2093 86.6999 48.8458 86.6999Z" fill="white"/>
<path d="M36.9376 86.6999C37.5742 86.6999 38.0901 86.1824 38.0901 85.5442C38.0901 84.9059 37.5742 84.3884 36.9376 84.3884C36.3011 84.3884 35.7852 84.9059 35.7852 85.5442C35.7852 86.1824 36.3011 86.6999 36.9376 86.6999Z" fill="white"/>
<path d="M25.0226 86.6999C25.6591 86.6999 26.1751 86.1824 26.1751 85.5442C26.1751 84.9059 25.6591 84.3884 25.0226 84.3884C24.3861 84.3884 23.8701 84.9059 23.8701 85.5442C23.8701 86.1824 24.3861 86.6999 25.0226 86.6999Z" fill="white"/>
<path d="M1.20034 98.6476C1.83684 98.6476 2.35283 98.1302 2.35283 97.4919C2.35283 96.8536 1.83684 96.3362 1.20034 96.3362C0.563839 96.3362 0.0478516 96.8536 0.0478516 97.4919C0.0478516 98.1302 0.563839 98.6476 1.20034 98.6476Z" fill="white"/>
<path d="M13.1085 98.6476C13.745 98.6476 14.261 98.1302 14.261 97.4919C14.261 96.8536 13.745 96.3362 13.1085 96.3362C12.472 96.3362 11.9561 96.8536 11.9561 97.4919C11.9561 98.1302 12.472 98.6476 13.1085 98.6476Z" fill="white"/>
<path d="M96.4992 98.6476C97.1357 98.6476 97.6517 98.1302 97.6517 97.4919C97.6517 96.8536 97.1357 96.3362 96.4992 96.3362C95.8627 96.3362 95.3467 96.8536 95.3467 97.4919C95.3467 98.1302 95.8627 98.6476 96.4992 98.6476Z" fill="white"/>
<path d="M84.5822 98.6476C85.2187 98.6476 85.7347 98.1302 85.7347 97.4919C85.7347 96.8536 85.2187 96.3362 84.5822 96.3362C83.9457 96.3362 83.4297 96.8536 83.4297 97.4919C83.4297 98.1302 83.9457 98.6476 84.5822 98.6476Z" fill="white"/>
<path d="M72.674 98.6476C73.3105 98.6476 73.8265 98.1302 73.8265 97.4919C73.8265 96.8536 73.3105 96.3362 72.674 96.3362C72.0375 96.3362 71.5215 96.8536 71.5215 97.4919C71.5215 98.1302 72.0375 98.6476 72.674 98.6476Z" fill="white"/>
<path d="M60.7599 98.6476C61.3964 98.6476 61.9124 98.1302 61.9124 97.4919C61.9124 96.8536 61.3964 96.3362 60.7599 96.3362C60.1234 96.3362 59.6074 96.8536 59.6074 97.4919C59.6074 98.1302 60.1234 98.6476 60.7599 98.6476Z" fill="white"/>
<path d="M48.8458 98.6476C49.4824 98.6476 49.9983 98.1302 49.9983 97.4919C49.9983 96.8536 49.4824 96.3362 48.8458 96.3362C48.2093 96.3362 47.6934 96.8536 47.6934 97.4919C47.6934 98.1302 48.2093 98.6476 48.8458 98.6476Z" fill="white"/>
<path d="M36.9376 98.6476C37.5742 98.6476 38.0901 98.1302 38.0901 97.4919C38.0901 96.8536 37.5742 96.3362 36.9376 96.3362C36.3011 96.3362 35.7852 96.8536 35.7852 97.4919C35.7852 98.1302 36.3011 98.6476 36.9376 98.6476Z" fill="white"/>
<path d="M25.0226 98.6476C25.6591 98.6476 26.1751 98.1302 26.1751 97.4919C26.1751 96.8536 25.6591 96.3362 25.0226 96.3362C24.3861 96.3362 23.8701 96.8536 23.8701 97.4919C23.8701 98.1302 24.3861 98.6476 25.0226 98.6476Z" fill="white"/>
<path d="M1.20034 110.595C1.83684 110.595 2.35283 110.078 2.35283 109.439C2.35283 108.801 1.83684 108.284 1.20034 108.284C0.563839 108.284 0.0478516 108.801 0.0478516 109.439C0.0478516 110.078 0.563839 110.595 1.20034 110.595Z" fill="white"/>
<path d="M13.1085 110.595C13.745 110.595 14.261 110.078 14.261 109.439C14.261 108.801 13.745 108.284 13.1085 108.284C12.472 108.284 11.9561 108.801 11.9561 109.439C11.9561 110.078 12.472 110.595 13.1085 110.595Z" fill="white"/>
<path d="M96.4992 110.595C97.1357 110.595 97.6517 110.078 97.6517 109.439C97.6517 108.801 97.1357 108.284 96.4992 108.284C95.8627 108.284 95.3467 108.801 95.3467 109.439C95.3467 110.078 95.8627 110.595 96.4992 110.595Z" fill="white"/>
<path d="M84.5822 110.595C85.2187 110.595 85.7347 110.078 85.7347 109.439C85.7347 108.801 85.2187 108.284 84.5822 108.284C83.9457 108.284 83.4297 108.801 83.4297 109.439C83.4297 110.078 83.9457 110.595 84.5822 110.595Z" fill="white"/>
<path d="M72.674 110.595C73.3105 110.595 73.8265 110.078 73.8265 109.439C73.8265 108.801 73.3105 108.284 72.674 108.284C72.0375 108.284 71.5215 108.801 71.5215 109.439C71.5215 110.078 72.0375 110.595 72.674 110.595Z" fill="white"/>
<path d="M60.7599 110.595C61.3964 110.595 61.9124 110.078 61.9124 109.439C61.9124 108.801 61.3964 108.284 60.7599 108.284C60.1234 108.284 59.6074 108.801 59.6074 109.439C59.6074 110.078 60.1234 110.595 60.7599 110.595Z" fill="white"/>
<path d="M48.8458 110.595C49.4824 110.595 49.9983 110.078 49.9983 109.439C49.9983 108.801 49.4824 108.284 48.8458 108.284C48.2093 108.284 47.6934 108.801 47.6934 109.439C47.6934 110.078 48.2093 110.595 48.8458 110.595Z" fill="white"/>
<path d="M36.9376 110.595C37.5742 110.595 38.0901 110.078 38.0901 109.439C38.0901 108.801 37.5742 108.284 36.9376 108.284C36.3011 108.284 35.7852 108.801 35.7852 109.439C35.7852 110.078 36.3011 110.595 36.9376 110.595Z" fill="white"/>
<path d="M25.0226 110.595C25.6591 110.595 26.1751 110.078 26.1751 109.439C26.1751 108.801 25.6591 108.284 25.0226 108.284C24.3861 108.284 23.8701 108.801 23.8701 109.439C23.8701 110.078 24.3861 110.595 25.0226 110.595Z" fill="white"/>
<path d="M1.20034 122.538C1.83684 122.538 2.35283 122.02 2.35283 121.382C2.35283 120.744 1.83684 120.226 1.20034 120.226C0.563839 120.226 0.0478516 120.744 0.0478516 121.382C0.0478516 122.02 0.563839 122.538 1.20034 122.538Z" fill="white"/>
<path d="M13.1085 122.538C13.745 122.538 14.261 122.02 14.261 121.382C14.261 120.744 13.745 120.226 13.1085 120.226C12.472 120.226 11.9561 120.744 11.9561 121.382C11.9561 122.02 12.472 122.538 13.1085 122.538Z" fill="white"/>
<path d="M96.4992 122.538C97.1357 122.538 97.6517 122.02 97.6517 121.382C97.6517 120.744 97.1357 120.226 96.4992 120.226C95.8627 120.226 95.3467 120.744 95.3467 121.382C95.3467 122.02 95.8627 122.538 96.4992 122.538Z" fill="white"/>
<path d="M84.5822 122.538C85.2187 122.538 85.7347 122.02 85.7347 121.382C85.7347 120.744 85.2187 120.226 84.5822 120.226C83.9457 120.226 83.4297 120.744 83.4297 121.382C83.4297 122.02 83.9457 122.538 84.5822 122.538Z" fill="white"/>
<path d="M72.674 122.538C73.3105 122.538 73.8265 122.02 73.8265 121.382C73.8265 120.744 73.3105 120.226 72.674 120.226C72.0375 120.226 71.5215 120.744 71.5215 121.382C71.5215 122.02 72.0375 122.538 72.674 122.538Z" fill="white"/>
<path d="M60.7599 122.538C61.3964 122.538 61.9124 122.02 61.9124 121.382C61.9124 120.744 61.3964 120.226 60.7599 120.226C60.1234 120.226 59.6074 120.744 59.6074 121.382C59.6074 122.02 60.1234 122.538 60.7599 122.538Z" fill="white"/>
<path d="M48.8458 122.538C49.4824 122.538 49.9983 122.02 49.9983 121.382C49.9983 120.744 49.4824 120.226 48.8458 120.226C48.2093 120.226 47.6934 120.744 47.6934 121.382C47.6934 122.02 48.2093 122.538 48.8458 122.538Z" fill="white"/>
<path d="M36.9376 122.538C37.5742 122.538 38.0901 122.02 38.0901 121.382C38.0901 120.744 37.5742 120.226 36.9376 120.226C36.3011 120.226 35.7852 120.744 35.7852 121.382C35.7852 122.02 36.3011 122.538 36.9376 122.538Z" fill="white"/>
<path d="M25.0226 122.538C25.6591 122.538 26.1751 122.02 26.1751 121.382C26.1751 120.744 25.6591 120.226 25.0226 120.226C24.3861 120.226 23.8701 120.744 23.8701 121.382C23.8701 122.02 24.3861 122.538 25.0226 122.538Z" fill="white"/>
<path d="M1.20034 134.485C1.83684 134.485 2.35283 133.968 2.35283 133.33C2.35283 132.691 1.83684 132.174 1.20034 132.174C0.563839 132.174 0.0478516 132.691 0.0478516 133.33C0.0478516 133.968 0.563839 134.485 1.20034 134.485Z" fill="white"/>
<path d="M13.1085 134.485C13.745 134.485 14.261 133.968 14.261 133.33C14.261 132.691 13.745 132.174 13.1085 132.174C12.472 132.174 11.9561 132.691 11.9561 133.33C11.9561 133.968 12.472 134.485 13.1085 134.485Z" fill="white"/>
<path d="M96.4992 134.485C97.1357 134.485 97.6517 133.968 97.6517 133.33C97.6517 132.691 97.1357 132.174 96.4992 132.174C95.8627 132.174 95.3467 132.691 95.3467 133.33C95.3467 133.968 95.8627 134.485 96.4992 134.485Z" fill="white"/>
<path d="M84.5822 134.485C85.2187 134.485 85.7347 133.968 85.7347 133.33C85.7347 132.691 85.2187 132.174 84.5822 132.174C83.9457 132.174 83.4297 132.691 83.4297 133.33C83.4297 133.968 83.9457 134.485 84.5822 134.485Z" fill="white"/>
<path d="M72.674 134.485C73.3105 134.485 73.8265 133.968 73.8265 133.33C73.8265 132.691 73.3105 132.174 72.674 132.174C72.0375 132.174 71.5215 132.691 71.5215 133.33C71.5215 133.968 72.0375 134.485 72.674 134.485Z" fill="white"/>
<path d="M60.7599 134.485C61.3964 134.485 61.9124 133.968 61.9124 133.33C61.9124 132.691 61.3964 132.174 60.7599 132.174C60.1234 132.174 59.6074 132.691 59.6074 133.33C59.6074 133.968 60.1234 134.485 60.7599 134.485Z" fill="white"/>
<path d="M48.8458 134.485C49.4824 134.485 49.9983 133.968 49.9983 133.33C49.9983 132.691 49.4824 132.174 48.8458 132.174C48.2093 132.174 47.6934 132.691 47.6934 133.33C47.6934 133.968 48.2093 134.485 48.8458 134.485Z" fill="white"/>
<path d="M36.9376 134.485C37.5742 134.485 38.0901 133.968 38.0901 133.33C38.0901 132.691 37.5742 132.174 36.9376 132.174C36.3011 132.174 35.7852 132.691 35.7852 133.33C35.7852 133.968 36.3011 134.485 36.9376 134.485Z" fill="white"/>
<path d="M25.0226 134.485C25.6591 134.485 26.1751 133.968 26.1751 133.33C26.1751 132.691 25.6591 132.174 25.0226 132.174C24.3861 132.174 23.8701 132.691 23.8701 133.33C23.8701 133.968 24.3861 134.485 25.0226 134.485Z" fill="white"/>
<path d="M1.20034 146.433C1.83684 146.433 2.35283 145.915 2.35283 145.277C2.35283 144.639 1.83684 144.121 1.20034 144.121C0.563839 144.121 0.0478516 144.639 0.0478516 145.277C0.0478516 145.915 0.563839 146.433 1.20034 146.433Z" fill="white"/>
<path d="M13.1085 146.433C13.745 146.433 14.261 145.915 14.261 145.277C14.261 144.639 13.745 144.121 13.1085 144.121C12.472 144.121 11.9561 144.639 11.9561 145.277C11.9561 145.915 12.472 146.433 13.1085 146.433Z" fill="white"/>
<path d="M96.4992 146.433C97.1357 146.433 97.6517 145.915 97.6517 145.277C97.6517 144.639 97.1357 144.121 96.4992 144.121C95.8627 144.121 95.3467 144.639 95.3467 145.277C95.3467 145.915 95.8627 146.433 96.4992 146.433Z" fill="white"/>
<path d="M84.5822 146.433C85.2187 146.433 85.7347 145.915 85.7347 145.277C85.7347 144.639 85.2187 144.121 84.5822 144.121C83.9457 144.121 83.4297 144.639 83.4297 145.277C83.4297 145.915 83.9457 146.433 84.5822 146.433Z" fill="white"/>
<path d="M72.674 146.433C73.3105 146.433 73.8265 145.915 73.8265 145.277C73.8265 144.639 73.3105 144.121 72.674 144.121C72.0375 144.121 71.5215 144.639 71.5215 145.277C71.5215 145.915 72.0375 146.433 72.674 146.433Z" fill="white"/>
<path d="M60.7599 146.433C61.3964 146.433 61.9124 145.915 61.9124 145.277C61.9124 144.639 61.3964 144.121 60.7599 144.121C60.1234 144.121 59.6074 144.639 59.6074 145.277C59.6074 145.915 60.1234 146.433 60.7599 146.433Z" fill="white"/>
<path d="M48.8458 146.433C49.4824 146.433 49.9983 145.915 49.9983 145.277C49.9983 144.639 49.4824 144.121 48.8458 144.121C48.2093 144.121 47.6934 144.639 47.6934 145.277C47.6934 145.915 48.2093 146.433 48.8458 146.433Z" fill="white"/>
<path d="M36.9376 146.433C37.5742 146.433 38.0901 145.915 38.0901 145.277C38.0901 144.639 37.5742 144.121 36.9376 144.121C36.3011 144.121 35.7852 144.639 35.7852 145.277C35.7852 145.915 36.3011 146.433 36.9376 146.433Z" fill="white"/>
<path d="M25.0226 146.433C25.6591 146.433 26.1751 145.915 26.1751 145.277C26.1751 144.639 25.6591 144.121 25.0226 144.121C24.3861 144.121 23.8701 144.639 23.8701 145.277C23.8701 145.915 24.3861 146.433 25.0226 146.433Z" fill="white"/>
<path d="M1.20034 158.375C1.83684 158.375 2.35283 157.858 2.35283 157.22C2.35283 156.581 1.83684 156.064 1.20034 156.064C0.563839 156.064 0.0478516 156.581 0.0478516 157.22C0.0478516 157.858 0.563839 158.375 1.20034 158.375Z" fill="white"/>
<path d="M13.1085 158.375C13.745 158.375 14.261 157.858 14.261 157.22C14.261 156.581 13.745 156.064 13.1085 156.064C12.472 156.064 11.9561 156.581 11.9561 157.22C11.9561 157.858 12.472 158.375 13.1085 158.375Z" fill="white"/>
<path d="M96.4992 158.375C97.1357 158.375 97.6517 157.858 97.6517 157.22C97.6517 156.581 97.1357 156.064 96.4992 156.064C95.8627 156.064 95.3467 156.581 95.3467 157.22C95.3467 157.858 95.8627 158.375 96.4992 158.375Z" fill="white"/>
<path d="M84.5822 158.375C85.2187 158.375 85.7347 157.858 85.7347 157.22C85.7347 156.581 85.2187 156.064 84.5822 156.064C83.9457 156.064 83.4297 156.581 83.4297 157.22C83.4297 157.858 83.9457 158.375 84.5822 158.375Z" fill="white"/>
<path d="M72.674 158.375C73.3105 158.375 73.8265 157.858 73.8265 157.22C73.8265 156.581 73.3105 156.064 72.674 156.064C72.0375 156.064 71.5215 156.581 71.5215 157.22C71.5215 157.858 72.0375 158.375 72.674 158.375Z" fill="white"/>
<path d="M60.7599 158.375C61.3964 158.375 61.9124 157.858 61.9124 157.22C61.9124 156.581 61.3964 156.064 60.7599 156.064C60.1234 156.064 59.6074 156.581 59.6074 157.22C59.6074 157.858 60.1234 158.375 60.7599 158.375Z" fill="white"/>
<path d="M48.8458 158.375C49.4824 158.375 49.9983 157.858 49.9983 157.22C49.9983 156.581 49.4824 156.064 48.8458 156.064C48.2093 156.064 47.6934 156.581 47.6934 157.22C47.6934 157.858 48.2093 158.375 48.8458 158.375Z" fill="white"/>
<path d="M36.9376 158.375C37.5742 158.375 38.0901 157.858 38.0901 157.22C38.0901 156.581 37.5742 156.064 36.9376 156.064C36.3011 156.064 35.7852 156.581 35.7852 157.22C35.7852 157.858 36.3011 158.375 36.9376 158.375Z" fill="white"/>
<path d="M25.0226 158.375C25.6591 158.375 26.1751 157.858 26.1751 157.22C26.1751 156.581 25.6591 156.064 25.0226 156.064C24.3861 156.064 23.8701 156.581 23.8701 157.22C23.8701 157.858 24.3861 158.375 25.0226 158.375Z" fill="white"/>
<path d="M1.20034 170.323C1.83684 170.323 2.35283 169.805 2.35283 169.167C2.35283 168.529 1.83684 168.011 1.20034 168.011C0.563839 168.011 0.0478516 168.529 0.0478516 169.167C0.0478516 169.805 0.563839 170.323 1.20034 170.323Z" fill="white"/>
<path d="M13.1085 170.323C13.745 170.323 14.261 169.805 14.261 169.167C14.261 168.529 13.745 168.011 13.1085 168.011C12.472 168.011 11.9561 168.529 11.9561 169.167C11.9561 169.805 12.472 170.323 13.1085 170.323Z" fill="white"/>
<path d="M96.4992 170.323C97.1357 170.323 97.6517 169.805 97.6517 169.167C97.6517 168.529 97.1357 168.011 96.4992 168.011C95.8627 168.011 95.3467 168.529 95.3467 169.167C95.3467 169.805 95.8627 170.323 96.4992 170.323Z" fill="white"/>
<path d="M84.5822 170.323C85.2187 170.323 85.7347 169.806 85.7347 169.167C85.7347 168.529 85.2187 168.012 84.5822 168.012C83.9457 168.012 83.4297 168.529 83.4297 169.167C83.4297 169.806 83.9457 170.323 84.5822 170.323Z" fill="white"/>
<path d="M72.674 170.323C73.3105 170.323 73.8265 169.805 73.8265 169.167C73.8265 168.529 73.3105 168.011 72.674 168.011C72.0375 168.011 71.5215 168.529 71.5215 169.167C71.5215 169.805 72.0375 170.323 72.674 170.323Z" fill="white"/>
<path d="M60.7599 170.323C61.3964 170.323 61.9124 169.806 61.9124 169.167C61.9124 168.529 61.3964 168.012 60.7599 168.012C60.1234 168.012 59.6074 168.529 59.6074 169.167C59.6074 169.806 60.1234 170.323 60.7599 170.323Z" fill="white"/>
<path d="M48.8458 170.323C49.4824 170.323 49.9983 169.806 49.9983 169.167C49.9983 168.529 49.4824 168.012 48.8458 168.012C48.2093 168.012 47.6934 168.529 47.6934 169.167C47.6934 169.806 48.2093 170.323 48.8458 170.323Z" fill="white"/>
<path d="M36.9376 170.323C37.5742 170.323 38.0901 169.806 38.0901 169.167C38.0901 168.529 37.5742 168.012 36.9376 168.012C36.3011 168.012 35.7852 168.529 35.7852 169.167C35.7852 169.806 36.3011 170.323 36.9376 170.323Z" fill="white"/>
<path d="M25.0226 170.323C25.6591 170.323 26.1751 169.806 26.1751 169.167C26.1751 168.529 25.6591 168.012 25.0226 168.012C24.3861 168.012 23.8701 168.529 23.8701 169.167C23.8701 169.806 24.3861 170.323 25.0226 170.323Z" fill="white"/>
<path d="M1.20034 182.271C1.83684 182.271 2.35283 181.753 2.35283 181.115C2.35283 180.477 1.83684 179.959 1.20034 179.959C0.563839 179.959 0.0478516 180.477 0.0478516 181.115C0.0478516 181.753 0.563839 182.271 1.20034 182.271Z" fill="white"/>
<path d="M13.1085 182.271C13.745 182.271 14.261 181.753 14.261 181.115C14.261 180.477 13.745 179.959 13.1085 179.959C12.472 179.959 11.9561 180.477 11.9561 181.115C11.9561 181.753 12.472 182.271 13.1085 182.271Z" fill="white"/>
<path d="M96.4992 182.271C97.1357 182.271 97.6517 181.753 97.6517 181.115C97.6517 180.477 97.1357 179.959 96.4992 179.959C95.8627 179.959 95.3467 180.477 95.3467 181.115C95.3467 181.753 95.8627 182.271 96.4992 182.271Z" fill="white"/>
<path d="M84.5822 182.271C85.2187 182.271 85.7347 181.753 85.7347 181.115C85.7347 180.477 85.2187 179.959 84.5822 179.959C83.9457 179.959 83.4297 180.477 83.4297 181.115C83.4297 181.753 83.9457 182.271 84.5822 182.271Z" fill="white"/>
<path d="M72.674 182.271C73.3105 182.271 73.8265 181.753 73.8265 181.115C73.8265 180.477 73.3105 179.959 72.674 179.959C72.0375 179.959 71.5215 180.477 71.5215 181.115C71.5215 181.753 72.0375 182.271 72.674 182.271Z" fill="white"/>
<path d="M60.7599 182.271C61.3964 182.271 61.9124 181.753 61.9124 181.115C61.9124 180.477 61.3964 179.959 60.7599 179.959C60.1234 179.959 59.6074 180.477 59.6074 181.115C59.6074 181.753 60.1234 182.271 60.7599 182.271Z" fill="white"/>
<path d="M48.8458 182.271C49.4824 182.271 49.9983 181.753 49.9983 181.115C49.9983 180.477 49.4824 179.959 48.8458 179.959C48.2093 179.959 47.6934 180.477 47.6934 181.115C47.6934 181.753 48.2093 182.271 48.8458 182.271Z" fill="white"/>
<path d="M36.9376 182.271C37.5742 182.271 38.0901 181.753 38.0901 181.115C38.0901 180.477 37.5742 179.959 36.9376 179.959C36.3011 179.959 35.7852 180.477 35.7852 181.115C35.7852 181.753 36.3011 182.271 36.9376 182.271Z" fill="white"/>
<path d="M25.0226 182.271C25.6591 182.271 26.1751 181.753 26.1751 181.115C26.1751 180.477 25.6591 179.959 25.0226 179.959C24.3861 179.959 23.8701 180.477 23.8701 181.115C23.8701 181.753 24.3861 182.271 25.0226 182.271Z" fill="white"/>
<path d="M1.20034 194.213C1.83684 194.213 2.35283 193.696 2.35283 193.057C2.35283 192.419 1.83684 191.902 1.20034 191.902C0.563839 191.902 0.0478516 192.419 0.0478516 193.057C0.0478516 193.696 0.563839 194.213 1.20034 194.213Z" fill="white"/>
<path d="M13.1085 194.213C13.745 194.213 14.261 193.696 14.261 193.057C14.261 192.419 13.745 191.902 13.1085 191.902C12.472 191.902 11.9561 192.419 11.9561 193.057C11.9561 193.696 12.472 194.213 13.1085 194.213Z" fill="white"/>
<path d="M96.4992 194.213C97.1357 194.213 97.6517 193.696 97.6517 193.057C97.6517 192.419 97.1357 191.902 96.4992 191.902C95.8627 191.902 95.3467 192.419 95.3467 193.057C95.3467 193.696 95.8627 194.213 96.4992 194.213Z" fill="white"/>
<path d="M84.5822 194.213C85.2187 194.213 85.7347 193.696 85.7347 193.057C85.7347 192.419 85.2187 191.902 84.5822 191.902C83.9457 191.902 83.4297 192.419 83.4297 193.057C83.4297 193.696 83.9457 194.213 84.5822 194.213Z" fill="white"/>
<path d="M72.674 194.213C73.3105 194.213 73.8265 193.696 73.8265 193.057C73.8265 192.419 73.3105 191.902 72.674 191.902C72.0375 191.902 71.5215 192.419 71.5215 193.057C71.5215 193.696 72.0375 194.213 72.674 194.213Z" fill="white"/>
<path d="M60.7599 194.213C61.3964 194.213 61.9124 193.696 61.9124 193.057C61.9124 192.419 61.3964 191.902 60.7599 191.902C60.1234 191.902 59.6074 192.419 59.6074 193.057C59.6074 193.696 60.1234 194.213 60.7599 194.213Z" fill="white"/>
<path d="M48.8458 194.213C49.4824 194.213 49.9983 193.696 49.9983 193.057C49.9983 192.419 49.4824 191.902 48.8458 191.902C48.2093 191.902 47.6934 192.419 47.6934 193.057C47.6934 193.696 48.2093 194.213 48.8458 194.213Z" fill="white"/>
<path d="M36.9376 194.213C37.5742 194.213 38.0901 193.696 38.0901 193.057C38.0901 192.419 37.5742 191.902 36.9376 191.902C36.3011 191.902 35.7852 192.419 35.7852 193.057C35.7852 193.696 36.3011 194.213 36.9376 194.213Z" fill="white"/>
<path d="M25.0226 194.213C25.6591 194.213 26.1751 193.696 26.1751 193.057C26.1751 192.419 25.6591 191.902 25.0226 191.902C24.3861 191.902 23.8701 192.419 23.8701 193.057C23.8701 193.696 24.3861 194.213 25.0226 194.213Z" fill="white"/>
</g>
<defs>
<clipPath id="clip0_1_6094">
<rect width="204.81" height="193.443" fill="white" transform="translate(0.0478516 0.770508)"/>
</clipPath>
</defs>
</svg>
