<svg width="287" height="271" viewBox="0 0 287 271" fill="none" xmlns="http://www.w3.org/2000/svg">
<g clip-path="url(#clip0_1_85)">
<path d="M1.61499 3.2382C2.50692 3.2382 3.22997 2.5133 3.22997 1.6191C3.22997 0.724895 2.50692 0 1.61499 0C0.723054 0 0 0.724895 0 1.6191C0 2.5133 0.723054 3.2382 1.61499 3.2382Z" fill="white"/>
<path d="M18.3025 3.2382C19.1944 3.2382 19.9175 2.5133 19.9175 1.6191C19.9175 0.724895 19.1944 0 18.3025 0C17.4106 0 16.6875 0.724895 16.6875 1.6191C16.6875 2.5133 17.4106 3.2382 18.3025 3.2382Z" fill="white"/>
<path d="M268.697 3.2382C269.589 3.2382 270.312 2.5133 270.312 1.6191C270.312 0.724895 269.589 0 268.697 0C267.805 0 267.082 0.724895 267.082 1.6191C267.082 2.5133 267.805 3.2382 268.697 3.2382Z" fill="white"/>
<path d="M252.01 3.2382C252.901 3.2382 253.625 2.5133 253.625 1.6191C253.625 0.724895 252.901 0 252.01 0C251.118 0 250.395 0.724895 250.395 1.6191C250.395 2.5133 251.118 3.2382 252.01 3.2382Z" fill="white"/>
<path d="M235.31 3.2382C236.202 3.2382 236.925 2.5133 236.925 1.6191C236.925 0.724895 236.202 0 235.31 0C234.418 0 233.695 0.724895 233.695 1.6191C233.695 2.5133 234.418 3.2382 235.31 3.2382Z" fill="white"/>
<path d="M218.619 3.2382C219.511 3.2382 220.234 2.5133 220.234 1.6191C220.234 0.724895 219.511 0 218.619 0C217.727 0 217.004 0.724895 217.004 1.6191C217.004 2.5133 217.727 3.2382 218.619 3.2382Z" fill="white"/>
<path d="M201.927 3.2382C202.819 3.2382 203.542 2.5133 203.542 1.6191C203.542 0.724895 202.819 0 201.927 0C201.036 0 200.312 0.724895 200.312 1.6191C200.312 2.5133 201.036 3.2382 201.927 3.2382Z" fill="white"/>
<path d="M185.232 3.2382C186.124 3.2382 186.847 2.5133 186.847 1.6191C186.847 0.724895 186.124 0 185.232 0C184.34 0 183.617 0.724895 183.617 1.6191C183.617 2.5133 184.34 3.2382 185.232 3.2382Z" fill="white"/>
<path d="M168.537 3.2382C169.429 3.2382 170.152 2.5133 170.152 1.6191C170.152 0.724895 169.429 0 168.537 0C167.645 0 166.922 0.724895 166.922 1.6191C166.922 2.5133 167.645 3.2382 168.537 3.2382Z" fill="white"/>
<path d="M151.849 3.2382C152.741 3.2382 153.464 2.5133 153.464 1.6191C153.464 0.724895 152.741 0 151.849 0C150.957 0 150.234 0.724895 150.234 1.6191C150.234 2.5133 150.957 3.2382 151.849 3.2382Z" fill="white"/>
<path d="M135.158 3.2382C136.05 3.2382 136.773 2.5133 136.773 1.6191C136.773 0.724895 136.05 0 135.158 0C134.266 0 133.543 0.724895 133.543 1.6191C133.543 2.5133 134.266 3.2382 135.158 3.2382Z" fill="white"/>
<path d="M118.459 3.2382C119.351 3.2382 120.074 2.5133 120.074 1.6191C120.074 0.724895 119.351 0 118.459 0C117.567 0 116.844 0.724895 116.844 1.6191C116.844 2.5133 117.567 3.2382 118.459 3.2382Z" fill="white"/>
<path d="M101.771 3.2382C102.663 3.2382 103.386 2.5133 103.386 1.6191C103.386 0.724895 102.663 0 101.771 0C100.879 0 100.156 0.724895 100.156 1.6191C100.156 2.5133 100.879 3.2382 101.771 3.2382Z" fill="white"/>
<path d="M85.0759 3.2382C85.9679 3.2382 86.6909 2.5133 86.6909 1.6191C86.6909 0.724895 85.9679 0 85.0759 0C84.184 0 83.4609 0.724895 83.4609 1.6191C83.4609 2.5133 84.184 3.2382 85.0759 3.2382Z" fill="white"/>
<path d="M68.3806 3.2382C69.2725 3.2382 69.9956 2.5133 69.9956 1.6191C69.9956 0.724895 69.2725 0 68.3806 0C67.4887 0 66.7656 0.724895 66.7656 1.6191C66.7656 2.5133 67.4887 3.2382 68.3806 3.2382Z" fill="white"/>
<path d="M51.6931 3.2382C52.585 3.2382 53.3081 2.5133 53.3081 1.6191C53.3081 0.724895 52.585 0 51.6931 0C50.8012 0 50.0781 0.724895 50.0781 1.6191C50.0781 2.5133 50.8012 3.2382 51.6931 3.2382Z" fill="white"/>
<path d="M34.9978 3.2382C35.8897 3.2382 36.6128 2.5133 36.6128 1.6191C36.6128 0.724895 35.8897 0 34.9978 0C34.1059 0 33.3828 0.724895 33.3828 1.6191C33.3828 2.5133 34.1059 3.2382 34.9978 3.2382Z" fill="white"/>
<path d="M285.392 3.2382C286.284 3.2382 287.007 2.5133 287.007 1.6191C287.007 0.724895 286.284 0 285.392 0C284.5 0 283.777 0.724895 283.777 1.6191C283.777 2.5133 284.5 3.2382 285.392 3.2382Z" fill="white"/>
<path d="M1.61499 19.9689C2.50692 19.9689 3.22997 19.244 3.22997 18.3498C3.22997 17.4556 2.50692 16.7307 1.61499 16.7307C0.723054 16.7307 0 17.4556 0 18.3498C0 19.244 0.723054 19.9689 1.61499 19.9689Z" fill="white"/>
<path d="M18.3025 19.9687C19.1944 19.9687 19.9175 19.2438 19.9175 18.3496C19.9175 17.4554 19.1944 16.7305 18.3025 16.7305C17.4106 16.7305 16.6875 17.4554 16.6875 18.3496C16.6875 19.2438 17.4106 19.9687 18.3025 19.9687Z" fill="white"/>
<path d="M268.697 19.9687C269.589 19.9687 270.312 19.2438 270.312 18.3496C270.312 17.4554 269.589 16.7305 268.697 16.7305C267.805 16.7305 267.082 17.4554 267.082 18.3496C267.082 19.2438 267.805 19.9687 268.697 19.9687Z" fill="white"/>
<path d="M252.01 19.9687C252.901 19.9687 253.625 19.2438 253.625 18.3496C253.625 17.4554 252.901 16.7305 252.01 16.7305C251.118 16.7305 250.395 17.4554 250.395 18.3496C250.395 19.2438 251.118 19.9687 252.01 19.9687Z" fill="white"/>
<path d="M235.31 19.9687C236.202 19.9687 236.925 19.2438 236.925 18.3496C236.925 17.4554 236.202 16.7305 235.31 16.7305C234.418 16.7305 233.695 17.4554 233.695 18.3496C233.695 19.2438 234.418 19.9687 235.31 19.9687Z" fill="white"/>
<path d="M218.619 19.9687C219.511 19.9687 220.234 19.2438 220.234 18.3496C220.234 17.4554 219.511 16.7305 218.619 16.7305C217.727 16.7305 217.004 17.4554 217.004 18.3496C217.004 19.2438 217.727 19.9687 218.619 19.9687Z" fill="white"/>
<path d="M201.927 19.9687C202.819 19.9687 203.542 19.2438 203.542 18.3496C203.542 17.4554 202.819 16.7305 201.927 16.7305C201.036 16.7305 200.312 17.4554 200.312 18.3496C200.312 19.2438 201.036 19.9687 201.927 19.9687Z" fill="white"/>
<path d="M185.232 19.9687C186.124 19.9687 186.847 19.2438 186.847 18.3496C186.847 17.4554 186.124 16.7305 185.232 16.7305C184.34 16.7305 183.617 17.4554 183.617 18.3496C183.617 19.2438 184.34 19.9687 185.232 19.9687Z" fill="white"/>
<path d="M168.537 19.9687C169.429 19.9687 170.152 19.2438 170.152 18.3496C170.152 17.4554 169.429 16.7305 168.537 16.7305C167.645 16.7305 166.922 17.4554 166.922 18.3496C166.922 19.2438 167.645 19.9687 168.537 19.9687Z" fill="white"/>
<path d="M151.849 19.9687C152.741 19.9687 153.464 19.2438 153.464 18.3496C153.464 17.4554 152.741 16.7305 151.849 16.7305C150.957 16.7305 150.234 17.4554 150.234 18.3496C150.234 19.2438 150.957 19.9687 151.849 19.9687Z" fill="white"/>
<path d="M135.158 19.9687C136.05 19.9687 136.773 19.2438 136.773 18.3496C136.773 17.4554 136.05 16.7305 135.158 16.7305C134.266 16.7305 133.543 17.4554 133.543 18.3496C133.543 19.2438 134.266 19.9687 135.158 19.9687Z" fill="white"/>
<path d="M118.459 19.9687C119.351 19.9687 120.074 19.2438 120.074 18.3496C120.074 17.4554 119.351 16.7305 118.459 16.7305C117.567 16.7305 116.844 17.4554 116.844 18.3496C116.844 19.2438 117.567 19.9687 118.459 19.9687Z" fill="white"/>
<path d="M101.771 19.9687C102.663 19.9687 103.386 19.2438 103.386 18.3496C103.386 17.4554 102.663 16.7305 101.771 16.7305C100.879 16.7305 100.156 17.4554 100.156 18.3496C100.156 19.2438 100.879 19.9687 101.771 19.9687Z" fill="white"/>
<path d="M85.0759 19.9687C85.9679 19.9687 86.6909 19.2438 86.6909 18.3496C86.6909 17.4554 85.9679 16.7305 85.0759 16.7305C84.184 16.7305 83.4609 17.4554 83.4609 18.3496C83.4609 19.2438 84.184 19.9687 85.0759 19.9687Z" fill="white"/>
<path d="M68.3806 19.9687C69.2725 19.9687 69.9956 19.2438 69.9956 18.3496C69.9956 17.4554 69.2725 16.7305 68.3806 16.7305C67.4887 16.7305 66.7656 17.4554 66.7656 18.3496C66.7656 19.2438 67.4887 19.9687 68.3806 19.9687Z" fill="white"/>
<path d="M51.6931 19.9687C52.585 19.9687 53.3081 19.2438 53.3081 18.3496C53.3081 17.4554 52.585 16.7305 51.6931 16.7305C50.8012 16.7305 50.0781 17.4554 50.0781 18.3496C50.0781 19.2438 50.8012 19.9687 51.6931 19.9687Z" fill="white"/>
<path d="M34.9978 19.9687C35.8897 19.9687 36.6128 19.2438 36.6128 18.3496C36.6128 17.4554 35.8897 16.7305 34.9978 16.7305C34.1059 16.7305 33.3828 17.4554 33.3828 18.3496C33.3828 19.2438 34.1059 19.9687 34.9978 19.9687Z" fill="white"/>
<path d="M285.392 19.9689C286.284 19.9689 287.007 19.244 287.007 18.3498C287.007 17.4556 286.284 16.7307 285.392 16.7307C284.5 16.7307 283.777 17.4556 283.777 18.3498C283.777 19.244 284.5 19.9689 285.392 19.9689Z" fill="white"/>
<path d="M1.61499 36.7067C2.50692 36.7067 3.22997 35.9818 3.22997 35.0876C3.22997 34.1934 2.50692 33.4685 1.61499 33.4685C0.723054 33.4685 0 34.1934 0 35.0876C0 35.9818 0.723054 36.7067 1.61499 36.7067Z" fill="white"/>
<path d="M18.3025 36.7065C19.1944 36.7065 19.9175 35.9816 19.9175 35.0874C19.9175 34.1932 19.1944 33.4683 18.3025 33.4683C17.4106 33.4683 16.6875 34.1932 16.6875 35.0874C16.6875 35.9816 17.4106 36.7065 18.3025 36.7065Z" fill="white"/>
<path d="M268.697 36.7065C269.589 36.7065 270.312 35.9816 270.312 35.0874C270.312 34.1932 269.589 33.4683 268.697 33.4683C267.805 33.4683 267.082 34.1932 267.082 35.0874C267.082 35.9816 267.805 36.7065 268.697 36.7065Z" fill="white"/>
<path d="M252.01 36.7069C252.901 36.7069 253.625 35.982 253.625 35.0878C253.625 34.1936 252.901 33.4688 252.01 33.4688C251.118 33.4688 250.395 34.1936 250.395 35.0878C250.395 35.982 251.118 36.7069 252.01 36.7069Z" fill="white"/>
<path d="M235.31 36.7065C236.202 36.7065 236.925 35.9816 236.925 35.0874C236.925 34.1932 236.202 33.4683 235.31 33.4683C234.418 33.4683 233.695 34.1932 233.695 35.0874C233.695 35.9816 234.418 36.7065 235.31 36.7065Z" fill="white"/>
<path d="M218.619 36.7065C219.511 36.7065 220.234 35.9816 220.234 35.0874C220.234 34.1932 219.511 33.4683 218.619 33.4683C217.727 33.4683 217.004 34.1932 217.004 35.0874C217.004 35.9816 217.727 36.7065 218.619 36.7065Z" fill="white"/>
<path d="M201.927 36.7069C202.819 36.7069 203.542 35.982 203.542 35.0878C203.542 34.1936 202.819 33.4688 201.927 33.4688C201.036 33.4688 200.312 34.1936 200.312 35.0878C200.312 35.982 201.036 36.7069 201.927 36.7069Z" fill="white"/>
<path d="M185.232 36.7065C186.124 36.7065 186.847 35.9816 186.847 35.0874C186.847 34.1932 186.124 33.4683 185.232 33.4683C184.34 33.4683 183.617 34.1932 183.617 35.0874C183.617 35.9816 184.34 36.7065 185.232 36.7065Z" fill="white"/>
<path d="M168.537 36.7069C169.429 36.7069 170.152 35.982 170.152 35.0878C170.152 34.1936 169.429 33.4688 168.537 33.4688C167.645 33.4688 166.922 34.1936 166.922 35.0878C166.922 35.982 167.645 36.7069 168.537 36.7069Z" fill="white"/>
<path d="M151.849 36.7065C152.741 36.7065 153.464 35.9816 153.464 35.0874C153.464 34.1932 152.741 33.4683 151.849 33.4683C150.957 33.4683 150.234 34.1932 150.234 35.0874C150.234 35.9816 150.957 36.7065 151.849 36.7065Z" fill="white"/>
<path d="M135.158 36.7065C136.05 36.7065 136.773 35.9816 136.773 35.0874C136.773 34.1932 136.05 33.4683 135.158 33.4683C134.266 33.4683 133.543 34.1932 133.543 35.0874C133.543 35.9816 134.266 36.7065 135.158 36.7065Z" fill="white"/>
<path d="M118.459 36.7069C119.351 36.7069 120.074 35.982 120.074 35.0878C120.074 34.1936 119.351 33.4688 118.459 33.4688C117.567 33.4688 116.844 34.1936 116.844 35.0878C116.844 35.982 117.567 36.7069 118.459 36.7069Z" fill="white"/>
<path d="M101.771 36.7065C102.663 36.7065 103.386 35.9816 103.386 35.0874C103.386 34.1932 102.663 33.4683 101.771 33.4683C100.879 33.4683 100.156 34.1932 100.156 35.0874C100.156 35.9816 100.879 36.7065 101.771 36.7065Z" fill="white"/>
<path d="M85.0759 36.7069C85.9679 36.7069 86.6909 35.982 86.6909 35.0878C86.6909 34.1936 85.9679 33.4688 85.0759 33.4688C84.184 33.4688 83.4609 34.1936 83.4609 35.0878C83.4609 35.982 84.184 36.7069 85.0759 36.7069Z" fill="white"/>
<path d="M68.3806 36.7069C69.2725 36.7069 69.9956 35.982 69.9956 35.0878C69.9956 34.1936 69.2725 33.4688 68.3806 33.4688C67.4887 33.4688 66.7656 34.1936 66.7656 35.0878C66.7656 35.982 67.4887 36.7069 68.3806 36.7069Z" fill="white"/>
<path d="M51.6931 36.7069C52.585 36.7069 53.3081 35.982 53.3081 35.0878C53.3081 34.1936 52.585 33.4688 51.6931 33.4688C50.8012 33.4688 50.0781 34.1936 50.0781 35.0878C50.0781 35.982 50.8012 36.7069 51.6931 36.7069Z" fill="white"/>
<path d="M34.9978 36.7069C35.8897 36.7069 36.6128 35.982 36.6128 35.0878C36.6128 34.1936 35.8897 33.4688 34.9978 33.4688C34.1059 33.4688 33.3828 34.1936 33.3828 35.0878C33.3828 35.982 34.1059 36.7069 34.9978 36.7069Z" fill="white"/>
<path d="M285.392 36.7067C286.284 36.7067 287.007 35.9818 287.007 35.0876C287.007 34.1934 286.284 33.4685 285.392 33.4685C284.5 33.4685 283.777 34.1934 283.777 35.0876C283.777 35.9818 284.5 36.7067 285.392 36.7067Z" fill="white"/>
<path d="M1.61499 53.4445C2.50692 53.4445 3.22997 52.7196 3.22997 51.8254C3.22997 50.9312 2.50692 50.2063 1.61499 50.2063C0.723054 50.2063 0 50.9312 0 51.8254C0 52.7196 0.723054 53.4445 1.61499 53.4445Z" fill="white"/>
<path d="M18.3025 53.4443C19.1944 53.4443 19.9175 52.7194 19.9175 51.8252C19.9175 50.931 19.1944 50.2061 18.3025 50.2061C17.4106 50.2061 16.6875 50.931 16.6875 51.8252C16.6875 52.7194 17.4106 53.4443 18.3025 53.4443Z" fill="white"/>
<path d="M268.697 53.4443C269.589 53.4443 270.312 52.7194 270.312 51.8252C270.312 50.931 269.589 50.2061 268.697 50.2061C267.805 50.2061 267.082 50.931 267.082 51.8252C267.082 52.7194 267.805 53.4443 268.697 53.4443Z" fill="white"/>
<path d="M252.01 53.4443C252.901 53.4443 253.625 52.7194 253.625 51.8252C253.625 50.931 252.901 50.2061 252.01 50.2061C251.118 50.2061 250.395 50.931 250.395 51.8252C250.395 52.7194 251.118 53.4443 252.01 53.4443Z" fill="white"/>
<path d="M235.31 53.4443C236.202 53.4443 236.925 52.7194 236.925 51.8252C236.925 50.931 236.202 50.2061 235.31 50.2061C234.418 50.2061 233.695 50.931 233.695 51.8252C233.695 52.7194 234.418 53.4443 235.31 53.4443Z" fill="white"/>
<path d="M218.619 53.4443C219.511 53.4443 220.234 52.7194 220.234 51.8252C220.234 50.931 219.511 50.2061 218.619 50.2061C217.727 50.2061 217.004 50.931 217.004 51.8252C217.004 52.7194 217.727 53.4443 218.619 53.4443Z" fill="white"/>
<path d="M201.927 53.4443C202.819 53.4443 203.542 52.7194 203.542 51.8252C203.542 50.931 202.819 50.2061 201.927 50.2061C201.036 50.2061 200.312 50.931 200.312 51.8252C200.312 52.7194 201.036 53.4443 201.927 53.4443Z" fill="white"/>
<path d="M185.232 53.4443C186.124 53.4443 186.847 52.7194 186.847 51.8252C186.847 50.931 186.124 50.2061 185.232 50.2061C184.34 50.2061 183.617 50.931 183.617 51.8252C183.617 52.7194 184.34 53.4443 185.232 53.4443Z" fill="white"/>
<path d="M168.537 53.4443C169.429 53.4443 170.152 52.7194 170.152 51.8252C170.152 50.931 169.429 50.2061 168.537 50.2061C167.645 50.2061 166.922 50.931 166.922 51.8252C166.922 52.7194 167.645 53.4443 168.537 53.4443Z" fill="white"/>
<path d="M151.849 53.4443C152.741 53.4443 153.464 52.7194 153.464 51.8252C153.464 50.931 152.741 50.2061 151.849 50.2061C150.957 50.2061 150.234 50.931 150.234 51.8252C150.234 52.7194 150.957 53.4443 151.849 53.4443Z" fill="white"/>
<path d="M135.158 53.4443C136.05 53.4443 136.773 52.7194 136.773 51.8252C136.773 50.931 136.05 50.2061 135.158 50.2061C134.266 50.2061 133.543 50.931 133.543 51.8252C133.543 52.7194 134.266 53.4443 135.158 53.4443Z" fill="white"/>
<path d="M118.459 53.4443C119.351 53.4443 120.074 52.7194 120.074 51.8252C120.074 50.931 119.351 50.2061 118.459 50.2061C117.567 50.2061 116.844 50.931 116.844 51.8252C116.844 52.7194 117.567 53.4443 118.459 53.4443Z" fill="white"/>
<path d="M101.771 53.4443C102.663 53.4443 103.386 52.7194 103.386 51.8252C103.386 50.931 102.663 50.2061 101.771 50.2061C100.879 50.2061 100.156 50.931 100.156 51.8252C100.156 52.7194 100.879 53.4443 101.771 53.4443Z" fill="white"/>
<path d="M85.0759 53.4443C85.9679 53.4443 86.6909 52.7194 86.6909 51.8252C86.6909 50.931 85.9679 50.2061 85.0759 50.2061C84.184 50.2061 83.4609 50.931 83.4609 51.8252C83.4609 52.7194 84.184 53.4443 85.0759 53.4443Z" fill="white"/>
<path d="M68.3806 53.4443C69.2725 53.4443 69.9956 52.7194 69.9956 51.8252C69.9956 50.931 69.2725 50.2061 68.3806 50.2061C67.4887 50.2061 66.7656 50.931 66.7656 51.8252C66.7656 52.7194 67.4887 53.4443 68.3806 53.4443Z" fill="white"/>
<path d="M51.6931 53.4443C52.585 53.4443 53.3081 52.7194 53.3081 51.8252C53.3081 50.931 52.585 50.2061 51.6931 50.2061C50.8012 50.2061 50.0781 50.931 50.0781 51.8252C50.0781 52.7194 50.8012 53.4443 51.6931 53.4443Z" fill="white"/>
<path d="M34.9978 53.4443C35.8897 53.4443 36.6128 52.7194 36.6128 51.8252C36.6128 50.931 35.8897 50.2061 34.9978 50.2061C34.1059 50.2061 33.3828 50.931 33.3828 51.8252C33.3828 52.7194 34.1059 53.4443 34.9978 53.4443Z" fill="white"/>
<path d="M285.392 53.4445C286.284 53.4445 287.007 52.7196 287.007 51.8254C287.007 50.9312 286.284 50.2063 285.392 50.2063C284.5 50.2063 283.777 50.9312 283.777 51.8254C283.777 52.7196 284.5 53.4445 285.392 53.4445Z" fill="white"/>
<path d="M1.61499 70.1752C2.50692 70.1752 3.22997 69.4503 3.22997 68.5561C3.22997 67.6619 2.50692 66.937 1.61499 66.937C0.723054 66.937 0 67.6619 0 68.5561C0 69.4503 0.723054 70.1752 1.61499 70.1752Z" fill="white"/>
<path d="M18.3025 70.1752C19.1944 70.1752 19.9175 69.4503 19.9175 68.5561C19.9175 67.6619 19.1944 66.937 18.3025 66.937C17.4106 66.937 16.6875 67.6619 16.6875 68.5561C16.6875 69.4503 17.4106 70.1752 18.3025 70.1752Z" fill="white"/>
<path d="M268.697 70.1752C269.589 70.1752 270.312 69.4503 270.312 68.5561C270.312 67.6619 269.589 66.937 268.697 66.937C267.805 66.937 267.082 67.6619 267.082 68.5561C267.082 69.4503 267.805 70.1752 268.697 70.1752Z" fill="white"/>
<path d="M252.01 70.1752C252.901 70.1752 253.625 69.4503 253.625 68.5561C253.625 67.6619 252.901 66.937 252.01 66.937C251.118 66.937 250.395 67.6619 250.395 68.5561C250.395 69.4503 251.118 70.1752 252.01 70.1752Z" fill="white"/>
<path d="M235.31 70.1752C236.202 70.1752 236.925 69.4503 236.925 68.5561C236.925 67.6619 236.202 66.937 235.31 66.937C234.418 66.937 233.695 67.6619 233.695 68.5561C233.695 69.4503 234.418 70.1752 235.31 70.1752Z" fill="white"/>
<path d="M218.619 70.1752C219.511 70.1752 220.234 69.4503 220.234 68.5561C220.234 67.6619 219.511 66.937 218.619 66.937C217.727 66.937 217.004 67.6619 217.004 68.5561C217.004 69.4503 217.727 70.1752 218.619 70.1752Z" fill="white"/>
<path d="M201.927 70.1752C202.819 70.1752 203.542 69.4503 203.542 68.5561C203.542 67.6619 202.819 66.937 201.927 66.937C201.036 66.937 200.312 67.6619 200.312 68.5561C200.312 69.4503 201.036 70.1752 201.927 70.1752Z" fill="white"/>
<path d="M185.232 70.1752C186.124 70.1752 186.847 69.4503 186.847 68.5561C186.847 67.6619 186.124 66.937 185.232 66.937C184.34 66.937 183.617 67.6619 183.617 68.5561C183.617 69.4503 184.34 70.1752 185.232 70.1752Z" fill="white"/>
<path d="M168.537 70.1752C169.429 70.1752 170.152 69.4503 170.152 68.5561C170.152 67.6619 169.429 66.937 168.537 66.937C167.645 66.937 166.922 67.6619 166.922 68.5561C166.922 69.4503 167.645 70.1752 168.537 70.1752Z" fill="white"/>
<path d="M151.849 70.1752C152.741 70.1752 153.464 69.4503 153.464 68.5561C153.464 67.6619 152.741 66.937 151.849 66.937C150.957 66.937 150.234 67.6619 150.234 68.5561C150.234 69.4503 150.957 70.1752 151.849 70.1752Z" fill="white"/>
<path d="M135.158 70.1752C136.05 70.1752 136.773 69.4503 136.773 68.5561C136.773 67.6619 136.05 66.937 135.158 66.937C134.266 66.937 133.543 67.6619 133.543 68.5561C133.543 69.4503 134.266 70.1752 135.158 70.1752Z" fill="white"/>
<path d="M118.459 70.1752C119.351 70.1752 120.074 69.4503 120.074 68.5561C120.074 67.6619 119.351 66.937 118.459 66.937C117.567 66.937 116.844 67.6619 116.844 68.5561C116.844 69.4503 117.567 70.1752 118.459 70.1752Z" fill="white"/>
<path d="M101.771 70.1752C102.663 70.1752 103.386 69.4503 103.386 68.5561C103.386 67.6619 102.663 66.937 101.771 66.937C100.879 66.937 100.156 67.6619 100.156 68.5561C100.156 69.4503 100.879 70.1752 101.771 70.1752Z" fill="white"/>
<path d="M85.0759 70.1752C85.9679 70.1752 86.6909 69.4503 86.6909 68.5561C86.6909 67.6619 85.9679 66.937 85.0759 66.937C84.184 66.937 83.4609 67.6619 83.4609 68.5561C83.4609 69.4503 84.184 70.1752 85.0759 70.1752Z" fill="white"/>
<path d="M68.3806 70.1752C69.2725 70.1752 69.9956 69.4503 69.9956 68.5561C69.9956 67.6619 69.2725 66.937 68.3806 66.937C67.4887 66.937 66.7656 67.6619 66.7656 68.5561C66.7656 69.4503 67.4887 70.1752 68.3806 70.1752Z" fill="white"/>
<path d="M51.6931 70.1752C52.585 70.1752 53.3081 69.4503 53.3081 68.5561C53.3081 67.6619 52.585 66.937 51.6931 66.937C50.8012 66.937 50.0781 67.6619 50.0781 68.5561C50.0781 69.4503 50.8012 70.1752 51.6931 70.1752Z" fill="white"/>
<path d="M34.9978 70.1752C35.8897 70.1752 36.6128 69.4503 36.6128 68.5561C36.6128 67.6619 35.8897 66.937 34.9978 66.937C34.1059 66.937 33.3828 67.6619 33.3828 68.5561C33.3828 69.4503 34.1059 70.1752 34.9978 70.1752Z" fill="white"/>
<path d="M285.392 70.1752C286.284 70.1752 287.007 69.4503 287.007 68.5561C287.007 67.6619 286.284 66.937 285.392 66.937C284.5 66.937 283.777 67.6619 283.777 68.5561C283.777 69.4503 284.5 70.1752 285.392 70.1752Z" fill="white"/>
<path d="M1.61499 86.9128C2.50692 86.9128 3.22997 86.1879 3.22997 85.2937C3.22997 84.3995 2.50692 83.6746 1.61499 83.6746C0.723054 83.6746 0 84.3995 0 85.2937C0 86.1879 0.723054 86.9128 1.61499 86.9128Z" fill="white"/>
<path d="M18.3025 86.913C19.1944 86.913 19.9175 86.1881 19.9175 85.2939C19.9175 84.3997 19.1944 83.6748 18.3025 83.6748C17.4106 83.6748 16.6875 84.3997 16.6875 85.2939C16.6875 86.1881 17.4106 86.913 18.3025 86.913Z" fill="white"/>
<path d="M268.697 86.913C269.589 86.913 270.312 86.1881 270.312 85.2939C270.312 84.3997 269.589 83.6748 268.697 83.6748C267.805 83.6748 267.082 84.3997 267.082 85.2939C267.082 86.1881 267.805 86.913 268.697 86.913Z" fill="white"/>
<path d="M252.01 86.913C252.901 86.913 253.625 86.1881 253.625 85.2939C253.625 84.3997 252.901 83.6748 252.01 83.6748C251.118 83.6748 250.395 84.3997 250.395 85.2939C250.395 86.1881 251.118 86.913 252.01 86.913Z" fill="white"/>
<path d="M235.31 86.913C236.202 86.913 236.925 86.1881 236.925 85.2939C236.925 84.3997 236.202 83.6748 235.31 83.6748C234.418 83.6748 233.695 84.3997 233.695 85.2939C233.695 86.1881 234.418 86.913 235.31 86.913Z" fill="white"/>
<path d="M218.619 86.913C219.511 86.913 220.234 86.1881 220.234 85.2939C220.234 84.3997 219.511 83.6748 218.619 83.6748C217.727 83.6748 217.004 84.3997 217.004 85.2939C217.004 86.1881 217.727 86.913 218.619 86.913Z" fill="white"/>
<path d="M201.927 86.913C202.819 86.913 203.542 86.1881 203.542 85.2939C203.542 84.3997 202.819 83.6748 201.927 83.6748C201.036 83.6748 200.312 84.3997 200.312 85.2939C200.312 86.1881 201.036 86.913 201.927 86.913Z" fill="white"/>
<path d="M185.232 86.913C186.124 86.913 186.847 86.1881 186.847 85.2939C186.847 84.3997 186.124 83.6748 185.232 83.6748C184.34 83.6748 183.617 84.3997 183.617 85.2939C183.617 86.1881 184.34 86.913 185.232 86.913Z" fill="white"/>
<path d="M168.537 86.913C169.429 86.913 170.152 86.1881 170.152 85.2939C170.152 84.3997 169.429 83.6748 168.537 83.6748C167.645 83.6748 166.922 84.3997 166.922 85.2939C166.922 86.1881 167.645 86.913 168.537 86.913Z" fill="white"/>
<path d="M151.849 86.913C152.741 86.913 153.464 86.1881 153.464 85.2939C153.464 84.3997 152.741 83.6748 151.849 83.6748C150.957 83.6748 150.234 84.3997 150.234 85.2939C150.234 86.1881 150.957 86.913 151.849 86.913Z" fill="white"/>
<path d="M135.158 86.913C136.05 86.913 136.773 86.1881 136.773 85.2939C136.773 84.3997 136.05 83.6748 135.158 83.6748C134.266 83.6748 133.543 84.3997 133.543 85.2939C133.543 86.1881 134.266 86.913 135.158 86.913Z" fill="white"/>
<path d="M118.459 86.913C119.351 86.913 120.074 86.1881 120.074 85.2939C120.074 84.3997 119.351 83.6748 118.459 83.6748C117.567 83.6748 116.844 84.3997 116.844 85.2939C116.844 86.1881 117.567 86.913 118.459 86.913Z" fill="white"/>
<path d="M101.771 86.913C102.663 86.913 103.386 86.1881 103.386 85.2939C103.386 84.3997 102.663 83.6748 101.771 83.6748C100.879 83.6748 100.156 84.3997 100.156 85.2939C100.156 86.1881 100.879 86.913 101.771 86.913Z" fill="white"/>
<path d="M85.0759 86.913C85.9679 86.913 86.6909 86.1881 86.6909 85.2939C86.6909 84.3997 85.9679 83.6748 85.0759 83.6748C84.184 83.6748 83.4609 84.3997 83.4609 85.2939C83.4609 86.1881 84.184 86.913 85.0759 86.913Z" fill="white"/>
<path d="M68.3806 86.913C69.2725 86.913 69.9956 86.1881 69.9956 85.2939C69.9956 84.3997 69.2725 83.6748 68.3806 83.6748C67.4887 83.6748 66.7656 84.3997 66.7656 85.2939C66.7656 86.1881 67.4887 86.913 68.3806 86.913Z" fill="white"/>
<path d="M51.6931 86.913C52.585 86.913 53.3081 86.1881 53.3081 85.2939C53.3081 84.3997 52.585 83.6748 51.6931 83.6748C50.8012 83.6748 50.0781 84.3997 50.0781 85.2939C50.0781 86.1881 50.8012 86.913 51.6931 86.913Z" fill="white"/>
<path d="M34.9978 86.913C35.8897 86.913 36.6128 86.1881 36.6128 85.2939C36.6128 84.3997 35.8897 83.6748 34.9978 83.6748C34.1059 83.6748 33.3828 84.3997 33.3828 85.2939C33.3828 86.1881 34.1059 86.913 34.9978 86.913Z" fill="white"/>
<path d="M285.392 86.9128C286.284 86.9128 287.007 86.1879 287.007 85.2937C287.007 84.3995 286.284 83.6746 285.392 83.6746C284.5 83.6746 283.777 84.3995 283.777 85.2937C283.777 86.1879 284.5 86.9128 285.392 86.9128Z" fill="white"/>
<path d="M1.61499 103.651C2.50692 103.651 3.22997 102.926 3.22997 102.031C3.22997 101.137 2.50692 100.412 1.61499 100.412C0.723054 100.412 0 101.137 0 102.031C0 102.926 0.723054 103.651 1.61499 103.651Z" fill="white"/>
<path d="M18.3025 103.65C19.1944 103.65 19.9175 102.925 19.9175 102.031C19.9175 101.137 19.1944 100.412 18.3025 100.412C17.4106 100.412 16.6875 101.137 16.6875 102.031C16.6875 102.925 17.4106 103.65 18.3025 103.65Z" fill="white"/>
<path d="M268.697 103.65C269.589 103.65 270.312 102.925 270.312 102.031C270.312 101.137 269.589 100.412 268.697 100.412C267.805 100.412 267.082 101.137 267.082 102.031C267.082 102.925 267.805 103.65 268.697 103.65Z" fill="white"/>
<path d="M252.01 103.65C252.901 103.65 253.625 102.925 253.625 102.031C253.625 101.137 252.901 100.412 252.01 100.412C251.118 100.412 250.395 101.137 250.395 102.031C250.395 102.925 251.118 103.65 252.01 103.65Z" fill="white"/>
<path d="M235.31 103.65C236.202 103.65 236.925 102.925 236.925 102.031C236.925 101.137 236.202 100.412 235.31 100.412C234.418 100.412 233.695 101.137 233.695 102.031C233.695 102.925 234.418 103.65 235.31 103.65Z" fill="white"/>
<path d="M218.619 103.65C219.511 103.65 220.234 102.925 220.234 102.031C220.234 101.137 219.511 100.412 218.619 100.412C217.727 100.412 217.004 101.137 217.004 102.031C217.004 102.925 217.727 103.65 218.619 103.65Z" fill="white"/>
<path d="M201.927 103.65C202.819 103.65 203.542 102.925 203.542 102.031C203.542 101.137 202.819 100.412 201.927 100.412C201.036 100.412 200.312 101.137 200.312 102.031C200.312 102.925 201.036 103.65 201.927 103.65Z" fill="white"/>
<path d="M185.232 103.65C186.124 103.65 186.847 102.925 186.847 102.031C186.847 101.137 186.124 100.412 185.232 100.412C184.34 100.412 183.617 101.137 183.617 102.031C183.617 102.925 184.34 103.65 185.232 103.65Z" fill="white"/>
<path d="M168.537 103.65C169.429 103.65 170.152 102.925 170.152 102.031C170.152 101.137 169.429 100.412 168.537 100.412C167.645 100.412 166.922 101.137 166.922 102.031C166.922 102.925 167.645 103.65 168.537 103.65Z" fill="white"/>
<path d="M151.849 103.65C152.741 103.65 153.464 102.925 153.464 102.031C153.464 101.137 152.741 100.412 151.849 100.412C150.957 100.412 150.234 101.137 150.234 102.031C150.234 102.925 150.957 103.65 151.849 103.65Z" fill="white"/>
<path d="M135.158 103.65C136.05 103.65 136.773 102.925 136.773 102.031C136.773 101.137 136.05 100.412 135.158 100.412C134.266 100.412 133.543 101.137 133.543 102.031C133.543 102.925 134.266 103.65 135.158 103.65Z" fill="white"/>
<path d="M118.459 103.65C119.351 103.65 120.074 102.925 120.074 102.031C120.074 101.137 119.351 100.412 118.459 100.412C117.567 100.412 116.844 101.137 116.844 102.031C116.844 102.925 117.567 103.65 118.459 103.65Z" fill="white"/>
<path d="M101.771 103.65C102.663 103.65 103.386 102.925 103.386 102.031C103.386 101.137 102.663 100.412 101.771 100.412C100.879 100.412 100.156 101.137 100.156 102.031C100.156 102.925 100.879 103.65 101.771 103.65Z" fill="white"/>
<path d="M85.0759 103.65C85.9679 103.65 86.6909 102.925 86.6909 102.031C86.6909 101.137 85.9679 100.412 85.0759 100.412C84.184 100.412 83.4609 101.137 83.4609 102.031C83.4609 102.925 84.184 103.65 85.0759 103.65Z" fill="white"/>
<path d="M68.3806 103.65C69.2725 103.65 69.9956 102.925 69.9956 102.031C69.9956 101.137 69.2725 100.412 68.3806 100.412C67.4887 100.412 66.7656 101.137 66.7656 102.031C66.7656 102.925 67.4887 103.65 68.3806 103.65Z" fill="white"/>
<path d="M51.6931 103.65C52.585 103.65 53.3081 102.925 53.3081 102.031C53.3081 101.137 52.585 100.412 51.6931 100.412C50.8012 100.412 50.0781 101.137 50.0781 102.031C50.0781 102.925 50.8012 103.65 51.6931 103.65Z" fill="white"/>
<path d="M34.9978 103.65C35.8897 103.65 36.6128 102.925 36.6128 102.031C36.6128 101.137 35.8897 100.412 34.9978 100.412C34.1059 100.412 33.3828 101.137 33.3828 102.031C33.3828 102.925 34.1059 103.65 34.9978 103.65Z" fill="white"/>
<path d="M285.392 103.651C286.284 103.651 287.007 102.926 287.007 102.031C287.007 101.137 286.284 100.412 285.392 100.412C284.5 100.412 283.777 101.137 283.777 102.031C283.777 102.926 284.5 103.651 285.392 103.651Z" fill="white"/>
<path d="M1.61499 120.381C2.50692 120.381 3.22997 119.656 3.22997 118.762C3.22997 117.868 2.50692 117.143 1.61499 117.143C0.723054 117.143 0 117.868 0 118.762C0 119.656 0.723054 120.381 1.61499 120.381Z" fill="white"/>
<path d="M18.3025 120.381C19.1944 120.381 19.9175 119.656 19.9175 118.762C19.9175 117.868 19.1944 117.143 18.3025 117.143C17.4106 117.143 16.6875 117.868 16.6875 118.762C16.6875 119.656 17.4106 120.381 18.3025 120.381Z" fill="white"/>
<path d="M268.697 120.381C269.589 120.381 270.312 119.656 270.312 118.762C270.312 117.868 269.589 117.143 268.697 117.143C267.805 117.143 267.082 117.868 267.082 118.762C267.082 119.656 267.805 120.381 268.697 120.381Z" fill="white"/>
<path d="M252.01 120.381C252.901 120.381 253.625 119.656 253.625 118.762C253.625 117.868 252.901 117.143 252.01 117.143C251.118 117.143 250.395 117.868 250.395 118.762C250.395 119.656 251.118 120.381 252.01 120.381Z" fill="white"/>
<path d="M235.31 120.381C236.202 120.381 236.925 119.656 236.925 118.762C236.925 117.868 236.202 117.143 235.31 117.143C234.418 117.143 233.695 117.868 233.695 118.762C233.695 119.656 234.418 120.381 235.31 120.381Z" fill="white"/>
<path d="M218.619 120.381C219.511 120.381 220.234 119.656 220.234 118.762C220.234 117.868 219.511 117.143 218.619 117.143C217.727 117.143 217.004 117.868 217.004 118.762C217.004 119.656 217.727 120.381 218.619 120.381Z" fill="white"/>
<path d="M201.927 120.381C202.819 120.381 203.542 119.656 203.542 118.762C203.542 117.868 202.819 117.143 201.927 117.143C201.036 117.143 200.312 117.868 200.312 118.762C200.312 119.656 201.036 120.381 201.927 120.381Z" fill="white"/>
<path d="M185.232 120.381C186.124 120.381 186.847 119.656 186.847 118.762C186.847 117.868 186.124 117.143 185.232 117.143C184.34 117.143 183.617 117.868 183.617 118.762C183.617 119.656 184.34 120.381 185.232 120.381Z" fill="white"/>
<path d="M168.537 120.381C169.429 120.381 170.152 119.656 170.152 118.762C170.152 117.868 169.429 117.143 168.537 117.143C167.645 117.143 166.922 117.868 166.922 118.762C166.922 119.656 167.645 120.381 168.537 120.381Z" fill="white"/>
<path d="M151.849 120.381C152.741 120.381 153.464 119.656 153.464 118.762C153.464 117.868 152.741 117.143 151.849 117.143C150.957 117.143 150.234 117.868 150.234 118.762C150.234 119.656 150.957 120.381 151.849 120.381Z" fill="white"/>
<path d="M135.158 120.381C136.05 120.381 136.773 119.656 136.773 118.762C136.773 117.868 136.05 117.143 135.158 117.143C134.266 117.143 133.543 117.868 133.543 118.762C133.543 119.656 134.266 120.381 135.158 120.381Z" fill="white"/>
<path d="M118.459 120.381C119.351 120.381 120.074 119.656 120.074 118.762C120.074 117.868 119.351 117.143 118.459 117.143C117.567 117.143 116.844 117.868 116.844 118.762C116.844 119.656 117.567 120.381 118.459 120.381Z" fill="white"/>
<path d="M101.771 120.381C102.663 120.381 103.386 119.656 103.386 118.762C103.386 117.868 102.663 117.143 101.771 117.143C100.879 117.143 100.156 117.868 100.156 118.762C100.156 119.656 100.879 120.381 101.771 120.381Z" fill="white"/>
<path d="M85.0759 120.381C85.9679 120.381 86.6909 119.656 86.6909 118.762C86.6909 117.868 85.9679 117.143 85.0759 117.143C84.184 117.143 83.4609 117.868 83.4609 118.762C83.4609 119.656 84.184 120.381 85.0759 120.381Z" fill="white"/>
<path d="M68.3806 120.381C69.2725 120.381 69.9956 119.656 69.9956 118.762C69.9956 117.868 69.2725 117.143 68.3806 117.143C67.4887 117.143 66.7656 117.868 66.7656 118.762C66.7656 119.656 67.4887 120.381 68.3806 120.381Z" fill="white"/>
<path d="M51.6931 120.381C52.585 120.381 53.3081 119.656 53.3081 118.762C53.3081 117.868 52.585 117.143 51.6931 117.143C50.8012 117.143 50.0781 117.868 50.0781 118.762C50.0781 119.656 50.8012 120.381 51.6931 120.381Z" fill="white"/>
<path d="M34.9978 120.381C35.8897 120.381 36.6128 119.656 36.6128 118.762C36.6128 117.868 35.8897 117.143 34.9978 117.143C34.1059 117.143 33.3828 117.868 33.3828 118.762C33.3828 119.656 34.1059 120.381 34.9978 120.381Z" fill="white"/>
<path d="M285.392 120.381C286.284 120.381 287.007 119.656 287.007 118.762C287.007 117.868 286.284 117.143 285.392 117.143C284.5 117.143 283.777 117.868 283.777 118.762C283.777 119.656 284.5 120.381 285.392 120.381Z" fill="white"/>
<path d="M1.61499 137.119C2.50692 137.119 3.22997 136.394 3.22997 135.5C3.22997 134.606 2.50692 133.881 1.61499 133.881C0.723054 133.881 0 134.606 0 135.5C0 136.394 0.723054 137.119 1.61499 137.119Z" fill="white"/>
<path d="M18.3025 137.119C19.1944 137.119 19.9175 136.394 19.9175 135.5C19.9175 134.606 19.1944 133.881 18.3025 133.881C17.4106 133.881 16.6875 134.606 16.6875 135.5C16.6875 136.394 17.4106 137.119 18.3025 137.119Z" fill="white"/>
<path d="M268.697 137.119C269.589 137.119 270.312 136.394 270.312 135.5C270.312 134.606 269.589 133.881 268.697 133.881C267.805 133.881 267.082 134.606 267.082 135.5C267.082 136.394 267.805 137.119 268.697 137.119Z" fill="white"/>
<path d="M252.01 137.119C252.901 137.119 253.625 136.394 253.625 135.5C253.625 134.606 252.901 133.881 252.01 133.881C251.118 133.881 250.395 134.606 250.395 135.5C250.395 136.394 251.118 137.119 252.01 137.119Z" fill="white"/>
<path d="M235.31 137.119C236.202 137.119 236.925 136.394 236.925 135.5C236.925 134.606 236.202 133.881 235.31 133.881C234.418 133.881 233.695 134.606 233.695 135.5C233.695 136.394 234.418 137.119 235.31 137.119Z" fill="white"/>
<path d="M218.619 137.119C219.511 137.119 220.234 136.394 220.234 135.5C220.234 134.606 219.511 133.881 218.619 133.881C217.727 133.881 217.004 134.606 217.004 135.5C217.004 136.394 217.727 137.119 218.619 137.119Z" fill="white"/>
<path d="M201.927 137.119C202.819 137.119 203.542 136.394 203.542 135.5C203.542 134.606 202.819 133.881 201.927 133.881C201.036 133.881 200.312 134.606 200.312 135.5C200.312 136.394 201.036 137.119 201.927 137.119Z" fill="white"/>
<path d="M185.232 137.119C186.124 137.119 186.847 136.394 186.847 135.5C186.847 134.606 186.124 133.881 185.232 133.881C184.34 133.881 183.617 134.606 183.617 135.5C183.617 136.394 184.34 137.119 185.232 137.119Z" fill="white"/>
<path d="M168.537 137.119C169.429 137.119 170.152 136.394 170.152 135.5C170.152 134.606 169.429 133.881 168.537 133.881C167.645 133.881 166.922 134.606 166.922 135.5C166.922 136.394 167.645 137.119 168.537 137.119Z" fill="white"/>
<path d="M151.849 137.119C152.741 137.119 153.464 136.394 153.464 135.5C153.464 134.606 152.741 133.881 151.849 133.881C150.957 133.881 150.234 134.606 150.234 135.5C150.234 136.394 150.957 137.119 151.849 137.119Z" fill="white"/>
<path d="M135.158 137.119C136.05 137.119 136.773 136.394 136.773 135.5C136.773 134.606 136.05 133.881 135.158 133.881C134.266 133.881 133.543 134.606 133.543 135.5C133.543 136.394 134.266 137.119 135.158 137.119Z" fill="white"/>
<path d="M118.459 137.119C119.351 137.119 120.074 136.394 120.074 135.5C120.074 134.606 119.351 133.881 118.459 133.881C117.567 133.881 116.844 134.606 116.844 135.5C116.844 136.394 117.567 137.119 118.459 137.119Z" fill="white"/>
<path d="M101.771 137.119C102.663 137.119 103.386 136.394 103.386 135.5C103.386 134.606 102.663 133.881 101.771 133.881C100.879 133.881 100.156 134.606 100.156 135.5C100.156 136.394 100.879 137.119 101.771 137.119Z" fill="white"/>
<path d="M85.0759 137.119C85.9679 137.119 86.6909 136.394 86.6909 135.5C86.6909 134.606 85.9679 133.881 85.0759 133.881C84.184 133.881 83.4609 134.606 83.4609 135.5C83.4609 136.394 84.184 137.119 85.0759 137.119Z" fill="white"/>
<path d="M68.3806 137.119C69.2725 137.119 69.9956 136.394 69.9956 135.5C69.9956 134.606 69.2725 133.881 68.3806 133.881C67.4887 133.881 66.7656 134.606 66.7656 135.5C66.7656 136.394 67.4887 137.119 68.3806 137.119Z" fill="white"/>
<path d="M51.6931 137.119C52.585 137.119 53.3081 136.394 53.3081 135.5C53.3081 134.606 52.585 133.881 51.6931 133.881C50.8012 133.881 50.0781 134.606 50.0781 135.5C50.0781 136.394 50.8012 137.119 51.6931 137.119Z" fill="white"/>
<path d="M34.9978 137.119C35.8897 137.119 36.6128 136.394 36.6128 135.5C36.6128 134.606 35.8897 133.881 34.9978 133.881C34.1059 133.881 33.3828 134.606 33.3828 135.5C33.3828 136.394 34.1059 137.119 34.9978 137.119Z" fill="white"/>
<path d="M285.392 137.119C286.284 137.119 287.007 136.394 287.007 135.5C287.007 134.606 286.284 133.881 285.392 133.881C284.5 133.881 283.777 134.606 283.777 135.5C283.777 136.394 284.5 137.119 285.392 137.119Z" fill="white"/>
<path d="M1.61499 153.857C2.50692 153.857 3.22997 153.132 3.22997 152.238C3.22997 151.344 2.50692 150.619 1.61499 150.619C0.723054 150.619 0 151.344 0 152.238C0 153.132 0.723054 153.857 1.61499 153.857Z" fill="white"/>
<path d="M18.3025 153.857C19.1944 153.857 19.9175 153.132 19.9175 152.238C19.9175 151.344 19.1944 150.619 18.3025 150.619C17.4106 150.619 16.6875 151.344 16.6875 152.238C16.6875 153.132 17.4106 153.857 18.3025 153.857Z" fill="white"/>
<path d="M268.697 153.857C269.589 153.857 270.312 153.132 270.312 152.238C270.312 151.344 269.589 150.619 268.697 150.619C267.805 150.619 267.082 151.344 267.082 152.238C267.082 153.132 267.805 153.857 268.697 153.857Z" fill="white"/>
<path d="M252.01 153.857C252.901 153.857 253.625 153.132 253.625 152.238C253.625 151.344 252.901 150.619 252.01 150.619C251.118 150.619 250.395 151.344 250.395 152.238C250.395 153.132 251.118 153.857 252.01 153.857Z" fill="white"/>
<path d="M235.31 153.857C236.202 153.857 236.925 153.132 236.925 152.238C236.925 151.344 236.202 150.619 235.31 150.619C234.418 150.619 233.695 151.344 233.695 152.238C233.695 153.132 234.418 153.857 235.31 153.857Z" fill="white"/>
<path d="M218.619 153.857C219.511 153.857 220.234 153.132 220.234 152.238C220.234 151.344 219.511 150.619 218.619 150.619C217.727 150.619 217.004 151.344 217.004 152.238C217.004 153.132 217.727 153.857 218.619 153.857Z" fill="white"/>
<path d="M201.927 153.857C202.819 153.857 203.542 153.132 203.542 152.238C203.542 151.344 202.819 150.619 201.927 150.619C201.036 150.619 200.312 151.344 200.312 152.238C200.312 153.132 201.036 153.857 201.927 153.857Z" fill="white"/>
<path d="M185.232 153.857C186.124 153.857 186.847 153.132 186.847 152.238C186.847 151.344 186.124 150.619 185.232 150.619C184.34 150.619 183.617 151.344 183.617 152.238C183.617 153.132 184.34 153.857 185.232 153.857Z" fill="white"/>
<path d="M168.537 153.857C169.429 153.857 170.152 153.132 170.152 152.238C170.152 151.344 169.429 150.619 168.537 150.619C167.645 150.619 166.922 151.344 166.922 152.238C166.922 153.132 167.645 153.857 168.537 153.857Z" fill="white"/>
<path d="M151.849 153.857C152.741 153.857 153.464 153.132 153.464 152.238C153.464 151.344 152.741 150.619 151.849 150.619C150.957 150.619 150.234 151.344 150.234 152.238C150.234 153.132 150.957 153.857 151.849 153.857Z" fill="white"/>
<path d="M135.158 153.857C136.05 153.857 136.773 153.132 136.773 152.238C136.773 151.344 136.05 150.619 135.158 150.619C134.266 150.619 133.543 151.344 133.543 152.238C133.543 153.132 134.266 153.857 135.158 153.857Z" fill="white"/>
<path d="M118.459 153.857C119.351 153.857 120.074 153.132 120.074 152.238C120.074 151.344 119.351 150.619 118.459 150.619C117.567 150.619 116.844 151.344 116.844 152.238C116.844 153.132 117.567 153.857 118.459 153.857Z" fill="white"/>
<path d="M101.771 153.857C102.663 153.857 103.386 153.132 103.386 152.238C103.386 151.344 102.663 150.619 101.771 150.619C100.879 150.619 100.156 151.344 100.156 152.238C100.156 153.132 100.879 153.857 101.771 153.857Z" fill="white"/>
<path d="M85.0759 153.857C85.9679 153.857 86.6909 153.132 86.6909 152.238C86.6909 151.344 85.9679 150.619 85.0759 150.619C84.184 150.619 83.4609 151.344 83.4609 152.238C83.4609 153.132 84.184 153.857 85.0759 153.857Z" fill="white"/>
<path d="M68.3806 153.857C69.2725 153.857 69.9956 153.132 69.9956 152.238C69.9956 151.344 69.2725 150.619 68.3806 150.619C67.4887 150.619 66.7656 151.344 66.7656 152.238C66.7656 153.132 67.4887 153.857 68.3806 153.857Z" fill="white"/>
<path d="M51.6931 153.857C52.585 153.857 53.3081 153.132 53.3081 152.238C53.3081 151.344 52.585 150.619 51.6931 150.619C50.8012 150.619 50.0781 151.344 50.0781 152.238C50.0781 153.132 50.8012 153.857 51.6931 153.857Z" fill="white"/>
<path d="M34.9978 153.857C35.8897 153.857 36.6128 153.132 36.6128 152.238C36.6128 151.344 35.8897 150.619 34.9978 150.619C34.1059 150.619 33.3828 151.344 33.3828 152.238C33.3828 153.132 34.1059 153.857 34.9978 153.857Z" fill="white"/>
<path d="M285.392 153.857C286.284 153.857 287.007 153.132 287.007 152.238C287.007 151.344 286.284 150.619 285.392 150.619C284.5 150.619 283.777 151.344 283.777 152.238C283.777 153.132 284.5 153.857 285.392 153.857Z" fill="white"/>
<path d="M1.61499 170.588C2.50692 170.588 3.22997 169.863 3.22997 168.968C3.22997 168.074 2.50692 167.349 1.61499 167.349C0.723054 167.349 0 168.074 0 168.968C0 169.863 0.723054 170.588 1.61499 170.588Z" fill="white"/>
<path d="M18.3025 170.588C19.1944 170.588 19.9175 169.863 19.9175 168.969C19.9175 168.075 19.1944 167.35 18.3025 167.35C17.4106 167.35 16.6875 168.075 16.6875 168.969C16.6875 169.863 17.4106 170.588 18.3025 170.588Z" fill="white"/>
<path d="M268.697 170.588C269.589 170.588 270.312 169.863 270.312 168.969C270.312 168.075 269.589 167.35 268.697 167.35C267.805 167.35 267.082 168.075 267.082 168.969C267.082 169.863 267.805 170.588 268.697 170.588Z" fill="white"/>
<path d="M252.01 170.588C252.901 170.588 253.625 169.863 253.625 168.969C253.625 168.075 252.901 167.35 252.01 167.35C251.118 167.35 250.395 168.075 250.395 168.969C250.395 169.863 251.118 170.588 252.01 170.588Z" fill="white"/>
<path d="M235.31 170.588C236.202 170.588 236.925 169.863 236.925 168.969C236.925 168.075 236.202 167.35 235.31 167.35C234.418 167.35 233.695 168.075 233.695 168.969C233.695 169.863 234.418 170.588 235.31 170.588Z" fill="white"/>
<path d="M218.619 170.588C219.511 170.588 220.234 169.863 220.234 168.969C220.234 168.075 219.511 167.35 218.619 167.35C217.727 167.35 217.004 168.075 217.004 168.969C217.004 169.863 217.727 170.588 218.619 170.588Z" fill="white"/>
<path d="M201.927 170.588C202.819 170.588 203.542 169.863 203.542 168.969C203.542 168.075 202.819 167.35 201.927 167.35C201.036 167.35 200.312 168.075 200.312 168.969C200.312 169.863 201.036 170.588 201.927 170.588Z" fill="white"/>
<path d="M185.232 170.588C186.124 170.588 186.847 169.863 186.847 168.969C186.847 168.075 186.124 167.35 185.232 167.35C184.34 167.35 183.617 168.075 183.617 168.969C183.617 169.863 184.34 170.588 185.232 170.588Z" fill="white"/>
<path d="M168.537 170.588C169.429 170.588 170.152 169.863 170.152 168.969C170.152 168.075 169.429 167.35 168.537 167.35C167.645 167.35 166.922 168.075 166.922 168.969C166.922 169.863 167.645 170.588 168.537 170.588Z" fill="white"/>
<path d="M151.849 170.588C152.741 170.588 153.464 169.863 153.464 168.969C153.464 168.075 152.741 167.35 151.849 167.35C150.957 167.35 150.234 168.075 150.234 168.969C150.234 169.863 150.957 170.588 151.849 170.588Z" fill="white"/>
<path d="M135.158 170.588C136.05 170.588 136.773 169.863 136.773 168.969C136.773 168.075 136.05 167.35 135.158 167.35C134.266 167.35 133.543 168.075 133.543 168.969C133.543 169.863 134.266 170.588 135.158 170.588Z" fill="white"/>
<path d="M118.459 170.588C119.351 170.588 120.074 169.863 120.074 168.969C120.074 168.075 119.351 167.35 118.459 167.35C117.567 167.35 116.844 168.075 116.844 168.969C116.844 169.863 117.567 170.588 118.459 170.588Z" fill="white"/>
<path d="M101.771 170.588C102.663 170.588 103.386 169.863 103.386 168.969C103.386 168.075 102.663 167.35 101.771 167.35C100.879 167.35 100.156 168.075 100.156 168.969C100.156 169.863 100.879 170.588 101.771 170.588Z" fill="white"/>
<path d="M85.0759 170.588C85.9679 170.588 86.6909 169.863 86.6909 168.969C86.6909 168.075 85.9679 167.35 85.0759 167.35C84.184 167.35 83.4609 168.075 83.4609 168.969C83.4609 169.863 84.184 170.588 85.0759 170.588Z" fill="white"/>
<path d="M68.3806 170.588C69.2725 170.588 69.9956 169.863 69.9956 168.969C69.9956 168.075 69.2725 167.35 68.3806 167.35C67.4887 167.35 66.7656 168.075 66.7656 168.969C66.7656 169.863 67.4887 170.588 68.3806 170.588Z" fill="white"/>
<path d="M51.6931 170.588C52.585 170.588 53.3081 169.863 53.3081 168.969C53.3081 168.075 52.585 167.35 51.6931 167.35C50.8012 167.35 50.0781 168.075 50.0781 168.969C50.0781 169.863 50.8012 170.588 51.6931 170.588Z" fill="white"/>
<path d="M34.9978 170.588C35.8897 170.588 36.6128 169.863 36.6128 168.969C36.6128 168.075 35.8897 167.35 34.9978 167.35C34.1059 167.35 33.3828 168.075 33.3828 168.969C33.3828 169.863 34.1059 170.588 34.9978 170.588Z" fill="white"/>
<path d="M285.392 170.588C286.284 170.588 287.007 169.863 287.007 168.968C287.007 168.074 286.284 167.349 285.392 167.349C284.5 167.349 283.777 168.074 283.777 168.968C283.777 169.863 284.5 170.588 285.392 170.588Z" fill="white"/>
<path d="M1.61499 187.325C2.50692 187.325 3.22997 186.6 3.22997 185.706C3.22997 184.812 2.50692 184.087 1.61499 184.087C0.723054 184.087 0 184.812 0 185.706C0 186.6 0.723054 187.325 1.61499 187.325Z" fill="white"/>
<path d="M18.3025 187.325C19.1944 187.325 19.9175 186.6 19.9175 185.706C19.9175 184.812 19.1944 184.087 18.3025 184.087C17.4106 184.087 16.6875 184.812 16.6875 185.706C16.6875 186.6 17.4106 187.325 18.3025 187.325Z" fill="white"/>
<path d="M268.697 187.325C269.589 187.325 270.312 186.6 270.312 185.706C270.312 184.812 269.589 184.087 268.697 184.087C267.805 184.087 267.082 184.812 267.082 185.706C267.082 186.6 267.805 187.325 268.697 187.325Z" fill="white"/>
<path d="M252.01 187.325C252.901 187.325 253.625 186.6 253.625 185.706C253.625 184.812 252.901 184.087 252.01 184.087C251.118 184.087 250.395 184.812 250.395 185.706C250.395 186.6 251.118 187.325 252.01 187.325Z" fill="white"/>
<path d="M235.31 187.325C236.202 187.325 236.925 186.6 236.925 185.706C236.925 184.812 236.202 184.087 235.31 184.087C234.418 184.087 233.695 184.812 233.695 185.706C233.695 186.6 234.418 187.325 235.31 187.325Z" fill="white"/>
<path d="M218.619 187.325C219.511 187.325 220.234 186.6 220.234 185.706C220.234 184.812 219.511 184.087 218.619 184.087C217.727 184.087 217.004 184.812 217.004 185.706C217.004 186.6 217.727 187.325 218.619 187.325Z" fill="white"/>
<path d="M201.927 187.325C202.819 187.325 203.542 186.6 203.542 185.706C203.542 184.812 202.819 184.087 201.927 184.087C201.036 184.087 200.312 184.812 200.312 185.706C200.312 186.6 201.036 187.325 201.927 187.325Z" fill="white"/>
<path d="M185.232 187.325C186.124 187.325 186.847 186.6 186.847 185.706C186.847 184.812 186.124 184.087 185.232 184.087C184.34 184.087 183.617 184.812 183.617 185.706C183.617 186.6 184.34 187.325 185.232 187.325Z" fill="white"/>
<path d="M168.537 187.325C169.429 187.325 170.152 186.6 170.152 185.706C170.152 184.812 169.429 184.087 168.537 184.087C167.645 184.087 166.922 184.812 166.922 185.706C166.922 186.6 167.645 187.325 168.537 187.325Z" fill="white"/>
<path d="M151.849 187.325C152.741 187.325 153.464 186.6 153.464 185.706C153.464 184.812 152.741 184.087 151.849 184.087C150.957 184.087 150.234 184.812 150.234 185.706C150.234 186.6 150.957 187.325 151.849 187.325Z" fill="white"/>
<path d="M135.158 187.325C136.05 187.325 136.773 186.6 136.773 185.706C136.773 184.812 136.05 184.087 135.158 184.087C134.266 184.087 133.543 184.812 133.543 185.706C133.543 186.6 134.266 187.325 135.158 187.325Z" fill="white"/>
<path d="M118.459 187.325C119.351 187.325 120.074 186.6 120.074 185.706C120.074 184.812 119.351 184.087 118.459 184.087C117.567 184.087 116.844 184.812 116.844 185.706C116.844 186.6 117.567 187.325 118.459 187.325Z" fill="white"/>
<path d="M101.771 187.325C102.663 187.325 103.386 186.6 103.386 185.706C103.386 184.812 102.663 184.087 101.771 184.087C100.879 184.087 100.156 184.812 100.156 185.706C100.156 186.6 100.879 187.325 101.771 187.325Z" fill="white"/>
<path d="M85.0759 187.325C85.9679 187.325 86.6909 186.6 86.6909 185.706C86.6909 184.812 85.9679 184.087 85.0759 184.087C84.184 184.087 83.4609 184.812 83.4609 185.706C83.4609 186.6 84.184 187.325 85.0759 187.325Z" fill="white"/>
<path d="M68.3806 187.325C69.2725 187.325 69.9956 186.6 69.9956 185.706C69.9956 184.812 69.2725 184.087 68.3806 184.087C67.4887 184.087 66.7656 184.812 66.7656 185.706C66.7656 186.6 67.4887 187.325 68.3806 187.325Z" fill="white"/>
<path d="M51.6931 187.325C52.585 187.325 53.3081 186.6 53.3081 185.706C53.3081 184.812 52.585 184.087 51.6931 184.087C50.8012 184.087 50.0781 184.812 50.0781 185.706C50.0781 186.6 50.8012 187.325 51.6931 187.325Z" fill="white"/>
<path d="M34.9978 187.325C35.8897 187.325 36.6128 186.6 36.6128 185.706C36.6128 184.812 35.8897 184.087 34.9978 184.087C34.1059 184.087 33.3828 184.812 33.3828 185.706C33.3828 186.6 34.1059 187.325 34.9978 187.325Z" fill="white"/>
<path d="M285.392 187.325C286.284 187.325 287.007 186.6 287.007 185.706C287.007 184.812 286.284 184.087 285.392 184.087C284.5 184.087 283.777 184.812 283.777 185.706C283.777 186.6 284.5 187.325 285.392 187.325Z" fill="white"/>
<path d="M1.61499 204.063C2.50692 204.063 3.22997 203.338 3.22997 202.444C3.22997 201.55 2.50692 200.825 1.61499 200.825C0.723054 200.825 0 201.55 0 202.444C0 203.338 0.723054 204.063 1.61499 204.063Z" fill="white"/>
<path d="M18.3025 204.063C19.1944 204.063 19.9175 203.338 19.9175 202.444C19.9175 201.55 19.1944 200.825 18.3025 200.825C17.4106 200.825 16.6875 201.55 16.6875 202.444C16.6875 203.338 17.4106 204.063 18.3025 204.063Z" fill="white"/>
<path d="M268.697 204.063C269.589 204.063 270.312 203.338 270.312 202.444C270.312 201.55 269.589 200.825 268.697 200.825C267.805 200.825 267.082 201.55 267.082 202.444C267.082 203.338 267.805 204.063 268.697 204.063Z" fill="white"/>
<path d="M252.01 204.063C252.901 204.063 253.625 203.338 253.625 202.444C253.625 201.55 252.901 200.825 252.01 200.825C251.118 200.825 250.395 201.55 250.395 202.444C250.395 203.338 251.118 204.063 252.01 204.063Z" fill="white"/>
<path d="M235.31 204.063C236.202 204.063 236.925 203.338 236.925 202.444C236.925 201.55 236.202 200.825 235.31 200.825C234.418 200.825 233.695 201.55 233.695 202.444C233.695 203.338 234.418 204.063 235.31 204.063Z" fill="white"/>
<path d="M218.619 204.063C219.511 204.063 220.234 203.338 220.234 202.444C220.234 201.55 219.511 200.825 218.619 200.825C217.727 200.825 217.004 201.55 217.004 202.444C217.004 203.338 217.727 204.063 218.619 204.063Z" fill="white"/>
<path d="M201.927 204.063C202.819 204.063 203.542 203.338 203.542 202.444C203.542 201.55 202.819 200.825 201.927 200.825C201.036 200.825 200.312 201.55 200.312 202.444C200.312 203.338 201.036 204.063 201.927 204.063Z" fill="white"/>
<path d="M185.232 204.063C186.124 204.063 186.847 203.338 186.847 202.444C186.847 201.55 186.124 200.825 185.232 200.825C184.34 200.825 183.617 201.55 183.617 202.444C183.617 203.338 184.34 204.063 185.232 204.063Z" fill="white"/>
<path d="M168.537 204.063C169.429 204.063 170.152 203.338 170.152 202.444C170.152 201.55 169.429 200.825 168.537 200.825C167.645 200.825 166.922 201.55 166.922 202.444C166.922 203.338 167.645 204.063 168.537 204.063Z" fill="white"/>
<path d="M151.849 204.063C152.741 204.063 153.464 203.338 153.464 202.444C153.464 201.55 152.741 200.825 151.849 200.825C150.957 200.825 150.234 201.55 150.234 202.444C150.234 203.338 150.957 204.063 151.849 204.063Z" fill="white"/>
<path d="M135.158 204.063C136.05 204.063 136.773 203.338 136.773 202.444C136.773 201.55 136.05 200.825 135.158 200.825C134.266 200.825 133.543 201.55 133.543 202.444C133.543 203.338 134.266 204.063 135.158 204.063Z" fill="white"/>
<path d="M118.459 204.063C119.351 204.063 120.074 203.338 120.074 202.444C120.074 201.55 119.351 200.825 118.459 200.825C117.567 200.825 116.844 201.55 116.844 202.444C116.844 203.338 117.567 204.063 118.459 204.063Z" fill="white"/>
<path d="M101.771 204.063C102.663 204.063 103.386 203.338 103.386 202.444C103.386 201.55 102.663 200.825 101.771 200.825C100.879 200.825 100.156 201.55 100.156 202.444C100.156 203.338 100.879 204.063 101.771 204.063Z" fill="white"/>
<path d="M85.0759 204.063C85.9679 204.063 86.6909 203.338 86.6909 202.444C86.6909 201.55 85.9679 200.825 85.0759 200.825C84.184 200.825 83.4609 201.55 83.4609 202.444C83.4609 203.338 84.184 204.063 85.0759 204.063Z" fill="white"/>
<path d="M68.3806 204.063C69.2725 204.063 69.9956 203.338 69.9956 202.444C69.9956 201.55 69.2725 200.825 68.3806 200.825C67.4887 200.825 66.7656 201.55 66.7656 202.444C66.7656 203.338 67.4887 204.063 68.3806 204.063Z" fill="white"/>
<path d="M51.6931 204.063C52.585 204.063 53.3081 203.338 53.3081 202.444C53.3081 201.55 52.585 200.825 51.6931 200.825C50.8012 200.825 50.0781 201.55 50.0781 202.444C50.0781 203.338 50.8012 204.063 51.6931 204.063Z" fill="white"/>
<path d="M34.9978 204.063C35.8897 204.063 36.6128 203.338 36.6128 202.444C36.6128 201.55 35.8897 200.825 34.9978 200.825C34.1059 200.825 33.3828 201.55 33.3828 202.444C33.3828 203.338 34.1059 204.063 34.9978 204.063Z" fill="white"/>
<path d="M285.392 204.063C286.284 204.063 287.007 203.338 287.007 202.444C287.007 201.55 286.284 200.825 285.392 200.825C284.5 200.825 283.777 201.55 283.777 202.444C283.777 203.338 284.5 204.063 285.392 204.063Z" fill="white"/>
<path d="M1.61499 220.794C2.50692 220.794 3.22997 220.069 3.22997 219.175C3.22997 218.281 2.50692 217.556 1.61499 217.556C0.723054 217.556 0 218.281 0 219.175C0 220.069 0.723054 220.794 1.61499 220.794Z" fill="white"/>
<path d="M18.3025 220.794C19.1944 220.794 19.9175 220.069 19.9175 219.175C19.9175 218.28 19.1944 217.555 18.3025 217.555C17.4106 217.555 16.6875 218.28 16.6875 219.175C16.6875 220.069 17.4106 220.794 18.3025 220.794Z" fill="white"/>
<path d="M268.697 220.794C269.589 220.794 270.312 220.069 270.312 219.175C270.312 218.28 269.589 217.555 268.697 217.555C267.805 217.555 267.082 218.28 267.082 219.175C267.082 220.069 267.805 220.794 268.697 220.794Z" fill="white"/>
<path d="M252.01 220.794C252.901 220.794 253.625 220.069 253.625 219.175C253.625 218.281 252.901 217.556 252.01 217.556C251.118 217.556 250.395 218.281 250.395 219.175C250.395 220.069 251.118 220.794 252.01 220.794Z" fill="white"/>
<path d="M235.31 220.794C236.202 220.794 236.925 220.069 236.925 219.175C236.925 218.28 236.202 217.555 235.31 217.555C234.418 217.555 233.695 218.28 233.695 219.175C233.695 220.069 234.418 220.794 235.31 220.794Z" fill="white"/>
<path d="M218.619 220.794C219.511 220.794 220.234 220.069 220.234 219.175C220.234 218.28 219.511 217.555 218.619 217.555C217.727 217.555 217.004 218.28 217.004 219.175C217.004 220.069 217.727 220.794 218.619 220.794Z" fill="white"/>
<path d="M201.927 220.794C202.819 220.794 203.542 220.069 203.542 219.175C203.542 218.281 202.819 217.556 201.927 217.556C201.036 217.556 200.312 218.281 200.312 219.175C200.312 220.069 201.036 220.794 201.927 220.794Z" fill="white"/>
<path d="M185.232 220.794C186.124 220.794 186.847 220.069 186.847 219.175C186.847 218.28 186.124 217.555 185.232 217.555C184.34 217.555 183.617 218.28 183.617 219.175C183.617 220.069 184.34 220.794 185.232 220.794Z" fill="white"/>
<path d="M168.537 220.794C169.429 220.794 170.152 220.069 170.152 219.175C170.152 218.281 169.429 217.556 168.537 217.556C167.645 217.556 166.922 218.281 166.922 219.175C166.922 220.069 167.645 220.794 168.537 220.794Z" fill="white"/>
<path d="M151.849 220.794C152.741 220.794 153.464 220.069 153.464 219.175C153.464 218.28 152.741 217.555 151.849 217.555C150.957 217.555 150.234 218.28 150.234 219.175C150.234 220.069 150.957 220.794 151.849 220.794Z" fill="white"/>
<path d="M135.158 220.794C136.05 220.794 136.773 220.069 136.773 219.175C136.773 218.28 136.05 217.555 135.158 217.555C134.266 217.555 133.543 218.28 133.543 219.175C133.543 220.069 134.266 220.794 135.158 220.794Z" fill="white"/>
<path d="M118.459 220.794C119.351 220.794 120.074 220.069 120.074 219.175C120.074 218.281 119.351 217.556 118.459 217.556C117.567 217.556 116.844 218.281 116.844 219.175C116.844 220.069 117.567 220.794 118.459 220.794Z" fill="white"/>
<path d="M101.771 220.794C102.663 220.794 103.386 220.069 103.386 219.175C103.386 218.28 102.663 217.555 101.771 217.555C100.879 217.555 100.156 218.28 100.156 219.175C100.156 220.069 100.879 220.794 101.771 220.794Z" fill="white"/>
<path d="M85.0759 220.794C85.9679 220.794 86.6909 220.069 86.6909 219.175C86.6909 218.281 85.9679 217.556 85.0759 217.556C84.184 217.556 83.4609 218.281 83.4609 219.175C83.4609 220.069 84.184 220.794 85.0759 220.794Z" fill="white"/>
<path d="M68.3806 220.794C69.2725 220.794 69.9956 220.069 69.9956 219.175C69.9956 218.281 69.2725 217.556 68.3806 217.556C67.4887 217.556 66.7656 218.281 66.7656 219.175C66.7656 220.069 67.4887 220.794 68.3806 220.794Z" fill="white"/>
<path d="M51.6931 220.794C52.585 220.794 53.3081 220.069 53.3081 219.175C53.3081 218.281 52.585 217.556 51.6931 217.556C50.8012 217.556 50.0781 218.281 50.0781 219.175C50.0781 220.069 50.8012 220.794 51.6931 220.794Z" fill="white"/>
<path d="M34.9978 220.794C35.8897 220.794 36.6128 220.069 36.6128 219.175C36.6128 218.281 35.8897 217.556 34.9978 217.556C34.1059 217.556 33.3828 218.281 33.3828 219.175C33.3828 220.069 34.1059 220.794 34.9978 220.794Z" fill="white"/>
<path d="M285.392 220.794C286.284 220.794 287.007 220.069 287.007 219.175C287.007 218.281 286.284 217.556 285.392 217.556C284.5 217.556 283.777 218.281 283.777 219.175C283.777 220.069 284.5 220.794 285.392 220.794Z" fill="white"/>
<path d="M1.61499 237.532C2.50692 237.532 3.22997 236.807 3.22997 235.913C3.22997 235.018 2.50692 234.293 1.61499 234.293C0.723054 234.293 0 235.018 0 235.913C0 236.807 0.723054 237.532 1.61499 237.532Z" fill="white"/>
<path d="M18.3025 237.531C19.1944 237.531 19.9175 236.807 19.9175 235.912C19.9175 235.018 19.1944 234.293 18.3025 234.293C17.4106 234.293 16.6875 235.018 16.6875 235.912C16.6875 236.807 17.4106 237.531 18.3025 237.531Z" fill="white"/>
<path d="M268.697 237.531C269.589 237.531 270.312 236.807 270.312 235.912C270.312 235.018 269.589 234.293 268.697 234.293C267.805 234.293 267.082 235.018 267.082 235.912C267.082 236.807 267.805 237.531 268.697 237.531Z" fill="white"/>
<path d="M252.01 237.532C252.901 237.532 253.625 236.807 253.625 235.913C253.625 235.018 252.901 234.293 252.01 234.293C251.118 234.293 250.395 235.018 250.395 235.913C250.395 236.807 251.118 237.532 252.01 237.532Z" fill="white"/>
<path d="M235.31 237.531C236.202 237.531 236.925 236.807 236.925 235.912C236.925 235.018 236.202 234.293 235.31 234.293C234.418 234.293 233.695 235.018 233.695 235.912C233.695 236.807 234.418 237.531 235.31 237.531Z" fill="white"/>
<path d="M218.619 237.531C219.511 237.531 220.234 236.807 220.234 235.912C220.234 235.018 219.511 234.293 218.619 234.293C217.727 234.293 217.004 235.018 217.004 235.912C217.004 236.807 217.727 237.531 218.619 237.531Z" fill="white"/>
<path d="M201.927 237.532C202.819 237.532 203.542 236.807 203.542 235.913C203.542 235.018 202.819 234.293 201.927 234.293C201.036 234.293 200.312 235.018 200.312 235.913C200.312 236.807 201.036 237.532 201.927 237.532Z" fill="white"/>
<path d="M185.232 237.531C186.124 237.531 186.847 236.807 186.847 235.912C186.847 235.018 186.124 234.293 185.232 234.293C184.34 234.293 183.617 235.018 183.617 235.912C183.617 236.807 184.34 237.531 185.232 237.531Z" fill="white"/>
<path d="M168.537 237.532C169.429 237.532 170.152 236.807 170.152 235.913C170.152 235.018 169.429 234.293 168.537 234.293C167.645 234.293 166.922 235.018 166.922 235.913C166.922 236.807 167.645 237.532 168.537 237.532Z" fill="white"/>
<path d="M151.849 237.531C152.741 237.531 153.464 236.807 153.464 235.912C153.464 235.018 152.741 234.293 151.849 234.293C150.957 234.293 150.234 235.018 150.234 235.912C150.234 236.807 150.957 237.531 151.849 237.531Z" fill="white"/>
<path d="M135.158 237.531C136.05 237.531 136.773 236.807 136.773 235.912C136.773 235.018 136.05 234.293 135.158 234.293C134.266 234.293 133.543 235.018 133.543 235.912C133.543 236.807 134.266 237.531 135.158 237.531Z" fill="white"/>
<path d="M118.459 237.532C119.351 237.532 120.074 236.807 120.074 235.913C120.074 235.018 119.351 234.293 118.459 234.293C117.567 234.293 116.844 235.018 116.844 235.913C116.844 236.807 117.567 237.532 118.459 237.532Z" fill="white"/>
<path d="M101.771 237.531C102.663 237.531 103.386 236.807 103.386 235.912C103.386 235.018 102.663 234.293 101.771 234.293C100.879 234.293 100.156 235.018 100.156 235.912C100.156 236.807 100.879 237.531 101.771 237.531Z" fill="white"/>
<path d="M85.0759 237.532C85.9679 237.532 86.6909 236.807 86.6909 235.913C86.6909 235.018 85.9679 234.293 85.0759 234.293C84.184 234.293 83.4609 235.018 83.4609 235.913C83.4609 236.807 84.184 237.532 85.0759 237.532Z" fill="white"/>
<path d="M68.3806 237.532C69.2725 237.532 69.9956 236.807 69.9956 235.913C69.9956 235.018 69.2725 234.293 68.3806 234.293C67.4887 234.293 66.7656 235.018 66.7656 235.913C66.7656 236.807 67.4887 237.532 68.3806 237.532Z" fill="white"/>
<path d="M51.6931 237.532C52.585 237.532 53.3081 236.807 53.3081 235.913C53.3081 235.018 52.585 234.293 51.6931 234.293C50.8012 234.293 50.0781 235.018 50.0781 235.913C50.0781 236.807 50.8012 237.532 51.6931 237.532Z" fill="white"/>
<path d="M34.9978 237.532C35.8897 237.532 36.6128 236.807 36.6128 235.913C36.6128 235.018 35.8897 234.293 34.9978 234.293C34.1059 234.293 33.3828 235.018 33.3828 235.913C33.3828 236.807 34.1059 237.532 34.9978 237.532Z" fill="white"/>
<path d="M285.392 237.532C286.284 237.532 287.007 236.807 287.007 235.913C287.007 235.018 286.284 234.293 285.392 234.293C284.5 234.293 283.777 235.018 283.777 235.913C283.777 236.807 284.5 237.532 285.392 237.532Z" fill="white"/>
<path d="M1.61499 254.269C2.50692 254.269 3.22997 253.545 3.22997 252.65C3.22997 251.756 2.50692 251.031 1.61499 251.031C0.723054 251.031 0 251.756 0 252.65C0 253.545 0.723054 254.269 1.61499 254.269Z" fill="white"/>
<path d="M18.3025 254.269C19.1944 254.269 19.9175 253.545 19.9175 252.65C19.9175 251.756 19.1944 251.031 18.3025 251.031C17.4106 251.031 16.6875 251.756 16.6875 252.65C16.6875 253.545 17.4106 254.269 18.3025 254.269Z" fill="white"/>
<path d="M268.697 254.269C269.589 254.269 270.312 253.545 270.312 252.65C270.312 251.756 269.589 251.031 268.697 251.031C267.805 251.031 267.082 251.756 267.082 252.65C267.082 253.545 267.805 254.269 268.697 254.269Z" fill="white"/>
<path d="M252.01 254.269C252.901 254.269 253.625 253.545 253.625 252.65C253.625 251.756 252.901 251.031 252.01 251.031C251.118 251.031 250.395 251.756 250.395 252.65C250.395 253.545 251.118 254.269 252.01 254.269Z" fill="white"/>
<path d="M235.31 254.269C236.202 254.269 236.925 253.545 236.925 252.65C236.925 251.756 236.202 251.031 235.31 251.031C234.418 251.031 233.695 251.756 233.695 252.65C233.695 253.545 234.418 254.269 235.31 254.269Z" fill="white"/>
<path d="M218.619 254.269C219.511 254.269 220.234 253.545 220.234 252.65C220.234 251.756 219.511 251.031 218.619 251.031C217.727 251.031 217.004 251.756 217.004 252.65C217.004 253.545 217.727 254.269 218.619 254.269Z" fill="white"/>
<path d="M201.927 254.269C202.819 254.269 203.542 253.545 203.542 252.65C203.542 251.756 202.819 251.031 201.927 251.031C201.036 251.031 200.312 251.756 200.312 252.65C200.312 253.545 201.036 254.269 201.927 254.269Z" fill="white"/>
<path d="M185.232 254.269C186.124 254.269 186.847 253.545 186.847 252.65C186.847 251.756 186.124 251.031 185.232 251.031C184.34 251.031 183.617 251.756 183.617 252.65C183.617 253.545 184.34 254.269 185.232 254.269Z" fill="white"/>
<path d="M168.537 254.269C169.429 254.269 170.152 253.545 170.152 252.65C170.152 251.756 169.429 251.031 168.537 251.031C167.645 251.031 166.922 251.756 166.922 252.65C166.922 253.545 167.645 254.269 168.537 254.269Z" fill="white"/>
<path d="M151.849 254.269C152.741 254.269 153.464 253.545 153.464 252.65C153.464 251.756 152.741 251.031 151.849 251.031C150.957 251.031 150.234 251.756 150.234 252.65C150.234 253.545 150.957 254.269 151.849 254.269Z" fill="white"/>
<path d="M135.158 254.269C136.05 254.269 136.773 253.545 136.773 252.65C136.773 251.756 136.05 251.031 135.158 251.031C134.266 251.031 133.543 251.756 133.543 252.65C133.543 253.545 134.266 254.269 135.158 254.269Z" fill="white"/>
<path d="M118.459 254.269C119.351 254.269 120.074 253.545 120.074 252.65C120.074 251.756 119.351 251.031 118.459 251.031C117.567 251.031 116.844 251.756 116.844 252.65C116.844 253.545 117.567 254.269 118.459 254.269Z" fill="white"/>
<path d="M101.771 254.269C102.663 254.269 103.386 253.545 103.386 252.65C103.386 251.756 102.663 251.031 101.771 251.031C100.879 251.031 100.156 251.756 100.156 252.65C100.156 253.545 100.879 254.269 101.771 254.269Z" fill="white"/>
<path d="M85.0759 254.269C85.9679 254.269 86.6909 253.545 86.6909 252.65C86.6909 251.756 85.9679 251.031 85.0759 251.031C84.184 251.031 83.4609 251.756 83.4609 252.65C83.4609 253.545 84.184 254.269 85.0759 254.269Z" fill="white"/>
<path d="M68.3806 254.269C69.2725 254.269 69.9956 253.545 69.9956 252.65C69.9956 251.756 69.2725 251.031 68.3806 251.031C67.4887 251.031 66.7656 251.756 66.7656 252.65C66.7656 253.545 67.4887 254.269 68.3806 254.269Z" fill="white"/>
<path d="M51.6931 254.269C52.585 254.269 53.3081 253.545 53.3081 252.65C53.3081 251.756 52.585 251.031 51.6931 251.031C50.8012 251.031 50.0781 251.756 50.0781 252.65C50.0781 253.545 50.8012 254.269 51.6931 254.269Z" fill="white"/>
<path d="M34.9978 254.269C35.8897 254.269 36.6128 253.545 36.6128 252.65C36.6128 251.756 35.8897 251.031 34.9978 251.031C34.1059 251.031 33.3828 251.756 33.3828 252.65C33.3828 253.545 34.1059 254.269 34.9978 254.269Z" fill="white"/>
<path d="M285.392 254.269C286.284 254.269 287.007 253.545 287.007 252.65C287.007 251.756 286.284 251.031 285.392 251.031C284.5 251.031 283.777 251.756 283.777 252.65C283.777 253.545 284.5 254.269 285.392 254.269Z" fill="white"/>
<path d="M1.61499 271C2.50692 271 3.22997 270.275 3.22997 269.381C3.22997 268.487 2.50692 267.762 1.61499 267.762C0.723054 267.762 0 268.487 0 269.381C0 270.275 0.723054 271 1.61499 271Z" fill="white"/>
<path d="M18.3025 271C19.1944 271 19.9175 270.275 19.9175 269.381C19.9175 268.487 19.1944 267.762 18.3025 267.762C17.4106 267.762 16.6875 268.487 16.6875 269.381C16.6875 270.275 17.4106 271 18.3025 271Z" fill="white"/>
<path d="M268.697 271C269.589 271 270.312 270.275 270.312 269.381C270.312 268.487 269.589 267.762 268.697 267.762C267.805 267.762 267.082 268.487 267.082 269.381C267.082 270.275 267.805 271 268.697 271Z" fill="white"/>
<path d="M252.01 271C252.901 271 253.625 270.275 253.625 269.381C253.625 268.487 252.901 267.762 252.01 267.762C251.118 267.762 250.395 268.487 250.395 269.381C250.395 270.275 251.118 271 252.01 271Z" fill="white"/>
<path d="M235.31 271C236.202 271 236.925 270.275 236.925 269.381C236.925 268.487 236.202 267.762 235.31 267.762C234.418 267.762 233.695 268.487 233.695 269.381C233.695 270.275 234.418 271 235.31 271Z" fill="white"/>
<path d="M218.619 271C219.511 271 220.234 270.275 220.234 269.381C220.234 268.487 219.511 267.762 218.619 267.762C217.727 267.762 217.004 268.487 217.004 269.381C217.004 270.275 217.727 271 218.619 271Z" fill="white"/>
<path d="M201.927 271C202.819 271 203.542 270.275 203.542 269.381C203.542 268.487 202.819 267.762 201.927 267.762C201.036 267.762 200.312 268.487 200.312 269.381C200.312 270.275 201.036 271 201.927 271Z" fill="white"/>
<path d="M185.232 271C186.124 271 186.847 270.275 186.847 269.381C186.847 268.487 186.124 267.762 185.232 267.762C184.34 267.762 183.617 268.487 183.617 269.381C183.617 270.275 184.34 271 185.232 271Z" fill="white"/>
<path d="M168.537 271C169.429 271 170.152 270.275 170.152 269.381C170.152 268.487 169.429 267.762 168.537 267.762C167.645 267.762 166.922 268.487 166.922 269.381C166.922 270.275 167.645 271 168.537 271Z" fill="white"/>
<path d="M151.849 271C152.741 271 153.464 270.275 153.464 269.381C153.464 268.487 152.741 267.762 151.849 267.762C150.957 267.762 150.234 268.487 150.234 269.381C150.234 270.275 150.957 271 151.849 271Z" fill="white"/>
<path d="M135.158 271C136.05 271 136.773 270.275 136.773 269.381C136.773 268.487 136.05 267.762 135.158 267.762C134.266 267.762 133.543 268.487 133.543 269.381C133.543 270.275 134.266 271 135.158 271Z" fill="white"/>
<path d="M118.459 271C119.351 271 120.074 270.275 120.074 269.381C120.074 268.487 119.351 267.762 118.459 267.762C117.567 267.762 116.844 268.487 116.844 269.381C116.844 270.275 117.567 271 118.459 271Z" fill="white"/>
<path d="M101.771 271C102.663 271 103.386 270.275 103.386 269.381C103.386 268.487 102.663 267.762 101.771 267.762C100.879 267.762 100.156 268.487 100.156 269.381C100.156 270.275 100.879 271 101.771 271Z" fill="white"/>
<path d="M85.0759 271C85.9679 271 86.6909 270.275 86.6909 269.381C86.6909 268.487 85.9679 267.762 85.0759 267.762C84.184 267.762 83.4609 268.487 83.4609 269.381C83.4609 270.275 84.184 271 85.0759 271Z" fill="white"/>
<path d="M68.3806 271C69.2725 271 69.9956 270.275 69.9956 269.381C69.9956 268.487 69.2725 267.762 68.3806 267.762C67.4887 267.762 66.7656 268.487 66.7656 269.381C66.7656 270.275 67.4887 271 68.3806 271Z" fill="white"/>
<path d="M51.6931 271C52.585 271 53.3081 270.275 53.3081 269.381C53.3081 268.487 52.585 267.762 51.6931 267.762C50.8012 267.762 50.0781 268.487 50.0781 269.381C50.0781 270.275 50.8012 271 51.6931 271Z" fill="white"/>
<path d="M34.9978 271C35.8897 271 36.6128 270.275 36.6128 269.381C36.6128 268.487 35.8897 267.762 34.9978 267.762C34.1059 267.762 33.3828 268.487 33.3828 269.381C33.3828 270.275 34.1059 271 34.9978 271Z" fill="white"/>
<path d="M285.392 271C286.284 271 287.007 270.275 287.007 269.381C287.007 268.487 286.284 267.762 285.392 267.762C284.5 267.762 283.777 268.487 283.777 269.381C283.777 270.275 284.5 271 285.392 271Z" fill="white"/>
</g>
<defs>
<clipPath id="clip0_1_85">
<rect width="287" height="271" fill="white"/>
</clipPath>
</defs>
</svg>
