<svg width="31" height="27" viewBox="0 0 31 27" fill="none" xmlns="http://www.w3.org/2000/svg">
<path d="M13.6438 12.7579C14.653 12.7695 15.6481 12.5202 16.5325 12.034C17.417 11.5478 18.1609 10.8413 18.692 9.98304C19.223 9.12478 19.5234 8.14386 19.5637 7.13539C19.6041 6.12692 19.3831 5.12512 18.9224 4.22715C18.4616 3.32918 17.7766 2.56554 16.9338 2.01022C16.091 1.45489 15.1192 1.1267 14.1123 1.05757C13.1053 0.988452 12.0976 1.18076 11.1869 1.61572C10.2761 2.05067 9.4932 2.71354 8.91406 3.54013" stroke="black" stroke-width="0.86532" stroke-miterlimit="10"/>
<path d="M0.794922 17.1216C1.50551 17.6109 2.30677 17.9531 3.15155 18.1282C3.99632 18.3034 4.86756 18.3079 5.71409 18.1414C6.56062 17.975 7.36532 17.641 8.0809 17.159C8.79649 16.6771 9.40845 16.057 9.8809 15.3351" stroke="black" stroke-width="0.86532" stroke-miterlimit="10"/>
<path d="M17.8984 3.26172C24.5977 3.26172 30.023 7.50085 30.023 14.2001V18.4027" stroke="black" stroke-width="0.86532" stroke-miterlimit="10"/>
<path d="M13.643 1.1095H11.4466C9.50476 1.1095 7.64251 1.8808 6.26945 3.25386C4.89639 4.62691 4.125 6.48925 4.125 8.43105V23.6233H7.30995V17.5317" stroke="black" stroke-width="0.86532" stroke-miterlimit="10"/>
<path d="M27.906 12.8239V26.0026H22.5832V20.548C20.1151 21.1045 17.5541 21.1045 15.086 20.548V26.0026H9.75586V12.8239" stroke="black" stroke-width="0.86532" stroke-miterlimit="10"/>
<path d="M14.9922 24.7068H17.1667V20.9362" stroke="black" stroke-width="0.86532" stroke-miterlimit="10"/>
<path d="M22.6725 24.7068H20.498V20.9362" stroke="black" stroke-width="0.86532" stroke-miterlimit="10"/>
<path d="M6.81926 10.5835C6.94057 10.5835 7.0389 10.4851 7.0389 10.3638C7.0389 10.2425 6.94057 10.1442 6.81926 10.1442C6.69795 10.1442 6.59961 10.2425 6.59961 10.3638C6.59961 10.4851 6.69795 10.5835 6.81926 10.5835Z" stroke="black" stroke-width="0.86532" stroke-miterlimit="10"/>
</svg>
