<svg width="93" height="117" viewBox="0 0 93 117" fill="none" xmlns="http://www.w3.org/2000/svg">
<path d="M0 116.327L93 116.327C93 110.534 81.7684 110.534 81.7684 104.729C81.7684 98.9234 93 98.9277 93 93.1266C93 87.3256 81.7684 87.3299 81.7684 81.5288C81.7684 75.7278 93 75.7277 93 69.9267C93 64.1256 81.7684 64.1256 81.7684 58.3288C81.7684 52.5321 93 52.5277 93 46.731C93 40.9343 81.7684 40.9256 81.7684 35.1288C81.7684 29.3321 93 29.3277 93 23.5267C93 17.7256 81.7684 17.7256 81.7684 11.9245C81.7684 6.12339 93 6.12775 93 0.32666L0 0.32666L0 116.327Z" fill="black"/>
</svg>
