<svg width="687" height="117" viewBox="0 0 687 117" fill="none" xmlns="http://www.w3.org/2000/svg">
<path d="M686.997 9.35638C687.002 10.5944 686.64 11.8063 685.956 12.8384C685.273 13.8706 684.298 14.6765 683.155 15.1542C682.013 15.6319 680.755 15.7598 679.54 15.5217C678.325 15.2836 677.208 14.6902 676.33 13.8168C675.453 12.9433 674.854 11.829 674.611 10.6152C674.367 9.40131 674.489 8.14247 674.962 6.99811C675.434 5.85374 676.236 4.87534 677.265 4.18692C678.294 3.49849 679.504 3.13102 680.742 3.13101C681.569 3.10363 682.392 3.24572 683.161 3.54851C683.93 3.85131 684.63 4.30841 685.215 4.89164C685.801 5.47488 686.262 6.17187 686.568 6.93973C686.874 7.70759 687.02 8.53003 686.997 9.35638ZM684.167 12.7615C685.016 11.8288 685.486 10.6129 685.486 9.35166C685.486 8.0904 685.016 6.87452 684.167 5.94185C683.258 5.07517 682.05 4.5917 680.794 4.5917C679.538 4.5917 678.331 5.07517 677.422 5.94185C676.567 6.87153 676.092 8.08854 676.092 9.35166C676.092 10.6148 676.567 11.8318 677.422 12.7615C678.331 13.6282 679.538 14.1117 680.794 14.1117C682.05 14.1117 683.258 13.6282 684.167 12.7615ZM682.223 12.3371L682.016 11.0071C681.893 10.2242 681.629 9.94119 680.761 9.94119H679.714V12.3371H678.28V5.92297H681.431C682.827 5.92297 683.582 6.65872 683.582 7.71515C683.574 8.12312 683.423 8.51545 683.156 8.82391C682.889 9.13237 682.522 9.33744 682.12 9.40354C682.94 9.56389 683.252 10.0355 683.421 10.8939L683.704 12.3371H682.223ZM679.714 7.14923V9.03571H681.139C681.865 9.03571 682.299 8.65842 682.299 8.09247C682.299 7.52653 681.893 7.14923 681.11 7.14923H679.714Z" fill="black"/>
<path d="M40.8486 3.23779H0.996094V113.335H16.6503V79.1693H40.992C68.2433 79.1693 85.1883 64.0546 85.1883 39.6984C85.0244 16.5211 68.8785 3.23779 40.8486 3.23779ZM69.6776 42.0981C69.6776 58.076 59.4328 66.5176 39.8446 66.5176H16.6503V18.0999H39.5577C60.1089 18.121 69.6776 25.7414 69.6776 42.0981Z" fill="black"/>
<path d="M347.303 68.2601C346.09 77.0879 342.384 85.353 336.647 92.0263C331.171 98.1252 323.209 101.077 312.3 101.077C289.743 101.077 276.264 85.0808 276.264 58.2977C276.264 33.099 291.386 15.4969 313.037 15.4969C323.399 15.4969 330.876 18.1666 335.909 23.6577C341.396 29.939 345.13 37.6341 346.714 45.9262L346.903 46.7945L362.931 42.1932L362.741 41.3901C355.96 13.9342 339.237 0 313.037 0C278.244 0 260.047 29.3225 260.047 58.2977C260.047 86.5133 273.779 116.574 312.3 116.574C347.114 116.574 359.351 92.048 363.5 71.494L363.668 70.6257L347.43 67.3918L347.303 68.2601Z" fill="black"/>
<path d="M441.806 51.2134H385.913V3.23779H370.145V113.335H385.913V63.8651H441.806V113.335H457.575V3.23779H441.806V51.2134Z" fill="black"/>
<path d="M486.722 3.23779H470.531V113.335H486.722V3.23779Z" fill="black"/>
<path d="M202.921 3.23779L159.668 113.335H176.264L189.167 79.2956H233.52L246.444 113.335H263.289L220.036 3.23779H202.921ZM211.385 19.5314L215.534 31.8462L229.018 66.9385H193.939L207.195 31.9515L211.385 19.5314Z" fill="black"/>
<path d="M107.17 95.5699C95.2566 88.6553 93.9305 72.5426 102.055 62.32C102.624 61.7011 103.192 61.1035 103.802 60.5059C106.761 64.6177 110.701 67.9003 115.253 70.0456C126.24 74.9541 140.006 76.0852 149.183 66.2681C156.508 58.073 152.825 45.3322 144.174 39.9969C134.702 33.4878 121.462 33.4878 111.359 37.7561H111.254C111.378 34.8024 112.098 31.9059 113.369 29.2449C114.64 26.584 116.434 24.2149 118.642 22.2836C131.271 10.3324 152.909 15.1769 161.855 29.2622L175.852 18.8476C170.805 12.6282 164.437 7.64539 157.224 4.27143C150.995 1.39996 144.222 -0.0572589 137.38 0.00172151C130.537 0.060702 123.79 1.6344 117.61 4.61284C105.907 10.7378 97.1088 22.9237 96.5615 36.6249C96.4988 39.8247 96.8169 43.0206 97.5087 46.1432C70.6506 68.5517 79.028 109.826 118.978 115.994C133.249 118.405 148.215 113.091 159.181 103.936L147.815 90.7254C142.505 95.9464 135.648 99.2496 128.302 100.125C120.955 101.001 113.529 99.4 107.17 95.5699ZM132.113 50.0915C134.828 50.8171 140.532 53.9115 138.427 56.8566C137.317 57.9086 135.926 58.6062 134.428 58.8627C130.954 59.4818 127.381 59.1737 124.059 57.9689C120.738 56.7641 117.783 54.7039 115.484 51.9907C120.615 49.3288 126.527 48.6536 132.113 50.0915Z" fill="black"/>
<path d="M626.566 15.5115C642.105 15.5115 651.793 20.9989 659.955 34.4796L660.442 35.2573L674.54 24.4555L674.073 23.7641C662.816 7.60452 648.147 0 627.923 0C600.258 0 587.878 16.354 587.878 32.5569C587.878 56.0617 609.246 60.1448 626.418 63.4286C641.829 66.1722 657.75 69.0023 657.75 82.7207C657.75 93.7818 648.507 100.911 634.198 100.911C618.362 100.911 607.466 95.1429 597.778 81.5974L597.248 80.8844L583.871 92.1615L584.295 92.8097C594.64 108.3 611.472 116.574 633.053 116.574C657.559 116.574 673.331 103.374 673.331 82.9368C673.331 58.719 650.627 54.6143 633.965 51.5898C617.005 48.414 603.459 45.9079 603.459 32.9241C603.459 22.3599 612.532 15.5115 626.566 15.5115Z" fill="black"/>
<path d="M529.98 22.1379C540.941 10.8035 561.734 12.6316 570.858 25.407L583.864 13.6855C578.979 8.80087 573.114 5.07876 566.682 2.78125C552.799 -2.42353 532.507 -0.875031 520.46 12.1584C515.938 16.6234 512.671 22.2636 511.002 28.4833C509.334 34.7031 509.327 41.2715 510.982 47.495C508.56 49.6389 506.305 51.9761 504.239 54.4848C500.193 59.8502 497.608 66.2291 496.75 72.9652C495.891 79.7013 496.79 86.5515 499.354 92.8109C505.805 107.866 520.815 114.619 534.198 116.232C548.352 118.082 562.924 112.254 573.425 102.683L561.818 89.9075C556.731 95.3653 550.054 98.9649 542.802 100.16C535.549 101.356 528.116 100.082 521.63 96.5318C509.375 90.0796 507.329 73.777 515.074 63.0664C515.805 62.2061 516.577 61.3458 517.371 60.4855C521.28 65.5002 526.512 69.2454 532.437 71.2713C538.363 73.2972 544.73 73.5175 550.774 71.9059C573.843 64.6794 566.766 38.7415 545.116 35.795C537.496 34.5833 529.698 35.8384 522.799 39.3868C522.799 38.8491 522.799 38.2899 522.799 37.7307C523.166 31.7774 525.737 26.1963 529.98 22.1379ZM543.196 49.022C546.244 49.2586 551.317 51.5599 552.256 54.2483C552.446 54.6705 552.51 55.1413 552.439 55.6009C552.369 56.0605 552.167 56.4881 551.859 56.8292C547.788 61.1307 539.646 60.0768 534.198 57.7971C531.517 56.65 529.186 54.7772 527.454 52.3772C532.198 49.501 537.739 48.3427 543.196 49.0866V49.022Z" fill="black"/>
</svg>
