<svg width="93" height="117" viewBox="0 0 93 117" fill="none" xmlns="http://www.w3.org/2000/svg">
<path d="M93 0.326668L2.51165e-06 0.32666C2.00526e-06 6.11906 11.2316 6.11905 11.2316 11.9245C11.2316 17.7299 9.90585e-07 17.7256 4.83438e-07 23.5267C-2.3709e-08 29.3278 11.2316 29.3234 11.2316 35.1245C11.2316 40.9256 -1.03762e-06 40.9256 -1.54477e-06 46.7267C-2.05192e-06 52.5277 11.2316 52.5277 11.2316 58.3245C11.2316 64.1212 -3.06583e-06 64.1256 -3.5726e-06 69.9223C-4.07937e-06 75.7191 11.2316 75.7278 11.2316 81.5245C11.2316 87.3212 -5.09404e-06 87.3256 -5.60119e-06 93.1267C-6.10833e-06 98.9277 11.2316 98.9278 11.2316 104.729C11.2316 110.53 -7.12225e-06 110.526 -7.62939e-06 116.327L93 116.327L93 0.326668Z" fill="black"/>
</svg>
