<svg width="158" height="97" viewBox="0 0 158 97" fill="none" xmlns="http://www.w3.org/2000/svg">
<path d="M155.116 14.1299H126.412V31.3742H155.116V14.1299Z" stroke="white" stroke-width="3.73975" stroke-miterlimit="10"/>
<path d="M78.8225 2.5835H2.59863V45.94L4.9814 46.9716C15.1958 51.3704 24.3287 57.9425 31.7445 66.2303C39.1071 74.4602 44.5595 84.2157 47.7114 94.7989H110.093C113.245 84.2157 118.698 74.4602 126.06 66.2303C133.478 57.9451 142.611 51.3735 152.823 46.9716L155.218 45.94V2.5835H78.8225Z" stroke="white" stroke-width="3.73975" stroke-miterlimit="10"/>
<path d="M2.55998 31.3726L31.2637 31.3726L31.2637 14.1282L2.55998 14.1282L2.55998 31.3726Z" stroke="white" stroke-width="3.73975" stroke-miterlimit="10"/>
<path d="M2.43359 39.7988L2.53187 47.1682C5.45218 57.4979 10.946 66.9175 18.4988 74.5454C36.9223 93.239 46.7481 94.8357 46.7481 94.8357H66.7313" stroke="white" stroke-width="3.73975" stroke-miterlimit="10"/>
<path d="M155.076 39.7988L154.99 47.1682C152.065 57.4958 146.572 66.9143 139.023 74.5454C120.6 93.239 110.774 94.8357 110.774 94.8357H90.8154" stroke="white" stroke-width="3.73975" stroke-miterlimit="10"/>
</svg>
