<svg width="20" height="19" viewBox="0 0 20 19" fill="none" xmlns="http://www.w3.org/2000/svg">
<path d="M13.5392 18.9917H5.50652C4.04655 18.9903 2.64681 18.4113 1.61445 17.3819C0.5821 16.3524 0.00146657 14.9566 0 13.5008V5.49092C0.00146657 4.03508 0.5821 2.63929 1.61445 1.60986C2.64681 0.580434 4.04655 0.00146241 5.50652 0H13.5392C14.9991 0.00146241 16.3989 0.580434 17.4313 1.60986C18.4636 2.63929 19.0442 4.03508 19.0457 5.49092V13.5008C19.0442 14.9566 18.4636 16.3524 17.4313 17.3819C16.3989 18.4113 14.9991 18.9903 13.5392 18.9917ZM5.50652 1.90304C4.55152 1.90304 3.63563 2.28134 2.96034 2.95472C2.28505 3.62809 1.90568 4.54138 1.90568 5.49368V13.5036C1.90568 14.4559 2.28505 15.3692 2.96034 16.0425C3.63563 16.7159 4.55152 17.0942 5.50652 17.0942H13.5392C14.4942 17.0942 15.4101 16.7159 16.0853 16.0425C16.7606 15.3692 17.14 14.4559 17.14 13.5036V5.49368C17.14 4.54138 16.7606 3.62809 16.0853 2.95472C15.4101 2.28134 14.4942 1.90304 13.5392 1.90304H5.50652Z" fill="black"/>
<path d="M9.51764 14.302C8.23913 14.3005 7.01341 13.7934 6.10936 12.8919C5.20531 11.9904 4.69678 10.7682 4.69531 9.49326C4.69678 8.21836 5.20531 6.9961 6.10936 6.09461C7.01341 5.19313 8.23913 4.68603 9.51764 4.68457C10.7962 4.68603 12.0219 5.19313 12.926 6.09461C13.83 6.9961 14.3385 8.21836 14.34 9.49326C14.3385 10.7682 13.83 11.9904 12.926 12.8919C12.0219 13.7934 10.7962 14.3005 9.51764 14.302ZM9.51764 6.29207C8.66374 6.29353 7.84523 6.63243 7.24142 7.23452C6.63762 7.83662 6.29774 8.65282 6.29628 9.50431C6.29774 10.3556 6.63771 11.1715 7.24159 11.7731C7.84548 12.3748 8.66399 12.7131 9.51764 12.7138C10.3713 12.7131 11.1898 12.3748 11.7937 11.7731C12.3976 11.1715 12.7375 10.3556 12.739 9.50431C12.7397 9.08175 12.657 8.66319 12.4955 8.27251C12.334 7.88184 12.0969 7.5267 11.7978 7.22739C11.4987 6.92808 11.1433 6.69045 10.7521 6.52807C10.3609 6.36569 9.94141 6.28174 9.51764 6.28101V6.29207Z" fill="black"/>
<path d="M14.4371 5.56552C15.0582 5.56552 15.5616 5.06346 15.5616 4.44414C15.5616 3.82481 15.0582 3.32275 14.4371 3.32275C13.816 3.32275 13.3125 3.82481 13.3125 4.44414C13.3125 5.06346 13.816 5.56552 14.4371 5.56552Z" fill="black"/>
</svg>
