<svg width="55" height="51" viewBox="0 0 55 51" fill="none" xmlns="http://www.w3.org/2000/svg">
<path d="M26.5586 9.18809L27.4837 11.6215L28.4256 9.19459C30.0603 4.98286 33.7401 1 39.9126 1C48.6685 1 53.9972 8.54628 53.9972 16.0138L53.9972 16.1287L54.4972 16.1287L54.4998 16.1841L53.9975 16.1965C54.0194 17.0835 53.9749 21.9516 50.6222 28.3899C47.2954 34.7785 40.678 42.7782 27.4968 49.9802C16.3198 43.882 8.58011 36.6032 4.30172 28.2814L4.30105 28.2801C1.09151 22.0597 0.971355 17.3788 1.00353 16.1697L1.00388 16.1564L1.00388 16.1431L1.00388 16.0282L1.00388 16.0264C0.990322 8.54591 6.32544 1 15.0742 1C21.2161 1 24.9622 4.98856 26.5586 9.18809Z" stroke="white" stroke-width="2"/>
</svg>
