<svg width="206" height="34" viewBox="0 0 206 34" fill="none" xmlns="http://www.w3.org/2000/svg">
<path d="M205.225 4.97457C205.229 5.79156 204.998 6.59127 204.563 7.27237C204.127 7.95348 203.507 8.48531 202.78 8.80052C202.052 9.11574 201.251 9.20014 200.478 9.04302C199.704 8.8859 198.993 8.49435 198.434 7.91795C197.876 7.34156 197.495 6.60627 197.34 5.80524C197.184 5.00421 197.262 4.17351 197.563 3.41834C197.864 2.66318 198.374 2.01753 199.029 1.56324C199.685 1.10895 200.455 0.866458 201.243 0.86645C201.769 0.848383 202.293 0.942145 202.783 1.14196C203.273 1.34178 203.718 1.64342 204.091 2.02829C204.464 2.41316 204.757 2.87311 204.952 3.37982C205.147 3.88653 205.24 4.42926 205.225 4.97457ZM203.423 7.22158C203.964 6.60611 204.264 5.80376 204.264 4.97145C204.264 4.13915 203.964 3.33679 203.423 2.72132C202.845 2.1494 202.076 1.83036 201.276 1.83036C200.477 1.83036 199.708 2.1494 199.129 2.72132C198.585 3.33481 198.283 4.13792 198.283 4.97145C198.283 5.80498 198.585 6.60809 199.129 7.22158C199.708 7.7935 200.477 8.11258 201.276 8.11258C202.076 8.11258 202.845 7.7935 203.423 7.22158ZM202.186 6.94151L202.054 6.06384C201.976 5.54721 201.808 5.36048 201.255 5.36048H200.589V6.94151H199.676V2.70886H201.682C202.571 2.70886 203.051 3.19438 203.051 3.89152C203.046 4.16073 202.95 4.41963 202.78 4.62319C202.61 4.82674 202.377 4.96207 202.12 5.00568C202.643 5.1115 202.841 5.42273 202.949 5.98915L203.129 6.94151H202.186ZM200.589 3.51807V4.76296H201.496C201.958 4.76296 202.234 4.51398 202.234 4.14051C202.234 3.76705 201.976 3.51807 201.478 3.51807H200.589Z" fill="black"/>
<path d="M11.9269 0.716797H0.246094V33.2706H4.83434V23.1684H11.9689C19.9563 23.1684 24.9229 18.6992 24.9229 11.4975C24.8749 4.64442 20.1425 0.716797 11.9269 0.716797ZM20.3767 12.2071C20.3767 16.9314 17.3739 19.4275 11.6326 19.4275H4.83434V5.11125H11.5485C17.5721 5.11748 20.3767 7.3707 20.3767 12.2071Z" fill="black"/>
<path d="M100.24 19.8513C99.8944 22.3829 98.8376 24.7532 97.2015 26.667C95.6401 28.4161 93.37 29.2626 90.2591 29.2626C83.8272 29.2626 79.9837 24.6752 79.9837 16.9942C79.9837 9.76765 84.2956 4.71965 90.4693 4.71965C93.424 4.71965 95.556 5.48526 96.9914 7.06005C98.5559 8.8614 99.6205 11.0682 100.072 13.4463L100.126 13.6953L104.696 12.3757L104.642 12.1454C102.709 4.27149 97.9402 0.275391 90.4693 0.275391C80.5482 0.275391 75.3594 8.6846 75.3594 16.9942C75.3594 25.086 79.275 33.7069 90.2591 33.7069C100.186 33.7069 103.676 26.6732 104.859 20.7787L104.907 20.5297L100.276 19.6023L100.24 19.8513Z" fill="black"/>
<path d="M128.644 14.9023H112.381V0.716797H107.793V33.2706H112.381V18.6432H128.644V33.2706H133.232V0.716797H128.644V14.9023Z" fill="black"/>
<path d="M142.129 0.716797H137.547V33.2706H142.129V0.716797Z" fill="black"/>
<path d="M59.213 0.716797L46.6914 33.2706H51.4958L55.2313 23.2057H68.0711L71.8126 33.2706H76.6891L64.1675 0.716797H59.213ZM61.6632 5.53451L62.8643 9.17579L66.7679 19.5519H56.6126L60.4501 9.20691L61.6632 5.53451Z" fill="black"/>
<path d="M31.4627 27.874C28.0635 25.8573 27.6852 21.1578 30.0033 18.1763C30.1655 17.9958 30.3276 17.8215 30.5018 17.6472C31.3459 18.8464 32.47 19.8038 33.7688 20.4295C36.9037 21.8612 40.8313 22.191 43.4497 19.3278C45.5397 16.9376 44.4887 13.2216 42.0204 11.6655C39.3179 9.76706 35.5404 9.76707 32.6578 11.012H32.6278C32.6634 10.1505 32.8688 9.30569 33.2313 8.52959C33.5939 7.7535 34.1058 7.06253 34.7357 6.49924C38.339 3.01355 44.5127 4.42651 47.0651 8.53464L51.0588 5.49711C49.6188 3.68315 47.8019 2.22986 45.7439 1.24581C43.9666 0.408314 42.0343 -0.0167002 40.082 0.000502097C38.1298 0.0177044 36.2047 0.476691 34.4414 1.34538C31.1023 3.1318 28.592 6.68595 28.4359 10.682C28.418 11.6153 28.5087 12.5474 28.7061 13.4582C21.043 19.9938 23.4333 32.0319 34.8318 33.8307C38.9036 34.5341 43.1735 32.9842 46.3024 30.314L43.0594 26.461C41.5444 27.9838 39.5878 28.9472 37.4918 29.2026C35.3959 29.4579 33.2771 28.9911 31.4627 27.874ZM38.5792 14.6097C39.354 14.8213 40.9815 15.7239 40.3809 16.5828C40.0642 16.8897 39.6673 17.0931 39.2398 17.1679C38.2486 17.3485 37.2291 17.2586 36.2814 16.9072C35.3338 16.5558 34.4906 15.955 33.8349 15.1637C35.2987 14.3873 36.9854 14.1903 38.5792 14.6097Z" fill="black"/>
<path d="M182.275 4.63272C186.677 4.63272 189.421 6.21374 191.734 10.0978L191.872 10.3219L195.865 7.20965L195.733 7.01046C192.544 2.35458 188.389 0.163574 182.659 0.163574C174.822 0.163574 171.315 4.87548 171.315 9.54381C171.315 16.316 177.368 17.4924 182.233 18.4385C186.599 19.229 191.109 20.0444 191.109 23.9969C191.109 27.1839 188.491 29.238 184.437 29.238C179.951 29.238 176.864 27.576 174.119 23.6733L173.969 23.4679L170.18 26.717L170.3 26.9038C173.231 31.3667 177.999 33.7507 184.113 33.7507C191.055 33.7507 195.523 29.9475 195.523 24.0592C195.523 17.0816 189.091 15.899 184.371 15.0275C179.566 14.1125 175.729 13.3905 175.729 9.64962C175.729 6.60586 178.299 4.63272 182.275 4.63272Z" fill="black"/>
<path d="M154.646 6.65448C157.799 3.3742 163.781 3.90329 166.405 7.6006L170.147 4.20828C168.741 2.79462 167.054 1.7174 165.204 1.05248C161.21 -0.453835 155.373 -0.0056842 151.908 3.76633C150.607 5.05855 149.667 6.69087 149.187 8.49092C148.707 10.291 148.705 12.1919 149.181 13.9931C148.484 14.6136 147.836 15.29 147.241 16.016C146.078 17.5688 145.334 19.4149 145.087 21.3644C144.84 23.3139 145.099 25.2964 145.836 27.108C147.692 31.4651 152.01 33.4196 155.859 33.8864C159.931 34.4217 164.123 32.7349 167.144 29.965L163.805 26.2677C162.341 27.8472 160.421 28.889 158.334 29.235C156.248 29.581 154.11 29.2123 152.244 28.1848C148.719 26.3175 148.13 21.5994 150.358 18.4996C150.568 18.2506 150.791 18.0016 151.019 17.7527C152.144 19.204 153.648 20.2879 155.353 20.8742C157.058 21.4605 158.889 21.5243 160.628 21.0578C167.264 18.9664 165.228 11.4597 159 10.607C156.808 10.2563 154.565 10.6196 152.58 11.6465C152.58 11.4909 152.58 11.329 152.58 11.1672C152.686 9.44427 153.425 7.82904 154.646 6.65448ZM158.448 14.435C159.325 14.5035 160.784 15.1695 161.054 15.9476C161.109 16.0697 161.127 16.206 161.107 16.339C161.087 16.472 161.028 16.5958 160.94 16.6945C159.769 17.9394 157.427 17.6344 155.859 16.9746C155.088 16.6426 154.418 16.1006 153.92 15.406C155.284 14.5736 156.878 14.2384 158.448 14.4537V14.435Z" fill="black"/>
</svg>
