<svg width="244" height="254" viewBox="0 0 244 254" fill="none" xmlns="http://www.w3.org/2000/svg">
<g clip-path="url(#clip0_1_6403)">
<path d="M182.874 147.768V146.207C182.874 144.62 182.874 142.726 182.874 142.726V87.2173H107.718C106.104 84.1536 105.229 80.7523 105.166 77.2876V69.4053L105.013 68.1512H102.461V77.2876C102.435 80.7356 101.623 84.132 100.087 87.2173H65.2275V142.803V148.177V148.536C67.4809 156.547 71.7217 163.854 77.5538 169.777C91.5641 184.057 99.271 185.465 99.7814 185.516H115.068H148.626C149.545 185.337 157.175 183.494 170.573 169.828C176.383 163.878 180.62 156.568 182.899 148.561L183.103 147.845L182.874 147.768ZM103.763 84.4534C104.972 88.292 107.078 91.7854 109.906 94.6431C112.733 97.5009 116.2 99.6403 120.018 100.883C116.202 102.13 112.737 104.271 109.91 107.128C107.083 109.985 104.976 113.477 103.763 117.313C102.597 113.468 100.519 109.964 97.7048 107.102C94.891 104.24 91.4262 102.106 87.6084 100.883C91.4471 99.6788 94.9347 97.5525 97.7677 94.6892C100.601 91.8259 102.694 88.3122 103.865 84.4534H103.763ZM98.5054 89.7253C96.4814 92.7312 93.7574 95.197 90.5691 96.9094C87.3808 98.6217 83.8246 99.529 80.2079 99.5526L78.983 99.7061V102.265H80.2079C86.0768 102.306 91.6928 104.667 95.8357 108.836C99.9785 113.005 102.313 118.645 102.333 124.53V133.667H104.885V124.53C104.983 118.669 107.343 113.074 111.47 108.922C115.596 104.77 121.167 102.384 127.011 102.265L128.236 102.112V99.5526H127.011C123.42 99.4891 119.896 98.5638 116.735 96.854C113.574 95.1442 110.867 92.6997 108.841 89.7253H180.015V146.539L178.944 147C171.068 150.395 164.03 155.479 158.324 161.895C152.846 168.01 148.746 175.238 146.304 183.085H101.057C98.615 175.238 94.5155 168.01 89.0377 161.895C83.3314 155.479 76.293 150.395 68.4175 147L67.397 146.565C67.397 145.695 67.397 144.518 67.397 142.854V89.7253H98.5054ZM68.1371 149.534C75.4947 152.77 82.0733 157.553 87.4296 163.558C92.3883 169.116 96.1657 175.63 98.5309 182.701C95.8003 181.626 89.2417 178.273 79.34 168.19C74.2439 162.921 70.4427 156.533 68.2387 149.534H68.1371ZM168.557 168.113C158.528 178.35 151.918 181.677 149.341 182.675C151.716 175.617 155.493 169.114 160.442 163.558C165.81 157.549 172.397 152.759 179.761 149.508C177.571 156.499 173.767 162.874 168.659 168.113H168.557Z" fill="black"/>
<path d="M15.2352 94.2551L3.13888 91.3888L3.70086 89.0088L15.8988 91.9006C16.9683 92.0123 17.9987 92.3682 18.9099 92.9408C19.8211 93.5135 20.5894 94.2877 21.156 95.2043C21.7226 96.1208 22.0722 97.1553 22.1784 98.2285C22.2846 99.3016 22.1444 100.385 21.7684 101.395C20.569 106.514 17.277 108.817 12.1985 107.614L0 104.722L0.56136 102.368L12.454 105.183C15.8736 106.002 18.6299 105.183 19.6507 100.909C20.6715 96.6352 18.6294 95.0485 15.2352 94.2551Z" fill="black"/>
<path d="M24.9823 89.1368L24.0895 91.2865L9.74707 85.2724L10.615 83.1739L14.3152 84.7093L14.4429 84.479C13.4038 83.6807 12.6591 82.5582 12.3265 81.2885C11.9938 80.0189 12.092 78.6744 12.6056 77.4669C12.8738 76.7785 13.2873 76.1565 13.818 75.6437C14.3488 75.1309 14.9837 74.7395 15.6797 74.4963C16.3756 74.2531 17.1161 74.164 17.8497 74.235C18.5833 74.306 19.2927 74.5355 19.9294 74.9077L29.3205 78.8232L28.4277 80.9729L19.5213 77.2365C19.0684 76.9432 18.5546 76.7573 18.0192 76.6929C17.4838 76.6285 16.941 76.6874 16.4317 76.865C15.9224 77.0427 15.4603 77.3344 15.0803 77.718C14.7003 78.1017 14.4122 78.5672 14.2386 79.0792C13.9243 79.6783 13.7414 80.3378 13.7015 81.0136C13.6616 81.6893 13.7659 82.3659 14.0074 82.9981C14.249 83.6302 14.6221 84.2035 15.1021 84.6795C15.5821 85.1555 16.1575 85.5234 16.7905 85.7586L24.9823 89.1368Z" fill="black"/>
<path d="M30.8545 76.2129L17.3545 68.5353L18.4772 66.5647L22.1014 68.6376V68.4841C21.1072 67.7712 20.4179 66.7081 20.1719 65.5076C19.9258 64.307 20.1411 63.0576 20.7744 62.0093L21.0803 61.4463L23.2753 62.7003L22.8921 63.3401C21.2078 66.3344 21.7183 68.4585 24.9593 70.2755L31.9006 74.2423L30.8545 76.2129Z" fill="black"/>
<path d="M20.2364 57.1468L18.2969 55.8416L19.8788 53.4872L21.8183 54.7923L20.2364 57.1468ZM36.0074 67.5371L23.1198 58.7847L24.3958 56.9165L37.2834 65.6434L36.0074 67.5371Z" fill="black"/>
<path d="M42.0063 59.2965L25.9287 54.3316L27.5362 52.4122L33.5591 54.4084C36.1111 55.3041 38.663 56.1998 41.215 57.1211L41.5976 56.6605C40.2705 54.5364 38.8418 52.0028 37.5403 49.6483L34.4264 44.1205L36.0089 42.2267L43.8692 57.0956L42.0063 59.2965Z" fill="black"/>
<path d="M52.9789 42.5594L52.8007 42.7385C53.3789 43.8779 53.547 45.1825 53.2773 46.432C53.0076 47.6816 52.3166 48.7995 51.3203 49.5971C49.1001 51.6701 46.8287 51.9772 44.8127 49.8019C42.7966 47.6266 43.0266 45.2465 45.7316 42.7385L49.6618 39.1045L48.6917 38.0296C48.4107 37.5645 48.022 37.1744 47.5584 36.8923C47.0948 36.6102 46.57 36.4445 46.0288 36.4093C45.4877 36.3742 44.9461 36.4706 44.4501 36.6903C43.954 36.91 43.5182 37.2466 43.1797 37.6714C42.3881 38.298 41.8691 39.2073 41.7311 40.2091C41.5931 41.2109 41.8469 42.2273 42.4395 43.0456L40.4233 44.1461C39.6481 42.8764 39.368 41.3643 39.6364 39.9001C39.9049 38.4359 40.7033 37.1227 41.8781 36.2126C42.3863 35.5604 43.0399 35.0373 43.7871 34.6857C44.5343 34.3341 45.354 34.1639 46.179 34.1888C47.004 34.2137 47.8112 34.4331 48.536 34.8291C49.2607 35.2252 49.8822 35.7868 50.3503 36.4685L57.1134 43.8134L55.5053 45.2977L52.9789 42.5594ZM51.5502 41.1518L50.8356 40.3585L47.0843 43.8134C45.451 45.3233 45.1446 46.8332 46.3186 48.1128C47.4925 49.3924 48.6916 49.4436 50.5035 47.7801C51.0247 47.4288 51.4679 46.9735 51.8057 46.4426C52.1435 45.9117 52.3685 45.3166 52.4667 44.6946C52.5649 44.0726 52.5342 43.437 52.3764 42.8274C52.2186 42.2178 51.9377 41.6474 51.5502 41.1518Z" fill="black"/>
<path d="M61.0946 40.8959L59.2821 42.2779L46.293 25.1825L48.1048 23.8005L61.0946 40.8959Z" fill="black"/>
<path d="M66.0945 37.3131L64.2061 38.5927L52.2119 20.6783L54.1004 19.4243L66.0945 37.3131Z" fill="black"/>
<path d="M64.3084 29.0468C63.7003 28.1719 63.2887 27.1752 63.1022 26.1253C62.9156 25.0754 62.9587 23.9975 63.228 22.9659C63.4973 21.9343 63.9867 20.9735 64.6623 20.15C65.3378 19.3265 66.1832 18.6597 67.1407 18.1959C67.9397 17.6786 68.8434 17.3455 69.7861 17.2205C70.7289 17.0956 71.6874 17.1818 72.5929 17.4731C73.4985 17.7644 74.3284 18.2534 75.0228 18.905C75.7172 19.5566 76.2586 20.3545 76.6084 21.2413C76.7871 21.574 77.0934 22.1626 77.3231 22.7256L66.6049 28.4838C66.8955 29.1562 67.3264 29.7582 67.869 30.2491C68.4117 30.7399 69.0532 31.1082 69.75 31.329C70.4468 31.5498 71.1829 31.6179 71.9082 31.5288C72.6336 31.4398 73.3312 31.1955 73.9543 30.8127C74.9868 30.4096 75.8268 29.6257 76.3013 28.6216C76.7758 27.6176 76.8489 26.4694 76.5063 25.4128L78.5735 24.9777C79.067 26.4761 78.9693 28.1072 78.3 29.5354C77.6307 30.9636 76.4408 32.0801 74.9755 32.6553C74.0651 33.2384 73.0359 33.6092 71.9637 33.7406C70.8914 33.8719 69.8029 33.7604 68.7793 33.4141C67.7557 33.0679 66.823 32.4957 66.0491 31.7399C65.2753 30.984 64.6806 30.0638 64.3084 29.0468ZM65.8136 26.9227L74.6689 22.137C74.4295 21.5045 74.0531 20.9334 73.5661 20.4651C73.0791 19.9969 72.4943 19.6434 71.854 19.4302C71.2137 19.2169 70.5336 19.1495 69.864 19.2326C69.1945 19.3156 68.5522 19.5472 67.9831 19.9105C67.3589 20.2035 66.8029 20.6239 66.3501 21.1449C65.8973 21.6659 65.5574 22.2759 65.3532 22.936C65.149 23.596 65.0845 24.2916 65.1638 24.9781C65.2431 25.6646 65.4645 26.3269 65.8136 26.9227Z" fill="black"/>
<path d="M92.3301 20.3455H92.1258C92.28 21.6836 91.968 23.034 91.2423 24.1675C90.5167 25.3011 89.4219 26.1479 88.1446 26.5644C84.4187 27.8695 81.3567 25.899 79.6469 20.9597C77.9371 16.0205 79.1365 12.4376 82.8113 11.158C84.0708 10.6623 85.4655 10.6349 86.7433 11.0808C88.0212 11.5267 89.0977 12.4166 89.7782 13.5893H89.9819L86.6393 4.01787L88.7826 3.27576L95.826 23.5701L93.6828 24.3123L92.3301 20.3455ZM91.3601 17.556L90.952 16.43C90.7701 15.7503 90.45 15.1156 90.0124 14.5655C89.5749 14.0153 89.029 13.5616 88.4087 13.2325C87.7885 12.9035 87.1072 12.7063 86.4075 12.6532C85.7078 12.6001 85.0047 12.6922 84.3421 12.9239C81.3053 13.9732 80.4376 16.3788 81.7902 20.2688C83.1427 24.1587 85.2099 25.3872 88.2978 24.3635C88.9723 24.1574 89.5952 23.8092 90.1246 23.3422C90.654 22.8753 91.0776 22.3003 91.3675 21.6558C91.6575 21.0113 91.8068 20.3122 91.8055 19.6051C91.8043 18.8981 91.6524 18.1995 91.3601 17.556Z" fill="black"/>
<path d="M112.032 12.796L112.594 20.4736L110.195 20.6271L108.74 0.58857L116.396 0.0255439C120.888 -0.307151 123.338 1.58671 123.644 5.75819C123.742 6.62853 123.649 7.50983 123.372 8.3405C123.095 9.17118 122.641 9.93114 122.04 10.5673C121.44 11.2035 120.708 11.7004 119.896 12.0235C119.085 12.3465 118.212 12.4879 117.34 12.4377L112.032 12.796ZM111.292 2.5592L111.905 10.8253L116.855 10.4671C120.096 10.2368 121.398 8.82916 121.194 6.01405C120.989 3.19894 119.688 1.94495 116.243 2.20087L111.292 2.5592Z" fill="black"/>
<path d="M124.639 11.9258C124.588 10.8619 124.768 9.7996 125.166 8.81214C125.565 7.82468 126.171 6.93547 126.945 6.20578C127.719 5.47608 128.641 4.92329 129.648 4.58535C130.655 4.2474 131.724 4.13233 132.779 4.24819C133.738 4.23056 134.688 4.42795 135.56 4.8259C136.432 5.22385 137.205 5.81232 137.822 6.54825C138.438 7.28418 138.883 8.14899 139.123 9.0794C139.363 10.0098 139.393 10.9823 139.21 11.9258C139.21 12.3097 139.21 12.9751 139.032 13.5637L126.91 12.7447C126.799 13.4783 126.849 14.2273 127.055 14.9399C127.261 15.6525 127.619 16.3115 128.105 16.8714C128.59 17.4313 129.191 17.8787 129.866 18.1825C130.541 18.4863 131.274 18.6393 132.014 18.6309C133.096 18.8164 134.209 18.5807 135.124 17.972C136.039 17.3633 136.689 16.4274 136.939 15.3552L138.93 16.0973C138.532 17.5962 137.587 18.8908 136.283 19.7248C134.978 20.5588 133.41 20.8717 131.887 20.6015C130.806 20.6173 129.735 20.3914 128.752 19.94C127.769 19.4887 126.899 18.8234 126.204 17.9925C125.51 17.1615 125.01 16.1858 124.739 15.1364C124.468 14.087 124.434 12.9901 124.639 11.9258ZM127.063 10.9021L137.092 11.5675C137.092 8.31735 135.817 6.44915 132.601 6.14205C131.92 6.05611 131.227 6.11409 130.569 6.31223C129.912 6.51036 129.303 6.84427 128.781 7.29254C128.26 7.74082 127.837 8.29352 127.541 8.91516C127.246 9.53679 127.082 10.2136 127.063 10.9021Z" fill="black"/>
<path d="M140.716 21.1133L143.599 5.75818L145.794 6.16758L145.029 10.2879H145.207C145.558 9.11582 146.335 8.11843 147.384 7.49294C148.433 6.86746 149.678 6.65937 150.873 6.90977H151.485L151.026 9.46896L150.311 9.34103C146.943 8.70124 145.207 9.85283 144.467 13.5381L142.987 21.4204L140.716 21.1133Z" fill="black"/>
<path d="M158.451 9.16191L163.376 10.5951L162.841 12.5144L157.89 11.0557L154.087 24.1332L151.918 23.4934L155.72 10.4159L152.811 9.57139L153.373 7.67761L156.256 8.52211L156.563 7.49845C156.663 6.81362 156.916 6.16008 157.301 5.58585C157.686 5.01162 158.195 4.53126 158.79 4.1802C159.385 3.82913 160.051 3.61628 160.738 3.55719C161.426 3.4981 162.118 3.59435 162.764 3.83882C163.601 4.07325 164.406 4.40834 165.163 4.83686L164.525 6.55156C163.883 6.20093 163.208 5.91787 162.509 5.70698C160.467 5.11837 159.345 6.06527 158.732 8.26618L158.451 9.16191Z" fill="black"/>
<path d="M161.387 18.0167C161.779 17.0841 162.351 16.2381 163.07 15.527C163.788 14.8158 164.638 14.2534 165.573 13.872C166.508 13.4906 167.509 13.2976 168.518 13.304C169.527 13.3104 170.525 13.5161 171.455 13.9093C172.385 14.3025 173.229 14.8755 173.938 15.5957C174.647 16.3159 175.208 17.169 175.588 18.1065C175.969 19.044 176.161 20.0475 176.155 21.0596C176.148 22.0717 175.943 23.0726 175.551 24.0052C173.586 28.663 169.783 30.4544 165.343 28.5606C160.903 26.6668 159.422 22.6745 161.387 18.0167ZM163.531 18.8613C162.077 22.3162 162.715 25.2593 166.083 26.5389C169.452 27.8185 172.029 26.5389 173.484 22.956C174.938 19.3732 174.071 16.6604 170.932 15.2784C170.226 14.909 169.443 14.7104 168.647 14.6985C167.851 14.6866 167.063 14.8618 166.346 15.2099C165.629 15.5581 165.004 16.0697 164.519 16.7037C164.035 17.3377 163.705 18.0767 163.557 18.8613H163.531Z" fill="black"/>
<path d="M174.248 32.425L181.904 18.9125L183.844 20.0385L181.751 23.6726H181.93C182.648 22.6847 183.709 22.0026 184.905 21.761C186.1 21.5193 187.342 21.7357 188.386 22.3674L188.922 22.7001L187.671 24.8754L187.033 24.4915C184.048 22.7768 181.93 23.2887 180.118 26.5389L176.136 33.4743L174.248 32.425Z" fill="black"/>
<path d="M184.405 38.1321L182.645 36.6477L192.597 24.6963L194.358 26.155L191.806 29.2517L192.01 29.4052C193.079 28.6435 194.374 28.2647 195.684 28.3297C196.994 28.3947 198.243 28.8997 199.232 29.7634C199.755 30.1355 200.195 30.6126 200.524 31.1644C200.853 31.7162 201.063 32.3306 201.143 32.9684C201.222 33.6063 201.168 34.2538 200.984 34.8696C200.8 35.4854 200.49 36.0561 200.075 36.5454L200.33 36.7501C201.38 35.8535 202.724 35.3762 204.103 35.4092C205.482 35.4423 206.801 35.9833 207.807 36.9292C208.399 37.383 208.884 37.9612 209.23 38.6232C209.575 39.2852 209.771 40.015 209.805 40.7613C209.839 41.5076 209.71 42.2523 209.427 42.9432C209.143 43.6341 208.712 44.2543 208.164 44.7604L201.657 52.4379L199.896 50.9536L206.071 43.5319C206.475 43.1786 206.796 42.7393 207.009 42.246C207.221 41.7527 207.322 41.2179 207.303 40.6808C207.283 40.1436 207.144 39.6177 206.896 39.1413C206.648 38.6649 206.296 38.2501 205.868 37.9273C205.397 37.4501 204.829 37.079 204.204 36.8385C203.578 36.598 202.91 36.4936 202.241 36.5323C201.572 36.5711 200.92 36.752 200.326 37.0631C199.733 37.3742 199.212 37.8084 198.799 38.3368L193.057 45.221L191.271 43.7367L197.472 36.315C197.876 35.9617 198.196 35.5223 198.409 35.029C198.622 34.5358 198.722 34.001 198.702 33.4638C198.683 32.9267 198.544 32.4007 198.295 31.9243C198.047 31.4479 197.696 31.0332 197.267 30.7104C196.792 30.2364 196.222 29.8682 195.595 29.6298C194.968 29.3914 194.298 29.2882 193.629 29.3269C192.959 29.3655 192.306 29.5451 191.71 29.854C191.115 30.163 190.591 30.5943 190.173 31.1198L184.405 38.1321Z" fill="black"/>
<path d="M212.044 60.3458L211.865 60.1411C210.694 60.6394 209.387 60.718 208.165 60.3638C206.943 60.0096 205.879 59.2441 205.154 58.1961C203.24 55.816 203.086 53.5383 205.409 51.6701C207.731 49.8018 210.054 50.2114 212.351 53.0777L215.693 57.2747L216.817 56.3534C217.296 56.1041 217.709 55.7426 218.02 55.2995C218.331 54.8565 218.531 54.3449 218.604 53.8078C218.677 53.2708 218.619 52.7241 218.437 52.214C218.255 51.7038 217.952 51.2451 217.556 50.8767C216.994 50.0364 216.127 49.4505 215.139 49.2447C214.152 49.039 213.123 49.2298 212.274 49.7763L211.329 47.6777C212.629 47.0166 214.124 46.8546 215.534 47.2222C216.944 47.5899 218.172 48.4618 218.985 49.6739C219.597 50.2258 220.072 50.9141 220.37 51.6835C220.669 52.4528 220.782 53.2817 220.703 54.1034C220.624 54.925 220.353 55.7164 219.913 56.414C219.473 57.1115 218.875 57.6956 218.169 58.1193L210.513 64.3637L209.161 62.6746L212.044 60.3458ZM213.55 59.015L214.366 58.324L211.202 54.3573C209.798 52.617 208.318 52.2075 206.966 53.308C205.613 54.4084 205.485 55.5601 206.966 57.5051C207.28 58.0685 207.709 58.5592 208.225 58.9455C208.741 59.3318 209.333 59.6051 209.961 59.7474C210.589 59.8898 211.239 59.8981 211.871 59.772C212.502 59.6458 213.101 59.3879 213.627 59.015H213.55Z" fill="black"/>
<path d="M213.372 68.6632L212.224 66.667L225.622 58.8103L226.77 60.7809L223.299 62.8026L223.452 63.033C224.711 62.6852 226.049 62.7682 227.255 63.2688C228.461 63.7694 229.467 64.659 230.113 65.7969C230.509 66.4228 230.765 67.1274 230.863 67.8622C230.961 68.597 230.898 69.3444 230.68 70.0526C230.462 70.7608 230.092 71.4131 229.598 71.9641C229.103 72.5152 228.495 72.9519 227.816 73.2442L219.037 78.3626L217.889 76.3664L226.208 71.4783C226.716 71.2969 227.176 71.0001 227.55 70.611C227.925 70.222 228.205 69.7514 228.368 69.2359C228.531 68.7205 228.573 68.1741 228.491 67.6397C228.408 67.1053 228.203 66.5972 227.892 66.1552C227.611 65.5458 227.203 65.0036 226.696 64.5644C226.19 64.1252 225.596 63.7992 224.954 63.6079C224.312 63.4167 223.636 63.3647 222.972 63.4553C222.309 63.5459 221.672 63.7771 221.104 64.1335L213.372 68.6632Z" fill="black"/>
<path d="M235.575 82.0221C234.35 78.9767 231.696 77.8507 227.919 79.335C224.142 80.8194 222.994 83.3529 224.27 86.6031C224.634 87.7359 225.424 88.6818 226.472 89.2407C227.52 89.7996 228.744 89.9275 229.884 89.5973L230.139 91.7983C228.526 92.2193 226.813 91.9957 225.361 91.1745C223.909 90.3533 222.831 88.9988 222.356 87.3965C221.892 86.4264 221.647 85.3657 221.638 84.2898C221.629 83.2139 221.857 82.1493 222.305 81.1719C222.754 80.1944 223.411 79.3281 224.232 78.6346C225.052 77.9411 226.014 77.4376 227.051 77.1597C227.992 76.6664 229.028 76.3819 230.088 76.3256C231.149 76.2693 232.209 76.4424 233.197 76.8332C234.184 77.2241 235.076 77.8235 235.813 78.5908C236.549 79.3581 237.112 80.2752 237.463 81.28C237.862 82.0119 238.112 82.8157 238.199 83.6451C238.286 84.4744 238.209 85.3129 237.972 86.1122C237.735 86.9115 237.342 87.6557 236.817 88.3022C236.292 88.9487 235.644 89.4846 234.911 89.8789L233.661 88.0106C234.183 87.748 234.647 87.3836 235.027 86.9387C235.407 86.4938 235.694 85.9774 235.873 85.4197C236.051 84.862 236.116 84.2742 236.065 83.6908C236.014 83.1074 235.847 82.5401 235.575 82.0221Z" fill="black"/>
<path d="M233.098 92.8731C234.097 92.5143 235.162 92.3765 236.219 92.4694C237.276 92.5623 238.3 92.8837 239.221 93.4114C240.143 93.9391 240.939 94.6605 241.556 95.5263C242.173 96.392 242.596 97.3815 242.796 98.4266C243.089 99.3352 243.178 100.298 243.055 101.245C242.932 102.192 242.601 103.1 242.086 103.903C241.571 104.706 240.884 105.384 240.075 105.889C239.267 106.394 238.357 106.712 237.411 106.821C237.053 106.821 236.39 107.051 235.803 107.128L233.021 95.2532C232.301 95.3625 231.613 95.625 231.003 96.0232C230.392 96.4213 229.873 96.9459 229.482 97.5617C229.09 98.1774 228.835 98.87 228.732 99.593C228.63 100.316 228.683 101.053 228.887 101.754C229.028 102.843 229.574 103.84 230.416 104.543C231.259 105.245 232.335 105.602 233.429 105.541V107.665C231.882 107.721 230.37 107.192 229.193 106.182C228.016 105.173 227.26 103.756 227.075 102.214C226.761 101.201 226.672 100.131 226.816 99.0795C226.96 98.0281 227.332 97.0212 227.907 96.1301C228.481 95.2389 229.244 94.4853 230.141 93.9225C231.038 93.3597 232.048 93.0015 233.098 92.8731ZM234.757 94.8693L237.054 104.697C240.167 103.826 241.673 101.958 240.933 98.8105C240.815 98.1297 240.556 97.4811 240.174 96.9062C239.792 96.3313 239.294 95.8428 238.713 95.4718C238.132 95.1009 237.479 94.8557 236.798 94.7519C236.117 94.6482 235.421 94.6881 234.757 94.8693Z" fill="black"/>
<path d="M12.9889 177.915L14.0861 179.425C13.5757 179.755 13.1375 180.185 12.7976 180.69C12.4578 181.195 12.2237 181.763 12.1092 182.361C11.9947 182.959 12.0024 183.575 12.1316 184.169C12.2609 184.764 12.509 185.327 12.8612 185.823C14.1372 188.203 15.8472 188.92 17.5571 187.998C19.2669 187.077 19.7007 185.9 18.2206 183.136L16.9446 180.73L18.2717 180.014L19.4966 182.343C19.6328 182.747 19.8563 183.116 20.1514 183.423C20.4465 183.73 20.8055 183.968 21.2031 184.12C21.6007 184.271 22.027 184.333 22.451 184.3C22.8751 184.267 23.2864 184.14 23.656 183.929C25.519 182.931 25.7234 181.524 24.6261 179.451C24.4235 178.982 24.1306 178.557 23.7644 178.202C23.3982 177.847 22.9655 177.567 22.4915 177.379C22.0176 177.192 21.5114 177.099 21.0019 177.108C20.4923 177.116 19.9896 177.225 19.5221 177.429L18.8586 175.689C19.5321 175.402 20.2553 175.252 20.9869 175.246C21.7185 175.24 22.4441 175.379 23.1221 175.655C23.8 175.931 24.4168 176.338 24.9376 176.853C25.4584 177.368 25.8727 177.981 26.1569 178.657C27.8157 181.805 27.5095 184.032 24.9575 185.414C24.1388 185.88 23.175 186.02 22.2579 185.807C21.3408 185.593 20.5374 185.042 20.0069 184.262L19.777 184.39C21.0019 187.282 20.466 188.689 18.4754 189.764C16.051 191.069 13.5758 190.327 11.5852 186.565C11.1005 185.909 10.7517 185.162 10.5597 184.368C10.3676 183.574 10.336 182.75 10.4669 181.943C10.5977 181.137 10.8885 180.365 11.3217 179.673C11.7548 178.982 12.3217 178.384 12.9889 177.915Z" fill="black"/>
<path d="M28.6334 193.091L27.4341 191.453L28.6845 190.506L29.8845 192.17L32.7935 190.046L33.8651 191.505L30.9561 193.629L33.5081 197.058L32.2321 197.979L29.6802 194.576L23.9638 198.747C22.6878 199.668 22.407 200.641 23.3002 201.869C23.7046 202.407 24.1863 202.881 24.7295 203.277L23.555 204.454C22.8504 203.94 22.2305 203.318 21.7177 202.612C21.3934 202.216 21.1608 201.753 21.0367 201.256C20.9127 200.76 20.9004 200.242 21.0006 199.739C21.1007 199.237 21.3111 198.764 21.6161 198.353C21.9211 197.943 22.3134 197.605 22.7644 197.365L28.6334 193.091Z" fill="black"/>
<path d="M25.2148 206.552L34.7848 198.593L35.9586 200.001L26.3631 207.96L25.2148 206.552ZM36.6987 196.725L38.128 195.548L39.5822 197.288L38.1535 198.491L36.6987 196.725Z" fill="black"/>
<path d="M30.4462 212.95L29.1191 211.697L37.6934 202.662L38.995 203.916L36.8006 206.245L36.9533 206.399C37.8403 205.835 38.8926 205.591 39.9364 205.707C40.9802 205.824 41.9532 206.293 42.6952 207.039C43.0922 207.363 43.4184 207.766 43.6522 208.222C43.886 208.679 44.0229 209.179 44.0541 209.691C44.0852 210.204 44.0096 210.717 43.8329 211.199C43.6562 211.68 43.3821 212.12 43.0273 212.49L43.2316 212.695C44.1133 212.035 45.2054 211.723 46.3014 211.817C47.3974 211.911 48.4207 212.406 49.1773 213.206C49.6415 213.586 50.0157 214.064 50.2726 214.606C50.5296 215.148 50.6633 215.741 50.6633 216.341C50.6633 216.942 50.5296 217.535 50.2726 218.077C50.0157 218.619 49.6415 219.097 49.1773 219.476L43.5886 225.363L42.2616 224.109L47.5699 218.478C47.9124 218.222 48.1927 217.892 48.3898 217.511C48.5869 217.131 48.6953 216.711 48.7076 216.283C48.7198 215.854 48.6358 215.429 48.4608 215.038C48.2858 214.647 48.0249 214.301 47.6976 214.025C47.3455 213.619 46.9103 213.292 46.4216 213.069C45.9329 212.845 45.4018 212.73 44.8646 212.73C44.3275 212.73 43.7964 212.845 43.3077 213.069C42.819 213.292 42.3838 213.619 42.0317 214.025L37.081 219.144L35.7539 217.864L41.0622 212.259C41.4052 212.001 41.6857 211.668 41.8828 211.286C42.0799 210.903 42.1883 210.481 42.2005 210.051C42.2128 209.621 42.1288 209.193 41.9538 208.8C41.7788 208.407 41.5176 208.059 41.1899 207.781C40.8355 207.378 40.3992 207.055 39.9108 206.834C39.4224 206.613 38.8928 206.499 38.357 206.499C37.8211 206.499 37.2915 206.613 36.8031 206.834C36.3147 207.055 35.8791 207.378 35.5246 207.781L30.4462 212.95Z" fill="black"/>
<path d="M49.992 222.317C50.3931 221.566 50.9528 220.912 51.6318 220.4C52.3108 219.888 53.0931 219.531 53.924 219.353C54.7548 219.175 55.614 219.181 56.4423 219.37C57.2706 219.56 58.0476 219.928 58.7195 220.449C59.3847 220.827 59.9568 221.349 60.3936 221.978C60.8305 222.607 61.121 223.327 61.2435 224.083C61.3659 224.84 61.3174 225.614 61.1014 226.35C60.8854 227.085 60.5074 227.762 59.9955 228.331C59.8169 228.562 59.5111 228.997 59.2049 229.355L51.2169 223.776C50.8463 224.228 50.5767 224.755 50.4262 225.32C50.2758 225.886 50.2479 226.477 50.3446 227.054C50.4413 227.632 50.6604 228.181 50.987 228.667C51.3135 229.152 51.7398 229.561 52.2374 229.867C52.8962 230.452 53.7549 230.76 54.6342 230.726C55.5136 230.693 56.346 230.321 56.9588 229.688L58.0049 231.019C57.1114 231.878 55.9292 232.37 54.6916 232.399C53.4539 232.427 52.2509 231.989 51.319 231.172C50.5882 230.731 49.9637 230.134 49.4898 229.422C49.0159 228.711 48.7038 227.904 48.577 227.058C48.4503 226.212 48.5113 225.349 48.7559 224.529C49.0004 223.71 49.4227 222.954 49.992 222.317ZM52.0592 222.624L58.6429 227.256C59.0072 226.856 59.2789 226.38 59.4373 225.862C59.5956 225.343 59.6369 224.796 59.5588 224.26C59.4806 223.724 59.2845 223.212 58.9849 222.761C58.6854 222.31 58.29 221.931 57.8267 221.652C57.3937 221.311 56.8941 221.065 56.3607 220.928C55.8272 220.792 55.2712 220.769 54.7283 220.861C54.1855 220.952 53.6678 221.156 53.2081 221.46C52.7484 221.764 52.3573 222.16 52.0592 222.624Z" fill="black"/>
<path d="M59.7944 231.812L61.453 232.324C61.1412 233.211 61.1821 234.184 61.567 235.042C61.9519 235.9 62.6514 236.576 63.5202 236.93C65.23 237.877 66.4803 237.698 67.1183 236.521C67.7563 235.344 67.1181 234.448 65.0255 232.708C62.9329 230.967 62.0401 229.125 62.9588 227.436C63.8776 225.747 66.0212 225.081 68.6752 226.566C69.7478 226.963 70.6191 227.771 71.0976 228.813C71.5762 229.854 71.6228 231.043 71.2272 232.119L69.5425 231.633C69.6925 231.282 69.7716 230.905 69.7743 230.523C69.777 230.142 69.7037 229.764 69.5587 229.411C69.4137 229.058 69.1995 228.738 68.9294 228.469C68.6594 228.2 68.339 227.988 67.9862 227.845C66.4039 226.949 65.2299 227.128 64.6174 228.229C64.0049 229.329 64.4131 230.225 66.4036 231.812C69.1343 233.962 69.7727 235.574 68.803 237.34C67.8332 239.106 65.7659 239.899 62.8056 238.235C62.1829 238.018 61.6095 237.678 61.1196 237.236C60.6297 236.793 60.2332 236.257 59.9527 235.659C59.6722 235.06 59.5138 234.412 59.4866 233.751C59.4594 233.091 59.5641 232.431 59.7944 231.812Z" fill="black"/>
<path d="M81.8938 233.245L85.7218 234.78L85.1349 236.239L81.3069 234.729L77.3257 244.966L75.6416 244.301L79.6228 234.064L77.3768 233.168L77.9637 231.709L80.2097 232.579L80.5157 231.786C80.6382 231.253 80.8768 230.754 81.2141 230.325C81.5513 229.895 81.9787 229.545 82.4664 229.301C82.9541 229.056 83.4901 228.923 84.0352 228.91C84.5803 228.897 85.1211 229.005 85.6196 229.227C86.2714 229.481 86.8886 229.816 87.457 230.225L86.819 231.53C86.3363 231.208 85.8238 230.934 85.2881 230.711C83.6804 230.071 82.7362 230.711 82.0982 232.375L81.8938 233.245Z" fill="black"/>
<path d="M91.5138 246.425H91.3094C90.7611 247.286 89.936 247.933 88.9705 248.259C88.005 248.584 86.9576 248.569 86.0017 248.216C83.6794 247.525 82.5308 246.092 83.2199 243.814C83.9089 241.537 85.6187 240.718 88.3238 241.562L92.4321 242.791L92.7642 241.665C92.9645 241.28 93.0698 240.853 93.0714 240.419C93.073 239.985 92.9705 239.557 92.773 239.171C92.5755 238.785 92.2886 238.452 91.9362 238.2C91.5838 237.948 91.1764 237.785 90.7481 237.723C89.9955 237.433 89.1604 237.447 88.4179 237.762C87.6754 238.077 87.0832 238.669 86.7668 239.412L85.2105 238.466C85.7581 237.416 86.674 236.607 87.7818 236.196C88.8896 235.785 90.1101 235.8 91.2073 236.239C91.86 236.304 92.4886 236.521 93.0421 236.874C93.5956 237.227 94.0588 237.705 94.3941 238.271C94.7294 238.836 94.9274 239.472 94.9723 240.129C95.0172 240.785 94.9078 241.443 94.6527 242.049L92.3817 249.726L90.7225 249.24L91.5138 246.425ZM91.8963 244.864L92.1262 244.045L88.2472 242.867C86.5374 242.356 85.3634 242.867 84.9806 244.121C84.5978 245.375 84.9806 246.271 86.9201 246.86C89.37 247.576 91.3604 246.681 91.8963 244.864Z" fill="black"/>
<path d="M95.9297 246.706H97.6649C97.6297 247.647 97.9627 248.563 98.5919 249.261C99.2212 249.959 100.097 250.383 101.034 250.443C102.973 250.801 104.096 250.238 104.351 248.907C104.607 247.576 103.764 246.911 101.161 245.964C98.1756 244.838 97.2054 243.405 97.5627 241.588C97.92 239.771 99.7319 238.414 102.667 239.029C103.23 239.052 103.783 239.186 104.295 239.424C104.806 239.661 105.266 239.998 105.647 240.414C106.029 240.83 106.325 241.317 106.519 241.848C106.712 242.379 106.8 242.943 106.776 243.507H105.04C105.105 242.756 104.874 242.009 104.397 241.426C103.921 240.842 103.236 240.469 102.488 240.385C100.702 240.052 99.6559 240.59 99.4262 241.818C99.1965 243.047 99.8341 243.789 102.233 244.659C105.474 245.836 106.597 247.218 106.214 249.163C105.831 251.108 104.121 252.49 100.804 251.876C97.4862 251.262 96.0062 249.317 95.9297 246.706Z" fill="black"/>
<path d="M110.45 242.049L108.434 241.844L108.587 240.257L110.603 240.462L110.96 236.905L112.772 237.084L112.415 240.641L116.626 241.076L116.473 242.637L112.262 242.228L111.572 249.291C111.419 250.827 111.93 251.697 113.436 251.85C114.102 251.907 114.773 251.864 115.426 251.722V253.386C114.588 253.571 113.726 253.615 112.874 253.514C112.362 253.499 111.859 253.369 111.404 253.133C110.948 252.897 110.552 252.562 110.243 252.151C109.934 251.741 109.722 251.266 109.62 250.762C109.519 250.258 109.532 249.738 109.658 249.24L110.45 242.049Z" fill="black"/>
<path d="M117.621 247.423C117.539 246.574 117.64 245.717 117.919 244.912C118.198 244.106 118.647 243.37 119.236 242.755C119.826 242.14 120.541 241.66 121.332 241.348C122.124 241.036 122.973 240.9 123.822 240.948C124.584 240.89 125.35 241.005 126.062 241.284C126.774 241.562 127.414 241.998 127.936 242.558C128.458 243.118 128.847 243.788 129.076 244.52C129.305 245.251 129.367 246.024 129.258 246.783C129.258 247.064 129.258 247.602 129.258 248.088L119.535 247.935C119.475 248.518 119.542 249.107 119.73 249.662C119.919 250.217 120.225 250.724 120.628 251.149C121.03 251.575 121.519 251.908 122.061 252.126C122.604 252.344 123.187 252.442 123.771 252.413C124.639 252.519 125.516 252.29 126.222 251.772C126.928 251.254 127.411 250.486 127.573 249.624L129.207 250.11C128.948 251.327 128.243 252.402 127.232 253.122C126.221 253.842 124.976 254.156 123.745 254C122.888 254.057 122.029 253.922 121.231 253.606C120.432 253.289 119.714 252.798 119.127 252.168C118.541 251.539 118.102 250.786 117.841 249.966C117.581 249.145 117.505 248.276 117.621 247.423ZM119.509 246.502H127.548C127.548 243.942 126.323 242.381 123.745 242.356C123.18 242.299 122.61 242.366 122.074 242.552C121.537 242.738 121.047 243.038 120.637 243.432C120.227 243.826 119.907 244.305 119.699 244.835C119.491 245.364 119.4 245.933 119.433 246.502H119.509Z" fill="black"/>
<path d="M132.064 253.488L131.069 241.076L132.856 240.923L133.137 244.275H133.289C133.698 241.716 134.948 240.641 136.939 240.488H137.449L137.628 242.509H137.041C134.285 242.714 133.162 243.994 133.391 246.988L133.902 253.36L132.064 253.488Z" fill="black"/>
<path d="M153.348 247.346H153.118C153.059 248.367 152.652 249.336 151.964 250.091C151.276 250.846 150.35 251.341 149.341 251.492C146.968 252.004 145.284 251.287 144.773 248.933C144.263 246.578 145.412 245.069 148.295 244.454L152.455 243.559L152.225 242.433C151.792 240.411 150.77 239.464 148.576 239.873C147.8 240.012 147.105 240.439 146.632 241.071C146.158 241.703 145.941 242.491 146.024 243.277H144.186C144.165 242.088 144.583 240.933 145.361 240.035C146.138 239.137 147.22 238.56 148.397 238.415C149.011 238.177 149.672 238.087 150.327 238.152C150.982 238.216 151.613 238.434 152.169 238.787C152.725 239.141 153.19 239.62 153.528 240.186C153.865 240.752 154.066 241.39 154.114 242.049L155.772 249.726L154.088 250.085L153.348 247.346ZM152.915 245.785L152.736 244.941L148.78 245.785C147.019 246.169 146.228 247.09 146.509 248.344C146.79 249.598 147.581 250.213 149.52 249.803C151.97 249.368 153.348 247.653 152.889 245.785H152.915Z" fill="black"/>
<path d="M158.453 239.617H158.606C158.476 238.553 158.724 237.476 159.308 236.578C159.892 235.679 160.773 235.015 161.796 234.704C164.884 233.68 167.283 235.318 168.61 239.31C169.937 243.303 168.916 246.092 166.058 246.988C165.03 247.371 163.9 247.381 162.866 247.017C161.831 246.652 160.956 245.936 160.393 244.992H160.265L161.362 248.216L159.601 248.805L154.166 232.477L155.927 231.889L158.453 239.617ZM166.875 239.848C165.828 236.726 164.17 235.651 161.771 236.47C161.221 236.622 160.711 236.892 160.275 237.261C159.839 237.63 159.487 238.089 159.245 238.607C159.003 239.125 158.875 239.689 158.871 240.261C158.866 240.833 158.985 241.399 159.219 241.921L159.525 242.816C159.65 243.37 159.892 243.891 160.233 244.344C160.575 244.797 161.009 245.172 161.507 245.443C162.004 245.714 162.554 245.876 163.118 245.917C163.683 245.959 164.25 245.879 164.782 245.683C167.206 244.889 167.896 242.944 166.875 239.848Z" fill="black"/>
<path d="M171.211 240.743L172.615 239.72C173.131 240.503 173.932 241.053 174.847 241.254C175.762 241.455 176.719 241.29 177.514 240.794C179.301 239.95 179.888 238.85 179.326 237.621C178.765 236.393 177.693 236.341 175.039 237.058C171.951 237.903 170.369 237.365 169.578 235.599C168.787 233.833 169.578 231.735 172.13 230.481C173.084 229.869 174.239 229.657 175.346 229.892C176.454 230.126 177.425 230.788 178.05 231.735L176.672 232.835C176.483 232.504 176.229 232.215 175.926 231.984C175.622 231.753 175.275 231.587 174.906 231.493C174.537 231.4 174.153 231.383 173.777 231.442C173.401 231.501 173.04 231.635 172.717 231.837C171.058 232.579 170.522 233.629 171.032 234.78C171.543 235.932 172.513 236.137 174.962 235.446C178.306 234.524 180.067 234.985 180.832 236.802C181.598 238.619 181.036 240.743 177.999 242.151C176.911 242.861 175.588 243.111 174.316 242.847C173.045 242.584 171.929 241.828 171.211 240.743Z" fill="black"/>
<path d="M181.188 233.398C180.653 232.323 180.443 231.115 180.583 229.922C180.724 228.728 181.209 227.602 181.978 226.682C182.748 225.761 183.77 225.086 184.917 224.739C186.064 224.392 187.287 224.389 188.436 224.73C189.585 225.071 190.61 225.741 191.384 226.658C192.159 227.574 192.649 228.698 192.796 229.891C192.942 231.083 192.738 232.293 192.208 233.371C191.678 234.448 190.847 235.348 189.814 235.958C189.1 236.433 188.29 236.745 187.442 236.873C186.594 237 185.728 236.94 184.906 236.696C184.084 236.452 183.325 236.03 182.683 235.46C182.041 234.891 181.53 234.187 181.188 233.398ZM182.745 232.426C182.988 232.998 183.351 233.511 183.808 233.93C184.265 234.35 184.806 234.667 185.395 234.859C185.984 235.051 186.608 235.114 187.224 235.045C187.84 234.975 188.433 234.773 188.965 234.454C189.497 234.135 189.954 233.705 190.307 233.194C190.659 232.683 190.897 232.102 191.007 231.49C191.116 230.878 191.094 230.25 190.941 229.648C190.788 229.046 190.508 228.483 190.12 227.999C189.858 227.461 189.487 226.985 189.031 226.599C188.575 226.213 188.044 225.926 187.472 225.756C186.9 225.586 186.299 225.537 185.707 225.612C185.115 225.687 184.545 225.885 184.033 226.192C183.521 226.499 183.078 226.91 182.733 227.398C182.387 227.885 182.146 228.44 182.025 229.026C181.904 229.612 181.905 230.216 182.029 230.801C182.153 231.387 182.397 231.94 182.745 232.426Z" fill="black"/>
<path d="M197.446 230.583L190.096 220.526L191.551 219.476L193.516 222.164H193.643C193.175 221.318 193.033 220.329 193.245 219.385C193.456 218.441 194.007 217.608 194.792 217.045L195.2 216.764L196.374 218.376L195.914 218.734C193.694 220.347 193.362 222.036 195.149 224.467L198.926 229.585L197.446 230.583Z" fill="black"/>
<path d="M209.95 220.935C209.151 221.688 208.115 222.138 207.021 222.208C205.927 222.278 204.842 221.964 203.954 221.319L208.93 226.949L207.552 228.178L196.578 215.766L197.982 214.537L200.177 217.096H200.304C199.763 216.172 199.569 215.084 199.756 214.029C199.943 212.973 200.499 212.019 201.325 211.338C203.749 209.163 206.633 209.726 209.415 212.874C212.196 216.021 212.222 219.016 209.95 220.935ZM207.909 214.025C205.74 211.466 203.8 211.21 201.861 212.951C201.411 213.316 201.048 213.777 200.797 214.3C200.547 214.824 200.416 215.397 200.414 215.977C200.411 216.558 200.537 217.131 200.783 217.657C201.029 218.183 201.389 218.647 201.835 219.016L202.448 219.732C202.782 220.191 203.21 220.574 203.703 220.855C204.196 221.136 204.743 221.308 205.308 221.361C205.872 221.415 206.441 221.347 206.977 221.163C207.514 220.98 208.006 220.684 208.42 220.295C210.206 218.53 210.078 216.457 207.909 214.025Z" fill="black"/>
<path d="M208.189 207.116L206.81 208.626L205.637 207.525L207.04 206.041L204.488 203.609L205.739 202.253L208.291 204.812L211.174 201.716L212.323 202.791L209.439 205.887L214.543 210.724C215.691 211.799 216.687 211.901 217.707 210.724C218.165 210.231 218.543 209.67 218.83 209.061L220.208 209.956C219.838 210.752 219.347 211.486 218.753 212.132C218.433 212.532 218.027 212.855 217.566 213.077C217.104 213.299 216.599 213.414 216.087 213.414C215.575 213.414 215.07 213.299 214.608 213.077C214.147 212.855 213.741 212.532 213.42 212.132L208.189 207.116Z" fill="black"/>
<path d="M210.309 198.542L208.88 197.34L210.309 195.599L211.763 196.776L210.309 198.542ZM222.073 208.011L212.478 200.052L213.652 198.67L223.222 206.604L222.073 208.011Z" fill="black"/>
<path d="M220.262 200.385C219.592 199.921 219.019 199.329 218.577 198.644C218.135 197.958 217.832 197.192 217.685 196.388C217.538 195.585 217.55 194.761 217.721 193.962C217.892 193.164 218.218 192.407 218.68 191.735C219.143 191.063 219.732 190.488 220.416 190.045C221.1 189.601 221.864 189.297 222.665 189.15C223.466 189.003 224.288 189.015 225.085 189.186C225.881 189.357 226.636 189.684 227.306 190.148C228.659 191.085 229.587 192.522 229.883 194.145C230.18 195.767 229.822 197.441 228.888 198.798C227.954 200.156 226.52 201.086 224.903 201.383C223.285 201.681 221.616 201.321 220.262 200.385ZM221.308 198.849C221.766 199.258 222.306 199.565 222.891 199.75C223.476 199.934 224.093 199.992 224.701 199.92C225.31 199.848 225.897 199.647 226.423 199.331C226.949 199.015 227.402 198.591 227.752 198.087C228.103 197.582 228.343 197.009 228.457 196.405C228.57 195.801 228.555 195.179 228.411 194.581C228.268 193.984 227.999 193.423 227.624 192.937C227.249 192.451 226.775 192.05 226.234 191.76C225.776 191.352 225.237 191.045 224.652 190.86C224.067 190.676 223.45 190.618 222.841 190.69C222.232 190.762 221.645 190.962 221.12 191.278C220.594 191.594 220.141 192.019 219.79 192.523C219.44 193.028 219.199 193.601 219.086 194.205C218.973 194.809 218.989 195.431 219.132 196.029C219.276 196.626 219.544 197.187 219.919 197.673C220.294 198.159 220.767 198.56 221.308 198.849Z" fill="black"/>
<path d="M235.013 189.278L234.145 190.916L223.172 185.004L224.039 183.392L226.872 184.927V184.723C226.104 184.012 225.596 183.063 225.43 182.028C225.263 180.994 225.447 179.933 225.953 179.016C226.199 178.467 226.566 177.981 227.025 177.594C227.485 177.208 228.026 176.93 228.607 176.782C229.189 176.635 229.796 176.621 230.384 176.742C230.972 176.862 231.525 177.115 232.002 177.48L239.147 181.345L238.279 182.957L231.466 179.297C231.129 179.025 230.734 178.835 230.311 178.741C229.889 178.647 229.45 178.652 229.03 178.756C228.61 178.86 228.22 179.06 227.89 179.34C227.56 179.621 227.299 179.974 227.127 180.372C226.832 180.821 226.635 181.327 226.548 181.857C226.462 182.388 226.487 182.931 226.625 183.45C226.762 183.97 227.008 184.454 227.345 184.872C227.682 185.29 228.104 185.631 228.582 185.874L235.013 189.278Z" fill="black"/>
</g>
<defs>
<clipPath id="clip0_1_6403">
<rect width="243.025" height="254" fill="white"/>
</clipPath>
</defs>
</svg>
