<svg id="Layer_1" data-name="Layer 1" xmlns="http://www.w3.org/2000/svg" viewBox="0 0 100.2 104.09"><defs><style>.cls-1{font-size:13.11px;}.cls-1,.cls-2{fill:#1d1d1b;font-family:Degular-Regular, Degular;}.cls-2{font-size:10.49px;}.cls-3{fill:none;stroke:#1d1d1b;stroke-miterlimit:10;}</style></defs><text class="cls-1" transform="translate(11.45 36.91) rotate(-63.88)">S</text><text class="cls-1" transform="matrix(0.58, -0.82, 0.82, 0.58, 14.34, 30.93)">u</text><text class="cls-1" transform="translate(17.99 25.66) rotate(-46.07)">p</text><text class="cls-1" transform="matrix(0.8, -0.6, 0.6, 0.8, 22.44, 20.98)">p</text><text class="cls-1" transform="translate(27.56 17.04) rotate(-28.38)">o</text><text class="cls-1" transform="translate(33.26 14.02) rotate(-21.3)">r</text><text class="cls-1" transform="translate(36.84 12.59) rotate(-15.72)">t</text><text class="cls-1" transform="translate(40.83 11.49) rotate(-11.12)">i</text><text class="cls-1" transform="translate(43.21 10.88) rotate(-4.94)">n</text><text class="cls-1" transform="translate(49.62 10.31) rotate(3.49)">g</text><text class="cls-1" transform="matrix(0.99, 0.16, -0.16, 0.99, 55.67, 10.75)"> </text><text class="cls-1" transform="translate(57.79 10.97) rotate(14.79)">F</text><text class="cls-1" transform="translate(63.38 12.4) rotate(22.75)">a</text><text class="cls-1" transform="matrix(0.83, 0.56, -0.56, 0.83, 68.87, 14.37)">m</text><text class="cls-1" transform="matrix(0.73, 0.68, -0.68, 0.73, 77.64, 20.67)">i</text><text class="cls-1" transform="translate(79.49 22.39) rotate(46.58)">l</text><text class="cls-1" transform="matrix(0.64, 0.77, -0.77, 0.64, 81.16, 24.14)">i</text><text class="cls-1" transform="translate(82.83 25.95) rotate(55.92)">e</text><text class="cls-1" transform="translate(86.26 30.98) rotate(63.84)">s</text><text class="cls-2" transform="translate(2.25 67.07) rotate(68.52)">D</text><text class="cls-2" transform="translate(4.83 73.5) rotate(61.19)">o</text><text class="cls-2" transform="matrix(0.58, 0.81, -0.81, 0.58, 7.66, 78.59)">n</text><text class="cls-2" transform="translate(11.05 83.31) rotate(48.16)">a</text><text class="cls-2" transform="matrix(0.73, 0.68, -0.68, 0.73, 14.61, 87.22)">t</text><text class="cls-2" transform="matrix(0.79, 0.61, -0.61, 0.79, 17.37, 89.84)">e</text><text class="cls-2" transform="matrix(0.83, 0.55, -0.55, 0.83, 21.66, 93.08)"> </text><text class="cls-2" transform="translate(23.5 94.46) rotate(27.6)">w</text><text class="cls-2" transform="matrix(0.93, 0.37, -0.37, 0.93, 30.61, 98)">i</text><text class="cls-2" transform="matrix(0.95, 0.31, -0.31, 0.95, 32.8, 98.89)">t</text><text class="cls-2" transform="translate(36.46 100.12) rotate(12.53)">h</text><text class="cls-2" transform="translate(42.03 101.28) rotate(8.01)"> </text><text class="cls-2" transform="matrix(1, 0.06, -0.06, 1, 44.2, 101.64)">e</text><text class="cls-2" transform="translate(49.62 101.98) rotate(-2.22)">v</text><text class="cls-2" transform="translate(54.73 101.78) rotate(-8.26)">e</text><text class="cls-2" transform="translate(60.14 100.94) rotate(-13.45)">r</text><text class="cls-2" transform="matrix(0.95, -0.32, 0.32, 0.95, 63.67, 100.12)">y</text><text class="cls-2" transform="translate(68.47 98.46) rotate(-22.71)"> </text><text class="cls-2" transform="translate(70.51 97.67) rotate(-27.25)">p</text><text class="cls-2" transform="matrix(0.83, -0.56, 0.56, 0.83, 75.73, 94.96)">u</text><text class="cls-2" transform="translate(80.48 91.7) rotate(-39.28)">r</text><text class="cls-2" transform="translate(83.21 89.51) rotate(-44.36)">c</text><text class="cls-2" transform="matrix(0.63, -0.78, 0.78, 0.63, 87.24, 85.56)">h</text><text class="cls-2" transform="translate(90.88 81.05) rotate(-57.25)">a</text><text class="cls-2" transform="translate(93.77 76.51) rotate(-63.18)">s</text><text class="cls-2" transform="translate(96 72.1) rotate(-69.19)">e</text><path class="cls-3" d="M25.28,60.94v.12c0,7.41,5.36,14.2,13.43,14.2,6.41,0,10.12-4.6,11.39-8.91h0c1.27,4.31,5,8.91,11.39,8.91,8.06,0,13.43-6.79,13.43-14.2,0,0,0-.08,0-.12,0-1.61,0-18-24.8-31.41h0C25.28,42.91,25.24,59.33,25.28,60.94Z"/></svg>