<svg id="Layer_1" data-name="Layer 1" xmlns="http://www.w3.org/2000/svg" viewBox="0 0 102.13 104.09"><defs><style>.cls-1{font-size:13.11px;}.cls-1,.cls-2{fill:#1d1d1b;font-family:Degular-Regular, Degular;}.cls-2{font-size:10.49px;}.cls-3{fill:none;stroke:#1d1d1b;stroke-miterlimit:10;}</style></defs><text class="cls-1" transform="translate(12.78 36.14) rotate(-62.62)">K</text><text class="cls-1" transform="translate(16.01 30.13) rotate(-56.22)">i</text><text class="cls-1" transform="translate(17.25 28.02) rotate(-50.08)">n</text><text class="cls-1" transform="matrix(0.75, -0.66, 0.66, 0.75, 21.35, 23.06)">d</text><text class="cls-1" transform="translate(26.2 18.77) rotate(-32.62)">e</text><text class="cls-1" transform="translate(31.37 15.51) rotate(-25.82)">r</text><text class="cls-1" transform="translate(34.85 13.85) rotate(-21.61)"> </text><text class="cls-1" transform="translate(36.83 13) rotate(-17.23)">t</text><text class="cls-1" transform="translate(40.66 11.7) rotate(-9.99)">o</text><text class="cls-1" transform="translate(47.07 10.66) rotate(-4.03)"> </text><text class="cls-1" transform="translate(49.21 10.43) rotate(0.93)">t</text><text class="cls-1" transform="matrix(0.99, 0.13, -0.13, 0.99, 53.31, 10.37)">h</text><text class="cls-1" transform="translate(59.68 11.17) rotate(16.12)">e</text><text class="cls-1" transform="matrix(0.93, 0.37, -0.37, 0.93, 65.6, 12.97)"> </text><text class="cls-1" transform="translate(67.63 13.64) rotate(27.82)">P</text><text class="cls-1" transform="translate(73.24 16.69) rotate(33.83)">l</text><text class="cls-1" transform="translate(75.24 17.9) rotate(39.53)">a</text><text class="cls-1" transform="translate(79.8 21.59) rotate(47.95)">n</text><text class="cls-1" transform="matrix(0.55, 0.83, -0.83, 0.55, 84.12, 26.33)">e</text><text class="cls-1" transform="translate(87.47 31.44) rotate(63.53)">t</text><text class="cls-2" transform="translate(2.13 62.84) rotate(74.1)">S</text><text class="cls-2" transform="translate(3.81 68.62) rotate(67.54)">a</text><text class="cls-2" transform="translate(5.8 73.41) rotate(61.71)">v</text><text class="cls-2" transform="matrix(0.56, 0.83, -0.83, 0.56, 8.21, 77.9)">e</text><text class="cls-2" transform="translate(11.37 82.46) rotate(49.66)">s</text><text class="cls-2" transform="matrix(0.7, 0.72, -0.72, 0.7, 14.51, 86.09)"> </text><text class="cls-2" transform="matrix(0.75, 0.66, -0.66, 0.75, 16, 87.73)">9</text><text class="cls-2" transform="translate(20.7 91.78) rotate(34.02)">3</text><text class="cls-2" transform="translate(25.66 95.04) rotate(29.38)"> </text><text class="cls-2" transform="matrix(0.9, 0.44, -0.44, 0.9, 27.48, 96.09)">t</text><text class="cls-2" transform="translate(30.88 97.8) rotate(20.6)">o</text><text class="cls-2" transform="matrix(0.97, 0.24, -0.24, 0.97, 36.36, 99.84)">n</text><text class="cls-2" transform="translate(42.03 101.22) rotate(7.15)">n</text><text class="cls-2" transform="matrix(1, 0.02, -0.02, 1, 47.8, 101.91)">e</text><text class="cls-2" transform="translate(53.35 101.97) rotate(-5.21)">s</text><text class="cls-2" transform="translate(58.14 101.48) rotate(-9.18)"> </text><text class="cls-2" transform="matrix(0.97, -0.24, 0.24, 0.97, 60.31, 101.2)">o</text><text class="cls-2" transform="translate(65.78 99.81) rotate(-19.09)">f</text><text class="cls-2" transform="translate(69.26 98.58) rotate(-22.44)"> </text><text class="cls-2" transform="translate(71.35 97.82) rotate(-27.56)">C</text><text class="cls-2" transform="matrix(0.81, -0.58, 0.58, 0.81, 77.46, 94.62)">O</text><text class="cls-2" transform="matrix(0.74, -0.67, 0.67, 0.74, 83.22, 90.36)">2</text><text class="cls-2" transform="translate(86.09 87.73) rotate(-45.47)"> </text><text class="cls-2" transform="translate(87.64 86.23) rotate(-49.66)">a</text><text class="cls-2" transform="translate(90.99 82.2) rotate(-53.87)"> </text><text class="cls-2" transform="matrix(0.53, -0.85, 0.85, 0.53, 92.29, 80.5)">y</text><text class="cls-2" transform="translate(95.04 76.1) rotate(-64.1)">e</text><text class="cls-2" transform="matrix(0.34, -0.94, 0.94, 0.34, 97.44, 71.11)">a</text><text class="cls-2" transform="matrix(0.25, -0.97, 0.97, 0.25, 99.18, 66.12)">r</text><circle class="cls-3" cx="51.11" cy="52.34" r="26"/><path class="cls-3" d="M25.11,51.07a206.62,206.62,0,0,0,26.59,1.4,219.1,219.1,0,0,0,25.41-1.24"/><path class="cls-3" d="M28,40.47c1,1.18,2.6,2.65,4.23,2.58A4,4,0,0,0,35,41.42c.71-.83,1.27-1.8,2.05-2.56a3.29,3.29,0,0,1,3-1,10.37,10.37,0,0,1,2.2,1.27A3.5,3.5,0,0,0,46,38.84a2.83,2.83,0,0,0,.69-3.59c-.76-1.17-2.32-1.49-3.72-1.54-3.14-.11-6.52.6-9.29-.9"/><path class="cls-3" d="M57.71,52.41a1.33,1.33,0,0,0-.45-1.79,3.92,3.92,0,0,0-2-.34c-1.92-.06-4.11-.77-4.8-2.56a4.26,4.26,0,0,1,.12-3,4.91,4.91,0,0,1,2.13-2.63c2-1.07,4.33-.28,6.51.17a4.51,4.51,0,0,0,2.55,0,1.8,1.8,0,0,0,1.19-2c-.25-.84-1.22-1.21-2.09-1.37a12.41,12.41,0,0,0-3.75-.14,3,3,0,0,1-1.27,0,.92.92,0,0,1-.68-1c.14-.7,1.18-.69,1.72-1.17s.45-1.4.86-2,1.37-.81,2.17-1,1.71-.62,1.77-1.43a2.93,2.93,0,0,0-.13-.88,3.2,3.2,0,0,1,.56-2.45"/><path class="cls-3" d="M65.41,52.15a9.08,9.08,0,0,1,1.11-1.73,1.92,1.92,0,0,0,.26-1.94,3.63,3.63,0,0,0-1.17-.95,2.35,2.35,0,0,1-.89-2.9.81.81,0,0,1,.35-.38c.64-.31,1.27.64,2,.57s.88-1,.87-1.64,0-1.54.66-1.79,1.34.47,2,.84c1.15.64,2.57.11,3.78-.43"/><path class="cls-3" d="M43.3,27.54a6.21,6.21,0,0,1,2.49,2.36,3.05,3.05,0,0,0,.76.91,2,2,0,0,0,2.12-.21,16.51,16.51,0,0,1,1.86-1.27,5.56,5.56,0,0,1,2.4-.37,7.24,7.24,0,0,0,2.42-.28,2.19,2.19,0,0,0,1.51-1.76"/><path class="cls-3" d="M40.5,43.52c-1.49-2,5.34-2.85,5.33-.13a8.12,8.12,0,0,0,1.4,4.94c.54.77,1.9,3.72-8.81,1S41.81,45.24,40.5,43.52Z"/><path class="cls-3" d="M29.22,66.06S43.09,65,42,76.43"/><path class="cls-3" d="M73,66.06S59.12,65,60.17,76.43"/></svg>