<svg width="30" height="18" viewBox="0 0 30 18" fill="none" xmlns="http://www.w3.org/2000/svg">
<path d="M28.5946 2.729H23.4336V5.8296H28.5946V2.729Z" stroke="black" stroke-width="0.86532" stroke-miterlimit="10"/>
<path d="M14.8772 0.653198H1.17188V8.44886L1.60031 8.63436C3.43689 9.42527 5.07903 10.607 6.41241 12.0971C7.73623 13.5769 8.7166 15.331 9.28333 17.2339H20.4998C21.0665 15.331 22.0469 13.5769 23.3707 12.0971C24.7045 10.6074 26.3466 9.42582 28.1828 8.63436L28.6135 8.44886V0.653198H14.8772Z" stroke="black" stroke-width="0.86532" stroke-miterlimit="10"/>
<path d="M1.16318 5.82971L6.32422 5.82971V2.72911L1.16318 2.72911V5.82971Z" stroke="black" stroke-width="0.86532" stroke-miterlimit="10"/>
<path d="M1.14062 7.34473L1.1583 8.66977C1.68338 10.5271 2.67118 12.2208 4.02922 13.5923C7.34182 16.9535 9.10854 17.2406 9.10854 17.2406H12.7016" stroke="black" stroke-width="0.86532" stroke-miterlimit="10"/>
<path d="M28.5875 7.34473L28.5721 8.66977C28.0461 10.5267 27.0584 12.2202 25.7012 13.5923C22.3886 16.9535 20.6219 17.2406 20.6219 17.2406H17.0332" stroke="black" stroke-width="0.86532" stroke-miterlimit="10"/>
</svg>
