<svg width="32" height="31" viewBox="0 0 32 31" fill="none" xmlns="http://www.w3.org/2000/svg">
<path d="M22.0939 30.9917H8.98584C6.60338 30.9893 4.31921 30.0445 2.63455 28.3647C0.949903 26.6848 0.00239323 24.407 0 22.0313V8.96037C0.00239323 6.58467 0.949903 4.30694 2.63455 2.62706C4.31921 0.947184 6.60338 0.00238645 8.98584 0H22.0939C24.4764 0.00238645 26.7606 0.947184 28.4453 2.62706C30.1299 4.30694 31.0774 6.58467 31.0798 8.96037V22.0313C31.0774 24.407 30.1299 26.6848 28.4453 28.3647C26.7606 30.0445 24.4764 30.9893 22.0939 30.9917ZM8.98584 3.10549C7.42741 3.10549 5.93282 3.72282 4.83084 4.82167C3.72887 5.92052 3.10979 7.41088 3.10979 8.96489V22.0359C3.10979 23.5899 3.72887 25.0802 4.83084 26.1791C5.93282 27.2779 7.42741 27.8953 8.98584 27.8953H22.0939C23.6524 27.8953 25.147 27.2779 26.2489 26.1791C27.3509 25.0802 27.97 23.5899 27.97 22.0359V8.96489C27.97 7.41088 27.3509 5.92052 26.2489 4.82167C25.147 3.72282 23.6524 3.10549 22.0939 3.10549H8.98584Z" fill="white"/>
<path d="M15.5315 23.3387C13.4451 23.3363 11.4449 22.5088 9.96963 21.0377C8.49436 19.5666 7.6645 17.5721 7.66211 15.4916C7.6645 13.4112 8.49436 11.4166 9.96963 9.94552C11.4449 8.47442 13.4451 7.64692 15.5315 7.64453C17.6178 7.64692 19.6181 8.47442 21.0933 9.94552C22.5686 11.4166 23.3985 13.4112 23.4009 15.4916C23.3985 17.5721 22.5686 19.5666 21.0933 21.0377C19.6181 22.5088 17.6178 23.3363 15.5315 23.3387ZM15.5315 10.2677C14.138 10.2701 12.8023 10.8232 11.817 11.8057C10.8317 12.7882 10.277 14.1201 10.2746 15.5097C10.277 16.8987 10.8318 18.2302 11.8173 19.212C12.8027 20.1938 14.1384 20.7459 15.5315 20.7471C16.9245 20.7459 18.2602 20.1938 19.2457 19.212C20.2312 18.2302 20.7859 16.8987 20.7883 15.5097C20.7894 14.8201 20.6544 14.1371 20.3909 13.4995C20.1273 12.862 19.7405 12.2825 19.2523 11.794C18.7642 11.3056 18.1844 10.9178 17.5459 10.6529C16.9075 10.3879 16.223 10.2509 15.5315 10.2497V10.2677Z" fill="white"/>
<path d="M23.5588 9.08199C24.5723 9.08199 25.3939 8.2627 25.3939 7.25205C25.3939 6.24141 24.5723 5.42212 23.5588 5.42212C22.5453 5.42212 21.7236 6.24141 21.7236 7.25205C21.7236 8.2627 22.5453 9.08199 23.5588 9.08199Z" fill="white"/>
</svg>
