<svg width="55" height="34" viewBox="0 0 55 34" fill="none" xmlns="http://www.w3.org/2000/svg">
<path d="M54.1319 4.84094H44.1641V10.8293H54.1319V4.84094Z" stroke="black" stroke-width="1.56321" stroke-miterlimit="10"/>
<path d="M27.6419 0.832153H1.17188V15.8884L1.99933 16.2467C5.54644 17.7742 8.71801 20.0565 11.2933 22.9346C13.85 25.7925 15.7435 29.1803 16.8381 32.8555H38.5012C39.5957 29.1803 41.4892 25.7925 44.046 22.9346C46.622 20.0574 49.7934 17.7753 53.3399 16.2467L54.1716 15.8884V0.832153H27.6419Z" stroke="black" stroke-width="1.56321" stroke-miterlimit="10"/>
<path d="M1.15716 10.8297L11.125 10.8297V4.84131L1.15716 4.84131V10.8297Z" stroke="black" stroke-width="1.56321" stroke-miterlimit="10"/>
<path d="M1.11719 13.7554L1.15132 16.3145C2.16544 19.9017 4.07325 23.1728 6.69611 25.8217C13.094 32.3134 16.5061 32.8679 16.5061 32.8679H23.4456" stroke="black" stroke-width="1.56321" stroke-miterlimit="10"/>
<path d="M54.1282 13.7554L54.0983 16.3145C53.0825 19.9009 51.1749 23.1717 48.5535 25.8217C42.1557 32.3134 38.7435 32.8679 38.7435 32.8679H31.8125" stroke="black" stroke-width="1.56321" stroke-miterlimit="10"/>
</svg>
