<svg width="45" height="45" viewBox="0 0 45 45" fill="none" xmlns="http://www.w3.org/2000/svg">
<path d="M22.5 43C33.8218 43 43 33.8218 43 22.5C43 11.1782 33.8218 2 22.5 2C11.1782 2 2 11.1782 2 22.5C2 33.8218 11.1782 43 22.5 43Z" stroke="black" stroke-width="2.08427" stroke-miterlimit="10"/>
<path d="M33.4887 28.9062C32.1616 30.5454 30.485 31.8674 28.5815 32.7755C26.678 33.6836 24.5955 34.1549 22.4865 34.1549C20.3774 34.1549 18.295 33.6836 16.3915 32.7755C14.4879 31.8674 12.8114 30.5454 11.4844 28.9062" stroke="black" stroke-width="2.08427" stroke-miterlimit="10"/>
<path d="M18.9353 18.6656C18.53 19.1662 18.018 19.5698 17.4367 19.8471C16.8554 20.1243 16.2196 20.2682 15.5756 20.2682C14.9316 20.2682 14.2957 20.1243 13.7144 19.8471C13.1331 19.5698 12.6211 19.1662 12.2158 18.6656" stroke="black" stroke-width="2.08427" stroke-miterlimit="10"/>
<path d="M32.782 18.6656C32.3767 19.1662 31.8647 19.5698 31.2834 19.8471C30.7021 20.1243 30.0662 20.2682 29.4222 20.2682C28.7782 20.2682 28.1423 20.1243 27.5611 19.8471C26.9798 19.5698 26.4678 19.1662 26.0625 18.6656" stroke="black" stroke-width="2.08427" stroke-miterlimit="10"/>
</svg>
