<svg width="24" height="15" viewBox="0 0 24 15" fill="none" xmlns="http://www.w3.org/2000/svg">
<path d="M22.9814 2.66211H18.8486V5.14493H22.9814V2.66211Z" stroke="white" stroke-width="0.6" stroke-miterlimit="10"/>
<path d="M12.001 1H1.02637V7.24243L1.36944 7.39097C2.84009 8.0243 4.15505 8.97054 5.22276 10.1638C6.28282 11.3487 7.06786 12.7533 7.52167 14.2771H16.5033C16.9572 12.7533 17.7422 11.3487 18.8023 10.1638C19.8703 8.97092 21.1852 8.02474 22.6556 7.39097L23.0004 7.24243V1H12.001Z" stroke="white" stroke-width="0.6" stroke-miterlimit="10"/>
<path d="M1.00984 5.14502L5.14258 5.14502V2.66219L1.00984 2.66219V5.14502Z" stroke="white" stroke-width="0.6" stroke-miterlimit="10"/>
<path d="M1 6.35791L1.01415 7.41895C1.43461 8.9062 2.2256 10.2624 3.31306 11.3607C5.96565 14.0522 7.38037 14.2821 7.38037 14.2821H10.2575" stroke="white" stroke-width="0.6" stroke-miterlimit="10"/>
<path d="M22.9807 6.35791L22.9684 7.41895C22.5472 8.9059 21.7563 10.262 20.6695 11.3607C18.0169 14.0522 16.6022 14.2821 16.6022 14.2821H13.7285" stroke="white" stroke-width="0.6" stroke-miterlimit="10"/>
</svg>
