<svg width="31" height="20" viewBox="0 0 31 20" fill="none" xmlns="http://www.w3.org/2000/svg">
<path d="M30.4319 3.62158H24.8555V6.97176H30.4319V3.62158Z" stroke="black" stroke-width="0.899331" stroke-miterlimit="10"/>
<path d="M15.6142 1.37891H0.805664V9.80208L1.26858 10.0025C3.253 10.8571 5.02732 12.1339 6.46803 13.744C7.89842 15.3429 8.9577 17.2382 9.57005 19.2942H21.6894C22.3018 17.2382 23.361 15.3429 24.7914 13.744C26.2326 12.1344 28.0068 10.8577 29.9909 10.0025L30.4562 9.80208V1.37891H15.6142Z" stroke="black" stroke-width="0.899331" stroke-miterlimit="10"/>
<path d="M0.795598 6.97217L6.37207 6.97217V3.62198L0.795598 3.62198V6.97217Z" stroke="black" stroke-width="0.899331" stroke-miterlimit="10"/>
<path d="M0.774414 8.60889L0.793507 10.0406C1.36086 12.0474 2.42817 13.8774 3.89553 15.3593C7.47478 18.9911 9.38371 19.3013 9.38371 19.3013H13.266" stroke="black" stroke-width="0.899331" stroke-miterlimit="10"/>
<path d="M30.4317 8.60889L30.415 10.0406C29.8467 12.047 28.7795 13.8768 27.313 15.3593C23.7337 18.9911 21.8248 19.3013 21.8248 19.3013H17.9473" stroke="black" stroke-width="0.899331" stroke-miterlimit="10"/>
</svg>
