<svg width="25" height="26" viewBox="0 0 25 26" fill="none" xmlns="http://www.w3.org/2000/svg">
<path d="M12.8467 24.6929C19.2751 24.6929 24.4863 19.4816 24.4863 13.0532C24.4863 6.62482 19.2751 1.41357 12.8467 1.41357C6.41828 1.41357 1.20703 6.62482 1.20703 13.0532C1.20703 19.4816 6.41828 24.6929 12.8467 24.6929Z" stroke="black" stroke-width="0.980067" stroke-miterlimit="10"/>
<path d="M19.0846 16.6909C18.3311 17.6217 17.3792 18.3723 16.2983 18.8879C15.2175 19.4035 14.0352 19.6711 12.8377 19.6711C11.6402 19.6711 10.4578 19.4035 9.37701 18.8879C8.29621 18.3723 7.34429 17.6217 6.59082 16.6909" stroke="black" stroke-width="0.980067" stroke-miterlimit="10"/>
<path d="M10.826 10.876C10.5959 11.1602 10.3051 11.3893 9.9751 11.5468C9.64506 11.7042 9.28404 11.7859 8.91837 11.7859C8.5527 11.7859 8.19165 11.7042 7.86161 11.5468C7.53157 11.3893 7.24085 11.1602 7.01074 10.876" stroke="black" stroke-width="0.980067" stroke-miterlimit="10"/>
<path d="M18.6853 10.876C18.4552 11.1602 18.1645 11.3893 17.8345 11.5468C17.5044 11.7042 17.1434 11.7859 16.7777 11.7859C16.412 11.7859 16.051 11.7042 15.721 11.5468C15.3909 11.3893 15.1002 11.1602 14.8701 10.876" stroke="black" stroke-width="0.980067" stroke-miterlimit="10"/>
</svg>
