<svg width="70" height="38" viewBox="0 0 70 38" fill="none" xmlns="http://www.w3.org/2000/svg">
<path d="M51.7582 37C56.2146 37 59.8271 33.3874 59.8271 28.931C59.8271 24.4747 56.2146 20.8621 51.7582 20.8621C47.3018 20.8621 43.6892 24.4747 43.6892 28.931C43.6892 33.3874 47.3018 37 51.7582 37Z" stroke="black" stroke-width="1.75" stroke-miterlimit="10"/>
<path d="M15.7582 37C20.2145 37 23.8271 33.3874 23.8271 28.931C23.8271 24.4747 20.2145 20.8621 15.7582 20.8621C11.3018 20.8621 7.68921 24.4747 7.68921 28.931C7.68921 33.3874 11.3018 37 15.7582 37Z" stroke="black" stroke-width="1.75" stroke-miterlimit="10"/>
<path d="M43.6892 29.5518H23.8271" stroke="black" stroke-width="1.75" stroke-miterlimit="10"/>
<path d="M59.5253 29.5517H63.2051C64.0069 29.5507 64.7981 29.3642 65.5195 29.0064C66.2409 28.6486 66.8737 28.1287 67.3708 27.4855C67.868 26.8422 68.2165 26.0924 68.3904 25.292C68.5642 24.4916 68.5589 23.6612 68.3747 22.8632L65.2314 16.0682C64.8361 15.0611 64.1552 14.1981 63.2764 13.5899C62.3977 12.9818 61.3612 12.6563 60.3001 12.6554H47.4279L42.3627 3.36162C41.8765 2.63238 41.2232 2.0358 40.4597 1.62417C39.6962 1.21253 38.8458 0.998272 37.9828 1.00001H16.8425C16.0715 1.00145 15.3099 1.17373 14.6103 1.50514C13.9107 1.83655 13.2895 2.31923 12.7899 2.91973L2.74856 15.0168C1.92838 15.9973 1.47931 17.246 1.48244 18.5363V24.0974C1.48048 24.813 1.61649 25.5219 1.8829 26.1836C2.14931 26.8452 2.54074 27.4465 3.03481 27.9532C3.52889 28.4599 4.11587 28.8619 4.76213 29.1362C5.40839 29.4105 6.10146 29.5517 6.80116 29.5517H7.56098" stroke="black" stroke-width="1.75" stroke-miterlimit="10"/>
</svg>
