<svg width="41" height="57" viewBox="0 0 41 57" fill="none" xmlns="http://www.w3.org/2000/svg">
<path d="M25 51H16V56H25V51Z" stroke="black" stroke-width="1.5" stroke-miterlimit="10"/>
<path d="M1 19.7068C1 30.2949 20.4941 47 20.4941 47C20.4941 47 40 30.2949 40 19.7068C39.8744 14.7034 37.7649 9.94648 34.1216 6.45141C30.4783 2.95633 25.5901 1 20.5001 1C15.4102 1 10.5217 2.95633 6.87842 6.45141C3.23513 9.94648 1.12556 14.7034 1 19.7068V19.7068Z" stroke="black" stroke-width="1.5" stroke-miterlimit="10"/>
<path d="M20 1C-11.5 11.8296 20 47 20 47" stroke="black" stroke-width="1.5" stroke-miterlimit="10"/>
<path d="M20 47C20 47 4.25 15.2739 20 1" stroke="black" stroke-width="1.5" stroke-miterlimit="10"/>
<path d="M20 1V51" stroke="black" stroke-width="1.5" stroke-miterlimit="10"/>
<path d="M20 1C53.75 11.8296 20 47 20 47" stroke="black" stroke-width="1.5" stroke-miterlimit="10"/>
<path d="M20 47C20 47 38 15.2739 20 1" stroke="black" stroke-width="1.5" stroke-miterlimit="10"/>
</svg>
