<svg width="51" height="44" viewBox="0 0 51 44" fill="none" xmlns="http://www.w3.org/2000/svg">
<path d="M22.5416 20.6387C24.2336 20.6581 25.9018 20.2401 27.3846 19.425C28.8674 18.6099 30.1146 17.4255 31.005 15.9866C31.8953 14.5477 32.3988 12.9032 32.4665 11.2125C32.5342 9.52181 32.1637 7.84229 31.3913 6.33684C30.6188 4.83139 29.4703 3.55116 28.0574 2.62016C26.6445 1.68915 25.0152 1.13894 23.3271 1.02305C21.639 0.907169 19.9495 1.22958 18.4226 1.95878C16.8958 2.68798 15.5832 3.79928 14.6123 5.18505" stroke="black" stroke-width="1.5" stroke-miterlimit="10"/>
<path d="M1 27.9544C2.19129 28.7747 3.53461 29.3484 4.95088 29.642C6.36714 29.9357 7.82777 29.9432 9.24698 29.6642C10.6662 29.3852 12.0153 28.8252 13.2149 28.0172C14.4146 27.2092 15.4406 26.1696 16.2326 24.9594" stroke="black" stroke-width="1.5" stroke-miterlimit="10"/>
<path d="M29.6729 4.71863C40.9041 4.71863 49.9996 11.8255 49.9996 23.0568V30.1025" stroke="black" stroke-width="1.5" stroke-miterlimit="10"/>
<path d="M22.5419 1.10999H18.8595C15.6041 1.10999 12.4821 2.40307 10.1801 4.705C7.8782 7.00693 6.58496 10.1291 6.58496 13.3846V38.8543H11.9245V28.6418" stroke="black" stroke-width="1.5" stroke-miterlimit="10"/>
<path d="M46.4531 20.7493V42.8435H37.5295V33.6989C33.3917 34.6317 29.0981 34.6317 24.9603 33.6989V42.8435H16.0244V20.7493" stroke="black" stroke-width="1.5" stroke-miterlimit="10"/>
<path d="M24.8008 40.6709H28.4463V34.3495" stroke="black" stroke-width="1.5" stroke-miterlimit="10"/>
<path d="M37.6768 40.6709H34.0312V34.3495" stroke="black" stroke-width="1.5" stroke-miterlimit="10"/>
<path d="M11.1016 16.9933C11.305 16.9933 11.4699 16.8284 11.4699 16.6251C11.4699 16.4217 11.305 16.2568 11.1016 16.2568C10.8983 16.2568 10.7334 16.4217 10.7334 16.6251C10.7334 16.8284 10.8983 16.9933 11.1016 16.9933Z" stroke="black" stroke-width="1.5" stroke-miterlimit="10"/>
</svg>
