<svg width="64" height="40" viewBox="0 0 64 40" fill="none" xmlns="http://www.w3.org/2000/svg">
<path d="M62.4858 5.65173H50.9209V12.5996H62.4858V5.65173Z" stroke="black" stroke-width="1.75" stroke-miterlimit="10"/>
<path d="M31.7471 1H1.03601V18.4686L1.99604 18.8843C6.11148 20.6565 9.7912 23.3045 12.7791 26.6437C15.7455 29.9596 17.9423 33.8901 19.2123 38.1542H44.3463C45.6162 33.8901 47.813 29.9596 50.7795 26.6437C53.7683 23.3056 57.4477 20.6578 61.5625 18.8843L62.5275 18.4686V1H31.7471Z" stroke="black" stroke-width="1.75" stroke-miterlimit="10"/>
<path d="M1.02103 12.5995L12.5859 12.5995V5.65162L1.02103 5.65162V12.5995Z" stroke="black" stroke-width="1.75" stroke-miterlimit="10"/>
<path d="M0.96875 15.9943L1.00835 18.9634C2.18496 23.1253 4.39843 26.9206 7.44154 29.9939C14.8645 37.5257 18.8233 38.169 18.8233 38.169H26.8747" stroke="black" stroke-width="1.75" stroke-miterlimit="10"/>
<path d="M62.4712 15.9943L62.4366 18.9634C61.258 23.1245 59.0448 26.9192 56.0034 29.9939C48.5805 37.5257 44.6216 38.169 44.6216 38.169H36.5801" stroke="black" stroke-width="1.75" stroke-miterlimit="10"/>
</svg>
