<svg width="182" height="38" viewBox="0 0 182 38" fill="none" xmlns="http://www.w3.org/2000/svg">
<g clip-path="url(#clip0_1_4168)">
<path fill-rule="evenodd" clip-rule="evenodd" d="M48.9685 21.4038C47.2277 20.6036 46.1334 20.3033 45.1377 20.3033C44.0434 20.3033 43.3467 20.7026 43.3467 21.3526C43.3467 23.198 49.5156 22.6511 49.5156 26.9483C49.5156 29.2969 47.5752 30.6449 44.8378 30.6449C42.6985 30.6449 41.6552 30.0947 40.4598 29.4463V26.7982C42.2006 27.9968 43.2465 28.3961 44.5897 28.3961C45.7842 28.3961 46.3806 27.9968 46.3806 27.2461C46.3806 25.2489 40.2117 25.9996 40.2117 21.6018C40.2117 19.4536 42.0027 18.0545 44.8395 18.0545C46.1827 18.0545 47.429 18.3539 48.9693 19.0535V21.4021L48.9685 21.4038ZM58.371 28.8952C58.1204 28.8952 57.9233 28.7467 57.9233 28.3474V24.5468C57.9233 22.7476 56.5308 22.048 54.4408 22.048C53.1934 22.0415 51.9695 22.3877 50.909 23.047V25.144C51.7051 24.3455 52.8987 23.7952 53.9437 23.7952C55.0389 23.7952 55.3864 24.3941 55.3371 25.144C51.9039 26.2429 50.4612 26.6421 50.4612 28.5907C50.4612 29.64 51.4561 30.639 52.7492 30.639C53.6455 30.639 54.4909 30.3874 55.4849 29.6895C55.6344 30.3908 56.0822 30.639 56.9284 30.639C57.625 30.639 58.6191 30.3396 59.3659 29.8891V28.4422C58.7686 28.8381 58.5698 28.8893 58.371 28.8893V28.8952ZM55.3371 28.4959C54.9394 28.844 54.3906 29.0956 53.9437 29.0956C53.8337 29.097 53.7245 29.0764 53.6223 29.0353C53.5202 28.9941 53.4272 28.933 53.3486 28.8556C53.2701 28.7782 53.2075 28.686 53.1646 28.5842C53.1216 28.4825 53.0991 28.3732 53.0984 28.2627V28.2459C53.0984 27.3987 53.795 27.0473 55.3371 26.4995V28.4959ZM59.0125 22.2049H61.7992L63.5409 26.7503L65.3327 22.2049H68.0684L64.2868 30.6474H62.8442L59.0125 22.2049ZM71.1023 26.7503H77.0223C77.1217 23.7541 75.1319 22.053 72.7437 22.053C70.2068 22.053 68.4159 23.8531 68.4159 26.4006C68.4159 28.948 70.3062 30.6457 73.1923 30.6457C73.8397 30.6457 75.3817 30.6457 76.8736 29.5469V27.8978C75.6298 28.7962 74.8337 29.0965 73.7896 29.0965C72.1966 29.0965 71.2 28.2468 71.1023 26.7478V26.7503ZM72.94 23.6032C73.9349 23.6032 74.6324 24.2541 74.731 25.4007H71.1491C71.2552 24.2516 71.9034 23.6006 72.9475 23.6006L72.94 23.6032ZM88.8606 24.0024H85.876V27.3987C85.876 28.1973 86.3237 28.7484 87.1198 28.7484C87.6669 28.7484 88.164 28.5965 88.8606 28.2451V30.1441C87.9643 30.4948 87.2685 30.6474 86.4716 30.6474C84.7307 30.6474 83.238 29.8489 83.238 27.5489V24.0024H82.0944V23.4991L85.5268 19.6029H85.876V22.2032H88.8606V24.0024ZM92.4417 23.453H92.4926C93.2386 22.5052 94.084 22.0547 95.129 22.0547C96.6209 22.0547 98.1153 22.9539 98.1153 25.2044V30.499H95.5257V25.753C95.5257 24.504 95.0245 23.9538 94.1825 23.9538C93.5853 23.9538 93.0882 24.3547 92.4417 25.2044V30.499H89.8522V18.2558H92.4417V23.4505V23.453ZM102.194 26.7503H108.113C108.213 23.7541 106.223 22.053 103.835 22.053C101.297 22.053 99.5069 23.8531 99.5069 26.4006C99.5069 28.948 101.345 30.6457 104.283 30.6457C104.931 30.6457 106.471 30.6457 107.965 29.5469V27.8978C106.721 28.7962 105.924 29.0965 104.879 29.0965C103.248 29.0956 102.25 28.2459 102.202 26.7478L102.194 26.7503ZM104.032 23.6032C105.028 23.6032 105.674 24.2541 105.824 25.4007H102.246C102.35 24.2516 102.998 23.6006 104.04 23.6006L104.032 23.6032ZM125.675 29.4488C123.983 30.296 122.689 30.6474 120.9 30.6474C116.123 30.6474 113.786 27.5489 113.786 24.4025C113.786 21.1564 116.473 18.0578 121.099 18.0578C122.839 18.0578 124.331 18.4571 125.526 19.1567V21.9046C124.182 21.1555 122.839 20.6053 121.349 20.6053C118.76 20.6053 116.922 22.1537 116.922 24.353C116.922 26.5524 118.711 28.0983 121.249 28.0983C122.843 28.0983 123.935 27.595 125.676 26.7495V29.4488H125.675ZM130.053 23.453H130.102C130.849 22.5052 131.696 22.0547 132.739 22.0547C134.233 22.0547 135.724 22.9539 135.724 25.2044V30.499H133.135V25.753C133.135 24.504 132.589 23.9538 131.793 23.9538C131.197 23.9538 130.697 24.3547 130.053 25.2044V30.499H127.463V18.2558H130.053V23.4505L130.053 23.453ZM137.565 22.2049H140.154V30.4981H137.565V22.2049ZM140.301 19.5073C140.301 19.8914 140.148 20.2596 139.878 20.5312C139.607 20.8027 139.24 20.9554 138.858 20.9559C138.475 20.9554 138.109 20.8027 137.838 20.5311C137.568 20.2595 137.416 19.8913 137.415 19.5073C137.416 19.1231 137.568 18.7548 137.838 18.4831C138.109 18.2114 138.475 18.0585 138.858 18.0578C139.048 18.0569 139.236 18.0937 139.412 18.166C139.588 18.2382 139.748 18.3446 139.882 18.479C140.017 18.6134 140.124 18.7732 140.198 18.9492C140.271 19.1252 140.309 19.314 140.31 19.5048L140.301 19.5073ZM142.042 18.2583H144.632V30.4981H142.042V18.2583ZM152.191 18.2583V22.5546C151.527 22.2182 150.793 22.0456 150.05 22.0514C147.664 22.0514 146.022 23.8003 146.022 26.3477C146.022 28.7953 147.664 30.6441 149.903 30.6441C150.797 30.6441 151.443 30.3924 152.19 29.8455V30.4956H154.779V18.2558L152.191 18.2583ZM152.191 28.2484C151.644 28.6989 151.196 28.8994 150.65 28.8994C149.454 28.8994 148.659 27.9003 148.659 26.4022C148.659 24.7532 149.454 23.8019 150.747 23.8019C151.196 23.8019 151.793 24.0016 152.191 24.2524V28.2484ZM159.207 24.6022H159.258C160.003 22.8533 160.898 22.0539 161.895 22.0539C162.397 22.0539 162.838 22.2544 163.586 22.8038L162.889 25.1021C162.193 24.6517 161.744 24.5007 161.347 24.5007C160.401 24.5007 159.804 25.399 159.207 26.8997V30.4973H156.618V22.1982H159.207V24.6022ZM166.475 26.7503H172.396C172.544 23.7541 170.553 22.053 168.117 22.053C165.58 22.053 163.787 23.8531 163.787 26.4006C163.787 28.948 165.679 30.6457 168.564 30.6457C169.211 30.6457 170.753 30.6457 172.245 29.5469V27.8978C171.051 28.7962 170.255 29.0965 169.21 29.0965C167.569 29.0956 166.577 28.2459 166.478 26.7478L166.475 26.7503ZM168.312 23.6032C169.306 23.6032 170.003 24.2541 170.102 25.4007H166.519C166.62 24.2541 167.315 23.6032 168.312 23.6032ZM176.322 23.4044C177.117 22.454 177.913 22.0547 179.007 22.0547C180.251 22.0547 181.993 22.8046 181.993 25.2044V30.499H179.404V25.4527C179.404 24.2541 178.856 23.8036 178.109 23.8036C177.463 23.8036 176.964 24.1534 176.319 25.1524V30.4981H173.73V22.2049H176.319V23.4044H176.322ZM33.3904 10.0674C35.0326 8.36964 35.7778 7.61975 35.6784 7.12066C35.5781 6.77004 35.2306 6.47143 34.7336 6.22063C34.1856 5.96899 33.3904 5.82136 32.9928 6.02183C32.8432 6.07216 32.5952 6.32128 32.0464 6.8707L31.5493 7.37398C31.2503 7.02336 30.9521 6.72474 30.653 6.42445C28.4587 4.20783 25.6803 2.66562 22.6438 1.97879C21.4994 0.579667 19.9566 -0.118216 18.3653 0.0302525C17.0221 0.13007 15.7757 0.829639 14.8819 2.02913C11.6721 2.79407 8.72043 4.39684 6.32562 6.67525C5.87789 6.47478 4.73266 6.62492 4.03766 6.92689C3.64004 7.12821 3.39027 7.37734 3.34098 7.6273C3.24074 7.87894 3.34099 8.17588 4.13622 9.22103C1.69789 12.5687 0.454083 16.6646 0.653727 20.7621C0.853372 24.9083 2.54408 28.8046 5.42932 31.7026C6.47515 32.7528 7.56776 33.6512 8.81157 34.3507C10.6025 35.4009 12.6424 36.1483 14.7825 36.5987C19.1185 37.509 23.6328 36.9485 27.6174 35.005V34.9538C28.1186 34.7534 28.3158 34.2048 28.1186 33.6554L28.0685 33.5044C27.2724 31.3067 24.8349 24.6131 26.8247 18.8681C27.67 16.4196 29.8093 13.9192 31.6003 11.974C33.1924 14.872 33.8891 18.218 33.5408 21.4659C33.1933 24.5133 31.9996 27.3107 30.0081 29.5587C29.9588 29.6073 29.9588 29.708 29.9588 29.8103V29.9084L30.1084 30.3589C30.1585 30.5099 30.308 30.5594 30.4575 30.5594C30.5044 30.5661 30.5522 30.5603 30.5962 30.5426C30.6402 30.525 30.6788 30.496 30.7081 30.4587C35.8329 24.8135 36.9272 16.5706 33.3954 10.0758L33.3904 10.0674ZM11.5991 22.6067C11.0979 24.8043 10.3544 27.8014 10.504 32.398C9.32418 31.7076 8.2377 30.8678 7.27123 29.8992C4.63408 27.2025 2.94336 23.7567 2.54575 20.0592C2.19658 16.5614 2.99265 13.0133 4.88468 10.1664C5.43182 10.8659 6.1786 11.6645 6.92455 12.515C8.7155 14.612 10.8055 16.9607 11.7494 18.6106C12.3525 19.5551 12.0535 20.7026 11.6058 22.6016L11.5991 22.6067ZM29.659 9.16818C25.778 12.5142 22.2454 14.2639 19.1121 14.3126C16.723 14.3126 14.2362 13.4142 11.7987 11.6645C9.71039 10.2167 8.16754 8.51727 7.27206 7.51741L7.17266 7.4176C9.05762 5.61928 11.3981 4.37513 13.9389 3.82081C13.622 4.80322 13.5036 5.83924 13.5905 6.86818C13.74 8.81672 14.5854 10.5145 15.9294 11.6636C16.9736 12.5125 18.2191 12.9126 19.4612 12.8136C20.7034 12.7146 21.8494 12.0637 22.7449 11.0656C23.8392 9.7176 24.388 7.86804 24.2368 5.96983L24.0873 4.91964C25.8488 5.74378 27.4494 6.87751 28.8136 8.26731C29.1126 8.51895 29.3608 8.8184 29.6598 9.16818H29.659Z" fill="black"/>
</g>
<defs>
<clipPath id="clip0_1_4168">
<rect width="181.36" height="37.0122" fill="white" transform="translate(0.640137)"/>
</clipPath>
</defs>
</svg>
