<svg width="150" height="26" viewBox="0 0 150 26" fill="none" xmlns="http://www.w3.org/2000/svg">
<path d="M149.022 4.30349C149.024 4.9079 148.857 5.49952 148.54 6.0034C148.224 6.50728 147.773 6.90073 147.244 7.13392C146.715 7.36712 146.133 7.42956 145.57 7.31332C145.008 7.19708 144.491 6.90741 144.085 6.481C143.679 6.05459 143.402 5.51062 143.289 4.91802C143.176 4.32542 143.233 3.71087 143.452 3.1522C143.67 2.59353 144.041 2.11588 144.518 1.7798C144.994 1.44372 145.554 1.26432 146.127 1.26432C146.51 1.25095 146.891 1.32032 147.247 1.46814C147.603 1.61596 147.926 1.83911 148.197 2.12384C148.469 2.40857 148.682 2.74884 148.824 3.1237C148.965 3.49856 149.033 3.90007 149.022 4.30349ZM147.712 5.96582C148.105 5.5105 148.323 4.91692 148.323 4.30119C148.323 3.68545 148.105 3.09187 147.712 2.63655C147.291 2.21344 146.732 1.97741 146.151 1.97741C145.57 1.97741 145.011 2.21344 144.59 2.63655C144.194 3.09041 143.975 3.68454 143.975 4.30119C143.975 4.91783 144.194 5.51196 144.59 5.96582C145.011 6.38893 145.57 6.62499 146.151 6.62499C146.732 6.62499 147.291 6.38893 147.712 5.96582ZM146.813 5.75863L146.717 5.10933C146.66 4.72713 146.538 4.58899 146.136 4.58899H145.651V5.75863H144.988V2.62733H146.446C147.092 2.62733 147.441 2.98651 147.441 3.50225C147.438 3.70142 147.368 3.89295 147.244 4.04354C147.121 4.19413 146.951 4.29424 146.765 4.32651C147.144 4.40479 147.289 4.63504 147.367 5.05408L147.498 5.75863H146.813ZM145.651 3.22598V4.14694H146.311C146.647 4.14694 146.848 3.96275 146.848 3.68646C146.848 3.41017 146.66 3.22598 146.297 3.22598H145.651Z" fill="black"/>
<path d="M8.49207 1.15356H0V25.2368H3.33571V17.7632H8.52264C14.3295 17.7632 17.9403 14.4569 17.9403 9.12912C17.9054 4.05921 14.4649 1.15356 8.49207 1.15356ZM14.6352 9.65405C14.6352 13.1491 12.4521 14.9957 8.27814 14.9957H3.33571V4.40457H8.217C12.5962 4.40917 14.6352 6.0761 14.6352 9.65405Z" fill="black"/>
<path d="M72.6968 15.3092C72.4453 17.1821 71.677 18.9357 70.4875 20.3515C69.3524 21.6454 67.702 22.2717 65.4403 22.2717C60.7642 22.2717 57.9699 18.8779 57.9699 13.1956C57.9699 7.84938 61.1048 4.11488 65.5931 4.11488C67.7413 4.11488 69.2912 4.68127 70.3347 5.8463C71.4722 7.17893 72.2462 8.81155 72.5746 10.5708L72.6138 10.755L75.9364 9.7788L75.8971 9.60843C74.4913 3.78333 71.0246 0.827026 65.5931 0.827026C58.3803 0.827026 54.608 7.04814 54.608 13.1956C54.608 19.1818 57.4547 25.5595 65.4403 25.5595C72.6575 25.5595 75.1942 20.3561 76.0543 15.9953L76.0893 15.8111L72.723 15.125L72.6968 15.3092Z" fill="black"/>
<path d="M93.3468 11.648H81.5234V1.15356H78.1877V25.2368H81.5234V14.4155H93.3468V25.2368H96.6825V1.15356H93.3468V11.648Z" fill="black"/>
<path d="M103.15 1.15356H99.8191V25.2368H103.15V1.15356Z" fill="black"/>
<path d="M42.8694 1.15356L33.7661 25.2368H37.259L39.9747 17.7908H49.3094L52.0295 25.2368H55.5748L46.4715 1.15356H42.8694ZM44.6508 4.71769L45.524 7.4115L48.362 15.0877H40.9789L43.7688 7.43452L44.6508 4.71769Z" fill="black"/>
<path d="M22.6946 21.2444C20.2234 19.7524 19.9484 16.2758 21.6337 14.0701C21.7516 13.9365 21.8694 13.8076 21.996 13.6786C22.6097 14.5658 23.427 15.2741 24.3712 15.737C26.6503 16.7961 29.5057 17.0402 31.4093 14.9219C32.9288 13.1537 32.1647 10.4046 30.3702 9.25341C28.4055 7.84894 25.6592 7.84894 23.5635 8.76991H23.5417C23.5676 8.13259 23.7169 7.50761 23.9804 6.93346C24.244 6.35931 24.6162 5.84813 25.0741 5.43141C27.6938 2.85271 32.1822 3.89801 34.0378 6.9372L36.9412 4.69004C35.8943 3.34808 34.5734 2.27294 33.0772 1.54494C31.7851 0.92536 30.3803 0.610936 28.961 0.623662C27.5417 0.636389 26.1421 0.975946 24.8602 1.6186C22.4326 2.94019 20.6076 5.56954 20.4941 8.52584C20.4811 9.21626 20.5471 9.90583 20.6906 10.5796C15.1194 15.4147 16.8571 24.3204 25.144 25.6512C28.1042 26.1715 31.2085 25.0249 33.4832 23.0495L31.1256 20.1991C30.0241 21.3256 28.6017 22.0383 27.0779 22.2273C25.5541 22.4162 24.0137 22.0708 22.6946 21.2444ZM27.8684 11.4315C28.4317 11.5881 29.6149 12.2558 29.1783 12.8912C28.948 13.1182 28.6595 13.2687 28.3487 13.3241C27.628 13.4577 26.8868 13.3912 26.1979 13.1312C25.509 12.8713 24.896 12.4267 24.4192 11.8413C25.4835 11.2669 26.7097 11.1213 27.8684 11.4315Z" fill="black"/>
<path d="M132.337 4.05052C135.537 4.05052 137.533 5.22016 139.214 8.09357L139.314 8.25934L142.217 5.95693L142.121 5.80957C139.803 2.36516 136.782 0.744263 132.616 0.744263C126.919 0.744263 124.369 4.23012 124.369 7.68374C124.369 12.6938 128.77 13.5641 132.306 14.264C135.481 14.8488 138.759 15.4521 138.759 18.3761C138.759 20.7338 136.856 22.2534 133.909 22.2534C130.647 22.2534 128.403 21.0239 126.408 18.1367L126.299 17.9847L123.544 20.3884L123.631 20.5266C125.762 23.8283 129.228 25.5919 133.673 25.5919C138.72 25.5919 141.969 22.7784 141.969 18.4222C141.969 13.2602 137.292 12.3853 133.861 11.7406C130.368 11.0637 127.578 10.5295 127.578 7.76201C127.578 5.51025 129.447 4.05052 132.337 4.05052Z" fill="black"/>
<path d="M112.251 5.54634C114.543 3.1196 118.892 3.51102 120.8 6.24628L123.52 3.73665C122.498 2.69083 121.272 1.8939 119.926 1.402C117.023 0.28763 112.779 0.61917 110.26 3.40969C109.314 4.36567 108.631 5.57326 108.282 6.90494C107.933 8.23661 107.931 9.64294 108.278 10.9754C107.771 11.4344 107.299 11.9348 106.867 12.472C106.021 13.6207 105.481 14.9865 105.301 16.4287C105.121 17.871 105.309 19.3376 105.846 20.6778C107.195 23.9012 110.334 25.3471 113.133 25.6924C116.093 26.0885 119.14 24.8406 121.337 22.7914L118.909 20.0561C117.845 21.2247 116.449 21.9954 114.932 22.2513C113.415 22.5073 111.861 22.2345 110.504 21.4744C107.941 20.093 107.514 16.6025 109.133 14.3093C109.286 14.1251 109.448 13.9409 109.614 13.7567C110.431 14.8304 111.525 15.6323 112.765 16.066C114.004 16.4998 115.335 16.547 116.599 16.2019C121.424 14.6547 119.944 9.10125 115.416 8.47039C113.822 8.21097 112.192 8.47969 110.749 9.23942C110.749 9.1243 110.749 9.00456 110.749 8.88484C110.826 7.61022 111.363 6.41527 112.251 5.54634ZM115.015 11.3024C115.652 11.353 116.713 11.8457 116.909 12.4213C116.949 12.5117 116.962 12.6125 116.948 12.7109C116.933 12.8093 116.891 12.9009 116.826 12.9739C115.975 13.8949 114.272 13.6693 113.133 13.1811C112.572 12.9355 112.085 12.5346 111.722 12.0207C112.714 11.4049 113.873 11.1569 115.015 11.3162V11.3024Z" fill="black"/>
</svg>
