<svg width="67" height="62" viewBox="0 0 67 62" fill="none" xmlns="http://www.w3.org/2000/svg">
<path d="M18.8306 61.25C26.5938 61.25 31.3145 56.3978 33.5058 51.2743C35.6657 56.4 40.4645 61.25 48.1851 61.25C59.5125 61.25 66.2625 51.5214 66.2454 42.1429V42.0114C66.2882 40.3932 66.111 34.6415 62.1892 27.0749C56.9234 16.8791 47.4207 8.07805 33.8798 0.779929L33.8243 0.75H33.7612H33.3954L33.3476 0.661137L33.1829 0.75H32.85L32.9209 0.891688C17.0484 9.5021 8.98728 19.135 4.90401 26.9409C0.807582 34.7719 0.723234 40.7477 0.753357 41.9774V42.025V42.1602C0.753357 51.5214 7.4947 61.25 18.8306 61.25ZM34.2544 48.7554L34.2007 48.5727L34.0102 48.576L33.0222 48.5929L32.8384 48.596L32.7866 48.7724C31.2274 54.0775 26.7491 59.7108 18.8559 59.7108C8.52338 59.7108 2.3343 50.8123 2.3343 42.118V42.0081H2.33439L2.33422 42.0017C2.30549 40.8807 2.3763 35.1802 6.32856 27.6577C10.2697 20.1564 18.079 10.8268 33.5331 2.41664C48.9831 10.831 56.7924 20.1606 60.7335 27.663C64.6859 35.1867 64.7565 40.8891 64.7237 42.0178L64.7236 42.0178V42.025V42.1602C64.7236 50.7944 58.51 59.694 48.1851 59.694C40.2919 59.694 35.8136 54.0605 34.2544 48.7554Z" fill="black" stroke="black" stroke-width="0.5"/>
</svg>
