<svg width="60" height="61" viewBox="0 0 60 61" fill="none" xmlns="http://www.w3.org/2000/svg">
<path d="M30.0037 1C22.1818 1.00969 14.683 4.12119 9.15212 9.6521C3.62121 15.183 0.509687 22.6818 0.5 30.5037C0.50969 38.3249 3.62145 45.8229 9.15257 51.3526C14.6837 56.8824 22.1825 59.9923 30.0037 60C37.8249 59.9923 45.3237 56.8824 50.8548 51.3526C56.3859 45.8229 59.4977 38.3249 59.5074 30.5037C59.4977 22.6818 56.3861 15.183 50.8552 9.6521C45.3243 4.12119 37.8256 1.00969 30.0037 1ZM58.5556 28.8198C55.2904 29.2225 51.2346 29.5519 46.7542 29.7716C46.8786 29.5812 47.0177 29.3909 47.1641 29.2005C47.3105 29.0102 47.4789 28.7759 47.618 28.5636C47.9088 28.1931 48.0909 27.7491 48.1439 27.2811C48.1969 26.8131 48.1187 26.3395 47.9182 25.9134C47.6411 25.5078 47.2691 25.1761 46.8347 24.947C46.7175 24.8738 46.6004 24.8006 46.4906 24.72C45.6706 24.1417 45.1289 22.941 45.6194 22.0698C45.6615 21.9764 45.7302 21.8974 45.8171 21.8429C45.9781 21.7624 46.1978 21.8868 46.5492 22.0918C46.9321 22.3691 47.3942 22.5155 47.8669 22.5091C48.9212 22.4066 49.2653 21.2133 49.2433 20.225C49.2433 19.5807 49.2433 18.8267 49.6972 18.6583C50.1511 18.4899 50.3634 18.7608 50.9052 19.1488C51.1101 19.2952 51.3225 19.4489 51.5275 19.5661C52.9331 20.3494 54.5803 19.815 56.1543 19.1122L55.781 18.2776C54.4266 18.8779 53.0283 19.3538 51.9813 18.7681C51.793 18.658 51.612 18.5357 51.4396 18.4021C50.8686 17.9994 50.1731 17.4942 49.3678 17.809C48.2916 18.2336 48.3208 19.6393 48.3282 20.2396C48.3355 20.8399 48.2037 21.5574 47.7718 21.6013C47.5048 21.5704 47.2515 21.4665 47.0397 21.3011C46.8197 21.1193 46.5561 20.998 46.275 20.9492C45.9938 20.9004 45.7047 20.9258 45.4364 21.0229C45.1807 21.156 44.9733 21.366 44.8434 21.6233C44.1113 22.963 44.8434 24.6615 45.9781 25.4668L46.3735 25.7231C46.6806 25.8781 46.9484 26.1008 47.1568 26.3746C47.5082 26.9822 47.025 27.8388 46.8713 28.0658C46.7175 28.2927 46.6004 28.4611 46.454 28.6515C46.1683 29.0143 45.9228 29.407 45.7219 29.8228C43.284 29.9326 40.7143 30.0205 38.0495 30.0717C38.1123 29.6989 38.0615 29.3159 37.9034 28.9724C37.7454 28.629 37.4876 28.3411 37.1636 28.1463C36.4824 27.8101 35.7257 27.6561 34.9673 27.6997H34.733C32.8003 27.6485 30.4869 26.9676 29.784 25.13C29.4717 24.1547 29.5211 23.0996 29.9231 22.1577C30.308 21.0232 31.0874 20.0645 32.1194 19.4562C33.8472 18.5118 35.9849 19.0023 38.0568 19.4562L39.0817 19.6832C40.0982 19.9711 41.1764 19.9584 42.1858 19.6466C42.7491 19.4483 43.2216 19.053 43.5163 18.5337C43.8109 18.0143 43.9078 17.4059 43.7891 16.8207C43.5109 15.8909 42.5812 15.2467 41.1096 14.9685C39.6811 14.6981 38.2197 14.6462 36.7756 14.8147H36.6438C36.2811 14.884 35.9085 14.884 35.5457 14.8147C35.3041 14.7342 35.0552 14.4926 35.0991 14.2803C35.143 14.068 35.37 13.9582 35.8312 13.7678C36.2008 13.6478 36.5456 13.4618 36.8488 13.2188C37.2365 12.8168 37.4919 12.3059 37.5809 11.7546C37.6375 11.4466 37.7438 11.1498 37.8957 10.876C38.3979 10.3713 39.0668 10.0668 39.7772 10.0195L40.0408 9.96091C41.4318 9.65343 42.303 8.89936 42.3762 7.94763C42.3922 7.6535 42.3575 7.35881 42.2737 7.07643C42.2737 7.00322 42.2737 6.92269 42.2224 6.84948C42.0931 6.12375 42.2282 5.3757 42.6031 4.74103C47.1596 6.98617 51.037 10.4028 53.8377 14.6405C56.6384 18.8782 58.2616 23.7845 58.541 28.8564L58.5556 28.8198ZM25.4793 11.125C24.7033 9.917 23.1805 9.27274 20.9622 9.19221C20.0032 9.19221 19.0148 9.19221 18.0338 9.19221C15.7277 9.27274 13.5314 9.34594 11.5767 8.58456C14.4176 6.18337 17.7004 4.36044 21.2404 3.21824C22.2467 3.78901 23.085 4.61469 23.671 5.61223L23.7588 5.75133C23.9861 6.1444 24.2898 6.48794 24.652 6.76163C24.9853 6.9775 25.3751 7.08961 25.7721 7.08376C26.3921 7.0629 26.9946 6.87304 27.5145 6.53468C27.8114 6.34331 28.0973 6.13553 28.3711 5.91237C28.7292 5.6114 29.1196 5.35113 29.5351 5.13634C30.3321 4.83914 31.1825 4.712 32.0316 4.76301H32.1414C33.0718 4.81808 34.0044 4.70396 34.8941 4.42623C35.3123 4.28196 35.6944 4.04891 36.0141 3.7431C36.3338 3.43729 36.5836 3.06597 36.7463 2.65456C38.4347 3.06589 40.0816 3.632 41.666 4.34571C41.2157 5.15909 41.0629 6.104 41.2341 7.01785C41.2341 7.1057 41.2341 7.19359 41.2927 7.28144C41.3458 7.47215 41.3729 7.66915 41.3732 7.86711C41.322 8.49672 40.502 8.89206 39.7479 9.06044L39.4917 9.11898C38.6059 9.30932 37.6029 9.52164 37.0392 10.3636C36.8264 10.7213 36.6754 11.1124 36.5926 11.5203C36.5459 11.89 36.3934 12.2383 36.1533 12.5233C35.9322 12.6883 35.6846 12.8145 35.4212 12.8966C34.8941 13.1016 34.2279 13.3652 34.0888 14.09C34.0488 14.4388 34.1354 14.7904 34.333 15.0807C34.5305 15.3709 34.8258 15.5805 35.165 15.6713C35.6451 15.7844 36.1431 15.7994 36.6292 15.7152H36.7536C38.1052 15.5586 39.4727 15.608 40.8095 15.8616C41.5928 16.0081 42.5665 16.3375 42.7862 17.0769C42.8357 17.4404 42.7568 17.8098 42.5629 18.1212C42.3691 18.4327 42.0726 18.6666 41.7246 18.7827C40.8831 19.028 39.9891 19.028 39.1476 18.7827L38.1373 18.5558C35.8971 18.0506 33.5836 17.5162 31.5484 18.6363C30.3361 19.3539 29.4197 20.4806 28.9641 21.8136C28.4748 22.9768 28.4279 24.2788 28.8323 25.4741C29.9158 28.2854 33.5251 28.6002 34.6086 28.6295H34.8502C35.453 28.586 36.057 28.6942 36.6072 28.9443C36.7978 29.0629 36.9427 29.2424 37.0185 29.4537C37.0942 29.665 37.0964 29.8957 37.0245 30.1083C34.938 30.145 32.8003 30.1596 30.626 30.1596C18.9709 30.1596 8.12849 29.6032 1.44441 28.6954C1.67474 24.9846 2.63244 21.3553 4.263 18.014C5.29526 19.1488 6.97177 20.591 8.78738 20.591H8.94113C9.61291 20.5131 10.2614 20.2973 10.8459 19.9572C11.4304 19.6171 11.9384 19.1599 12.3381 18.6143C12.6602 18.2337 12.953 17.831 13.2386 17.4357C13.645 16.8468 14.1006 16.2933 14.6003 15.7811C14.9553 15.3792 15.4051 15.0722 15.9088 14.8881C16.4125 14.704 16.9542 14.6486 17.4847 14.7269C18.0154 14.8992 18.5112 15.1644 18.9489 15.5102C19.2405 15.728 19.5462 15.9261 19.8641 16.1032C20.5984 16.5081 21.4333 16.6942 22.27 16.6397C23.1068 16.5852 23.9105 16.2923 24.5861 15.7957C25.2554 15.2508 25.7105 14.487 25.8713 13.639C26.032 12.7911 25.888 11.9136 25.4646 11.1616L25.4793 11.125ZM35.8751 2.48614C35.6082 3.00779 35.1528 3.4083 34.6013 3.60628C33.8111 3.84065 32.986 3.93481 32.1634 3.88448H32.0096C31.0285 3.82856 30.0469 3.98591 29.1325 4.34571C28.6563 4.58678 28.2092 4.88155 27.8 5.22424C27.5292 5.43655 27.2803 5.62687 27.0167 5.79525C26.7544 5.99933 26.4422 6.12936 26.1126 6.17185C25.783 6.21434 25.448 6.16774 25.1425 6.03686C24.889 5.83405 24.6755 5.58578 24.5129 5.30476L24.4177 5.16566C23.8787 4.31007 23.1978 3.55251 22.4045 2.92543C24.8701 2.24459 27.4164 1.89981 29.9744 1.90047C31.9527 1.90342 33.9253 2.112 35.8605 2.52278L35.8751 2.48614ZM10.8446 9.28006C13.0995 10.305 15.6399 10.2318 18.0924 10.1439C19.0368 10.1439 20.0032 10.078 20.9329 10.1439C22.8364 10.2098 24.1029 10.7223 24.7106 11.6594C25.0189 12.2149 25.1204 12.8616 24.9971 13.4849C24.8738 14.1081 24.5337 14.6674 24.037 15.0636C23.5022 15.4501 22.8682 15.676 22.2095 15.7149C21.5508 15.7538 20.8946 15.6041 20.318 15.2833C20.0348 15.1207 19.7611 14.9423 19.498 14.7488C18.9809 14.3338 18.3896 14.0208 17.7556 13.8264C17.0746 13.7072 16.3745 13.7621 15.7204 13.9861C15.0663 14.2101 14.4795 14.5959 14.0146 15.1076C13.4757 15.6569 12.9858 16.2522 12.5504 16.8866C12.2722 17.26 11.9867 17.6187 11.6865 18.0067C11.3605 18.4498 10.9502 18.8242 10.479 19.1081C10.0079 19.3921 9.4852 19.58 8.94113 19.6612C7.23533 19.7345 5.54418 18.0506 4.75351 17.1355C6.31251 14.198 8.36836 11.5527 10.8299 9.31666L10.8446 9.28006ZM6.1811 46.2219C8.01868 46.1853 13.8462 46.361 17.1626 49.7067C18.927 51.5003 19.703 53.9602 19.4834 57.0277C14.0544 54.8726 9.40968 51.1165 6.16646 46.2585L6.1811 46.2219ZM40.5899 57.0204C40.3702 53.9602 41.1463 51.5003 42.9033 49.6994C46.1904 46.3537 52.0253 46.178 53.8848 46.2146C50.6527 51.0997 46.0068 54.8823 40.5679 57.057L40.5899 57.0204ZM54.4339 45.3068C53.6213 45.2555 46.3222 44.9114 42.2517 49.0478C40.2458 51.0904 39.3819 53.887 39.6894 57.3498C36.5902 58.4672 33.3201 59.037 30.0256 59.0337C26.7311 59.037 23.4611 58.4672 20.3619 57.3498C20.6694 53.887 19.8055 51.0904 17.7922 49.0478C13.7071 44.97 6.38609 45.2848 5.59542 45.358C2.8555 40.8882 1.40848 35.7464 1.41513 30.5037C1.41513 30.1962 1.41513 29.9034 1.41513 29.6032C8.14314 30.5403 18.9856 31.0674 30.6406 31.0674C39.9607 31.1494 49.2779 30.707 58.5483 29.7423C58.5483 29.9839 58.5483 30.2255 58.5483 30.4744C58.5736 35.7228 57.1417 40.8752 54.4119 45.358L54.4339 45.3068Z" fill="black" stroke="black" stroke-width="0.5"/>
<path d="M22.7613 18.3727C21.1434 17.8602 18.4859 18.1897 17.6952 19.3171C17.5274 19.5526 17.4446 19.8381 17.4606 20.1268C17.4766 20.4155 17.5903 20.6902 17.7831 20.9057C17.5634 21.2718 15.9016 21.8867 14.9059 22.2528C12.7096 23.0727 10.7988 23.7756 10.8647 24.9542C10.9159 25.9426 12.3728 26.7259 15.7258 27.5825C18.2192 28.2956 20.7861 28.7205 23.3763 28.849C24.8991 28.849 25.8654 28.5342 26.3047 27.9193C26.4937 27.5792 26.5727 27.189 26.5307 26.8022C26.4888 26.4154 26.328 26.0512 26.0704 25.7596C25.0189 24.2128 24.5044 22.3634 24.6062 20.4958C24.5888 19.984 24.396 19.4937 24.0601 19.1072C23.7242 18.7207 23.2657 18.4613 22.7613 18.3727ZM25.536 27.3995C25.3017 27.7436 23.9034 28.7099 15.9528 26.6674C11.9336 25.6497 11.7798 24.9616 11.7798 24.8884C11.7798 24.3759 13.9761 23.5413 15.2207 23.0947C17.2193 22.3626 18.4566 21.8648 18.6762 21.1107C18.7072 20.9845 18.7088 20.8529 18.6808 20.7259C18.6529 20.599 18.5962 20.4802 18.5152 20.3786C18.2882 20.0784 18.3907 19.932 18.4419 19.8588C18.7641 19.4049 19.9061 19.0608 21.0702 19.0608C21.5485 19.0541 22.025 19.1208 22.4831 19.2585C23.2592 19.5074 23.6545 19.932 23.6545 20.5104C23.5566 22.5688 24.1351 24.6026 25.3017 26.3013C25.4189 26.4038 25.7922 27.0261 25.536 27.3995Z" fill="black" stroke="black" stroke-width="0.5"/>
</svg>
