<svg width="78" height="14" viewBox="0 0 78 14" fill="none" xmlns="http://www.w3.org/2000/svg">
<path d="M6.68482 0L8.18565 4.6191H13.0425L9.11322 7.47385L10.6141 12.0929L6.68482 9.23819L2.75558 12.0929L4.25642 7.47385L0.327178 4.6191H5.18398L6.68482 0Z" fill="black"/>
<path d="M38.5676 0L40.0685 4.6191H44.9253L40.996 7.47385L42.4969 12.0929L38.5676 9.23819L34.6384 12.0929L36.1392 7.47385L32.21 4.6191H37.0668L38.5676 0Z" fill="black"/>
<path d="M22.6262 0L24.1271 4.6191H28.9839L25.0546 7.47385L26.5555 12.0929L22.6262 9.23819L18.697 12.0929L20.1978 7.47385L16.2686 4.6191H21.1254L22.6262 0Z" fill="black"/>
<path d="M54.5051 0L56.006 4.6191H60.8628L56.9335 7.47385L58.4344 12.0929L54.5051 9.23819L50.5759 12.0929L52.0767 7.47385L48.1475 4.6191H53.0043L54.5051 0Z" fill="black"/>
<path d="M70.4465 0L71.9474 4.6191H76.8042L72.8749 7.47385L74.3758 12.0929L70.4465 9.23819L66.5173 12.0929L68.0181 7.47385L64.0889 4.6191H68.9457L70.4465 0Z" fill="black"/>
</svg>
