<?xml version="1.0" standalone="no"?>
<!DOCTYPE svg PUBLIC "-//W3C//DTD SVG 1.1//EN" "http://www.w3.org/Graphics/SVG/1.1/DTD/svg11.dtd" >
<svg xmlns="http://www.w3.org/2000/svg" xmlns:xlink="http://www.w3.org/1999/xlink" version="1.1">
<metadata>
Created by FontForge 20190801 at Wed Jul  3 04:06:19 2019
 By www-data
Copyright (c) 2019 by Mathieu Desjardins. All rights reserved.
</metadata>
<defs>
<font id="EditorialNewUltralight" horiz-adv-x="940" >
  <font-face 
    font-family="EditorialNewUltralight"
    font-weight="200"
    font-stretch="normal"
    units-per-em="1000"
    panose-1="0 0 3 0 0 0 0 0 0 0"
    ascent="800"
    descent="-200"
    x-height="523"
    cap-height="800"
    bbox="-335 -300 1312 1099"
    underline-thickness="25"
    underline-position="-106"
    unicode-range="U+0020-277F"
  />
<missing-glyph horiz-adv-x="560" 
d="M459 -300h-355v1120h355v-1120zM188 745v-37h73v-41h-74v-37h186v37h-74v41h74v37h-185zM187 600v-116h186v38h-74v78h-112zM261 522h-37v40h37v-40zM187 454v-37h74v-42h-74v-37h112v79h74v37h-186zM336 387v-74h-149v-38h186v112h-37zM261 250v-63h38v26h37v-53h-112
v90h-37v-127h186v127h-112zM187 56v-126h186v126h-186zM336 -33h-112v52h112v-52zM187 -96v-37h78l-78 -53v-37h186v37h-114l78 53h36v37h-186z" />
    <glyph glyph-name="f_f" unicode="ff" horiz-adv-x="542" 
d="M563 805.5q27 -14.5 42.5 -36.5t15.5 -45q0 -20 -10.5 -31t-26.5 -11q-17 0 -28 9.5t-12 30.5q0 28 -9.5 46t-41.5 18q-49 0 -67.5 -42.5t-18.5 -121.5v-99h92v-34h-92v-393q0 -33 6.5 -48t26 -21t63.5 -6v-21h-217v21q30 0 43.5 6t18 21t4.5 48v393h-194v-393
q0 -33 6.5 -48t26.5 -21t64 -6v-21h-217v21q30 0 43 6t17.5 21t4.5 48v393h-65v34h65v29q0 120 34.5 184t112.5 64q34 0 60 -14t40.5 -36t14.5 -45v-2q31 117 138 117q33 0 60 -14.5zM352 581q0 58 9 103q-9 -18 -30 -18q-16 0 -26 9t-10 28q-1 29 -10 46t-41 17
q-49 0 -67.5 -45.5t-18.5 -125.5v-72h194v58z" />
    <glyph glyph-name="f_f_i" unicode="ffi" horiz-adv-x="759" 
d="M678.5 48q4.5 -15 17.5 -21t43 -6v-21h-186v21q30 0 43 6t17.5 21t4.5 48v327q0 24 -2.5 37t-13.5 21t-36 8h-158v-393q0 -33 6.5 -48t26 -21t63.5 -6v-21h-217v21q30 0 43.5 6t18 21t4.5 48v393h-194v-393q0 -33 6.5 -48t26.5 -21t64 -6v-21h-218v21q30 0 43 6t17.5 21
t4.5 48v393h-65v34h65v29q0 119 34.5 183.5t112.5 64.5q34 0 60.5 -14t41 -36t14.5 -45v-2q31 117 138 117q33 0 60 -14.5t42.5 -36.5t15.5 -45q0 -20 -10.5 -31t-27.5 -11q-16 0 -27 9.5t-12 30.5q0 28 -9.5 46t-41.5 18q-49 0 -67.5 -42.5t-18.5 -121.5v-99h176
q24 0 41.5 5t36.5 15l12 -12v-435q0 -33 4.5 -48zM353 581q0 58 9 103q-9 -18 -30 -18q-16 0 -26 9t-11 28q0 29 -9 46t-41 17q-49 0 -67.5 -45.5t-18.5 -125.5v-72h194v58z" />
    <glyph glyph-name="f_i" unicode="fi" horiz-adv-x="510" 
d="M428.5 48q4.5 -15 18 -21t43.5 -6v-21h-187v21q30 0 43.5 6t18 21t4.5 48v327q0 24 -2.5 37t-13.5 21t-36 8h-159v-393q0 -33 6.5 -48t26.5 -21t64 -6v-21h-217v21q30 0 43 6t17.5 21t4.5 48v393h-65v34h65v58q0 117 36 178t115 61q33 0 60 -14.5t42.5 -36.5t15.5 -45
q0 -20 -10.5 -31t-26.5 -11t-27 10t-12 30q-1 29 -10.5 46.5t-41.5 17.5q-49 0 -67.5 -42.5t-18.5 -121.5v-99h177q24 0 41.5 5t36.5 15l11 -12v-435q0 -33 4.5 -48z" />
    <glyph glyph-name="f_l" unicode="fl" horiz-adv-x="495" 
d="M413.5 48q4.5 -15 18 -21t43.5 -6v-21h-187v21q30 0 43.5 6t18 21t4.5 48v591q-10 -5 -19 -5q-16 0 -27 10t-12 30q-1 29 -10.5 46.5t-41.5 17.5q-49 0 -67.5 -42.5t-18.5 -121.5v-99h93v-34h-93v-393q0 -33 6.5 -48t26.5 -21t64 -6v-21h-217v21q30 0 43 6t17.5 21
t4.5 48v393h-65v34h65v58q0 117 36 178t115 61q36 0 65.5 -17.5t43.5 -43.5l35 41l11 -11v-693q0 -33 4.5 -48z" />
    <glyph glyph-name=".notdef" horiz-adv-x="560" 
d="M459 -300h-355v1120h355v-1120zM188 745v-37h73v-41h-74v-37h186v37h-74v41h74v37h-185zM187 600v-116h186v38h-74v78h-112zM261 522h-37v40h37v-40zM187 454v-37h74v-42h-74v-37h112v79h74v37h-186zM336 387v-74h-149v-38h186v112h-37zM261 250v-63h38v26h37v-53h-112
v90h-37v-127h186v127h-112zM187 56v-126h186v126h-186zM336 -33h-112v52h112v-52zM187 -96v-37h78l-78 -53v-37h186v37h-114l78 53h36v37h-186z" />
    <glyph glyph-name=".null" horiz-adv-x="0" 
 />
    <glyph glyph-name="nonmarkingreturn" horiz-adv-x="333" 
 />
    <glyph glyph-name="space" unicode=" " horiz-adv-x="203" 
 />
    <glyph glyph-name="exclam" unicode="!" horiz-adv-x="194" 
d="M68.5 802.5q9.5 17.5 28.5 17.5t28.5 -17.5t9.5 -59.5q0 -55 -9 -183q-15 -202 -17 -367h-22q-1 101 -5.5 181t-12.5 187q-10 118 -10 182q0 42 9.5 59.5zM64.5 -6.5q-13.5 13.5 -13.5 32.5q0 20 13.5 33.5t32.5 13.5t32.5 -14t13.5 -33t-13.5 -32.5t-32.5 -13.5
t-32.5 13.5z" />
    <glyph glyph-name="quotedbl" unicode="&#x22;" horiz-adv-x="314" 
d="M84 820q35 0 35 -52q0 -37 -11 -121q-6 -44 -12 -92h-21q-5 44 -12 91q-5 33 -9 64.5t-4 57.5q0 52 34 52zM229 820q35 0 35 -52q0 -37 -11 -121q-6 -44 -12 -92h-21q-5 44 -12 91q-5 33 -9 64.5t-4 57.5q0 52 34 52z" />
    <glyph glyph-name="numbersign" unicode="#" horiz-adv-x="845" 
d="M618 549l-81 -280h171v-42h-183l-71 -247h-43l71 247h-218l-71 -247h-44l71 247h-152v42h164l81 280h-175v42h187l66 229h44l-66 -229h218l66 229h43l-66 -229h148v-42h-160zM575 549h-218l-81 -280h218z" />
    <glyph glyph-name="dollar" unicode="$" horiz-adv-x="510" 
d="M434 68.5q-26 -42.5 -69.5 -65t-94.5 -23.5v-65h-31v66q-56 4 -101 21.5t-88 48.5v177h21q0 -204 168 -213v354q-22 18 -33 28q-59 51 -89.5 84.5t-44.5 66.5t-14 74q0 75 52 116.5t129 41.5v63h31v-65q46 -4 87 -21.5t72 -42.5v-130h-21q0 82 -36 119.5t-102 41.5v-312
l1 -1l17 -15q71 -61 103.5 -94t50.5 -69.5t18 -84.5q0 -58 -26 -100.5zM129.5 571q16.5 -29 41 -52.5t68.5 -59.5v287q-61 -2 -93.5 -33.5t-32.5 -78.5q0 -34 16.5 -63zM368.5 57q36.5 39 36.5 98q0 45 -33.5 87.5t-101.5 100.5v-329q62 4 98.5 43z" />
    <glyph glyph-name="percent" unicode="%" horiz-adv-x="732" 
d="M110.5 442q-28.5 27 -44.5 73t-16 102t16 102.5t44.5 73.5t64.5 27q35 0 63.5 -27t44.5 -73.5t16 -102.5q0 -55 -16 -101.5t-44.5 -73.5t-63.5 -27q-36 0 -64.5 27zM632 800l-497 -800h-36l497 800h36zM230.5 492.5q17.5 47.5 17.5 124.5t-17.5 125t-55.5 48
q-39 0 -56.5 -47.5t-17.5 -125.5q0 -77 17.5 -124.5t56.5 -47.5q38 0 55.5 47.5zM493.5 7q-28.5 27 -44.5 73t-16 102q0 57 16 103.5t44.5 73.5t64.5 27q35 0 63.5 -27t44.5 -74t16 -103q0 -55 -16 -101.5t-44.5 -73.5t-63.5 -27q-36 0 -64.5 27zM613 57.5q17 47.5 17 124.5
q0 78 -17 126t-55 48q-39 0 -56.5 -47.5t-17.5 -126.5q0 -77 17.5 -124.5t56.5 -47.5q38 0 55 47.5z" />
    <glyph glyph-name="ampersand" unicode="&#x26;" horiz-adv-x="737" 
d="M687 139q-29 -159 -132 -159q-34 0 -66 18.5t-66 57.5q-79 -76 -187 -76q-81 0 -133.5 49t-52.5 134q0 79 42 138.5t126 127.5q-48 134 -48 221q0 83 46.5 131.5t120.5 48.5q66 0 99.5 -39t33.5 -97q0 -61 -40.5 -116t-122.5 -122l-27 -22q23 -61 62 -137q50 -97 99 -166
q59 82 97 215q8 30 8 44q0 17 -12 22.5t-46 5.5v21h189v-21q-36 0 -55 -5.5t-29.5 -20t-19.5 -45.5q-47 -161 -110 -245q62 -76 112 -76q33 0 56 28.5t35 84.5h21zM268 469q1 1 16 13q78 63 113.5 112t35.5 100q0 41 -22.5 71.5t-68.5 30.5q-54 0 -83 -41.5t-29 -98.5
q0 -70 38 -187zM402 83q-50 64 -117 193q-31 59 -53 116q-60 -55 -88.5 -107t-28.5 -118q0 -72 38 -112.5t101 -40.5q79 0 148 69z" />
    <glyph glyph-name="quotesingle" unicode="'" horiz-adv-x="186" 
d="M93 820q35 0 35 -52q0 -37 -11 -121q-6 -44 -12 -92h-21q-5 44 -12 91q-5 33 -9 64.5t-4 57.5q0 52 34 52z" />
    <glyph glyph-name="parenleft" unicode="(" horiz-adv-x="343" 
d="M313 -300q-125 96 -194 241t-69 319q0 180 64 327.5t182 232.5v-21q-89 -87 -135 -228t-46 -311q0 -158 51.5 -301t146.5 -238v-21z" />
    <glyph glyph-name="parenright" unicode=")" horiz-adv-x="343" 
d="M176.5 -41q51.5 143 51.5 301q0 170 -46 311t-135 228v21q119 -84 182.5 -231.5t63.5 -328.5q0 -174 -68.5 -319t-194.5 -241v21q95 95 146.5 238z" />
    <glyph glyph-name="asterisk" unicode="*" horiz-adv-x="448" 
d="M398 544q0 -8 -5 -16q-9 -18 -28 -18q-11 0 -24 8q-16 10 -35 32q-16 18 -32 32.5t-43 30.5q1 -30 5 -50.5t12 -44.5q4 -12 7 -24t3 -24q0 -19 -9 -29.5t-25 -10.5t-25 10.5t-9 29.5q0 17 11 48q9 27 13 46t5 50q-27 -16 -43 -30.5t-32 -32.5q-22 -24 -37 -33
q-13 -8 -24 -8q-19 0 -28 18q-5 10 -5 17q0 20 23 32q16 9 46 14q27 6 46.5 12t47.5 21q-28 15 -48.5 22t-45.5 12q-32 8 -46 15q-23 12 -23 32q0 8 5 18q9 17 28 17q13 0 24 -7q18 -11 36 -34q20 -23 34.5 -36.5t41.5 -29.5q-1 29 -5 48.5t-8 32.5t-5 17q-5 12 -8 24.5
t-3 24.5q0 19 9 29.5t25 10.5t25 -10.5t9 -29.5q0 -20 -10 -48q-8 -24 -12 -45t-5 -53q26 16 40.5 30t33.5 35q21 25 36 34q11 7 24 7q19 0 28 -17q5 -10 5 -17q0 -21 -23 -33q-14 -7 -46 -15q-25 -5 -45.5 -12t-48.5 -22q28 -15 47.5 -21t46.5 -12q30 -5 46 -14
q23 -12 23 -33z" />
    <glyph glyph-name="plus" unicode="+" horiz-adv-x="490" 
d="M50 296h170v169h52v-169h168v-52h-168v-169h-52v169h-170v52z" />
    <glyph glyph-name="comma" unicode="," horiz-adv-x="208" 
d="M60.5 -7q-10.5 13 -10.5 31q0 23 14 36t36 13q23 0 40.5 -19.5t17.5 -52.5q0 -101 -107 -160v21q33 19 55 47.5t22 60.5q0 21 -10 21q-3 0 -11 -5.5t-19 -5.5q-17 0 -27.5 13z" />
    <glyph glyph-name="hyphen" unicode="-" horiz-adv-x="415" 
d="M50 296h315v-52h-315v52z" />
    <glyph glyph-name="period" unicode="." horiz-adv-x="193" 
d="M63.5 -6.5q-13.5 13.5 -13.5 32.5t13.5 33t32.5 14q20 0 33.5 -13.5t13.5 -33.5q0 -19 -14 -32.5t-33 -13.5t-32.5 13.5z" />
    <glyph glyph-name="slash" unicode="/" horiz-adv-x="306" 
d="M306 820l-262 -820h-44l262 820h44z" />
    <glyph glyph-name="zero" unicode="0" horiz-adv-x="521" 
d="M144 35.5q-47 55.5 -70.5 150.5t-23.5 214t23.5 214t70.5 150.5t116 55.5t116.5 -55.5t71 -150.5t23.5 -214t-23.5 -214t-71 -150.5t-116.5 -55.5t-116 55.5zM370.5 120q35.5 106 35.5 280q0 175 -35.5 280.5t-110.5 105.5q-74 0 -109.5 -106t-35.5 -280t35.5 -280
t109.5 -106q75 0 110.5 106z" />
    <glyph glyph-name="one" unicode="1" horiz-adv-x="288" 
d="M176.5 48q4.5 -15 18 -21t43.5 -6v-21h-189v21q30 0 43 6t17.5 21t4.5 48v591q0 34 -1.5 44.5t-10.5 10.5q-14 0 -54 -26l-12 18l90 56l35 21l11 -11v-704q0 -33 4.5 -48z" />
    <glyph glyph-name="two" unicode="2" horiz-adv-x="485" 
d="M386 63q17 7 28 25t23 56l21 -6l-29 -94l-14 -44h-405v21q113 119 187 211t118 184t44 181q0 73 -30 120t-97 47q-80 0 -124 -66t-46 -176h-21q0 137 55.5 217.5t157.5 80.5q82 0 125 -57t43 -144q0 -137 -96.5 -278.5t-242.5 -281.5v-3h254q32 0 49 7z" />
    <glyph glyph-name="three" unicode="3" horiz-adv-x="438" 
d="M39 65.5q9 7.5 23 7.5q13 0 23 -7t21 -20q15 -16 33 -24t47 -8q38 0 72 20.5t55.5 63.5t21.5 106q0 109 -53.5 157t-137.5 51v21q73 27 114.5 77.5t41.5 126.5q0 56 -28.5 94t-81.5 38q-59 0 -90.5 -35t-45.5 -93h-21q12 87 59 133t117 46q43 0 78 -21.5t55 -61.5t20 -94
q0 -131 -137 -202v-3q79 -12 126 -68.5t47 -149.5q0 -70 -31 -125t-83.5 -85t-114.5 -30q-54 0 -96.5 19t-42.5 47q0 12 9 19.5z" />
    <glyph glyph-name="four" unicode="4" horiz-adv-x="495" 
d="M326 800h50v-523h78v-48h-78v-133q0 -33 4.5 -48t18 -21t43.5 -6v-21h-189v21q30 0 43 6t17.5 21t4.5 48v133h-285v48zM318 725l-246 -445v-3h246v448z" />
    <glyph glyph-name="five" unicode="5" horiz-adv-x="442" 
d="M58 72q11 0 18 -5.5t13 -14t10 -12.5q20 -26 72 -26q38 0 74 29.5t59 90t23 148.5q0 111 -35.5 164t-98.5 53q-56 0 -99 -41l-29 22l65 320h245l-14 -56h-208l-49 -242l4 -3q22 22 51 33t59 11q54 0 93.5 -33t60 -88.5t20.5 -121.5q0 -98 -31.5 -170.5t-85.5 -111
t-119 -38.5q-52 0 -90 18t-38 45q0 29 30 29z" />
    <glyph glyph-name="six" unicode="6" horiz-adv-x="492" 
d="M377 507.5q38 -35.5 56.5 -94.5t18.5 -128q0 -76 -22 -146t-67 -114.5t-110 -44.5q-63 0 -108.5 43.5t-70 120.5t-24.5 175q0 118 40 223t122 179.5t202 98.5v-21q-124 -36 -192.5 -131t-92.5 -221h1q24 42 64.5 69t90.5 27q54 0 92 -35.5zM353 83.5q34 69.5 34 187.5
q0 100 -30 169t-96 69q-37 0 -72.5 -24t-65.5 -72q-8 -51 -8 -112q0 -129 37 -208t103 -79q64 0 98 69.5z" />
    <glyph glyph-name="seven" unicode="7" horiz-adv-x="476" 
d="M365 741v3h-239q-32 0 -48.5 -7.5t-27 -29.5t-19.5 -70l-21 4l22 113l9 46h388l-232 -809l-43 11z" />
    <glyph glyph-name="eight" unicode="8" horiz-adv-x="473" 
d="M386 318q38 -65 38 -137q0 -59 -24 -105t-66.5 -71t-97.5 -25q-58 0 -100.5 26.5t-65 70.5t-22.5 97q0 71 40 131.5t114 124.5q-70 65 -102 113.5t-32 106.5q0 49 22 87.5t61.5 60.5t88.5 22q50 0 87.5 -22.5t57 -60t19.5 -82.5q0 -42 -15 -75t-41 -61t-75 -71l1 -1
q74 -64 112 -129zM153 573q27 -41 95 -103q61 57 83.5 97.5t22.5 89.5q0 55 -30.5 92t-82.5 37q-51 0 -83 -36t-32 -93q0 -43 27 -84zM332 57q34 43 34 117q0 61 -34.5 114.5t-105.5 118.5q-128 -118 -128 -233q0 -42 17 -78.5t49 -59t76 -22.5q58 0 92 43z" />
    <glyph glyph-name="nine" unicode="9" horiz-adv-x="492" 
d="M347 777q46 -43 70.5 -119t24.5 -173q0 -119 -39.5 -225t-121.5 -181t-203 -99v21q124 36 193 130.5t93 221.5h-2q-23 -42 -63.5 -68.5t-90.5 -26.5q-55 0 -92.5 35.5t-56.5 94t-19 128.5q0 75 22 145t67 114.5t110 44.5q62 0 108 -43zM340 708q-37 78 -103 78
q-64 0 -98 -69.5t-34 -187.5q0 -100 30.5 -169t96.5 -69q36 0 71.5 24t66.5 73q7 56 7 115q0 127 -37 205z" />
    <glyph glyph-name="colon" unicode=":" horiz-adv-x="193" 
d="M63.5 -6.5q-13.5 13.5 -13.5 32.5t13.5 33t32.5 14q20 0 33.5 -13.5t13.5 -33.5q0 -19 -14 -32.5t-33 -13.5t-32.5 13.5zM63.5 454.5q-13.5 13.5 -13.5 32.5t13.5 33t32.5 14q20 0 33.5 -13.5t13.5 -33.5q0 -19 -14 -32.5t-33 -13.5t-32.5 13.5z" />
    <glyph glyph-name="semicolon" unicode=";" horiz-adv-x="208" 
d="M71.5 454.5q-13.5 13.5 -13.5 32.5t13.5 33t32.5 14q20 0 33.5 -13.5t13.5 -33.5q0 -19 -14 -32.5t-33 -13.5t-32.5 13.5zM60.5 -7q-10.5 13 -10.5 31q0 23 14 36t36 13q23 0 40.5 -19.5t17.5 -52.5q0 -101 -107 -160v21q33 19 55 47.5t22 60.5q0 21 -10 21
q-3 0 -11 -5.5t-19 -5.5q-17 0 -27.5 13z" />
    <glyph glyph-name="less" unicode="&#x3c;" horiz-adv-x="420" 
d="M48 236v73l322 108v-55l-278 -88v-3l278 -88v-54z" />
    <glyph glyph-name="equal" unicode="=" horiz-adv-x="415" 
d="M50 380h315v-52h-315v52zM50 212h315v-52h-315v52z" />
    <glyph glyph-name="greater" unicode="&#x3e;" horiz-adv-x="423" 
d="M50 183l278 88v3l-278 88v55l323 -108v-73l-323 -107v54z" />
    <glyph glyph-name="question" unicode="?" horiz-adv-x="416" 
d="M278 752.5q-26 33.5 -76 33.5q-45 0 -69.5 -27t-24.5 -63q0 -18 4 -28t13 -23q8 -11 11 -17.5t3 -17.5q0 -16 -9 -24t-25 -8q-23 0 -39 25.5t-16 68.5q0 39 18.5 73t54 54.5t85.5 20.5q72 0 115 -42.5t43 -106.5q0 -50 -15.5 -86.5t-48.5 -85.5q-31 -47 -49.5 -83
t-32 -91.5t-13.5 -131.5h-22q0 87 11 148t26 98t39 82q22 42 32.5 71t10.5 71q0 56 -26 89.5zM163.5 -6.5q-13.5 13.5 -13.5 32.5t13.5 33t32.5 14t32.5 -13.5t13.5 -33.5q0 -19 -13.5 -32.5t-32.5 -13.5t-32.5 13.5z" />
    <glyph glyph-name="at" unicode="@" horiz-adv-x="1039" 
d="M162 569q73 98 175.5 150.5t213.5 52.5q122 0 208.5 -55t130.5 -145.5t44 -195.5q0 -38 -6 -77q-16 -100 -58.5 -172.5t-98.5 -109.5t-112 -37q-82 0 -82 71q0 16 4 36l3 16h-4q-42 -63 -82 -93t-92 -30q-60 0 -92.5 49t-32.5 126q0 43 8 80q17 82 55.5 152t92.5 111.5
t115 41.5q37 0 61.5 -20.5t36.5 -56.5h2l14 71l53 7l-81 -433q-5 -28 -5 -46q0 -24 10 -36t34 -12q39 0 84 32.5t82.5 97t52.5 155.5q6 38 6 76q0 96 -39 179.5t-118.5 135t-193.5 51.5q-111 0 -203 -51.5t-154.5 -142t-88.5 -206.5q-15 -72 -15 -137q0 -124 51 -220.5
t144.5 -150.5t218.5 -54q170 0 281 79.5t172 209.5h32q-62 -143 -183 -231.5t-302 -88.5q-136 0 -239 59.5t-159 164.5t-56 239q0 65 13 130q26 130 99 228zM335 172q0 -68 25.5 -106t74.5 -38q50 0 88.5 32t70.5 86l34 188q5 26 5 57q0 54 -21 84.5t-62 30.5
q-53 0 -95.5 -35.5t-70.5 -91.5t-40 -118q-9 -48 -9 -89z" />
    <glyph glyph-name="A" unicode="A" horiz-adv-x="696" 
d="M612.5 46.5q10.5 -14.5 27 -20t46.5 -5.5v-21h-239v21q49 0 67 6t18 22q0 12 -10 42l-53 168h-278l-52 -168q-10 -30 -10 -42q0 -16 18 -22t68 -6v-21h-205v21q30 0 46.5 5.5t27 20t20.5 44.5l228 732h30l230 -732q10 -30 20.5 -44.5zM459 293l-128 409h-3l-127 -409h258
z" />
    <glyph glyph-name="B" unicode="B" horiz-adv-x="567" 
d="M20 21q49 0 70 6t27.5 21t6.5 48v608q0 33 -6.5 48t-27.5 21t-70 6v21h258q102 0 163.5 -51t61.5 -152q0 -77 -45.5 -126t-120.5 -58v-3q59 -4 104.5 -30t71 -70t25.5 -98q0 -112 -75.5 -162t-194.5 -50h-248v21zM271 427q43 0 81 19t62 58t24 97q0 83 -49 124t-118 41
q-50 0 -85 -10v-324q35 -5 85 -5zM263 34q89 0 149.5 40t60.5 138q0 67 -33 107.5t-79 57t-90 16.5q-50 0 -85 -5v-344q40 -10 77 -10z" />
    <glyph glyph-name="C" unicode="C" horiz-adv-x="621" 
d="M75.5 613.5q36.5 95.5 104.5 151t157 55.5q45 0 77 -12t64 -32q23 -15 33 -15t14 9t4 40h21l15 -275h-21q-13 127 -63.5 189t-135.5 62q-73 0 -127 -51t-83 -139t-29 -196t29 -195.5t82.5 -138t126.5 -50.5q94 0 156.5 83.5t79.5 223.5h21q-19 -158 -86.5 -250.5
t-182.5 -92.5q-89 0 -155.5 55.5t-102 151t-35.5 213.5t36.5 213.5z" />
    <glyph glyph-name="D" unicode="D" horiz-adv-x="714" 
d="M20 21q49 0 70 6t27.5 21t6.5 48v608q0 33 -6.5 48t-27.5 21t-70 6v21h273q113 0 199.5 -47.5t134.5 -138t48 -214.5t-49.5 -214.5t-136 -138t-196.5 -47.5h-273v21zM459.5 79.5q71.5 45.5 110 128t38.5 192.5t-38.5 192.5t-110 128t-166.5 45.5q-68 0 -107 -18v-696
q39 -18 107 -18q95 0 166.5 45.5z" />
    <glyph glyph-name="E" unicode="E" horiz-adv-x="584" 
d="M530 625l-21 -2q-7 66 -16 95t-25 38.5t-49 9.5h-233v-329h154q33 0 47.5 7t20.5 30.5t6 77.5h22v-264h-22q0 54 -6 77.5t-20.5 30.5t-47.5 7h-154v-312q0 -35 9 -46t38 -11h196q33 0 51 11.5t34.5 47t38.5 113.5l21 -6l-54 -182l-5 -18h-495v21q49 0 70 6t27.5 21
t6.5 48v608q0 33 -6.5 48t-27.5 21t-70 6v21h491l2 -20z" />
    <glyph glyph-name="F" unicode="F" horiz-adv-x="575" 
d="M564 625l-21 -2q-6 66 -14.5 95.5t-24.5 38.5t-49 9h-269v-354h160q33 0 47.5 7t20.5 30.5t6 77.5h21v-263h-21q0 54 -6 77t-20.5 30t-47.5 7h-160v-282q0 -33 6.5 -48t27.5 -21t70 -6v-21h-270v21q49 0 70 6t27.5 21t6.5 48v608q0 33 -6.5 48t-27.5 21t-70 6v21h528
l1 -20z" />
    <glyph glyph-name="G" unicode="G" horiz-adv-x="718" 
d="M77.5 613q38.5 96 112.5 151.5t176 55.5q59 0 95 -12.5t68 -31.5q9 -6 16.5 -9.5t12.5 -3.5q10 0 13.5 8.5t3.5 38.5h21l15 -275h-21q-13 130 -64 190.5t-155 60.5q-86 0 -145.5 -51t-89.5 -138.5t-30 -197.5q0 -172 71 -278.5t215 -106.5q57 0 102 20t72 48v238
q0 33 -12 47.5t-53 20.5t-134 6v21h330v-21q-30 0 -43.5 -5.5t-18 -20.5t-4.5 -48v-245q-52 -49 -110.5 -72t-133.5 -23q-114 0 -192.5 55t-117 149.5t-38.5 214.5q0 118 38.5 214z" />
    <glyph glyph-name="H" unicode="H" horiz-adv-x="684" 
d="M593.5 773q-21.5 -6 -28 -21t-6.5 -48v-608q0 -33 6.5 -48t28 -21t70.5 -6v-21h-270v21q48 0 69.5 6t28 21t6.5 48v313h-312v-313q0 -33 6.5 -48t27.5 -21t70 -6v-21h-270v21q49 0 70 6t27.5 21t6.5 48v608q0 33 -6.5 48t-27.5 21t-70 6v21h270v-21q-49 0 -70 -6
t-27.5 -21t-6.5 -48v-261h312v261q0 33 -6.5 48t-28 21t-69.5 6v21h270v-21q-49 0 -70.5 -6z" />
    <glyph glyph-name="I" unicode="I" horiz-adv-x="310" 
d="M117.5 752q-6.5 15 -27.5 21t-70 6v21h270v-21q-49 0 -70 -6t-27.5 -21t-6.5 -48v-608q0 -33 6.5 -48t27.5 -21t70 -6v-21h-270v21q49 0 70 6t27.5 21t6.5 48v608q0 33 -6.5 48z" />
    <glyph glyph-name="J" unicode="J" horiz-adv-x="372" 
d="M179.5 752q-6.5 15 -28 21t-69.5 6v21h270v-21q-49 0 -70.5 -6t-28 -21t-6.5 -48v-478q0 -134 -27.5 -190t-89.5 -56q-57 0 -83.5 30.5t-26.5 73.5q0 21 11.5 32t26.5 11q16 0 26.5 -9.5t10.5 -29.5l-1 -29q0 -21 7 -33t26 -12q36 0 47.5 42.5t11.5 132.5v515
q0 33 -6.5 48z" />
    <glyph glyph-name="K" unicode="K" horiz-adv-x="730" 
d="M116.5 752q-6.5 15 -27.5 21t-70 6v21h270v-21q-49 0 -70 -6t-27.5 -21t-6.5 -48v-608q0 -33 6.5 -48t27.5 -21t70 -6v-21h-270v21q49 0 70 6t27.5 21t6.5 48v608q0 33 -6.5 48zM637.5 30.5q25.5 -9.5 72.5 -9.5v-21h-236v21q35 0 47 2t12 8q0 5 -6.5 13.5t-13 16.5
t-10.5 13l-282 340l255 312q4 5 13 16t13 17t4 10q0 6 -13 8t-48 2v21h200v-21q-47 0 -72 -9.5t-53 -43.5l-233 -287l297 -365q28 -34 53.5 -43.5z" />
    <glyph glyph-name="L" unicode="L" horiz-adv-x="577" 
d="M290 779q-49 0 -70 -6t-27.5 -21t-6.5 -48v-610q0 -37 10 -48.5t42 -11.5h182q33 0 50.5 12t32.5 49.5t35 121.5l21 -5l-47 -195l-4 -17h-488v21q49 0 70 6t27.5 21t6.5 48v608q0 33 -6.5 48t-27.5 21t-70 6v21h270v-21z" />
    <glyph glyph-name="M" unicode="M" horiz-adv-x="887" 
d="M683 800h184v-21q-48 0 -69.5 -6t-28 -21t-6.5 -48v-608q0 -33 6.5 -48t28 -21t69.5 -6v-21h-270v21q49 0 70.5 6t28 21t6.5 48v646h-3l-259 -765h-30l-251 755h-3l2 -636q0 -33 6.5 -48t27.5 -21t70 -5v-22h-242v21q49 0 70 6t27.5 21t6.5 48v608q0 33 -6.5 48t-27.5 21
t-70 6v21h186l235 -701h3z" />
    <glyph glyph-name="N" unicode="N" horiz-adv-x="745" 
d="M725 779q-49 0 -70 -6t-27.5 -21t-6.5 -48v-727h-30l-433 705v-586q0 -33 6.5 -48t28 -21t69.5 -6v-21h-242v21q49 0 70 6t27.5 21t6.5 48v640q-20 27 -41.5 35t-62.5 8v21h142l422 -685h3v589q0 33 -6.5 48t-28 21t-69.5 6v21h242v-21z" />
    <glyph glyph-name="O" unicode="O" horiz-adv-x="662" 
d="M176 36q-66 56 -101.5 152t-35.5 212t35.5 212t101.5 152t155 56t155.5 -56t101.5 -151.5t35 -212.5t-35 -212.5t-101.5 -151.5t-155.5 -56t-155 56zM461.5 55q46.5 42 71 117.5t24.5 173.5q0 37 -3 74q-9 109 -42 192t-84.5 129.5t-115.5 46.5t-111 -42t-72 -118
t-25 -175q0 -35 3 -73q9 -109 42 -192t84.5 -129t116.5 -46t111.5 42z" />
    <glyph glyph-name="P" unicode="P" horiz-adv-x="580" 
d="M20 21q49 0 70 6t27.5 21t6.5 48v608q0 33 -6.5 48t-27.5 21t-70 6v21h266q117 0 186.5 -57.5t69.5 -168.5q0 -71 -29.5 -120.5t-80 -74.5t-113.5 -25q-60 0 -133 19v-277q0 -33 6.5 -48t27.5 -21t70 -6v-21h-270v21zM428 437.5q47 49.5 47 136.5q0 92 -54 142t-136 50
q-54 0 -99 -18v-341q63 -19 122 -19q73 0 120 49.5z" />
    <glyph glyph-name="Q" unicode="Q" horiz-adv-x="653" 
d="M700 -99q-40 -37 -75 -55.5t-75 -18.5q-28 0 -48.5 7t-51.5 23q-33 18 -61 27t-66 9q-30 0 -61 -6.5t-92 -24.5l-15 52q107 31 183 66h-7q-89 0 -155 56t-101.5 152t-35.5 212t35.5 212t101.5 152t155 56t155.5 -56t101.5 -151.5t35 -212.5q0 -121 -37.5 -219
t-106.5 -151q-50 -40 -113 -68t-118 -44l1 -4q58 13 97 13q33 0 57 -8t60 -24q25 -14 46.5 -21t46.5 -7q36 0 64 12t67 43zM149 188q33 -83 84.5 -129t116.5 -46t111.5 41.5t71 117t24.5 173.5q0 36 -3 75q-9 109 -42 192t-84.5 129.5t-115.5 46.5t-111 -42t-72 -118
t-25 -175q0 -35 3 -73q9 -109 42 -192z" />
    <glyph glyph-name="R" unicode="R" horiz-adv-x="594" 
d="M508 33q22 -12 67 -12v-21h-76q-27 0 -40.5 3.5t-24 15.5t-24.5 41l-170 333h-25h-29v-297q0 -33 6.5 -48t27.5 -21t70 -6v-21h-270v21q49 0 70 6t27.5 21t6.5 48v608q0 33 -6.5 48t-27.5 21t-70 6v21h253q106 0 166.5 -51t60.5 -147q0 -103 -63 -149.5t-159 -56.5h1v-3
q41 -19 71 -80l116 -228q20 -40 42 -52zM367 464q68 38 68 139q0 78 -45 120.5t-118 42.5q-53 0 -86 -18v-321h29q84 -1 152 37z" />
    <glyph glyph-name="S" unicode="S" horiz-adv-x="534" 
d="M60 284h21q0 -81 27.5 -142.5t72 -94.5t95.5 -33q66 0 104.5 40t38.5 107q0 41 -22.5 79t-56 71t-94.5 84l-28 24q-65 57 -95.5 88.5t-47 66.5t-16.5 81q0 76 50.5 120.5t130.5 44.5q50 0 82 -16.5t61 -42.5q8 -7 15 -12t11 -5q7 0 10 10.5t3 46.5h22v-232h-22
q0 62 -23.5 111.5t-64 77.5t-91.5 28q-64 0 -96 -34t-32 -82q0 -35 17.5 -66.5t43 -57t68.5 -62.5l34 -29l29 -26q69 -60 101 -93.5t49.5 -73t17.5 -94.5q0 -58 -27 -100.5t-70.5 -65t-92.5 -22.5q-52 0 -85 16t-65 42q-22 20 -33 20q-12 0 -16.5 -13t-4.5 -46h-21v285z" />
    <glyph glyph-name="T" unicode="T" horiz-adv-x="613" 
d="M582 621l-21 -2q-6 68 -14.5 98t-24.5 39.5t-49 9.5h-136v-670q0 -33 6.5 -48t28 -21t69.5 -6v-21h-270v21q49 0 70.5 6t28 21t6.5 48v670h-137q-33 0 -48.5 -9.5t-24 -39.5t-15.5 -98l-21 2l15 159l2 20h519l2 -20z" />
    <glyph glyph-name="U" unicode="U" horiz-adv-x="752" 
d="M587.5 752q-6.5 15 -27.5 21t-70 6v21h242v-21q-48 0 -69.5 -6t-28 -21t-6.5 -48v-467q0 -108 -54 -182.5t-184 -74.5q-142 0 -204 73t-62 187v464q0 33 -6.5 48t-27.5 21t-70 6v21h270v-21q-49 0 -70 -6t-27.5 -21t-6.5 -48v-467q0 -115 52 -169t156 -54q94 0 147 55
t53 168v467q0 33 -6.5 48z" />
    <glyph glyph-name="V" unicode="V" horiz-adv-x="696" 
d="M557 709q10 30 10 42q0 16 -18 22t-68 6v21h205v-21q-30 0 -46.5 -5.5t-27 -20t-20.5 -44.5l-227 -732h-30l-231 732q-9 30 -19.5 44.5t-27.5 20t-47 5.5v21h240v-21q-50 0 -68 -6t-18 -22q0 -12 10 -42l191 -611h3z" />
    <glyph glyph-name="W" unicode="W" horiz-adv-x="868" 
d="M858 779q-30 0 -46 -5.5t-25.5 -20.5t-16.5 -46l-178 -730h-30l-119 481l-133 -481h-27l-184 730q-8 31 -17.5 46t-25.5 20.5t-46 5.5v21h238v-21q-52 0 -70 -7t-18 -26q0 -11 7 -39l147 -588h3l110 405l-45 183q-7 31 -16.5 46t-25.5 20.5t-46 5.5v21h238v-21
q-51 0 -69.5 -7t-18.5 -26q0 -11 7 -39l142 -582h3l140 582q7 28 7 39q0 19 -18.5 26t-70.5 7v21h204v-21z" />
    <glyph glyph-name="X" unicode="X" horiz-adv-x="721" 
d="M632 32.5q23 -11.5 69 -11.5v-21h-247v21q44 0 60.5 3.5t16.5 13.5q0 8 -9 23.5t-12 20.5l-165 280l-166 -280q-3 -5 -12 -20.5t-9 -23.5q0 -10 16.5 -13.5t60.5 -3.5v-21h-210v21q46 0 69 11.5t45 49.5l186 314l-191 322q-22 38 -45 49.5t-69 11.5v21h247v-21
q-44 0 -60.5 -3.5t-16.5 -13.5q0 -8 9 -23.5t12 -20.5l152 -257l152 257q3 5 12 20.5t9 23.5q0 10 -16.5 13.5t-60.5 3.5v21h210v-21q-46 0 -69 -11.5t-45 -49.5l-172 -291l204 -345q22 -38 45 -49.5z" />
    <glyph glyph-name="Y" unicode="Y" horiz-adv-x="638" 
d="M366.5 48q6.5 -15 27.5 -21t70 -6v-21h-270v21q49 0 70 6t27.5 21t6.5 48v256l-180 362q-20 41 -41.5 53t-66.5 12v21h245v-21q-46 0 -63 -4t-17 -16q0 -8 7.5 -23.5t10.5 -21.5l152 -308h3l138 307q15 33 15 44q0 13 -16.5 17.5t-63.5 4.5v21h207v-21q-45 0 -65.5 -12.5
t-39.5 -53.5l-163 -361v-256q0 -33 6.5 -48z" />
    <glyph glyph-name="Z" unicode="Z" horiz-adv-x="528" 
d="M375 34q33 0 49.5 11t28 46.5t23.5 115.5l21 -3l-29 -187l-3 -17h-435v21l372 745h-237q-33 0 -48 -8.5t-22 -36.5t-9 -91l-22 1l5 148l1 21h420l-380 -766h265z" />
    <glyph glyph-name="bracketleft" unicode="[" horiz-adv-x="247" 
d="M115 786v-1052h102v-34h-167v1120h167v-34h-102z" />
    <glyph glyph-name="backslash" unicode="\" horiz-adv-x="293" 
d="M293 0h-43l-263 820h44z" />
    <glyph glyph-name="bracketright" unicode="]" horiz-adv-x="247" 
d="M197 -300h-167v34h102v1052h-102v34h167v-1120z" />
    <glyph glyph-name="asciicircum" unicode="^" horiz-adv-x="539" 
d="M239 800h59l191 -401h-57l-162 347h-3l-160 -347h-57z" />
    <glyph glyph-name="underscore" unicode="_" horiz-adv-x="700" 
d="M0 -128v38h700v-38h-700z" />
    <glyph glyph-name="grave" unicode="`" horiz-adv-x="235" 
d="M153 625l-114 179h80l67 -179h-33z" />
    <glyph glyph-name="a" unicode="a" horiz-adv-x="418" 
d="M408 65q-12 -44 -26 -64.5t-45 -20.5q-34 0 -47.5 22.5t-13.5 63.5v19h-2q-24 -42 -56 -73.5t-84 -31.5q-51 0 -77.5 33t-26.5 90q0 59 27.5 97.5t63.5 60.5t109 58l46 22v50q0 61 -16 92t-68 31q-34 0 -56.5 -14.5t-22.5 -38.5q0 -12 10 -30q1 -3 5 -12t4 -19
q0 -14 -10 -22t-26 -8q-19 0 -29.5 16.5t-10.5 46.5q0 50 39.5 80t101.5 30q135 0 135 -155v-325q0 -27 3.5 -38t16.5 -11q11 0 17.5 11t17.5 40h21zM214 50q26 20 62 67v192l-45 -22q-69 -34 -106 -74.5t-37 -97.5q0 -42 17.5 -63.5t50.5 -21.5q32 0 58 20z" />
    <glyph glyph-name="b" unicode="b" horiz-adv-x="461" 
d="M78 754q-2 12 -13 12t-36 -12l-9 19l104 47l11 -11v-362h4q31 45 65 70.5t73 25.5q43 0 76 -30.5t51 -86.5t18 -131q0 -84 -22 -156t-63 -115.5t-96 -43.5q-45 0 -79.5 18t-81.5 54v652q0 38 -2 50zM183 32.5q25 -18.5 54 -18.5q63 0 93 75t30 177q0 114 -27 171.5
t-75 57.5q-38 0 -65.5 -22t-57.5 -60v-334q23 -28 48 -46.5z" />
    <glyph glyph-name="c" unicode="c" horiz-adv-x="391" 
d="M218 509q-57 0 -87 -64.5t-30 -178.5q0 -109 35 -173.5t96 -64.5q43 0 71 40.5t47 136.5h21q-12 -111 -52 -168t-106 -57q-83 0 -128.5 75t-45.5 196q0 88 22.5 154t64 102t96.5 36q41 0 70.5 -20.5t44.5 -50.5t15 -57q0 -45 -36 -45q-38 0 -40 48q-2 91 -58 91z" />
    <glyph glyph-name="d" unicode="d" horiz-adv-x="467" 
d="M446 27l-104 -47l-11 11v85h-4q-31 -49 -61 -72.5t-68 -23.5q-76 0 -117.5 71t-41.5 189q0 129 45.5 216t133.5 87q34 0 62.5 -18.5t48.5 -47.5h2v227q0 38 -2 50t-13 12q-10 0 -36 -12l-9 19l104 47l11 -11v-713q0 -38 2 -50t13 -12t36 12zM331 323q0 86 -29 136t-77 50
q-66 0 -95 -71.5t-29 -174.5q0 -108 28.5 -172.5t84.5 -64.5q40 0 64.5 23t52.5 69v205z" />
    <glyph glyph-name="e" unicode="e" horiz-adv-x="399" 
d="M360 213q-12 -114 -55 -173.5t-104 -59.5q-77 0 -119.5 76.5t-42.5 203.5q0 78 20.5 142.5t59 102.5t91.5 38q69 0 108.5 -68.5t39.5 -181.5h-260v-22q0 -65 14 -120t40.5 -87.5t62.5 -32.5q40 0 73 43t51 139h21zM134 458.5q-27 -50.5 -34 -131.5h199q0 77 -22.5 129.5
t-69.5 52.5q-46 0 -73 -50.5z" />
    <glyph glyph-name="f" unicode="f" horiz-adv-x="293" 
d="M314 805.5q27 -14.5 42.5 -36.5t15.5 -45q0 -20 -10.5 -31t-26.5 -11t-27 10t-12 30q-1 29 -10.5 46.5t-41.5 17.5q-49 0 -67.5 -42.5t-18.5 -121.5v-99h93v-34h-93v-393q0 -33 6.5 -48t26.5 -21t64 -6v-21h-217v21q30 0 43 6t17.5 21t4.5 48v393h-65v34h65v58
q0 117 36 178t115 61q33 0 60 -14.5z" />
    <glyph glyph-name="g" unicode="g" horiz-adv-x="460" 
d="M395 37.5q54 -27.5 54 -94.5q0 -48 -34 -90.5t-93 -67.5t-128 -25q-78 0 -131 30.5t-53 92.5q0 41 24 75.5t72 71.5q-25 10 -36.5 26.5t-11.5 40.5q0 25 15.5 47.5t44.5 50.5q-29 26 -45 66t-16 89q0 56 20.5 100t57 68.5t82.5 24.5q50 0 88 -29q63 29 115 29
q30 0 30 -23q0 -13 -8.5 -17.5t-25.5 -4.5q-49 0 -83 -10l-6 5q23 -26 36 -63t13 -80q0 -56 -21 -100t-57 -68.5t-81 -24.5q-44 0 -82 24q-21 -20 -30.5 -34t-9.5 -29q0 -27 32 -40t114 -13q100 0 154 -27.5zM139.5 474q-24.5 -35 -24.5 -101q0 -21 1 -32q7 -72 34 -111
t71 -39q47 0 72 35t25 100q0 21 -1 32q-8 73 -34.5 112t-70.5 39q-48 0 -72.5 -35zM360 -156.5q55 31.5 55 89.5q0 47 -45 63.5t-132 16.5q-70 0 -110 10q-41 -35 -58 -62t-17 -55q0 -43 42 -68.5t118 -25.5q92 0 147 31.5z" />
    <glyph glyph-name="h" unicode="h" horiz-adv-x="471" 
d="M153 450q63 93 134 93q98 0 98 -134v-313q0 -33 4.5 -48t18 -21t43.5 -6v-21h-185v21q29 0 42 6t17.5 21t4.5 48v313q0 89 -60 89q-55 0 -120 -82v-320q0 -33 4 -48t17 -21t42 -6v-21h-184v21q30 0 43 6t17.5 21t4.5 48v608q0 38 -2 49.5t-13 11.5q-10 0 -36 -12l-9 20
l104 47l12 -11v-359h3z" />
    <glyph glyph-name="i" unicode="i" horiz-adv-x="235" 
d="M81.5 741.5q-13.5 13.5 -13.5 32.5t13.5 32.5t32.5 13.5t32.5 -13.5t13.5 -32.5t-13.5 -32.5t-32.5 -13.5t-32.5 13.5zM154.5 48q4.5 -15 17.5 -21t43 -6v-21h-186v21q30 0 43 6t17.5 21t4.5 48v331q0 38 -2 49.5t-13 11.5q-10 0 -36 -12l-9 19l104 48l12 -12v-435
q0 -33 4.5 -48z" />
    <glyph glyph-name="j" unicode="j" horiz-adv-x="222" 
d="M81.5 741.5q-13.5 13.5 -13.5 32.5t14 32.5t33 13.5t32.5 -13.5t13.5 -32.5t-13.5 -32.5t-32.5 -13.5q-20 0 -33.5 13.5zM141 540l11 -11v-584q0 -89 -25.5 -137t-82.5 -48q-43 0 -67.5 23.5t-24.5 54.5q0 18 10.5 28t27.5 10q18 0 28 -10.5t11 -31.5q0 -21 4.5 -30.5
t21.5 -9.5q27 0 34.5 39t7.5 122v469q0 38 -2 49.5t-13 11.5t-37 -12l-9 20l70 31z" />
    <glyph glyph-name="k" unicode="k" horiz-adv-x="467" 
d="M154.5 48q4.5 -15 17.5 -21t43 -6v-21h-186v21q30 0 43 6t17.5 21t4.5 48v608q0 38 -2 49.5t-13 11.5q-10 0 -36 -12l-9 20l104 47l12 -11v-713q0 -33 4.5 -48zM405.5 33q19.5 -12 51.5 -12v-21h-192v21q30 0 41 2.5t11 11.5q0 6 -6.5 19t-16.5 29l-124 221l123 145
q7 8 20 23.5t13 20.5t-10.5 6.5t-39.5 1.5v22h168v-22q-35 0 -57 -9.5t-50 -42.5l-108 -128l135 -238q22 -38 41.5 -50z" />
    <glyph glyph-name="l" unicode="l" horiz-adv-x="235" 
d="M154.5 48q4.5 -15 17.5 -21t43 -6v-21h-186v21q30 0 43 6t17.5 21t4.5 48v608q0 38 -2 49.5t-13 11.5q-10 0 -36 -12l-9 20l104 47l12 -11v-713q0 -33 4.5 -48z" />
    <glyph glyph-name="m" unicode="m" horiz-adv-x="703" 
d="M621.5 48q4.5 -15 18 -21t43.5 -6v-21h-184v21q29 0 42 6t17 21t4 48v314q0 44 -14 64.5t-44 20.5q-56 0 -120 -78v-8v-313q0 -33 4 -48t17 -21t42 -6v-21h-182v21q29 0 42 6t17.5 21t4.5 48v314q0 44 -14.5 64.5t-44.5 20.5q-57 0 -120 -79v-320q0 -33 4 -48t17 -21
t42 -6v-21h-184v21q30 0 43 6t17.5 21t4.5 48v331q0 38 -2 49.5t-13 11.5q-10 0 -36 -12l-9 19l104 48l12 -12v-81h3q30 44 62 68.5t71 24.5q82 0 95 -93h3q31 44 64.5 68.5t72.5 24.5q51 0 73.5 -35t22.5 -99v-313q0 -33 4.5 -48z" />
    <glyph glyph-name="n" unicode="n" horiz-adv-x="471" 
d="M153 450q63 93 134 93q98 0 98 -134v-313q0 -33 4.5 -48t18 -21t43.5 -6v-21h-185v21q29 0 42 6t17.5 21t4.5 48v313q0 89 -60 89q-55 0 -120 -82v-320q0 -33 4 -48t17 -21t42 -6v-21h-184v21q30 0 43 6t17.5 21t4.5 48v331q0 38 -2 49.5t-13 11.5q-10 0 -36 -12l-9 19
l104 48l12 -12v-81h3z" />
    <glyph glyph-name="o" unicode="o" horiz-adv-x="473" 
d="M131 17q-45 37 -68.5 101t-23.5 143t23.5 143.5t68.5 101.5t106 37q60 0 105 -37t68.5 -101.5t23.5 -143.5t-23.5 -143t-68.5 -101t-105 -37q-61 0 -106 37zM340 70q33 55 33 151q0 34 -2 52q-10 109 -49 172t-98 63t-91.5 -55.5t-32.5 -152.5q0 -15 2 -51
q10 -109 48.5 -171.5t97.5 -62.5t92 55z" />
    <glyph glyph-name="p" unicode="p" horiz-adv-x="467" 
d="M394.5 472q33.5 -71 33.5 -180q0 -84 -19.5 -155t-57 -114t-88.5 -43q-37 0 -68 19.5t-52 57.5h-2v-181q0 -34 4.5 -49t17.5 -20.5t43 -5.5v-21h-186v21q30 0 43.5 5.5t18 21t4.5 48.5v551q0 38 -2 49.5t-13 11.5q-10 0 -36 -12l-9 19l104 48l11 -12v-103h4
q32 56 67.5 85.5t79.5 29.5q69 0 102.5 -71zM340.5 86.5q25.5 72.5 25.5 176.5q0 114 -21.5 173.5t-72.5 59.5q-38 0 -72 -29t-59 -71v-205q0 -82 32.5 -129.5t83.5 -47.5q58 0 83.5 72.5z" />
    <glyph glyph-name="q" unicode="q" horiz-adv-x="467" 
d="M382 531v-655q0 -34 4.5 -49t17.5 -20.5t43 -5.5v-21h-186v21q30 0 43 5.5t17.5 20.5t4.5 49v200h-4q-32 -48 -61 -72t-68 -24q-71 0 -112.5 67.5t-41.5 181.5q0 136 46.5 225t141.5 89q29 0 54.5 -9t54.5 -26l34 35zM232 509q-73 0 -102 -72t-29 -179q0 -116 29 -173
t83 -57q33 0 55 17.5t37.5 37.5t20.5 26v332q-35 68 -94 68z" />
    <glyph glyph-name="r" unicode="r" horiz-adv-x="351" 
d="M315.5 530q16.5 -13 16.5 -34q0 -16 -10.5 -27.5t-27.5 -11.5q-24 0 -35 21q-6 14 -18 14q-21 0 -40.5 -20t-50.5 -71v-305q0 -33 6.5 -48t26.5 -21t65 -6v-21h-219v21q30 0 43 6t17.5 21t4.5 48v331q0 38 -2 49.5t-13 11.5q-10 0 -36 -12l-9 19l104 48l12 -12v-84h3
q54 96 120 96q26 0 42.5 -13z" />
    <glyph glyph-name="s" unicode="s" horiz-adv-x="350" 
d="M51 186h21q8 -78 42 -125t86 -47q34 0 50.5 21t16.5 59q0 32 -14 59.5t-35 50t-63 60.5q-55 51 -80 85t-25 80q0 49 32 81.5t81 32.5q28 0 46 -8.5t35 -21.5q13 -10 19 -10q8 0 9.5 6.5t1.5 23.5h21v-160h-21q-10 60 -37.5 98t-70.5 38q-32 0 -47.5 -20.5t-15.5 -44.5
q0 -37 24.5 -69t74.5 -76q67 -59 92.5 -98.5t25.5 -95.5q0 -60 -33.5 -92.5t-83.5 -32.5q-30 0 -50.5 8t-41.5 21q-2 1 -10 6t-14 5q-9 0 -12 -7t-3 -23h-21v196z" />
    <glyph glyph-name="t" unicode="t" horiz-adv-x="324" 
d="M304 220q-1 -84 -9.5 -135.5t-31 -78t-63.5 -26.5q-53 0 -79.5 42t-26.5 138v329h-83v34q43 1 67 14.5t34.5 44t12.5 84.5h24v-143h121v-34h-121v-292q0 -62 4 -96.5t17.5 -54.5t42.5 -20q37 0 53 43t17 151h21z" />
    <glyph glyph-name="u" unicode="u" horiz-adv-x="452" 
d="M314 73q-63 -93 -134 -93q-97 0 -97 134v310q0 38 -3.5 51t-18.5 13q-9 0 -35 -8l-7 20l108 34l11 -11v-409q0 -90 60 -90q30 0 59 22t60 61v317q0 38 -3.5 51t-18.5 13q-9 0 -35 -8l-6 20l107 34l11 -11v-427q0 -38 2 -50t13 -12t36 12l9 -19l-104 -47l-11 11v82h-3z
" />
    <glyph glyph-name="v" unicode="v" horiz-adv-x="457" 
d="M350 475q0 16 -12.5 21t-46.5 5v22h156v-22q-31 0 -45 -13.5t-27 -57.5l-129 -453h-33l-131 454q-13 43 -27 56.5t-45 13.5v22h179v-22q-30 0 -41.5 -5t-11.5 -19q0 -12 10 -47l96 -335h3l96 335q9 30 9 45z" />
    <glyph glyph-name="w" unicode="w" horiz-adv-x="676" 
d="M666 501q-31 0 -45.5 -13.5t-26.5 -57.5l-129 -453h-32l-82 284l-85 -284h-33l-148 454q-10 30 -19 45t-21.5 20t-34.5 5v22h186v-22q-33 0 -45 -4.5t-12 -18.5q0 -12 11 -47l111 -345h3l70 235l-32 110q-12 43 -26.5 56.5t-46.5 13.5v22h180v-22q-31 0 -42.5 -5
t-11.5 -19q0 -12 10 -47l96 -335h3l96 335q10 33 10 46q0 15 -12.5 20t-46.5 5v22h155v-22z" />
    <glyph glyph-name="x" unicode="x" horiz-adv-x="454" 
d="M385 33.5q18 -12.5 50 -12.5v-21h-183v21q27 0 37.5 3t10.5 12q0 8 -8.5 25l-12.5 25l-66 135l-66 -135q-2 -5 -11 -23t-9 -27t10.5 -12t37.5 -3v-21h-153v21q32 0 50 12.5t38 52.5l84 173l-87 178q-20 40 -38 52t-50 12v22h183v-22q-27 0 -37.5 -3t-10.5 -12
q0 -8 9 -25.5t12 -23.5l53 -108l52 107l12.5 25t8.5 25q0 9 -10.5 12t-37.5 3v22h153v-22q-32 0 -50.5 -12.5t-37.5 -52.5l-71 -146l100 -204q20 -40 38 -52.5z" />
    <glyph glyph-name="y" unicode="y" horiz-adv-x="458" 
d="M37 -150.5q11 11.5 28 11.5q16 0 25 -7.5t15 -20.5q7 -11 12 -15.5t16 -4.5q28 0 48.5 43.5t41.5 139.5l-131 435q-13 43 -27.5 56.5t-45.5 13.5v22h186v-22q-34 0 -46.5 -5t-12.5 -20q0 -13 10 -46l96 -331l83 331q8 30 8 44q0 16 -12.5 21.5t-47.5 5.5v22h156v-22
q-21 0 -33 -5.5t-20.5 -20t-16.5 -45.5l-104 -412l-8 -30q-19 -75 -35 -120t-44.5 -76.5t-72.5 -31.5q-34 0 -56.5 17t-22.5 44q0 17 11 28.5z" />
    <glyph glyph-name="z" unicode="z" horiz-adv-x="398" 
d="M320 42.5q15 8.5 21 35.5t6 87h21v-165h-338v21l261 468h-144q-33 0 -48 -7.5t-20.5 -30.5t-5.5 -74h-22v146h317v-22l-261 -467h165q33 0 48 8.5z" />
    <glyph glyph-name="braceleft" unicode="{" horiz-adv-x="364" 
d="M234 741.5q-30 -42.5 -30 -94.5q0 -29 5 -54t15 -60q10 -34 15 -60t5 -56q0 -51 -22 -86t-54 -51.5t-65 -17.5v-3q32 -1 64.5 -18t54.5 -52t22 -86q0 -30 -5 -56t-15 -60q-10 -35 -15 -60t-5 -54q0 -52 30 -94.5t100 -57.5v-21q-100 13 -141 67.5t-41 117.5q0 34 4.5 63
t13.5 67q1 7 8 41t7 67q0 62 -39 94t-96 32v22q57 0 96 32t39 95q0 26 -3.5 49.5t-11.5 57.5q-9 38 -13.5 67t-4.5 63q0 63 41 117.5t141 67.5v-21q-70 -15 -100 -57.5z" />
    <glyph glyph-name="bar" unicode="|" horiz-adv-x="151" 
d="M101 854v-1048h-51v1048h51z" />
    <glyph glyph-name="braceright" unicode="}" horiz-adv-x="364" 
d="M218 303q39 -32 96 -32v-22q-57 0 -96 -32t-39 -94q0 -33 7 -67t8 -41q9 -38 13.5 -67.5t4.5 -62.5q0 -63 -41 -117.5t-141 -67.5v21q70 15 100 57.5t30 94.5q0 29 -5 54t-15 60q-10 34 -15 60t-5 56q0 51 22 86t54.5 52t64.5 18v3q-33 1 -65 17.5t-54 51.5t-22 86
q0 30 5 56t15 60q10 35 15 60t5 54q0 52 -30 94.5t-100 57.5v21q100 -13 141 -67.5t41 -117.5q0 -33 -4.5 -62.5t-13.5 -67.5q-8 -34 -11.5 -57.5t-3.5 -49.5q0 -63 39 -95z" />
    <glyph glyph-name="asciitilde" unicode="~" horiz-adv-x="553" 
d="M503 329q-1 -57 -32.5 -88.5t-79.5 -31.5q-29 0 -53.5 8.5t-65.5 26.5q-37 17 -63 26t-55 9q-71 0 -83 -69h-21q1 57 32 88.5t80 31.5q29 0 53.5 -8.5t65.5 -26.5q37 -17 63 -26t55 -9q71 0 82 69h22z" />
    <glyph glyph-name="exclamdown" unicode="&#xa1;" horiz-adv-x="194" 
d="M129.5 529q13.5 -14 13.5 -33t-13.5 -32.5t-32.5 -13.5t-32.5 13.5t-13.5 32.5q0 20 13.5 33.5t32.5 13.5t32.5 -14zM63.5 -115.5q4.5 60.5 5.5 77.5q8 107 12.5 187t5.5 181h22q2 -163 17 -367q9 -128 9 -184q0 -42 -9.5 -59.5t-28.5 -17.5t-28.5 17.5t-9.5 59.5
q0 45 4.5 105.5z" />
    <glyph glyph-name="cent" unicode="&#xa2;" horiz-adv-x="431" 
d="M380 205q-13 -112 -53 -168.5t-105 -56.5q-27 0 -51 9l-47 -209h-32l51 223q-46 30 -70.5 95.5t-24.5 152.5q0 88 22.5 154t64 102t96.5 36q12 0 34 -4l59 261h32l-62 -273q31 -18 49 -50t18 -62q0 -45 -36 -45q-38 0 -40 48q-2 31 -6 44l-95 -416q26 -18 57 -18
q43 0 71 40.5t47 136.5h21zM122.5 152.5q12.5 -49.5 35.5 -80.5l98 428q-12 9 -29 9q-57 0 -87 -64.5t-30 -178.5q0 -64 12.5 -113.5z" />
    <glyph glyph-name="sterling" unicode="&#xa3;" horiz-adv-x="508" 
d="M458 165q-3 -76 -25 -130.5t-86 -54.5q-36 0 -65.5 17.5t-73.5 52.5q-36 -70 -87 -70q-34 0 -52.5 20.5t-18.5 53.5q0 37 23 56.5t53 19.5q24 0 58 -16q10 64 10 166q0 40 -4 94h-103v32h99q-2 20 -8 56q-7 54 -10 84.5t-3 72.5q0 92 38.5 146.5t116.5 54.5
q35 0 62.5 -15t42.5 -39.5t15 -51.5q0 -18 -10.5 -29.5t-26.5 -11.5t-27.5 10.5t-11.5 28.5q0 37 -8.5 55.5t-42.5 18.5q-46 0 -67.5 -43.5t-21.5 -115.5q0 -38 3 -69.5t10 -73.5q8 -46 11 -78h125v-32h-123q3 -34 3 -79q0 -121 -29 -206q38 -25 63.5 -37.5t57.5 -12.5
q45 0 66.5 30.5t25.5 95.5h21zM175 75q-29 21 -52 21q-17 0 -28 -11t-11 -30q0 -18 9 -29.5t27 -11.5q37 0 55 61z" />
    <glyph glyph-name="currency" unicode="&#xa4;" horiz-adv-x="629" 
d="M480 228l99 -98l-30 -30l-99 99q-58 -49 -136 -49q-38 0 -73 12.5t-63 35.5l-98 -98l-30 30l98 98q-23 28 -35.5 63t-12.5 73q0 77 48 136l-98 98l30 30l98 -98q28 23 63 35.5t73 12.5t73.5 -12.5t63.5 -35.5l98 98l30 -30l-99 -98q49 -58 49 -136t-49 -136zM166 278.5
q23 -39.5 62 -63t86 -23.5t86.5 23.5t62.5 63t23 85.5q0 47 -23 86.5t-62.5 62.5t-86.5 23t-86 -23t-62 -62.5t-23 -86.5q0 -46 23 -85.5z" />
    <glyph glyph-name="yen" unicode="&#xa5;" horiz-adv-x="753" 
d="M602.5 766.5q-20.5 -12.5 -39.5 -53.5l-143 -317h226v-31h-240l-6 -13v-69h246v-32h-246v-155q0 -33 6.5 -48t27.5 -21t70 -6v-21h-270v21q49 0 70 6t27.5 21t6.5 48v155h-231v32h231v69l-6 13h-225v31h209l-158 318q-20 41 -41.5 53t-66.5 12v21h245v-21q-46 0 -63 -4
t-17 -16q0 -8 7.5 -23.5t10.5 -21.5l152 -308h3l138 307q15 33 15 44q0 13 -16.5 17.5t-63.5 4.5v21h207v-21q-45 0 -65.5 -12.5z" />
    <glyph glyph-name="brokenbar" unicode="&#xa6;" horiz-adv-x="151" 
d="M101 794v-374h-51v374h51zM101 240v-374h-51v374h51z" />
    <glyph glyph-name="section" unicode="&#xa7;" horiz-adv-x="390" 
d="M314.5 266.5q-25.5 -37.5 -66.5 -70.5q30 -35 43.5 -69t13.5 -70q0 -65 -36.5 -100t-88.5 -35q-35 0 -61.5 14.5t-41 37t-14.5 43.5q0 18 9.5 29t24.5 11q16 0 25.5 -9.5t9.5 -26.5q1 -30 11.5 -48.5t44.5 -18.5q40 0 61 26.5t21 67.5q0 38 -23 71.5t-86 88.5t-87 92
t-24 90q0 48 25.5 86t65.5 71q-56 66 -56 138q0 65 36.5 100t88.5 35q35 0 61 -14.5t40.5 -36.5t14.5 -44q0 -18 -9 -29t-24 -11t-25 10t-10 27q-1 29 -11.5 48t-44.5 19q-40 0 -61 -26.5t-21 -68.5q0 -37 23 -71.5t86 -88.5q62 -54 86.5 -91t24.5 -91q0 -48 -25.5 -85.5z
M234 212q33 30 50.5 58.5t17.5 63.5q0 31 -12 55t-34 47t-70 65l-30 29q-33 -29 -50.5 -58t-17.5 -64q0 -30 12 -54t33.5 -46.5t70.5 -66.5q21 -19 30 -29z" />
    <glyph glyph-name="dieresis" unicode="&#xa8;" horiz-adv-x="365" 
d="M63.5 681.5q-13.5 13.5 -13.5 32.5t13.5 32.5t32.5 13.5t33 -13.5t14 -32.5t-13.5 -32.5t-33.5 -13.5q-19 0 -32.5 13.5zM236.5 681.5q-13.5 13.5 -13.5 32.5t13.5 32.5t32.5 13.5t33 -13.5t14 -32.5t-13.5 -32.5t-33.5 -13.5q-19 0 -32.5 13.5z" />
    <glyph glyph-name="copyright" unicode="&#xa9;" horiz-adv-x="920" 
d="M669.5 765.5q93.5 -55.5 147.5 -152.5t54 -214q0 -115 -54 -211t-148 -152.5t-208 -56.5q-116 0 -210 56.5t-148 152.5t-54 211q0 118 54 214.5t148 152t210 55.5q115 0 208.5 -55.5zM266 737.5q-87 -52.5 -136.5 -142t-49.5 -196.5t49.5 -196.5t136.5 -141t195 -51.5
q105 0 192 52t137 141t50 196t-50 196.5t-137 142t-192 52.5q-108 0 -195 -52.5zM239.5 530.5q32.5 59.5 88 93t123.5 33.5q51 0 84.5 -13t64.5 -34q2 -1 10.5 -6.5t13.5 -5.5q6 0 8 7.5t2 31.5h21l15 -185h-21q-10 81 -63 126t-131 45q-53 0 -97.5 -28.5t-70.5 -80.5
t-26 -117q0 -66 26.5 -117.5t73 -80t104.5 -28.5q79 0 137 48.5t81 137.5h22q-25 -105 -88.5 -162.5t-161.5 -57.5q-72 0 -128.5 33.5t-88 92.5t-31.5 134q0 74 32.5 133.5z" />
    <glyph glyph-name="guillemotleft" unicode="&#xab;" horiz-adv-x="415" 
d="M225 49h-21l-151 244l151 241h21l-116 -241zM368 49h-21l-151 244l151 241h21l-116 -241z" />
    <glyph glyph-name="logicalnot" unicode="&#xac;" horiz-adv-x="587" 
d="M537 425v-256h-51v205h-436v51h487z" />
    <glyph glyph-name="registered" unicode="&#xae;" horiz-adv-x="922" 
d="M670 765.5q94 -55.5 148.5 -152t54.5 -213.5q0 -115 -54.5 -211.5t-149 -153t-208.5 -56.5q-116 0 -210 56.5t-148 153t-54 211.5q0 118 54 214t148 151.5t210 55.5q115 0 209 -55.5zM653.5 62q87.5 52 138 141.5t50.5 196.5t-50.5 196t-138 141.5t-192.5 52.5
q-108 0 -195 -52t-136.5 -141.5t-49.5 -196.5t49.5 -196.5t136.5 -141.5t195 -52q105 0 192.5 52zM630 173q20 -11 49 -11v-21h-96l-148 220h-18h-60v-124q0 -33 3 -48t14 -21t35 -6v-21h-151v21q24 0 35 6t14 21t3 48v328q0 33 -3 48t-14 21t-35 6v21h157q207 0 207 -150
q0 -60 -33 -96.5t-103 -48.5l99 -146q25 -36 45 -47zM532.5 420q38.5 28 38.5 91q0 62 -37 90.5t-112 28.5q-41 0 -65 -9v-229h55q82 0 120.5 28z" />
    <glyph glyph-name="macron" unicode="&#xaf;" horiz-adv-x="345" 
d="M295 728v-34h-245v34h245z" />
    <glyph glyph-name="degree" unicode="&#xb0;" horiz-adv-x="506" 
d="M150.5 443q-46.5 27 -73.5 73.5t-27 102.5t27 102t73.5 73t102.5 27t102.5 -27t73.5 -73t27 -102t-27 -102.5t-73.5 -73.5t-102.5 -27t-102.5 27zM334 478.5q37 21.5 58.5 59t21.5 81.5t-21.5 81t-58.5 58.5t-81 21.5t-81.5 -21.5t-59 -58.5t-21.5 -81t21.5 -81.5t59 -59
t81.5 -21.5t81 21.5z" />
    <glyph glyph-name="plusminus" unicode="&#xb1;" horiz-adv-x="490" 
d="M50 367h170v169h52v-169h168v-51h-168v-170h-52v170h-170v51zM50 98h390v-51h-390v51z" />
    <glyph glyph-name="acute" unicode="&#xb4;" horiz-adv-x="235" 
d="M116 804h80l-115 -179h-32z" />
    <glyph glyph-name="paragraph" unicode="&#xb6;" horiz-adv-x="616" 
d="M566 799q-49 0 -70 -6t-27.5 -21t-6.5 -48v-889h-43v951h-107v-951h-43v618q-99 0 -159 47.5t-60 135.5q0 89 59.5 136.5t159.5 47.5h297v-21z" />
    <glyph glyph-name="periodcentered" unicode="&#xb7;" horiz-adv-x="193" 
d="M63.5 363.5q-13.5 13.5 -13.5 32.5t13.5 33t32.5 14q20 0 33.5 -13.5t13.5 -33.5q0 -19 -14 -32.5t-33 -13.5t-32.5 13.5z" />
    <glyph glyph-name="cedilla" unicode="&#xb8;" horiz-adv-x="309" 
d="M191 10h34l-54 -63q37 -3 62.5 -23.5t25.5 -53.5q0 -56 -48 -84.5t-120 -28.5q-27 0 -41 2l6 21l21 -1q60 0 95.5 21t35.5 63q0 37 -25.5 50.5t-73.5 14.5z" />
    <glyph glyph-name="guillemotright" unicode="&#xbb;" horiz-adv-x="415" 
d="M48 534h21l151 -241l-151 -244h-21l116 244zM190 534h21l152 -241l-152 -244h-21l117 244z" />
    <glyph glyph-name="onequarter" unicode="&#xbc;" horiz-adv-x="716" 
d="M171.5 349q7.5 -8 37.5 -8v-13h-130v13q30 0 37.5 8t7.5 36v355q0 21 -1 27t-8 6q-8 0 -37 -15l-7 11l85 46l8 -7v-423q0 -28 7.5 -36zM620 800l-497 -800h-36l497 800h36zM560 480h34v-314h54v-29h-54v-80q0 -28 7.5 -36t37.5 -8v-13h-129v13q30 0 37.5 8t7.5 36v80
h-197v29zM555 435l-169 -267v-2h169v269z" />
    <glyph glyph-name="onehalf" unicode="&#xbd;" horiz-adv-x="836" 
d="M171.5 349q7.5 -8 37.5 -8v-13h-130v13q30 0 37.5 8t7.5 36v355q0 21 -1 27t-8 6q-8 0 -37 -15l-7 11l85 46l8 -7v-423q0 -28 7.5 -36zM634 800l-497 -800h-36l497 800h36zM727 44q13 10 24 42l14 -3l-20 -57l-9 -26h-279v13q120 109 180.5 188.5t60.5 156.5q0 44 -21 72
t-67 28q-56 0 -86 -39.5t-31 -105.5h-15q0 82 38 130.5t109 48.5q57 0 86.5 -34t29.5 -87q0 -82 -66.5 -166.5t-166.5 -168.5v-2h174q32 0 45 10z" />
    <glyph glyph-name="threequarters" unicode="&#xbe;" horiz-adv-x="809" 
d="M81.5 359.5q6.5 4.5 15.5 4.5t15.5 -4t15.5 -13q10 -9 22.5 -14t31.5 -5q42 0 72.5 29t30.5 85q0 66 -37 94.5t-94 30.5v13q50 16 78.5 46.5t28.5 75.5q0 34 -19.5 56.5t-55.5 22.5q-73 0 -94 -76h-15q8 52 40.5 79.5t80.5 27.5q45 0 75 -29t30 -77q0 -79 -94 -122v-1
q54 -8 86.5 -41.5t32.5 -89.5q0 -42 -21 -75t-57 -51t-79 -18q-37 0 -66.5 11t-29.5 28q0 8 6.5 12.5zM713 800l-497 -800h-36l497 800h36zM652 480h34v-314h54v-29h-54v-80q0 -28 7.5 -36t37.5 -8v-13h-129v13q30 0 37.5 8t7.5 36v80h-197v29zM647 435l-169 -267v-2h169
v269z" />
    <glyph glyph-name="questiondown" unicode="&#xbf;" horiz-adv-x="396" 
d="M233 526.5q14 -13.5 14 -32.5t-13.5 -32.5t-33.5 -13.5q-19 0 -32.5 13.5t-13.5 32.5t13.5 32.5t32.5 13.5t33 -13.5zM118.5 -233q25.5 -33 75.5 -33q45 0 70 27t25 63q0 18 -4.5 28.5t-13.5 22.5q-8 11 -11 17.5t-3 17.5q0 15 9.5 23.5t24.5 8.5q23 0 39 -25.5t16 -68.5
q0 -39 -18.5 -73t-54 -54.5t-84.5 -20.5q-73 0 -116 42.5t-43 106.5q0 51 16 87.5t49 84.5q31 47 49.5 83t32 92t13.5 132h21q0 -87 -11 -148t-26 -99t-38 -81t-33 -72.5t-10 -70.5q0 -57 25.5 -90z" />
    <glyph glyph-name="Agrave" unicode="&#xc0;" horiz-adv-x="696" 
d="M612.5 46.5q10.5 -14.5 27 -20t46.5 -5.5v-21h-239v21q49 0 67 6t18 22q0 12 -10 42l-53 168h-278l-52 -168q-10 -30 -10 -42q0 -16 18 -22t68 -6v-21h-205v21q30 0 46.5 5.5t27 20t20.5 44.5l228 732h30l230 -732q10 -30 20.5 -44.5zM459 293l-128 409h-3l-127 -409h258
zM361 900l-114 179h80l67 -179h-33z" />
    <glyph glyph-name="Aacute" unicode="&#xc1;" horiz-adv-x="696" 
d="M612.5 46.5q10.5 -14.5 27 -20t46.5 -5.5v-21h-239v21q49 0 67 6t18 22q0 12 -10 42l-53 168h-278l-52 -168q-10 -30 -10 -42q0 -16 18 -22t68 -6v-21h-205v21q30 0 46.5 5.5t27 20t20.5 44.5l228 732h30l230 -732q10 -30 20.5 -44.5zM459 293l-128 409h-3l-127 -409h258
zM378 1079h80l-115 -179h-32z" />
    <glyph glyph-name="Acircumflex" unicode="&#xc2;" horiz-adv-x="696" 
d="M612.5 46.5q10.5 -14.5 27 -20t46.5 -5.5v-21h-239v21q49 0 67 6t18 22q0 12 -10 42l-53 168h-278l-52 -168q-10 -30 -10 -42q0 -16 18 -22t68 -6v-21h-205v21q30 0 46.5 5.5t27 20t20.5 44.5l228 732h30l230 -732q10 -30 20.5 -44.5zM459 293l-128 409h-3l-127 -409h258
zM440 899l-93 130l-93 -130h-33l90 179h72l90 -179h-33z" />
    <glyph glyph-name="Atilde" unicode="&#xc3;" horiz-adv-x="696" 
d="M612.5 46.5q10.5 -14.5 27 -20t46.5 -5.5v-21h-239v21q49 0 67 6t18 22q0 12 -10 42l-53 168h-278l-52 -168q-10 -30 -10 -42q0 -16 18 -22t68 -6v-21h-205v21q30 0 46.5 5.5t27 20t20.5 44.5l228 732h30l230 -732q10 -30 20.5 -44.5zM459 293l-128 409h-3l-127 -409h258
zM377 953.5q-18 9.5 -39 26.5q-20 16 -34.5 23.5t-30.5 7.5q-23 0 -34 -16.5t-14 -50.5h-21q2 55 19 86t54 31q21 0 39 -9t40 -27q19 -15 33.5 -23t31.5 -8q24 0 34.5 16.5t12.5 50.5h21q-2 -55 -19 -86t-54 -31q-21 0 -39 9.5z" />
    <glyph glyph-name="Adieresis" unicode="&#xc4;" horiz-adv-x="696" 
d="M612.5 46.5q10.5 -14.5 27 -20t46.5 -5.5v-21h-239v21q49 0 67 6t18 22q0 12 -10 42l-53 168h-278l-52 -168q-10 -30 -10 -42q0 -16 18 -22t68 -6v-21h-205v21q30 0 46.5 5.5t27 20t20.5 44.5l228 732h30l230 -732q10 -30 20.5 -44.5zM459 293l-128 409h-3l-127 -409h258
zM227.5 956.5q-13.5 13.5 -13.5 32.5t13.5 32.5t32.5 13.5t33 -13.5t14 -32.5t-13.5 -32.5t-33.5 -13.5q-19 0 -32.5 13.5zM400.5 956.5q-13.5 13.5 -13.5 32.5t13.5 32.5t32.5 13.5t33 -13.5t14 -32.5t-13.5 -32.5t-33.5 -13.5q-19 0 -32.5 13.5z" />
    <glyph glyph-name="Aring" unicode="&#xc5;" horiz-adv-x="696" 
d="M612.5 46.5q10.5 -14.5 27 -20t46.5 -5.5v-21h-239v21q49 0 67 6t18 22q0 12 -10 42l-53 168h-278l-52 -168q-10 -30 -10 -42q0 -16 18 -22t68 -6v-21h-205v21q30 0 46.5 5.5t27 20t20.5 44.5l228 732h30l230 -732q10 -30 20.5 -44.5zM459 293l-128 409h-3l-127 -409h258
zM277 934q-28 29 -28 68q0 40 28 68.5t70 28.5q41 0 68.5 -28.5t27.5 -68.5q0 -39 -27.5 -68t-68.5 -29q-42 0 -70 29zM394 956.5q17 19.5 17 45.5t-17 45t-47 19q-31 0 -48 -19t-17 -45t17 -45.5t48 -19.5q30 0 47 19.5z" />
    <glyph glyph-name="AE" unicode="&#xc6;" horiz-adv-x="853" 
d="M842 200l-53 -182l-5 -18h-448v21q49 0 70 6t27.5 21t6.5 48v168h-216l-75 -176q-15 -33 -15 -44q0 -13 17.5 -18t64.5 -5v-21h-206v21q45 0 65 12.5t38 54.5l266 624q15 33 15 44q0 13 -17.5 18t-64.5 5v21h469l2 -20l17 -155l-22 -2q-7 66 -16 95.5t-24.5 38.5t-48.5 9
h-187v-329h135q33 0 47.5 7t20.5 30.5t6 77.5h22v-264h-22q0 54 -6 77.5t-20.5 30.5t-47.5 7h-135v-312q0 -35 9 -46t38 -11h149q33 0 51 11.5t34 46.5t39 114zM440 298v467h-3l-199 -467h202z" />
    <glyph glyph-name="Ccedilla" unicode="&#xc7;" horiz-adv-x="621" 
d="M525 87q-59 -91 -159 -105l-33 -38q37 -3 62.5 -23.5t25.5 -53.5q0 -56 -48 -84.5t-120 -28.5q-27 0 -41 2l6 21l21 -1q60 0 95.5 21t35.5 63q0 37 -25.5 50.5t-73.5 14.5l55 55q-87 2 -152 58t-100 150.5t-35 211.5q0 118 36.5 213.5t104.5 151t157 55.5q45 0 77 -12
t64 -32q23 -15 33 -15t14 9t4 40h21l15 -275h-21q-13 127 -63.5 189t-135.5 62q-73 0 -127 -51t-83 -139t-29 -196t29 -195.5t82.5 -138t126.5 -50.5q94 0 156.5 83.5t79.5 223.5h21q-17 -145 -76 -236z" />
    <glyph glyph-name="Egrave" unicode="&#xc8;" horiz-adv-x="584" 
d="M530 625l-21 -2q-7 66 -16 95t-25 38.5t-49 9.5h-233v-329h154q33 0 47.5 7t20.5 30.5t6 77.5h22v-264h-22q0 54 -6 77.5t-20.5 30.5t-47.5 7h-154v-312q0 -35 9 -46t38 -11h196q33 0 51 11.5t34.5 47t38.5 113.5l21 -6l-54 -182l-5 -18h-495v21q49 0 70 6t27.5 21
t6.5 48v608q0 33 -6.5 48t-27.5 21t-70 6v21h491l2 -20zM309 874l-114 179h80l67 -179h-33z" />
    <glyph glyph-name="Eacute" unicode="&#xc9;" horiz-adv-x="584" 
d="M530 625l-21 -2q-7 66 -16 95t-25 38.5t-49 9.5h-233v-329h154q33 0 47.5 7t20.5 30.5t6 77.5h22v-264h-22q0 54 -6 77.5t-20.5 30.5t-47.5 7h-154v-312q0 -35 9 -46t38 -11h196q33 0 51 11.5t34.5 47t38.5 113.5l21 -6l-54 -182l-5 -18h-495v21q49 0 70 6t27.5 21
t6.5 48v608q0 33 -6.5 48t-27.5 21t-70 6v21h491l2 -20zM326 1053h80l-115 -179h-32z" />
    <glyph glyph-name="Ecircumflex" unicode="&#xca;" horiz-adv-x="584" 
d="M530 625l-21 -2q-7 66 -16 95t-25 38.5t-49 9.5h-233v-329h154q33 0 47.5 7t20.5 30.5t6 77.5h22v-264h-22q0 54 -6 77.5t-20.5 30.5t-47.5 7h-154v-312q0 -35 9 -46t38 -11h196q33 0 51 11.5t34.5 47t38.5 113.5l21 -6l-54 -182l-5 -18h-495v21q49 0 70 6t27.5 21
t6.5 48v608q0 33 -6.5 48t-27.5 21t-70 6v21h491l2 -20zM388 873l-93 130l-93 -130h-33l90 179h72l90 -179h-33z" />
    <glyph glyph-name="Edieresis" unicode="&#xcb;" horiz-adv-x="584" 
d="M530 625l-21 -2q-7 66 -16 95t-25 38.5t-49 9.5h-233v-329h154q33 0 47.5 7t20.5 30.5t6 77.5h22v-264h-22q0 54 -6 77.5t-20.5 30.5t-47.5 7h-154v-312q0 -35 9 -46t38 -11h196q33 0 51 11.5t34.5 47t38.5 113.5l21 -6l-54 -182l-5 -18h-495v21q49 0 70 6t27.5 21
t6.5 48v608q0 33 -6.5 48t-27.5 21t-70 6v21h491l2 -20zM175.5 930.5q-13.5 13.5 -13.5 32.5t13.5 32.5t32.5 13.5t33 -13.5t14 -32.5t-13.5 -32.5t-33.5 -13.5q-19 0 -32.5 13.5zM348.5 930.5q-13.5 13.5 -13.5 32.5t13.5 32.5t32.5 13.5t33 -13.5t14 -32.5t-13.5 -32.5
t-33.5 -13.5q-19 0 -32.5 13.5z" />
    <glyph glyph-name="Igrave" unicode="&#xcc;" horiz-adv-x="310" 
d="M117.5 752q-6.5 15 -27.5 21t-70 6v21h270v-21q-49 0 -70 -6t-27.5 -21t-6.5 -48v-608q0 -33 6.5 -48t27.5 -21t70 -6v-21h-270v21q49 0 70 6t27.5 21t6.5 48v608q0 33 -6.5 48zM169 874l-114 179h80l67 -179h-33z" />
    <glyph glyph-name="Iacute" unicode="&#xcd;" horiz-adv-x="310" 
d="M117.5 752q-6.5 15 -27.5 21t-70 6v21h270v-21q-49 0 -70 -6t-27.5 -21t-6.5 -48v-608q0 -33 6.5 -48t27.5 -21t70 -6v-21h-270v21q49 0 70 6t27.5 21t6.5 48v608q0 33 -6.5 48zM186 1053h80l-115 -179h-32z" />
    <glyph glyph-name="Icircumflex" unicode="&#xce;" horiz-adv-x="310" 
d="M117.5 752q-6.5 15 -27.5 21t-70 6v21h270v-21q-49 0 -70 -6t-27.5 -21t-6.5 -48v-608q0 -33 6.5 -48t27.5 -21t70 -6v-21h-270v21q49 0 70 6t27.5 21t6.5 48v608q0 33 -6.5 48zM248 873l-93 130l-93 -130h-33l90 179h72l90 -179h-33z" />
    <glyph glyph-name="Idieresis" unicode="&#xcf;" horiz-adv-x="310" 
d="M117.5 752q-6.5 15 -27.5 21t-70 6v21h270v-21q-49 0 -70 -6t-27.5 -21t-6.5 -48v-608q0 -33 6.5 -48t27.5 -21t70 -6v-21h-270v21q49 0 70 6t27.5 21t6.5 48v608q0 33 -6.5 48zM35.5 930.5q-13.5 13.5 -13.5 32.5t13.5 32.5t32.5 13.5t33 -13.5t14 -32.5t-13.5 -32.5
t-33.5 -13.5q-19 0 -32.5 13.5zM208.5 930.5q-13.5 13.5 -13.5 32.5t13.5 32.5t32.5 13.5t33 -13.5t14 -32.5t-13.5 -32.5t-33.5 -13.5q-19 0 -32.5 13.5z" />
    <glyph glyph-name="Eth" unicode="&#xd0;" horiz-adv-x="714" 
d="M492.5 752.5q86.5 -47.5 134.5 -138t48 -214.5t-49.5 -214.5t-136 -138t-196.5 -47.5h-273v21q49 0 70 6t27.5 21t6.5 48v319h-84v30h84v259q0 33 -6.5 48t-27.5 21t-70 6v21h273q113 0 199.5 -47.5zM459.5 79.5q71.5 45.5 110 128t38.5 192.5t-38.5 192.5t-110 128
t-166.5 45.5q-68 0 -107 -18v-303h198v-30h-198v-363q39 -18 107 -18q95 0 166.5 45.5z" />
    <glyph glyph-name="Ntilde" unicode="&#xd1;" horiz-adv-x="745" 
d="M725 779q-49 0 -70 -6t-27.5 -21t-6.5 -48v-727h-30l-433 705v-586q0 -33 6.5 -48t28 -21t69.5 -6v-21h-242v21q49 0 70 6t27.5 21t6.5 48v640q-20 27 -41.5 35t-62.5 8v21h142l422 -685h3v589q0 33 -6.5 48t-28 21t-69.5 6v21h242v-21zM383 927.5q-18 9.5 -39 26.5
q-20 16 -34.5 23.5t-30.5 7.5q-23 0 -34 -16.5t-14 -50.5h-21q2 55 19 86t54 31q21 0 39 -9t40 -27q19 -15 33.5 -23t31.5 -8q24 0 34.5 16.5t12.5 50.5h21q-2 -55 -19 -86t-54 -31q-21 0 -39 9.5z" />
    <glyph glyph-name="Ograve" unicode="&#xd2;" horiz-adv-x="662" 
d="M176 36q-66 56 -101.5 152t-35.5 212t35.5 212t101.5 152t155 56t155.5 -56t101.5 -151.5t35 -212.5t-35 -212.5t-101.5 -151.5t-155.5 -56t-155 56zM461.5 55q46.5 42 71 117.5t24.5 173.5q0 37 -3 74q-9 109 -42 192t-84.5 129.5t-115.5 46.5t-111 -42t-72 -118
t-25 -175q0 -35 3 -73q9 -109 42 -192t84.5 -129t116.5 -46t111.5 42zM345 874l-114 179h80l67 -179h-33z" />
    <glyph glyph-name="Oacute" unicode="&#xd3;" horiz-adv-x="662" 
d="M176 36q-66 56 -101.5 152t-35.5 212t35.5 212t101.5 152t155 56t155.5 -56t101.5 -151.5t35 -212.5t-35 -212.5t-101.5 -151.5t-155.5 -56t-155 56zM461.5 55q46.5 42 71 117.5t24.5 173.5q0 37 -3 74q-9 109 -42 192t-84.5 129.5t-115.5 46.5t-111 -42t-72 -118
t-25 -175q0 -35 3 -73q9 -109 42 -192t84.5 -129t116.5 -46t111.5 42zM362 1053h80l-115 -179h-32z" />
    <glyph glyph-name="Ocircumflex" unicode="&#xd4;" horiz-adv-x="662" 
d="M176 36q-66 56 -101.5 152t-35.5 212t35.5 212t101.5 152t155 56t155.5 -56t101.5 -151.5t35 -212.5t-35 -212.5t-101.5 -151.5t-155.5 -56t-155 56zM461.5 55q46.5 42 71 117.5t24.5 173.5q0 37 -3 74q-9 109 -42 192t-84.5 129.5t-115.5 46.5t-111 -42t-72 -118
t-25 -175q0 -35 3 -73q9 -109 42 -192t84.5 -129t116.5 -46t111.5 42zM425 873l-93 130l-93 -130h-33l90 179h72l90 -179h-33z" />
    <glyph glyph-name="Otilde" unicode="&#xd5;" horiz-adv-x="662" 
d="M176 36q-66 56 -101.5 152t-35.5 212t35.5 212t101.5 152t155 56t155.5 -56t101.5 -151.5t35 -212.5t-35 -212.5t-101.5 -151.5t-155.5 -56t-155 56zM461.5 55q46.5 42 71 117.5t24.5 173.5q0 37 -3 74q-9 109 -42 192t-84.5 129.5t-115.5 46.5t-111 -42t-72 -118
t-25 -175q0 -35 3 -73q9 -109 42 -192t84.5 -129t116.5 -46t111.5 42zM362 927.5q-18 9.5 -39 26.5q-20 16 -34.5 23.5t-30.5 7.5q-23 0 -34 -16.5t-14 -50.5h-21q2 55 19 86t54 31q21 0 39 -9t40 -27q19 -15 33.5 -23t31.5 -8q24 0 34.5 16.5t12.5 50.5h21q-2 -55 -19 -86
t-54 -31q-21 0 -39 9.5z" />
    <glyph glyph-name="Odieresis" unicode="&#xd6;" horiz-adv-x="662" 
d="M176 36q-66 56 -101.5 152t-35.5 212t35.5 212t101.5 152t155 56t155.5 -56t101.5 -151.5t35 -212.5t-35 -212.5t-101.5 -151.5t-155.5 -56t-155 56zM461.5 55q46.5 42 71 117.5t24.5 173.5q0 37 -3 74q-9 109 -42 192t-84.5 129.5t-115.5 46.5t-111 -42t-72 -118
t-25 -175q0 -35 3 -73q9 -109 42 -192t84.5 -129t116.5 -46t111.5 42zM212.5 930.5q-13.5 13.5 -13.5 32.5t13.5 32.5t32.5 13.5t33 -13.5t14 -32.5t-13.5 -32.5t-33.5 -13.5q-19 0 -32.5 13.5zM385.5 930.5q-13.5 13.5 -13.5 32.5t13.5 32.5t32.5 13.5t33 -13.5t14 -32.5
t-13.5 -32.5t-33.5 -13.5q-19 0 -32.5 13.5z" />
    <glyph glyph-name="multiply" unicode="&#xd7;" horiz-adv-x="413" 
d="M86 426l121 -120l120 119l36 -36l-120 -120l119 -119l-36 -36l-119 119l-120 -120l-36 37l120 119l-121 121z" />
    <glyph glyph-name="Oslash" unicode="&#xd8;" horiz-adv-x="682" 
d="M601 572.5q22 -80.5 22 -172.5q0 -117 -35 -212.5t-101.5 -151.5t-155.5 -56q-99 0 -173 72l-59 -103l-26 15l64 111q-47 58 -72.5 142.5t-25.5 182.5q0 116 35.5 212t101.5 152t155 56q109 0 186 -85l67 117l26 -15l-73 -127q42 -57 64 -137.5zM173 138l309 536
q-33 55 -76 84.5t-93 29.5q-65 0 -112 -42t-72 -118t-25 -175q0 -35 3 -73q14 -146 66 -242zM461.5 55q46.5 42 71 117.5t24.5 173.5q0 37 -3 74q-12 132 -56 223l-307 -534q66 -96 159 -96q65 0 111.5 42z" />
    <glyph glyph-name="Ugrave" unicode="&#xd9;" horiz-adv-x="752" 
d="M587.5 752q-6.5 15 -27.5 21t-70 6v21h242v-21q-48 0 -69.5 -6t-28 -21t-6.5 -48v-467q0 -108 -54 -182.5t-184 -74.5q-142 0 -204 73t-62 187v464q0 33 -6.5 48t-27.5 21t-70 6v21h270v-21q-49 0 -70 -6t-27.5 -21t-6.5 -48v-467q0 -115 52 -169t156 -54q94 0 147 55
t53 168v467q0 33 -6.5 48zM407 874l-114 179h80l67 -179h-33z" />
    <glyph glyph-name="Uacute" unicode="&#xda;" horiz-adv-x="752" 
d="M587.5 752q-6.5 15 -27.5 21t-70 6v21h242v-21q-48 0 -69.5 -6t-28 -21t-6.5 -48v-467q0 -108 -54 -182.5t-184 -74.5q-142 0 -204 73t-62 187v464q0 33 -6.5 48t-27.5 21t-70 6v21h270v-21q-49 0 -70 -6t-27.5 -21t-6.5 -48v-467q0 -115 52 -169t156 -54q94 0 147 55
t53 168v467q0 33 -6.5 48zM424 1053h80l-115 -179h-32z" />
    <glyph glyph-name="Ucircumflex" unicode="&#xdb;" horiz-adv-x="752" 
d="M587.5 752q-6.5 15 -27.5 21t-70 6v21h242v-21q-48 0 -69.5 -6t-28 -21t-6.5 -48v-467q0 -108 -54 -182.5t-184 -74.5q-142 0 -204 73t-62 187v464q0 33 -6.5 48t-27.5 21t-70 6v21h270v-21q-49 0 -70 -6t-27.5 -21t-6.5 -48v-467q0 -115 52 -169t156 -54q94 0 147 55
t53 168v467q0 33 -6.5 48zM486 873l-93 130l-93 -130h-33l90 179h72l90 -179h-33z" />
    <glyph glyph-name="Udieresis" unicode="&#xdc;" horiz-adv-x="752" 
d="M587.5 752q-6.5 15 -27.5 21t-70 6v21h242v-21q-48 0 -69.5 -6t-28 -21t-6.5 -48v-467q0 -108 -54 -182.5t-184 -74.5q-142 0 -204 73t-62 187v464q0 33 -6.5 48t-27.5 21t-70 6v21h270v-21q-49 0 -70 -6t-27.5 -21t-6.5 -48v-467q0 -115 52 -169t156 -54q94 0 147 55
t53 168v467q0 33 -6.5 48zM273.5 930.5q-13.5 13.5 -13.5 32.5t13.5 32.5t32.5 13.5t33 -13.5t14 -32.5t-13.5 -32.5t-33.5 -13.5q-19 0 -32.5 13.5zM446.5 930.5q-13.5 13.5 -13.5 32.5t13.5 32.5t32.5 13.5t33 -13.5t14 -32.5t-13.5 -32.5t-33.5 -13.5q-19 0 -32.5 13.5z
" />
    <glyph glyph-name="Yacute" unicode="&#xdd;" horiz-adv-x="638" 
d="M366.5 48q6.5 -15 27.5 -21t70 -6v-21h-270v21q49 0 70 6t27.5 21t6.5 48v256l-180 362q-20 41 -41.5 53t-66.5 12v21h245v-21q-46 0 -63 -4t-17 -16q0 -8 7.5 -23.5t10.5 -21.5l152 -308h3l138 307q15 33 15 44q0 13 -16.5 17.5t-63.5 4.5v21h207v-21q-45 0 -65.5 -12.5
t-39.5 -53.5l-163 -361v-256q0 -33 6.5 -48zM368 1053h80l-115 -179h-32z" />
    <glyph glyph-name="Thorn" unicode="&#xde;" horiz-adv-x="572" 
d="M20 21q49 0 70 6t27.5 21t6.5 48v608q0 33 -6.5 48t-27.5 21t-70 6v21h270v-21q-49 0 -70 -6t-27.5 -21t-6.5 -48v-80h100q117 0 186.5 -57.5t69.5 -169.5q0 -71 -29.5 -120t-80.5 -74t-113 -25q-57 0 -133 20v-102q0 -33 6.5 -48t27.5 -21t70 -6v-21h-270v21zM428 260.5
q47 49.5 47 136.5q0 93 -54 143t-136 50q-50 0 -99 -18v-341q67 -20 122 -20q73 0 120 49.5z" />
    <glyph glyph-name="germandbls" unicode="&#xdf;" horiz-adv-x="496" 
d="M48 21q30 0 43 6t17.5 21t4.5 48v427h-63v21q36 0 49.5 13t13.5 53q0 110 45 160t120 50q70 0 110.5 -41.5t40.5 -111.5q0 -56 -34 -106.5t-104 -85.5v-3q48 -10 88 -48.5t63.5 -96t23.5 -123.5q0 -101 -33.5 -162.5t-97.5 -61.5q-46 0 -65 21.5t-19 48.5q0 15 9.5 25.5
t25.5 10.5q15 0 24 -10t9 -25q0 -7 -1 -13t-1 -11q0 -17 21 -17q32 0 49 51t17 131q0 78 -23.5 136t-65 89t-92.5 31v21q64 28 103.5 80.5t39.5 112.5q0 56 -23 90t-68 34q-107 0 -107 -173v-517q0 -33 4.5 -48t18 -21t43.5 -6v-21h-186v21z" />
    <glyph glyph-name="agrave" unicode="&#xe0;" horiz-adv-x="418" 
d="M408 65q-12 -44 -26 -64.5t-45 -20.5q-34 0 -47.5 22.5t-13.5 63.5v19h-2q-24 -42 -56 -73.5t-84 -31.5q-51 0 -77.5 33t-26.5 90q0 59 27.5 97.5t63.5 60.5t109 58l46 22v50q0 61 -16 92t-68 31q-34 0 -56.5 -14.5t-22.5 -38.5q0 -12 10 -30q1 -3 5 -12t4 -19
q0 -14 -10 -22t-26 -8q-19 0 -29.5 16.5t-10.5 46.5q0 50 39.5 80t101.5 30q135 0 135 -155v-325q0 -27 3.5 -38t16.5 -11q11 0 17.5 11t17.5 40h21zM214 50q26 20 62 67v192l-45 -22q-69 -34 -106 -74.5t-37 -97.5q0 -42 17.5 -63.5t50.5 -21.5q32 0 58 20zM221 625
l-114 179h80l67 -179h-33z" />
    <glyph glyph-name="aacute" unicode="&#xe1;" horiz-adv-x="418" 
d="M408 65q-12 -44 -26 -64.5t-45 -20.5q-34 0 -47.5 22.5t-13.5 63.5v19h-2q-24 -42 -56 -73.5t-84 -31.5q-51 0 -77.5 33t-26.5 90q0 59 27.5 97.5t63.5 60.5t109 58l46 22v50q0 61 -16 92t-68 31q-34 0 -56.5 -14.5t-22.5 -38.5q0 -12 10 -30q1 -3 5 -12t4 -19
q0 -14 -10 -22t-26 -8q-19 0 -29.5 16.5t-10.5 46.5q0 50 39.5 80t101.5 30q135 0 135 -155v-325q0 -27 3.5 -38t16.5 -11q11 0 17.5 11t17.5 40h21zM214 50q26 20 62 67v192l-45 -22q-69 -34 -106 -74.5t-37 -97.5q0 -42 17.5 -63.5t50.5 -21.5q32 0 58 20zM238 804h80
l-115 -179h-32z" />
    <glyph glyph-name="acircumflex" unicode="&#xe2;" horiz-adv-x="418" 
d="M408 65q-12 -44 -26 -64.5t-45 -20.5q-34 0 -47.5 22.5t-13.5 63.5v19h-2q-24 -42 -56 -73.5t-84 -31.5q-51 0 -77.5 33t-26.5 90q0 59 27.5 97.5t63.5 60.5t109 58l46 22v50q0 61 -16 92t-68 31q-34 0 -56.5 -14.5t-22.5 -38.5q0 -12 10 -30q1 -3 5 -12t4 -19
q0 -14 -10 -22t-26 -8q-19 0 -29.5 16.5t-10.5 46.5q0 50 39.5 80t101.5 30q135 0 135 -155v-325q0 -27 3.5 -38t16.5 -11q11 0 17.5 11t17.5 40h21zM214 50q26 20 62 67v192l-45 -22q-69 -34 -106 -74.5t-37 -97.5q0 -42 17.5 -63.5t50.5 -21.5q32 0 58 20zM300 624
l-93 130l-93 -130h-33l90 179h72l90 -179h-33z" />
    <glyph glyph-name="atilde" unicode="&#xe3;" horiz-adv-x="418" 
d="M408 65q-12 -44 -26 -64.5t-45 -20.5q-34 0 -47.5 22.5t-13.5 63.5v19h-2q-24 -42 -56 -73.5t-84 -31.5q-51 0 -77.5 33t-26.5 90q0 59 27.5 97.5t63.5 60.5t109 58l46 22v50q0 61 -16 92t-68 31q-34 0 -56.5 -14.5t-22.5 -38.5q0 -12 10 -30q1 -3 5 -12t4 -19
q0 -14 -10 -22t-26 -8q-19 0 -29.5 16.5t-10.5 46.5q0 50 39.5 80t101.5 30q135 0 135 -155v-325q0 -27 3.5 -38t16.5 -11q11 0 17.5 11t17.5 40h21zM214 50q26 20 62 67v192l-45 -22q-69 -34 -106 -74.5t-37 -97.5q0 -42 17.5 -63.5t50.5 -21.5q32 0 58 20zM237 678.5
q-18 9.5 -39 26.5q-20 16 -34.5 23.5t-30.5 7.5q-23 0 -34 -16.5t-14 -50.5h-21q2 55 19 86t54 31q21 0 39 -9t40 -27q19 -15 33.5 -23t31.5 -8q24 0 34.5 16.5t12.5 50.5h21q-2 -55 -19 -86t-54 -31q-21 0 -39 9.5z" />
    <glyph glyph-name="adieresis" unicode="&#xe4;" horiz-adv-x="418" 
d="M408 65q-12 -44 -26 -64.5t-45 -20.5q-34 0 -47.5 22.5t-13.5 63.5v19h-2q-24 -42 -56 -73.5t-84 -31.5q-51 0 -77.5 33t-26.5 90q0 59 27.5 97.5t63.5 60.5t109 58l46 22v50q0 61 -16 92t-68 31q-34 0 -56.5 -14.5t-22.5 -38.5q0 -12 10 -30q1 -3 5 -12t4 -19
q0 -14 -10 -22t-26 -8q-19 0 -29.5 16.5t-10.5 46.5q0 50 39.5 80t101.5 30q135 0 135 -155v-325q0 -27 3.5 -38t16.5 -11q11 0 17.5 11t17.5 40h21zM214 50q26 20 62 67v192l-45 -22q-69 -34 -106 -74.5t-37 -97.5q0 -42 17.5 -63.5t50.5 -21.5q32 0 58 20zM87.5 681.5
q-13.5 13.5 -13.5 32.5t13.5 32.5t32.5 13.5t33 -13.5t14 -32.5t-13.5 -32.5t-33.5 -13.5q-19 0 -32.5 13.5zM260.5 681.5q-13.5 13.5 -13.5 32.5t13.5 32.5t32.5 13.5t33 -13.5t14 -32.5t-13.5 -32.5t-33.5 -13.5q-19 0 -32.5 13.5z" />
    <glyph glyph-name="aring" unicode="&#xe5;" horiz-adv-x="418" 
d="M408 65q-12 -44 -26 -64.5t-45 -20.5q-34 0 -47.5 22.5t-13.5 63.5v19h-2q-24 -42 -56 -73.5t-84 -31.5q-51 0 -77.5 33t-26.5 90q0 59 27.5 97.5t63.5 60.5t109 58l46 22v50q0 61 -16 92t-68 31q-34 0 -56.5 -14.5t-22.5 -38.5q0 -12 10 -30q1 -3 5 -12t4 -19
q0 -14 -10 -22t-26 -8q-19 0 -29.5 16.5t-10.5 46.5q0 50 39.5 80t101.5 30q135 0 135 -155v-325q0 -27 3.5 -38t16.5 -11q11 0 17.5 11t17.5 40h21zM214 50q26 20 62 67v192l-45 -22q-69 -34 -106 -74.5t-37 -97.5q0 -42 17.5 -63.5t50.5 -21.5q32 0 58 20zM137 659
q-28 29 -28 68q0 40 28 68.5t70 28.5q41 0 68.5 -28.5t27.5 -68.5q0 -39 -27.5 -68t-68.5 -29q-42 0 -70 29zM254 681.5q17 19.5 17 45.5t-17 45t-47 19q-31 0 -48 -19t-17 -45t17 -45.5t48 -19.5q30 0 47 19.5z" />
    <glyph glyph-name="ae" unicode="&#xe6;" horiz-adv-x="637" 
d="M598 213q-12 -114 -55 -173.5t-104 -59.5q-50 0 -86 32.5t-55 92.5q-32 -53 -71 -89t-93 -36q-51 0 -77.5 32.5t-26.5 86.5q0 57 27.5 97t67 65.5t105.5 57.5l46 22v50q0 61 -15.5 92t-67.5 31q-34 0 -56 -14.5t-22 -38.5q0 -10 9 -30q9 -18 9 -31t-9.5 -21.5t-25.5 -8.5
q-20 0 -30.5 16t-10.5 47q0 50 39.5 80t101.5 30q97 0 124 -82q22 39 54.5 60.5t71.5 21.5q68 0 108 -68.5t40 -181.5h-261v-22q0 -65 14 -120t41 -87.5t63 -32.5q40 0 73 43t51 139h21zM371.5 458.5q-27.5 -50.5 -34.5 -131.5h200q0 76 -22.5 129t-69.5 53
q-46 0 -73.5 -50.5zM220 52.5q31 22.5 71 76.5q-15 57 -15 131v49l-45 -22q-69 -34 -106 -74.5t-37 -97.5q0 -42 17.5 -63.5t50.5 -21.5t64 22.5z" />
    <glyph glyph-name="ccedilla" unicode="&#xe7;" horiz-adv-x="391" 
d="M297.5 -76.5q25.5 -20.5 25.5 -53.5q0 -56 -48 -84.5t-120 -28.5q-27 0 -41 2l6 21l21 -1q60 0 95.5 21t35.5 63q0 37 -25.5 50.5t-73.5 14.5l53 53q-5 -1 -13 -1q-83 0 -128.5 75t-45.5 196q0 88 22.5 154t64 102t96.5 36q41 0 70.5 -20.5t44.5 -50.5t15 -57
q0 -45 -36 -45q-38 0 -40 48q-2 91 -58 91q-57 0 -87 -64.5t-30 -178.5q0 -109 35 -173.5t96 -64.5q43 0 71 40.5t47 136.5h21q-16 -159 -92 -207l-44 -51q37 -3 62.5 -23.5z" />
    <glyph glyph-name="egrave" unicode="&#xe8;" horiz-adv-x="399" 
d="M360 213q-12 -114 -55 -173.5t-104 -59.5q-77 0 -119.5 76.5t-42.5 203.5q0 78 20.5 142.5t59 102.5t91.5 38q69 0 108.5 -68.5t39.5 -181.5h-260v-22q0 -65 14 -120t40.5 -87.5t62.5 -32.5q40 0 73 43t51 139h21zM134 458.5q-27 -50.5 -34 -131.5h199q0 77 -22.5 129.5
t-69.5 52.5q-46 0 -73 -50.5zM225 625l-114 179h80l67 -179h-33z" />
    <glyph glyph-name="eacute" unicode="&#xe9;" horiz-adv-x="399" 
d="M360 213q-12 -114 -55 -173.5t-104 -59.5q-77 0 -119.5 76.5t-42.5 203.5q0 78 20.5 142.5t59 102.5t91.5 38q69 0 108.5 -68.5t39.5 -181.5h-260v-22q0 -65 14 -120t40.5 -87.5t62.5 -32.5q40 0 73 43t51 139h21zM134 458.5q-27 -50.5 -34 -131.5h199q0 77 -22.5 129.5
t-69.5 52.5q-46 0 -73 -50.5zM242 804h80l-115 -179h-32z" />
    <glyph glyph-name="ecircumflex" unicode="&#xea;" horiz-adv-x="399" 
d="M360 213q-12 -114 -55 -173.5t-104 -59.5q-77 0 -119.5 76.5t-42.5 203.5q0 78 20.5 142.5t59 102.5t91.5 38q69 0 108.5 -68.5t39.5 -181.5h-260v-22q0 -65 14 -120t40.5 -87.5t62.5 -32.5q40 0 73 43t51 139h21zM134 458.5q-27 -50.5 -34 -131.5h199q0 77 -22.5 129.5
t-69.5 52.5q-46 0 -73 -50.5zM304 624l-93 130l-93 -130h-33l90 179h72l90 -179h-33z" />
    <glyph glyph-name="edieresis" unicode="&#xeb;" horiz-adv-x="399" 
d="M360 213q-12 -114 -55 -173.5t-104 -59.5q-77 0 -119.5 76.5t-42.5 203.5q0 78 20.5 142.5t59 102.5t91.5 38q69 0 108.5 -68.5t39.5 -181.5h-260v-22q0 -65 14 -120t40.5 -87.5t62.5 -32.5q40 0 73 43t51 139h21zM134 458.5q-27 -50.5 -34 -131.5h199q0 77 -22.5 129.5
t-69.5 52.5q-46 0 -73 -50.5zM91.5 681.5q-13.5 13.5 -13.5 32.5t13.5 32.5t32.5 13.5t33 -13.5t14 -32.5t-13.5 -32.5t-33.5 -13.5q-19 0 -32.5 13.5zM264.5 681.5q-13.5 13.5 -13.5 32.5t13.5 32.5t32.5 13.5t33 -13.5t14 -32.5t-13.5 -32.5t-33.5 -13.5q-19 0 -32.5 13.5
z" />
    <glyph glyph-name="igrave" unicode="&#xec;" horiz-adv-x="235" 
d="M154.5 48q4.5 -15 17.5 -21t43 -6v-21h-186v21q30 0 43 6t17.5 21t4.5 48v331q0 38 -2 49.5t-13 11.5q-10 0 -36 -12l-9 19l104 48l12 -12v-435q0 -33 4.5 -48zM116 625l-114 179h80l67 -179h-33z" />
    <glyph glyph-name="iacute" unicode="&#xed;" horiz-adv-x="235" 
d="M154.5 48q4.5 -15 17.5 -21t43 -6v-21h-186v21q30 0 43 6t17.5 21t4.5 48v331q0 38 -2 49.5t-13 11.5q-10 0 -36 -12l-9 19l104 48l12 -12v-435q0 -33 4.5 -48zM133 804h80l-115 -179h-32z" />
    <glyph glyph-name="icircumflex" unicode="&#xee;" horiz-adv-x="235" 
d="M154.5 48q4.5 -15 17.5 -21t43 -6v-21h-186v21q30 0 43 6t17.5 21t4.5 48v331q0 38 -2 49.5t-13 11.5q-10 0 -36 -12l-9 19l104 48l12 -12v-435q0 -33 4.5 -48zM195 624l-93 130l-93 -130h-33l90 179h72l90 -179h-33z" />
    <glyph glyph-name="idieresis" unicode="&#xef;" horiz-adv-x="235" 
d="M154.5 48q4.5 -15 17.5 -21t43 -6v-21h-186v21q30 0 43 6t17.5 21t4.5 48v331q0 38 -2 49.5t-13 11.5q-10 0 -36 -12l-9 19l104 48l12 -12v-435q0 -33 4.5 -48zM-17.5 681.5q-13.5 13.5 -13.5 32.5t13.5 32.5t32.5 13.5t33 -13.5t14 -32.5t-13.5 -32.5t-33.5 -13.5
q-19 0 -32.5 13.5zM155.5 681.5q-13.5 13.5 -13.5 32.5t13.5 32.5t32.5 13.5t33 -13.5t14 -32.5t-13.5 -32.5t-33.5 -13.5q-19 0 -32.5 13.5z" />
    <glyph glyph-name="eth" unicode="&#xf0;" horiz-adv-x="515" 
d="M439 124q-26 -67 -73.5 -105.5t-108.5 -38.5q-70 0 -116.5 43.5t-68.5 112.5t-22 146q0 69 22 127.5t67 94.5t109 36q32 0 61 -14t50 -39q-39 96 -104 178l-113 -66l-15 26l109 63q-52 60 -123 111v21q83 -44 155 -113l114 66l15 -26l-107 -62q86 -91 130.5 -200
t44.5 -210q0 -84 -26 -151zM363 86.5q39 72.5 39 182.5q0 79 -21 154q-27 46 -57 64.5t-70 18.5q-71 0 -106 -69t-35 -165q0 -118 35.5 -188t106.5 -70q69 0 108 72.5z" />
    <glyph glyph-name="ntilde" unicode="&#xf1;" horiz-adv-x="471" 
d="M153 450q63 93 134 93q98 0 98 -134v-313q0 -33 4.5 -48t18 -21t43.5 -6v-21h-185v21q29 0 42 6t17.5 21t4.5 48v313q0 89 -60 89q-55 0 -120 -82v-320q0 -33 4 -48t17 -21t42 -6v-21h-184v21q30 0 43 6t17.5 21t4.5 48v331q0 38 -2 49.5t-13 11.5q-10 0 -36 -12l-9 19
l104 48l12 -12v-81h3zM262 678.5q-18 9.5 -39 26.5q-20 16 -34.5 23.5t-30.5 7.5q-23 0 -34 -16.5t-14 -50.5h-21q2 55 19 86t54 31q21 0 39 -9t40 -27q19 -15 33.5 -23t31.5 -8q24 0 34.5 16.5t12.5 50.5h21q-2 -55 -19 -86t-54 -31q-21 0 -39 9.5z" />
    <glyph glyph-name="ograve" unicode="&#xf2;" horiz-adv-x="473" 
d="M131 17q-45 37 -68.5 101t-23.5 143t23.5 143.5t68.5 101.5t106 37q60 0 105 -37t68.5 -101.5t23.5 -143.5t-23.5 -143t-68.5 -101t-105 -37q-61 0 -106 37zM340 70q33 55 33 151q0 34 -2 52q-10 109 -49 172t-98 63t-91.5 -55.5t-32.5 -152.5q0 -15 2 -51
q10 -109 48.5 -171.5t97.5 -62.5t92 55zM251 625l-114 179h80l67 -179h-33z" />
    <glyph glyph-name="oacute" unicode="&#xf3;" horiz-adv-x="473" 
d="M131 17q-45 37 -68.5 101t-23.5 143t23.5 143.5t68.5 101.5t106 37q60 0 105 -37t68.5 -101.5t23.5 -143.5t-23.5 -143t-68.5 -101t-105 -37q-61 0 -106 37zM340 70q33 55 33 151q0 34 -2 52q-10 109 -49 172t-98 63t-91.5 -55.5t-32.5 -152.5q0 -15 2 -51
q10 -109 48.5 -171.5t97.5 -62.5t92 55zM267 804h80l-115 -179h-32z" />
    <glyph glyph-name="ocircumflex" unicode="&#xf4;" horiz-adv-x="473" 
d="M131 17q-45 37 -68.5 101t-23.5 143t23.5 143.5t68.5 101.5t106 37q60 0 105 -37t68.5 -101.5t23.5 -143.5t-23.5 -143t-68.5 -101t-105 -37q-61 0 -106 37zM340 70q33 55 33 151q0 34 -2 52q-10 109 -49 172t-98 63t-91.5 -55.5t-32.5 -152.5q0 -15 2 -51
q10 -109 48.5 -171.5t97.5 -62.5t92 55zM330 624l-93 130l-93 -130h-33l90 179h72l90 -179h-33z" />
    <glyph glyph-name="otilde" unicode="&#xf5;" horiz-adv-x="473" 
d="M131 17q-45 37 -68.5 101t-23.5 143t23.5 143.5t68.5 101.5t106 37q60 0 105 -37t68.5 -101.5t23.5 -143.5t-23.5 -143t-68.5 -101t-105 -37q-61 0 -106 37zM340 70q33 55 33 151q0 34 -2 52q-10 109 -49 172t-98 63t-91.5 -55.5t-32.5 -152.5q0 -15 2 -51
q10 -109 48.5 -171.5t97.5 -62.5t92 55zM267 678.5q-18 9.5 -39 26.5q-20 16 -34.5 23.5t-30.5 7.5q-23 0 -34 -16.5t-14 -50.5h-21q2 55 19 86t54 31q21 0 39 -9t40 -27q19 -15 33.5 -23t31.5 -8q24 0 34.5 16.5t12.5 50.5h21q-2 -55 -19 -86t-54 -31q-21 0 -39 9.5z" />
    <glyph glyph-name="odieresis" unicode="&#xf6;" horiz-adv-x="473" 
d="M131 17q-45 37 -68.5 101t-23.5 143t23.5 143.5t68.5 101.5t106 37q60 0 105 -37t68.5 -101.5t23.5 -143.5t-23.5 -143t-68.5 -101t-105 -37q-61 0 -106 37zM340 70q33 55 33 151q0 34 -2 52q-10 109 -49 172t-98 63t-91.5 -55.5t-32.5 -152.5q0 -15 2 -51
q10 -109 48.5 -171.5t97.5 -62.5t92 55zM117.5 681.5q-13.5 13.5 -13.5 32.5t13.5 32.5t32.5 13.5t33 -13.5t14 -32.5t-13.5 -32.5t-33.5 -13.5q-19 0 -32.5 13.5zM290.5 681.5q-13.5 13.5 -13.5 32.5t13.5 32.5t32.5 13.5t33 -13.5t14 -32.5t-13.5 -32.5t-33.5 -13.5
q-19 0 -32.5 13.5z" />
    <glyph glyph-name="divide" unicode="&#xf7;" horiz-adv-x="415" 
d="M180.5 404q-11.5 11 -11.5 27t11.5 27.5t27.5 11.5t27 -11.5t11 -27.5t-11 -27t-27 -11t-27.5 11zM50 296h315v-52h-315v52zM180.5 81.5q-11.5 11.5 -11.5 27.5t11.5 27.5t27.5 11.5t27 -11.5t11 -27.5t-11 -27.5t-27 -11.5t-27.5 11.5z" />
    <glyph glyph-name="oslash" unicode="&#xf8;" horiz-adv-x="473" 
d="M419 377.5q15 -53.5 15 -116.5q0 -79 -23.5 -143t-68.5 -101t-105 -37q-68 0 -117 47l-43 -75l-27 16l48 84q-28 38 -43.5 92.5t-15.5 116.5q0 79 23.5 143.5t68.5 101.5t106 37q67 0 117 -48l44 75l27 -15l-49 -85q28 -39 43 -92.5zM133 112l191 330q-19 32 -44.5 49
t-55.5 17q-59 0 -91.5 -55.5t-32.5 -152.5q0 -15 2 -51q7 -78 31 -137zM340 70q33 55 33 151q0 34 -2 52q-7 80 -30 136l-191 -331q38 -63 98 -63q59 0 92 55z" />
    <glyph glyph-name="ugrave" unicode="&#xf9;" horiz-adv-x="452" 
d="M314 73q-63 -93 -134 -93q-97 0 -97 134v310q0 38 -3.5 51t-18.5 13q-9 0 -35 -8l-7 20l108 34l11 -11v-409q0 -90 60 -90q30 0 59 22t60 61v317q0 38 -3.5 51t-18.5 13q-9 0 -35 -8l-6 20l107 34l11 -11v-427q0 -38 2 -50t13 -12t36 12l9 -19l-104 -47l-11 11v82h-3z
M241 625l-114 179h80l67 -179h-33z" />
    <glyph glyph-name="uacute" unicode="&#xfa;" horiz-adv-x="452" 
d="M314 73q-63 -93 -134 -93q-97 0 -97 134v310q0 38 -3.5 51t-18.5 13q-9 0 -35 -8l-7 20l108 34l11 -11v-409q0 -90 60 -90q30 0 59 22t60 61v317q0 38 -3.5 51t-18.5 13q-9 0 -35 -8l-6 20l107 34l11 -11v-427q0 -38 2 -50t13 -12t36 12l9 -19l-104 -47l-11 11v82h-3z
M257 804h80l-115 -179h-32z" />
    <glyph glyph-name="ucircumflex" unicode="&#xfb;" horiz-adv-x="452" 
d="M314 73q-63 -93 -134 -93q-97 0 -97 134v310q0 38 -3.5 51t-18.5 13q-9 0 -35 -8l-7 20l108 34l11 -11v-409q0 -90 60 -90q30 0 59 22t60 61v317q0 38 -3.5 51t-18.5 13q-9 0 -35 -8l-6 20l107 34l11 -11v-427q0 -38 2 -50t13 -12t36 12l9 -19l-104 -47l-11 11v82h-3z
M320 624l-93 130l-93 -130h-33l90 179h72l90 -179h-33z" />
    <glyph glyph-name="udieresis" unicode="&#xfc;" horiz-adv-x="452" 
d="M314 73q-63 -93 -134 -93q-97 0 -97 134v310q0 38 -3.5 51t-18.5 13q-9 0 -35 -8l-7 20l108 34l11 -11v-409q0 -90 60 -90q30 0 59 22t60 61v317q0 38 -3.5 51t-18.5 13q-9 0 -35 -8l-6 20l107 34l11 -11v-427q0 -38 2 -50t13 -12t36 12l9 -19l-104 -47l-11 11v82h-3z
M107.5 681.5q-13.5 13.5 -13.5 32.5t13.5 32.5t32.5 13.5t33 -13.5t14 -32.5t-13.5 -32.5t-33.5 -13.5q-19 0 -32.5 13.5zM280.5 681.5q-13.5 13.5 -13.5 32.5t13.5 32.5t32.5 13.5t33 -13.5t14 -32.5t-13.5 -32.5t-33.5 -13.5q-19 0 -32.5 13.5z" />
    <glyph glyph-name="yacute" unicode="&#xfd;" horiz-adv-x="458" 
d="M37 -150.5q11 11.5 28 11.5q16 0 25 -7.5t15 -20.5q7 -11 12 -15.5t16 -4.5q28 0 48.5 43.5t41.5 139.5l-131 435q-13 43 -27.5 56.5t-45.5 13.5v22h186v-22q-34 0 -46.5 -5t-12.5 -20q0 -13 10 -46l96 -331l83 331q8 30 8 44q0 16 -12.5 21.5t-47.5 5.5v22h156v-22
q-21 0 -33 -5.5t-20.5 -20t-16.5 -45.5l-104 -412l-8 -30q-19 -75 -35 -120t-44.5 -76.5t-72.5 -31.5q-34 0 -56.5 17t-22.5 44q0 17 11 28.5zM266 804h80l-115 -179h-32z" />
    <glyph glyph-name="thorn" unicode="&#xfe;" horiz-adv-x="508" 
d="M393.5 508.5q36.5 -34.5 56 -92t19.5 -124.5q0 -84 -24 -155t-69.5 -114t-107.5 -43q-81 0 -116 77h-2v-181q0 -34 4.5 -49t17.5 -20.5t43 -5.5v-21h-186v21q30 0 43 5.5t17.5 20.5t4.5 49v828q0 38 -2 50t-13 12q-10 0 -36 -12l-8 19l103 47l12 -11v-389h4
q31 62 68 92.5t86 30.5t85.5 -34.5zM371 87.5q36 73.5 36 175.5q0 109 -31.5 171t-88.5 62q-48 0 -80 -29.5t-57 -79.5v-196q0 -83 29 -130t79 -47q77 0 113 73.5z" />
    <glyph glyph-name="ydieresis" unicode="&#xff;" horiz-adv-x="458" 
d="M37 -150.5q11 11.5 28 11.5q16 0 25 -7.5t15 -20.5q7 -11 12 -15.5t16 -4.5q28 0 48.5 43.5t41.5 139.5l-131 435q-13 43 -27.5 56.5t-45.5 13.5v22h186v-22q-34 0 -46.5 -5t-12.5 -20q0 -13 10 -46l96 -331l83 331q8 30 8 44q0 16 -12.5 21.5t-47.5 5.5v22h156v-22
q-21 0 -33 -5.5t-20.5 -20t-16.5 -45.5l-104 -412l-8 -30q-19 -75 -35 -120t-44.5 -76.5t-72.5 -31.5q-34 0 -56.5 17t-22.5 44q0 17 11 28.5zM116.5 681.5q-13.5 13.5 -13.5 32.5t13.5 32.5t32.5 13.5t33 -13.5t14 -32.5t-13.5 -32.5t-33.5 -13.5q-19 0 -32.5 13.5z
M289.5 681.5q-13.5 13.5 -13.5 32.5t13.5 32.5t32.5 13.5t33 -13.5t14 -32.5t-13.5 -32.5t-33.5 -13.5q-19 0 -32.5 13.5z" />
    <glyph glyph-name="Amacron" unicode="&#x100;" horiz-adv-x="696" 
d="M612.5 46.5q10.5 -14.5 27 -20t46.5 -5.5v-21h-239v21q49 0 67 6t18 22q0 12 -10 42l-53 168h-278l-52 -168q-10 -30 -10 -42q0 -16 18 -22t68 -6v-21h-205v21q30 0 46.5 5.5t27 20t20.5 44.5l228 732h30l230 -732q10 -30 20.5 -44.5zM459 293l-128 409h-3l-127 -409h258
zM469 1003v-34h-245v34h245z" />
    <glyph glyph-name="amacron" unicode="&#x101;" horiz-adv-x="418" 
d="M408 65q-12 -44 -26 -64.5t-45 -20.5q-34 0 -47.5 22.5t-13.5 63.5v19h-2q-24 -42 -56 -73.5t-84 -31.5q-51 0 -77.5 33t-26.5 90q0 59 27.5 97.5t63.5 60.5t109 58l46 22v50q0 61 -16 92t-68 31q-34 0 -56.5 -14.5t-22.5 -38.5q0 -12 10 -30q1 -3 5 -12t4 -19
q0 -14 -10 -22t-26 -8q-19 0 -29.5 16.5t-10.5 46.5q0 50 39.5 80t101.5 30q135 0 135 -155v-325q0 -27 3.5 -38t16.5 -11q11 0 17.5 11t17.5 40h21zM214 50q26 20 62 67v192l-45 -22q-69 -34 -106 -74.5t-37 -97.5q0 -42 17.5 -63.5t50.5 -21.5q32 0 58 20zM329 728v-34
h-245v34h245z" />
    <glyph glyph-name="Abreve" unicode="&#x102;" horiz-adv-x="696" 
d="M612.5 46.5q10.5 -14.5 27 -20t46.5 -5.5v-21h-239v21q49 0 67 6t18 22q0 12 -10 42l-53 168h-278l-52 -168q-10 -30 -10 -42q0 -16 18 -22t68 -6v-21h-205v21q30 0 46.5 5.5t27 20t20.5 44.5l228 732h30l230 -732q10 -30 20.5 -44.5zM459 293l-128 409h-3l-127 -409h258
zM435 966.5q-32 -31.5 -88 -31.5q-57 0 -89 31.5t-34 86.5h21q2 -33 28.5 -50t73.5 -17t73 17t28 50h21q-2 -55 -34 -86.5z" />
    <glyph glyph-name="abreve" unicode="&#x103;" horiz-adv-x="418" 
d="M408 65q-12 -44 -26 -64.5t-45 -20.5q-34 0 -47.5 22.5t-13.5 63.5v19h-2q-24 -42 -56 -73.5t-84 -31.5q-51 0 -77.5 33t-26.5 90q0 59 27.5 97.5t63.5 60.5t109 58l46 22v50q0 61 -16 92t-68 31q-34 0 -56.5 -14.5t-22.5 -38.5q0 -12 10 -30q1 -3 5 -12t4 -19
q0 -14 -10 -22t-26 -8q-19 0 -29.5 16.5t-10.5 46.5q0 50 39.5 80t101.5 30q135 0 135 -155v-325q0 -27 3.5 -38t16.5 -11q11 0 17.5 11t17.5 40h21zM214 50q26 20 62 67v192l-45 -22q-69 -34 -106 -74.5t-37 -97.5q0 -42 17.5 -63.5t50.5 -21.5q32 0 58 20zM295 691.5
q-32 -31.5 -88 -31.5q-57 0 -89 31.5t-34 86.5h21q2 -33 28.5 -50t73.5 -17t73 17t28 50h21q-2 -55 -34 -86.5z" />
    <glyph glyph-name="Aogonek" unicode="&#x104;" horiz-adv-x="696" 
d="M612.5 46.5q10.5 -14.5 27 -20t46.5 -5.5v-21h-239v21q49 0 67 6t18 22q0 12 -10 42l-53 168h-278l-52 -168q-10 -30 -10 -42q0 -16 18 -22t68 -6v-21h-205v21q30 0 46.5 5.5t27 20t20.5 44.5l228 732h30l230 -732q10 -30 20.5 -44.5zM459 293l-128 409h-3l-127 -409h258
zM583.5 -18q-12.5 -9 -24.5 -16q-35 -22 -53 -42t-18 -56q0 -30 18.5 -48.5t52.5 -18.5q18 0 36 5t43 18l6 -21q-25 -18 -49.5 -27.5t-54.5 -9.5q-45 0 -74 26t-29 69q0 34 15 57t36 35.5t53 26.5q27 10 41 20h23q-9 -9 -21.5 -18z" />
    <glyph glyph-name="aogonek" unicode="&#x105;" horiz-adv-x="418" 
d="M409 -207q-25 -18 -49.5 -27.5t-54.5 -9.5q-45 0 -74 26t-29 69q0 49 28 73.5t76 44.5q5 3 11.5 5.5t12.5 5.5q-30 3 -42 25.5t-12 60.5v19h-2q-24 -42 -56 -73.5t-84 -31.5q-51 0 -77.5 33t-26.5 90q0 59 27.5 97.5t63.5 60.5t109 58l46 22v50q0 61 -16 92t-68 31
q-34 0 -56.5 -14.5t-22.5 -38.5q0 -12 10 -30q1 -3 5 -12t4 -19q0 -14 -10 -22t-26 -8q-19 0 -29.5 16.5t-10.5 46.5q0 50 39.5 80t101.5 30q135 0 135 -155v-325q0 -27 3.5 -38t16.5 -11q11 0 17.5 11t17.5 40h21q-8 -32 -16.5 -50t-23.5 -27q-17 -16 -44 -31
q-36 -23 -53.5 -42.5t-17.5 -56.5q0 -30 18.5 -48.5t52.5 -18.5q18 0 36 5t43 18zM214 50q26 20 62 67v192l-45 -22q-69 -34 -106 -74.5t-37 -97.5q0 -42 17.5 -63.5t50.5 -21.5q32 0 58 20z" />
    <glyph glyph-name="Cacute" unicode="&#x106;" horiz-adv-x="621" 
d="M75.5 613.5q36.5 95.5 104.5 151t157 55.5q45 0 77 -12t64 -32q23 -15 33 -15t14 9t4 40h21l15 -275h-21q-13 127 -63.5 189t-135.5 62q-73 0 -127 -51t-83 -139t-29 -196t29 -195.5t82.5 -138t126.5 -50.5q94 0 156.5 83.5t79.5 223.5h21q-19 -158 -86.5 -250.5
t-182.5 -92.5q-89 0 -155.5 55.5t-102 151t-35.5 213.5t36.5 213.5zM368 1053h80l-115 -179h-32z" />
    <glyph glyph-name="cacute" unicode="&#x107;" horiz-adv-x="391" 
d="M218 509q-57 0 -87 -64.5t-30 -178.5q0 -109 35 -173.5t96 -64.5q43 0 71 40.5t47 136.5h21q-12 -111 -52 -168t-106 -57q-83 0 -128.5 75t-45.5 196q0 88 22.5 154t64 102t96.5 36q41 0 70.5 -20.5t44.5 -50.5t15 -57q0 -45 -36 -45q-38 0 -40 48q-2 91 -58 91zM269 804
h80l-115 -179h-32z" />
    <glyph glyph-name="Cdotaccent" unicode="&#x10a;" horiz-adv-x="621" 
d="M75.5 613.5q36.5 95.5 104.5 151t157 55.5q45 0 77 -12t64 -32q23 -15 33 -15t14 9t4 40h21l15 -275h-21q-13 127 -63.5 189t-135.5 62q-73 0 -127 -51t-83 -139t-29 -196t29 -195.5t82.5 -138t126.5 -50.5q94 0 156.5 83.5t79.5 223.5h21q-19 -158 -86.5 -250.5
t-182.5 -92.5q-89 0 -155.5 55.5t-102 151t-35.5 213.5t36.5 213.5zM304.5 930.5q-13.5 13.5 -13.5 32.5t13.5 32.5t32.5 13.5t33 -13.5t14 -32.5t-13.5 -32.5t-33.5 -13.5q-19 0 -32.5 13.5z" />
    <glyph glyph-name="cdotaccent" unicode="&#x10b;" horiz-adv-x="391" 
d="M218 509q-57 0 -87 -64.5t-30 -178.5q0 -109 35 -173.5t96 -64.5q43 0 71 40.5t47 136.5h21q-12 -111 -52 -168t-106 -57q-83 0 -128.5 75t-45.5 196q0 88 22.5 154t64 102t96.5 36q41 0 70.5 -20.5t44.5 -50.5t15 -57q0 -45 -36 -45q-38 0 -40 48q-2 91 -58 91z
M205.5 681.5q-13.5 13.5 -13.5 32.5t13.5 32.5t32.5 13.5t33 -13.5t14 -32.5t-13.5 -32.5t-33.5 -13.5q-19 0 -32.5 13.5z" />
    <glyph glyph-name="Ccaron" unicode="&#x10c;" horiz-adv-x="621" 
d="M75.5 613.5q36.5 95.5 104.5 151t157 55.5q45 0 77 -12t64 -32q23 -15 33 -15t14 9t4 40h21l15 -275h-21q-13 127 -63.5 189t-135.5 62q-73 0 -127 -51t-83 -139t-29 -196t29 -195.5t82.5 -138t126.5 -50.5q94 0 156.5 83.5t79.5 223.5h21q-19 -158 -86.5 -250.5
t-182.5 -92.5q-89 0 -155.5 55.5t-102 151t-35.5 213.5t36.5 213.5zM464 1052l-90 -179h-72l-90 179h33l93 -130l93 130h33z" />
    <glyph glyph-name="ccaron" unicode="&#x10d;" horiz-adv-x="391" 
d="M218 509q-57 0 -87 -64.5t-30 -178.5q0 -109 35 -173.5t96 -64.5q43 0 71 40.5t47 136.5h21q-12 -111 -52 -168t-106 -57q-83 0 -128.5 75t-45.5 196q0 88 22.5 154t64 102t96.5 36q41 0 70.5 -20.5t44.5 -50.5t15 -57q0 -45 -36 -45q-38 0 -40 48q-2 91 -58 91zM364 803
l-90 -179h-72l-90 179h33l93 -130l93 130h33z" />
    <glyph glyph-name="Dcaron" unicode="&#x10e;" horiz-adv-x="714" 
d="M20 21q49 0 70 6t27.5 21t6.5 48v608q0 33 -6.5 48t-27.5 21t-70 6v21h273q113 0 199.5 -47.5t134.5 -138t48 -214.5t-49.5 -214.5t-136 -138t-196.5 -47.5h-273v21zM459.5 79.5q71.5 45.5 110 128t38.5 192.5t-38.5 192.5t-110 128t-166.5 45.5q-68 0 -107 -18v-696
q39 -18 107 -18q95 0 166.5 45.5zM439 1052l-90 -179h-72l-90 179h33l93 -130l93 130h33z" />
    <glyph glyph-name="dcaron" unicode="&#x10f;" horiz-adv-x="568" 
d="M446 27l-104 -47l-11 11v85h-4q-31 -49 -61 -72.5t-68 -23.5q-76 0 -117.5 71t-41.5 189q0 129 45.5 216t133.5 87q34 0 62.5 -18.5t48.5 -47.5h2v227q0 38 -2 50t-13 12q-10 0 -36 -12l-9 19l104 47l11 -11v-713q0 -38 2 -50t13 -12t36 12zM331 323q0 86 -29 136t-77 50
q-66 0 -95 -71.5t-29 -174.5q0 -108 28.5 -172.5t84.5 -64.5q40 0 64.5 23t52.5 69v205zM515 820q35 0 35 -52q0 -37 -11 -121q-6 -44 -12 -92h-21q-5 44 -12 91q-5 33 -9 64.5t-4 57.5q0 52 34 52z" />
    <glyph glyph-name="Dcroat" unicode="&#x110;" horiz-adv-x="714" 
d="M492.5 752.5q86.5 -47.5 134.5 -138t48 -214.5t-49.5 -214.5t-136 -138t-196.5 -47.5h-273v21q49 0 70 6t27.5 21t6.5 48v319h-84v30h84v259q0 33 -6.5 48t-27.5 21t-70 6v21h273q113 0 199.5 -47.5zM459.5 79.5q71.5 45.5 110 128t38.5 192.5t-38.5 192.5t-110 128
t-166.5 45.5q-68 0 -107 -18v-303h198v-30h-198v-363q39 -18 107 -18q95 0 166.5 45.5z" />
    <glyph glyph-name="dcroat" unicode="&#x111;" horiz-adv-x="544" 
d="M386 96q0 -38 2 -50t13 -12t36 12l9 -19l-104 -47l-11 11v85h-4q-31 -49 -61 -72.5t-68 -23.5q-76 0 -117.5 71t-41.5 189q0 129 45.5 216t133.5 87q34 0 62.5 -18.5t48.5 -47.5h2v159h-105v30h105v38q0 38 -2 50t-13 12q-10 0 -36 -12l-9 19l104 47l11 -11v-143h108v-30
h-108v-540zM331 323q0 86 -29 136t-77 50q-66 0 -95 -71.5t-29 -174.5q0 -108 28.5 -172.5t84.5 -64.5q40 0 64.5 23t52.5 69v205z" />
    <glyph glyph-name="Emacron" unicode="&#x112;" horiz-adv-x="584" 
d="M530 625l-21 -2q-7 66 -16 95t-25 38.5t-49 9.5h-233v-329h154q33 0 47.5 7t20.5 30.5t6 77.5h22v-264h-22q0 54 -6 77.5t-20.5 30.5t-47.5 7h-154v-312q0 -35 9 -46t38 -11h196q33 0 51 11.5t34.5 47t38.5 113.5l21 -6l-54 -182l-5 -18h-495v21q49 0 70 6t27.5 21
t6.5 48v608q0 33 -6.5 48t-27.5 21t-70 6v21h491l2 -20zM417 977v-34h-245v34h245z" />
    <glyph glyph-name="emacron" unicode="&#x113;" horiz-adv-x="399" 
d="M360 213q-12 -114 -55 -173.5t-104 -59.5q-77 0 -119.5 76.5t-42.5 203.5q0 78 20.5 142.5t59 102.5t91.5 38q69 0 108.5 -68.5t39.5 -181.5h-260v-22q0 -65 14 -120t40.5 -87.5t62.5 -32.5q40 0 73 43t51 139h21zM134 458.5q-27 -50.5 -34 -131.5h199q0 77 -22.5 129.5
t-69.5 52.5q-46 0 -73 -50.5zM333 728v-34h-245v34h245z" />
    <glyph glyph-name="Edotaccent" unicode="&#x116;" horiz-adv-x="584" 
d="M530 625l-21 -2q-7 66 -16 95t-25 38.5t-49 9.5h-233v-329h154q33 0 47.5 7t20.5 30.5t6 77.5h22v-264h-22q0 54 -6 77.5t-20.5 30.5t-47.5 7h-154v-312q0 -35 9 -46t38 -11h196q33 0 51 11.5t34.5 47t38.5 113.5l21 -6l-54 -182l-5 -18h-495v21q49 0 70 6t27.5 21
t6.5 48v608q0 33 -6.5 48t-27.5 21t-70 6v21h491l2 -20zM262.5 930.5q-13.5 13.5 -13.5 32.5t13.5 32.5t32.5 13.5t33 -13.5t14 -32.5t-13.5 -32.5t-33.5 -13.5q-19 0 -32.5 13.5z" />
    <glyph glyph-name="edotaccent" unicode="&#x117;" horiz-adv-x="399" 
d="M360 213q-12 -114 -55 -173.5t-104 -59.5q-77 0 -119.5 76.5t-42.5 203.5q0 78 20.5 142.5t59 102.5t91.5 38q69 0 108.5 -68.5t39.5 -181.5h-260v-22q0 -65 14 -120t40.5 -87.5t62.5 -32.5q40 0 73 43t51 139h21zM134 458.5q-27 -50.5 -34 -131.5h199q0 77 -22.5 129.5
t-69.5 52.5q-46 0 -73 -50.5zM178.5 681.5q-13.5 13.5 -13.5 32.5t13.5 32.5t32.5 13.5t33 -13.5t14 -32.5t-13.5 -32.5t-33.5 -13.5q-19 0 -32.5 13.5z" />
    <glyph glyph-name="Eogonek" unicode="&#x118;" horiz-adv-x="584" 
d="M530 625l-21 -2q-7 66 -16 95t-25 38.5t-49 9.5h-233v-329h154q33 0 47.5 7t20.5 30.5t6 77.5h22v-264h-22q0 54 -6 77.5t-20.5 30.5t-47.5 7h-154v-312q0 -35 9 -46t38 -11h196q33 0 51 11.5t34.5 47t38.5 113.5l21 -6l-54 -182l-5 -18h-495v21q49 0 70 6t27.5 21
t6.5 48v608q0 33 -6.5 48t-27.5 21t-70 6v21h491l2 -20zM493.5 -18q-12.5 -9 -24.5 -16q-35 -22 -53 -42t-18 -56q0 -30 18.5 -48.5t52.5 -18.5q18 0 36 5t43 18l6 -21q-25 -18 -49.5 -27.5t-54.5 -9.5q-45 0 -74 26t-29 69q0 34 15 57t36 35.5t53 26.5q27 10 41 20h23
q-9 -9 -21.5 -18z" />
    <glyph glyph-name="eogonek" unicode="&#x119;" horiz-adv-x="399" 
d="M239 -204q18 5 43 18l6 -21q-25 -18 -49.5 -27.5t-54.5 -9.5q-45 0 -74 26t-29 69q0 34 15 56.5t35 34.5t53 27q5 2 11.5 4.5t13.5 6.5h-8q-77 0 -119.5 76.5t-42.5 203.5q0 78 20.5 142.5t59 102.5t91.5 38q69 0 108.5 -68.5t39.5 -181.5h-260v-22q0 -65 14 -120
t40.5 -87.5t62.5 -32.5q40 0 73 43t51 139h21q-9 -90 -39 -147t-73 -76h1q-9 -9 -21.5 -18t-24.5 -16q-35 -22 -53 -42t-18 -56q0 -30 18.5 -48.5t52.5 -18.5q18 0 36 5zM134 458.5q-27 -50.5 -34 -131.5h199q0 77 -22.5 129.5t-69.5 52.5q-46 0 -73 -50.5z" />
    <glyph glyph-name="Ecaron" unicode="&#x11a;" horiz-adv-x="584" 
d="M530 625l-21 -2q-7 66 -16 95t-25 38.5t-49 9.5h-233v-329h154q33 0 47.5 7t20.5 30.5t6 77.5h22v-264h-22q0 54 -6 77.5t-20.5 30.5t-47.5 7h-154v-312q0 -35 9 -46t38 -11h196q33 0 51 11.5t34.5 47t38.5 113.5l21 -6l-54 -182l-5 -18h-495v21q49 0 70 6t27.5 21
t6.5 48v608q0 33 -6.5 48t-27.5 21t-70 6v21h491l2 -20zM421 1052l-90 -179h-72l-90 179h33l93 -130l93 130h33z" />
    <glyph glyph-name="ecaron" unicode="&#x11b;" horiz-adv-x="399" 
d="M360 213q-12 -114 -55 -173.5t-104 -59.5q-77 0 -119.5 76.5t-42.5 203.5q0 78 20.5 142.5t59 102.5t91.5 38q69 0 108.5 -68.5t39.5 -181.5h-260v-22q0 -65 14 -120t40.5 -87.5t62.5 -32.5q40 0 73 43t51 139h21zM134 458.5q-27 -50.5 -34 -131.5h199q0 77 -22.5 129.5
t-69.5 52.5q-46 0 -73 -50.5zM337 803l-90 -179h-72l-90 179h33l93 -130l93 130h33z" />
    <glyph glyph-name="Gbreve" unicode="&#x11e;" horiz-adv-x="718" 
d="M77.5 613q38.5 96 112.5 151.5t176 55.5q59 0 95 -12.5t68 -31.5q9 -6 16.5 -9.5t12.5 -3.5q10 0 13.5 8.5t3.5 38.5h21l15 -275h-21q-13 130 -64 190.5t-155 60.5q-86 0 -145.5 -51t-89.5 -138.5t-30 -197.5q0 -172 71 -278.5t215 -106.5q57 0 102 20t72 48v238
q0 33 -12 47.5t-53 20.5t-134 6v21h330v-21q-30 0 -43.5 -5.5t-18 -20.5t-4.5 -48v-245q-52 -49 -110.5 -72t-133.5 -23q-114 0 -192.5 55t-117 149.5t-38.5 214.5q0 118 38.5 214zM458 940.5q-32 -31.5 -88 -31.5q-57 0 -89 31.5t-34 86.5h21q2 -33 28.5 -50t73.5 -17
t73 17t28 50h21q-2 -55 -34 -86.5z" />
    <glyph glyph-name="gbreve" unicode="&#x11f;" horiz-adv-x="460" 
d="M395 37.5q54 -27.5 54 -94.5q0 -48 -34 -90.5t-93 -67.5t-128 -25q-78 0 -131 30.5t-53 92.5q0 41 24 75.5t72 71.5q-25 10 -36.5 26.5t-11.5 40.5q0 25 15.5 47.5t44.5 50.5q-29 26 -45 66t-16 89q0 56 20.5 100t57 68.5t82.5 24.5q50 0 88 -29q63 29 115 29
q30 0 30 -23q0 -13 -8.5 -17.5t-25.5 -4.5q-49 0 -83 -10l-6 5q23 -26 36 -63t13 -80q0 -56 -21 -100t-57 -68.5t-81 -24.5q-44 0 -82 24q-21 -20 -30.5 -34t-9.5 -29q0 -27 32 -40t114 -13q100 0 154 -27.5zM139.5 474q-24.5 -35 -24.5 -101q0 -21 1 -32q7 -72 34 -111
t71 -39q47 0 72 35t25 100q0 21 -1 32q-8 73 -34.5 112t-70.5 39q-48 0 -72.5 -35zM360 -156.5q55 31.5 55 89.5q0 47 -45 63.5t-132 16.5q-70 0 -110 10q-41 -35 -58 -62t-17 -55q0 -43 42 -68.5t118 -25.5q92 0 147 31.5zM314 691.5q-32 -31.5 -88 -31.5q-57 0 -89 31.5
t-34 86.5h21q2 -33 28.5 -50t73.5 -17t73 17t28 50h21q-2 -55 -34 -86.5z" />
    <glyph glyph-name="Gdotaccent" unicode="&#x120;" horiz-adv-x="718" 
d="M77.5 613q38.5 96 112.5 151.5t176 55.5q59 0 95 -12.5t68 -31.5q9 -6 16.5 -9.5t12.5 -3.5q10 0 13.5 8.5t3.5 38.5h21l15 -275h-21q-13 130 -64 190.5t-155 60.5q-86 0 -145.5 -51t-89.5 -138.5t-30 -197.5q0 -172 71 -278.5t215 -106.5q57 0 102 20t72 48v238
q0 33 -12 47.5t-53 20.5t-134 6v21h330v-21q-30 0 -43.5 -5.5t-18 -20.5t-4.5 -48v-245q-52 -49 -110.5 -72t-133.5 -23q-114 0 -192.5 55t-117 149.5t-38.5 214.5q0 118 38.5 214zM336.5 930.5q-13.5 13.5 -13.5 32.5t13.5 32.5t32.5 13.5t33 -13.5t14 -32.5t-13.5 -32.5
t-33.5 -13.5q-19 0 -32.5 13.5z" />
    <glyph glyph-name="gdotaccent" unicode="&#x121;" horiz-adv-x="460" 
d="M395 37.5q54 -27.5 54 -94.5q0 -48 -34 -90.5t-93 -67.5t-128 -25q-78 0 -131 30.5t-53 92.5q0 41 24 75.5t72 71.5q-25 10 -36.5 26.5t-11.5 40.5q0 25 15.5 47.5t44.5 50.5q-29 26 -45 66t-16 89q0 56 20.5 100t57 68.5t82.5 24.5q50 0 88 -29q63 29 115 29
q30 0 30 -23q0 -13 -8.5 -17.5t-25.5 -4.5q-49 0 -83 -10l-6 5q23 -26 36 -63t13 -80q0 -56 -21 -100t-57 -68.5t-81 -24.5q-44 0 -82 24q-21 -20 -30.5 -34t-9.5 -29q0 -27 32 -40t114 -13q100 0 154 -27.5zM139.5 474q-24.5 -35 -24.5 -101q0 -21 1 -32q7 -72 34 -111
t71 -39q47 0 72 35t25 100q0 21 -1 32q-8 73 -34.5 112t-70.5 39q-48 0 -72.5 -35zM360 -156.5q55 31.5 55 89.5q0 47 -45 63.5t-132 16.5q-70 0 -110 10q-41 -35 -58 -62t-17 -55q0 -43 42 -68.5t118 -25.5q92 0 147 31.5zM192.5 681.5q-13.5 13.5 -13.5 32.5t13.5 32.5
t32.5 13.5t33 -13.5t14 -32.5t-13.5 -32.5t-33.5 -13.5q-19 0 -32.5 13.5z" />
    <glyph glyph-name="uni0122" unicode="&#x122;" horiz-adv-x="718" 
d="M77.5 613q38.5 96 112.5 151.5t176 55.5q59 0 95 -12.5t68 -31.5q9 -6 16.5 -9.5t12.5 -3.5q10 0 13.5 8.5t3.5 38.5h21l15 -275h-21q-13 130 -64 190.5t-155 60.5q-86 0 -145.5 -51t-89.5 -138.5t-30 -197.5q0 -172 71 -278.5t215 -106.5q57 0 102 20t72 48v238
q0 33 -12 47.5t-53 20.5t-134 6v21h330v-21q-30 0 -43.5 -5.5t-18 -20.5t-4.5 -48v-245q-52 -49 -110.5 -72t-133.5 -23q-114 0 -192.5 55t-117 149.5t-38.5 214.5q0 118 38.5 214zM364.5 -147q-8.5 11 -8.5 28q0 19 13 30.5t32 11.5q26 0 42 -17t16 -49q0 -34 -23 -60
t-73 -39v22q24 6 44 21.5t20 35.5q0 15 -10 15q-3 0 -12.5 -5t-18.5 -5q-13 0 -21.5 11z" />
    <glyph glyph-name="uni0123" unicode="&#x123;" horiz-adv-x="460" 
d="M395 37.5q54 -27.5 54 -94.5q0 -48 -34 -90.5t-93 -67.5t-128 -25q-78 0 -131 30.5t-53 92.5q0 41 24 75.5t72 71.5q-25 10 -36.5 26.5t-11.5 40.5q0 25 15.5 47.5t44.5 50.5q-29 26 -45 66t-16 89q0 56 20.5 100t57 68.5t82.5 24.5q50 0 88 -29q63 29 115 29
q30 0 30 -23q0 -13 -8.5 -17.5t-25.5 -4.5q-49 0 -83 -10l-6 5q23 -26 36 -63t13 -80q0 -56 -21 -100t-57 -68.5t-81 -24.5q-44 0 -82 24q-21 -20 -30.5 -34t-9.5 -29q0 -27 32 -40t114 -13q100 0 154 -27.5zM139.5 474q-24.5 -35 -24.5 -101q0 -21 1 -32q7 -72 34 -111
t71 -39q47 0 72 35t25 100q0 21 -1 32q-8 73 -34.5 112t-70.5 39q-48 0 -72.5 -35zM360 -156.5q55 31.5 55 89.5q0 47 -45 63.5t-132 16.5q-70 0 -110 10q-41 -35 -58 -62t-17 -55q0 -43 42 -68.5t118 -25.5q92 0 147 31.5zM268.5 736q8.5 -11 8.5 -28q0 -19 -13.5 -30.5
t-32.5 -11.5q-26 0 -41.5 16.5t-15.5 49.5q0 34 23 60t73 39v-22q-24 -6 -44 -21.5t-20 -35.5q0 -15 10 -15q3 0 12.5 5t18.5 5q13 0 21.5 -11z" />
    <glyph glyph-name="Hbar" unicode="&#x126;" horiz-adv-x="716" 
d="M565 599v-503q0 -33 6.5 -48t28 -21t70.5 -6v-21h-270v21q48 0 69.5 6t28 21t6.5 48v313h-312v-313q0 -33 6.5 -48t27.5 -21t70 -6v-21h-270v21q49 0 70 6t27.5 21t6.5 48v503h-99v30h99v75q0 33 -6.5 48t-27.5 21t-70 6v21h270v-21q-49 0 -70 -6t-27.5 -21t-6.5 -48v-75
h312v75q0 33 -6.5 48t-28 21t-69.5 6v21h270v-21q-49 0 -70.5 -6t-28 -21t-6.5 -48v-75h120v-30h-120zM504 599h-312v-156h312v156z" />
    <glyph glyph-name="hbar" unicode="&#x127;" horiz-adv-x="554" 
d="M392.5 48q4.5 -15 17.5 -21t43 -6v-21h-185v21q29 0 42 6t17.5 21t4.5 48v313q0 45 -14.5 67t-44.5 22t-60 -22t-61 -60v-320q0 -33 4.5 -48t17.5 -21t42 -6v-21h-185v21q30 0 43.5 6t18 21t4.5 48v540h-59v30h59v38q0 38 -2 49.5t-13 11.5q-12 0 -37 -12l-9 20l70 31
l35 16l11 -11v-143h153v-30h-153v-186h3q63 93 135 93q98 0 98 -134v-313q0 -33 4.5 -48z" />
    <glyph glyph-name="Imacron" unicode="&#x12a;" horiz-adv-x="310" 
d="M117.5 752q-6.5 15 -27.5 21t-70 6v21h270v-21q-49 0 -70 -6t-27.5 -21t-6.5 -48v-608q0 -33 6.5 -48t27.5 -21t70 -6v-21h-270v21q49 0 70 6t27.5 21t6.5 48v608q0 33 -6.5 48zM277 977v-34h-245v34h245z" />
    <glyph glyph-name="imacron" unicode="&#x12b;" horiz-adv-x="235" 
d="M154.5 48q4.5 -15 17.5 -21t43 -6v-21h-186v21q30 0 43 6t17.5 21t4.5 48v331q0 38 -2 49.5t-13 11.5q-10 0 -36 -12l-9 19l104 48l12 -12v-435q0 -33 4.5 -48zM224 728v-34h-245v34h245z" />
    <glyph glyph-name="Iogonek" unicode="&#x12e;" horiz-adv-x="310" 
d="M117.5 752q-6.5 15 -27.5 21t-70 6v21h270v-21q-49 0 -70 -6t-27.5 -21t-6.5 -48v-608q0 -33 6.5 -48t27.5 -21t70 -6v-21h-270v21q49 0 70 6t27.5 21t6.5 48v608q0 33 -6.5 48zM234.5 -18q-12.5 -9 -24.5 -16q-35 -22 -53 -42t-18 -56q0 -30 18.5 -48.5t52.5 -18.5
q18 0 36 5t43 18l6 -21q-25 -18 -49.5 -27.5t-54.5 -9.5q-45 0 -74 26t-29 69q0 34 15 57t36 35.5t53 26.5q27 10 41 20h23q-9 -9 -21.5 -18z" />
    <glyph glyph-name="iogonek" unicode="&#x12f;" horiz-adv-x="235" 
d="M154.5 48q4.5 -15 17.5 -21t43 -6v-21h-186v21q30 0 43 6t17.5 21t4.5 48v331q0 38 -2 49.5t-13 11.5q-10 0 -36 -12l-9 19l104 48l12 -12v-435q0 -33 4.5 -48zM69.5 681.5q-13.5 13.5 -13.5 32.5t13.5 32.5t32.5 13.5t33 -13.5t14 -32.5t-13.5 -32.5t-33.5 -13.5
q-19 0 -32.5 13.5zM180.5 -18q-12.5 -9 -24.5 -16q-35 -22 -53 -42t-18 -56q0 -30 18.5 -48.5t52.5 -18.5q18 0 36 5t43 18l6 -21q-25 -18 -49.5 -27.5t-54.5 -9.5q-45 0 -74 26t-29 69q0 34 15 57t36 35.5t53 26.5q27 10 41 20h23q-9 -9 -21.5 -18z" />
    <glyph glyph-name="Idotaccent" unicode="&#x130;" horiz-adv-x="310" 
d="M117.5 752q-6.5 15 -27.5 21t-70 6v21h270v-21q-49 0 -70 -6t-27.5 -21t-6.5 -48v-608q0 -33 6.5 -48t27.5 -21t70 -6v-21h-270v21q49 0 70 6t27.5 21t6.5 48v608q0 33 -6.5 48zM122.5 930.5q-13.5 13.5 -13.5 32.5t13.5 32.5t32.5 13.5t33 -13.5t14 -32.5t-13.5 -32.5
t-33.5 -13.5q-19 0 -32.5 13.5z" />
    <glyph glyph-name="dotlessi" unicode="&#x131;" horiz-adv-x="235" 
d="M154.5 48q4.5 -15 17.5 -21t43 -6v-21h-186v21q30 0 43 6t17.5 21t4.5 48v331q0 38 -2 49.5t-13 11.5q-10 0 -36 -12l-9 19l104 48l12 -12v-435q0 -33 4.5 -48z" />
    <glyph glyph-name="uni0136" unicode="&#x136;" horiz-adv-x="730" 
d="M116.5 752q-6.5 15 -27.5 21t-70 6v21h270v-21q-49 0 -70 -6t-27.5 -21t-6.5 -48v-608q0 -33 6.5 -48t27.5 -21t70 -6v-21h-270v21q49 0 70 6t27.5 21t6.5 48v608q0 33 -6.5 48zM637.5 30.5q25.5 -9.5 72.5 -9.5v-21h-236v21q35 0 47 2t12 8q0 5 -6.5 13.5t-13 16.5
t-10.5 13l-282 340l255 312q4 5 13 16t13 17t4 10q0 6 -13 8t-48 2v21h200v-21q-47 0 -72 -9.5t-53 -43.5l-233 -287l297 -365q28 -34 53.5 -43.5zM354.5 -147q-8.5 11 -8.5 28q0 19 13 30.5t32 11.5q26 0 42 -17t16 -49q0 -34 -23 -60t-73 -39v22q24 6 44 21.5t20 35.5
q0 15 -10 15q-3 0 -12.5 -5t-18.5 -5q-13 0 -21.5 11z" />
    <glyph glyph-name="uni0137" unicode="&#x137;" horiz-adv-x="467" 
d="M154.5 48q4.5 -15 17.5 -21t43 -6v-21h-186v21q30 0 43 6t17.5 21t4.5 48v608q0 38 -2 49.5t-13 11.5q-10 0 -36 -12l-9 20l104 47l12 -11v-713q0 -33 4.5 -48zM405.5 33q19.5 -12 51.5 -12v-21h-192v21q30 0 41 2.5t11 11.5q0 6 -6.5 19t-16.5 29l-124 221l123 145
q7 8 20 23.5t13 20.5t-10.5 6.5t-39.5 1.5v22h168v-22q-35 0 -57 -9.5t-50 -42.5l-108 -128l135 -238q22 -38 41.5 -50zM200.5 -147q-8.5 11 -8.5 28q0 19 13 30.5t32 11.5q26 0 42 -17t16 -49q0 -34 -23 -60t-73 -39v22q24 6 44 21.5t20 35.5q0 15 -10 15q-3 0 -12.5 -5
t-18.5 -5q-13 0 -21.5 11z" />
    <glyph glyph-name="Lacute" unicode="&#x139;" horiz-adv-x="577" 
d="M290 779q-49 0 -70 -6t-27.5 -21t-6.5 -48v-610q0 -37 10 -48.5t42 -11.5h182q33 0 50.5 12t32.5 49.5t35 121.5l21 -5l-47 -195l-4 -17h-488v21q49 0 70 6t27.5 21t6.5 48v608q0 33 -6.5 48t-27.5 21t-70 6v21h270v-21zM222 1053h80l-115 -179h-32z" />
    <glyph glyph-name="lacute" unicode="&#x13a;" horiz-adv-x="235" 
d="M154.5 48q4.5 -15 17.5 -21t43 -6v-21h-186v21q30 0 43 6t17.5 21t4.5 48v608q0 38 -2 49.5t-13 11.5q-10 0 -36 -12l-9 20l104 47l12 -11v-713q0 -33 4.5 -48zM151 1069h80l-115 -179h-32z" />
    <glyph glyph-name="uni013B" unicode="&#x13b;" horiz-adv-x="577" 
d="M290 779q-49 0 -70 -6t-27.5 -21t-6.5 -48v-610q0 -37 10 -48.5t42 -11.5h182q33 0 50.5 12t32.5 49.5t35 121.5l21 -5l-47 -195l-4 -17h-488v21q49 0 70 6t27.5 21t6.5 48v608q0 33 -6.5 48t-27.5 21t-70 6v21h270v-21zM273.5 -147q-8.5 11 -8.5 28q0 19 13 30.5
t32 11.5q26 0 42 -17t16 -49q0 -34 -23 -60t-73 -39v22q24 6 44 21.5t20 35.5q0 15 -10 15q-3 0 -12.5 -5t-18.5 -5q-13 0 -21.5 11z" />
    <glyph glyph-name="uni013C" unicode="&#x13c;" horiz-adv-x="235" 
d="M154.5 48q4.5 -15 17.5 -21t43 -6v-21h-186v21q30 0 43 6t17.5 21t4.5 48v608q0 38 -2 49.5t-13 11.5q-10 0 -36 -12l-9 20l104 47l12 -11v-713q0 -33 4.5 -48zM78.5 -147q-8.5 11 -8.5 28q0 19 13 30.5t32 11.5q26 0 42 -17t16 -49q0 -34 -23 -60t-73 -39v22
q24 6 44 21.5t20 35.5q0 15 -10 15q-3 0 -12.5 -5t-18.5 -5q-13 0 -21.5 11z" />
    <glyph glyph-name="Lcaron" unicode="&#x13d;" horiz-adv-x="600" 
d="M290 779q-49 0 -70 -6t-27.5 -21t-6.5 -48v-610q0 -37 10 -48.5t42 -11.5h182q33 0 50.5 12t32.5 49.5t35 121.5l21 -5l-47 -195l-4 -17h-488v21q49 0 70 6t27.5 21t6.5 48v608q0 33 -6.5 48t-27.5 21t-70 6v21h270v-21zM426 820h80l-115 -179h-32z" />
    <glyph glyph-name="lcaron" unicode="&#x13e;" horiz-adv-x="338" 
d="M154.5 48q4.5 -15 17.5 -21t43 -6v-21h-186v21q30 0 43 6t17.5 21t4.5 48v608q0 38 -2 49.5t-13 11.5q-10 0 -36 -12l-9 20l104 47l12 -11v-713q0 -33 4.5 -48zM285 820q35 0 35 -52q0 -37 -11 -121q-6 -44 -12 -92h-21q-5 44 -12 91q-5 33 -9 64.5t-4 57.5q0 52 34 52z
" />
    <glyph glyph-name="Lslash" unicode="&#x141;" horiz-adv-x="577" 
d="M559 212l-47 -195l-4 -17h-488v21q49 0 70 6t27.5 21t6.5 48v250l-78 -45l-15 26l93 54v323q0 33 -6.5 48t-27.5 21t-70 6v21h270v-21q-49 0 -70 -6t-27.5 -21t-6.5 -48v-287l232 134l15 -26l-247 -143v-288q0 -37 10 -48.5t42 -11.5h182q33 0 50.5 12t32.5 49.5
t35 121.5z" />
    <glyph glyph-name="lslash" unicode="&#x142;" horiz-adv-x="287" 
d="M166.5 48q4.5 -15 18 -21t43.5 -6v-21h-186v21q30 0 43 6t17.5 21t4.5 48v282l-70 -41l-15 26l85 49v292q0 38 -2 49.5t-13 11.5q-12 0 -37 -12l-8 20l104 47l11 -11v-365l88 51l15 -26l-103 -60v-313q0 -33 4.5 -48z" />
    <glyph glyph-name="Nacute" unicode="&#x143;" horiz-adv-x="745" 
d="M725 779q-49 0 -70 -6t-27.5 -21t-6.5 -48v-727h-30l-433 705v-586q0 -33 6.5 -48t28 -21t69.5 -6v-21h-242v21q49 0 70 6t27.5 21t6.5 48v640q-20 27 -41.5 35t-62.5 8v21h142l422 -685h3v589q0 33 -6.5 48t-28 21t-69.5 6v21h242v-21zM384 1053h80l-115 -179h-32z" />
    <glyph glyph-name="nacute" unicode="&#x144;" horiz-adv-x="471" 
d="M153 450q63 93 134 93q98 0 98 -134v-313q0 -33 4.5 -48t18 -21t43.5 -6v-21h-185v21q29 0 42 6t17.5 21t4.5 48v313q0 89 -60 89q-55 0 -120 -82v-320q0 -33 4 -48t17 -21t42 -6v-21h-184v21q30 0 43 6t17.5 21t4.5 48v331q0 38 -2 49.5t-13 11.5q-10 0 -36 -12l-9 19
l104 48l12 -12v-81h3zM262 804h80l-115 -179h-32z" />
    <glyph glyph-name="uni0145" unicode="&#x145;" horiz-adv-x="745" 
d="M725 779q-49 0 -70 -6t-27.5 -21t-6.5 -48v-727h-30l-433 705v-586q0 -33 6.5 -48t28 -21t69.5 -6v-21h-242v21q49 0 70 6t27.5 21t6.5 48v640q-20 27 -41.5 35t-62.5 8v21h142l422 -685h3v589q0 33 -6.5 48t-28 21t-69.5 6v21h242v-21zM371.5 -147q-8.5 11 -8.5 28
q0 19 13 30.5t32 11.5q26 0 42 -17t16 -49q0 -34 -23 -60t-73 -39v22q24 6 44 21.5t20 35.5q0 15 -10 15q-3 0 -12.5 -5t-18.5 -5q-13 0 -21.5 11z" />
    <glyph glyph-name="uni0146" unicode="&#x146;" horiz-adv-x="471" 
d="M153 450q63 93 134 93q98 0 98 -134v-313q0 -33 4.5 -48t18 -21t43.5 -6v-21h-185v21q29 0 42 6t17.5 21t4.5 48v313q0 89 -60 89q-55 0 -120 -82v-320q0 -33 4 -48t17 -21t42 -6v-21h-184v21q30 0 43 6t17.5 21t4.5 48v331q0 38 -2 49.5t-13 11.5q-10 0 -36 -12l-9 19
l104 48l12 -12v-81h3zM200.5 -147q-8.5 11 -8.5 28q0 19 13 30.5t32 11.5q26 0 42 -17t16 -49q0 -34 -23 -60t-73 -39v22q24 6 44 21.5t20 35.5q0 15 -10 15q-3 0 -12.5 -5t-18.5 -5q-13 0 -21.5 11z" />
    <glyph glyph-name="Ncaron" unicode="&#x147;" horiz-adv-x="745" 
d="M725 779q-49 0 -70 -6t-27.5 -21t-6.5 -48v-727h-30l-433 705v-586q0 -33 6.5 -48t28 -21t69.5 -6v-21h-242v21q49 0 70 6t27.5 21t6.5 48v640q-20 27 -41.5 35t-62.5 8v21h142l422 -685h3v589q0 33 -6.5 48t-28 21t-69.5 6v21h242v-21zM479 1052l-90 -179h-72l-90 179
h33l93 -130l93 130h33z" />
    <glyph glyph-name="ncaron" unicode="&#x148;" horiz-adv-x="471" 
d="M153 450q63 93 134 93q98 0 98 -134v-313q0 -33 4.5 -48t18 -21t43.5 -6v-21h-185v21q29 0 42 6t17.5 21t4.5 48v313q0 89 -60 89q-55 0 -120 -82v-320q0 -33 4 -48t17 -21t42 -6v-21h-184v21q30 0 43 6t17.5 21t4.5 48v331q0 38 -2 49.5t-13 11.5q-10 0 -36 -12l-9 19
l104 48l12 -12v-81h3zM357 803l-90 -179h-72l-90 179h33l93 -130l93 130h33z" />
    <glyph glyph-name="Eng" unicode="&#x14a;" horiz-adv-x="745" 
d="M725 779q-49 0 -70 -6t-27.5 -21t-6.5 -48v-734q0 -95 -28 -152.5t-100 -57.5q-52 0 -80.5 25.5t-28.5 61.5q0 19 10.5 29.5t26.5 10.5q17 0 27.5 -11t10.5 -32q0 -28 7.5 -39t37.5 -11q44 0 63.5 49t19.5 118v23l-429 698v-586q0 -33 6.5 -48t28 -21t69.5 -6v-21h-242
v21q49 0 70 6t27.5 21t6.5 48v640q-20 27 -41.5 35t-62.5 8v21h142l422 -685h3v589q0 33 -6.5 48t-28 21t-69.5 6v21h242v-21z" />
    <glyph glyph-name="eng" unicode="&#x14b;" horiz-adv-x="463" 
d="M443 391v-420q0 -108 -25.5 -159.5t-98.5 -51.5q-53 0 -79.5 24.5t-26.5 61.5q0 18 10.5 28.5t27.5 10.5t27 -10.5t11 -31.5q1 -29 5.5 -39t25.5 -10q31 0 45 20t17 51.5t3 89.5v446q0 103 -80 103q-38 0 -78 -29t-74 -77v-302q0 -33 4 -48t17 -21t42 -6v-21h-187v21
q30 0 43 6t17.5 21t4.5 48v331q0 38 -2 49.5t-14 11.5q-10 0 -37 -11l-8 20l71 29l38 17l11 -12v-99h3q36 50 81 80.5t91 30.5q115 0 115 -152z" />
    <glyph glyph-name="Omacron" unicode="&#x14c;" horiz-adv-x="662" 
d="M176 36q-66 56 -101.5 152t-35.5 212t35.5 212t101.5 152t155 56t155.5 -56t101.5 -151.5t35 -212.5t-35 -212.5t-101.5 -151.5t-155.5 -56t-155 56zM461.5 55q46.5 42 71 117.5t24.5 173.5q0 37 -3 74q-9 109 -42 192t-84.5 129.5t-115.5 46.5t-111 -42t-72 -118
t-25 -175q0 -35 3 -73q9 -109 42 -192t84.5 -129t116.5 -46t111.5 42zM454 977v-34h-245v34h245z" />
    <glyph glyph-name="omacron" unicode="&#x14d;" horiz-adv-x="473" 
d="M131 17q-45 37 -68.5 101t-23.5 143t23.5 143.5t68.5 101.5t106 37q60 0 105 -37t68.5 -101.5t23.5 -143.5t-23.5 -143t-68.5 -101t-105 -37q-61 0 -106 37zM340 70q33 55 33 151q0 34 -2 52q-10 109 -49 172t-98 63t-91.5 -55.5t-32.5 -152.5q0 -15 2 -51
q10 -109 48.5 -171.5t97.5 -62.5t92 55zM359 728v-34h-245v34h245z" />
    <glyph glyph-name="Ohungarumlaut" unicode="&#x150;" horiz-adv-x="662" 
d="M176 36q-66 56 -101.5 152t-35.5 212t35.5 212t101.5 152t155 56t155.5 -56t101.5 -151.5t35 -212.5t-35 -212.5t-101.5 -151.5t-155.5 -56t-155 56zM461.5 55q46.5 42 71 117.5t24.5 173.5q0 37 -3 74q-9 109 -42 192t-84.5 129.5t-115.5 46.5t-111 -42t-72 -118
t-25 -175q0 -35 3 -73q9 -109 42 -192t84.5 -129t116.5 -46t111.5 42zM297 1053h64l-90 -179h-30zM401 1053h63l-92 -179h-30z" />
    <glyph glyph-name="ohungarumlaut" unicode="&#x151;" horiz-adv-x="473" 
d="M131 17q-45 37 -68.5 101t-23.5 143t23.5 143.5t68.5 101.5t106 37q60 0 105 -37t68.5 -101.5t23.5 -143.5t-23.5 -143t-68.5 -101t-105 -37q-61 0 -106 37zM340 70q33 55 33 151q0 34 -2 52q-10 109 -49 172t-98 63t-91.5 -55.5t-32.5 -152.5q0 -15 2 -51
q10 -109 48.5 -171.5t97.5 -62.5t92 55zM202 804h64l-90 -179h-30zM306 804h63l-92 -179h-30z" />
    <glyph glyph-name="OE" unicode="&#x152;" horiz-adv-x="881" 
d="M870 200l-53 -182l-5 -18h-329q-22 0 -66 -4q-50 -6 -91 -6q-90 0 -155 53.5t-98.5 146.5t-33.5 210t33.5 210t98.5 146.5t155 53.5q41 0 91 -6q44 -4 66 -4h326l2 -20l17 -155l-22 -2q-7 66 -16 95.5t-24.5 38.5t-48.5 9h-222v-329h145q33 0 47.5 7t20.5 30.5t6 77.5h22
v-264h-22q0 54 -6 77.5t-20.5 30.5t-47.5 7h-145v-312q0 -35 9 -46t38 -11h184q33 0 51 11.5t34 46.5t39 114zM374 32.5q25 8.5 56 30.5v675q-30 22 -54 30.5t-54 8.5q-67 0 -116 -48t-74.5 -133.5t-25.5 -195.5q0 -108 24.5 -193.5t72 -134t113.5 -48.5q33 0 58 8.5z" />
    <glyph glyph-name="oe" unicode="&#x153;" horiz-adv-x="756" 
d="M717 213q-12 -114 -55 -173.5t-104 -59.5q-53 0 -90.5 37.5t-55.5 104.5q-24 -66 -69 -104t-106 -38t-106 37t-68.5 101t-23.5 143t23.5 143.5t68.5 101.5t106 37q62 0 108 -39.5t68 -107.5q21 68 60.5 107.5t93.5 39.5q68 0 108 -68.5t40 -181.5h-261v-22q0 -65 14 -120
t41 -87.5t63 -32.5q40 0 73 43t51 139h21zM340 70q33 55 33 151q0 34 -2 52q-10 109 -49 172t-98 63t-91.5 -55.5t-32.5 -152.5q0 -15 2 -51q10 -109 48.5 -171.5t97.5 -62.5t92 55zM490.5 458.5q-27.5 -50.5 -34.5 -131.5h200q0 76 -22.5 129t-69.5 53q-46 0 -73.5 -50.5z
" />
    <glyph glyph-name="Racute" unicode="&#x154;" horiz-adv-x="594" 
d="M313 1053h80l-115 -179h-32zM508 33q22 -12 67 -12v-21h-76q-27 0 -40.5 3.5t-24 15.5t-24.5 41l-170 333h-25h-29v-297q0 -33 6.5 -48t27.5 -21t70 -6v-21h-270v21q49 0 70 6t27.5 21t6.5 48v608q0 33 -6.5 48t-27.5 21t-70 6v21h253q106 0 166.5 -51t60.5 -147
q0 -103 -63 -149.5t-159 -56.5h1v-3q41 -19 71 -80l116 -228q20 -40 42 -52zM367 464q68 38 68 139q0 78 -45 120.5t-118 42.5q-53 0 -86 -18v-321h29q84 -1 152 37z" />
    <glyph glyph-name="racute" unicode="&#x155;" horiz-adv-x="351" 
d="M315.5 530q16.5 -13 16.5 -34q0 -16 -10.5 -27.5t-27.5 -11.5q-24 0 -35 21q-6 14 -18 14q-21 0 -40.5 -20t-50.5 -71v-305q0 -33 6.5 -48t26.5 -21t65 -6v-21h-219v21q30 0 43 6t17.5 21t4.5 48v331q0 38 -2 49.5t-13 11.5q-10 0 -36 -12l-9 19l104 48l12 -12v-84h3
q54 96 120 96q26 0 42.5 -13zM239 804h80l-115 -179h-32z" />
    <glyph glyph-name="uni0156" unicode="&#x156;" horiz-adv-x="594" 
d="M322.5 -147q-8.5 11 -8.5 28q0 19 13 30.5t32 11.5q26 0 42 -17t16 -49q0 -34 -23 -60t-73 -39v22q24 6 44 21.5t20 35.5q0 15 -10 15q-3 0 -12.5 -5t-18.5 -5q-13 0 -21.5 11zM508 33q22 -12 67 -12v-21h-76q-27 0 -40.5 3.5t-24 15.5t-24.5 41l-170 333h-25h-29v-297
q0 -33 6.5 -48t27.5 -21t70 -6v-21h-270v21q49 0 70 6t27.5 21t6.5 48v608q0 33 -6.5 48t-27.5 21t-70 6v21h253q106 0 166.5 -51t60.5 -147q0 -103 -63 -149.5t-159 -56.5h1v-3q41 -19 71 -80l116 -228q20 -40 42 -52zM367 464q68 38 68 139q0 78 -45 120.5t-118 42.5
q-53 0 -86 -18v-321h29q84 -1 152 37z" />
    <glyph glyph-name="uni0157" unicode="&#x157;" horiz-adv-x="351" 
d="M315.5 530q16.5 -13 16.5 -34q0 -16 -10.5 -27.5t-27.5 -11.5q-24 0 -35 21q-6 14 -18 14q-21 0 -40.5 -20t-50.5 -71v-305q0 -33 6.5 -48t26.5 -21t65 -6v-21h-219v21q30 0 43 6t17.5 21t4.5 48v331q0 38 -2 49.5t-13 11.5q-10 0 -36 -12l-9 19l104 48l12 -12v-84h3
q54 96 120 96q26 0 42.5 -13zM95.5 -147q-8.5 11 -8.5 28q0 19 13 30.5t32 11.5q26 0 42 -17t16 -49q0 -34 -23 -60t-73 -39v22q24 6 44 21.5t20 35.5q0 15 -10 15q-3 0 -12.5 -5t-18.5 -5q-13 0 -21.5 11z" />
    <glyph glyph-name="Rcaron" unicode="&#x158;" horiz-adv-x="594" 
d="M410 1052l-90 -179h-72l-90 179h33l93 -130l93 130h33zM508 33q22 -12 67 -12v-21h-76q-27 0 -40.5 3.5t-24 15.5t-24.5 41l-170 333h-25h-29v-297q0 -33 6.5 -48t27.5 -21t70 -6v-21h-270v21q49 0 70 6t27.5 21t6.5 48v608q0 33 -6.5 48t-27.5 21t-70 6v21h253
q106 0 166.5 -51t60.5 -147q0 -103 -63 -149.5t-159 -56.5h1v-3q41 -19 71 -80l116 -228q20 -40 42 -52zM367 464q68 38 68 139q0 78 -45 120.5t-118 42.5q-53 0 -86 -18v-321h29q84 -1 152 37z" />
    <glyph glyph-name="rcaron" unicode="&#x159;" horiz-adv-x="351" 
d="M315.5 530q16.5 -13 16.5 -34q0 -16 -10.5 -27.5t-27.5 -11.5q-24 0 -35 21q-6 14 -18 14q-21 0 -40.5 -20t-50.5 -71v-305q0 -33 6.5 -48t26.5 -21t65 -6v-21h-219v21q30 0 43 6t17.5 21t4.5 48v331q0 38 -2 49.5t-13 11.5q-10 0 -36 -12l-9 19l104 48l12 -12v-84h3
q54 96 120 96q26 0 42.5 -13zM334 803l-90 -179h-72l-90 179h33l93 -130l93 130h33z" />
    <glyph glyph-name="Sacute" unicode="&#x15a;" horiz-adv-x="534" 
d="M60 284h21q0 -81 27.5 -142.5t72 -94.5t95.5 -33q66 0 104.5 40t38.5 107q0 41 -22.5 79t-56 71t-94.5 84l-28 24q-65 57 -95.5 88.5t-47 66.5t-16.5 81q0 76 50.5 120.5t130.5 44.5q50 0 82 -16.5t61 -42.5q8 -7 15 -12t11 -5q7 0 10 10.5t3 46.5h22v-232h-22
q0 62 -23.5 111.5t-64 77.5t-91.5 28q-64 0 -96 -34t-32 -82q0 -35 17.5 -66.5t43 -57t68.5 -62.5l34 -29l29 -26q69 -60 101 -93.5t49.5 -73t17.5 -94.5q0 -58 -27 -100.5t-70.5 -65t-92.5 -22.5q-52 0 -85 16t-65 42q-22 20 -33 20q-12 0 -16.5 -13t-4.5 -46h-21v285z
M296 1053h80l-115 -179h-32z" />
    <glyph glyph-name="sacute" unicode="&#x15b;" horiz-adv-x="350" 
d="M51 186h21q8 -78 42 -125t86 -47q34 0 50.5 21t16.5 59q0 32 -14 59.5t-35 50t-63 60.5q-55 51 -80 85t-25 80q0 49 32 81.5t81 32.5q28 0 46 -8.5t35 -21.5q13 -10 19 -10q8 0 9.5 6.5t1.5 23.5h21v-160h-21q-10 60 -37.5 98t-70.5 38q-32 0 -47.5 -20.5t-15.5 -44.5
q0 -37 24.5 -69t74.5 -76q67 -59 92.5 -98.5t25.5 -95.5q0 -60 -33.5 -92.5t-83.5 -32.5q-30 0 -50.5 8t-41.5 21q-2 1 -10 6t-14 5q-9 0 -12 -7t-3 -23h-21v196zM227 804h80l-115 -179h-32z" />
    <glyph glyph-name="Scedilla" unicode="&#x15e;" horiz-adv-x="534" 
d="M431 43.5q-44 -48.5 -110 -60.5l-31 -36q37 -3 62.5 -23.5t25.5 -53.5q0 -56 -48 -84.5t-120 -28.5q-27 0 -41 2l6 21l21 -1q60 0 95.5 21t35.5 63q0 37 -25.5 50.5t-73.5 14.5l52 52q-51 1 -82.5 16.5t-61.5 41.5q-2 2 -10 8t-13.5 9t-10.5 3q-12 0 -16.5 -13t-4.5 -46
h-21v285h21q0 -81 27.5 -142.5t72 -94.5t95.5 -33q66 0 104.5 40t38.5 107q0 41 -22.5 79t-56 71t-94.5 84l-28 24q-65 57 -95.5 88.5t-47 66.5t-16.5 81q0 76 50.5 120.5t130.5 44.5q50 0 82 -16.5t61 -42.5q8 -7 15 -12t11 -5q7 0 10 10.5t3 46.5h22v-232h-22
q0 62 -23.5 111.5t-64 77.5t-91.5 28q-64 0 -96 -34t-32 -82q0 -35 17.5 -66.5t43 -57t68.5 -62.5l34 -29l29 -26q69 -60 101 -93.5t49.5 -73t17.5 -94.5q0 -76 -44 -124.5z" />
    <glyph glyph-name="scedilla" unicode="&#x15f;" horiz-adv-x="350" 
d="M281.5 -76.5q25.5 -20.5 25.5 -53.5q0 -56 -48 -84.5t-120 -28.5q-27 0 -41 2l6 21l21 -1q60 0 95.5 21t35.5 63q0 37 -25.5 50.5t-73.5 14.5l52 52h-6q-30 0 -50.5 8t-41.5 21q-2 1 -10 6t-14 5q-9 0 -12 -7t-3 -23h-21v196h21q8 -78 42 -125t86 -47q34 0 50.5 21
t16.5 59q0 32 -14 59.5t-35 50t-63 60.5q-55 51 -80 85t-25 80q0 49 32 81.5t81 32.5q28 0 46 -8.5t35 -21.5q13 -10 19 -10q8 0 9.5 6.5t1.5 23.5h21v-160h-21q-10 60 -37.5 98t-70.5 38q-32 0 -47.5 -20.5t-15.5 -44.5q0 -37 24.5 -69t74.5 -76q67 -59 92.5 -98.5
t25.5 -95.5q0 -42 -16.5 -70.5t-45.5 -42.5l-39 -45q37 -3 62.5 -23.5z" />
    <glyph glyph-name="Scaron" unicode="&#x160;" horiz-adv-x="534" 
d="M60 284h21q0 -81 27.5 -142.5t72 -94.5t95.5 -33q66 0 104.5 40t38.5 107q0 41 -22.5 79t-56 71t-94.5 84l-28 24q-65 57 -95.5 88.5t-47 66.5t-16.5 81q0 76 50.5 120.5t130.5 44.5q50 0 82 -16.5t61 -42.5q8 -7 15 -12t11 -5q7 0 10 10.5t3 46.5h22v-232h-22
q0 62 -23.5 111.5t-64 77.5t-91.5 28q-64 0 -96 -34t-32 -82q0 -35 17.5 -66.5t43 -57t68.5 -62.5l34 -29l29 -26q69 -60 101 -93.5t49.5 -73t17.5 -94.5q0 -58 -27 -100.5t-70.5 -65t-92.5 -22.5q-52 0 -85 16t-65 42q-22 20 -33 20q-12 0 -16.5 -13t-4.5 -46h-21v285z
M391 1052l-90 -179h-72l-90 179h33l93 -130l93 130h33z" />
    <glyph glyph-name="scaron" unicode="&#x161;" horiz-adv-x="350" 
d="M51 186h21q8 -78 42 -125t86 -47q34 0 50.5 21t16.5 59q0 32 -14 59.5t-35 50t-63 60.5q-55 51 -80 85t-25 80q0 49 32 81.5t81 32.5q28 0 46 -8.5t35 -21.5q13 -10 19 -10q8 0 9.5 6.5t1.5 23.5h21v-160h-21q-10 60 -37.5 98t-70.5 38q-32 0 -47.5 -20.5t-15.5 -44.5
q0 -37 24.5 -69t74.5 -76q67 -59 92.5 -98.5t25.5 -95.5q0 -60 -33.5 -92.5t-83.5 -32.5q-30 0 -50.5 8t-41.5 21q-2 1 -10 6t-14 5q-9 0 -12 -7t-3 -23h-21v196zM322 803l-90 -179h-72l-90 179h33l93 -130l93 130h33z" />
    <glyph glyph-name="uni0162" unicode="&#x162;" horiz-adv-x="613" 
d="M582 621l-21 -2q-6 68 -14.5 98t-24.5 39.5t-49 9.5h-136v-670q0 -33 6.5 -48t28 -21t69.5 -6v-21h-102l-45 -53q37 -3 62 -23.5t25 -53.5q0 -56 -48 -84.5t-120 -28.5q-26 0 -40 2l6 21l21 -1q59 0 94.5 21t35.5 63q0 37 -25 50.5t-74 14.5l72 72h-132v21q49 0 70.5 6
t28 21t6.5 48v670h-137q-33 0 -48.5 -9.5t-24 -39.5t-15.5 -98l-21 2l15 159l2 20h519l2 -20z" />
    <glyph glyph-name="uni0163" unicode="&#x163;" horiz-adv-x="324" 
d="M269.5 -76.5q25.5 -20.5 25.5 -53.5q0 -56 -48 -84.5t-120 -28.5q-27 0 -41 2l6 21l21 -1q60 0 95.5 21t35.5 63q0 37 -25.5 50.5t-73.5 14.5l52 52q-51 1 -77 43t-26 137v329h-83v34q43 1 67 14.5t34.5 44t12.5 84.5h24v-143h121v-34h-121v-292q0 -62 4 -96.5
t17.5 -54.5t42.5 -20q37 0 53 43t17 151h21q-1 -101 -13.5 -155.5t-46.5 -73.5l-37 -44q37 -3 62.5 -23.5z" />
    <glyph glyph-name="Tcaron" unicode="&#x164;" horiz-adv-x="613" 
d="M582 621l-21 -2q-6 68 -14.5 98t-24.5 39.5t-49 9.5h-136v-670q0 -33 6.5 -48t28 -21t69.5 -6v-21h-270v21q49 0 70.5 6t28 21t6.5 48v670h-137q-33 0 -48.5 -9.5t-24 -39.5t-15.5 -98l-21 2l15 159l2 20h519l2 -20zM433 1052l-90 -179h-72l-90 179h33l93 -130l93 130h33
z" />
    <glyph glyph-name="tcaron" unicode="&#x165;" horiz-adv-x="332" 
d="M304 220q-1 -84 -9.5 -135.5t-31 -78t-63.5 -26.5q-53 0 -79.5 42t-26.5 138v329h-83v34q43 1 67 14.5t34.5 44t12.5 84.5h24v-143h121v-34h-121v-292q0 -62 4 -96.5t17.5 -54.5t42.5 -20q37 0 53 43t17 151h21zM282 764h80l-115 -179h-32z" />
    <glyph glyph-name="Tbar" unicode="&#x166;" horiz-adv-x="633" 
d="M582 621l-21 -2q-6 68 -14.5 98t-24.5 39.5t-49 9.5h-136v-357h165v-30h-165v-283q0 -33 6.5 -48t28 -21t69.5 -6v-21h-270v21q49 0 70.5 6t28 21t6.5 48v283h-144v30h144v357h-137q-33 0 -48.5 -9.5t-24 -39.5t-15.5 -98l-21 2l15 159l2 20h519l2 -20z" />
    <glyph glyph-name="tbar" unicode="&#x167;" horiz-adv-x="333" 
d="M304 220q-1 -84 -9.5 -135.5t-31 -78t-63.5 -26.5q-53 0 -79.5 42t-26.5 138v183h-84v30h84v116h-83v34q43 1 67 14.5t34.5 44t12.5 84.5h24v-143h121v-34h-121v-116h120v-30h-120v-146q0 -62 4 -96.5t17.5 -54.5t42.5 -20q37 0 53 43t17 151h21z" />
    <glyph glyph-name="Umacron" unicode="&#x16a;" horiz-adv-x="752" 
d="M587.5 752q-6.5 15 -27.5 21t-70 6v21h242v-21q-48 0 -69.5 -6t-28 -21t-6.5 -48v-467q0 -108 -54 -182.5t-184 -74.5q-142 0 -204 73t-62 187v464q0 33 -6.5 48t-27.5 21t-70 6v21h270v-21q-49 0 -70 -6t-27.5 -21t-6.5 -48v-467q0 -115 52 -169t156 -54q94 0 147 55
t53 168v467q0 33 -6.5 48zM515 977v-34h-245v34h245z" />
    <glyph glyph-name="umacron" unicode="&#x16b;" horiz-adv-x="452" 
d="M314 73q-63 -93 -134 -93q-97 0 -97 134v310q0 38 -3.5 51t-18.5 13q-9 0 -35 -8l-7 20l108 34l11 -11v-409q0 -90 60 -90q30 0 59 22t60 61v317q0 38 -3.5 51t-18.5 13q-9 0 -35 -8l-6 20l107 34l11 -11v-427q0 -38 2 -50t13 -12t36 12l9 -19l-104 -47l-11 11v82h-3z
M349 728v-34h-245v34h245z" />
    <glyph glyph-name="Uring" unicode="&#x16e;" horiz-adv-x="752" 
d="M587.5 752q-6.5 15 -27.5 21t-70 6v21h242v-21q-48 0 -69.5 -6t-28 -21t-6.5 -48v-467q0 -108 -54 -182.5t-184 -74.5q-142 0 -204 73t-62 187v464q0 33 -6.5 48t-27.5 21t-70 6v21h270v-21q-49 0 -70 -6t-27.5 -21t-6.5 -48v-467q0 -115 52 -169t156 -54q94 0 147 55
t53 168v467q0 33 -6.5 48zM323 908q-28 29 -28 68q0 40 28 68.5t70 28.5q41 0 68.5 -28.5t27.5 -68.5q0 -39 -27.5 -68t-68.5 -29q-42 0 -70 29zM440 930.5q17 19.5 17 45.5t-17 45t-47 19q-31 0 -48 -19t-17 -45t17 -45.5t48 -19.5q30 0 47 19.5z" />
    <glyph glyph-name="uring" unicode="&#x16f;" horiz-adv-x="452" 
d="M314 73q-63 -93 -134 -93q-97 0 -97 134v310q0 38 -3.5 51t-18.5 13q-9 0 -35 -8l-7 20l108 34l11 -11v-409q0 -90 60 -90q30 0 59 22t60 61v317q0 38 -3.5 51t-18.5 13q-9 0 -35 -8l-6 20l107 34l11 -11v-427q0 -38 2 -50t13 -12t36 12l9 -19l-104 -47l-11 11v82h-3z
M157 659q-28 29 -28 68q0 40 28 68.5t70 28.5q41 0 68.5 -28.5t27.5 -68.5q0 -39 -27.5 -68t-68.5 -29q-42 0 -70 29zM274 681.5q17 19.5 17 45.5t-17 45t-47 19q-31 0 -48 -19t-17 -45t17 -45.5t48 -19.5q30 0 47 19.5z" />
    <glyph glyph-name="Uhungarumlaut" unicode="&#x170;" horiz-adv-x="752" 
d="M587.5 752q-6.5 15 -27.5 21t-70 6v21h242v-21q-48 0 -69.5 -6t-28 -21t-6.5 -48v-467q0 -108 -54 -182.5t-184 -74.5q-142 0 -204 73t-62 187v464q0 33 -6.5 48t-27.5 21t-70 6v21h270v-21q-49 0 -70 -6t-27.5 -21t-6.5 -48v-467q0 -115 52 -169t156 -54q94 0 147 55
t53 168v467q0 33 -6.5 48zM359 1053h64l-90 -179h-30zM463 1053h63l-92 -179h-30z" />
    <glyph glyph-name="uhungarumlaut" unicode="&#x171;" horiz-adv-x="452" 
d="M314 73q-63 -93 -134 -93q-97 0 -97 134v310q0 38 -3.5 51t-18.5 13q-9 0 -35 -8l-7 20l108 34l11 -11v-409q0 -90 60 -90q30 0 59 22t60 61v317q0 38 -3.5 51t-18.5 13q-9 0 -35 -8l-6 20l107 34l11 -11v-427q0 -38 2 -50t13 -12t36 12l9 -19l-104 -47l-11 11v82h-3z
M192 804h64l-90 -179h-30zM296 804h63l-92 -179h-30z" />
    <glyph glyph-name="Uogonek" unicode="&#x172;" horiz-adv-x="752" 
d="M732 779q-48 0 -69.5 -6t-28 -21t-6.5 -48v-467q0 -89 -36.5 -157t-121.5 -90q-14 -14 -46 -34q-35 -22 -53 -42t-18 -56q0 -30 18.5 -48.5t52.5 -18.5q18 0 36 5t43 18l6 -21q-25 -18 -49.5 -27.5t-54.5 -9.5q-45 0 -74 26t-29 69q0 34 15 57t36 35.5t53 26.5
q11 4 29 13q-21 -3 -45 -3q-142 0 -204 73t-62 187v464q0 33 -6.5 48t-27.5 21t-70 6v21h270v-21q-49 0 -70 -6t-27.5 -21t-6.5 -48v-467q0 -115 52 -169t156 -54q94 0 147 55t53 168v467q0 33 -6.5 48t-27.5 21t-70 6v21h242v-21z" />
    <glyph glyph-name="uogonek" unicode="&#x173;" horiz-adv-x="452" 
d="M331 -202q18 5 43 18l6 -21q-25 -18 -49.5 -27.5t-54.5 -9.5q-45 0 -74 26t-29 69q0 35 15 57.5t36 35t54 26.5q28 11 39 19v82h-3q-63 -93 -134 -93q-97 0 -97 134v310q0 38 -3.5 51t-18.5 13q-9 0 -35 -8l-7 20l108 34l11 -11v-409q0 -90 60 -90q30 0 59 22t60 61v317
q0 38 -3.5 51t-18.5 13q-9 0 -35 -8l-6 20l107 34l11 -11v-427q0 -38 2 -50t13 -12t36 12l9 -19l-104 -47q-9 -7 -17.5 -12.5t-15.5 -10.5q-36 -22 -53.5 -41.5t-17.5 -55.5q0 -30 18.5 -48.5t52.5 -18.5q18 0 36 5z" />
    <glyph glyph-name="Wcircumflex" unicode="&#x174;" horiz-adv-x="868" 
d="M858 779q-30 0 -46 -5.5t-25.5 -20.5t-16.5 -46l-178 -730h-30l-119 481l-133 -481h-27l-184 730q-8 31 -17.5 46t-25.5 20.5t-46 5.5v21h238v-21q-52 0 -70 -7t-18 -26q0 -11 7 -39l147 -588h3l110 405l-45 183q-7 31 -16.5 46t-25.5 20.5t-46 5.5v21h238v-21
q-51 0 -69.5 -7t-18.5 -26q0 -11 7 -39l142 -582h3l140 582q7 28 7 39q0 19 -18.5 26t-70.5 7v21h204v-21zM540 873l-93 130l-93 -130h-33l90 179h72l90 -179h-33z" />
    <glyph glyph-name="wcircumflex" unicode="&#x175;" horiz-adv-x="676" 
d="M666 501q-31 0 -45.5 -13.5t-26.5 -57.5l-129 -453h-32l-82 284l-85 -284h-33l-148 454q-10 30 -19 45t-21.5 20t-34.5 5v22h186v-22q-33 0 -45 -4.5t-12 -18.5q0 -12 11 -47l111 -345h3l70 235l-32 110q-12 43 -26.5 56.5t-46.5 13.5v22h180v-22q-31 0 -42.5 -5
t-11.5 -19q0 -12 10 -47l96 -335h3l96 335q10 33 10 46q0 15 -12.5 20t-46.5 5v22h155v-22zM423 624l-93 130l-93 -130h-33l90 179h72l90 -179h-33z" />
    <glyph glyph-name="Ycircumflex" unicode="&#x176;" horiz-adv-x="638" 
d="M366.5 48q6.5 -15 27.5 -21t70 -6v-21h-270v21q49 0 70 6t27.5 21t6.5 48v256l-180 362q-20 41 -41.5 53t-66.5 12v21h245v-21q-46 0 -63 -4t-17 -16q0 -8 7.5 -23.5t10.5 -21.5l152 -308h3l138 307q15 33 15 44q0 13 -16.5 17.5t-63.5 4.5v21h207v-21q-45 0 -65.5 -12.5
t-39.5 -53.5l-163 -361v-256q0 -33 6.5 -48zM431 873l-93 130l-93 -130h-33l90 179h72l90 -179h-33z" />
    <glyph glyph-name="ycircumflex" unicode="&#x177;" horiz-adv-x="458" 
d="M37 -150.5q11 11.5 28 11.5q16 0 25 -7.5t15 -20.5q7 -11 12 -15.5t16 -4.5q28 0 48.5 43.5t41.5 139.5l-131 435q-13 43 -27.5 56.5t-45.5 13.5v22h186v-22q-34 0 -46.5 -5t-12.5 -20q0 -13 10 -46l96 -331l83 331q8 30 8 44q0 16 -12.5 21.5t-47.5 5.5v22h156v-22
q-21 0 -33 -5.5t-20.5 -20t-16.5 -45.5l-104 -412l-8 -30q-19 -75 -35 -120t-44.5 -76.5t-72.5 -31.5q-34 0 -56.5 17t-22.5 44q0 17 11 28.5zM329 624l-93 130l-93 -130h-33l90 179h72l90 -179h-33z" />
    <glyph glyph-name="Ydieresis" unicode="&#x178;" horiz-adv-x="638" 
d="M366.5 48q6.5 -15 27.5 -21t70 -6v-21h-270v21q49 0 70 6t27.5 21t6.5 48v256l-180 362q-20 41 -41.5 53t-66.5 12v21h245v-21q-46 0 -63 -4t-17 -16q0 -8 7.5 -23.5t10.5 -21.5l152 -308h3l138 307q15 33 15 44q0 13 -16.5 17.5t-63.5 4.5v21h207v-21q-45 0 -65.5 -12.5
t-39.5 -53.5l-163 -361v-256q0 -33 6.5 -48zM218.5 930.5q-13.5 13.5 -13.5 32.5t13.5 32.5t32.5 13.5t33 -13.5t14 -32.5t-13.5 -32.5t-33.5 -13.5q-19 0 -32.5 13.5zM391.5 930.5q-13.5 13.5 -13.5 32.5t13.5 32.5t32.5 13.5t33 -13.5t14 -32.5t-13.5 -32.5t-33.5 -13.5
q-19 0 -32.5 13.5z" />
    <glyph glyph-name="Zacute" unicode="&#x179;" horiz-adv-x="528" 
d="M375 34q33 0 49.5 11t28 46.5t23.5 115.5l21 -3l-29 -187l-3 -17h-435v21l372 745h-237q-33 0 -48 -8.5t-22 -36.5t-9 -91l-22 1l5 148l1 21h420l-380 -766h265zM308 1053h80l-115 -179h-32z" />
    <glyph glyph-name="zacute" unicode="&#x17a;" horiz-adv-x="398" 
d="M320 42.5q15 8.5 21 35.5t6 87h21v-165h-338v21l261 468h-144q-33 0 -48 -7.5t-20.5 -30.5t-5.5 -74h-22v146h317v-22l-261 -467h165q33 0 48 8.5zM242 804h80l-115 -179h-32z" />
    <glyph glyph-name="Zdotaccent" unicode="&#x17b;" horiz-adv-x="528" 
d="M375 34q33 0 49.5 11t28 46.5t23.5 115.5l21 -3l-29 -187l-3 -17h-435v21l372 745h-237q-33 0 -48 -8.5t-22 -36.5t-9 -91l-22 1l5 148l1 21h420l-380 -766h265zM244.5 930.5q-13.5 13.5 -13.5 32.5t13.5 32.5t32.5 13.5t33 -13.5t14 -32.5t-13.5 -32.5t-33.5 -13.5
q-19 0 -32.5 13.5z" />
    <glyph glyph-name="zdotaccent" unicode="&#x17c;" horiz-adv-x="398" 
d="M320 42.5q15 8.5 21 35.5t6 87h21v-165h-338v21l261 468h-144q-33 0 -48 -7.5t-20.5 -30.5t-5.5 -74h-22v146h317v-22l-261 -467h165q33 0 48 8.5zM178.5 681.5q-13.5 13.5 -13.5 32.5t13.5 32.5t32.5 13.5t33 -13.5t14 -32.5t-13.5 -32.5t-33.5 -13.5q-19 0 -32.5 13.5z
" />
    <glyph glyph-name="Zcaron" unicode="&#x17d;" horiz-adv-x="528" 
d="M375 34q33 0 49.5 11t28 46.5t23.5 115.5l21 -3l-29 -187l-3 -17h-435v21l372 745h-237q-33 0 -48 -8.5t-22 -36.5t-9 -91l-22 1l5 148l1 21h420l-380 -766h265zM404 1052l-90 -179h-72l-90 179h33l93 -130l93 130h33z" />
    <glyph glyph-name="zcaron" unicode="&#x17e;" horiz-adv-x="398" 
d="M320 42.5q15 8.5 21 35.5t6 87h21v-165h-338v21l261 468h-144q-33 0 -48 -7.5t-20.5 -30.5t-5.5 -74h-22v146h317v-22l-261 -467h165q33 0 48 8.5zM338 803l-90 -179h-72l-90 179h33l93 -130l93 130h33z" />
    <glyph glyph-name="uni0218" unicode="&#x218;" horiz-adv-x="534" 
d="M60 284h21q0 -81 27.5 -142.5t72 -94.5t95.5 -33q66 0 104.5 40t38.5 107q0 41 -22.5 79t-56 71t-94.5 84l-28 24q-65 57 -95.5 88.5t-47 66.5t-16.5 81q0 76 50.5 120.5t130.5 44.5q50 0 82 -16.5t61 -42.5q8 -7 15 -12t11 -5q7 0 10 10.5t3 46.5h22v-232h-22
q0 62 -23.5 111.5t-64 77.5t-91.5 28q-64 0 -96 -34t-32 -82q0 -35 17.5 -66.5t43 -57t68.5 -62.5l34 -29l29 -26q69 -60 101 -93.5t49.5 -73t17.5 -94.5q0 -58 -27 -100.5t-70.5 -65t-92.5 -22.5q-52 0 -85 16t-65 42q-22 20 -33 20q-12 0 -16.5 -13t-4.5 -46h-21v285z
M224.5 -147q-8.5 11 -8.5 28q0 19 13 30.5t32 11.5q26 0 42 -17t16 -49q0 -34 -23 -60t-73 -39v22q24 6 44 21.5t20 35.5q0 15 -10 15q-3 0 -12.5 -5t-18.5 -5q-13 0 -21.5 11z" />
    <glyph glyph-name="uni0219" unicode="&#x219;" horiz-adv-x="350" 
d="M51 186h21q8 -78 42 -125t86 -47q34 0 50.5 21t16.5 59q0 32 -14 59.5t-35 50t-63 60.5q-55 51 -80 85t-25 80q0 49 32 81.5t81 32.5q28 0 46 -8.5t35 -21.5q13 -10 19 -10q8 0 9.5 6.5t1.5 23.5h21v-160h-21q-10 60 -37.5 98t-70.5 38q-32 0 -47.5 -20.5t-15.5 -44.5
q0 -37 24.5 -69t74.5 -76q67 -59 92.5 -98.5t25.5 -95.5q0 -60 -33.5 -92.5t-83.5 -32.5q-30 0 -50.5 8t-41.5 21q-2 1 -10 6t-14 5q-9 0 -12 -7t-3 -23h-21v196zM154.5 -147q-8.5 11 -8.5 28q0 19 13 30.5t32 11.5q26 0 42 -17t16 -49q0 -34 -23 -60t-73 -39v22
q24 6 44 21.5t20 35.5q0 15 -10 15q-3 0 -12.5 -5t-18.5 -5q-13 0 -21.5 11z" />
    <glyph glyph-name="uni021A" unicode="&#x21a;" horiz-adv-x="613" 
d="M582 621l-21 -2q-6 68 -14.5 98t-24.5 39.5t-49 9.5h-136v-670q0 -33 6.5 -48t28 -21t69.5 -6v-21h-270v21q49 0 70.5 6t28 21t6.5 48v670h-137q-33 0 -48.5 -9.5t-24 -39.5t-15.5 -98l-21 2l15 159l2 20h519l2 -20zM268.5 -147q-8.5 11 -8.5 28q0 19 13 30.5t32 11.5
q26 0 42 -17t16 -49q0 -34 -23 -60t-73 -39v22q24 6 44 21.5t20 35.5q0 15 -10 15q-3 0 -12.5 -5t-18.5 -5q-13 0 -21.5 11z" />
    <glyph glyph-name="uni021B" unicode="&#x21b;" horiz-adv-x="324" 
d="M304 220q-1 -84 -9.5 -135.5t-31 -78t-63.5 -26.5q-53 0 -79.5 42t-26.5 138v329h-83v34q43 1 67 14.5t34.5 44t12.5 84.5h24v-143h121v-34h-121v-292q0 -62 4 -96.5t17.5 -54.5t42.5 -20q37 0 53 43t17 151h21zM141.5 -147q-8.5 11 -8.5 28q0 19 13 30.5t32 11.5
q26 0 42 -17t16 -49q0 -34 -23 -60t-73 -39v22q24 6 44 21.5t20 35.5q0 15 -10 15q-3 0 -12.5 -5t-18.5 -5q-13 0 -21.5 11z" />
    <glyph glyph-name="circumflex" unicode="&#x2c6;" horiz-adv-x="332" 
d="M259 624l-93 130l-93 -130h-33l90 179h72l90 -179h-33z" />
    <glyph glyph-name="caron" unicode="&#x2c7;" horiz-adv-x="332" 
d="M292 803l-90 -179h-72l-90 179h33l93 -130l93 130h33z" />
    <glyph glyph-name="breve" unicode="&#x2d8;" horiz-adv-x="345" 
d="M261 691.5q-32 -31.5 -88 -31.5q-57 0 -89 31.5t-34 86.5h21q2 -33 28.5 -50t73.5 -17t73 17t28 50h21q-2 -55 -34 -86.5z" />
    <glyph glyph-name="dotaccent" unicode="&#x2d9;" horiz-adv-x="193" 
d="M63.5 681.5q-13.5 13.5 -13.5 32.5t13.5 32.5t32.5 13.5t33 -13.5t14 -32.5t-13.5 -32.5t-33.5 -13.5q-19 0 -32.5 13.5z" />
    <glyph glyph-name="ring" unicode="&#x2da;" horiz-adv-x="294" 
d="M78 659q-28 29 -28 68q0 40 28 68.5t70 28.5q41 0 68.5 -28.5t27.5 -68.5q0 -39 -27.5 -68t-68.5 -29q-42 0 -70 29zM195 681.5q17 19.5 17 45.5t-17 45t-47 19q-31 0 -48 -19t-17 -45t17 -45.5t48 -19.5q30 0 47 19.5z" />
    <glyph glyph-name="ogonek" unicode="&#x2db;" horiz-adv-x="308" 
d="M205.5 -28q-12.5 -9 -24.5 -16q-35 -22 -53 -42t-18 -56q0 -30 18.5 -48.5t52.5 -18.5q18 0 36 5t43 18l6 -21q-25 -18 -49.5 -27.5t-54.5 -9.5q-45 0 -74 26t-29 69q0 34 15 57t36 35.5t53 26.5q27 10 41 20h23q-9 -9 -21.5 -18z" />
    <glyph glyph-name="tilde" unicode="&#x2dc;" horiz-adv-x="385" 
d="M223 678.5q-18 9.5 -39 26.5q-20 16 -34.5 23.5t-30.5 7.5q-23 0 -34 -16.5t-14 -50.5h-21q2 55 19 86t54 31q21 0 39 -9t40 -27q19 -15 33.5 -23t31.5 -8q24 0 34.5 16.5t12.5 50.5h21q-2 -55 -19 -86t-54 -31q-21 0 -39 9.5z" />
    <glyph glyph-name="hungarumlaut" unicode="&#x2dd;" horiz-adv-x="323" 
d="M106 804h64l-90 -179h-30zM210 804h63l-92 -179h-30z" />
    <glyph glyph-name="gravecomb" unicode="&#x300;" horiz-adv-x="0" 
d="M-73 625l-114 179h80l67 -179h-33z" />
    <glyph glyph-name="acutecomb" unicode="&#x301;" horiz-adv-x="0" 
d="M-119 804h80l-115 -179h-32z" />
    <glyph glyph-name="uni0302" unicode="&#x302;" horiz-adv-x="0" 
d="M-81 624l-93 130l-93 -130h-33l90 179h72l90 -179h-33z" />
    <glyph glyph-name="tildecomb" unicode="&#x303;" horiz-adv-x="0" 
d="M-162 678.5q-18 9.5 -39 26.5q-20 16 -34.5 23.5t-30.5 7.5q-23 0 -34 -16.5t-14 -50.5h-21q2 55 19 86t54 31q21 0 39 -9t40 -27q19 -15 33.5 -23t31.5 -8q24 0 34.5 16.5t12.5 50.5h21q-2 -55 -19 -86t-54 -31q-21 0 -39 9.5z" />
    <glyph glyph-name="uni0304" unicode="&#x304;" horiz-adv-x="0" 
d="M-50 728v-34h-245v34h245z" />
    <glyph glyph-name="uni0306" unicode="&#x306;" horiz-adv-x="0" 
d="M-84 691.5q-32 -31.5 -88 -31.5q-57 0 -89 31.5t-34 86.5h21q2 -33 28.5 -50t73.5 -17t73 17t28 50h21q-2 -55 -34 -86.5z" />
    <glyph glyph-name="uni0307" unicode="&#x307;" horiz-adv-x="0" 
d="M-129.5 681.5q-13.5 13.5 -13.5 32.5t13.5 32.5t32.5 13.5t33 -13.5t14 -32.5t-13.5 -32.5t-33.5 -13.5q-19 0 -32.5 13.5z" />
    <glyph glyph-name="uni0308" unicode="&#x308;" horiz-adv-x="0" 
d="M-301.5 681.5q-13.5 13.5 -13.5 32.5t13.5 32.5t32.5 13.5t33 -13.5t14 -32.5t-13.5 -32.5t-33.5 -13.5q-19 0 -32.5 13.5zM-128.5 681.5q-13.5 13.5 -13.5 32.5t13.5 32.5t32.5 13.5t33 -13.5t14 -32.5t-13.5 -32.5t-33.5 -13.5q-19 0 -32.5 13.5z" />
    <glyph glyph-name="uni030A" unicode="&#x30a;" horiz-adv-x="0" 
d="M-216 659q-28 29 -28 68q0 40 28 68.5t70 28.5q41 0 68.5 -28.5t27.5 -68.5q0 -39 -27.5 -68t-68.5 -29q-42 0 -70 29zM-99 681.5q17 19.5 17 45.5t-17 45t-47 19q-31 0 -48 -19t-17 -45t17 -45.5t48 -19.5q30 0 47 19.5z" />
    <glyph glyph-name="uni030B" unicode="&#x30b;" horiz-adv-x="0" 
d="M-191 804h64l-90 -179h-30zM-87 804h63l-92 -179h-30z" />
    <glyph glyph-name="uni030C" unicode="&#x30c;" horiz-adv-x="0" 
d="M-40 803l-90 -179h-72l-90 179h33l93 -130l93 130h33z" />
    <glyph glyph-name="uni0312" unicode="&#x312;" horiz-adv-x="0" 
d="M-58.5 736q8.5 -11 8.5 -28q0 -19 -13.5 -30.5t-32.5 -11.5q-26 0 -41.5 16.5t-15.5 49.5q0 34 23 60t73 39v-22q-24 -6 -44 -21.5t-20 -35.5q0 -15 10 -15q3 0 12.5 5t18.5 5q13 0 21.5 -11z" />
    <glyph glyph-name="uni0326" unicode="&#x326;" horiz-adv-x="0" 
d="M-144.5 -147q-8.5 11 -8.5 28q0 19 13 30.5t32 11.5q26 0 42 -17t16 -49q0 -34 -23 -60t-73 -39v22q24 6 44 21.5t20 35.5q0 15 -10 15q-3 0 -12.5 -5t-18.5 -5q-13 0 -21.5 11z" />
    <glyph glyph-name="uni0327" unicode="&#x327;" horiz-adv-x="0" 
d="M-118 10h34l-54 -63q37 -3 62.5 -23.5t25.5 -53.5q0 -56 -48 -84.5t-120 -28.5q-27 0 -41 2l6 21l21 -1q60 0 95.5 21t35.5 63q0 37 -25.5 50.5t-73.5 14.5z" />
    <glyph glyph-name="uni0328" unicode="&#x328;" horiz-adv-x="0" 
d="M-102.5 -28q-12.5 -9 -24.5 -16q-35 -22 -53 -42t-18 -56q0 -30 18.5 -48.5t52.5 -18.5q18 0 36 5t43 18l6 -21q-25 -18 -49.5 -27.5t-54.5 -9.5q-45 0 -74 26t-29 69q0 34 15 57t36 35.5t53 26.5q27 10 41 20h23q-9 -9 -21.5 -18z" />
    <glyph glyph-name="Wgrave" unicode="&#x1e80;" horiz-adv-x="868" 
d="M858 779q-30 0 -46 -5.5t-25.5 -20.5t-16.5 -46l-178 -730h-30l-119 481l-133 -481h-27l-184 730q-8 31 -17.5 46t-25.5 20.5t-46 5.5v21h238v-21q-52 0 -70 -7t-18 -26q0 -11 7 -39l147 -588h3l110 405l-45 183q-7 31 -16.5 46t-25.5 20.5t-46 5.5v21h238v-21
q-51 0 -69.5 -7t-18.5 -26q0 -11 7 -39l142 -582h3l140 582q7 28 7 39q0 19 -18.5 26t-70.5 7v21h204v-21zM461 874l-114 179h80l67 -179h-33z" />
    <glyph glyph-name="wgrave" unicode="&#x1e81;" horiz-adv-x="676" 
d="M666 501q-31 0 -45.5 -13.5t-26.5 -57.5l-129 -453h-32l-82 284l-85 -284h-33l-148 454q-10 30 -19 45t-21.5 20t-34.5 5v22h186v-22q-33 0 -45 -4.5t-12 -18.5q0 -12 11 -47l111 -345h3l70 235l-32 110q-12 43 -26.5 56.5t-46.5 13.5v22h180v-22q-31 0 -42.5 -5
t-11.5 -19q0 -12 10 -47l96 -335h3l96 335q10 33 10 46q0 15 -12.5 20t-46.5 5v22h155v-22zM344 625l-114 179h80l67 -179h-33z" />
    <glyph glyph-name="Wacute" unicode="&#x1e82;" horiz-adv-x="868" 
d="M858 779q-30 0 -46 -5.5t-25.5 -20.5t-16.5 -46l-178 -730h-30l-119 481l-133 -481h-27l-184 730q-8 31 -17.5 46t-25.5 20.5t-46 5.5v21h238v-21q-52 0 -70 -7t-18 -26q0 -11 7 -39l147 -588h3l110 405l-45 183q-7 31 -16.5 46t-25.5 20.5t-46 5.5v21h238v-21
q-51 0 -69.5 -7t-18.5 -26q0 -11 7 -39l142 -582h3l140 582q7 28 7 39q0 19 -18.5 26t-70.5 7v21h204v-21zM477 1053h80l-115 -179h-32z" />
    <glyph glyph-name="wacute" unicode="&#x1e83;" horiz-adv-x="676" 
d="M666 501q-31 0 -45.5 -13.5t-26.5 -57.5l-129 -453h-32l-82 284l-85 -284h-33l-148 454q-10 30 -19 45t-21.5 20t-34.5 5v22h186v-22q-33 0 -45 -4.5t-12 -18.5q0 -12 11 -47l111 -345h3l70 235l-32 110q-12 43 -26.5 56.5t-46.5 13.5v22h180v-22q-31 0 -42.5 -5
t-11.5 -19q0 -12 10 -47l96 -335h3l96 335q10 33 10 46q0 15 -12.5 20t-46.5 5v22h155v-22zM361 804h80l-115 -179h-32z" />
    <glyph glyph-name="Wdieresis" unicode="&#x1e84;" horiz-adv-x="868" 
d="M858 779q-30 0 -46 -5.5t-25.5 -20.5t-16.5 -46l-178 -730h-30l-119 481l-133 -481h-27l-184 730q-8 31 -17.5 46t-25.5 20.5t-46 5.5v21h238v-21q-52 0 -70 -7t-18 -26q0 -11 7 -39l147 -588h3l110 405l-45 183q-7 31 -16.5 46t-25.5 20.5t-46 5.5v21h238v-21
q-51 0 -69.5 -7t-18.5 -26q0 -11 7 -39l142 -582h3l140 582q7 28 7 39q0 19 -18.5 26t-70.5 7v21h204v-21zM327.5 930.5q-13.5 13.5 -13.5 32.5t13.5 32.5t32.5 13.5t33 -13.5t14 -32.5t-13.5 -32.5t-33.5 -13.5q-19 0 -32.5 13.5zM500.5 930.5q-13.5 13.5 -13.5 32.5
t13.5 32.5t32.5 13.5t33 -13.5t14 -32.5t-13.5 -32.5t-33.5 -13.5q-19 0 -32.5 13.5z" />
    <glyph glyph-name="wdieresis" unicode="&#x1e85;" horiz-adv-x="676" 
d="M666 501q-31 0 -45.5 -13.5t-26.5 -57.5l-129 -453h-32l-82 284l-85 -284h-33l-148 454q-10 30 -19 45t-21.5 20t-34.5 5v22h186v-22q-33 0 -45 -4.5t-12 -18.5q0 -12 11 -47l111 -345h3l70 235l-32 110q-12 43 -26.5 56.5t-46.5 13.5v22h180v-22q-31 0 -42.5 -5
t-11.5 -19q0 -12 10 -47l96 -335h3l96 335q10 33 10 46q0 15 -12.5 20t-46.5 5v22h155v-22zM210.5 681.5q-13.5 13.5 -13.5 32.5t13.5 32.5t32.5 13.5t33 -13.5t14 -32.5t-13.5 -32.5t-33.5 -13.5q-19 0 -32.5 13.5zM383.5 681.5q-13.5 13.5 -13.5 32.5t13.5 32.5t32.5 13.5
t33 -13.5t14 -32.5t-13.5 -32.5t-33.5 -13.5q-19 0 -32.5 13.5z" />
    <glyph glyph-name="Ygrave" unicode="&#x1ef2;" horiz-adv-x="638" 
d="M366.5 48q6.5 -15 27.5 -21t70 -6v-21h-270v21q49 0 70 6t27.5 21t6.5 48v256l-180 362q-20 41 -41.5 53t-66.5 12v21h245v-21q-46 0 -63 -4t-17 -16q0 -8 7.5 -23.5t10.5 -21.5l152 -308h3l138 307q15 33 15 44q0 13 -16.5 17.5t-63.5 4.5v21h207v-21q-45 0 -65.5 -12.5
t-39.5 -53.5l-163 -361v-256q0 -33 6.5 -48zM351 874l-114 179h80l67 -179h-33z" />
    <glyph glyph-name="ygrave" unicode="&#x1ef3;" horiz-adv-x="458" 
d="M37 -150.5q11 11.5 28 11.5q16 0 25 -7.5t15 -20.5q7 -11 12 -15.5t16 -4.5q28 0 48.5 43.5t41.5 139.5l-131 435q-13 43 -27.5 56.5t-45.5 13.5v22h186v-22q-34 0 -46.5 -5t-12.5 -20q0 -13 10 -46l96 -331l83 331q8 30 8 44q0 16 -12.5 21.5t-47.5 5.5v22h156v-22
q-21 0 -33 -5.5t-20.5 -20t-16.5 -45.5l-104 -412l-8 -30q-19 -75 -35 -120t-44.5 -76.5t-72.5 -31.5q-34 0 -56.5 17t-22.5 44q0 17 11 28.5zM250 625l-114 179h80l67 -179h-33z" />
    <glyph glyph-name="endash" unicode="&#x2013;" horiz-adv-x="600" 
d="M0 296h600v-52h-600v52z" />
    <glyph glyph-name="emdash" unicode="&#x2014;" horiz-adv-x="1200" 
d="M0 296h1200v-52h-1200v52z" />
    <glyph glyph-name="quoteleft" unicode="&#x2018;" horiz-adv-x="208" 
d="M147.5 690q10.5 -13 10.5 -31q0 -23 -14 -36t-37 -13q-24 0 -40.5 17.5t-16.5 47.5q0 38 25.5 76t81.5 69v-21q-32 -19 -54.5 -44.5t-22.5 -49.5q0 -14 10 -14q3 0 11 6t20 6q16 0 26.5 -13z" />
    <glyph glyph-name="quoteright" unicode="&#x2019;" horiz-adv-x="208" 
d="M60.5 741q-10.5 13 -10.5 31q0 23 14.5 36t36.5 13q24 0 40.5 -18t16.5 -48q0 -38 -25.5 -76t-81.5 -69v22q32 18 54.5 43.5t22.5 49.5q0 14 -10 14q-3 0 -11 -5.5t-19 -5.5q-17 0 -27.5 13z" />
    <glyph glyph-name="quotesinglbase" unicode="&#x201a;" horiz-adv-x="208" 
d="M60.5 -7q-10.5 13 -10.5 31q0 23 14.5 36t36.5 13q24 0 40.5 -18t16.5 -48q0 -38 -25.5 -76t-81.5 -69v22q32 18 54.5 43.5t22.5 49.5q0 14 -10 14q-3 0 -11 -5.5t-19 -5.5q-17 0 -27.5 13z" />
    <glyph glyph-name="quotedblleft" unicode="&#x201c;" horiz-adv-x="368" 
d="M146.5 690q10.5 -13 10.5 -31q0 -23 -14 -36t-37 -13q-24 0 -40.5 17.5t-16.5 47.5q0 38 25.5 76t81.5 69v-21q-32 -19 -54.5 -44.5t-22.5 -49.5q0 -14 10 -14q3 0 11 6t19 6q17 0 27.5 -13zM308 690q10 -13 10 -31q0 -23 -14 -36t-37 -13q-24 0 -40.5 17.5t-16.5 47.5
q0 38 25.5 76t81.5 69v-21q-32 -19 -54.5 -44.5t-22.5 -49.5q0 -14 10 -14q3 0 11.5 6t19.5 6q17 0 27 -13z" />
    <glyph glyph-name="quotedblright" unicode="&#x201d;" horiz-adv-x="368" 
d="M221.5 741q-10.5 13 -10.5 31q0 23 14.5 36t36.5 13q24 0 40.5 -18t16.5 -48q0 -38 -25.5 -76t-81.5 -69v22q32 18 54.5 43.5t22.5 49.5q0 14 -10 14q-3 0 -11 -5.5t-19 -5.5q-17 0 -27.5 13zM60.5 741q-10.5 13 -10.5 31q0 23 14.5 36t36.5 13q24 0 40.5 -18t16.5 -48
q0 -38 -25.5 -76t-81.5 -69v22q32 18 54.5 43.5t22.5 49.5q0 14 -10 14q-3 0 -11 -5.5t-19 -5.5q-17 0 -27.5 13z" />
    <glyph glyph-name="quotedblbase" unicode="&#x201e;" horiz-adv-x="368" 
d="M221.5 -7q-10.5 13 -10.5 31q0 23 14.5 36t36.5 13q24 0 40.5 -18t16.5 -48q0 -38 -25.5 -76t-81.5 -69v22q32 18 54.5 43.5t22.5 49.5q0 14 -10 14q-3 0 -11 -5.5t-19 -5.5q-17 0 -27.5 13zM60.5 -7q-10.5 13 -10.5 31q0 23 14.5 36t36.5 13q24 0 40.5 -18t16.5 -48
q0 -38 -25.5 -76t-81.5 -69v22q32 18 54.5 43.5t22.5 49.5q0 14 -10 14q-3 0 -11 -5.5t-19 -5.5q-17 0 -27.5 13z" />
    <glyph glyph-name="dagger" unicode="&#x2020;" horiz-adv-x="448" 
d="M386.5 663q11.5 -10 11.5 -28t-11.5 -28t-30.5 -10q-15 0 -41 11q-21 9 -39.5 14t-44.5 6q1 -39 10 -66.5t30 -57.5q-21 -51 -28.5 -128.5t-8.5 -233.5v-390h-21v390q0 153 -7.5 231.5t-28.5 130.5q22 32 31.5 59t10.5 65q-27 -1 -46.5 -6t-39.5 -14q-11 -4 -21.5 -7.5
t-19.5 -3.5q-19 0 -30.5 10t-11.5 28t11.5 28t30.5 10q17 0 41 -12q23 -10 41 -15t45 -6q-1 27 -5.5 46t-13.5 40q-5 13 -9.5 27t-4.5 28q0 20 10 31.5t28 11.5t28 -11.5t10 -31.5q0 -14 -3 -26t-10 -29q-8 -23 -12.5 -41.5t-5.5 -44.5q26 1 44.5 6.5t39.5 14.5q10 5 21 8.5
t20 3.5q19 0 30.5 -10z" />
    <glyph glyph-name="daggerdbl" unicode="&#x2021;" horiz-adv-x="448" 
d="M386.5 -11q11.5 -10 11.5 -28t-11.5 -28t-30.5 -10q-17 0 -41 12q-23 9 -41 14t-43 6q1 -25 5.5 -44t12.5 -40q7 -17 10 -29t3 -27q0 -20 -10 -31.5t-28 -11.5t-28 11.5t-10 31.5q0 24 14 56q9 24 13.5 41t5.5 43q-27 -1 -46.5 -6t-39.5 -14q-26 -12 -41 -12
q-19 0 -30.5 10t-11.5 28t11.5 28t30.5 10q9 0 19.5 -3.5t21.5 -7.5q20 -9 39.5 -14t46.5 -6q-1 34 -8 59.5t-23 61.5q16 47 23 95.5t7 113.5q0 66 -7 114t-23 95q16 36 23 61t8 60q-27 -1 -46.5 -6t-39.5 -14q-11 -4 -21.5 -7.5t-19.5 -3.5q-19 0 -30.5 10t-11.5 28
t11.5 28t30.5 10q17 0 41 -12q23 -10 41 -15t45 -6q-1 27 -5.5 46t-13.5 40q-5 13 -9.5 27t-4.5 28q0 20 10 31.5t28 11.5t28 -11.5t10 -31.5q0 -14 -3 -26t-10 -29q-8 -23 -12.5 -41.5t-5.5 -44.5q26 1 44.5 6.5t39.5 14.5q10 5 21 8.5t20 3.5q19 0 30.5 -10t11.5 -28
t-11.5 -28t-30.5 -10q-15 0 -41 11q-21 9 -39.5 14t-44.5 6q1 -35 7.5 -61t20.5 -60q-15 -47 -22 -95.5t-7 -113.5t7 -113.5t22 -95.5q-14 -34 -20.5 -60.5t-7.5 -60.5q26 1 44.5 6t39.5 14q26 11 41 11q19 0 30.5 -10z" />
    <glyph glyph-name="bullet" unicode="&#x2022;" horiz-adv-x="331" 
d="M84 300q-34 34 -34 82q0 47 34 81t82 34q47 0 81 -34t34 -81q0 -48 -34 -82t-81 -34q-48 0 -82 34z" />
    <glyph glyph-name="ellipsis" unicode="&#x2026;" horiz-adv-x="630" 
d="M63.5 -6.5q-13.5 13.5 -13.5 32.5t13.5 33t32.5 14q20 0 33.5 -13.5t13.5 -33.5q0 -19 -14 -32.5t-33 -13.5t-32.5 13.5zM282.5 -6.5q-13.5 13.5 -13.5 32.5t13.5 33t32.5 14q20 0 33.5 -13.5t13.5 -33.5q0 -19 -14 -32.5t-33 -13.5t-32.5 13.5zM501.5 -6.5
q-13.5 13.5 -13.5 32.5t13.5 33t32.5 14q20 0 33.5 -13.5t13.5 -33.5q0 -19 -14 -32.5t-33 -13.5t-32.5 13.5z" />
    <glyph glyph-name="perthousand" unicode="&#x2030;" horiz-adv-x="983" 
d="M110.5 442q-28.5 27 -44.5 73t-16 102t16 102.5t44.5 73.5t64.5 27q35 0 63.5 -27t44.5 -73.5t16 -102.5q0 -55 -16 -101.5t-44.5 -73.5t-63.5 -27q-36 0 -64.5 27zM604 800l-497 -800h-35l497 800h35zM230.5 492.5q17.5 47.5 17.5 124.5t-17.5 125t-55.5 48
q-39 0 -56.5 -47.5t-17.5 -125.5q0 -77 17.5 -124.5t56.5 -47.5q38 0 55.5 47.5zM437.5 7q-28.5 27 -44.5 73t-16 102q0 57 16 103.5t44.5 73.5t64.5 27q35 0 63.5 -27t44.5 -74t16 -103q0 -55 -16 -101.5t-44.5 -73.5t-63.5 -27q-36 0 -64.5 27zM745.5 7q-28.5 27 -45 73.5
t-16.5 101.5q0 56 16.5 103t45 74t63.5 27t63.5 -27t44.5 -74t16 -103t-16 -102t-44.5 -73t-63.5 -27t-63.5 27zM557 57.5q17 47.5 17 124.5q0 78 -17 126t-55 48q-39 0 -56.5 -47.5t-17.5 -126.5q0 -77 17.5 -124.5t56.5 -47.5q38 0 55 47.5zM865 57.5q17 47.5 17 124.5
q0 78 -17 126t-56 48t-56 -48t-17 -126q0 -77 17 -124.5t56 -47.5t56 47.5z" />
    <glyph glyph-name="guilsinglleft" unicode="&#x2039;" horiz-adv-x="273" 
d="M225 49h-21l-151 244l151 241h21l-116 -241z" />
    <glyph glyph-name="guilsinglright" unicode="&#x203a;" horiz-adv-x="273" 
d="M48 534h21l151 -241l-151 -244h-21l116 244z" />
    <glyph glyph-name="fraction" unicode="&#x2044;" horiz-adv-x="433" 
d="M483 800l-497 -800h-36l497 800h36z" />
    <glyph glyph-name="Euro" unicode="&#x20ac;" horiz-adv-x="616" 
d="M566 288q-13 -146 -62.5 -227t-145.5 -81q-70 0 -122.5 47t-83 129.5t-37.5 186.5h-65l11 31h52v26q0 24 1 36h-64l11 31h55q8 102 40 182t85 125.5t121 45.5q52 0 94 -25.5t79 -71.5v-185h-21q-3 123 -42 185.5t-101 62.5q-80 0 -129 -88t-59 -231h244l-11 -31h-234
q-1 -12 -1 -36v-26h215l-10 -31h-203q9 -145 58 -236t130 -91q75 0 119 72.5t54 199.5h22z" />
    <glyph glyph-name="trademark" unicode="&#x2122;" horiz-adv-x="1092" 
d="M87.5 759q-15.5 -7 -23.5 -28.5t-13 -70.5l-22 3l13 113l2 24h384l3 -24l12 -113l-21 -3q-5 49 -13.5 70.5t-24 28.5t-48.5 7h-74v-310q0 -33 4.5 -48t19.5 -21t49 -6v-21h-197v21q34 0 49 6t19.5 21t4.5 48v310h-75q-33 0 -48.5 -7zM926 800h136v-21q-34 0 -49 -6
t-19.5 -21t-4.5 -48v-248q0 -33 4.5 -48t19.5 -21t49 -6v-21h-198v21q34 0 49 6t19.5 21t4.5 48v276h-3l-166 -392h-20l-156 392h-3l2 -276q0 -33 4.5 -48t19.5 -21t49 -5v-22h-179v21q34 0 49 6t19.5 21t4.5 48v248q0 33 -4.5 48t-19.5 21t-49 6v21h136l147 -368h3z" />
    <glyph glyph-name="oneeighth" unicode="&#x215b;" horiz-adv-x="801" 
d="M171.5 349q7.5 -8 37.5 -8v-13h-130v13q30 0 37.5 8t7.5 36v355q0 21 -1 27t-8 6q-8 0 -37 -15l-7 11l85 46l8 -7v-423q0 -28 7.5 -36zM627 800l-497 -800h-36l497 800h36zM706 192.5q26 -38.5 26 -81.5q0 -54 -36 -87.5t-93 -33.5q-60 0 -95 33.5t-35 82.5
q0 42 27.5 78.5t79.5 75.5q-48 39 -70.5 68.5t-22.5 63.5q0 44 33.5 73t85.5 29t82.5 -28.5t30.5 -70.5q0 -36 -21 -61.5t-70 -62.5l0.5 -0.5l0.5 -0.5q51 -39 77 -77.5zM545.5 345.5q18.5 -24.5 65.5 -61.5q42 33 57.5 58t15.5 54q0 33 -21 55.5t-56 22.5q-36 0 -58 -22
t-22 -56q0 -26 18.5 -50.5zM668.5 35.5q23.5 25.5 23.5 70.5q0 37 -24 69t-72 71q-88 -70 -88 -140q0 -39 26.5 -67.5t70.5 -28.5q40 0 63.5 25.5z" />
    <glyph glyph-name="threeeighths" unicode="&#x215c;" horiz-adv-x="885" 
d="M81.5 359.5q6.5 4.5 15.5 4.5t15.5 -4t15.5 -13q10 -9 22.5 -14t31.5 -5q42 0 72.5 29t30.5 85q0 66 -37 94.5t-94 30.5v13q50 16 78.5 46.5t28.5 75.5q0 34 -19.5 56.5t-55.5 22.5q-73 0 -94 -76h-15q8 52 40.5 79.5t80.5 27.5q45 0 75 -29t30 -77q0 -79 -94 -122v-1
q54 -8 86.5 -41.5t32.5 -89.5q0 -42 -21 -75t-57 -51t-79 -18q-37 0 -66.5 11t-29.5 28q0 8 6.5 12.5zM713 800l-497 -800h-36l497 800h36zM793 192.5q26 -38.5 26 -81.5q0 -54 -36 -87.5t-93 -33.5q-60 0 -95 33.5t-35 82.5q0 42 27.5 78.5t79.5 75.5q-48 39 -70.5 68.5
t-22.5 63.5q0 44 33.5 73t85.5 29t82.5 -28.5t30.5 -70.5q0 -36 -21 -61.5t-70 -62.5l0.5 -0.5l0.5 -0.5q51 -39 77 -77.5zM632.5 345.5q18.5 -24.5 65.5 -61.5q42 33 57.5 58t15.5 54q0 33 -21 55.5t-56 22.5q-36 0 -58 -22t-22 -56q0 -26 18.5 -50.5zM755.5 35.5
q23.5 25.5 23.5 70.5q0 37 -24 69t-72 71q-88 -70 -88 -140q0 -39 26.5 -67.5t70.5 -28.5q40 0 63.5 25.5z" />
    <glyph glyph-name="fiveeighths" unicode="&#x215d;" horiz-adv-x="851" 
d="M90 363q8 0 12.5 -3t9 -8t6.5 -8q16 -16 50 -16q26 0 50.5 17.5t40.5 54t16 89.5q0 67 -24.5 98.5t-67.5 31.5q-39 0 -68 -24l-20 13l45 192h168l-10 -34h-142l-34 -145l2 -2q33 27 77 27q55 0 87 -42.5t32 -103.5q0 -59 -21.5 -102.5t-59 -66.5t-82.5 -23
q-35 0 -61.5 11t-26.5 27q0 17 21 17zM679 800l-497 -800h-36l497 800h36zM759 192.5q26 -38.5 26 -81.5q0 -54 -36 -87.5t-93 -33.5q-60 0 -95 33.5t-35 82.5q0 42 27.5 78.5t79.5 75.5q-48 39 -70.5 68.5t-22.5 63.5q0 44 33.5 73t85.5 29t82.5 -28.5t30.5 -70.5
q0 -36 -21 -61.5t-70 -62.5l0.5 -0.5l0.5 -0.5q51 -39 77 -77.5zM598.5 345.5q18.5 -24.5 65.5 -61.5q42 33 57.5 58t15.5 54q0 33 -21 55.5t-56 22.5q-36 0 -58 -22t-22 -56q0 -26 18.5 -50.5zM721.5 35.5q23.5 25.5 23.5 70.5q0 37 -24 69t-72 71q-88 -70 -88 -140
q0 -39 26.5 -67.5t70.5 -28.5q40 0 63.5 25.5z" />
    <glyph glyph-name="seveneighths" unicode="&#x215e;" horiz-adv-x="807" 
d="M293 764v2h-164q-23 0 -34 -4.5t-18 -17.5t-13 -42l-14 3l14 67l6 28h267l-159 -485l-29 6zM635 800l-497 -800h-36l497 800h36zM714 192.5q26 -38.5 26 -81.5q0 -54 -36 -87.5t-93 -33.5q-60 0 -95 33.5t-35 82.5q0 42 27.5 78.5t79.5 75.5q-48 39 -70.5 68.5
t-22.5 63.5q0 44 33.5 73t85.5 29t82.5 -28.5t30.5 -70.5q0 -36 -21 -61.5t-70 -62.5l0.5 -0.5l0.5 -0.5q51 -39 77 -77.5zM553.5 345.5q18.5 -24.5 65.5 -61.5q42 33 57.5 58t15.5 54q0 33 -21 55.5t-56 22.5q-36 0 -58 -22t-22 -56q0 -26 18.5 -50.5zM676.5 35.5
q23.5 25.5 23.5 70.5q0 37 -24 69t-72 71q-88 -70 -88 -140q0 -39 26.5 -67.5t70.5 -28.5q40 0 63.5 25.5z" />
    <glyph glyph-name="arrowleft" unicode="&#x2190;" horiz-adv-x="821" 
d="M260 247q-32 0 -72 7q-42 6 -67 6v-3q67 -35 105.5 -74t70.5 -90l-39 -37q-40 70 -88 118.5t-120 83.5v25q72 35 120 83t88 118l39 -36q-32 -51 -70 -90.5t-106 -74.5v-3q25 0 67 6q40 7 72 7h511v-46h-511z" />
    <glyph glyph-name="arrowup" unicode="&#x2191;" horiz-adv-x="530" 
d="M242 -48v512q0 32 7 72q6 42 6 67h-3q-35 -67 -74 -105.5t-90 -70.5l-37 39q70 40 118.5 88t83.5 120h25q35 -72 83 -120t118 -88l-36 -39q-51 32 -90.5 70t-74.5 106h-3q0 -25 6 -67q7 -40 7 -72v-512h-46z" />
    <glyph glyph-name="arrowright" unicode="&#x2192;" horiz-adv-x="821" 
d="M50 293h512q31 0 70 -7q44 -6 68 -6v3q-67 35 -106 75t-69 90l39 36q39 -69 87 -117.5t120 -83.5v-25q-72 -35 -120 -83.5t-87 -118.5l-39 37q30 50 69 89.5t106 74.5v3q-24 0 -68 -6q-38 -7 -70 -7h-512v46z" />
    <glyph glyph-name="arrowdown" unicode="&#x2193;" horiz-adv-x="530" 
d="M288 101q0 -32 -7 -72q-6 -42 -6 -67h3q35 68 74.5 106t90.5 70l36 -39q-70 -40 -118 -88t-83 -120h-25q-35 72 -83.5 120t-118.5 88l37 39q51 -32 90 -70.5t74 -105.5h3q0 25 -6 67q-7 40 -7 72v512h46v-512z" />
    <glyph glyph-name="arrowboth" unicode="&#x2194;" horiz-adv-x="1081" 
d="M911 366.5q48 -48.5 120 -83.5v-25q-72 -35 -120 -83.5t-87 -118.5l-39 37q30 50 69 89.5t106 74.5v3q-24 0 -68 -6q-38 -7 -70 -7h-562q-32 0 -72 7q-42 6 -67 6v-3q67 -35 105.5 -74t70.5 -90l-39 -37q-40 70 -88 118.5t-120 83.5v25q72 35 120 83t88 118l39 -36
q-32 -51 -70 -90.5t-106 -74.5v-3q25 0 67 6q40 7 72 7h562q32 0 70 -7q44 -6 68 -6v3q-67 35 -106 75t-69 90l39 36q39 -69 87 -117.5z" />
    <glyph glyph-name="arrowupdn" unicode="&#x2195;" horiz-adv-x="528" 
d="M351 -45.5q39 38.5 90 70.5l37 -39q-70 -40 -118.5 -88t-83.5 -120h-25q-35 72 -83 120t-118 88l36 39q51 -32 90.5 -70t74.5 -106h3q0 25 -6 67q-7 40 -7 72v562q0 32 7 70q6 44 6 68h-3q-35 -67 -75 -106t-90 -69l-36 39q69 39 117.5 87t83.5 120h25q35 -72 83.5 -120
t118.5 -87l-37 -39q-50 30 -89.5 69t-74.5 106h-3q0 -24 6 -68q7 -38 7 -70v-562q0 -32 -7 -72q-6 -42 -6 -67h3q35 67 74 105.5z" />
    <glyph glyph-name="uni2196" unicode="&#x2196;" horiz-adv-x="637" 
d="M190 366q-19 19 -45 55q-29 38 -43 52l-2 -2q22 -70 22 -132q0 -48 -15 -108l-53 1q22 77 22 143q0 70 -26 147l17 17q77 -26 147 -26q65 0 142 22l2 -53q-60 -15 -108 -15q-62 0 -132 22l-2 -2q14 -14 52 -43q36 -26 55 -45l362 -362l-33 -33z" />
    <glyph glyph-name="uni2197" unicode="&#x2197;" horiz-adv-x="637" 
d="M52 37l362 362q19 19 55 45q38 29 52 43l-2 2q-70 -22 -132 -22q-48 0 -108 15l1 53q77 -22 143 -22q70 0 147 26l17 -17q-26 -77 -26 -147q0 -66 22 -143l-53 -1q-15 60 -15 108q0 62 22 132l-2 2q-13 -13 -42 -51q-26 -36 -47 -56l-361 -362z" />
    <glyph glyph-name="uni2198" unicode="&#x2198;" horiz-adv-x="637" 
d="M446 174q21 -20 47 -56q29 -38 42 -51l2 2q-22 70 -22 132q0 48 15 108l53 -1q-22 -77 -22 -143q0 -70 26 -147l-17 -17q-77 26 -147 26q-66 0 -143 -22l-1 53q60 15 108 15q62 0 132 -22l2 2q-14 14 -52 43q-36 26 -55 45l-362 362l33 33z" />
    <glyph glyph-name="uni2199" unicode="&#x2199;" horiz-adv-x="637" 
d="M585 503l-362 -362q-19 -19 -55 -45q-38 -29 -52 -43l2 -2q70 22 132 22q48 0 108 -15l-2 -53q-77 22 -142 22q-70 0 -147 -26l-17 17q26 77 26 147q0 66 -22 143l53 1q15 -60 15 -108q0 -62 -22 -132l2 -2q14 14 43 52q26 36 45 55l362 362z" />
    <glyph glyph-name="partialdiff" unicode="&#x2202;" horiz-adv-x="629" 
d="M521.5 735q56.5 -85 56.5 -246q0 -59 -5 -105q-14 -144 -56 -243.5t-106 -150t-144 -50.5q-98 0 -157.5 64.5t-59.5 178.5q0 34 6 71q12 77 50.5 135.5t95.5 91t123 32.5q143 0 214 -127v1q5 55 5 91q0 151 -52.5 219.5t-136.5 68.5q-54 0 -100 -23.5t-86 -83.5h-21
q28 70 84.5 115.5t129.5 45.5q103 0 159.5 -85zM444.5 74q68.5 100 90.5 278q-63 127 -201 127q-51 0 -97 -28t-78.5 -80.5t-44.5 -124.5q-6 -37 -6 -70q0 -93 42 -147.5t118 -54.5q108 0 176.5 100z" />
    <glyph glyph-name="emptyset" unicode="&#x2205;" horiz-adv-x="628" 
d="M502 472q30 -34 46 -75.5t16 -88.5q0 -68 -33.5 -125.5t-91 -91t-125.5 -33.5q-47 0 -88.5 16t-75.5 46l-76 -76l-24 24l76 76q-30 34 -46 75.5t-16 88.5q0 68 33.5 125.5t91 91t125.5 33.5q47 0 88.5 -16t75.5 -46l76 76l24 -24zM111.5 233q13.5 -36 38.5 -65l304 304
q-29 25 -65 38.5t-75 13.5q-59 0 -108.5 -29t-78.5 -78.5t-29 -108.5q0 -39 13.5 -75zM516.5 383q-13.5 36 -38.5 65l-304 -304q29 -25 65 -38.5t75 -13.5q59 0 108.5 29t78.5 78.5t29 108.5q0 39 -13.5 75z" />
    <glyph glyph-name="product" unicode="&#x220f;" horiz-adv-x="787" 
d="M667 793q-21 -6 -27.5 -21t-6.5 -48v-788q0 -33 6.5 -48t27.5 -21t70 -6v-21h-267v21q49 0 70 6t27.5 21t6.5 48v850h-361v-850q0 -33 6.5 -48t28 -21t69.5 -6v-21h-267v21q49 0 70 6t27.5 21t6.5 48v788q0 33 -6.5 48t-27.5 21t-70 6v21h687v-21q-49 0 -70 -6z" />
    <glyph glyph-name="summation" unicode="&#x2211;" horiz-adv-x="688" 
d="M608 646l-21 -2q-7 66 -15.5 95t-24.5 38t-49 9h-367l294 -413l-310 -474h392q33 0 49.5 11t29 46.5t26.5 115.5l21 -4l-33 -185l-8 -43h-542v21l319 487v3l-319 448v21h540l2 -20z" />
    <glyph glyph-name="minus" unicode="&#x2212;" horiz-adv-x="415" 
d="M50 296h315v-52h-315v52z" />
    <glyph glyph-name="radical" unicode="&#x221a;" horiz-adv-x="602" 
d="M454 -34h-25l-243 534l-119 -57l-17 29l175 85l212 -472h3l122 781h33z" />
    <glyph glyph-name="infinity" unicode="&#x221e;" horiz-adv-x="813" 
d="M720 518.5q43 -43.5 43 -119.5q0 -53 -21.5 -91t-56.5 -57.5t-75 -19.5q-38 0 -68 14t-56 36.5t-70 68.5l-16 16q-66 -62 -114 -88.5t-103 -26.5q-58 0 -95.5 39t-37.5 106q0 63 41.5 104.5t105.5 41.5q49 0 88 -27t99 -87q50 49 83.5 76.5t69 42.5t76.5 15
q64 0 107 -43.5zM666.5 288q27.5 15 45 44t17.5 68q0 50 -31.5 83.5t-79.5 33.5q-30 0 -55.5 -11.5t-48 -30.5t-60.5 -57l-27 -27l-3 -3q44 -44 70.5 -66.5t54.5 -35.5t61 -13q29 0 56.5 15zM257.5 318q37.5 22 103.5 87q-55 52 -91.5 73.5t-74.5 21.5q-49 0 -80 -30.5
t-31 -74.5q0 -42 26.5 -70.5t67.5 -28.5q42 0 79.5 22z" />
    <glyph glyph-name="integral" unicode="&#x222b;" horiz-adv-x="420" 
d="M256.5 -127q-31.5 -53 -99.5 -53q-45 0 -76 31t-31 71q0 18 9 29t24 11q16 0 25.5 -10t10.5 -28q0 -34 7.5 -52t35.5 -18q70 0 70 160q0 73 -12.5 142t-37.5 171q-25 104 -37.5 173t-12.5 142q0 91 32 144.5t100 53.5q45 0 75.5 -31t30.5 -71q0 -18 -9 -29t-24 -11
q-16 0 -25.5 10t-10.5 28q0 34 -7.5 52t-35.5 18q-70 0 -70 -162q0 -72 12.5 -140t37.5 -171q25 -101 37.5 -171.5t12.5 -143.5q0 -92 -31.5 -145z" />
    <glyph glyph-name="approxequal" unicode="&#x2248;" horiz-adv-x="553" 
d="M503 414q-1 -57 -32.5 -88.5t-79.5 -31.5q-29 0 -53.5 8.5t-65.5 26.5q-37 17 -63 26t-55 9q-71 0 -83 -69h-21q1 57 32 88.5t80 31.5q29 0 53.5 -8.5t65.5 -26.5q37 -17 63 -26t55 -9q71 0 82 69h22zM503 244q-1 -57 -32.5 -88.5t-79.5 -31.5q-29 0 -53.5 8.5
t-65.5 26.5q-37 17 -63 26t-55 9q-71 0 -83 -69h-21q1 57 32 88.5t80 31.5q29 0 53.5 -8.5t65.5 -26.5q37 -17 63 -26t55 -9q71 0 82 69h22z" />
    <glyph glyph-name="notequal" unicode="&#x2260;" horiz-adv-x="415" 
d="M248 328l-47 -116h164v-51h-185l-53 -133h-33l53 133h-97v51h118l47 116h-165v51h185l54 134h33l-54 -134h97v-51h-117z" />
    <glyph glyph-name="lessequal" unicode="&#x2264;" horiz-adv-x="423" 
d="M50 281v73l323 108v-55l-278 -88v-3l278 -88v-54zM50 82v51h323v-51h-323z" />
    <glyph glyph-name="greaterequal" unicode="&#x2265;" horiz-adv-x="423" 
d="M50 228l278 88v3l-278 88v55l323 -108v-73l-323 -107v54zM50 133h323v-51h-323v51z" />
    <glyph glyph-name="uni2460" unicode="&#x2460;" 
d="M681.5 764q96.5 -56 152.5 -152.5t56 -212.5q0 -114 -56.5 -210t-152.5 -152.5t-210 -56.5q-115 0 -212 56.5t-153 152.5t-56 210q0 117 56 213t152.5 152t212.5 56q114 0 210.5 -56zM273.5 737.5q-89.5 -52.5 -141.5 -142t-52 -196.5t52 -196t141.5 -141t197.5 -52
q105 0 194.5 52t142 141t52.5 196q0 106 -52.5 196t-142 142.5t-194.5 52.5q-108 0 -197.5 -52.5zM494.5 178q7.5 -8 37.5 -8v-13h-129v13q30 0 37.5 8t7.5 36v355q0 21 -1 27t-8 6q-8 0 -37 -15l-8 11l86 46l7 -7v-423q0 -28 7.5 -36z" />
    <glyph glyph-name="uni2461" unicode="&#x2461;" 
d="M681.5 764q96.5 -56 152.5 -152.5t56 -212.5q0 -114 -56.5 -210t-152.5 -152.5t-210 -56.5q-115 0 -212 56.5t-153 152.5t-56 210q0 117 56 213t152.5 152t212.5 56q114 0 210.5 -56zM273.5 737.5q-89.5 -52.5 -141.5 -142t-52 -196.5t52 -196t141.5 -141t197.5 -52
q105 0 194.5 52t142 141t52.5 196q0 106 -52.5 196t-142 142.5t-194.5 52.5q-108 0 -197.5 -52.5zM587 212q13 10 25 43l14 -4l-20 -56l-10 -26h-278v12q119 109 179.5 189t60.5 157q0 44 -20.5 72t-66.5 28q-55 0 -85.5 -39.5t-32.5 -106.5h-14q0 83 38 131.5t108 48.5
q57 0 86.5 -34.5t29.5 -86.5q0 -143 -233 -336v-2h174q32 0 45 10z" />
    <glyph glyph-name="uni2462" unicode="&#x2462;" 
d="M681.5 764q96.5 -56 152.5 -152.5t56 -212.5q0 -114 -56.5 -210t-152.5 -152.5t-210 -56.5q-115 0 -212 56.5t-153 152.5t-56 210q0 117 56 213t152.5 152t212.5 56q114 0 210.5 -56zM273.5 737.5q-89.5 -52.5 -141.5 -142t-52 -196.5t52 -196t141.5 -141t197.5 -52
q105 0 194.5 52t142 141t52.5 196q0 106 -52.5 196t-142 142.5t-194.5 52.5q-108 0 -197.5 -52.5zM351.5 199.5q6.5 4.5 15.5 4.5t15.5 -4t15.5 -13q10 -9 22.5 -14t31.5 -5q42 0 72.5 29t30.5 85q0 66 -37 94.5t-94 30.5v13q50 16 78.5 46.5t28.5 75.5q0 34 -19.5 56.5
t-55.5 22.5q-73 0 -94 -76h-15q8 52 40.5 79.5t80.5 27.5q46 0 76 -29t30 -77q0 -78 -95 -122v-1q54 -8 86.5 -41.5t32.5 -89.5q0 -42 -21 -75t-57 -51t-79 -18q-37 0 -66.5 11t-29.5 28q0 8 6.5 12.5z" />
    <glyph glyph-name="uni2463" unicode="&#x2463;" 
d="M681.5 764q96.5 -56 152.5 -152.5t56 -212.5q0 -114 -56.5 -210t-152.5 -152.5t-210 -56.5q-115 0 -212 56.5t-153 152.5t-56 210q0 117 56 213t152.5 152t212.5 56q114 0 210.5 -56zM273.5 737.5q-89.5 -52.5 -141.5 -142t-52 -196.5t52 -196t141.5 -141t197.5 -52
q105 0 194.5 52t142 141t52.5 196q0 106 -52.5 196t-142 142.5t-194.5 52.5q-108 0 -197.5 -52.5zM510 640h34v-314h54v-29h-54v-80q0 -28 7.5 -36t37.5 -8v-13h-129v13q30 0 37.5 8t7.5 36v80h-197v29zM505 595l-169 -267v-2h169v269z" />
    <glyph glyph-name="uni2464" unicode="&#x2464;" 
d="M681.5 764q96.5 -56 152.5 -152.5t56 -212.5q0 -114 -56.5 -210t-152.5 -152.5t-210 -56.5q-115 0 -212 56.5t-153 152.5t-56 210q0 117 56 213t152.5 152t212.5 56q114 0 210.5 -56zM273.5 737.5q-89.5 -52.5 -141.5 -142t-52 -196.5t52 -196t141.5 -141t197.5 -52
q105 0 194.5 52t142 141t52.5 196q0 106 -52.5 196t-142 142.5t-194.5 52.5q-108 0 -197.5 -52.5zM369 209q8 0 13 -3.5t9 -8.5t6 -7q16 -16 50 -16q26 0 50.5 17.5t40.5 54t16 89.5q0 67 -24.5 98.5t-67.5 31.5q-40 0 -69 -24l-20 13l45 192h168l-9 -34h-143l-34 -145l3 -2
q32 27 76 27q56 0 88 -42.5t32 -103.5q0 -59 -22 -102.5t-59 -66.5t-82 -23q-36 0 -62 11t-26 27q0 17 21 17z" />
    <glyph glyph-name="uni2465" unicode="&#x2465;" 
d="M681.5 764q96.5 -56 152.5 -152.5t56 -212.5q0 -114 -56.5 -210t-152.5 -152.5t-210 -56.5q-115 0 -212 56.5t-153 152.5t-56 210q0 117 56 213t152.5 152t212.5 56q114 0 210.5 -56zM665.5 62q89.5 52 142 141t52.5 196q0 106 -52.5 196t-142 142.5t-194.5 52.5
q-108 0 -197.5 -52.5t-141.5 -142t-52 -196.5t52 -196t141.5 -141t197.5 -52q105 0 194.5 52zM570 440.5q30 -45.5 30 -109.5q0 -46 -15 -87.5t-46 -68.5t-76 -27q-65 0 -102.5 56.5t-37.5 146.5q0 71 27.5 134t84 108t139.5 59v-13q-86 -22 -133 -78.5t-64 -132.5h2
q16 25 43.5 41.5t62.5 16.5q55 0 85 -45.5zM531.5 209.5q23.5 41.5 23.5 112.5q0 61 -20.5 102t-66.5 41q-54 0 -95 -57q-5 -38 -5 -67q0 -77 25.5 -125t70.5 -48q44 0 67.5 41.5z" />
    <glyph glyph-name="uni2466" unicode="&#x2466;" 
d="M681.5 764q96.5 -56 152.5 -152.5t56 -212.5q0 -114 -56.5 -210t-152.5 -152.5t-210 -56.5q-115 0 -212 56.5t-153 152.5t-56 210q0 117 56 213t152.5 152t212.5 56q114 0 210.5 -56zM273.5 737.5q-89.5 -52.5 -141.5 -142t-52 -196.5t52 -196t141.5 -141t197.5 -52
q105 0 194.5 52t142 141t52.5 196q0 106 -52.5 196t-142 142.5t-194.5 52.5q-108 0 -197.5 -52.5zM558 592v2h-164q-22 0 -33.5 -4.5t-18 -17.5t-13.5 -42l-14 3l15 67l6 28h266l-159 -485l-29 6z" />
    <glyph glyph-name="uni2467" unicode="&#x2467;" 
d="M681.5 764q96.5 -56 152.5 -152.5t56 -212.5q0 -114 -56.5 -210t-152.5 -152.5t-210 -56.5q-115 0 -212 56.5t-153 152.5t-56 210q0 117 56 213t152.5 152t212.5 56q114 0 210.5 -56zM665.5 62q89.5 52 142 141t52.5 196q0 106 -52.5 196t-142 142.5t-194.5 52.5
q-108 0 -197.5 -52.5t-141.5 -142t-52 -196.5t52 -196t141.5 -141t197.5 -52q105 0 194.5 52zM573.5 350.5q26.5 -38.5 26.5 -81.5q0 -54 -36.5 -87.5t-93.5 -33.5q-59 0 -94 33.5t-35 82.5q0 43 27.5 79t78.5 75q-48 39 -70.5 68.5t-22.5 63.5q0 44 33.5 73t85.5 29
t82.5 -28.5t30.5 -70.5q0 -36 -21 -61.5t-70 -62.5l0.5 -0.5l0.5 -0.5q51 -39 77.5 -77.5zM413.5 503.5q18.5 -24.5 64.5 -61.5q42 34 57.5 58.5t15.5 53.5q0 33 -21 55.5t-56 22.5q-36 0 -57.5 -22t-21.5 -56q0 -26 18.5 -50.5zM535.5 193.5q23.5 25.5 23.5 70.5
q0 37 -24 69t-72 71q-88 -71 -88 -140q0 -39 26.5 -67.5t71.5 -28.5q39 0 62.5 25.5z" />
    <glyph glyph-name="uni2468" unicode="&#x2468;" 
d="M681 763.5q97 -56.5 153 -152.5t56 -210q0 -117 -56 -213t-152.5 -152t-212.5 -56q-114 0 -210.5 56t-152.5 152.5t-56 212.5q0 114 56.5 210t152.5 152.5t210 56.5q115 0 212 -56.5zM666.5 62.5q89.5 52.5 141.5 142t52 196.5t-52 196t-141.5 141t-197.5 52
q-105 0 -194.5 -52t-142 -141t-52.5 -196q0 -106 52.5 -196t142 -142.5t194.5 -52.5q108 0 197.5 52.5zM579.5 595.5q37.5 -56.5 37.5 -146.5q0 -71 -27.5 -134t-83.5 -108t-139 -59v13q85 22 132.5 78.5t63.5 132.5h-2q-16 -25 -43.5 -41t-62.5 -16q-55 0 -85 45t-30 109
q0 46 15 87.5t46 68.5t76 27q65 0 102.5 -56.5zM546.5 584q-25.5 48 -70.5 48q-44 0 -67.5 -41.5t-23.5 -112.5q0 -60 20.5 -101.5t66.5 -41.5q54 0 95 57q5 38 5 67q0 77 -25.5 125z" />
    <glyph glyph-name="uni2469" unicode="&#x2469;" 
d="M681.5 764q96.5 -56 152.5 -152.5t56 -212.5q0 -114 -56.5 -210t-152.5 -152.5t-210 -56.5q-115 0 -212 56.5t-153 152.5t-56 210q0 117 56 213t152.5 152t212.5 56q114 0 210.5 -56zM273.5 737.5q-89.5 -52.5 -141.5 -142t-52 -196.5t52 -196t141.5 -141t197.5 -52
q105 0 194.5 52t142 141t52.5 196q0 106 -52.5 196t-142 142.5t-194.5 52.5q-108 0 -197.5 -52.5zM467 219q-37 71 -37 181t37 181t107 71t107.5 -71t37.5 -181t-37.5 -181t-107.5 -71t-107 71zM354.5 178q7.5 -8 37.5 -8v-13h-130v13q30 0 37.5 8t7.5 36v355q0 21 -1 27
t-8 6q-8 0 -37 -15l-7 11l85 46l8 -7v-423q0 -28 7.5 -36zM649.5 231.5q24.5 63.5 24.5 168.5t-24.5 168.5t-75.5 63.5t-75.5 -63.5t-24.5 -168.5t24.5 -168.5t75.5 -63.5t75.5 63.5z" />
    <glyph glyph-name="uni246A" unicode="&#x246a;" 
d="M681.5 764q96.5 -56 152.5 -152.5t56 -212.5q0 -114 -56.5 -210t-152.5 -152.5t-210 -56.5q-115 0 -212 56.5t-153 152.5t-56 210q0 117 56 213t152.5 152t212.5 56q114 0 210.5 -56zM273.5 737.5q-89.5 -52.5 -141.5 -142t-52 -196.5t52 -196t141.5 -141t197.5 -52
q105 0 194.5 52t142 141t52.5 196q0 106 -52.5 196t-142 142.5t-194.5 52.5q-108 0 -197.5 -52.5zM385.5 178q7.5 -8 37.5 -8v-13h-130v13q30 0 37.5 8t7.5 36v355q0 21 -1 27t-8 6q-8 0 -37 -15l-7 11l85 46l8 -7v-423q0 -28 7.5 -36zM610.5 178q7.5 -8 37.5 -8v-13h-130
v13q30 0 37.5 8t7.5 36v355q0 21 -1 27t-8 6q-8 0 -37 -15l-7 11l85 46l8 -7v-423q0 -28 7.5 -36z" />
    <glyph glyph-name="uni246B" unicode="&#x246b;" 
d="M681.5 764q96.5 -56 152.5 -152.5t56 -212.5q0 -114 -56.5 -210t-152.5 -152.5t-210 -56.5q-115 0 -212 56.5t-153 152.5t-56 210q0 117 56 213t152.5 152t212.5 56q114 0 210.5 -56zM273.5 737.5q-89.5 -52.5 -141.5 -142t-52 -196.5t52 -196t141.5 -141t197.5 -52
q105 0 194.5 52t142 141t52.5 196q0 106 -52.5 196t-142 142.5t-194.5 52.5q-108 0 -197.5 -52.5zM683 201q13 10 24 42l14 -3l-20 -57l-9 -26h-279v13q120 110 180 189t60 156q0 44 -20.5 72t-66.5 28q-56 0 -86 -39.5t-31 -105.5h-15q0 82 38 130.5t109 48.5
q56 0 85.5 -34t29.5 -87q0 -82 -66.5 -167t-165.5 -168v-2h174q32 0 45 10zM336.5 178q7.5 -8 37.5 -8v-13h-129v13q30 0 37.5 8t7.5 36v355q0 19 -1.5 26t-7.5 7q-8 0 -37 -15l-8 11l86 46l7 -7v-423q0 -28 7.5 -36z" />
    <glyph glyph-name="uni246C" unicode="&#x246c;" 
d="M681.5 764q96.5 -56 152.5 -152.5t56 -212.5q0 -114 -56.5 -210t-152.5 -152.5t-210 -56.5q-115 0 -212 56.5t-153 152.5t-56 210q0 117 56 213t152.5 152t212.5 56q114 0 210.5 -56zM273.5 737.5q-89.5 -52.5 -141.5 -142t-52 -196.5t52 -196t141.5 -141t197.5 -52
q105 0 194.5 52t142 141t52.5 196q0 106 -52.5 196t-142 142.5t-194.5 52.5q-108 0 -197.5 -52.5zM447.5 199.5q6.5 4.5 15.5 4.5t15.5 -4t15.5 -13q10 -9 22.5 -14t31.5 -5q42 0 72.5 29t30.5 85q0 66 -37 94.5t-94 30.5v13q50 16 78.5 46.5t28.5 75.5q0 34 -19.5 56.5
t-55.5 22.5q-73 0 -94 -76h-15q8 52 40.5 79.5t80.5 27.5q46 0 76 -29t30 -77q0 -78 -95 -122v-1q54 -8 86.5 -41.5t32.5 -89.5q0 -42 -21 -75t-57 -51t-79 -18q-37 0 -66.5 11t-29.5 28q0 8 6.5 12.5zM357.5 178q7.5 -8 37.5 -8v-13h-130v13q30 0 38 8t8 36v355
q0 19 -1.5 26t-7.5 7q-8 0 -37 -15l-8 11l62 33l23 13l8 -7v-423q0 -28 7.5 -36z" />
    <glyph glyph-name="uni246D" unicode="&#x246d;" 
d="M681.5 764q96.5 -56 152.5 -152.5t56 -212.5q0 -114 -56.5 -210t-152.5 -152.5t-210 -56.5q-115 0 -212 56.5t-153 152.5t-56 210q0 117 56 213t152.5 152t212.5 56q114 0 210.5 -56zM273.5 737.5q-89.5 -52.5 -141.5 -142t-52 -196.5t52 -196t141.5 -141t197.5 -52
q105 0 194.5 52t142 141t52.5 196q0 106 -52.5 196t-142 142.5t-194.5 52.5q-108 0 -197.5 -52.5zM338.5 178q7.5 -8 37.5 -8v-13h-129v13q30 0 37.5 8t7.5 36v355q0 19 -1.5 26t-7.5 7q-8 0 -37 -15l-8 11l86 46l7 -7v-423q0 -28 7.5 -36zM606 637h35v-314h53v-29h-53v-80
q0 -28 7.5 -36t37.5 -8v-13h-130v13q30 0 37.5 8t7.5 36v80h-196v29zM601 592l-169 -267v-2h169v269z" />
    <glyph glyph-name="uni246E" unicode="&#x246e;" 
d="M681.5 764q96.5 -56 152.5 -152.5t56 -212.5q0 -114 -56.5 -210t-152.5 -152.5t-210 -56.5q-115 0 -212 56.5t-153 152.5t-56 210q0 117 56 213t152.5 152t212.5 56q114 0 210.5 -56zM273.5 737.5q-89.5 -52.5 -141.5 -142t-52 -196.5t52 -196t141.5 -141t197.5 -52
q105 0 194.5 52t142 141t52.5 196q0 106 -52.5 196t-142 142.5t-194.5 52.5q-108 0 -197.5 -52.5zM473 209q8 0 13 -3.5t9 -8.5t6 -7q16 -16 50 -16q26 0 50.5 17.5t40.5 54t16 89.5q0 67 -24.5 98.5t-67.5 31.5q-40 0 -69 -24l-20 13l45 192h168l-9 -34h-143l-34 -145l3 -2
q32 27 76 27q56 0 88 -42.5t32 -103.5q0 -59 -22 -102.5t-59 -66.5t-82 -23q-36 0 -62 11t-26 27q0 17 21 17zM359.5 178q7.5 -8 37.5 -8v-13h-129v13q30 0 37.5 8t7.5 36v355q0 19 -1.5 26t-7.5 7q-9 0 -37 -15l-8 11l86 46l7 -7v-423q0 -28 7.5 -36z" />
    <glyph glyph-name="uni246F" unicode="&#x246f;" 
d="M681.5 764q96.5 -56 152.5 -152.5t56 -212.5q0 -114 -56.5 -210t-152.5 -152.5t-210 -56.5q-115 0 -212 56.5t-153 152.5t-56 210q0 117 56 213t152.5 152t212.5 56q114 0 210.5 -56zM665.5 62q89.5 52 142 141t52.5 196q0 106 -52.5 196t-142 142.5t-194.5 52.5
q-108 0 -197.5 -52.5t-141.5 -142t-52 -196.5t52 -196t141.5 -141t197.5 -52q105 0 194.5 52zM677 440.5q30 -45.5 30 -109.5q0 -46 -15 -87.5t-46 -68.5t-76 -27q-65 0 -102.5 56.5t-37.5 146.5q0 71 27.5 134t84 108t139.5 59v-13q-86 -22 -133 -78.5t-64 -132.5h2
q16 25 43.5 41.5t62.5 16.5q55 0 85 -45.5zM341.5 178q7.5 -8 37.5 -8v-13h-130v13q30 0 37.5 8t7.5 36v355q0 21 -1 27t-8 6q-9 0 -37 -15l-7 11l85 46l8 -7v-423q0 -28 7.5 -36zM638.5 209.5q23.5 41.5 23.5 112.5q0 61 -20.5 102t-66.5 41q-54 0 -95 -57q-5 -38 -5 -67
q0 -77 25.5 -125t70.5 -48q44 0 67.5 41.5z" />
    <glyph glyph-name="uni2470" unicode="&#x2470;" 
d="M681.5 764q96.5 -56 152.5 -152.5t56 -212.5q0 -114 -56.5 -210t-152.5 -152.5t-210 -56.5q-115 0 -212 56.5t-153 152.5t-56 210q0 117 56 213t152.5 152t212.5 56q114 0 210.5 -56zM273.5 737.5q-89.5 -52.5 -141.5 -142t-52 -196.5t52 -196t141.5 -141t197.5 -52
q105 0 194.5 52t142 141t52.5 196q0 106 -52.5 196t-142 142.5t-194.5 52.5q-108 0 -197.5 -52.5zM343.5 178q7.5 -8 37.5 -8v-13h-130v13q30 0 38 8t8 36v355q0 19 -1.5 26t-7.5 7q-8 0 -37 -15l-8 11l62 33l23 13l8 -7v-423q0 -28 7.5 -36zM660 606v2h-164q-23 0 -34 -4.5
t-18 -17.5t-13 -42l-15 3l15 67l6 28h267l-160 -485l-29 6z" />
    <glyph glyph-name="uni2471" unicode="&#x2471;" 
d="M681.5 764q96.5 -56 152.5 -152.5t56 -212.5q0 -114 -56.5 -210t-152.5 -152.5t-210 -56.5q-115 0 -212 56.5t-153 152.5t-56 210q0 117 56 213t152.5 152t212.5 56q114 0 210.5 -56zM665.5 62q89.5 52 142 141t52.5 196q0 106 -52.5 196t-142 142.5t-194.5 52.5
q-108 0 -197.5 -52.5t-141.5 -142t-52 -196.5t52 -196t141.5 -141t197.5 -52q105 0 194.5 52zM670 350.5q26 -38.5 26 -81.5q0 -54 -36 -87.5t-93 -33.5q-60 0 -95 33.5t-35 82.5q0 42 27.5 78.5t79.5 75.5q-48 39 -70.5 68.5t-22.5 63.5q0 44 33.5 73t85.5 29t82.5 -28.5
t30.5 -70.5q0 -36 -21 -61.5t-70 -62.5l1 -1q51 -39 77 -77.5zM344.5 178q7.5 -8 37.5 -8v-13h-130v13q30 0 37.5 8t7.5 36v355q0 21 -1 27t-8 6q-8 0 -37 -15l-7 11l62 33l23 13l8 -7v-423q0 -28 7.5 -36zM509.5 503.5q18.5 -24.5 65.5 -61.5q42 33 57.5 58t15.5 54
q0 33 -21 55.5t-57 22.5q-35 0 -57 -22t-22 -56q0 -26 18.5 -50.5zM632.5 193.5q23.5 25.5 23.5 70.5q0 37 -24 70t-72 71q-88 -72 -88 -141q0 -39 26.5 -67.5t70.5 -28.5q40 0 63.5 25.5z" />
    <glyph glyph-name="uni2472" unicode="&#x2472;" 
d="M681.5 764q96.5 -56 152.5 -152.5t56 -212.5q0 -114 -56.5 -210t-152.5 -152.5t-210 -56.5q-115 0 -212 56.5t-153 152.5t-56 210q0 117 56 213t152.5 152t212.5 56q114 0 210.5 -56zM665.5 62q89.5 52 142 141t52.5 196q0 106 -52.5 196t-142 142.5t-194.5 52.5
q-108 0 -197.5 -52.5t-141.5 -142t-52 -196.5t52 -196t141.5 -141t197.5 -52q105 0 194.5 52zM678.5 595.5q37.5 -56.5 37.5 -146.5q0 -71 -27.5 -134t-83.5 -108t-139 -59v13q85 22 132.5 78.5t63.5 132.5h-1q-17 -25 -44.5 -41t-62.5 -16q-55 0 -85 45t-30 109
q0 46 15 87.5t46 68.5t76 27q65 0 102.5 -56.5zM350.5 178q7.5 -8 37.5 -8v-13h-130v13q30 0 37.5 8t7.5 36v355q0 21 -1 27t-8 6q-8 0 -37 -15l-7 11l85 46l8 -7v-423q0 -28 7.5 -36zM645.5 585q-25.5 47 -70.5 47q-44 0 -67.5 -41.5t-23.5 -112.5q0 -60 21 -101.5
t66 -41.5q54 0 95 57q5 30 5 70q0 76 -25.5 123z" />
    <glyph glyph-name="uni2473" unicode="&#x2473;" 
d="M681.5 764q96.5 -56 152.5 -152.5t56 -212.5q0 -114 -56.5 -210t-152.5 -152.5t-210 -56.5q-115 0 -212 56.5t-153 152.5t-56 210q0 117 56 213t152.5 152t212.5 56q114 0 210.5 -56zM273.5 737.5q-89.5 -52.5 -141.5 -142t-52 -196.5t52 -196t141.5 -141t197.5 -52
q105 0 194.5 52t142 141t52.5 196q0 106 -52.5 196t-142 142.5t-194.5 52.5q-108 0 -197.5 -52.5zM545 219q-37 71 -37 181t37 181t107 71t107.5 -71t37.5 -181t-37.5 -181t-107.5 -71t-107 71zM445 198q13 10 24 42l14 -3l-20 -57l-9 -26h-278v13q120 110 180 189t60 156
q0 44 -21 72t-67 28q-55 0 -85 -39.5t-32 -105.5h-14q0 82 38 130.5t108 48.5q57 0 86.5 -34t29.5 -87q0 -82 -66.5 -166.5t-166.5 -168.5v-2h174q32 0 45 10zM727.5 231.5q24.5 63.5 24.5 168.5t-24.5 168.5t-75.5 63.5t-75.5 -64t-24.5 -168t24.5 -168t75.5 -64t75.5 63.5
z" />
    <glyph glyph-name="uni24EA" unicode="&#x24ea;" 
d="M681.5 764q96.5 -56 152.5 -152.5t56 -212.5q0 -114 -56.5 -210t-152.5 -152.5t-210 -56.5q-115 0 -212 56.5t-153 152.5t-56 210q0 117 56 213t152.5 152t212.5 56q114 0 210.5 -56zM273.5 737.5q-89.5 -52.5 -141.5 -142t-52 -196.5t52 -196t141.5 -141t197.5 -52
q105 0 194.5 52t142 141t52.5 196q0 106 -52.5 196t-142 142.5t-194.5 52.5q-108 0 -197.5 -52.5zM358 219q-37 71 -37 181t37 181t107 71t107.5 -71t37.5 -181t-37.5 -181t-107.5 -71t-107 71zM540.5 231.5q24.5 63.5 24.5 168.5t-24.5 168.5t-75.5 63.5t-75.5 -64
t-24.5 -168t24.5 -168t75.5 -64t75.5 63.5z" />
    <glyph glyph-name="uni24EB" unicode="&#x24eb;" 
d="M258.5 764q-96.5 -56 -152.5 -152t-56 -213q0 -114 56 -210t153 -152.5t212 -56.5q114 0 210 56.5t152.5 152.5t56.5 210q0 116 -56 212.5t-152.5 152.5t-210.5 56q-116 0 -212.5 -56zM387.5 187q7.5 -8 37.5 -8v-13h-130v13q30 0 37.5 8t7.5 36v355q0 21 -1 27t-8 6
q-8 0 -37 -16l-7 11l61 34l24 13l8 -7v-423q0 -28 7.5 -36zM607.5 187q7.5 -8 37.5 -8v-13h-130v13q30 0 37.5 8t7.5 36v355q0 21 -1 27t-8 6q-8 0 -37 -16l-7 11l62 34l23 13l8 -7v-423q0 -28 7.5 -36z" />
    <glyph glyph-name="uni24EC" unicode="&#x24ec;" 
d="M258.5 764q-96.5 -56 -152.5 -152t-56 -213q0 -114 56 -210t153 -152.5t212 -56.5q114 0 210 56.5t152.5 152.5t56.5 210q0 116 -56 212.5t-152.5 152.5t-210.5 56q-116 0 -212.5 -56zM681 209q13 10 24 42l14 -4l-20 -56l-9 -26h-279v13q120 110 180 189t60 156
q0 44 -20.5 72t-66.5 28q-56 0 -86 -39.5t-31 -105.5h-15q0 82 38 130.5t109 48.5q56 0 85.5 -34t29.5 -87q0 -82 -66 -166.5t-166 -169.5v-1h174q32 0 45 10zM327.5 186q7.5 -8 37.5 -8v-13h-130v13q30 0 37.5 8t7.5 36v355q0 21 -1 27t-8 6q-9 0 -37 -15l-8 10l86 47l8 -7
v-423q0 -28 7.5 -36z" />
    <glyph glyph-name="uni24ED" unicode="&#x24ed;" 
d="M258.5 764q-96.5 -56 -152.5 -152t-56 -213q0 -114 56 -210t153 -152.5t212 -56.5q114 0 210 56.5t152.5 152.5t56.5 210q0 116 -56 212.5t-152.5 152.5t-210.5 56q-116 0 -212.5 -56zM447.5 199.5q6.5 4.5 15.5 4.5t15.5 -4t15.5 -13q10 -9 22.5 -14t31.5 -5
q42 0 72.5 29t30.5 85q0 66 -37 94.5t-94 30.5v13q50 16 78.5 46.5t28.5 75.5q0 34 -19.5 56.5t-55.5 22.5q-73 0 -94 -76h-15q8 52 40.5 79.5t80.5 27.5q46 0 76 -29t30 -77q0 -78 -95 -122v-1q54 -8 86.5 -41.5t32.5 -89.5q0 -42 -21 -75t-57 -51t-79 -18q-37 0 -66.5 11
t-29.5 28q0 8 6.5 12.5zM340.5 178q7.5 -8 37.5 -8v-13h-130v13q30 0 37.5 8t7.5 36v355q0 21 -1 27t-8 6q-8 0 -37 -15l-7 11l62 33l23 13l8 -7v-423q0 -28 7.5 -36z" />
    <glyph glyph-name="uni24EE" unicode="&#x24ee;" 
d="M258.5 764q-96.5 -56 -152.5 -152t-56 -213q0 -114 56 -210t153 -152.5t212 -56.5q114 0 210 56.5t152.5 152.5t56.5 210q0 116 -56 212.5t-152.5 152.5t-210.5 56q-116 0 -212.5 -56zM333.5 186q7.5 -8 37.5 -8v-13h-130v13q30 0 37.5 8t7.5 36v355q0 21 -1 27t-8 6
q-8 0 -37 -15l-7 10l62 34l23 13l8 -7v-423q0 -28 7.5 -36zM609 645h34v-314h54v-29h-54v-80q0 -28 7.5 -36t37.5 -8v-13h-130v13q30 0 37.5 8t7.5 36v80h-196v29zM603 600l-169 -267v-2h169v269z" />
    <glyph glyph-name="uni24EF" unicode="&#x24ef;" 
d="M258.5 764q-96.5 -56 -152.5 -152t-56 -213q0 -114 56 -210t153 -152.5t212 -56.5q114 0 210 56.5t152.5 152.5t56.5 210q0 116 -56 212.5t-152.5 152.5t-210.5 56q-116 0 -212.5 -56zM460 209q8 0 13 -3.5t9 -8.5t6 -7q16 -16 50 -16q26 0 50.5 17.5t40.5 54t16 89.5
q0 67 -24.5 98.5t-67.5 31.5q-40 0 -69 -24l-20 13l45 192h168l-9 -34h-143l-34 -145l3 -2q32 27 76 27q56 0 88 -42.5t32 -103.5q0 -59 -22 -102.5t-59 -66.5t-82 -23q-36 0 -62 11t-26 27q0 17 21 17zM349.5 178q7.5 -8 37.5 -8v-13h-130v13q30 0 37.5 8t7.5 36v355
q0 21 -1 27t-8 6q-9 0 -37 -15l-7 11l85 46l8 -7v-423q0 -28 7.5 -36z" />
    <glyph glyph-name="uni24F0" unicode="&#x24f0;" 
d="M258.5 764q-96.5 -56 -152.5 -152t-56 -213q0 -114 56 -210t153 -152.5t212 -56.5q114 0 210 56.5t152.5 152.5t56.5 210q0 116 -56 212.5t-152.5 152.5t-210.5 56q-116 0 -212.5 -56zM452 485q27 63 83 108t138 59v-13q-84 -22 -132 -78.5t-65 -131.5h2q16 25 44 41
t62 16q55 0 85 -45t30 -110q0 -46 -15 -87.5t-45.5 -68.5t-75.5 -27q-63 0 -100.5 57t-37.5 146q0 71 27 134zM336.5 178q7.5 -8 37.5 -8v-13h-130v13q30 0 37.5 8t7.5 36v355q0 21 -1 27t-8 6q-8 0 -37 -15l-7 11l62 33l23 13l8 -7v-423q0 -28 7.5 -36zM493.5 214.5
q25.5 -46.5 71.5 -46.5q44 0 67.5 41.5t23.5 112.5q0 61 -21 102t-67 41q-25 0 -50 -14.5t-46 -44.5q-4 -25 -4 -68q0 -77 25.5 -123.5z" />
    <glyph glyph-name="uni24F1" unicode="&#x24f1;" 
d="M258.5 764q-96.5 -56 -152.5 -152t-56 -213q0 -114 56 -210t153 -152.5t212 -56.5q114 0 210 56.5t152.5 152.5t56.5 210q0 116 -56 212.5t-152.5 152.5t-210.5 56q-116 0 -212.5 -56zM342.5 178q7.5 -8 37.5 -8v-13h-129v13q30 0 37.5 8t7.5 36v355q0 21 -1 27t-8 6
q-8 0 -37 -15l-8 11l86 46l7 -7v-423q0 -28 7.5 -36zM650 606v2h-164q-22 0 -33.5 -4.5t-18 -17.5t-13.5 -42l-14 3l15 67l6 28h266l-159 -485l-29 6z" />
    <glyph glyph-name="uni24F2" unicode="&#x24f2;" 
d="M258.5 764q-96.5 -56 -152.5 -152t-56 -213q0 -114 56 -210t153 -152.5t212 -56.5q114 0 210 56.5t152.5 152.5t56.5 210q0 116 -56 212.5t-152.5 152.5t-210.5 56q-116 0 -212.5 -56zM446.5 342q31.5 38 92.5 76q-53 37 -77.5 68.5t-24.5 66.5q0 43 36 71t93 28
q56 0 91.5 -28.5t35.5 -67.5q0 -36 -23 -64.5t-77 -63.5q63 -43 93 -82t30 -80q0 -52 -41.5 -85t-108.5 -33q-70 0 -110.5 33t-40.5 80q0 43 31.5 81zM322.5 178q7.5 -8 37.5 -8v-13h-130v13q30 0 37.5 8t7.5 36v355q0 21 -1 27t-8 6q-9 0 -37 -15l-8 11l86 46l8 -7v-423
q0 -28 7.5 -36zM499 504q20 -27 73 -62q49 33 65 58.5t16 56.5t-24 53t-63 22q-40 0 -63.5 -21.5t-23.5 -53.5q0 -26 20 -53zM487 195.5q31 -27.5 87 -27.5q48 0 74.5 25t26.5 69q0 36 -28 70.5t-87 72.5q-104 -69 -104 -144q0 -38 31 -65.5z" />
    <glyph glyph-name="uni24F3" unicode="&#x24f3;" 
d="M258.5 764q-96.5 -56 -152.5 -152t-56 -213q0 -114 56 -210t153 -152.5t212 -56.5q114 0 210 56.5t152.5 152.5t56.5 210q0 116 -56 212.5t-152.5 152.5t-210.5 56q-116 0 -212.5 -56zM694 316.5q-27 -63.5 -83 -109t-138 -59.5v13q85 22 132.5 78t65.5 132h-2
q-17 -24 -45 -40t-62 -16q-55 0 -84.5 45t-29.5 110q0 45 15 87t45.5 68.5t75.5 26.5q63 0 100 -55.5t37 -144.5q0 -72 -27 -135.5zM349.5 178q7.5 -8 37.5 -8v-13h-130v13q30 0 38 8t8 36v355q0 19 -1.5 26t-7.5 7q-8 0 -37 -15l-8 11l62 33l23 13l8 -7v-423q0 -28 7.5 -36
zM653.5 582q-25.5 50 -72.5 50q-44 0 -67.5 -42t-23.5 -112q0 -60 21 -101.5t67 -41.5q26 0 51 14.5t46 44.5q4 40 4 56q0 82 -25.5 132z" />
    <glyph glyph-name="uni24F4" unicode="&#x24f4;" 
d="M258.5 764q-96.5 -56 -152.5 -152t-56 -213q0 -114 56 -210t153 -152.5t212 -56.5q114 0 210 56.5t152.5 152.5t56.5 210q0 116 -56 212.5t-152.5 152.5t-210.5 56q-116 0 -212.5 -56zM549 219q-37 71 -37 181t37 181t107 71t107.5 -71t37.5 -181t-37.5 -181t-107.5 -71
t-107 71zM439 198q13 10 25 42l14 -3l-20 -57l-10 -26h-278v13q120 110 180 189t60 156q0 44 -20.5 72t-66.5 28q-55 0 -85.5 -39.5t-32.5 -105.5h-14q0 82 38 130.5t108 48.5q57 0 86.5 -34t29.5 -87q0 -142 -233 -335v-2h174q32 0 45 10zM731.5 231.5
q24.5 63.5 24.5 168.5t-24.5 168.5t-75.5 63.5t-75.5 -64t-24.5 -168t24.5 -168t75.5 -64t75.5 63.5z" />
    <glyph glyph-name="uni24FF" unicode="&#x24ff;" 
d="M258.5 764q-96.5 -56 -152.5 -152t-56 -213q0 -114 56 -210t153 -152.5t212 -56.5q114 0 210 56.5t152.5 152.5t56.5 210q0 116 -56 212.5t-152.5 152.5t-210.5 56q-116 0 -212.5 -56zM358 219q-37 71 -37 181t37 181t107 71t107.5 -71t37.5 -181t-37.5 -181t-107.5 -71
t-107 71zM540.5 231.5q24.5 63.5 24.5 168.5t-24.5 168.5t-75.5 63.5t-75.5 -64t-24.5 -168t24.5 -168t75.5 -64t75.5 63.5z" />
    <glyph glyph-name="lozenge" unicode="&#x25ca;" horiz-adv-x="539" 
d="M489 399l-191 -401h-59l-189 401l189 401h59zM432 399l-162 347h-3l-160 -347l160 -347h3z" />
    <glyph glyph-name="uni2776" unicode="&#x2776;" 
d="M258.5 764q-96.5 -56 -152.5 -152t-56 -213q0 -114 56 -210t153 -152.5t212 -56.5q114 0 210 56.5t152.5 152.5t56.5 210q0 116 -56 212.5t-152.5 152.5t-210.5 56q-116 0 -212.5 -56zM495 177.5q8 -8.5 37 -8.5v-12h-129v12q29 0 37 8.5t8 36.5v355q0 21 -1 27t-8 6
q-8 0 -37 -16l-8 11l62 34l24 12l7 -6v-423q0 -28 8 -36.5z" />
    <glyph glyph-name="uni2777" unicode="&#x2777;" 
d="M258.5 764q-96.5 -56 -152.5 -152t-56 -213q0 -114 56 -210t153 -152.5t212 -56.5q114 0 210 56.5t152.5 152.5t56.5 210q0 116 -56 212.5t-152.5 152.5t-210.5 56q-116 0 -212.5 -56zM587 208q13 10 25 42l14 -3l-20 -57l-10 -26h-278v13q120 110 180 189t60 156
q0 44 -20.5 72t-66.5 28q-55 0 -85.5 -39.5t-32.5 -105.5h-14q0 82 38 130.5t108 48.5q57 0 86.5 -34t29.5 -87q0 -142 -233 -335v-2h174q32 0 45 10z" />
    <glyph glyph-name="uni2778" unicode="&#x2778;" 
d="M258.5 764q-96.5 -56 -152.5 -152t-56 -213q0 -114 56 -210t153 -152.5t212 -56.5q114 0 210 56.5t152.5 152.5t56.5 210q0 116 -56 212.5t-152.5 152.5t-210.5 56q-116 0 -212.5 -56zM351.5 199.5q6.5 4.5 15.5 4.5t15.5 -4t15.5 -13q10 -9 22.5 -14t31.5 -5
q42 0 72.5 29t30.5 85q0 66 -37 94.5t-94 30.5v13q50 16 78.5 46.5t28.5 75.5q0 34 -19.5 56.5t-55.5 22.5q-73 0 -94 -76h-15q8 52 40.5 79.5t80.5 27.5q46 0 76 -29t30 -77q0 -78 -95 -122v-1q54 -8 86.5 -41.5t32.5 -89.5q0 -42 -21 -75t-57 -51t-79 -18q-37 0 -66.5 11
t-29.5 28q0 8 6.5 12.5z" />
    <glyph glyph-name="uni2779" unicode="&#x2779;" 
d="M258.5 764q-96.5 -56 -152.5 -152t-56 -213q0 -114 56 -210t153 -152.5t212 -56.5q114 0 210 56.5t152.5 152.5t56.5 210q0 116 -56 212.5t-152.5 152.5t-210.5 56q-116 0 -212.5 -56zM508 640h34v-314h54v-29h-54v-80q0 -28 7.5 -36t37.5 -8v-13h-129v13q30 0 37.5 8
t7.5 36v80h-197v29zM503 595l-170 -267v-2h170v269z" />
    <glyph glyph-name="uni277A" unicode="&#x277a;" 
d="M258.5 764q-96.5 -56 -152.5 -152t-56 -213q0 -114 56 -210t153 -152.5t212 -56.5q114 0 210 56.5t152.5 152.5t56.5 210q0 116 -56 212.5t-152.5 152.5t-210.5 56q-116 0 -212.5 -56zM365 209q8 0 12.5 -3t9 -8t6.5 -8q16 -16 50 -16q26 0 50.5 17.5t40.5 54t16 89.5
q0 67 -24.5 98.5t-67.5 31.5q-40 0 -68 -24l-20 13l45 192h168l-10 -34h-142l-34 -145l2 -2q33 27 77 27q55 0 87 -42.5t32 -103.5q0 -59 -21.5 -102.5t-59 -66.5t-82.5 -23q-35 0 -61.5 11t-26.5 27q0 17 21 17z" />
    <glyph glyph-name="uni277B" unicode="&#x277b;" 
d="M258.5 764q-96.5 -56 -152.5 -152t-56 -213q0 -114 56 -210t153 -152.5t212 -56.5q114 0 210 56.5t152.5 152.5t56.5 210q0 116 -56 212.5t-152.5 152.5t-210.5 56q-116 0 -212.5 -56zM350 485q27 63 83 108t138 59v-13q-84 -22 -132 -78t-65 -132h2q16 25 44 41t63 16
q55 0 84.5 -45t29.5 -110q0 -46 -15 -88t-45.5 -68.5t-75.5 -26.5q-63 0 -100.5 57t-37.5 146q0 71 27 134zM391.5 214.5q25.5 -46.5 71.5 -46.5q44 0 67.5 41.5t23.5 112.5q0 61 -21 102t-67 41q-25 0 -50 -14.5t-46 -44.5q-4 -25 -4 -68q0 -77 25.5 -123.5z" />
    <glyph glyph-name="uni277C" unicode="&#x277c;" 
d="M258.5 764q-96.5 -56 -152.5 -152t-56 -213q0 -114 56 -210t153 -152.5t212 -56.5q114 0 210 56.5t152.5 152.5t56.5 210q0 116 -56 212.5t-152.5 152.5t-210.5 56q-116 0 -212.5 -56zM557 587v2h-164q-22 0 -33.5 -4.5t-18 -17.5t-13.5 -42l-14 2l15 68l6 28h266
l-159 -486l-29 7z" />
    <glyph glyph-name="uni277D" unicode="&#x277d;" 
d="M258.5 764q-96.5 -56 -152.5 -152t-56 -213q0 -114 56 -210t153 -152.5t212 -56.5q114 0 210 56.5t152.5 152.5t56.5 210q0 116 -56 212.5t-152.5 152.5t-210.5 56q-116 0 -212.5 -56zM370 344.5q27 37.5 76 74.5q-47 39 -68.5 68t-21.5 63q0 44 32.5 73t84.5 29
q51 0 81 -29t30 -70q0 -36 -20 -61.5t-69 -63.5q53 -40 78.5 -78.5t25.5 -80.5q0 -54 -36 -87.5t-93 -33.5q-58 0 -92.5 33.5t-34.5 82.5q0 43 27 80.5zM412 503.5q18 -24.5 64 -60.5q43 34 58.5 58t15.5 53q0 33 -21 55.5t-56 22.5q-36 0 -57.5 -22t-21.5 -56
q0 -26 18 -50.5zM403 196.5q27 -28.5 71 -28.5q40 0 63.5 26t23.5 71q0 37 -23.5 69t-71.5 71q-90 -73 -90 -141q0 -39 27 -67.5z" />
    <glyph glyph-name="uni277E" unicode="&#x277e;" 
d="M681.5 36q96.5 56 152.5 152t56 213q0 114 -56 210t-153 152.5t-212 56.5q-114 0 -210 -56.5t-152.5 -152.5t-56.5 -210q0 -116 56 -212.5t152.5 -152.5t210.5 -56q116 0 212.5 56zM590 315q-27 -63 -83 -108t-138 -59v13q84 22 132 78.5t65 131.5h-2q-16 -24 -44 -40
t-62 -16q-55 0 -85 45t-30 110q0 45 15 87t46 68.5t75 26.5q63 0 100.5 -57t37.5 -146q0 -71 -27 -134zM548.5 585.5q-25.5 46.5 -71.5 46.5q-44 0 -67.5 -41.5t-23.5 -112.5q0 -60 21 -101.5t67 -41.5q25 0 50 14.5t46 44.5q4 25 4 68q0 77 -25.5 123.5z" />
    <glyph glyph-name="uni277F" unicode="&#x277f;" 
d="M258.5 764q-96.5 -56 -152.5 -152t-56 -213q0 -114 56 -210t153 -152.5t212 -56.5q114 0 210 56.5t152.5 152.5t56.5 210q0 116 -56 212.5t-152.5 152.5t-210.5 56q-116 0 -212.5 -56zM453 219q-37 71 -37 181t37 181t107 71q71 0 108 -70.5t37 -181.5t-37 -181.5
t-108 -70.5q-70 0 -107 71zM341 177.5q8 -8.5 37 -8.5v-12h-130v12q30 0 38 8.5t8 36.5v355q0 19 -1.5 26t-7.5 7q-9 0 -37 -16l-8 11l62 34l23 12l8 -6v-423q0 -28 8 -36.5zM635.5 231.5q24.5 63.5 24.5 168.5t-24.5 168.5t-75.5 63.5t-75 -63.5t-24 -168.5t24 -168.5
t75 -63.5t75.5 63.5z" />
    <glyph glyph-name="i.loclTRK" horiz-adv-x="235" 
d="M154.5 48q4.5 -15 17.5 -21t43 -6v-21h-186v21q30 0 43 6t17.5 21t4.5 48v331q0 38 -2 49.5t-13 11.5q-10 0 -36 -12l-9 19l104 48l12 -12v-435q0 -33 4.5 -48zM69.5 681.5q-13.5 13.5 -13.5 32.5t13.5 32.5t32.5 13.5t33 -13.5t14 -32.5t-13.5 -32.5t-33.5 -13.5
q-19 0 -32.5 13.5z" />
    <glyph glyph-name="C_O" horiz-adv-x="1099" 
d="M75.5 613.5q36.5 95.5 104.5 151t157 55.5q45 0 77 -12t64 -32q23 -15 33 -15t14 9t4 40h21l15 -275h-21q-13 127 -63.5 189t-135.5 62q-73 0 -127 -51t-83 -139t-29 -196t29 -195.5t82.5 -138t126.5 -50.5q94 0 156.5 83.5t79.5 223.5h21q-19 -158 -86.5 -250.5
t-182.5 -92.5q-89 0 -155.5 55.5t-102 151t-35.5 213.5t36.5 213.5zM771 371.5q-42 31.5 -65.5 86.5t-23.5 122t23.5 122t65.5 86.5t95 31.5q54 0 96 -31.5t65 -86.5t23 -122t-23 -122t-65 -86.5t-96 -31.5q-53 0 -95 31.5zM968.5 421.5q31.5 47.5 31.5 129.5q0 13 -2 41
q-8 89 -42.5 141.5t-95.5 52.5q-64 0 -95.5 -48t-31.5 -129q0 -12 2 -40q9 -90 43.5 -142.5t94.5 -52.5q64 0 95.5 47.5zM829.5 -6.5q-13.5 13.5 -13.5 32.5q0 20 13.5 33.5t32.5 13.5t32.5 -14t13.5 -33t-13.5 -32.5t-32.5 -13.5t-32.5 13.5z" />
    <glyph glyph-name="L_L" horiz-adv-x="912" 
d="M290 779q-49 0 -70 -6t-27.5 -21t-6.5 -48v-610q0 -37 10 -48.5t42 -11.5h182q33 0 50.5 12t32.5 49.5t35 121.5l21 -5l-47 -195l-4 -17h-488v21q49 0 70 6t27.5 21t6.5 48v608q0 33 -6.5 48t-27.5 21t-70 6v21h270v-21zM675 779q-47 0 -68 -6t-27.5 -21t-6.5 -48v-309
q0 -35 9 -46t38 -11l128 -1q33 0 50.5 12t31.5 48t32 117l20 -4l-42 -189l-3 -17h-427v21q48 0 69 6t27 21t6 48v304q0 33 -6 48t-27 21t-69 6v21h265v-21z" />
    <glyph glyph-name="L_T_D" horiz-adv-x="1351" 
d="M290 779q-49 0 -70 -6t-27.5 -21t-6.5 -48v-610q0 -37 10 -48.5t42 -11.5h182q33 0 50.5 12t32.5 49.5t35 121.5l21 -5l-47 -195l-4 -17h-488v21q49 0 70 6t27.5 21t6.5 48v608q0 33 -6.5 48t-27.5 21t-70 6v21h270v-21zM543.5 759q-15.5 -7 -23.5 -28.5t-14 -70.5l-21 3
l13 113l3 24h380l3 -24l13 -113l-21 -3q-6 49 -14 70.5t-23.5 28.5t-48.5 7h-76v-310q0 -33 4.5 -48t19.5 -21t49 -6v-21h-193v21q34 0 49 6t19.5 21t4.5 48v310h-75q-33 0 -48.5 -7zM936 381q34 0 49 6t19.5 21t4.5 48v248q0 33 -4.5 48t-19.5 21t-49 6v21h179
q92 0 144.5 -59.5t52.5 -160.5t-52.5 -160.5t-144.5 -59.5h-179v21zM1223 442.5q38 48.5 38 137.5q0 90 -37.5 138t-106.5 48q-39 0 -60 -10v-352q21 -10 60 -10q68 0 106 48.5zM869 -6.5q-14 13.5 -14 32.5q0 20 14 33.5t33 13.5t32.5 -14t13.5 -33t-13.5 -32.5
t-32.5 -13.5t-33 13.5z" />
    <glyph glyph-name="O_O" horiz-adv-x="1030" 
d="M851.5 764q67.5 -56 103.5 -152t36 -212t-36 -212t-103.5 -152t-156.5 -56q-104 0 -180 78q-75 -78 -180 -78q-89 0 -156.5 56t-103.5 152t-36 212t36 212t103.5 152t156.5 56q105 0 180 -78q76 78 180 78q89 0 156.5 -56zM828 57.5q50 44.5 76 122.5t26 176q0 32 -3 65
q-9 105 -43.5 188.5t-89 131t-121.5 47.5q-82 0 -139 -67q46 -58 71.5 -141.5t25.5 -179.5q0 -88 -21 -165t-60 -134q32 -42 72.5 -65t86.5 -23q69 0 119 44.5zM496 80q-47 58 -72 141t-25 179q0 88 21 165t60 134q-70 89 -159 89l-16 -1q-64 -6 -110.5 -52t-71 -121.5
t-24.5 -169.5q0 -32 3 -65q10 -105 44 -188t88.5 -130.5t121.5 -47.5q81 0 140 67zM452 444q0 -32 3 -65q14 -149 75 -249q47 91 47 226q0 32 -3 65q-7 73 -26 137t-48 112q-48 -93 -48 -226z" />
    <glyph glyph-name="S_T" horiz-adv-x="958" 
d="M60 284h21q0 -81 27.5 -142.5t72 -94.5t95.5 -33q66 0 104.5 40t38.5 107q0 41 -22.5 79t-56 71t-94.5 84l-28 24q-65 57 -95.5 88.5t-47 66.5t-16.5 81q0 76 50.5 120.5t130.5 44.5q50 0 82 -16.5t61 -42.5q8 -7 15 -12t11 -5q7 0 10 10.5t3 46.5h22v-232h-22
q0 62 -23.5 111.5t-64 77.5t-91.5 28q-64 0 -96 -34t-32 -82q0 -35 17.5 -66.5t43 -57t68.5 -62.5l34 -29l29 -26q69 -60 101 -93.5t49.5 -73t17.5 -94.5q0 -58 -27 -100.5t-70.5 -65t-92.5 -22.5q-52 0 -85 16t-65 42q-22 20 -33 20q-12 0 -16.5 -13t-4.5 -46h-21v285z
M576.5 759q-15.5 -7 -24 -29t-14.5 -70l-21 3l13 113l3 24h380l3 -24l13 -113l-21 -3q-6 48 -14.5 70t-24 29t-48.5 7h-74v-310q0 -33 4.5 -48t19.5 -21t49 -6v-21h-194v21q34 0 49 6t19.5 21t4.5 48v310h-74q-33 0 -48.5 -7zM690.5 -6.5q-13.5 13.5 -13.5 32.5t13.5 33
t32.5 14t32.5 -13.5t13.5 -33.5q0 -19 -13.5 -32.5t-32.5 -13.5t-32.5 13.5z" />
    <glyph glyph-name="s_t" horiz-adv-x="672" 
d="M652 220q0 -83 -8.5 -134.5t-31.5 -78.5t-64 -27q-53 0 -79.5 42t-26.5 138v329h-83v34q43 1 67 14.5t35 44t13 84.5q1 56 -25.5 87.5t-73.5 31.5q-53 0 -80.5 -36.5t-27.5 -104.5q0 -65 16.5 -117.5t46.5 -113.5l13 -29l-20 -10q-27 48 -44.5 74.5t-42.5 45t-57 18.5
q-33 0 -54.5 -20.5t-21.5 -48.5q0 -31 20.5 -56.5t63.5 -62.5l21 -18l17 -15q49 -43 72 -67t36 -50.5t13 -61.5q0 -60 -40 -96t-99 -36q-32 0 -53 8t-44 21q-16 11 -23 11q-9 0 -12 -7t-3 -23h-21v196h21q2 -79 39 -127.5t93 -48.5q45 0 67.5 25t22.5 66q0 37 -24 66t-79 75
l-24 21q-47 40 -69 61.5t-35 46t-13 55.5q0 51 34.5 84t89.5 33q63 0 102 -56l3 1q-45 71 -45 170q0 73 37.5 121.5t102.5 48.5q57 0 90 -40.5t33 -121.5v-143h121v-34h-121v-292q0 -62 4 -96.5t17.5 -54.5t42.5 -20q37 0 53 43t17 151h21z" />
    <glyph glyph-name="zero.dnom" horiz-adv-x="307" 
d="M41 61q-37 71 -37 181t37 181t107 71q71 0 108 -70.5t37 -181.5t-37 -181.5t-108 -70.5q-70 0 -107 71zM223.5 73.5q24.5 63.5 24.5 168.5t-24.5 168.5t-75.5 63.5t-75 -63.5t-24 -168.5t24 -168.5t75 -63.5t75.5 63.5z" />
    <glyph glyph-name="one.dnom" horiz-adv-x="153" 
d="M101.5 21q7.5 -8 37.5 -8v-13h-130v13q30 0 37.5 8t7.5 36v355q0 21 -1 27t-8 6q-8 0 -37 -15l-7 11l85 46l8 -7v-423q0 -28 7.5 -36z" />
    <glyph glyph-name="two.dnom" horiz-adv-x="325" 
d="M252 44q13 10 24 42l14 -3l-20 -57l-9 -26h-279v13q120 109 180.5 188.5t60.5 156.5q0 44 -21 72t-67 28q-56 0 -86 -39.5t-31 -105.5h-15q0 82 38 130.5t109 48.5q57 0 86.5 -34t29.5 -87q0 -82 -66.5 -166.5t-166.5 -168.5v-2h174q32 0 45 10z" />
    <glyph glyph-name="three.dnom" horiz-adv-x="271" 
d="M2.5 41.5q6.5 4.5 15.5 4.5t15.5 -4t15.5 -13q10 -9 22.5 -14t31.5 -5q42 0 72.5 29t30.5 85q0 66 -37 94.5t-94 30.5v13q50 16 78.5 46.5t28.5 75.5q0 34 -19.5 56.5t-55.5 22.5q-73 0 -94 -76h-15q8 52 40.5 79.5t80.5 27.5q45 0 75 -29t30 -77q0 -79 -94 -122v-1
q54 -8 86.5 -41.5t32.5 -89.5q0 -42 -21 -75t-57 -51t-79 -18q-37 0 -66.5 11t-29.5 28q0 8 6.5 12.5z" />
    <glyph glyph-name="four.dnom" horiz-adv-x="308" 
d="M212 480h34v-314h54v-29h-54v-80q0 -28 7.5 -36t37.5 -8v-13h-129v13q30 0 37.5 8t7.5 36v80h-197v29zM207 435l-169 -267v-2h169v269z" />
    <glyph glyph-name="five.dnom" horiz-adv-x="269" 
d="M29 45q8 0 12.5 -3t9 -8t6.5 -8q16 -16 50 -16q26 0 50.5 17.5t40.5 54t16 89.5q0 67 -24.5 98.5t-67.5 31.5q-39 0 -68 -24l-20 13l45 192h168l-10 -34h-142l-34 -145l2 -2q33 27 77 27q55 0 87 -42.5t32 -103.5q0 -59 -21.5 -102.5t-59 -66.5t-82.5 -23q-35 0 -61.5 11
t-26.5 27q0 17 21 17z" />
    <glyph glyph-name="six.dnom" horiz-adv-x="293" 
d="M256.5 283q30.5 -45 30.5 -110q0 -45 -15.5 -87t-46 -69t-75.5 -27q-65 0 -102.5 56.5t-37.5 146.5q0 71 27.5 134t83.5 108t139 59v-13q-86 -22 -133 -78.5t-63 -132.5h1q16 25 44 41.5t62 16.5q55 0 85.5 -45zM218.5 51.5q23.5 41.5 23.5 112.5q0 60 -21 101.5
t-66 41.5q-54 0 -95 -57q-5 -30 -5 -70q0 -76 25.5 -123t70.5 -47q44 0 67.5 41.5z" />
    <glyph glyph-name="seven.dnom" horiz-adv-x="305" 
d="M240 445v2h-164q-23 0 -34 -4.5t-18 -17.5t-13 -42l-14 3l14 67l6 28h267l-159 -485l-29 6z" />
    <glyph glyph-name="eight.dnom" horiz-adv-x="276" 
d="M241 192.5q26 -38.5 26 -81.5q0 -54 -36 -87.5t-93 -33.5q-60 0 -95 33.5t-35 82.5q0 42 27.5 78.5t79.5 75.5q-48 39 -70.5 68.5t-22.5 63.5q0 44 33.5 73t85.5 29t82.5 -28.5t30.5 -70.5q0 -36 -21 -61.5t-70 -62.5l0.5 -0.5l0.5 -0.5q51 -39 77 -77.5zM80.5 345.5
q18.5 -24.5 65.5 -61.5q42 33 57.5 58t15.5 54q0 33 -21 55.5t-56 22.5q-36 0 -58 -22t-22 -56q0 -26 18.5 -50.5zM203.5 35.5q23.5 25.5 23.5 70.5q0 37 -24 69t-72 71q-88 -70 -88 -140q0 -39 26.5 -67.5t70.5 -28.5q40 0 63.5 25.5z" />
    <glyph glyph-name="nine.dnom" horiz-adv-x="293" 
d="M245.5 438.5q37.5 -55.5 37.5 -144.5q0 -72 -27.5 -135.5t-83.5 -109t-139 -59.5v13q86 22 133 78.5t64 132.5h-2q-16 -25 -43.5 -41t-62.5 -16q-55 0 -85 44.5t-30 109.5q0 46 15 87.5t46 68.5t76 27q64 0 101.5 -55.5zM215 423.5q-26 50.5 -73 50.5q-44 0 -67 -42
t-23 -112q0 -60 20.5 -101.5t66.5 -41.5q54 0 95 58q3 19 5 57q2 81 -24 131.5z" />
    <glyph glyph-name="zero.numr" horiz-adv-x="307" 
d="M41 387q-37 71 -37 181t37 181t107 71q71 0 108 -70.5t37 -181.5t-37 -181.5t-108 -70.5q-70 0 -107 71zM223.5 399.5q24.5 63.5 24.5 168.5t-24.5 168.5t-75.5 63.5t-75 -63.5t-24 -168.5t24 -168.5t75 -63.5t75.5 63.5z" />
    <glyph glyph-name="one.numr" horiz-adv-x="153" 
d="M101.5 349q7.5 -8 37.5 -8v-13h-130v13q30 0 37.5 8t7.5 36v355q0 21 -1 27t-8 6q-8 0 -37 -15l-7 11l85 46l8 -7v-423q0 -28 7.5 -36z" />
    <glyph glyph-name="two.numr" horiz-adv-x="325" 
d="M252 372q13 10 24 42l14 -3l-20 -57l-9 -26h-279v13q120 109 180.5 188.5t60.5 156.5q0 44 -21 72t-67 28q-56 0 -86 -39.5t-31 -105.5h-15q0 82 38 130.5t109 48.5q57 0 86.5 -34t29.5 -87q0 -82 -66.5 -166.5t-166.5 -168.5v-2h174q32 0 45 10z" />
    <glyph glyph-name="three.numr" horiz-adv-x="271" 
d="M2.5 359.5q6.5 4.5 15.5 4.5t15.5 -4t15.5 -13q10 -9 22.5 -14t31.5 -5q42 0 72.5 29t30.5 85q0 66 -37 94.5t-94 30.5v13q50 16 78.5 46.5t28.5 75.5q0 34 -19.5 56.5t-55.5 22.5q-73 0 -94 -76h-15q8 52 40.5 79.5t80.5 27.5q45 0 75 -29t30 -77q0 -79 -94 -122v-1
q54 -8 86.5 -41.5t32.5 -89.5q0 -42 -21 -75t-57 -51t-79 -18q-37 0 -66.5 11t-29.5 28q0 8 6.5 12.5z" />
    <glyph glyph-name="four.numr" horiz-adv-x="308" 
d="M212 808h34v-314h54v-29h-54v-80q0 -28 7.5 -36t37.5 -8v-13h-129v13q30 0 37.5 8t7.5 36v80h-197v29zM207 763l-169 -267v-2h169v269z" />
    <glyph glyph-name="five.numr" horiz-adv-x="269" 
d="M29 363q8 0 12.5 -3t9 -8t6.5 -8q16 -16 50 -16q26 0 50.5 17.5t40.5 54t16 89.5q0 67 -24.5 98.5t-67.5 31.5q-39 0 -68 -24l-20 13l45 192h168l-10 -34h-142l-34 -145l2 -2q33 27 77 27q55 0 87 -42.5t32 -103.5q0 -59 -21.5 -102.5t-59 -66.5t-82.5 -23
q-35 0 -61.5 11t-26.5 27q0 17 21 17z" />
    <glyph glyph-name="six.numr" horiz-adv-x="293" 
d="M256.5 601q30.5 -45 30.5 -110q0 -45 -15.5 -87t-46 -69t-75.5 -27q-65 0 -102.5 56.5t-37.5 146.5q0 71 27.5 134t83.5 108t139 59v-13q-86 -22 -133 -78.5t-63 -132.5h1q16 25 44 41.5t62 16.5q55 0 85.5 -45zM218.5 369.5q23.5 41.5 23.5 112.5q0 60 -21 101.5
t-66 41.5q-54 0 -95 -57q-5 -30 -5 -70q0 -76 25.5 -123t70.5 -47q44 0 67.5 41.5z" />
    <glyph glyph-name="seven.numr" horiz-adv-x="305" 
d="M240 764v2h-164q-23 0 -34 -4.5t-18 -17.5t-13 -42l-14 3l14 67l6 28h267l-159 -485l-29 6z" />
    <glyph glyph-name="eight.numr" horiz-adv-x="276" 
d="M241 510.5q26 -38.5 26 -81.5q0 -54 -36 -87.5t-93 -33.5q-60 0 -95 33.5t-35 82.5q0 42 27.5 78.5t79.5 75.5q-48 39 -70.5 68.5t-22.5 63.5q0 44 33.5 73t85.5 29t82.5 -28.5t30.5 -70.5q0 -36 -21 -61.5t-70 -62.5l0.5 -0.5l0.5 -0.5q51 -39 77 -77.5zM80.5 663.5
q18.5 -24.5 65.5 -61.5q42 33 57.5 58t15.5 54q0 33 -21 55.5t-56 22.5q-36 0 -58 -22t-22 -56q0 -26 18.5 -50.5zM203.5 353.5q23.5 25.5 23.5 70.5q0 37 -24 69t-72 71q-88 -70 -88 -140q0 -39 26.5 -67.5t70.5 -28.5q40 0 63.5 25.5z" />
    <glyph glyph-name="nine.numr" horiz-adv-x="293" 
d="M245.5 756.5q37.5 -55.5 37.5 -144.5q0 -72 -27.5 -135.5t-83.5 -109t-139 -59.5v13q86 22 133 78.5t64 132.5h-2q-16 -25 -43.5 -41t-62.5 -16q-55 0 -85 44.5t-30 109.5q0 46 15 87.5t46 68.5t76 27q64 0 101.5 -55.5zM215 741.5q-26 50.5 -73 50.5q-44 0 -67 -42
t-23 -112q0 -60 20.5 -101.5t66.5 -41.5q54 0 95 58q3 19 5 57q2 81 -24 131.5z" />
    <glyph glyph-name="colon.case" horiz-adv-x="193" 
d="M63.5 133.5q-13.5 13.5 -13.5 32.5t13.5 33t32.5 14q20 0 33.5 -13.5t13.5 -33.5q0 -19 -14 -32.5t-33 -13.5t-32.5 13.5zM63.5 603.5q-13.5 13.5 -13.5 32.5t13.5 33t32.5 14q20 0 33.5 -13.5t13.5 -33.5q0 -19 -14 -32.5t-33 -13.5t-32.5 13.5z" />
    <glyph glyph-name="periodcentered.case" horiz-adv-x="193" 
d="M63.5 368.5q-13.5 13.5 -13.5 32.5t13.5 33t32.5 14q20 0 33.5 -13.5t13.5 -33.5q0 -19 -14 -32.5t-33 -13.5t-32.5 13.5z" />
    <glyph glyph-name="bullet.case" horiz-adv-x="331" 
d="M84 312q-34 34 -34 82q0 47 34 81t82 34q47 0 81 -34t34 -81q0 -48 -34 -82t-81 -34q-48 0 -82 34z" />
    <glyph glyph-name="parenleft.case" horiz-adv-x="343" 
d="M313 -160q-125 96 -194 241t-69 319q0 180 64 327.5t182 232.5v-21q-89 -87 -135 -228t-46 -311q0 -158 51.5 -301t146.5 -238v-21z" />
    <glyph glyph-name="parenright.case" horiz-adv-x="343" 
d="M176.5 99q51.5 143 51.5 301q0 170 -46 311t-135 228v21q119 -84 182.5 -231.5t63.5 -328.5q0 -174 -68.5 -319t-194.5 -241v21q95 95 146.5 238z" />
    <glyph glyph-name="braceleft.case" horiz-adv-x="364" 
d="M234 881.5q-30 -42.5 -30 -94.5q0 -29 5 -54t15 -60q10 -34 15 -60t5 -56q0 -51 -22 -86t-54 -51.5t-65 -17.5v-3q32 -1 64.5 -18t54.5 -52t22 -86q0 -30 -5 -56t-15 -60q-10 -35 -15 -60t-5 -54q0 -52 30 -94.5t100 -57.5v-21q-100 13 -141 67.5t-41 117.5q0 34 4.5 63
t13.5 67q1 7 8 41t7 67q0 62 -39 94t-96 32v22q57 0 96 32t39 95q0 26 -3.5 49.5t-11.5 57.5q-9 38 -13.5 67t-4.5 63q0 63 41 117.5t141 67.5v-21q-70 -15 -100 -57.5z" />
    <glyph glyph-name="braceright.case" horiz-adv-x="364" 
d="M218 443q39 -32 96 -32v-22q-57 0 -96 -32t-39 -94q0 -33 7 -67t8 -41q9 -38 13.5 -67t4.5 -63q0 -63 -41 -117.5t-141 -67.5v21q70 15 100 57.5t30 95.5q0 29 -5 54t-15 58q-10 36 -15 61.5t-5 55.5q0 51 22 86t54.5 52t64.5 18v3q-33 1 -65 17.5t-54 51.5t-22 86
q0 30 5 56t15 60q10 35 15 60t5 54q0 52 -30 94.5t-100 57.5v21q100 -13 141 -67.5t41 -117.5q0 -33 -4.5 -62.5t-13.5 -67.5q-8 -34 -11.5 -57.5t-3.5 -49.5q0 -63 39 -95z" />
    <glyph glyph-name="bracketleft.case" horiz-adv-x="247" 
d="M115 926v-1052h102v-34h-167v1120h167v-34h-102z" />
    <glyph glyph-name="bracketright.case" horiz-adv-x="247" 
d="M197 -160h-167v34h102v1052h-102v34h167v-1120z" />
    <glyph glyph-name="hyphen.case" horiz-adv-x="400" 
d="M50 426h315v-52h-315v52z" />
    <glyph glyph-name="endash.case" horiz-adv-x="600" 
d="M0 426h600v-52h-600v52z" />
    <glyph glyph-name="emdash.case" horiz-adv-x="1200" 
d="M0 426h1200v-52h-1200v52z" />
    <glyph glyph-name="guillemotleft.case" horiz-adv-x="415" 
d="M225 158h-21l-151 244l151 241h21l-116 -241zM368 158h-21l-151 244l151 241h21l-116 -241z" />
    <glyph glyph-name="guillemotright.case" horiz-adv-x="415" 
d="M48 643h21l151 -241l-151 -244h-21l116 244zM190 643h21l152 -241l-152 -244h-21l117 244z" />
    <glyph glyph-name="guilsinglleft.case" horiz-adv-x="273" 
d="M225 158h-21l-151 244l151 241h21l-116 -241z" />
    <glyph glyph-name="guilsinglright.case" horiz-adv-x="273" 
d="M48 643h21l151 -241l-151 -244h-21l116 244z" />
    </font>
</defs>
</svg>
