<?xml version="1.0" standalone="no"?>
<!DOCTYPE svg PUBLIC "-//W3C//DTD SVG 1.1//EN" "http://www.w3.org/Graphics/SVG/1.1/DTD/svg11.dtd" >
<svg xmlns="http://www.w3.org/2000/svg" xmlns:xlink="http://www.w3.org/1999/xlink" version="1.1">
<metadata>
Created by FontForge 20190801 at Wed Jul  3 00:06:14 2019
 By www-data
Copyright (c) 2019 by Mathieu Desjardins. All rights reserved.
</metadata>
<defs>
<font id="PPEditorialNewRegular" horiz-adv-x="940" >
  <font-face 
    font-family="PPEditorialNewRegular"
    font-weight="400"
    font-stretch="normal"
    units-per-em="1000"
    panose-1="0 0 5 0 0 0 0 0 0 0"
    ascent="800"
    descent="-200"
    x-height="528"
    cap-height="800"
    bbox="-365 -300 1410 1096"
    underline-thickness="35"
    underline-position="-87"
    unicode-range="U+0020-277F"
  />
<missing-glyph horiz-adv-x="560" 
d="M459 820v-1120h-355v1120h355zM373 745h-185v-37h73v-41h-74v-37h186v37h-74v41h74v37zM299 600h-112v-116h186v38h-74v78zM261 562v-40h-37v40h37zM373 454h-186v-37h74v-42h-74v-37h112v79h74v37zM373 387h-37v-74h-149v-38h186v112zM373 250h-112v-63h38v26h37v-53
h-112v90h-37v-127h186v127zM373 56h-186v-126h186v126zM336 19v-52h-112v52h112zM373 -96h-186v-37h78l-78 -53v-37h186v37h-114l78 53h36v37z" />
    <glyph glyph-name="f_f" unicode="ff" horiz-adv-x="610" 
d="M564 820q56 0 99 -32t43 -74q0 -26 -15.5 -40.5t-37.5 -14.5q-50 0 -56 53q-2 67 -49 67q-43 0 -58 -38t-15 -116v-97h96v-42h-96v-383q0 -49 18.5 -64t81.5 -15v-24h-265v24q45 0 58 15t13 64v383h-184v-383q0 -49 18.5 -64t81.5 -15v-24h-264v24q44 0 57 15t13 64v383
h-70v42h70v27q0 122 44 183.5t126 61.5q53 0 88 -24t43 -60q44 104 160 104zM381 528v53q0 43 6 77q-10 -7 -25 -7q-43 0 -46 45q-1 20 -3 30.5t-13 21.5t-30 11q-42 0 -57.5 -40.5t-15.5 -116.5v-74h184z" />
    <glyph glyph-name="f_f_i" unicode="ffi" horiz-adv-x="867" 
d="M777 103q0 -49 13 -64t57 -15v-24h-234v24q44 0 57 15t13 64v309q0 19 -1 28.5t-6 22t-17 18t-32 5.5h-152v-383q0 -49 18.5 -64t82.5 -15v-24h-265v24q45 0 58 15t13 64v383h-185v-383q0 -49 18.5 -64t82.5 -15v-24h-265v24q44 0 57 15t13 64v383h-70v42h70v27
q0 122 44.5 183.5t125.5 61.5q53 0 88.5 -24t43.5 -60q44 104 160 104q56 0 99 -32t43 -74q0 -26 -15.5 -40.5t-38.5 -14.5q-49 0 -55 53q-1 19 -3.5 30.5t-14 24t-31.5 12.5q-43 0 -58.5 -38t-15.5 -116v-97h173q58 0 115 20l14 -14v-431zM382 528v53q0 43 6 77
q-10 -7 -25 -7q-44 0 -47 45q-1 16 -2 23t-5.5 18.5t-14 16.5t-24.5 5q-42 0 -57.5 -40.5t-15.5 -116.5v-74h185z" />
    <glyph glyph-name="f_i" unicode="fi" horiz-adv-x="589" 
d="M498 103q0 -49 13 -64t58 -15v-24h-235v24q45 0 58 15t13 64v309q0 19 -1 28.5t-6 22t-17 18t-32 5.5h-152v-383q0 -49 18.5 -64t81.5 -15v-24h-264v24q44 0 57 15t13 64v383h-70v42h70v53q0 120 49 179.5t134 59.5q56 0 99 -32t43 -74q0 -26 -15.5 -40.5t-37.5 -14.5
q-50 0 -56 53q-2 67 -49 67q-43 0 -58 -38t-15 -116v-97h173q58 0 115 20l13 -14v-431z" />
    <glyph glyph-name="f_l" unicode="fl" horiz-adv-x="584" 
d="M493 103q0 -49 13 -64t58 -15v-24h-235v24q45 0 58 15t13 64v561q-13 -5 -25 -5q-50 0 -56 53q-2 67 -49 67q-43 0 -58 -38t-15 -116v-97h97v-42h-97v-383q0 -49 18.5 -64t81.5 -15v-24h-264v24q44 0 57 15t13 64v383h-70v42h70v53q0 120 49 179.5t134 59.5q45 0 83 -22
t52 -54l59 56l13 -14v-683z" />
    <glyph glyph-name=".notdef" horiz-adv-x="560" 
d="M459 820v-1120h-355v1120h355zM373 745h-185v-37h73v-41h-74v-37h186v37h-74v41h74v37zM299 600h-112v-116h186v38h-74v78zM261 562v-40h-37v40h37zM373 454h-186v-37h74v-42h-74v-37h112v79h74v37zM373 387h-37v-74h-149v-38h186v112zM373 250h-112v-63h38v26h37v-53
h-112v90h-37v-127h186v127zM373 56h-186v-126h186v126zM336 19v-52h-112v52h112zM373 -96h-186v-37h78l-78 -53v-37h186v37h-114l78 53h36v37z" />
    <glyph glyph-name=".null" horiz-adv-x="0" 
 />
    <glyph glyph-name="nonmarkingreturn" horiz-adv-x="333" 
 />
    <glyph glyph-name="space" unicode=" " horiz-adv-x="208" 
 />
    <glyph glyph-name="exclam" unicode="!" horiz-adv-x="221" 
d="M56 735q0 85 55 85q54 0 54 -85q0 -46 -19.5 -217.5t-21.5 -319.5h-24q-2 148 -23 319.5t-21 217.5zM111 -20q-25 0 -42 17t-17 42q0 24 17 41.5t42 17.5q24 0 41 -17.5t17 -41.5q0 -25 -17 -42t-41 -17z" />
    <glyph glyph-name="quotedbl" unicode="&#x22;" horiz-adv-x="341" 
d="M50 764q0 56 43 56t43 -56q0 -26 -4.5 -57.5t-12.5 -78t-13 -83.5h-24q-5 40 -18.5 113t-13.5 106zM205 764q0 56 43 56t43 -56q0 -26 -4.5 -57.5t-12.5 -78t-13 -83.5h-24q-5 40 -18.5 113t-13.5 106z" />
    <glyph glyph-name="numbersign" unicode="#" horiz-adv-x="858" 
d="M795 534h-151l-74 -255h155v-67h-174l-67 -232h-68l67 232h-216l-67 -232h-68l67 232h-136v67h155l74 255h-159v67h178l63 219h68l-63 -219h216l63 219h68l-63 -219h132v-67zM502 279l74 255h-216l-74 -255h216z" />
    <glyph glyph-name="dollar" unicode="$" horiz-adv-x="533" 
d="M483 187q0 -95 -57.5 -150t-142.5 -57v-75h-34v76q-106 5 -199 64v190h24q0 -205 175 -214v313q-24 19 -41 33q-87 72 -119.5 123t-32.5 117q0 82 55 127.5t138 45.5v68h34v-70q92 -8 164 -66v-138h-24q0 154 -140 164v-271l12 -9q41 -34 57 -47.5t44.5 -40t39 -42
t24.5 -39.5t18.5 -48.5t4.5 -53.5zM141 642q0 -40 25.5 -72t82.5 -77v246q-52 -4 -80 -31t-28 -66zM283 22q55 5 85 38t30 83q0 40 -28.5 77.5t-86.5 85.5v-284z" />
    <glyph glyph-name="percent" unicode="%" horiz-adv-x="777" 
d="M189 410q-58 0 -98.5 59t-40.5 145q0 87 40 146.5t99 59.5q57 0 97 -59.5t40 -146.5q0 -85 -40 -144.5t-97 -59.5zM615 800h43l-497 -800h-43zM189 440q64 0 64 174q0 176 -64 176q-65 0 -65 -176q0 -174 65 -174zM589 -20q-58 0 -98.5 59.5t-40.5 145.5q0 87 40 146.5
t99 59.5q57 0 97.5 -59.5t40.5 -146.5q0 -86 -40.5 -145.5t-97.5 -59.5zM589 10q64 0 64 175q0 176 -64 176q-65 0 -65 -176q0 -175 65 -175z" />
    <glyph glyph-name="ampersand" unicode="&#x26;" horiz-adv-x="792" 
d="M718 172h24q-28 -192 -153 -192q-67 0 -130 67q-80 -67 -194 -67q-94 0 -154.5 47.5t-60.5 137.5q0 78 45.5 136t136.5 124q-55 128 -55 216q0 90 55.5 139.5t139.5 49.5q73 0 110.5 -39.5t37.5 -99.5q0 -62 -42.5 -115.5t-125.5 -116.5q-5 -3 -17 -13q28 -65 66 -134
q51 -92 98 -153q48 81 80 197q13 47 4 62t-57 15v23h206v-23q-54 0 -76.5 -15t-35.5 -61q-42 -150 -94 -232q58 -66 102 -66q66 0 90 113zM277 660q0 -65 41 -173l3 2q80 59 113.5 105.5t33.5 96.5q0 40 -21.5 69t-64.5 29q-50 0 -77.5 -38t-27.5 -91zM299 21q73 0 134 56
q-49 63 -127 199q-27 47 -52 100q-89 -90 -89 -200q0 -71 36.5 -113t97.5 -42z" />
    <glyph glyph-name="quotesingle" unicode="'" horiz-adv-x="199" 
d="M56 764q0 56 43 56q44 0 44 -56q0 -34 -13.5 -110.5t-17.5 -108.5h-23q-5 38 -19 111.5t-14 107.5z" />
    <glyph glyph-name="parenleft" unicode="(" horiz-adv-x="386" 
d="M356 -276v-24q-138 90 -222 233t-84 327q0 190 79.5 336t209.5 224v-24q-87 -81 -130.5 -223t-43.5 -313q0 -159 49 -303t142 -233z" />
    <glyph glyph-name="parenright" unicode=")" horiz-adv-x="386" 
d="M30 -276q93 89 142 233t49 303q0 171 -43.5 313t-130.5 223v24q130 -78 209.5 -224t79.5 -336q0 -184 -84 -327t-222 -233v24z" />
    <glyph glyph-name="asterisk" unicode="*" horiz-adv-x="467" 
d="M392 573q18 -10 23 -27.5t-4 -32.5q-8 -16 -25.5 -20.5t-36.5 6.5q-18 10 -45.5 44.5t-61.5 56.5q2 -40 18.5 -81.5t16.5 -61.5q0 -21 -12.5 -34t-30.5 -13t-30.5 13t-12.5 34q0 20 17.5 62t19.5 83q-36 -23 -64 -58t-45 -45q-20 -11 -37 -6.5t-26 20.5q-10 15 -4.5 32.5
t24.5 27.5q17 10 62 15.5t82 25.5q-37 19 -82 26t-62 17q-19 10 -24.5 28t4.5 33q9 16 26 20t37 -6q16 -10 44 -47t65 -60q-2 43 -19.5 85.5t-17.5 62.5q0 21 12.5 34t30.5 13t30.5 -13t12.5 -34q0 -20 -16.5 -62t-18.5 -84q35 22 62.5 58.5t44.5 46.5q19 10 36.5 5.5
t25.5 -19.5q9 -16 4 -33.5t-23 -27.5q-17 -10 -62 -16.5t-82 -26.5q37 -20 82 -25.5t62 -15.5z" />
    <glyph glyph-name="plus" unicode="+" horiz-adv-x="510" 
d="M50 233v74h169v168h74v-168h167v-74h-167v-168h-74v168h-169z" />
    <glyph glyph-name="comma" unicode="," horiz-adv-x="234" 
d="M99 -20q-23 0 -36 16.5t-13 40.5q0 27 18 44t45 17q30 0 50.5 -24.5t20.5 -65.5q0 -122 -130 -184v23q40 20 66.5 51.5t26.5 71.5q0 24 -10 24q-3 0 -14 -7t-24 -7z" />
    <glyph glyph-name="hyphen" unicode="-" horiz-adv-x="445" 
d="M50 233v74h345v-74h-345z" />
    <glyph glyph-name="period" unicode="." horiz-adv-x="218" 
d="M109 -20q-25 0 -42 17t-17 42q0 24 17 41.5t42 17.5q24 0 41.5 -17.5t17.5 -41.5q0 -25 -17.5 -42t-41.5 -17z" />
    <glyph glyph-name="slash" unicode="/" horiz-adv-x="331" 
d="M262 820h69l-262 -820h-69z" />
    <glyph glyph-name="zero" unicode="0" horiz-adv-x="586" 
d="M293 -20q-77 0 -133 57t-83 151t-27 212t27 212t83 151t133 57t133 -57t83 -151t27 -212t-27 -212t-83 -151t-133 -57zM293 21q128 0 128 379t-128 379t-128 -379t128 -379z" />
    <glyph glyph-name="one" unicode="1" horiz-adv-x="345" 
d="M224 103q0 -49 13 -64t58 -15v-24h-242v24q44 0 57 15t13 64v561q0 29 -1 39.5t-9 17t-22.5 1t-43.5 -21.5l-11 21l175 93l13 -14v-697z" />
    <glyph glyph-name="two" unicode="2" horiz-adv-x="521" 
d="M364 89q48 0 69.5 18.5t40.5 75.5l23 -7l-34 -100l-26 -76h-427v24q85 89 137.5 150t104.5 133t76 136.5t24 126.5q0 74 -31.5 117.5t-96.5 43.5q-75 0 -117.5 -57.5t-47.5 -156.5h-23q0 138 65 220.5t176 82.5q87 0 134.5 -55.5t47.5 -142.5q0 -67 -29 -139t-82 -142.5
t-106 -127.5t-122 -121v-3h244z" />
    <glyph glyph-name="three" unicode="3" horiz-adv-x="497" 
d="M30 59q0 18 14 28.5t35 10.5q35 0 60 -37q15 -20 32 -30t47 -10q53 0 92 47.5t39 132.5q0 194 -191 212v24q145 51 145 188q0 53 -28 87t-80 34q-105 0 -133 -115h-24q12 89 65 139t135 50q74 0 123 -48t49 -131q0 -127 -144 -193v-3q87 -11 139 -67.5t52 -151.5
q0 -110 -75.5 -178t-181.5 -68q-66 0 -118 21t-52 58z" />
    <glyph glyph-name="four" unicode="4" horiz-adv-x="554" 
d="M38 219v83l306 498h78v-498h88v-83h-88v-116q0 -49 13 -64t58 -15v-24h-242v24q44 0 57 15t13 64v116h-283zM87 302h234v396l-234 -393v-3z" />
    <glyph glyph-name="five" unicode="5" horiz-adv-x="491" 
d="M23 55q0 40 44 40q14 0 26.5 -7.5t17 -13t15.5 -21.5q23 -32 68 -32q52 0 92 67.5t40 188.5q0 219 -128 219q-59 0 -100 -43l-34 24l72 323h292l-21 -89h-237l-47 -201l4 -3q50 41 118 41q83 0 139.5 -69.5t56.5 -178.5q0 -154 -76.5 -237t-187.5 -83q-65 0 -109.5 20.5
t-44.5 54.5z" />
    <glyph glyph-name="six" unicode="6" horiz-adv-x="559" 
d="M334 548q88 0 136.5 -74t48.5 -184q0 -79 -24 -147.5t-77.5 -115.5t-127.5 -47q-113 0 -177.5 97t-62.5 256q2 120 47.5 220t141 171.5t229.5 95.5v-24q-232 -59 -287 -330q58 82 153 82zM290 21q114 0 114 247q0 238 -112 238q-65 0 -117 -75q-8 -50 -10 -119
q-2 -134 31 -212.5t94 -78.5z" />
    <glyph glyph-name="seven" unicode="7" horiz-adv-x="522" 
d="M230 -12l-69 18l213 702v3h-237q-47 0 -67 -21t-34 -88l-24 5l24 114l16 79h428z" />
    <glyph glyph-name="eight" unicode="8" horiz-adv-x="519" 
d="M315 450q77 -68 117.5 -131t40.5 -135q0 -92 -60.5 -148t-154.5 -56q-97 0 -156 55.5t-59 138.5q0 70 39.5 123.5t116.5 117.5q-71 66 -103.5 115.5t-32.5 110.5q0 79 57 129t142 50q88 0 139.5 -48t51.5 -121q0 -32 -9.5 -59.5t-32 -53t-41.5 -42.5t-55 -46zM266 779
q-48 0 -77.5 -33t-29.5 -84q0 -42 26.5 -81t92.5 -99q51 49 72 89t21 86q0 52 -28.5 87t-76.5 35zM261 21q54 0 85 37.5t31 103.5q0 60 -34 107.5t-107 113.5q-112 -104 -112 -210q0 -63 36 -107.5t101 -44.5z" />
    <glyph glyph-name="nine" unicode="9" horiz-adv-x="559" 
d="M269 820q113 0 177.5 -96.5t62.5 -256.5q-2 -120 -47.5 -220t-141 -171.5t-229.5 -95.5v24q232 59 287 330q-58 -81 -153 -81q-88 0 -136.5 73.5t-48.5 184.5q0 78 24 146.5t77.5 115.5t127.5 47zM394 488q2 133 -31 212t-94 79q-114 0 -114 -247q0 -67 9.5 -117.5
t35.5 -85.5t67 -35q64 0 118 77q7 49 9 117z" />
    <glyph glyph-name="colon" unicode=":" horiz-adv-x="218" 
d="M109 424q-25 0 -42 17t-17 42q0 24 17 41t42 17q24 0 41.5 -17t17.5 -41q0 -25 -17.5 -42t-41.5 -17zM109 -20q-25 0 -42 17t-17 42q0 24 17 41.5t42 17.5q24 0 41.5 -17.5t17.5 -41.5q0 -25 -17.5 -42t-41.5 -17z" />
    <glyph glyph-name="semicolon" unicode=";" horiz-adv-x="234" 
d="M118 424q-25 0 -42 17t-17 42q0 24 17 41t42 17q24 0 41 -17t17 -41q0 -25 -17 -42t-41 -17zM99 -20q-23 0 -36 16.5t-13 40.5q0 27 18 44t45 17q30 0 50.5 -24.5t20.5 -65.5q0 -122 -130 -184v23q40 20 66.5 51.5t26.5 71.5q0 24 -10 24q-3 0 -14 -7t-24 -7z" />
    <glyph glyph-name="less" unicode="&#x3c;" horiz-adv-x="460" 
d="M410 106l-367 113v107l367 114v-78l-305 -88v-3l305 -88v-77z" />
    <glyph glyph-name="equal" unicode="=" horiz-adv-x="445" 
d="M50 324v74h345v-74h-345zM50 142v74h345v-74h-345z" />
    <glyph glyph-name="greater" unicode="&#x3e;" horiz-adv-x="468" 
d="M50 106v77l305 88v3l-305 88v78l368 -114v-107z" />
    <glyph glyph-name="question" unicode="?" horiz-adv-x="473" 
d="M316 666q0 53 -24 83t-68 30q-38 0 -59.5 -23.5t-21.5 -57.5q0 -24 12.5 -46t12.5 -39q0 -22 -15 -33.5t-38 -11.5q-28 0 -46.5 26t-18.5 69q0 65 51 111t134 46q85 0 136.5 -42t51.5 -110q0 -47 -20 -86.5t-48.5 -72.5t-56.5 -70.5t-48 -99.5t-20 -141h-24
q0 89 11.5 156.5t27.5 106t32 69t27.5 64t11.5 72.5zM218 -20q-24 0 -41 17t-17 42q0 24 17 41.5t41 17.5q25 0 42 -17.5t17 -41.5q0 -25 -17 -42t-42 -17z" />
    <glyph glyph-name="at" unicode="@" horiz-adv-x="1074" 
d="M62 338q39 198 183 318t323 120q108 0 192 -42.5t130.5 -111t64.5 -152.5t4 -171q-24 -148 -106 -233.5t-177 -85.5q-113 0 -92 107l3 16h-4q-43 -64 -82.5 -93.5t-94.5 -29.5q-79 0 -112 77.5t-4 189.5q32 127 109 210t164 83q76 0 98 -77h2l16 73l75 5l-87 -413
q-13 -50 -5.5 -78.5t42.5 -28.5q65 0 132 73.5t89 204.5q8 62 3.5 124.5t-32.5 120t-70 101.5t-109 70.5t-149 26.5q-173 0 -296.5 -112t-161.5 -292q-34 -158 7.5 -286.5t147 -201t254.5 -72.5q176 0 292 81t179 214h34q-63 -146 -190.5 -237.5t-314.5 -91.5
q-161 0 -277 77.5t-164 213.5t-16 303zM367 268q-24 -98 -2.5 -161.5t85.5 -63.5q95 0 155 129l31 155q17 79 -2.5 125.5t-68.5 46.5q-71 0 -123.5 -67.5t-74.5 -163.5z" />
    <glyph glyph-name="A" unicode="A" horiz-adv-x="741" 
d="M628 98q15 -45 35.5 -59.5t67.5 -14.5v-24h-303v24q67 0 79.5 15t-4.5 59l-48 147h-256l-46 -147q-17 -44 -4 -59t80 -15v-24h-219v24q46 0 66.5 14.5t35.5 59.5l229 725h50zM212 287h230l-115 355h-3z" />
    <glyph glyph-name="B" unicode="B" horiz-adv-x="643" 
d="M20 0v24q68 0 87.5 16t19.5 63v594q0 47 -19.5 63t-87.5 16v24h317q114 0 179.5 -50.5t65.5 -150.5q0 -80 -46 -128.5t-126 -57.5v-3q95 -6 151 -61t56 -140q0 -111 -79.5 -160t-210.5 -49h-307zM239 436q33 -5 75 -5q65 0 109 42.5t44 124.5q0 80 -44 120.5t-109 40.5
q-42 0 -75 -10v-313zM239 51q37 -10 73 -10q37 0 69 8t60 26.5t44.5 53.5t16.5 84t-18 85.5t-47.5 55t-60 27t-62.5 8.5q-42 0 -75 -5v-333z" />
    <glyph glyph-name="C" unicode="C" horiz-adv-x="671" 
d="M36 400q0 183 92.5 301.5t241.5 118.5q47 0 87.5 -14t65 -28t32.5 -14q11 0 15 9t4 37h23l15 -275h-23q-24 244 -197 244q-109 0 -171 -106.5t-62 -272.5q0 -165 61 -268t169 -103q94 0 157 78.5t81 215.5h24q-21 -159 -92 -251t-194 -92q-149 0 -239 118t-90 302z" />
    <glyph glyph-name="D" unicode="D" horiz-adv-x="770" 
d="M20 0v24q68 0 87.5 16t19.5 63v594q0 47 -19.5 63t-87.5 16v24h322q171 0 281.5 -102t110.5 -298q0 -100 -31.5 -178t-86.5 -125.5t-124.5 -72t-149.5 -24.5h-322zM342 41q128 0 198.5 95.5t70.5 263.5t-70.5 263.5t-198.5 95.5q-64 0 -103 -18v-682q39 -18 103 -18z" />
    <glyph glyph-name="E" unicode="E" horiz-adv-x="629" 
d="M552 800l3 -27l19 -161l-24 -3q-11 93 -30.5 121.5t-66.5 28.5h-214v-318h131q48 0 63.5 21t15.5 96h24v-276h-24q0 75 -15.5 96t-63.5 21h-131v-301q0 -35 9 -46t38 -11h180q47 0 72.5 34.5t56.5 145.5l23 -6l-53 -190l-7 -25h-538v24q68 0 87.5 16t19.5 63v594
q0 47 -19.5 63t-87.5 16v24h532z" />
    <glyph glyph-name="F" unicode="F" horiz-adv-x="628" 
d="M601 800l2 -27l15 -162l-24 -2q-9 94 -27.5 122t-65.5 28h-262v-345h148q48 0 63.5 21.5t15.5 96.5h24v-276h-24q0 74 -16 95.5t-63 21.5h-148v-270q0 -47 19.5 -63t87.5 -16v-24h-326v24q68 0 87.5 16t19.5 63v594q0 47 -19.5 63t-87.5 16v24h581z" />
    <glyph glyph-name="G" unicode="G" horiz-adv-x="775" 
d="M36 396q0 183 98 303.5t262 120.5q57 0 101 -13t67.5 -26t30.5 -13q10 0 13.5 8t3.5 34h24l15 -275h-24q-13 125 -64 184.5t-151 59.5q-125 0 -189 -106.5t-64 -276.5q0 -112 24 -193t82.5 -131.5t149.5 -50.5t151 58v236q0 48 -33.5 63.5t-151.5 15.5v24h371v-24
q-45 0 -58 -15t-13 -64v-230q-109 -105 -271 -105q-175 0 -274.5 117t-99.5 299z" />
    <glyph glyph-name="H" unicode="H" horiz-adv-x="775" 
d="M755 776q-68 0 -87.5 -15.5t-19.5 -63.5v-594q0 -48 19.5 -63.5t87.5 -15.5v-24h-326v24q67 0 86.5 15.5t19.5 63.5v300h-296v-300q0 -47 19.5 -63t87.5 -16v-24h-326v24q68 0 87.5 16t19.5 63v594q0 47 -19.5 63t-87.5 16v24h326v-24q-68 0 -87.5 -16t-19.5 -63v-253
h296v253q0 48 -19.5 63.5t-86.5 15.5v24h326v-24z" />
    <glyph glyph-name="I" unicode="I" horiz-adv-x="366" 
d="M127 697q0 47 -19.5 63t-87.5 16v24h326v-24q-68 0 -87.5 -16t-19.5 -63v-594q0 -47 19.5 -63t87.5 -16v-24h-326v24q68 0 87.5 16t19.5 63v594z" />
    <glyph glyph-name="J" unicode="J" horiz-adv-x="447" 
d="M207 189v508q0 48 -19.5 63.5t-86.5 15.5v24h326v-24q-68 0 -87.5 -15.5t-19.5 -63.5v-458q0 -140 -40.5 -199.5t-118.5 -59.5q-71 0 -106 31.5t-35 80.5q0 27 15.5 41t37.5 14t37 -12t15 -37q0 -5 -1 -20.5t0 -22t3 -16.5t9 -14t18 -4q32 0 42.5 38.5t10.5 129.5z" />
    <glyph glyph-name="K" unicode="K" horiz-adv-x="806" 
d="M123 697q0 48 -19.5 63.5t-87.5 15.5v24h326v-24q-67 0 -86.5 -15.5t-19.5 -63.5v-594q0 -48 19.5 -63.5t86.5 -15.5v-24h-326v24q68 0 87.5 15.5t19.5 63.5v594zM655 84q27 -38 54.5 -49t76.5 -11v-24h-302v24q57 0 60.5 10t-28.5 49l-249 336l259 302q35 37 32 46
t-64 9v24h222v-24q-51 0 -79.5 -10t-57.5 -45l-205 -245z" />
    <glyph glyph-name="L" unicode="L" horiz-adv-x="617" 
d="M346 800v-24q-68 0 -87.5 -16t-19.5 -63v-589q0 -42 12 -54.5t50 -12.5h151q47 0 72 36t55 153l23 -6l-51 -200l-6 -24h-525v24q68 0 87.5 16t19.5 63v594q0 47 -19.5 63t-87.5 16v24h326z" />
    <glyph glyph-name="M" unicode="M" horiz-adv-x="946" 
d="M474 176h3l203 624h246v-24q-68 0 -87.5 -16t-19.5 -63v-594q0 -47 19.5 -63t87.5 -16v-24h-326v24q68 0 87.5 16t19.5 63v639h-3l-244 -765h-50l-241 755h-3l2 -629q0 -48 19.5 -63.5t87.5 -15.5v-24h-255v24q68 0 87.5 16t19.5 63v594q0 47 -19.5 63t-87.5 16v24h251z
" />
    <glyph glyph-name="N" unicode="N" horiz-adv-x="772" 
d="M752 800v-24q-67 0 -86.5 -15.5t-19.5 -63.5v-720h-50l-428 696v-570q0 -47 19.5 -63t87.5 -16v-24h-255v24q68 0 87.5 16t19.5 63v634q-19 23 -43 31t-64 8v24h209l372 -606h3v503q0 48 -19.5 63.5t-86.5 15.5v24h254z" />
    <glyph glyph-name="O" unicode="O" horiz-adv-x="702" 
d="M351 -20q-97 0 -169.5 57t-109 151.5t-36.5 211.5t36.5 211.5t109 151.5t169.5 57q145 0 230 -120t85 -300t-85 -300t-230 -120zM384 19q89 8 131.5 110t26.5 288q-16 185 -76 279t-148 86q-89 -8 -132 -110.5t-27 -288.5q17 -186 76.5 -279t148.5 -85z" />
    <glyph glyph-name="P" unicode="P" horiz-adv-x="647" 
d="M20 0v24q68 0 87.5 16t19.5 63v594q0 47 -19.5 63t-87.5 16v24h311q136 0 210 -57.5t74 -173.5q0 -111 -69.5 -169.5t-170.5 -58.5q-63 0 -136 21v-259q0 -47 19.5 -63t87.5 -16v-24h-326zM344 383q65 0 106.5 49.5t41.5 136.5q0 91 -46.5 140.5t-118.5 49.5
q-46 0 -88 -18v-338q57 -20 105 -20z" />
    <glyph glyph-name="Q" unicode="Q" horiz-adv-x="696" 
d="M737 -73l18 -23q-43 -44 -85 -70t-93 -26t-128.5 39t-138.5 39q-50 0 -145 -27l-17 68q100 23 181 54q-90 6 -157.5 64.5t-101.5 150.5t-34 204q0 117 36.5 211.5t109 151.5t169.5 57q145 0 230 -120t85 -300q0 -219 -117 -338l-15 -14l-6 -6q-96 -80 -293 -124l1 -4
q66 13 108 13q53 0 127.5 -29.5t114.5 -29.5q45 0 78 14t73 45zM159 383q17 -186 76.5 -279t148.5 -85t131.5 110t26.5 288q-16 185 -76 279t-148 86q-89 -8 -132 -110.5t-27 -288.5z" />
    <glyph glyph-name="R" unicode="R" horiz-adv-x="691" 
d="M557 92q21 -42 45.5 -55t71.5 -13v-24h-80q-75 0 -102.5 13t-53.5 73l-151 302h-21h-27v-285q0 -47 19.5 -63t87.5 -16v-24h-326v24q68 0 87.5 16t19.5 63v594q0 47 -19.5 63t-87.5 16v24h302q125 0 191 -51.5t66 -150.5q0 -187 -241 -207h8v-3q37 -9 65 -33.5t54 -77.5z
M266 429q34 0 65 6.5t63 23.5t51 53t19 88q0 78 -40 118.5t-106 40.5q-45 0 -79 -18v-312h27z" />
    <glyph glyph-name="S" unicode="S" horiz-adv-x="561" 
d="M57 -4v288h24q3 -118 61.5 -190.5t141.5 -72.5q60 0 96 35t36 92q0 15 -3 29t-10.5 28.5t-14 26t-21 27t-23 25t-28 26.5t-29.5 25.5t-32.5 27.5t-32.5 27q-96 82 -131 130.5t-35 121.5q0 83 56 130.5t141 47.5q37 0 69.5 -11t50.5 -23.5t34 -23.5t23 -11q9 0 12 10.5
t3 42.5h24v-235h-24q-3 93 -53 151.5t-128 58.5q-59 0 -89 -29.5t-30 -72.5q0 -18 7 -36.5t14.5 -31t26.5 -32t28.5 -28.5t36.5 -31.5t36 -30.5q10 -9 37.5 -32t35.5 -30.5t30 -27t28.5 -28t22.5 -26t21 -28t14.5 -28t12.5 -32.5t6 -33.5t3 -38.5q0 -93 -62.5 -148
t-146.5 -55q-43 0 -79 11.5t-54.5 25t-35 25t-25.5 11.5q-12 0 -16.5 -12.5t-4.5 -44.5h-24z" />
    <glyph glyph-name="T" unicode="T" horiz-adv-x="662" 
d="M617 773l14 -163l-24 -2q-8 95 -26.5 123t-65.5 28h-128v-656q0 -47 19.5 -63t87.5 -16v-24h-326v24q68 0 87.5 16t19.5 63v656h-129q-47 0 -65.5 -28t-26.5 -123l-23 2l13 163l2 27h569z" />
    <glyph glyph-name="U" unicode="U" horiz-adv-x="787" 
d="M619 697q0 48 -19.5 63.5t-87.5 15.5v24h255v-24q-68 0 -87.5 -16t-19.5 -63v-457q0 -51 -10.5 -93.5t-36 -82t-75 -62t-119.5 -22.5q-146 0 -219 71t-73 196v450q0 47 -19.5 63t-87.5 16v24h326v-24q-68 0 -87.5 -16t-19.5 -63v-457q0 -114 47.5 -166.5t144.5 -52.5
q188 0 188 219v457z" />
    <glyph glyph-name="V" unicode="V" horiz-adv-x="741" 
d="M414 158h3l171 544q17 44 4 59t-80 15v24h219v-24q-46 0 -66.5 -14.5t-35.5 -59.5l-229 -725h-50l-237 725q-16 45 -36.5 59.5t-66.5 14.5v24h303v-24q-67 0 -79.5 -15t4.5 -59z" />
    <glyph glyph-name="W" unicode="W" horiz-adv-x="995" 
d="M985 800v-24q-46 0 -65 -14.5t-31 -61.5l-186 -723h-50l-138 515l-163 -515h-48l-196 723q-13 47 -32.5 61.5t-65.5 14.5v24h301v-24q-67 0 -81 -16t1 -60l141 -530h3l121 391l-37 139q-13 47 -32 61.5t-65 14.5v24h301v-24q-67 0 -80 -14.5t-1 -61.5l134 -513h3l129 513
q12 47 -1 61.5t-80 14.5v24h218z" />
    <glyph glyph-name="X" unicode="X" horiz-adv-x="787" 
d="M644 89q24 -40 49.5 -52.5t73.5 -12.5v-24h-315v24q67 0 74.5 12.5t-19.5 52.5l-142 243l-155 -245q-29 -38 -22 -50.5t74 -12.5v-24h-227v24q48 0 74.5 12t51.5 51l180 285l-198 339q-24 40 -49.5 52.5t-73.5 12.5v24h314v-24q-66 0 -73.5 -12.5t19.5 -52.5l133 -226
l144 228q29 38 22 50.5t-73 12.5v24h226v-24q-48 0 -74.5 -12t-51.5 -51l-170 -269z" />
    <glyph glyph-name="Y" unicode="Y" horiz-adv-x="703" 
d="M418 103q0 -48 19.5 -63.5t86.5 -15.5v-24h-326v24q68 0 87.5 15.5t19.5 63.5v249l-178 356q-21 42 -45 55t-72 13v24h311v-24q-66 0 -75.5 -14t14.5 -55l142 -285h3l129 284q22 42 12 56t-76 14v24h223v-24q-47 0 -70.5 -13.5t-43.5 -56.5l-161 -354v-249z" />
    <glyph glyph-name="Z" unicode="Z" horiz-adv-x="579" 
d="M543 800l-373 -759h250q47 0 68 33.5t36 144.5l24 -3l-27 -191l-3 -25h-488v24l367 735h-219q-47 0 -64 -26t-20 -114l-24 1l5 152l1 28h467z" />
    <glyph glyph-name="bracketleft" unicode="[" horiz-adv-x="294" 
d="M264 779h-99v-1038h99v-41h-214v1120h214v-41z" />
    <glyph glyph-name="backslash" unicode="\" horiz-adv-x="293" 
d="M31 820l262 -820h-68l-263 820h69z" />
    <glyph glyph-name="bracketright" unicode="]" horiz-adv-x="294" 
d="M244 820v-1120h-214v41h99v1038h-99v41h214z" />
    <glyph glyph-name="asciicircum" unicode="^" horiz-adv-x="578" 
d="M50 389l195 411h86l197 -411h-82l-157 337h-3l-154 -337h-82z" />
    <glyph glyph-name="underscore" unicode="_" horiz-adv-x="700" 
d="M700 -143h-700v53h700v-53z" />
    <glyph glyph-name="grave" unicode="`" horiz-adv-x="250" 
d="M203 628h-37l-130 183h100z" />
    <glyph glyph-name="a" unicode="a" horiz-adv-x="480" 
d="M447 68h23q-12 -44 -31 -66t-59 -22q-85 0 -85 99v4h-2q-63 -103 -150 -103q-52 0 -82.5 34t-30.5 92q0 34 11 62.5t28.5 48.5t44.5 37.5t52.5 30t58.5 27.5q5 2 8 3.5t7 3t8 3.5l47 22v47q0 64 -14.5 93t-61.5 29q-30 0 -49.5 -13t-19.5 -35q0 -12 8 -30t8 -32
q0 -18 -14.5 -29t-38.5 -11q-55 0 -55 69q0 53 47 84.5t121 31.5q77 0 120 -39.5t43 -119.5v-321q0 -25 4.5 -36t17.5 -11q12 0 19 10t17 37zM189 50q28 0 52 17t54 55v185l-44 -21q-128 -60 -128 -155q0 -39 18 -60t48 -21z" />
    <glyph glyph-name="b" unicode="b" horiz-adv-x="529" 
d="M81 59v618q0 30 -0.5 40t-6 18.5t-15.5 5t-31 -13.5l-11 21l144 72l13 -14v-359h4q75 101 157 101q71 0 114.5 -65.5t43.5 -180.5q0 -136 -59.5 -229t-156.5 -93q-37 0 -75.5 13t-62 27.5t-58.5 38.5zM174 80q53 -59 97 -59q31 0 54.5 22t36 59.5t18.5 80t6 90.5
q0 212 -93 212q-35 0 -62 -21t-57 -58v-326z" />
    <glyph glyph-name="c" unicode="c" horiz-adv-x="437" 
d="M292 418q-3 44 -14.5 66t-36.5 22q-49 0 -73 -60.5t-24 -166.5q0 -110 34.5 -173t94.5 -63q41 0 69.5 37.5t50.5 127.5h24q-31 -228 -185 -228q-92 0 -144 74.5t-52 199.5q0 134 58.5 214t152.5 80q65 0 109.5 -40t44.5 -91q0 -54 -51 -54q-54 0 -58 55z" />
    <glyph glyph-name="d" unicode="d" horiz-adv-x="536" 
d="M504 73l11 -21l-143 -72l-14 14v87h-4q-32 -51 -65 -76t-79 -25q-80 0 -127 71t-47 192q0 133 54 219t146 86q72 0 120 -64h2v193q0 54 -7 60q-8 9 -45 -10l-11 21l143 72l14 -14v-683q0 -53 7 -60q8 -9 45 10zM358 128v195q0 87 -28 135t-73 48q-113 0 -113 -233
q0 -106 25.5 -170t78.5 -64q36 0 59.5 22.5t50.5 66.5z" />
    <glyph glyph-name="e" unicode="e" horiz-adv-x="436" 
d="M375 210h24q-15 -114 -62 -172t-118 -58q-85 0 -134 75.5t-49 204.5q0 121 52 204.5t140 83.5q83 0 126.5 -71t43.5 -185h-265v-4q0 -105 31 -169.5t89 -64.5q85 0 122 156zM224 506q-81 0 -90 -173h168q0 173 -78 173z" />
    <glyph glyph-name="f" unicode="f" horiz-adv-x="332" 
d="M286 820q56 0 99 -32t43 -74q0 -26 -15.5 -40.5t-37.5 -14.5q-50 0 -56 53q-2 67 -49 67q-43 0 -58 -38t-15 -116v-97h97v-42h-97v-383q0 -49 18.5 -64t81.5 -15v-24h-264v24q44 0 57 15t13 64v383h-70v42h70v53q0 120 49 179.5t134 59.5z" />
    <glyph glyph-name="g" unicode="g" horiz-adv-x="490" 
d="M250 85q112 0 169 -31t57 -102q0 -78 -79.5 -135t-193.5 -57q-84 0 -138.5 30t-54.5 91q0 70 98 143q-55 18 -55 71q0 46 67 109q-70 54 -70 153q0 86 52.5 138.5t129.5 52.5q56 0 100 -29q60 29 111 29q37 0 37 -30q0 -25 -32 -25q-47 0 -77 -6l-10 7q52 -54 52 -137
q0 -85 -52.5 -137.5t-128.5 -52.5q-50 0 -90 23q-37 -35 -37 -57q0 -26 33.5 -37t111.5 -11zM218 509q-84 -6 -72 -159q7 -75 32 -111t67 -33q86 6 72 158q-15 154 -99 145zM241 -163q87 0 140.5 27t53.5 77q0 40 -41.5 53.5t-133.5 13.5q-81 0 -122 8q-34 -31 -47 -52.5
t-13 -44.5q0 -38 42.5 -60t120.5 -22z" />
    <glyph glyph-name="h" unicode="h" horiz-adv-x="548" 
d="M191 806v-361h3q71 103 156 103q107 0 107 -144v-301q0 -49 13 -64t58 -15v-24h-230v24q41 0 53 15t12 64v301q0 80 -55 80t-117 -81v-300q0 -49 12 -64t53 -15v-24h-230v24q45 0 58 15t13 64v574q0 30 -0.5 40t-6 18.5t-16 5t-32.5 -14.5l-11 21l75 38l71 35z" />
    <glyph glyph-name="i" unicode="i" horiz-adv-x="281" 
d="M139 703q-24 0 -41 17t-17 41q0 25 17 42t41 17q25 0 42 -17t17 -42q0 -24 -17 -41t-42 -17zM191 103q0 -49 12.5 -64t57.5 -15v-24h-235v24q45 0 58 15t13 64v301q0 30 -0.5 40t-6 18.5t-16 5.5t-32.5 -14l-11 21l75 37l71 36l14 -14v-431z" />
    <glyph glyph-name="j" unicode="j" horiz-adv-x="270" 
d="M148 703q-25 0 -42 17t-17 41q0 25 17 42t42 17q24 0 41 -17t17 -42q0 -24 -17 -41t-41 -17zM186 540l14 -14v-570q0 -96 -36.5 -146t-102.5 -50q-57 0 -90.5 24.5t-33.5 62.5q0 23 15.5 35.5t38.5 12.5q51 0 55 -51q0 -3 0.5 -8t0.5 -7.5t0.5 -6.5t1.5 -6t2 -5t2.5 -4.5
t4 -3t5.5 -2t7 -0.5q23 0 29.5 35t6.5 110v451v29t-1.5 18t-4.5 13t-9.5 2.5t-15.5 -2.5t-24 -11l-10 21z" />
    <glyph glyph-name="k" unicode="k" horiz-adv-x="556" 
d="M191 103q0 -49 12.5 -64t57.5 -15v-24h-235v24q45 0 58 15t13 64v574q0 30 -0.5 40t-6 18.5t-16 5t-32.5 -14.5l-11 21l75 38l71 35l14 -14v-703zM446 90q23 -40 44.5 -53t55.5 -13v-24h-246v24q48 0 51.5 12t-22.5 54l-118 212l135 149q37 36 36.5 44.5t-51.5 8.5v24
h189v-24q-37 0 -62.5 -10t-55.5 -44l-96 -108z" />
    <glyph glyph-name="l" unicode="l" horiz-adv-x="281" 
d="M191 103q0 -49 12.5 -64t57.5 -15v-24h-235v24q45 0 58 15t13 64v574q0 30 -0.5 40t-6 18.5t-16 5t-32.5 -14.5l-11 21l75 38l71 35l14 -14v-703z" />
    <glyph glyph-name="m" unicode="m" horiz-adv-x="806" 
d="M715 103q0 -49 13 -64t58 -15v-24h-227v24q40 0 51.5 15t11.5 64v304q0 78 -51 78q-53 0 -118 -82v-300q0 -49 11.5 -64t51.5 -15v-24h-219v24q40 0 51.5 15t11.5 64v304q0 78 -51 78q-55 0 -118 -82v-300q0 -49 11 -64t51 -15v-24h-227v24q45 0 58 15t13 64v301
q0 30 -0.5 40t-6 18.5t-16 5.5t-32.5 -14l-11 21l75 37l71 36l14 -14v-89h3q71 103 152 103q90 0 104 -103h3q77 103 159 103q103 0 103 -144v-301z" />
    <glyph glyph-name="n" unicode="n" horiz-adv-x="548" 
d="M191 534v-89h3q71 103 156 103q107 0 107 -144v-301q0 -49 13 -64t58 -15v-24h-230v24q41 0 53 15t12 64v301q0 80 -55 80t-117 -81v-300q0 -49 12 -64t53 -15v-24h-230v24q45 0 58 15t13 64v301q0 30 -0.5 40t-6 18.5t-16 5.5t-32.5 -14l-11 21l75 37l71 36z" />
    <glyph glyph-name="o" unicode="o" horiz-adv-x="523" 
d="M262 -20q-103 0 -164.5 80t-61.5 204q0 123 61.5 203.5t164.5 80.5q102 0 163.5 -80.5t61.5 -203.5q0 -124 -61.5 -204t-163.5 -80zM283 22q116 11 96 252q-10 120 -45.5 178t-93.5 53q-116 -11 -96 -252q23 -240 139 -231z" />
    <glyph glyph-name="p" unicode="p" horiz-adv-x="539" 
d="M349 548q77 0 115.5 -71t38.5 -182q0 -132 -54 -223.5t-135 -91.5t-128 77h-2v-174q0 -49 13 -64t58 -15v-24h-235v24q45 0 58 15t13 64v521q0 30 -0.5 40t-6 19t-15.5 5.5t-31 -13.5l-11 21l144 72l13 -14v-103h4q69 117 161 117zM294 21q54 0 78 70t24 175
q0 113 -20.5 168t-67.5 55q-34 0 -67.5 -28t-56.5 -68v-195q0 -82 31 -129.5t79 -47.5z" />
    <glyph glyph-name="q" unicode="q" horiz-adv-x="539" 
d="M384 505l51 43l14 -14v-651q0 -49 13 -64t57 -15v-24h-234v24q44 0 57 15t13 64v198h-4q-37 -51 -71 -76t-80 -25q-74 0 -119 66.5t-45 182.5q0 141 54.5 230t161.5 89q61 0 132 -43zM355 434q-34 72 -91 72q-120 0 -120 -248q0 -215 102 -215q23 0 45 14t31.5 25
t32.5 40v312z" />
    <glyph glyph-name="r" unicode="r" horiz-adv-x="418" 
d="M328 548q33 0 53.5 -17t20.5 -44q0 -24 -14 -40t-39 -16q-33 0 -49 28q-10 17 -23 17q-21 0 -40 -21t-46 -68v-284q0 -49 19 -64t86 -15v-24h-270v24q45 0 58 15t13 64v301q0 30 -0.5 40t-6 18.5t-16 5.5t-32.5 -14l-11 21l75 37l71 36l14 -14v-90h3q58 104 134 104z" />
    <glyph glyph-name="s" unicode="s" horiz-adv-x="390" 
d="M51 -10v201h23q11 -75 49.5 -122.5t95.5 -47.5q63 0 63 67q0 28 -16.5 55t-34 44t-61.5 56q-36 32 -49.5 44.5t-34.5 37.5t-28.5 47.5t-7.5 50.5q0 56 36.5 90.5t94.5 34.5q31 0 55.5 -10t38.5 -20t20 -10q8 0 10 6t2 24h23v-165h-23q-11 58 -43.5 95.5t-78.5 37.5
q-29 0 -43 -16t-14 -37q0 -22 14 -44.5t30.5 -38.5t53.5 -48q76 -65 105 -105.5t29 -99.5q0 -67 -39.5 -102t-98.5 -35q-35 0 -63 10t-45 20t-24 10q-16 0 -16 -30h-23z" />
    <glyph glyph-name="t" unicode="t" horiz-adv-x="355" 
d="M312 220h23q-1 -126 -25 -183t-92 -57q-126 0 -126 185v321h-78v42q70 2 101.5 34t38.5 109h31v-143h116v-42h-116v-289q0 -84 11.5 -121t49.5 -37q35 0 50 41t16 140z" />
    <glyph glyph-name="u" unicode="u" horiz-adv-x="527" 
d="M353 -6v89h-3q-72 -103 -153 -103q-107 0 -107 144v293q0 51 -10 62t-54 -1l-6 23l80 22l70 18l14 -13v-404q0 -81 55 -81q50 0 114 81v293q0 51 -10.5 62t-54.5 -1l-6 23l81 22l70 18l14 -13v-405q0 -53 7 -60q8 -9 45 10l11 -21l-143 -72z" />
    <glyph glyph-name="v" unicode="v" horiz-adv-x="495" 
d="M366 428q15 46 7.5 61t-53.5 15v24h165v-24q-33 0 -49 -15t-29 -61l-128 -451h-58l-133 451q-13 46 -29.5 61t-48.5 15v24h228v-24q-43 0 -49.5 -15t8.5 -61l83 -290h3z" />
    <glyph glyph-name="w" unicode="w" horiz-adv-x="757" 
d="M747 528v-24q-32 0 -48.5 -15.5t-28.5 -60.5l-129 -451h-57l-89 302l-96 -302h-58l-149 452q-15 45 -32 60t-50 15v24h234v-24q-46 0 -53 -14t11 -61l100 -308h3l71 223l-25 84q-13 46 -29.5 61t-49.5 15v24h229v-24q-43 0 -49.5 -15t8.5 -61l82 -290h3l83 290
q15 46 8 61t-53 15v24h164z" />
    <glyph glyph-name="x" unicode="x" horiz-adv-x="508" 
d="M397 92q21 -41 41 -54.5t54 -13.5v-24h-235v24q43 0 45.5 12.5t-21.5 56.5l-51 103l-59 -106q-2 -3 -5 -9q-22 -36 -19 -46.5t44 -10.5v-24h-165v24q34 0 55.5 13t43.5 53l83 150l-97 195q-20 42 -40.5 55.5t-54.5 13.5v24h235v-24q-43 0 -45.5 -13t21.5 -56l42 -85
l48 87q26 43 24.5 55t-43.5 12v24h165v-24q-34 0 -55.5 -13t-43.5 -54l-73 -131z" />
    <glyph glyph-name="y" unicode="y" horiz-adv-x="497" 
d="M23 -167q0 24 15.5 39.5t37.5 15.5q29 0 51 -28q15 -21 33 -21q26 0 44.5 34.5t36.5 113.5l-144 442q-15 45 -31.5 60t-49.5 15v24h236v-24q-46 0 -53.5 -14.5t8.5 -61.5l83 -281l72 281q14 46 6 61t-54 15v24h166v-24q-32 0 -47.5 -15t-28.5 -61l-110 -410
q-3 -10 -10.5 -37t-10.5 -38t-10.5 -35t-12.5 -35t-14 -30.5t-17 -28.5t-19.5 -21.5t-24 -18t-28 -10t-33.5 -4.5q-40 0 -65.5 20.5t-25.5 52.5z" />
    <glyph glyph-name="z" unicode="z" horiz-adv-x="435" 
d="M302 41q50 0 65 26t15 115h23v-182h-375v24l250 462h-123q-49 0 -64 -21.5t-15 -98.5h-24v162h351v-24l-249 -463h146z" />
    <glyph glyph-name="braceleft" unicode="{" horiz-adv-x="401" 
d="M371 796q-134 -23 -134 -134q0 -38 26 -108t26 -120q0 -80 -49.5 -123t-111.5 -49v-3q62 -6 111.5 -49.5t49.5 -123.5q0 -50 -26 -120t-26 -108q0 -111 134 -134v-24q-53 6 -93.5 22t-62.5 35.5t-35 45.5t-17 46.5t-4 42.5q0 47 16.5 121.5t16.5 114.5q0 58 -39 89
t-103 31v24q64 0 103 31t39 90q0 39 -16.5 113.5t-16.5 121.5q0 22 4 42.5t17 46.5t35 45.5t62.5 35.5t93.5 22v-24z" />
    <glyph glyph-name="bar" unicode="|" horiz-adv-x="174" 
d="M50 861h74v-1062h-74v1062z" />
    <glyph glyph-name="braceright" unicode="}" horiz-adv-x="401" 
d="M351 248q-63 0 -102.5 -31t-39.5 -89q0 -40 16.5 -114.5t16.5 -121.5q0 -22 -4 -42.5t-17 -46.5t-35 -45.5t-62.5 -35.5t-93.5 -22v24q135 23 135 134q0 38 -26 108t-26 120q0 80 49.5 123.5t111.5 49.5v3q-62 6 -111.5 49t-49.5 123q0 50 26 120t26 108q0 111 -135 134
v24q53 -6 93.5 -22t62.5 -35.5t35 -45.5t17 -46.5t4 -42.5q0 -47 -16.5 -121.5t-16.5 -113.5q0 -59 39.5 -90t102.5 -31v-24z" />
    <glyph glyph-name="asciitilde" unicode="~" horiz-adv-x="618" 
d="M544 345h24q-3 -70 -37.5 -111t-92.5 -41q-50 0 -134 40t-133 40q-81 0 -97 -79h-24q3 70 37.5 111t91.5 41q50 0 134 -40t133 -40q82 0 98 79z" />
    <glyph glyph-name="exclamdown" unicode="&#xa1;" horiz-adv-x="221" 
d="M111 548q24 0 41 -17.5t17 -41.5q0 -25 -17 -42t-41 -17q-25 0 -42 17t-17 42q0 24 17 41.5t42 17.5zM56 -208q0 46 21 218t23 320h24q2 -147 21.5 -319t19.5 -219q0 -85 -54 -85q-55 0 -55 85z" />
    <glyph glyph-name="cent" unicode="&#xa2;" horiz-adv-x="477" 
d="M400 208h23q-31 -228 -184 -228q-20 0 -43 5l-50 -205h-35l53 216q-58 27 -89.5 94.5t-31.5 163.5q0 134 58.5 214t151.5 80q24 0 45 -6l63 258h35l-66 -270q35 -18 56 -48.5t21 -64.5q0 -54 -51 -54q-47 0 -56 44l-84 -341q28 -23 63 -23q41 0 70 37.5t51 127.5z
M150 279q0 -117 39 -181l95 387q-13 21 -37 21q-48 0 -72.5 -61t-24.5 -166z" />
    <glyph glyph-name="sterling" unicode="&#xa3;" horiz-adv-x="575" 
d="M502 205h23q-2 -26 -4.5 -44t-8.5 -48t-15.5 -50.5t-23.5 -41t-36 -31t-49 -10.5q-25 0 -54 12.5t-48 26t-48 36.5q-49 -75 -108 -75q-36 0 -58 23t-22 62q0 41 26.5 65.5t64.5 24.5q29 0 57 -10q6 52 6 114q0 55 -9 114h-106v34h100q-3 16 -10 47.5t-10.5 50.5t-7 49.5
t-3.5 61.5q0 94 47.5 149t138.5 55q66 0 107.5 -34.5t41.5 -81.5q0 -22 -15.5 -36.5t-38.5 -14.5t-39 13.5t-16 35.5q0 48 -9 61q-11 16 -38 16q-83 0 -83 -140q0 -52 17.5 -130t21.5 -102h127v-34h-123q3 -32 3 -68q0 -105 -34 -194q66 -35 120 -35q94 0 116 129zM129 21
q41 0 59 71q-31 21 -54 21q-19 0 -31 -13t-12 -34q0 -20 10 -32.5t28 -12.5z" />
    <glyph glyph-name="currency" unicode="&#xa4;" horiz-adv-x="654" 
d="M554 364q0 -74 -45 -135l95 -94l-48 -48l-94 95q-61 -45 -135 -45q-76 0 -135 45l-94 -95l-48 48l94 94q-44 60 -44 135t44 135l-94 94l48 48l94 -94q58 44 135 44q74 0 135 -45l94 95l48 -48l-95 -94q45 -59 45 -135zM168 364q0 -66 45.5 -112.5t113.5 -46.5t113.5 46.5
t45.5 112.5q0 67 -45.5 113t-113.5 46t-113.5 -46t-45.5 -113z" />
    <glyph glyph-name="yen" unicode="&#xa5;" horiz-adv-x="808" 
d="M733 776q-47 0 -70.5 -13.5t-43.5 -56.5l-137 -301h220v-34h-235l-9 -19v-68h244v-34h-244v-147q0 -48 19.5 -63.5t86.5 -15.5v-24h-326v24q68 0 87.5 15.5t19.5 63.5v147h-239v34h239v68l-9 19h-230v34h213l-152 303q-21 42 -45 55t-72 13v24h311v-24q-66 0 -75.5 -14
t14.5 -55l142 -285h3l129 284q22 42 12 56t-76 14v24h223v-24z" />
    <glyph glyph-name="brokenbar" unicode="&#xa6;" horiz-adv-x="174" 
d="M50 801h74v-381h-74v381zM50 240h74v-381h-74v381z" />
    <glyph glyph-name="section" unicode="&#xa7;" horiz-adv-x="431" 
d="M381 347q0 -90 -103 -168q70 -75 70 -151q0 -67 -39.5 -104t-98.5 -37q-63 0 -100.5 32t-37.5 71q0 21 11 34.5t31 13.5q42 0 44 -43q2 -14 4 -23.5t8 -23t18.5 -20.5t31.5 -7q39 0 61 24t22 64q0 36 -29 70.5t-100 91.5q-71 54 -97.5 93.5t-26.5 96.5q0 89 104 168
q-70 73 -70 150q0 67 39.5 104t97.5 37q63 0 100.5 -32t37.5 -71q0 -20 -11 -33.5t-31 -13.5t-31 11.5t-13 30.5q-5 74 -62 74q-39 0 -60.5 -24t-21.5 -63q0 -36 29.5 -71.5t99.5 -90.5q70 -54 96.5 -93.5t26.5 -96.5zM103 391q0 -43 24.5 -73t101.5 -94q18 -15 32 -29
q68 59 68 122q0 42 -25 73t-101 93q-18 15 -33 30q-67 -60 -67 -122z" />
    <glyph glyph-name="dieresis" unicode="&#xa8;" horiz-adv-x="415" 
d="M109 663q-24 0 -41.5 17t-17.5 41q0 25 17.5 42t41.5 17t41.5 -17t17.5 -42q0 -24 -17.5 -41t-41.5 -17zM306 663q-24 0 -41 17t-17 41q0 25 17 42t41 17q25 0 42 -17t17 -42q0 -24 -17 -41t-42 -17z" />
    <glyph glyph-name="copyright" unicode="&#xa9;" horiz-adv-x="920" 
d="M461 824q175 0 294 -122.5t119 -302.5q0 -176 -119.5 -299.5t-293.5 -123.5q-176 0 -295.5 123.5t-119.5 299.5q0 180 119 302.5t296 122.5zM461 790q-163 0 -272 -113.5t-109 -277.5t108.5 -276.5t272.5 -112.5q160 0 269.5 113t109.5 276t-109.5 277t-269.5 114z
M206 398q0 113 71.5 186.5t178.5 73.5q47 0 84.5 -14t58 -28t25.5 -14q10 0 10 36h23l15 -185h-23q-10 79 -59.5 121.5t-122.5 42.5q-78 0 -129 -60t-51 -159q0 -100 52.5 -159t137.5 -59q74 0 128 45.5t77 128.5h24q-26 -101 -88 -158.5t-161 -57.5q-111 0 -181 73t-70 187
z" />
    <glyph glyph-name="guillemotleft" unicode="&#xab;" horiz-adv-x="462" 
d="M146 293l105 -244h-23l-170 244l170 241h23zM314 293l105 -244h-23l-171 244l171 241h23z" />
    <glyph glyph-name="logicalnot" unicode="&#xac;" horiz-adv-x="596" 
d="M50 439h496v-287h-74v213h-422v74z" />
    <glyph glyph-name="registered" unicode="&#xae;" horiz-adv-x="922" 
d="M461 824q175 0 294.5 -122.5t119.5 -301.5q0 -176 -119.5 -300t-294.5 -124q-176 0 -295.5 123.5t-119.5 300.5q0 180 119 302t296 122zM461 10q160 0 270 113.5t110 276.5t-110 276.5t-270 113.5q-163 0 -272 -113t-109 -277t108.5 -277t272.5 -113zM597 228
q24 -38 45.5 -50.5t51.5 -12.5v-24h-124l-135 220h-13h-56v-117q0 -47 10 -63t44 -16v-24h-178v24q34 0 44 16t10 63v314q0 47 -10 63t-44 16v24h178q208 0 208 -150q0 -115 -120 -142zM412 395q71 0 107 27t36 89q0 116 -133 116q-36 0 -56 -7v-225h46z" />
    <glyph glyph-name="macron" unicode="&#xaf;" horiz-adv-x="395" 
d="M50 734h295v-41h-295v41z" />
    <glyph glyph-name="degree" unicode="&#xb0;" horiz-adv-x="521" 
d="M260 403q-89 0 -149.5 60.5t-60.5 150.5q0 89 60.5 149.5t149.5 60.5q90 0 150.5 -60.5t60.5 -149.5q0 -90 -60.5 -150.5t-150.5 -60.5zM260 467q62 0 104.5 42t42.5 105t-42 104.5t-105 41.5q-62 0 -104 -41.5t-42 -104.5t42 -105t104 -42z" />
    <glyph glyph-name="plusminus" unicode="&#xb1;" horiz-adv-x="510" 
d="M50 307v74h169v168h74v-168h167v-74h-167v-168h-74v168h-169zM50 41v73h410v-73h-410z" />
    <glyph glyph-name="acute" unicode="&#xb4;" horiz-adv-x="250" 
d="M46 628l67 183h100l-129 -183h-38z" />
    <glyph glyph-name="paragraph" unicode="&#xb6;" horiz-adv-x="646" 
d="M596 820v-24q-68 0 -87.5 -16t-19.5 -63v-892h-47v954h-116v-954h-48v613q-104 0 -166 49t-62 142t62 142t166 49h318z" />
    <glyph glyph-name="periodcentered" unicode="&#xb7;" horiz-adv-x="218" 
d="M109 340q-25 0 -42 17t-17 42q0 24 17 41.5t42 17.5q24 0 41.5 -17.5t17.5 -41.5q0 -25 -17.5 -42t-41.5 -17z" />
    <glyph glyph-name="cedilla" unicode="&#xb8;" horiz-adv-x="333" 
d="M106 -77l82 87h42l-49 -63q42 -3 72 -24t30 -60q0 -46 -36 -75t-87 -36.5t-110 0.5l6 23q72 -5 112.5 14.5t40.5 64.5q0 67 -103 69z" />
    <glyph glyph-name="guillemotright" unicode="&#xbb;" horiz-adv-x="462" 
d="M148 293l-105 241h23l170 -241l-170 -244h-23zM316 293l-106 241h24l170 -241l-170 -244h-24z" />
    <glyph glyph-name="onequarter" unicode="&#xbc;" horiz-adv-x="775" 
d="M196 390q0 -30 8.5 -39t37.5 -9v-14h-160v14q29 0 37.5 9t8.5 39v337q0 30 -7 33.5t-45 -13.5l-7 13l68 33l49 23l10 -8v-418zM611 800h43l-497 -800h-43zM393 131v50l203 299h52v-299h58v-50h-58v-69q0 -30 8.5 -39t38.5 -9v-14h-161v14q30 0 38.5 9t8.5 39v69h-188z
M426 181h155v238l-155 -236v-2z" />
    <glyph glyph-name="onehalf" unicode="&#xbd;" horiz-adv-x="871" 
d="M196 390q0 -30 8.5 -39t37.5 -9v-14h-160v14q29 0 37.5 9t8.5 39v337q0 30 -7 33.5t-45 -13.5l-7 13l68 33l49 23l10 -8v-418zM621 800h43l-497 -800h-43zM721 53q28 0 42 12.5t28 49.5l13 -5l-24 -65l-17 -45h-283v14q115 109 170.5 183.5t55.5 144.5q0 44 -21 70.5
t-63 26.5q-50 0 -78.5 -35t-31.5 -94h-15q0 83 43 132.5t117 49.5q58 0 89 -33t31 -86q0 -129 -225 -318v-2h169z" />
    <glyph glyph-name="threequarters" unicode="&#xbe;" horiz-adv-x="855" 
d="M73 355q0 24 32 24q22 0 40 -22q19 -24 52 -24q36 0 62 28.5t26 78.5q0 117 -127 128v14q96 31 96 113q0 32 -18.5 52.5t-53.5 20.5q-69 0 -88 -69h-16q8 53 43 83t89 30q50 0 82.5 -29t32.5 -79q0 -76 -95 -115v-2q57 -6 91.5 -40.5t34.5 -91.5q0 -66 -50 -106.5
t-120 -40.5q-44 0 -78.5 12.5t-34.5 34.5zM697 800h43l-497 -800h-43zM473 131v50l203 299h52v-299h58v-50h-58v-69q0 -30 8.5 -39t38.5 -9v-14h-161v14q30 0 38.5 9t8.5 39v69h-188zM506 181h155v238l-155 -236v-2z" />
    <glyph glyph-name="questiondown" unicode="&#xbf;" horiz-adv-x="453" 
d="M235 540q24 0 41.5 -17t17.5 -42q0 -24 -17.5 -41t-41.5 -17q-25 0 -42 17t-17 41q0 25 17 42t42 17zM138 -146q0 -53 23.5 -83t67.5 -30q38 0 60 24t22 57q0 24 -13 46t-13 39q0 22 15 33.5t38 11.5q28 0 46.5 -26t18.5 -69q0 -65 -51 -111t-134 -46q-85 0 -136.5 42
t-51.5 110q0 47 20 86.5t48.5 72.5t57 71t48.5 100t20 141h23q0 -89 -11 -157t-27.5 -106.5t-32.5 -69t-27 -64t-11 -72.5z" />
    <glyph glyph-name="Agrave" unicode="&#xc0;" horiz-adv-x="741" 
d="M421 893h-38l-129 183h100zM628 98q15 -45 35.5 -59.5t67.5 -14.5v-24h-303v24q67 0 79.5 15t-4.5 59l-48 147h-256l-46 -147q-17 -44 -4 -59t80 -15v-24h-219v24q46 0 66.5 14.5t35.5 59.5l229 725h50zM212 287h230l-115 355h-3z" />
    <glyph glyph-name="Aacute" unicode="&#xc1;" horiz-adv-x="741" 
d="M492 1076l-129 -183h-38l67 183h100zM628 98q15 -45 35.5 -59.5t67.5 -14.5v-24h-303v24q67 0 79.5 15t-4.5 59l-48 147h-256l-46 -147q-17 -44 -4 -59t80 -15v-24h-219v24q46 0 66.5 14.5t35.5 59.5l229 725h50zM212 287h230l-115 355h-3z" />
    <glyph glyph-name="Acircumflex" unicode="&#xc2;" horiz-adv-x="741" 
d="M367 1018l-106 -129h-38l95 184h97l95 -184h-38zM628 98q15 -45 35.5 -59.5t67.5 -14.5v-24h-303v24q67 0 79.5 15t-4.5 59l-48 147h-256l-46 -147q-17 -44 -4 -59t80 -15v-24h-219v24q46 0 66.5 14.5t35.5 59.5l229 725h50zM212 287h230l-115 355h-3z" />
    <glyph glyph-name="Atilde" unicode="&#xc3;" horiz-adv-x="741" 
d="M287 996q-26 0 -37.5 -17t-16.5 -52h-24q13 139 86 139q33 0 79 -34.5t73 -34.5q26 0 37.5 17t15.5 52h24q-13 -139 -86 -139q-32 0 -78 34.5t-73 34.5zM628 98q15 -45 35.5 -59.5t67.5 -14.5v-24h-303v24q67 0 79.5 15t-4.5 59l-48 147h-256l-46 -147q-17 -44 -4 -59
t80 -15v-24h-219v24q46 0 66.5 14.5t35.5 59.5l229 725h50zM212 287h230l-115 355h-3z" />
    <glyph glyph-name="Adieresis" unicode="&#xc4;" horiz-adv-x="741" 
d="M268 928q-24 0 -41.5 17t-17.5 41q0 25 17.5 42t41.5 17t41.5 -17t17.5 -42q0 -24 -17.5 -41t-41.5 -17zM465 928q-24 0 -41 17t-17 41q0 25 17 42t41 17q25 0 42 -17t17 -42q0 -24 -17 -41t-42 -17zM628 98q15 -45 35.5 -59.5t67.5 -14.5v-24h-303v24q67 0 79.5 15
t-4.5 59l-48 147h-256l-46 -147q-17 -44 -4 -59t80 -15v-24h-219v24q46 0 66.5 14.5t35.5 59.5l229 725h50zM212 287h230l-115 355h-3z" />
    <glyph glyph-name="Aring" unicode="&#xc5;" horiz-adv-x="741" 
d="M367 892q-44 0 -73.5 30.5t-29.5 72.5q0 41 29.5 71t73.5 30q43 0 72 -30t29 -71q0 -42 -29 -72.5t-72 -30.5zM367 1059q-31 0 -48 -19t-17 -45t17 -45.5t48 -19.5q30 0 47 19.5t17 45.5t-17 45t-47 19zM628 98q15 -45 35.5 -59.5t67.5 -14.5v-24h-303v24q67 0 79.5 15
t-4.5 59l-48 147h-256l-46 -147q-17 -44 -4 -59t80 -15v-24h-219v24q46 0 66.5 14.5t35.5 59.5l229 725h50zM212 287h230l-115 355h-3z" />
    <glyph glyph-name="AE" unicode="&#xc6;" horiz-adv-x="910" 
d="M876 221l23 -6l-53 -190l-7 -25h-496v24q68 0 87.5 15.5t19.5 63.5v157h-215l-70 -165q-21 -42 -10.5 -56.5t76.5 -14.5v-24h-221v24q47 0 69.5 13.5t41.5 57.5l258 610q21 42 10 56.5t-77 14.5v24h524l3 -27l20 -161l-24 -3q-11 93 -30.5 121.5t-66.5 28.5h-175v-318
h114q48 0 63.5 21t15.5 96h24v-276h-24q0 75 -15.5 96t-63.5 21h-114v-301q0 -35 9 -46t38 -11h137q47 0 72 34.5t57 145.5zM253 302h197v460h-3z" />
    <glyph glyph-name="Ccedilla" unicode="&#xc7;" horiz-adv-x="671" 
d="M651 323q-20 -147 -81.5 -237t-167.5 -104l-34 -43q42 -3 72 -24t30 -60q0 -46 -36 -75t-87 -36.5t-110 0.5l6 23q72 -5 112.5 14.5t40.5 64.5q0 67 -103 69l61 65q-144 4 -231 121.5t-87 298.5q0 183 92.5 301.5t241.5 118.5q47 0 87.5 -14t65 -28t32.5 -14q11 0 15 9
t4 37h23l15 -275h-23q-24 244 -197 244q-109 0 -171 -106.5t-62 -272.5q0 -165 61 -268t169 -103q94 0 157 78.5t81 215.5h24z" />
    <glyph glyph-name="Egrave" unicode="&#xc8;" horiz-adv-x="629" 
d="M371 874h-38l-129 183h100zM552 800l3 -27l19 -161l-24 -3q-11 93 -30.5 121.5t-66.5 28.5h-214v-318h131q48 0 63.5 21t15.5 96h24v-276h-24q0 75 -15.5 96t-63.5 21h-131v-301q0 -35 9 -46t38 -11h180q47 0 72.5 34.5t56.5 145.5l23 -6l-53 -190l-7 -25h-538v24
q68 0 87.5 16t19.5 63v594q0 47 -19.5 63t-87.5 16v24h532z" />
    <glyph glyph-name="Eacute" unicode="&#xc9;" horiz-adv-x="629" 
d="M275 874l67 183h100l-129 -183h-38zM552 800l3 -27l19 -161l-24 -3q-11 93 -30.5 121.5t-66.5 28.5h-214v-318h131q48 0 63.5 21t15.5 96h24v-276h-24q0 75 -15.5 96t-63.5 21h-131v-301q0 -35 9 -46t38 -11h180q47 0 72.5 34.5t56.5 145.5l23 -6l-53 -190l-7 -25h-538
v24q68 0 87.5 16t19.5 63v594q0 47 -19.5 63t-87.5 16v24h532z" />
    <glyph glyph-name="Ecircumflex" unicode="&#xca;" horiz-adv-x="629" 
d="M317 999l-106 -129h-38l95 184h97l95 -184h-38zM595 221l23 -6l-53 -190l-7 -25h-538v24q68 0 87.5 16t19.5 63v594q0 47 -19.5 63t-87.5 16v24h532l3 -27l19 -161l-24 -3q-11 93 -30.5 121.5t-66.5 28.5h-214v-318h131q48 0 63.5 21t15.5 96h24v-276h-24q0 75 -15.5 96
t-63.5 21h-131v-301q0 -35 9 -46t38 -11h180q47 0 72.5 34.5t56.5 145.5z" />
    <glyph glyph-name="Edieresis" unicode="&#xcb;" horiz-adv-x="629" 
d="M218 909q-24 0 -41.5 17t-17.5 41q0 25 17.5 42t41.5 17t41.5 -17t17.5 -42q0 -24 -17.5 -41t-41.5 -17zM415 909q-24 0 -41 17t-17 41q0 25 17 42t41 17q25 0 42 -17t17 -42q0 -24 -17 -41t-42 -17zM552 800l3 -27l19 -161l-24 -3q-11 93 -30.5 121.5t-66.5 28.5h-214
v-318h131q48 0 63.5 21t15.5 96h24v-276h-24q0 75 -15.5 96t-63.5 21h-131v-301q0 -35 9 -46t38 -11h180q47 0 72.5 34.5t56.5 145.5l23 -6l-53 -190l-7 -25h-538v24q68 0 87.5 16t19.5 63v594q0 47 -19.5 63t-87.5 16v24h532z" />
    <glyph glyph-name="Igrave" unicode="&#xcc;" horiz-adv-x="366" 
d="M238 874h-38l-129 183h100zM127 697q0 47 -19.5 63t-87.5 16v24h326v-24q-68 0 -87.5 -16t-19.5 -63v-594q0 -47 19.5 -63t87.5 -16v-24h-326v24q68 0 87.5 16t19.5 63v594z" />
    <glyph glyph-name="Iacute" unicode="&#xcd;" horiz-adv-x="366" 
d="M141 874l67 183h100l-129 -183h-38zM127 697q0 47 -19.5 63t-87.5 16v24h326v-24q-68 0 -87.5 -16t-19.5 -63v-594q0 -47 19.5 -63t87.5 -16v-24h-326v24q68 0 87.5 16t19.5 63v594z" />
    <glyph glyph-name="Icircumflex" unicode="&#xce;" horiz-adv-x="366" 
d="M183 999l-106 -129h-38l95 184h97l95 -184h-38zM346 776q-68 0 -87.5 -16t-19.5 -63v-594q0 -47 19.5 -63t87.5 -16v-24h-326v24q68 0 87.5 16t19.5 63v594q0 47 -19.5 63t-87.5 16v24h326v-24z" />
    <glyph glyph-name="Idieresis" unicode="&#xcf;" horiz-adv-x="366" 
d="M84 909q-24 0 -41.5 17t-17.5 41q0 25 17.5 42t41.5 17t41.5 -17t17.5 -42q0 -24 -17.5 -41t-41.5 -17zM281 909q-24 0 -41 17t-17 41q0 25 17 42t41 17q25 0 42 -17t17 -42q0 -24 -17 -41t-42 -17zM127 697q0 47 -19.5 63t-87.5 16v24h326v-24q-68 0 -87.5 -16
t-19.5 -63v-594q0 -47 19.5 -63t87.5 -16v-24h-326v24q68 0 87.5 16t19.5 63v594z" />
    <glyph glyph-name="Eth" unicode="&#xd0;" horiz-adv-x="770" 
d="M342 800q171 0 281.5 -102t110.5 -298q0 -100 -31.5 -178t-86.5 -125.5t-124.5 -72t-149.5 -24.5h-322v24q68 0 87.5 16t19.5 63v312h-87v30h87v252q0 47 -19.5 63t-87.5 16v24h322zM342 41q128 0 198.5 95.5t70.5 263.5t-70.5 263.5t-198.5 95.5q-64 0 -103 -18v-296
h178v-30h-178v-356q39 -18 103 -18z" />
    <glyph glyph-name="Ntilde" unicode="&#xd1;" horiz-adv-x="772" 
d="M297 977q-26 0 -37.5 -17t-16.5 -52h-24q13 139 86 139q33 0 79 -34.5t73 -34.5q26 0 37.5 17t15.5 52h24q-13 -139 -86 -139q-32 0 -78 34.5t-73 34.5zM752 800v-24q-67 0 -86.5 -15.5t-19.5 -63.5v-720h-50l-428 696v-570q0 -47 19.5 -63t87.5 -16v-24h-255v24
q68 0 87.5 16t19.5 63v634q-19 23 -43 31t-64 8v24h209l372 -606h3v503q0 48 -19.5 63.5t-86.5 15.5v24h254z" />
    <glyph glyph-name="Ograve" unicode="&#xd2;" horiz-adv-x="702" 
d="M406 874h-38l-129 183h100zM351 -20q-97 0 -169.5 57t-109 151.5t-36.5 211.5t36.5 211.5t109 151.5t169.5 57q145 0 230 -120t85 -300t-85 -300t-230 -120zM384 19q89 8 131.5 110t26.5 288q-16 185 -76 279t-148 86q-89 -8 -132 -110.5t-27 -288.5q17 -186 76.5 -279
t148.5 -85z" />
    <glyph glyph-name="Oacute" unicode="&#xd3;" horiz-adv-x="702" 
d="M309 874l67 183h100l-129 -183h-38zM351 -20q-97 0 -169.5 57t-109 151.5t-36.5 211.5t36.5 211.5t109 151.5t169.5 57q145 0 230 -120t85 -300t-85 -300t-230 -120zM384 19q89 8 131.5 110t26.5 288q-16 185 -76 279t-148 86q-89 -8 -132 -110.5t-27 -288.5
q17 -186 76.5 -279t148.5 -85z" />
    <glyph glyph-name="Ocircumflex" unicode="&#xd4;" horiz-adv-x="702" 
d="M352 999l-106 -129h-38l95 184h97l95 -184h-38zM351 820q145 0 230 -120t85 -300t-85 -300t-230 -120q-97 0 -169.5 57t-109 151.5t-36.5 211.5t36.5 211.5t109 151.5t169.5 57zM384 19q89 8 131.5 110t26.5 288q-16 185 -76 279t-148 86q-89 -8 -132 -110.5t-27 -288.5
q17 -186 76.5 -279t148.5 -85z" />
    <glyph glyph-name="Otilde" unicode="&#xd5;" horiz-adv-x="702" 
d="M423 908q-33 0 -79 34.5t-72 34.5t-37.5 -17t-16.5 -52h-24q13 139 86 139q33 0 79 -34.5t73 -34.5q26 0 37.5 17t15.5 52h24q-13 -139 -86 -139zM351 -20q-97 0 -169.5 57t-109 151.5t-36.5 211.5t36.5 211.5t109 151.5t169.5 57q145 0 230 -120t85 -300t-85 -300
t-230 -120zM384 19q89 8 131.5 110t26.5 288q-16 185 -76 279t-148 86q-89 -8 -132 -110.5t-27 -288.5q17 -186 76.5 -279t148.5 -85z" />
    <glyph glyph-name="Odieresis" unicode="&#xd6;" horiz-adv-x="702" 
d="M253 909q-24 0 -41.5 17t-17.5 41q0 25 17.5 42t41.5 17t41.5 -17t17.5 -42q0 -24 -17.5 -41t-41.5 -17zM450 909q-24 0 -41 17t-17 41q0 25 17 42t41 17q25 0 42 -17t17 -42q0 -24 -17 -41t-42 -17zM351 -20q-97 0 -169.5 57t-109 151.5t-36.5 211.5t36.5 211.5
t109 151.5t169.5 57q145 0 230 -120t85 -300t-85 -300t-230 -120zM384 19q89 8 131.5 110t26.5 288q-16 185 -76 279t-148 86q-89 -8 -132 -110.5t-27 -288.5q17 -186 76.5 -279t148.5 -85z" />
    <glyph glyph-name="multiply" unicode="&#xd7;" horiz-adv-x="443" 
d="M50 387l52 52l120 -119l119 118l52 -52l-119 -119l118 -118l-52 -52l-118 118l-119 -119l-52 53l119 118z" />
    <glyph glyph-name="Oslash" unicode="&#xd8;" horiz-adv-x="722" 
d="M564 722q102 -119 102 -322q0 -180 -85 -300t-230 -120q-103 0 -178 64l-67 -117l-26 15l71 123q-115 120 -115 335q0 117 36.5 211.5t109 151.5t169.5 57q112 0 191 -76l75 130l26 -15zM159 383q12 -132 48 -221l282 490q-62 139 -171 130q-89 -8 -132 -110.5
t-27 -288.5zM384 19q89 8 131.5 110t26.5 288q-11 120 -39 199l-281 -488q61 -118 162 -109z" />
    <glyph glyph-name="Ugrave" unicode="&#xd9;" horiz-adv-x="787" 
d="M481 874h-38l-129 183h100zM619 697q0 48 -19.5 63.5t-87.5 15.5v24h255v-24q-68 0 -87.5 -16t-19.5 -63v-457q0 -51 -10.5 -93.5t-36 -82t-75 -62t-119.5 -22.5q-146 0 -219 71t-73 196v450q0 47 -19.5 63t-87.5 16v24h326v-24q-68 0 -87.5 -16t-19.5 -63v-457
q0 -114 47.5 -166.5t144.5 -52.5q188 0 188 219v457z" />
    <glyph glyph-name="Uacute" unicode="&#xda;" horiz-adv-x="787" 
d="M385 874l67 183h100l-129 -183h-38zM619 697q0 48 -19.5 63.5t-87.5 15.5v24h255v-24q-68 0 -87.5 -16t-19.5 -63v-457q0 -51 -10.5 -93.5t-36 -82t-75 -62t-119.5 -22.5q-146 0 -219 71t-73 196v450q0 47 -19.5 63t-87.5 16v24h326v-24q-68 0 -87.5 -16t-19.5 -63v-457
q0 -114 47.5 -166.5t144.5 -52.5q188 0 188 219v457z" />
    <glyph glyph-name="Ucircumflex" unicode="&#xdb;" horiz-adv-x="787" 
d="M427 999l-106 -129h-38l95 184h97l95 -184h-38zM767 800v-24q-68 0 -87.5 -16t-19.5 -63v-457q0 -51 -10.5 -93.5t-36 -82t-75 -62t-119.5 -22.5q-146 0 -219 71t-73 196v450q0 47 -19.5 63t-87.5 16v24h326v-24q-68 0 -87.5 -16t-19.5 -63v-457q0 -114 47.5 -166.5
t144.5 -52.5q188 0 188 219v457q0 48 -19.5 63.5t-87.5 15.5v24h255z" />
    <glyph glyph-name="Udieresis" unicode="&#xdc;" horiz-adv-x="787" 
d="M328 909q-24 0 -41.5 17t-17.5 41q0 25 17.5 42t41.5 17t41.5 -17t17.5 -42q0 -24 -17.5 -41t-41.5 -17zM525 909q-24 0 -41 17t-17 41q0 25 17 42t41 17q25 0 42 -17t17 -42q0 -24 -17 -41t-42 -17zM619 697q0 48 -19.5 63.5t-87.5 15.5v24h255v-24q-68 0 -87.5 -16
t-19.5 -63v-457q0 -51 -10.5 -93.5t-36 -82t-75 -62t-119.5 -22.5q-146 0 -219 71t-73 196v450q0 47 -19.5 63t-87.5 16v24h326v-24q-68 0 -87.5 -16t-19.5 -63v-457q0 -114 47.5 -166.5t144.5 -52.5q188 0 188 219v457z" />
    <glyph glyph-name="Yacute" unicode="&#xdd;" horiz-adv-x="703" 
d="M343 874l67 183h100l-129 -183h-38zM418 103q0 -48 19.5 -63.5t86.5 -15.5v-24h-326v24q68 0 87.5 15.5t19.5 63.5v249l-178 356q-21 42 -45 55t-72 13v24h311v-24q-66 0 -75.5 -14t14.5 -55l142 -285h3l129 284q22 42 12 56t-76 14v24h223v-24q-47 0 -70.5 -13.5
t-43.5 -56.5l-161 -354v-249z" />
    <glyph glyph-name="Thorn" unicode="&#xde;" horiz-adv-x="645" 
d="M20 0v24q68 0 87.5 16t19.5 63v594q0 47 -19.5 63t-87.5 16v24h326v-24q-68 0 -87.5 -16t-19.5 -63v-66h92q136 0 210 -57.5t74 -173.5q0 -111 -69.5 -169t-170.5 -58q-55 0 -136 23v-93q0 -47 19.5 -63t87.5 -16v-24h-326zM344 214q65 0 106.5 49.5t41.5 136.5
q0 92 -46.5 141t-118.5 49q-46 0 -88 -18v-337q55 -21 105 -21z" />
    <glyph glyph-name="germandbls" unicode="&#xdf;" horiz-adv-x="595" 
d="M43 0v24q44 0 57 15t13 64v425h-63v23q37 0 50 11.5t13 46.5q0 110 56 160.5t149 50.5q89 0 141.5 -43t52.5 -120q0 -127 -145 -187v-3q78 -17 138 -89t60 -174q0 -100 -43.5 -162t-117.5 -62q-56 0 -82 22.5t-26 55.5q0 19 12.5 32t32.5 13q21 0 31.5 -13.5t8.5 -35.5
q-4 -20 -1.5 -32t19.5 -12q58 0 58 183q0 119 -50.5 184t-130.5 65v23q60 29 94.5 79.5t34.5 108.5t-23.5 92t-69.5 34q-105 0 -105 -162v-514q0 -49 13 -64t57 -15v-24h-234z" />
    <glyph glyph-name="agrave" unicode="&#xe0;" horiz-adv-x="480" 
d="M289 628h-38l-129 183h100zM447 68h23q-12 -44 -31 -66t-59 -22q-85 0 -85 99v4h-2q-63 -103 -150 -103q-52 0 -82.5 34t-30.5 92q0 34 11 62.5t28.5 48.5t44.5 37.5t52.5 30t58.5 27.5q5 2 8 3.5t7 3t8 3.5l47 22v47q0 64 -14.5 93t-61.5 29q-30 0 -49.5 -13t-19.5 -35
q0 -12 8 -30t8 -32q0 -18 -14.5 -29t-38.5 -11q-55 0 -55 69q0 53 47 84.5t121 31.5q77 0 120 -39.5t43 -119.5v-321q0 -25 4.5 -36t17.5 -11q12 0 19 10t17 37zM189 50q28 0 52 17t54 55v185l-44 -21q-128 -60 -128 -155q0 -39 18 -60t48 -21z" />
    <glyph glyph-name="aacute" unicode="&#xe1;" horiz-adv-x="480" 
d="M360 811l-129 -183h-38l67 183h100zM447 68h23q-12 -44 -31 -66t-59 -22q-85 0 -85 99v4h-2q-63 -103 -150 -103q-52 0 -82.5 34t-30.5 92q0 34 11 62.5t28.5 48.5t44.5 37.5t52.5 30t58.5 27.5q5 2 8 3.5t7 3t8 3.5l47 22v47q0 64 -14.5 93t-61.5 29q-30 0 -49.5 -13
t-19.5 -35q0 -12 8 -30t8 -32q0 -18 -14.5 -29t-38.5 -11q-55 0 -55 69q0 53 47 84.5t121 31.5q77 0 120 -39.5t43 -119.5v-321q0 -25 4.5 -36t17.5 -11q12 0 19 10t17 37zM189 50q28 0 52 17t54 55v185l-44 -21q-128 -60 -128 -155q0 -39 18 -60t48 -21z" />
    <glyph glyph-name="acircumflex" unicode="&#xe2;" horiz-adv-x="480" 
d="M235 753l-106 -129h-38l95 184h97l95 -184h-38zM447 68h23q-12 -44 -31 -66t-59 -22q-85 0 -85 99v4h-2q-63 -103 -150 -103q-52 0 -82.5 34t-30.5 92q0 34 11 62.5t28.5 48.5t44.5 37.5t52.5 30t58.5 27.5q5 2 8 3.5t7 3t8 3.5l47 22v47q0 64 -14.5 93t-61.5 29
q-30 0 -49.5 -13t-19.5 -35q0 -12 8 -30t8 -32q0 -18 -14.5 -29t-38.5 -11q-55 0 -55 69q0 53 47 84.5t121 31.5q77 0 120 -39.5t43 -119.5v-321q0 -25 4.5 -36t17.5 -11q12 0 19 10t17 37zM189 50q28 0 52 17t54 55v185l-44 -21q-128 -60 -128 -155q0 -39 18 -60t48 -21z
" />
    <glyph glyph-name="atilde" unicode="&#xe3;" horiz-adv-x="480" 
d="M155 731q-26 0 -37.5 -17t-16.5 -52h-24q13 139 86 139q33 0 79 -34.5t73 -34.5q26 0 37.5 17t15.5 52h24q-13 -139 -86 -139q-32 0 -78 34.5t-73 34.5zM447 68h23q-12 -44 -31 -66t-59 -22q-85 0 -85 99v4h-2q-63 -103 -150 -103q-52 0 -82.5 34t-30.5 92q0 34 11 62.5
t28.5 48.5t44.5 37.5t52.5 30t58.5 27.5q5 2 8 3.5t7 3t8 3.5l47 22v47q0 64 -14.5 93t-61.5 29q-30 0 -49.5 -13t-19.5 -35q0 -12 8 -30t8 -32q0 -18 -14.5 -29t-38.5 -11q-55 0 -55 69q0 53 47 84.5t121 31.5q77 0 120 -39.5t43 -119.5v-321q0 -25 4.5 -36t17.5 -11
q12 0 19 10t17 37zM189 50q28 0 52 17t54 55v185l-44 -21q-128 -60 -128 -155q0 -39 18 -60t48 -21z" />
    <glyph glyph-name="adieresis" unicode="&#xe4;" horiz-adv-x="480" 
d="M136 663q-24 0 -41.5 17t-17.5 41q0 25 17.5 42t41.5 17t41.5 -17t17.5 -42q0 -24 -17.5 -41t-41.5 -17zM333 663q-24 0 -41 17t-17 41q0 25 17 42t41 17q25 0 42 -17t17 -42q0 -24 -17 -41t-42 -17zM447 68h23q-12 -44 -31 -66t-59 -22q-85 0 -85 99v4h-2
q-63 -103 -150 -103q-52 0 -82.5 34t-30.5 92q0 34 11 62.5t28.5 48.5t44.5 37.5t52.5 30t58.5 27.5q5 2 8 3.5t7 3t8 3.5l47 22v47q0 64 -14.5 93t-61.5 29q-30 0 -49.5 -13t-19.5 -35q0 -12 8 -30t8 -32q0 -18 -14.5 -29t-38.5 -11q-55 0 -55 69q0 53 47 84.5t121 31.5
q77 0 120 -39.5t43 -119.5v-321q0 -25 4.5 -36t17.5 -11q12 0 19 10t17 37zM189 50q28 0 52 17t54 55v185l-44 -21q-128 -60 -128 -155q0 -39 18 -60t48 -21z" />
    <glyph glyph-name="aring" unicode="&#xe5;" horiz-adv-x="480" 
d="M235 627q-44 0 -73.5 30.5t-29.5 72.5q0 41 29.5 71t73.5 30q43 0 72 -30t29 -71q0 -42 -29 -72.5t-72 -30.5zM235 794q-31 0 -48 -19t-17 -45t17 -45.5t48 -19.5q30 0 47 19.5t17 45.5t-17 45t-47 19zM447 68h23q-12 -44 -31 -66t-59 -22q-85 0 -85 99v4h-2
q-63 -103 -150 -103q-52 0 -82.5 34t-30.5 92q0 34 11 62.5t28.5 48.5t44.5 37.5t52.5 30t58.5 27.5q5 2 8 3.5t7 3t8 3.5l47 22v47q0 64 -14.5 93t-61.5 29q-30 0 -49.5 -13t-19.5 -35q0 -12 8 -30t8 -32q0 -18 -14.5 -29t-38.5 -11q-55 0 -55 69q0 53 47 84.5t121 31.5
q77 0 120 -39.5t43 -119.5v-321q0 -25 4.5 -36t17.5 -11q12 0 19 10t17 37zM189 50q28 0 52 17t54 55v185l-44 -21q-128 -60 -128 -155q0 -39 18 -60t48 -21z" />
    <glyph glyph-name="ae" unicode="&#xe6;" horiz-adv-x="695" 
d="M634 210h24q-15 -114 -62 -172t-118 -58q-112 0 -159 126q-80 -126 -176 -126q-52 0 -82.5 33.5t-30.5 89.5q0 35 13 64.5t29 49t49 40.5t53.5 31t62.5 29q7 3 11 5l47 22v47q0 63 -14 92.5t-59 29.5q-29 0 -48.5 -13t-19.5 -35q0 -12 8 -30t8 -32q0 -18 -14.5 -29
t-38.5 -11q-26 0 -41 18t-15 51q0 53 47 84.5t120 31.5q97 0 136 -61q50 61 123 61q83 0 126.5 -71t43.5 -185h-266v-4q0 -105 31.5 -169.5t89.5 -64.5q85 0 122 156zM483 506q-81 0 -91 -173h169q0 173 -78 173zM189 50q59 0 121 84q-15 54 -15 126v47l-44 -21
q-128 -60 -128 -155q0 -40 18 -60.5t48 -20.5z" />
    <glyph glyph-name="ccedilla" unicode="&#xe7;" horiz-adv-x="437" 
d="M260 -53q42 -3 72 -24t30 -60q0 -46 -36 -75t-87 -36.5t-110 0.5l6 23q72 -5 112.5 14.5t40.5 64.5q0 67 -103 69l54 57h-7q-92 0 -144 74.5t-52 199.5q0 134 58.5 214t152.5 80q65 0 109.5 -40t44.5 -91q0 -54 -51 -54q-54 0 -58 55q-3 44 -14.5 66t-36.5 22
q-49 0 -73 -60.5t-24 -166.5q0 -110 34.5 -173t94.5 -63q41 0 69.5 37.5t50.5 127.5h24q-24 -176 -122 -217z" />
    <glyph glyph-name="egrave" unicode="&#xe8;" horiz-adv-x="436" 
d="M283 628h-38l-129 183h100zM375 210h24q-15 -114 -62 -172t-118 -58q-85 0 -134 75.5t-49 204.5q0 121 52 204.5t140 83.5q83 0 126.5 -71t43.5 -185h-265v-4q0 -105 31 -169.5t89 -64.5q85 0 122 156zM224 506q-81 0 -90 -173h168q0 173 -78 173z" />
    <glyph glyph-name="eacute" unicode="&#xe9;" horiz-adv-x="436" 
d="M354 811l-129 -183h-38l67 183h100zM375 210h24q-15 -114 -62 -172t-118 -58q-85 0 -134 75.5t-49 204.5q0 121 52 204.5t140 83.5q83 0 126.5 -71t43.5 -185h-265v-4q0 -105 31 -169.5t89 -64.5q85 0 122 156zM224 506q-81 0 -90 -173h168q0 173 -78 173z" />
    <glyph glyph-name="ecircumflex" unicode="&#xea;" horiz-adv-x="436" 
d="M229 753l-106 -129h-38l95 184h97l95 -184h-38zM375 210h24q-15 -114 -62 -172t-118 -58q-85 0 -134 75.5t-49 204.5q0 121 52 204.5t140 83.5q83 0 126.5 -71t43.5 -185h-265v-4q0 -105 31 -169.5t89 -64.5q85 0 122 156zM224 506q-81 0 -90 -173h168q0 173 -78 173z
" />
    <glyph glyph-name="edieresis" unicode="&#xeb;" horiz-adv-x="436" 
d="M130 663q-24 0 -41.5 17t-17.5 41q0 25 17.5 42t41.5 17t41.5 -17t17.5 -42q0 -24 -17.5 -41t-41.5 -17zM327 663q-24 0 -41 17t-17 41q0 25 17 42t41 17q25 0 42 -17t17 -42q0 -24 -17 -41t-42 -17zM375 210h24q-15 -114 -62 -172t-118 -58q-85 0 -134 75.5t-49 204.5
q0 121 52 204.5t140 83.5q83 0 126.5 -71t43.5 -185h-265v-4q0 -105 31 -169.5t89 -64.5q85 0 122 156zM224 506q-81 0 -90 -173h168q0 173 -78 173z" />
    <glyph glyph-name="igrave" unicode="&#xec;" horiz-adv-x="281" 
d="M183 628h-38l-129 183h100zM191 103q0 -49 12.5 -64t57.5 -15v-24h-235v24q45 0 58 15t13 64v301q0 30 -0.5 40t-6 18.5t-16 5.5t-32.5 -14l-11 21l75 37l71 36l14 -14v-431z" />
    <glyph glyph-name="iacute" unicode="&#xed;" horiz-adv-x="281" 
d="M86 628l67 183h100l-129 -183h-38zM191 103q0 -49 12.5 -64t57.5 -15v-24h-235v24q45 0 58 15t13 64v301q0 30 -0.5 40t-6 18.5t-16 5.5t-32.5 -14l-11 21l75 37l71 36l14 -14v-431z" />
    <glyph glyph-name="icircumflex" unicode="&#xee;" horiz-adv-x="281" 
d="M233 624l-105 129l-106 -129h-38l95 184h97l95 -184h-38zM191 103q0 -49 12.5 -64t57.5 -15v-24h-235v24q45 0 58 15t13 64v301q0 30 -0.5 40t-6 18.5t-16 5.5t-32.5 -14l-11 21l75 37l71 36l14 -14v-431z" />
    <glyph glyph-name="idieresis" unicode="&#xef;" horiz-adv-x="281" 
d="M29 663q-24 0 -41.5 17t-17.5 41q0 25 17.5 42t41.5 17t41.5 -17t17.5 -42q0 -24 -17.5 -41t-41.5 -17zM226 663q-24 0 -41 17t-17 41q0 25 17 42t41 17q25 0 42 -17t17 -42q0 -24 -17 -41t-42 -17zM191 103q0 -49 12.5 -64t57.5 -15v-24h-235v24q45 0 58 15t13 64v301
q0 30 -0.5 40t-6 18.5t-16 5.5t-32.5 -14l-11 21l75 37l71 36l14 -14v-431z" />
    <glyph glyph-name="eth" unicode="&#xf0;" horiz-adv-x="565" 
d="M515 300q4 -142 -64.5 -231t-168.5 -89q-114 0 -173 88t-59 214q0 106 54.5 182t150.5 76q73 0 117 -54q-35 96 -95 174l-112 -65l-15 26l108 63q-51 60 -122 112v24q96 -49 167 -111l116 68l15 -26l-108 -63q89 -83 137.5 -183t51.5 -205zM282 21q65 0 97.5 77.5
t27.5 202.5q-2 61 -17 122q-41 76 -110 76q-64 0 -93 -65t-29 -162q0 -251 124 -251z" />
    <glyph glyph-name="ntilde" unicode="&#xf1;" horiz-adv-x="548" 
d="M351 662q-33 0 -79 34.5t-72 34.5t-37.5 -17t-16.5 -52h-24q13 139 86 139q33 0 79 -34.5t73 -34.5q26 0 37.5 17t15.5 52h24q-13 -139 -86 -139zM191 534v-89h3q71 103 156 103q107 0 107 -144v-301q0 -49 13 -64t58 -15v-24h-230v24q41 0 53 15t12 64v301q0 80 -55 80
t-117 -81v-300q0 -49 12 -64t53 -15v-24h-230v24q45 0 58 15t13 64v301q0 30 -0.5 40t-6 18.5t-16 5.5t-32.5 -14l-11 21l75 37l71 36z" />
    <glyph glyph-name="ograve" unicode="&#xf2;" horiz-adv-x="523" 
d="M316 628h-38l-129 183h100zM262 -20q-103 0 -164.5 80t-61.5 204q0 123 61.5 203.5t164.5 80.5q102 0 163.5 -80.5t61.5 -203.5q0 -124 -61.5 -204t-163.5 -80zM283 22q116 11 96 252q-10 120 -45.5 178t-93.5 53q-116 -11 -96 -252q23 -240 139 -231z" />
    <glyph glyph-name="oacute" unicode="&#xf3;" horiz-adv-x="523" 
d="M220 628l67 183h100l-129 -183h-38zM262 -20q-103 0 -164.5 80t-61.5 204q0 123 61.5 203.5t164.5 80.5q102 0 163.5 -80.5t61.5 -203.5q0 -124 -61.5 -204t-163.5 -80zM283 22q116 11 96 252q-10 120 -45.5 178t-93.5 53q-116 -11 -96 -252q23 -240 139 -231z" />
    <glyph glyph-name="ocircumflex" unicode="&#xf4;" horiz-adv-x="523" 
d="M262 753l-106 -129h-38l95 184h97l95 -184h-38zM262 548q102 0 163.5 -80.5t61.5 -203.5q0 -124 -61.5 -204t-163.5 -80q-103 0 -164.5 80t-61.5 204q0 123 61.5 203.5t164.5 80.5zM283 22q116 11 96 252q-10 120 -45.5 178t-93.5 53q-116 -11 -96 -252q23 -240 139 -231
z" />
    <glyph glyph-name="otilde" unicode="&#xf5;" horiz-adv-x="523" 
d="M333 662q-33 0 -79 34.5t-72 34.5t-37.5 -17t-16.5 -52h-24q13 139 86 139q33 0 79 -34.5t73 -34.5q26 0 37.5 17t15.5 52h24q-13 -139 -86 -139zM262 -20q-103 0 -164.5 80t-61.5 204q0 123 61.5 203.5t164.5 80.5q102 0 163.5 -80.5t61.5 -203.5q0 -124 -61.5 -204
t-163.5 -80zM283 22q116 11 96 252q-10 120 -45.5 178t-93.5 53q-116 -11 -96 -252q23 -240 139 -231z" />
    <glyph glyph-name="odieresis" unicode="&#xf6;" horiz-adv-x="523" 
d="M163 663q-24 0 -41.5 17t-17.5 41q0 25 17.5 42t41.5 17t41.5 -17t17.5 -42q0 -24 -17.5 -41t-41.5 -17zM360 663q-24 0 -41 17t-17 41q0 25 17 42t41 17q25 0 42 -17t17 -42q0 -24 -17 -41t-42 -17zM262 -20q-103 0 -164.5 80t-61.5 204q0 123 61.5 203.5t164.5 80.5
q102 0 163.5 -80.5t61.5 -203.5q0 -124 -61.5 -204t-163.5 -80zM283 22q116 11 96 252q-10 120 -45.5 178t-93.5 53q-116 -11 -96 -252q23 -240 139 -231z" />
    <glyph glyph-name="divide" unicode="&#xf7;" horiz-adv-x="445" 
d="M223 398q-19 0 -33 13.5t-14 32.5t14 32.5t33 13.5t32.5 -13.5t13.5 -32.5t-13.5 -32.5t-32.5 -13.5zM50 233v74h345v-74h-345zM223 50q-19 0 -33 13.5t-14 32.5t14 33t33 14t32.5 -14t13.5 -33t-13.5 -32.5t-32.5 -13.5z" />
    <glyph glyph-name="oslash" unicode="&#xf8;" horiz-adv-x="523" 
d="M410 486q77 -80 77 -222q0 -124 -61.5 -204t-163.5 -80q-69 0 -122 39l-45 -78l-29 17l48 83q-78 80 -78 223q0 123 61.5 203.5t164.5 80.5q71 0 122 -39l45 77l29 -16zM144 253q8 -73 22 -122l176 305q-36 75 -102 69q-116 -11 -96 -252zM283 22q116 11 96 252
q-6 75 -22 122l-175 -305q36 -74 101 -69z" />
    <glyph glyph-name="ugrave" unicode="&#xf9;" horiz-adv-x="527" 
d="M320 628h-38l-129 183h100zM353 -6v89h-3q-72 -103 -153 -103q-107 0 -107 144v293q0 51 -10 62t-54 -1l-6 23l80 22l70 18l14 -13v-404q0 -81 55 -81q50 0 114 81v293q0 51 -10.5 62t-54.5 -1l-6 23l81 22l70 18l14 -13v-405q0 -53 7 -60q8 -9 45 10l11 -21l-143 -72z
" />
    <glyph glyph-name="uacute" unicode="&#xfa;" horiz-adv-x="527" 
d="M223 628l67 183h100l-129 -183h-38zM353 -6v89h-3q-72 -103 -153 -103q-107 0 -107 144v293q0 51 -10 62t-54 -1l-6 23l80 22l70 18l14 -13v-404q0 -81 55 -81q50 0 114 81v293q0 51 -10.5 62t-54.5 -1l-6 23l81 22l70 18l14 -13v-405q0 -53 7 -60q8 -9 45 10l11 -21
l-143 -72z" />
    <glyph glyph-name="ucircumflex" unicode="&#xfb;" horiz-adv-x="527" 
d="M265 753l-106 -129h-38l95 184h97l95 -184h-38zM499 73l11 -21l-143 -72l-14 14v89h-3q-72 -103 -153 -103q-107 0 -107 144v293q0 51 -10 62t-54 -1l-6 23l80 22l70 18l14 -13v-404q0 -81 55 -81q50 0 114 81v293q0 51 -10.5 62t-54.5 -1l-6 23l81 22l70 18l14 -13v-405
q0 -53 7 -60q8 -9 45 10z" />
    <glyph glyph-name="udieresis" unicode="&#xfc;" horiz-adv-x="527" 
d="M166 663q-24 0 -41.5 17t-17.5 41q0 25 17.5 42t41.5 17t41.5 -17t17.5 -42q0 -24 -17.5 -41t-41.5 -17zM363 663q-24 0 -41 17t-17 41q0 25 17 42t41 17q25 0 42 -17t17 -42q0 -24 -17 -41t-42 -17zM353 -6v89h-3q-72 -103 -153 -103q-107 0 -107 144v293q0 51 -10 62
t-54 -1l-6 23l80 22l70 18l14 -13v-404q0 -81 55 -81q50 0 114 81v293q0 51 -10.5 62t-54.5 -1l-6 23l81 22l70 18l14 -13v-405q0 -53 7 -60q8 -9 45 10l11 -21l-143 -72z" />
    <glyph glyph-name="yacute" unicode="&#xfd;" horiz-adv-x="497" 
d="M214 628l67 183h100l-129 -183h-38zM23 -167q0 24 15.5 39.5t37.5 15.5q29 0 51 -28q15 -21 33 -21q26 0 44.5 34.5t36.5 113.5l-144 442q-15 45 -31.5 60t-49.5 15v24h236v-24q-46 0 -53.5 -14.5t8.5 -61.5l83 -281l72 281q14 46 6 61t-54 15v24h166v-24
q-32 0 -47.5 -15t-28.5 -61l-110 -410q-3 -10 -10.5 -37t-10.5 -38t-10.5 -35t-12.5 -35t-14 -30.5t-17 -28.5t-19.5 -21.5t-24 -18t-28 -10t-33.5 -4.5q-40 0 -65.5 20.5t-25.5 52.5z" />
    <glyph glyph-name="thorn" unicode="&#xfe;" horiz-adv-x="571" 
d="M361 548q82 0 128 -72.5t46 -180.5q0 -132 -61 -223.5t-155 -91.5q-85 0 -126 77h-2v-174q0 -50 12.5 -64.5t57.5 -14.5v-24h-235v24q45 0 58 15t13 64v794q0 54 -7 61q-9 7 -46 -11l-10 21l143 72l14 -14v-381h4q65 123 166 123zM298 21q68 0 99 70.5t31 174.5
q0 223 -105 223q-80 0 -132 -102v-189q0 -83 29.5 -130t77.5 -47z" />
    <glyph glyph-name="ydieresis" unicode="&#xff;" horiz-adv-x="497" 
d="M158 663q-24 0 -41.5 17t-17.5 41q0 25 17.5 42t41.5 17t41.5 -17t17.5 -42q0 -24 -17.5 -41t-41.5 -17zM355 663q-24 0 -41 17t-17 41q0 25 17 42t41 17q25 0 42 -17t17 -42q0 -24 -17 -41t-42 -17zM23 -167q0 24 15.5 39.5t37.5 15.5q29 0 51 -28q15 -21 33 -21
q26 0 44.5 34.5t36.5 113.5l-144 442q-15 45 -31.5 60t-49.5 15v24h236v-24q-46 0 -53.5 -14.5t8.5 -61.5l83 -281l72 281q14 46 6 61t-54 15v24h166v-24q-32 0 -47.5 -15t-28.5 -61l-110 -410q-3 -10 -10.5 -37t-10.5 -38t-10.5 -35t-12.5 -35t-14 -30.5t-17 -28.5
t-19.5 -21.5t-24 -18t-28 -10t-33.5 -4.5q-40 0 -65.5 20.5t-25.5 52.5z" />
    <glyph glyph-name="Amacron" unicode="&#x100;" horiz-adv-x="741" 
d="M514 999v-41h-295v41h295zM628 98q15 -45 35.5 -59.5t67.5 -14.5v-24h-303v24q67 0 79.5 15t-4.5 59l-48 147h-256l-46 -147q-17 -44 -4 -59t80 -15v-24h-219v24q46 0 66.5 14.5t35.5 59.5l229 725h50zM212 287h230l-115 355h-3z" />
    <glyph glyph-name="amacron" unicode="&#x101;" horiz-adv-x="480" 
d="M382 734v-41h-295v41h295zM447 68h23q-12 -44 -31 -66t-59 -22q-85 0 -85 99v4h-2q-63 -103 -150 -103q-52 0 -82.5 34t-30.5 92q0 34 11 62.5t28.5 48.5t44.5 37.5t52.5 30t58.5 27.5q5 2 8 3.5t7 3t8 3.5l47 22v47q0 64 -14.5 93t-61.5 29q-30 0 -49.5 -13t-19.5 -35
q0 -12 8 -30t8 -32q0 -18 -14.5 -29t-38.5 -11q-55 0 -55 69q0 53 47 84.5t121 31.5q77 0 120 -39.5t43 -119.5v-321q0 -25 4.5 -36t17.5 -11q12 0 19 10t17 37zM189 50q28 0 52 17t54 55v185l-44 -21q-128 -60 -128 -155q0 -39 18 -60t48 -21z" />
    <glyph glyph-name="Abreve" unicode="&#x102;" horiz-adv-x="741" 
d="M367 915q-60 0 -97 37t-41 106h24q11 -69 114 -69q48 0 78 17.5t35 51.5h24q-4 -69 -40.5 -106t-96.5 -37zM628 98q15 -45 35.5 -59.5t67.5 -14.5v-24h-303v24q67 0 79.5 15t-4.5 59l-48 147h-256l-46 -147q-17 -44 -4 -59t80 -15v-24h-219v24q46 0 66.5 14.5t35.5 59.5
l229 725h50zM212 287h230l-115 355h-3z" />
    <glyph glyph-name="abreve" unicode="&#x103;" horiz-adv-x="480" 
d="M235 650q-60 0 -97 37t-41 106h24q11 -69 114 -69q48 0 78 17.5t35 51.5h24q-4 -69 -40.5 -106t-96.5 -37zM447 68h23q-12 -44 -31 -66t-59 -22q-85 0 -85 99v4h-2q-63 -103 -150 -103q-52 0 -82.5 34t-30.5 92q0 34 11 62.5t28.5 48.5t44.5 37.5t52.5 30t58.5 27.5
q5 2 8 3.5t7 3t8 3.5l47 22v47q0 64 -14.5 93t-61.5 29q-30 0 -49.5 -13t-19.5 -35q0 -12 8 -30t8 -32q0 -18 -14.5 -29t-38.5 -11q-55 0 -55 69q0 53 47 84.5t121 31.5q77 0 120 -39.5t43 -119.5v-321q0 -25 4.5 -36t17.5 -11q12 0 19 10t17 37zM189 50q28 0 52 17t54 55
v185l-44 -21q-128 -60 -128 -155q0 -39 18 -60t48 -21z" />
    <glyph glyph-name="Aogonek" unicode="&#x104;" horiz-adv-x="741" 
d="M644 0q-12 -14 -42 -36.5t-44.5 -43t-14.5 -51.5q0 -30 17.5 -47.5t49.5 -17.5t82 23l6 -24q-55 -44 -118 -44q-47 0 -79 25.5t-32 71.5q0 44 26.5 71t70 46t52.5 27h-190v24q67 0 79.5 15t-4.5 59l-48 147h-256l-46 -147q-17 -44 -4 -59t80 -15v-24h-219v24
q46 0 66.5 14.5t35.5 59.5l229 725h50l237 -725q15 -45 35.5 -59.5t67.5 -14.5v-24h-87zM212 287h230l-115 355h-3z" />
    <glyph glyph-name="aogonek" unicode="&#x105;" horiz-adv-x="480" 
d="M471 -183l6 -24q-55 -44 -118 -44q-47 0 -79 25.5t-32 71.5q0 25 8.5 44.5t25.5 33.5t31 22.5t37.5 19t31.5 14.5h-2q-85 0 -85 99v4h-2q-63 -103 -150 -103q-52 0 -82.5 34t-30.5 92q0 34 11 62.5t28.5 48.5t44.5 37.5t52.5 30t58.5 27.5q5 2 8 3.5t7 3t8 3.5l47 22v47
q0 64 -14.5 93t-61.5 29q-30 0 -49.5 -13t-19.5 -35q0 -12 8 -30t8 -32q0 -18 -14.5 -29t-38.5 -11q-55 0 -55 69q0 53 47 84.5t121 31.5q77 0 120 -39.5t43 -119.5v-321q0 -25 4.5 -36t17.5 -11q12 0 19 10t17 37h23q-17 -61 -48 -79q-12 -13 -41.5 -35.5t-44 -43
t-14.5 -51.5q0 -30 17.5 -47.5t49.5 -17.5t82 23zM189 50q28 0 52 17t54 55v185l-44 -21q-128 -60 -128 -155q0 -39 18 -60t48 -21z" />
    <glyph glyph-name="Cacute" unicode="&#x106;" horiz-adv-x="671" 
d="M328 874l67 183h100l-129 -183h-38zM36 400q0 183 92.5 301.5t241.5 118.5q47 0 87.5 -14t65 -28t32.5 -14q11 0 15 9t4 37h23l15 -275h-23q-24 244 -197 244q-109 0 -171 -106.5t-62 -272.5q0 -165 61 -268t169 -103q94 0 157 78.5t81 215.5h24q-21 -159 -92 -251
t-194 -92q-149 0 -239 118t-90 302z" />
    <glyph glyph-name="cacute" unicode="&#x107;" horiz-adv-x="437" 
d="M216 628l67 183h100l-129 -183h-38zM292 418q-3 44 -14.5 66t-36.5 22q-49 0 -73 -60.5t-24 -166.5q0 -110 34.5 -173t94.5 -63q41 0 69.5 37.5t50.5 127.5h24q-31 -228 -185 -228q-92 0 -144 74.5t-52 199.5q0 134 58.5 214t152.5 80q65 0 109.5 -40t44.5 -91
q0 -54 -51 -54q-54 0 -58 55z" />
    <glyph glyph-name="Cdotaccent" unicode="&#x10a;" horiz-adv-x="671" 
d="M370 909q-24 0 -41.5 17t-17.5 41q0 25 17.5 42t41.5 17t41.5 -17t17.5 -42q0 -24 -17.5 -41t-41.5 -17zM36 400q0 183 92.5 301.5t241.5 118.5q47 0 87.5 -14t65 -28t32.5 -14q11 0 15 9t4 37h23l15 -275h-23q-24 244 -197 244q-109 0 -171 -106.5t-62 -272.5
q0 -165 61 -268t169 -103q94 0 157 78.5t81 215.5h24q-21 -159 -92 -251t-194 -92q-149 0 -239 118t-90 302z" />
    <glyph glyph-name="cdotaccent" unicode="&#x10b;" horiz-adv-x="437" 
d="M258 663q-24 0 -41.5 17t-17.5 41q0 25 17.5 42t41.5 17t41.5 -17t17.5 -42q0 -24 -17.5 -41t-41.5 -17zM292 418q-3 44 -14.5 66t-36.5 22q-49 0 -73 -60.5t-24 -166.5q0 -110 34.5 -173t94.5 -63q41 0 69.5 37.5t50.5 127.5h24q-31 -228 -185 -228q-92 0 -144 74.5
t-52 199.5q0 134 58.5 214t152.5 80q65 0 109.5 -40t44.5 -91q0 -54 -51 -54q-54 0 -58 55z" />
    <glyph glyph-name="Ccaron" unicode="&#x10c;" horiz-adv-x="671" 
d="M322 870l-95 184h38l105 -129l106 129h38l-95 -184h-97zM627 323h24q-21 -159 -92 -251t-194 -92q-149 0 -239 118t-90 302q0 183 92.5 301.5t241.5 118.5q47 0 87.5 -14t65 -28t32.5 -14q11 0 15 9t4 37h23l15 -275h-23q-24 244 -197 244q-109 0 -171 -106.5t-62 -272.5
q0 -165 61 -268t169 -103q94 0 157 78.5t81 215.5z" />
    <glyph glyph-name="ccaron" unicode="&#x10d;" horiz-adv-x="437" 
d="M209 624l-95 184h38l105 -129l106 129h38l-95 -184h-97zM393 208h24q-31 -228 -185 -228q-92 0 -144 74.5t-52 199.5q0 134 58.5 214t152.5 80q65 0 109.5 -40t44.5 -91q0 -54 -51 -54q-54 0 -58 55q-3 44 -14.5 66t-36.5 22q-49 0 -73 -60.5t-24 -166.5
q0 -110 34.5 -173t94.5 -63q41 0 69.5 37.5t50.5 127.5z" />
    <glyph glyph-name="Dcaron" unicode="&#x10e;" horiz-adv-x="770" 
d="M307 870l-95 184h38l105 -129l106 129h38l-95 -184h-97zM342 800q171 0 281.5 -102t110.5 -298q0 -100 -31.5 -178t-86.5 -125.5t-124.5 -72t-149.5 -24.5h-322v24q68 0 87.5 16t19.5 63v594q0 47 -19.5 63t-87.5 16v24h322zM342 41q128 0 198.5 95.5t70.5 263.5
t-70.5 263.5t-198.5 95.5q-64 0 -103 -18v-682q39 -18 103 -18z" />
    <glyph glyph-name="dcaron" unicode="&#x10f;" horiz-adv-x="651" 
d="M452 123q0 -53 7 -60q8 -9 45 10l11 -21l-143 -72l-14 14v87h-4q-32 -51 -65 -76t-79 -25q-80 0 -127 71t-47 192q0 133 54 219t146 86q72 0 120 -64h2v193q0 54 -7 60q-8 9 -45 -10l-11 21l143 72l14 -14v-683zM591 820q44 0 44 -56q0 -34 -13.5 -110.5t-17.5 -108.5
h-23q-5 38 -19 111.5t-14 107.5q0 56 43 56zM358 128v195q0 87 -28 135t-73 48q-113 0 -113 -233q0 -106 25.5 -170t78.5 -64q36 0 59.5 22.5t50.5 66.5z" />
    <glyph glyph-name="Dcroat" unicode="&#x110;" horiz-adv-x="770" 
d="M342 800q171 0 281.5 -102t110.5 -298q0 -100 -31.5 -178t-86.5 -125.5t-124.5 -72t-149.5 -24.5h-322v24q68 0 87.5 16t19.5 63v312h-87v30h87v252q0 47 -19.5 63t-87.5 16v24h322zM342 41q128 0 198.5 95.5t70.5 263.5t-70.5 263.5t-198.5 95.5q-64 0 -103 -18v-296
h178v-30h-178v-356q39 -18 103 -18z" />
    <glyph glyph-name="dcroat" unicode="&#x111;" horiz-adv-x="617" 
d="M452 623v-500q0 -53 7 -60q8 -9 45 10l11 -21l-143 -72l-14 14v87h-4q-32 -51 -65 -76t-79 -25q-80 0 -127 71t-47 192q0 133 54 219t146 86q72 0 120 -64h2v139h-119v30h119v24q0 54 -7 60q-8 9 -45 -10l-11 21l143 72l14 -14v-153h115v-30h-115zM358 128v195
q0 87 -28 135t-73 48q-113 0 -113 -233q0 -106 25.5 -170t78.5 -64q36 0 59.5 22.5t50.5 66.5z" />
    <glyph glyph-name="Emacron" unicode="&#x112;" horiz-adv-x="629" 
d="M169 980h295v-41h-295v41zM552 800l3 -27l19 -161l-24 -3q-11 93 -30.5 121.5t-66.5 28.5h-214v-318h131q48 0 63.5 21t15.5 96h24v-276h-24q0 75 -15.5 96t-63.5 21h-131v-301q0 -35 9 -46t38 -11h180q47 0 72.5 34.5t56.5 145.5l23 -6l-53 -190l-7 -25h-538v24
q68 0 87.5 16t19.5 63v594q0 47 -19.5 63t-87.5 16v24h532z" />
    <glyph glyph-name="emacron" unicode="&#x113;" horiz-adv-x="436" 
d="M376 734v-41h-295v41h295zM375 210h24q-15 -114 -62 -172t-118 -58q-85 0 -134 75.5t-49 204.5q0 121 52 204.5t140 83.5q83 0 126.5 -71t43.5 -185h-265v-4q0 -105 31 -169.5t89 -64.5q85 0 122 156zM224 506q-81 0 -90 -173h168q0 173 -78 173z" />
    <glyph glyph-name="Edotaccent" unicode="&#x116;" horiz-adv-x="629" 
d="M317 909q-24 0 -41.5 17t-17.5 41q0 25 17.5 42t41.5 17t41.5 -17t17.5 -42q0 -24 -17.5 -41t-41.5 -17zM552 800l3 -27l19 -161l-24 -3q-11 93 -30.5 121.5t-66.5 28.5h-214v-318h131q48 0 63.5 21t15.5 96h24v-276h-24q0 75 -15.5 96t-63.5 21h-131v-301q0 -35 9 -46
t38 -11h180q47 0 72.5 34.5t56.5 145.5l23 -6l-53 -190l-7 -25h-538v24q68 0 87.5 16t19.5 63v594q0 47 -19.5 63t-87.5 16v24h532z" />
    <glyph glyph-name="edotaccent" unicode="&#x117;" horiz-adv-x="436" 
d="M229 663q-24 0 -41.5 17t-17.5 41q0 25 17.5 42t41.5 17t41.5 -17t17.5 -42q0 -24 -17.5 -41t-41.5 -17zM375 210h24q-15 -114 -62 -172t-118 -58q-85 0 -134 75.5t-49 204.5q0 121 52 204.5t140 83.5q83 0 126.5 -71t43.5 -185h-265v-4q0 -105 31 -169.5t89 -64.5
q85 0 122 156zM224 506q-81 0 -90 -173h168q0 173 -78 173z" />
    <glyph glyph-name="Eogonek" unicode="&#x118;" horiz-adv-x="629" 
d="M524 -196q32 0 82 23l6 -24q-55 -44 -118 -44q-47 0 -79 25.5t-32 71.5q0 44 26.5 71t70 46t52.5 27h-512v24q68 0 87.5 16t19.5 63v594q0 47 -19.5 63t-87.5 16v24h532l3 -27l19 -161l-24 -3q-11 93 -30.5 121.5t-66.5 28.5h-214v-318h131q48 0 63.5 21t15.5 96h24v-276
h-24q0 75 -15.5 96t-63.5 21h-131v-301q0 -35 9 -46t38 -11h180q47 0 72.5 34.5t56.5 145.5l23 -6l-53 -190l-7 -25q-12 -14 -42 -36.5t-44.5 -43t-14.5 -51.5q0 -30 17.5 -47.5t49.5 -17.5z" />
    <glyph glyph-name="eogonek" unicode="&#x119;" horiz-adv-x="436" 
d="M242 -206q32 0 82 23l6 -24q-55 -44 -118 -44q-47 0 -79 25.5t-32 71.5q0 25 9 45t26 34t31.5 22.5t37 18.5t31.5 15q-5 -1 -17 -1q-85 0 -134 75.5t-49 204.5q0 121 52 204.5t140 83.5q83 0 126.5 -71t43.5 -185h-265v-4q0 -105 31 -169.5t89 -64.5q85 0 122 156h24
q-25 -181 -125 -220h2q-12 -14 -42 -36.5t-44.5 -43t-14.5 -51.5q0 -30 17.5 -47.5t49.5 -17.5zM224 506q-81 0 -90 -173h168q0 173 -78 173z" />
    <glyph glyph-name="Ecaron" unicode="&#x11a;" horiz-adv-x="629" 
d="M268 870l-95 184h38l105 -129l106 129h38l-95 -184h-97zM595 221l23 -6l-53 -190l-7 -25h-538v24q68 0 87.5 16t19.5 63v594q0 47 -19.5 63t-87.5 16v24h532l3 -27l19 -161l-24 -3q-11 93 -30.5 121.5t-66.5 28.5h-214v-318h131q48 0 63.5 21t15.5 96h24v-276h-24
q0 75 -15.5 96t-63.5 21h-131v-301q0 -35 9 -46t38 -11h180q47 0 72.5 34.5t56.5 145.5z" />
    <glyph glyph-name="ecaron" unicode="&#x11b;" horiz-adv-x="436" 
d="M180 624l-95 184h38l105 -129l106 129h38l-95 -184h-97zM375 210h24q-15 -114 -62 -172t-118 -58q-85 0 -134 75.5t-49 204.5q0 121 52 204.5t140 83.5q83 0 126.5 -71t43.5 -185h-265v-4q0 -105 31 -169.5t89 -64.5q85 0 122 156zM224 506q-81 0 -90 -173h168
q0 173 -78 173z" />
    <glyph glyph-name="Gbreve" unicode="&#x11e;" horiz-adv-x="775" 
d="M536 1039q-4 -69 -40.5 -106t-96.5 -37t-97 37t-41 106h24q11 -69 114 -69q48 0 78 17.5t35 51.5h24zM36 396q0 183 98 303.5t262 120.5q57 0 101 -13t67.5 -26t30.5 -13q10 0 13.5 8t3.5 34h24l15 -275h-24q-13 125 -64 184.5t-151 59.5q-125 0 -189 -106.5t-64 -276.5
q0 -112 24 -193t82.5 -131.5t149.5 -50.5t151 58v236q0 48 -33.5 63.5t-151.5 15.5v24h371v-24q-45 0 -58 -15t-13 -64v-230q-109 -105 -271 -105q-175 0 -274.5 117t-99.5 299z" />
    <glyph glyph-name="gbreve" unicode="&#x11f;" horiz-adv-x="490" 
d="M241 650q-60 0 -97 37t-41 106h24q5 -34 35.5 -51.5t78.5 -17.5t78 17.5t35 51.5h24q-4 -69 -40.5 -106t-96.5 -37zM250 85q112 0 169 -31t57 -102q0 -78 -79.5 -135t-193.5 -57q-84 0 -138.5 30t-54.5 91q0 70 98 143q-55 18 -55 71q0 46 67 109q-70 54 -70 153
q0 86 52.5 138.5t129.5 52.5q56 0 100 -29q60 29 111 29q37 0 37 -30q0 -25 -32 -25q-47 0 -77 -6l-10 7q52 -54 52 -137q0 -85 -52.5 -137.5t-128.5 -52.5q-50 0 -90 23q-37 -35 -37 -57q0 -26 33.5 -37t111.5 -11zM218 509q-84 -6 -72 -159q7 -75 32 -111t67 -33
q86 6 72 158q-15 154 -99 145zM241 -163q87 0 140.5 27t53.5 77q0 40 -41.5 53.5t-133.5 13.5q-81 0 -122 8q-34 -31 -47 -52.5t-13 -44.5q0 -38 42.5 -60t120.5 -22z" />
    <glyph glyph-name="Gdotaccent" unicode="&#x120;" horiz-adv-x="775" 
d="M399 909q-24 0 -41.5 17t-17.5 41q0 25 17.5 42t41.5 17t41.5 -17t17.5 -42q0 -24 -17.5 -41t-41.5 -17zM36 396q0 183 98 303.5t262 120.5q57 0 101 -13t67.5 -26t30.5 -13q10 0 13.5 8t3.5 34h24l15 -275h-24q-13 125 -64 184.5t-151 59.5q-125 0 -189 -106.5
t-64 -276.5q0 -112 24 -193t82.5 -131.5t149.5 -50.5t151 58v236q0 48 -33.5 63.5t-151.5 15.5v24h371v-24q-45 0 -58 -15t-13 -64v-230q-109 -105 -271 -105q-175 0 -274.5 117t-99.5 299z" />
    <glyph glyph-name="gdotaccent" unicode="&#x121;" horiz-adv-x="490" 
d="M241 663q-24 0 -41.5 17t-17.5 41q0 25 17.5 42t41.5 17t41.5 -17t17.5 -42q0 -24 -17.5 -41t-41.5 -17zM250 85q112 0 169 -31t57 -102q0 -78 -79.5 -135t-193.5 -57q-84 0 -138.5 30t-54.5 91q0 70 98 143q-55 18 -55 71q0 46 67 109q-70 54 -70 153q0 86 52.5 138.5
t129.5 52.5q56 0 100 -29q60 29 111 29q37 0 37 -30q0 -25 -32 -25q-47 0 -77 -6l-10 7q52 -54 52 -137q0 -85 -52.5 -137.5t-128.5 -52.5q-50 0 -90 23q-37 -35 -37 -57q0 -26 33.5 -37t111.5 -11zM218 509q-84 -6 -72 -159q7 -75 32 -111t67 -33q86 6 72 158
q-15 154 -99 145zM241 -163q87 0 140.5 27t53.5 77q0 40 -41.5 53.5t-133.5 13.5q-81 0 -122 8q-34 -31 -47 -52.5t-13 -44.5q0 -38 42.5 -60t120.5 -22z" />
    <glyph glyph-name="uni0122" unicode="&#x122;" horiz-adv-x="775" 
d="M36 396q0 183 98 303.5t262 120.5q57 0 101 -13t67.5 -26t30.5 -13q10 0 13.5 8t3.5 34h24l15 -275h-24q-13 125 -64 184.5t-151 59.5q-125 0 -189 -106.5t-64 -276.5q0 -112 24 -193t82.5 -131.5t149.5 -50.5t151 58v236q0 48 -33.5 63.5t-151.5 15.5v24h371v-24
q-45 0 -58 -15t-13 -64v-230q-109 -105 -271 -105q-175 0 -274.5 117t-99.5 299zM408 -165q-13 0 -23 12t-10 31q0 23 15 35.5t37 12.5q28 0 45 -19t17 -50q0 -79 -103 -104v24q25 6 44.5 20t19.5 33q0 15 -10 15q-3 0 -12.5 -5t-19.5 -5z" />
    <glyph glyph-name="uni0123" unicode="&#x123;" horiz-adv-x="490" 
d="M245 663q-28 0 -45 19t-17 50q0 79 103 104v-24q-25 -6 -44.5 -20t-19.5 -33q0 -15 10 -15q3 0 12.5 5t19.5 5q13 0 23 -12t10 -31q0 -23 -15 -35.5t-37 -12.5zM250 85q112 0 169 -31t57 -102q0 -78 -79.5 -135t-193.5 -57q-84 0 -138.5 30t-54.5 91q0 70 98 143
q-55 18 -55 71q0 46 67 109q-70 54 -70 153q0 86 52.5 138.5t129.5 52.5q56 0 100 -29q60 29 111 29q37 0 37 -30q0 -25 -32 -25q-47 0 -77 -6l-10 7q52 -54 52 -137q0 -85 -52.5 -137.5t-128.5 -52.5q-50 0 -90 23q-37 -35 -37 -57q0 -26 33.5 -37t111.5 -11zM218 509
q-84 -6 -72 -159q7 -75 32 -111t67 -33q86 6 72 158q-15 154 -99 145zM241 -163q87 0 140.5 27t53.5 77q0 40 -41.5 53.5t-133.5 13.5q-81 0 -122 8q-34 -31 -47 -52.5t-13 -44.5q0 -38 42.5 -60t120.5 -22z" />
    <glyph glyph-name="Hbar" unicode="&#x126;" horiz-adv-x="803" 
d="M770 599h-118v-496q0 -47 19.5 -63t87.5 -16v-24h-326v24q68 0 87.5 16t19.5 63v300h-296v-300q0 -48 19.5 -63.5t86.5 -15.5v-24h-326v24q68 0 87.5 15.5t19.5 63.5v496h-97v30h97v68q0 48 -19.5 63.5t-87.5 15.5v24h326v-24q-67 0 -86.5 -15.5t-19.5 -63.5v-68h296v68
q0 47 -19.5 63t-87.5 16v24h326v-24q-68 0 -87.5 -16t-19.5 -63v-68h118v-30zM540 444v155h-296v-155h296z" />
    <glyph glyph-name="hbar" unicode="&#x127;" horiz-adv-x="621" 
d="M465 103q0 -49 12.5 -64t57.5 -15v-24h-229v24q41 0 53 15t12 64v301q0 80 -55 80q-54 0 -118 -81v-300q0 -49 12 -64t53 -15v-24h-229v24q45 0 57.5 15t12.5 64v520h-71v30h71v24v29t-1.5 18t-4.5 13t-9.5 2.5t-15.5 -2.5t-24 -11l-10 21l145 73l14 -14v-153h163v-30
h-163v-178h3q73 103 157 103q107 0 107 -144v-301z" />
    <glyph glyph-name="Imacron" unicode="&#x12a;" horiz-adv-x="366" 
d="M35 980h295v-41h-295v41zM127 697q0 47 -19.5 63t-87.5 16v24h326v-24q-68 0 -87.5 -16t-19.5 -63v-594q0 -47 19.5 -63t87.5 -16v-24h-326v24q68 0 87.5 16t19.5 63v594z" />
    <glyph glyph-name="imacron" unicode="&#x12b;" horiz-adv-x="281" 
d="M-20 734h295v-41h-295v41zM191 103q0 -49 12.5 -64t57.5 -15v-24h-235v24q45 0 58 15t13 64v301q0 30 -0.5 40t-6 18.5t-16 5.5t-32.5 -14l-11 21l75 37l71 36l14 -14v-431z" />
    <glyph glyph-name="Iogonek" unicode="&#x12e;" horiz-adv-x="366" 
d="M346 776q-68 0 -87.5 -16t-19.5 -63v-594q0 -47 19.5 -63t87.5 -16v-24h-63q-12 -14 -42 -36.5t-44.5 -43t-14.5 -51.5q0 -30 17.5 -47.5t49.5 -17.5t82 23l6 -24q-55 -44 -118 -44q-47 0 -79 25.5t-32 71.5q0 44 26.5 71t70 46t52.5 27h-237v24q68 0 87.5 16t19.5 63
v594q0 47 -19.5 63t-87.5 16v24h326v-24z" />
    <glyph glyph-name="iogonek" unicode="&#x12f;" horiz-adv-x="281" 
d="M128 663q-24 0 -41.5 17t-17.5 41q0 25 17.5 42t41.5 17t41.5 -17t17.5 -42q0 -24 -17.5 -41t-41.5 -17zM269 -173l6 -24q-55 -44 -118 -44q-47 0 -79 25.5t-32 71.5q0 44 26.5 71t70 46t52.5 27h-169v24q45 0 58 15t13 64v301q0 30 -0.5 40t-6 18.5t-16 5.5t-32.5 -14
l-11 21l75 37l71 36l14 -14v-431q0 -49 12.5 -64t57.5 -15v-24h-40q-12 -14 -42 -36.5t-44.5 -43t-14.5 -51.5q0 -30 17.5 -47.5t49.5 -17.5t82 23z" />
    <glyph glyph-name="Idotaccent" unicode="&#x130;" horiz-adv-x="366" 
d="M183 909q-24 0 -41.5 17t-17.5 41q0 25 17.5 42t41.5 17t41.5 -17t17.5 -42q0 -24 -17.5 -41t-41.5 -17zM127 697q0 47 -19.5 63t-87.5 16v24h326v-24q-68 0 -87.5 -16t-19.5 -63v-594q0 -47 19.5 -63t87.5 -16v-24h-326v24q68 0 87.5 16t19.5 63v594z" />
    <glyph glyph-name="dotlessi" unicode="&#x131;" horiz-adv-x="281" 
d="M191 103q0 -49 12.5 -64t57.5 -15v-24h-235v24q45 0 58 15t13 64v301q0 30 -0.5 40t-6 18.5t-16 5.5t-32.5 -14l-11 21l75 37l71 36l14 -14v-431z" />
    <glyph glyph-name="uni0136" unicode="&#x136;" horiz-adv-x="806" 
d="M123 697q0 48 -19.5 63.5t-87.5 15.5v24h326v-24q-67 0 -86.5 -15.5t-19.5 -63.5v-594q0 -48 19.5 -63.5t86.5 -15.5v-24h-326v24q68 0 87.5 15.5t19.5 63.5v594zM655 84q27 -38 54.5 -49t76.5 -11v-24h-302v24q57 0 60.5 10t-28.5 49l-249 336l259 302q35 37 32 46
t-64 9v24h222v-24q-51 0 -79.5 -10t-57.5 -45l-205 -245zM404 -165q-13 0 -23 12t-10 31q0 23 15 35.5t37 12.5q28 0 45 -19t17 -50q0 -79 -103 -104v24q25 6 44.5 20t19.5 33q0 15 -10 15q-3 0 -12.5 -5t-19.5 -5z" />
    <glyph glyph-name="uni0137" unicode="&#x137;" horiz-adv-x="556" 
d="M191 103q0 -49 12.5 -64t57.5 -15v-24h-235v24q45 0 58 15t13 64v574q0 30 -0.5 40t-6 18.5t-16 5t-32.5 -14.5l-11 21l75 38l71 35l14 -14v-703zM446 90q23 -40 44.5 -53t55.5 -13v-24h-246v24q48 0 51.5 12t-22.5 54l-118 212l135 149q37 36 36.5 44.5t-51.5 8.5v24
h189v-24q-37 0 -62.5 -10t-55.5 -44l-96 -108zM268 -165q-13 0 -23 12t-10 31q0 23 15 35.5t37 12.5q28 0 45 -19t17 -50q0 -79 -103 -104v24q25 6 44.5 20t19.5 33q0 15 -10 15q-3 0 -12.5 -5t-19.5 -5z" />
    <glyph glyph-name="Lacute" unicode="&#x139;" horiz-adv-x="617" 
d="M178 874l67 184h100l-129 -184h-38zM346 800v-24q-68 0 -87.5 -16t-19.5 -63v-589q0 -42 12 -54.5t50 -12.5h151q47 0 72 36t55 153l23 -6l-51 -200l-6 -24h-525v24q68 0 87.5 16t19.5 63v594q0 47 -19.5 63t-87.5 16v24h326z" />
    <glyph glyph-name="lacute" unicode="&#x13a;" horiz-adv-x="281" 
d="M96 883l67 183h100l-129 -183h-38zM191 103q0 -49 12.5 -64t57.5 -15v-24h-235v24q45 0 58 15t13 64v574q0 30 -0.5 40t-6 18.5t-16 5t-32.5 -14.5l-11 21l75 38l71 35l14 -14v-703z" />
    <glyph glyph-name="uni013B" unicode="&#x13b;" horiz-adv-x="617" 
d="M346 800v-24q-68 0 -87.5 -16t-19.5 -63v-589q0 -42 12 -54.5t50 -12.5h151q47 0 72 36t55 153l23 -6l-51 -200l-6 -24h-525v24q68 0 87.5 16t19.5 63v594q0 47 -19.5 63t-87.5 16v24h326zM306 -165q-14 0 -23.5 11.5t-9.5 31.5q0 23 14.5 35.5t37.5 12.5q28 0 44.5 -19
t16.5 -50q0 -79 -103 -104v24q25 6 44.5 20t19.5 33q0 15 -10 15q-3 0 -12 -5t-19 -5z" />
    <glyph glyph-name="uni013C" unicode="&#x13c;" horiz-adv-x="281" 
d="M191 103q0 -49 12.5 -64t57.5 -15v-24h-235v24q45 0 58 15t13 64v574q0 30 -0.5 40t-6 18.5t-16 5t-32.5 -14.5l-11 21l75 38l71 35l14 -14v-703zM119 -165q-13 0 -23 12t-10 31q0 23 15 35.5t37 12.5q28 0 45 -19t17 -50q0 -79 -103 -104v24q25 6 44.5 20t19.5 33
q0 15 -10 15q-3 0 -12.5 -5t-19.5 -5z" />
    <glyph glyph-name="Lcaron" unicode="&#x13d;" horiz-adv-x="633" 
d="M405 637l67 183h100l-129 -183h-38zM346 800v-24q-68 0 -87.5 -16t-19.5 -63v-589q0 -42 12 -54.5t50 -12.5h151q47 0 72 36t55 153l23 -6l-51 -200l-6 -24h-525v24q68 0 87.5 16t19.5 63v594q0 47 -19.5 63t-87.5 16v24h326z" />
    <glyph glyph-name="lcaron" unicode="&#x13e;" horiz-adv-x="388" 
d="M191 103q0 -49 12.5 -64t57.5 -15v-24h-235v24q45 0 58 15t13 64v574q0 30 -0.5 40t-6 18.5t-16 5t-32.5 -14.5l-11 21l75 38l71 35l14 -14v-703zM286 764q0 56 43 56t43 -56q0 -34 -13 -108.5t-17 -110.5h-24q-5 35 -18.5 110t-13.5 109z" />
    <glyph glyph-name="Lslash" unicode="&#x141;" horiz-adv-x="617" 
d="M579 230l23 -6l-51 -200l-6 -24h-525v24q68 0 87.5 16t19.5 63v229l-78 -45l-15 26l93 54v330q0 47 -19.5 63t-87.5 16v24h326v-24q-68 0 -87.5 -16t-19.5 -63v-265l229 133l15 -26l-244 -142v-289q0 -42 12 -54.5t50 -12.5h151q47 0 72 36t55 153z" />
    <glyph glyph-name="lslash" unicode="&#x142;" horiz-adv-x="328" 
d="M205 103q0 -49 13 -64t57 -15v-24h-234v24q44 0 57 15t13 64v265l-74 -43l-15 26l89 52v274v29t-1.5 18t-4.5 13t-9.5 2.5t-15.5 -2.5t-24 -11l-10 21l74 38l71 35l14 -14v-349l86 50l15 -26l-101 -59v-319z" />
    <glyph glyph-name="Nacute" unicode="&#x143;" horiz-adv-x="772" 
d="M502 1057l-129 -183h-38l67 183h100zM752 800v-24q-67 0 -86.5 -15.5t-19.5 -63.5v-720h-50l-428 696v-570q0 -47 19.5 -63t87.5 -16v-24h-255v24q68 0 87.5 16t19.5 63v634q-19 23 -43 31t-64 8v24h209l372 -606h3v503q0 48 -19.5 63.5t-86.5 15.5v24h254z" />
    <glyph glyph-name="nacute" unicode="&#x144;" horiz-adv-x="548" 
d="M238 628l67 183h100l-129 -183h-38zM191 534v-89h3q71 103 156 103q107 0 107 -144v-301q0 -49 13 -64t58 -15v-24h-230v24q41 0 53 15t12 64v301q0 80 -55 80t-117 -81v-300q0 -49 12 -64t53 -15v-24h-230v24q45 0 58 15t13 64v301q0 30 -0.5 40t-6 18.5t-16 5.5
t-32.5 -14l-11 21l75 37l71 36z" />
    <glyph glyph-name="uni0145" unicode="&#x145;" horiz-adv-x="772" 
d="M752 800v-24q-67 0 -86.5 -15.5t-19.5 -63.5v-720h-50l-428 696v-570q0 -47 19.5 -63t87.5 -16v-24h-255v24q68 0 87.5 16t19.5 63v634q-19 23 -43 31t-64 8v24h209l372 -606h3v503q0 48 -19.5 63.5t-86.5 15.5v24h254zM417 -74q28 0 45 -19t17 -50q0 -79 -103 -104v24
q25 6 44.5 20t19.5 33q0 15 -10 15q-3 0 -12.5 -5t-19.5 -5q-13 0 -23 12t-10 31q0 23 15 35.5t37 12.5z" />
    <glyph glyph-name="uni0146" unicode="&#x146;" horiz-adv-x="548" 
d="M191 534v-89h3q71 103 156 103q107 0 107 -144v-301q0 -49 13 -64t58 -15v-24h-230v24q41 0 53 15t12 64v301q0 80 -55 80t-117 -81v-300q0 -49 12 -64t53 -15v-24h-230v24q45 0 58 15t13 64v301q0 30 -0.5 40t-6 18.5t-16 5.5t-32.5 -14l-11 21l75 37l71 36zM256 -165
q-13 0 -23 12t-10 31q0 23 15 35.5t37 12.5q28 0 45 -19t17 -50q0 -79 -103 -104v24q25 6 44.5 20t19.5 33q0 15 -10 15q-3 0 -12.5 -5t-19.5 -5z" />
    <glyph glyph-name="Ncaron" unicode="&#x147;" horiz-adv-x="772" 
d="M328 870l-95 184h38l105 -129l106 129h38l-95 -184h-97zM752 800v-24q-67 0 -86.5 -15.5t-19.5 -63.5v-720h-50l-428 696v-570q0 -47 19.5 -63t87.5 -16v-24h-255v24q68 0 87.5 16t19.5 63v634q-19 23 -43 31t-64 8v24h209l372 -606h3v503q0 48 -19.5 63.5t-86.5 15.5v24
h254z" />
    <glyph glyph-name="ncaron" unicode="&#x148;" horiz-adv-x="548" 
d="M231 624l-95 184h38l105 -129l106 129h38l-95 -184h-97zM457 103q0 -49 13 -64t58 -15v-24h-230v24q41 0 53 15t12 64v301q0 80 -55 80t-117 -81v-300q0 -49 12 -64t53 -15v-24h-230v24q45 0 58 15t13 64v301q0 30 -0.5 40t-6 18.5t-16 5.5t-32.5 -14l-11 21l75 37l71 36
l14 -14v-89h3q71 103 156 103q107 0 107 -144v-301z" />
    <glyph glyph-name="Eng" unicode="&#x14a;" horiz-adv-x="772" 
d="M752 800v-24q-67 0 -86.5 -15.5t-19.5 -63.5v-725q0 -212 -142 -212q-60 0 -94 27.5t-34 68.5q0 25 14.5 38t37.5 13t38 -13t15 -39q0 -29 8 -41.5t37 -12.5q78 0 78 165v11h-8l-428 696v-570q0 -47 19.5 -63t87.5 -16v-24h-255v24q68 0 87.5 16t19.5 63v634
q-19 23 -43 31t-64 8v24h209l372 -606h3v503q0 48 -19.5 63.5t-86.5 15.5v24h254z" />
    <glyph glyph-name="eng" unicode="&#x14b;" horiz-adv-x="516" 
d="M376 548q120 0 120 -157v-416q0 -110 -37 -162.5t-120 -52.5q-62 0 -98.5 25.5t-36.5 67.5q0 22 15.5 35t38.5 13q49 0 55 -51q0 -3 0.5 -9.5t0.5 -9t1 -7.5t1.5 -7t2 -5.5t3.5 -4.5t5 -3t7 -2.5t9 -0.5q20 0 32 9.5t17 32t6.5 43.5t1.5 60v455q0 90 -68 90
q-66 0 -139 -100v-288q0 -49 11.5 -64t51.5 -15v-24h-230v24q45 0 58 15t13 64v301q0 30 -0.5 40t-6 18.5t-16.5 5.5t-33 -14l-10 22l75 36l73 36l14 -14v-102h3q84 116 180 116z" />
    <glyph glyph-name="Omacron" unicode="&#x14c;" horiz-adv-x="702" 
d="M204 980h295v-41h-295v41zM351 -20q-97 0 -169.5 57t-109 151.5t-36.5 211.5t36.5 211.5t109 151.5t169.5 57q145 0 230 -120t85 -300t-85 -300t-230 -120zM384 19q89 8 131.5 110t26.5 288q-16 185 -76 279t-148 86q-89 -8 -132 -110.5t-27 -288.5q17 -186 76.5 -279
t148.5 -85z" />
    <glyph glyph-name="omacron" unicode="&#x14d;" horiz-adv-x="523" 
d="M114 734h295v-41h-295v41zM262 -20q-103 0 -164.5 80t-61.5 204q0 123 61.5 203.5t164.5 80.5q102 0 163.5 -80.5t61.5 -203.5q0 -124 -61.5 -204t-163.5 -80zM283 22q116 11 96 252q-10 120 -45.5 178t-93.5 53q-116 -11 -96 -252q23 -240 139 -231z" />
    <glyph glyph-name="Ohungarumlaut" unicode="&#x150;" horiz-adv-x="702" 
d="M248 874l53 183h72l-95 -183h-30zM352 874l61 183h71l-102 -183h-30zM351 -20q-97 0 -169.5 57t-109 151.5t-36.5 211.5t36.5 211.5t109 151.5t169.5 57q145 0 230 -120t85 -300t-85 -300t-230 -120zM384 19q89 8 131.5 110t26.5 288q-16 185 -76 279t-148 86
q-89 -8 -132 -110.5t-27 -288.5q17 -186 76.5 -279t148.5 -85z" />
    <glyph glyph-name="ohungarumlaut" unicode="&#x151;" horiz-adv-x="523" 
d="M159 628l53 183h72l-95 -183h-30zM263 628l61 183h71l-102 -183h-30zM262 -20q-103 0 -164.5 80t-61.5 204q0 123 61.5 203.5t164.5 80.5q102 0 163.5 -80.5t61.5 -203.5q0 -124 -61.5 -204t-163.5 -80zM283 22q116 11 96 252q-10 120 -45.5 178t-93.5 53
q-116 -11 -96 -252q23 -240 139 -231z" />
    <glyph glyph-name="OE" unicode="&#x152;" horiz-adv-x="942" 
d="M908 221l23 -6l-53 -190l-7 -25h-335q-29 0 -83.5 -5t-96.5 -5q-149 0 -234.5 115.5t-85.5 294.5t85.5 294.5t234.5 115.5q42 0 96.5 -5t83.5 -5h332l3 -27l20 -161l-24 -3q-11 93 -30.5 121.5t-66.5 28.5h-200v-318h124q48 0 63.5 21t15.5 96h24v-276h-24q0 75 -15.5 96
t-63.5 21h-124v-301q0 -35 9 -46t38 -11h162q47 0 72 34.5t57 145.5zM346 31q55 0 109 37v665q-32 22 -55.5 30t-53.5 7q-91 -3 -139 -103.5t-48 -266.5q0 -167 48 -268t139 -101z" />
    <glyph glyph-name="oe" unicode="&#x153;" horiz-adv-x="828" 
d="M767 210h24q-16 -114 -63 -172t-117 -58q-112 0 -158 124q-28 -58 -77.5 -91t-113.5 -33q-103 0 -164.5 80t-61.5 204q0 123 61.5 203.5t164.5 80.5q66 0 115.5 -34.5t78.5 -95.5q24 60 66 95t98 35q83 0 126.5 -71t43.5 -185h-266v-4q0 -105 31.5 -169.5t89.5 -64.5
q84 0 122 156zM283 22q116 11 96 252q-10 120 -45.5 178t-93.5 53q-116 -11 -96 -252q23 -240 139 -231zM616 506q-81 0 -91 -173h168q0 173 -77 173z" />
    <glyph glyph-name="Racute" unicode="&#x154;" horiz-adv-x="691" 
d="M442 1058l-130 -184h-37l67 184h100zM557 92q21 -42 45.5 -55t71.5 -13v-24h-80q-75 0 -102.5 13t-53.5 73l-151 302h-21h-27v-285q0 -47 19.5 -63t87.5 -16v-24h-326v24q68 0 87.5 16t19.5 63v594q0 47 -19.5 63t-87.5 16v24h302q125 0 191 -51.5t66 -150.5
q0 -187 -241 -207h8v-3q37 -9 65 -33.5t54 -77.5zM266 429q34 0 65 6.5t63 23.5t51 53t19 88q0 78 -40 118.5t-106 40.5q-45 0 -79 -18v-312h27z" />
    <glyph glyph-name="racute" unicode="&#x155;" horiz-adv-x="418" 
d="M351 811l-129 -183h-38l67 183h100zM328 548q33 0 53.5 -17t20.5 -44q0 -24 -14 -40t-39 -16q-33 0 -49 28q-10 17 -23 17q-21 0 -40 -21t-46 -68v-284q0 -49 19 -64t86 -15v-24h-270v24q45 0 58 15t13 64v301q0 30 -0.5 40t-6 18.5t-16 5.5t-32.5 -14l-11 21l75 37
l71 36l14 -14v-90h3q58 104 134 104z" />
    <glyph glyph-name="uni0156" unicode="&#x156;" horiz-adv-x="691" 
d="M557 92q21 -42 45.5 -55t71.5 -13v-24h-80q-75 0 -102.5 13t-53.5 73l-151 302h-21h-27v-285q0 -47 19.5 -63t87.5 -16v-24h-326v24q68 0 87.5 16t19.5 63v594q0 47 -19.5 63t-87.5 16v24h302q125 0 191 -51.5t66 -150.5q0 -187 -241 -207h8v-3q37 -9 65 -33.5t54 -77.5z
M266 429q34 0 65 6.5t63 23.5t51 53t19 88q0 78 -40 118.5t-106 40.5q-45 0 -79 -18v-312h27zM412 -74q28 0 45 -19t17 -50q0 -79 -104 -104v24q25 6 44.5 20t19.5 33q0 15 -10 15q-3 0 -12 -5t-19 -5q-13 0 -23 12t-10 31q0 23 15 35.5t37 12.5z" />
    <glyph glyph-name="uni0157" unicode="&#x157;" horiz-adv-x="418" 
d="M328 548q33 0 53.5 -17t20.5 -44q0 -24 -14 -40t-39 -16q-33 0 -49 28q-10 17 -23 17q-21 0 -40 -21t-46 -68v-284q0 -49 19 -64t86 -15v-24h-270v24q45 0 58 15t13 64v301q0 30 -0.5 40t-6 18.5t-16 5.5t-32.5 -14l-11 21l75 37l71 36l14 -14v-90h3q58 104 134 104z
M154 -74q28 0 45 -19t17 -50q0 -79 -103 -104v24q25 6 44.5 20t19.5 33q0 15 -10 15q-3 0 -12.5 -5t-19.5 -5q-13 0 -23 12t-10 31q0 23 15 35.5t37 12.5z" />
    <glyph glyph-name="Rcaron" unicode="&#x158;" horiz-adv-x="691" 
d="M271 870l-94 184h37l106 -129l106 129h37l-94 -184h-98zM557 92q21 -42 45.5 -55t71.5 -13v-24h-80q-75 0 -102.5 13t-53.5 73l-151 302h-21h-27v-285q0 -47 19.5 -63t87.5 -16v-24h-326v24q68 0 87.5 16t19.5 63v594q0 47 -19.5 63t-87.5 16v24h302q125 0 191 -51.5
t66 -150.5q0 -187 -241 -207h8v-3q37 -9 65 -33.5t54 -77.5zM266 429q34 0 65 6.5t63 23.5t51 53t19 88q0 78 -40 118.5t-106 40.5q-45 0 -79 -18v-312h27z" />
    <glyph glyph-name="rcaron" unicode="&#x159;" horiz-adv-x="418" 
d="M178 624l-95 184h38l105 -129l106 129h38l-95 -184h-97zM328 548q33 0 53.5 -17t20.5 -44q0 -24 -14 -40t-39 -16q-33 0 -49 28q-10 17 -23 17q-21 0 -40 -21t-46 -68v-284q0 -49 19 -64t86 -15v-24h-270v24q45 0 58 15t13 64v301q0 30 -0.5 40t-6 18.5t-16 5.5
t-32.5 -14l-11 21l75 37l71 36l14 -14v-90h3q58 104 134 104z" />
    <glyph glyph-name="Sacute" unicode="&#x15a;" horiz-adv-x="561" 
d="M233 874l67 183h100l-129 -183h-38zM57 -4v288h24q3 -118 61.5 -190.5t141.5 -72.5q60 0 96 35t36 92q0 15 -3 29t-10.5 28.5t-14 26t-21 27t-23 25t-28 26.5t-29.5 25.5t-32.5 27.5t-32.5 27q-96 82 -131 130.5t-35 121.5q0 83 56 130.5t141 47.5q37 0 69.5 -11
t50.5 -23.5t34 -23.5t23 -11q9 0 12 10.5t3 42.5h24v-235h-24q-3 93 -53 151.5t-128 58.5q-59 0 -89 -29.5t-30 -72.5q0 -18 7 -36.5t14.5 -31t26.5 -32t28.5 -28.5t36.5 -31.5t36 -30.5q10 -9 37.5 -32t35.5 -30.5t30 -27t28.5 -28t22.5 -26t21 -28t14.5 -28t12.5 -32.5
t6 -33.5t3 -38.5q0 -93 -62.5 -148t-146.5 -55q-43 0 -79 11.5t-54.5 25t-35 25t-25.5 11.5q-12 0 -16.5 -12.5t-4.5 -44.5h-24z" />
    <glyph glyph-name="sacute" unicode="&#x15b;" horiz-adv-x="390" 
d="M166 628l67 183h100l-129 -183h-38zM51 -10v201h23q11 -75 49.5 -122.5t95.5 -47.5q63 0 63 67q0 28 -16.5 55t-34 44t-61.5 56q-36 32 -49.5 44.5t-34.5 37.5t-28.5 47.5t-7.5 50.5q0 56 36.5 90.5t94.5 34.5q31 0 55.5 -10t38.5 -20t20 -10q8 0 10 6t2 24h23v-165h-23
q-11 58 -43.5 95.5t-78.5 37.5q-29 0 -43 -16t-14 -37q0 -22 14 -44.5t30.5 -38.5t53.5 -48q76 -65 105 -105.5t29 -99.5q0 -67 -39.5 -102t-98.5 -35q-35 0 -63 10t-45 20t-24 10q-16 0 -16 -30h-23z" />
    <glyph glyph-name="Scedilla" unicode="&#x15e;" horiz-adv-x="561" 
d="M505 183q0 -78 -46 -130.5t-114 -67.5l-30 -38q42 -3 72 -24t30 -60q0 -46 -36 -75t-87 -36.5t-110 0.5l6 23q72 -5 112.5 14.5t40.5 64.5q0 67 -103 69l54 57q-42 0 -77.5 11.5t-54 25t-35 25t-25.5 11.5q-12 0 -16.5 -12.5t-4.5 -44.5h-24v288h24q3 -118 61.5 -190.5
t141.5 -72.5q60 0 96 35t36 92q0 15 -3 29t-10.5 28.5t-14 26t-21 27t-23 25t-28 26.5t-29.5 25.5t-32.5 27.5t-32.5 27q-96 82 -131 130.5t-35 121.5q0 83 56 130.5t141 47.5q37 0 69.5 -11t50.5 -23.5t34 -23.5t23 -11q9 0 12 10.5t3 42.5h24v-235h-24q-3 93 -53 151.5
t-128 58.5q-59 0 -89 -29.5t-30 -72.5q0 -18 7 -36.5t14.5 -31t26.5 -32t28.5 -28.5t36.5 -31.5t36 -30.5q10 -9 37.5 -32t35.5 -30.5t30 -27t28.5 -28t22.5 -26t21 -28t14.5 -28t12.5 -32.5t6 -33.5t3 -38.5z" />
    <glyph glyph-name="scedilla" unicode="&#x15f;" horiz-adv-x="390" 
d="M244 -53q42 -3 72 -24t30 -60q0 -46 -36 -75t-87 -36.5t-110 0.5l6 23q72 -5 112.5 14.5t40.5 64.5q0 67 -103 69l54 57h-1q-35 0 -63 10t-45 20t-24 10q-16 0 -16 -30h-23v201h23q11 -75 49.5 -122.5t95.5 -47.5q63 0 63 67q0 28 -16.5 55t-34 44t-61.5 56
q-36 32 -49.5 44.5t-34.5 37.5t-28.5 47.5t-7.5 50.5q0 56 36.5 90.5t94.5 34.5q31 0 55.5 -10t38.5 -20t20 -10q8 0 10 6t2 24h23v-165h-23q-11 58 -43.5 95.5t-78.5 37.5q-29 0 -43 -16t-14 -37q0 -22 14 -44.5t30.5 -38.5t53.5 -48q76 -65 105 -105.5t29 -99.5
q0 -99 -83 -128z" />
    <glyph glyph-name="Scaron" unicode="&#x160;" horiz-adv-x="561" 
d="M227 870l-95 184h38l105 -129l106 129h38l-95 -184h-97zM294 487q10 -9 37.5 -32t35.5 -30.5t30 -27t28.5 -28t22.5 -26t21 -28t14.5 -28t12.5 -32.5t6 -33.5t3 -38.5q0 -93 -62.5 -148t-146.5 -55q-43 0 -79 11.5t-54.5 25t-35 25t-25.5 11.5q-12 0 -16.5 -12.5
t-4.5 -44.5h-24v288h24q3 -118 61.5 -190.5t141.5 -72.5q60 0 96 35t36 92q0 15 -3 29t-10.5 28.5t-14 26t-21 27t-23 25t-28 26.5t-29.5 25.5t-32.5 27.5t-32.5 27q-96 82 -131 130.5t-35 121.5q0 83 56 130.5t141 47.5q37 0 69.5 -11t50.5 -23.5t34 -23.5t23 -11
q9 0 12 10.5t3 42.5h24v-235h-24q-3 93 -53 151.5t-128 58.5q-59 0 -89 -29.5t-30 -72.5q0 -18 7 -36.5t14.5 -31t26.5 -32t28.5 -28.5t36.5 -31.5t36 -30.5z" />
    <glyph glyph-name="scaron" unicode="&#x161;" horiz-adv-x="390" 
d="M159 624l-95 184h38l105 -129l106 129h38l-95 -184h-97zM226 322q76 -65 105 -105.5t29 -99.5q0 -67 -39.5 -102t-98.5 -35q-35 0 -63 10t-45 20t-24 10q-16 0 -16 -30h-23v201h23q11 -75 49.5 -122.5t95.5 -47.5q63 0 63 67q0 28 -16.5 55t-34 44t-61.5 56
q-36 32 -49.5 44.5t-34.5 37.5t-28.5 47.5t-7.5 50.5q0 56 36.5 90.5t94.5 34.5q31 0 55.5 -10t38.5 -20t20 -10q8 0 10 6t2 24h23v-165h-23q-11 58 -43.5 95.5t-78.5 37.5q-29 0 -43 -16t-14 -37q0 -22 14 -44.5t30.5 -38.5t53.5 -48z" />
    <glyph glyph-name="uni0162" unicode="&#x162;" horiz-adv-x="662" 
d="M617 773l14 -163l-24 -2q-8 95 -26.5 123t-65.5 28h-128v-656q0 -47 19.5 -63t87.5 -16v-24h-125l-40 -53q42 -3 71.5 -24t29.5 -60q0 -46 -36 -75t-87 -36.5t-109 0.5l6 23q152 -11 152 79q0 67 -102 69l73 77h-159v24q68 0 87.5 16t19.5 63v656h-129q-47 0 -65.5 -28
t-26.5 -123l-23 2l13 163l2 27h569z" />
    <glyph glyph-name="uni0163" unicode="&#x163;" horiz-adv-x="355" 
d="M228 -53q42 -3 72 -24t30 -60q0 -46 -36 -75t-87 -36.5t-110 0.5l6 23q72 -5 112.5 14.5t40.5 64.5q0 67 -103 69l54 57q-115 8 -115 185v321h-78v42q70 2 101.5 34t38.5 109h31v-143h116v-42h-116v-289q0 -84 11.5 -121t49.5 -37q35 0 50 41t16 140h23
q-1 -106 -17 -161.5t-59 -71.5z" />
    <glyph glyph-name="Tcaron" unicode="&#x164;" horiz-adv-x="662" 
d="M283 870l-95 184h38l105 -129l106 129h38l-95 -184h-97zM617 773l14 -163l-24 -2q-8 95 -26.5 123t-65.5 28h-128v-656q0 -47 19.5 -63t87.5 -16v-24h-326v24q68 0 87.5 16t19.5 63v656h-129q-47 0 -65.5 -28t-26.5 -123l-23 2l13 163l2 27h569z" />
    <glyph glyph-name="tcaron" unicode="&#x165;" horiz-adv-x="379" 
d="M242 588l67 183h100l-129 -183h-38zM312 220h23q-1 -126 -25 -183t-92 -57q-126 0 -126 185v321h-78v42q70 2 101.5 34t38.5 109h31v-143h116v-42h-116v-289q0 -84 11.5 -121t49.5 -37q35 0 50 41t16 140z" />
    <glyph glyph-name="Tbar" unicode="&#x166;" horiz-adv-x="682" 
d="M617 773l14 -163l-24 -2q-8 95 -26.5 123t-65.5 28h-128v-350h169v-30h-169v-276q0 -47 19.5 -63t87.5 -16v-24h-326v24q68 0 87.5 16t19.5 63v276h-149v30h149v350h-129q-47 0 -65.5 -28t-26.5 -123l-23 2l13 163l2 27h569z" />
    <glyph glyph-name="tbar" unicode="&#x167;" horiz-adv-x="362" 
d="M312 220h23q-1 -126 -25 -183t-92 -57q-126 0 -126 185v178h-82v30h82v113h-78v42q70 2 101.5 34t38.5 109h31v-143h116v-42h-116v-113h114v-30h-114v-146q0 -84 11.5 -121t49.5 -37q35 0 50 41t16 140z" />
    <glyph glyph-name="Umacron" unicode="&#x16a;" horiz-adv-x="787" 
d="M279 980h295v-41h-295v41zM619 697q0 48 -19.5 63.5t-87.5 15.5v24h255v-24q-68 0 -87.5 -16t-19.5 -63v-457q0 -51 -10.5 -93.5t-36 -82t-75 -62t-119.5 -22.5q-146 0 -219 71t-73 196v450q0 47 -19.5 63t-87.5 16v24h326v-24q-68 0 -87.5 -16t-19.5 -63v-457
q0 -114 47.5 -166.5t144.5 -52.5q188 0 188 219v457z" />
    <glyph glyph-name="umacron" unicode="&#x16b;" horiz-adv-x="527" 
d="M117 734h295v-41h-295v41zM353 -6v89h-3q-72 -103 -153 -103q-107 0 -107 144v293q0 51 -10 62t-54 -1l-6 23l80 22l70 18l14 -13v-404q0 -81 55 -81q50 0 114 81v293q0 51 -10.5 62t-54.5 -1l-6 23l81 22l70 18l14 -13v-405q0 -53 7 -60q8 -9 45 10l11 -21l-143 -72z
" />
    <glyph glyph-name="Uring" unicode="&#x16e;" horiz-adv-x="787" 
d="M427 873q-44 0 -73.5 30.5t-29.5 72.5q0 41 29.5 71t73.5 30q43 0 72 -30t29 -71q0 -42 -29 -72.5t-72 -30.5zM427 911q30 0 47 19.5t17 45.5t-17 45t-47 19q-31 0 -48 -19t-17 -45t17 -45.5t48 -19.5zM619 697q0 48 -19.5 63.5t-87.5 15.5v24h255v-24q-68 0 -87.5 -16
t-19.5 -63v-457q0 -51 -10.5 -93.5t-36 -82t-75 -62t-119.5 -22.5q-146 0 -219 71t-73 196v450q0 47 -19.5 63t-87.5 16v24h326v-24q-68 0 -87.5 -16t-19.5 -63v-457q0 -114 47.5 -166.5t144.5 -52.5q188 0 188 219v457z" />
    <glyph glyph-name="uring" unicode="&#x16f;" horiz-adv-x="527" 
d="M265 627q-44 0 -73.5 30.5t-29.5 72.5q0 41 29.5 71t73.5 30q43 0 72 -30t29 -71q0 -42 -29 -72.5t-72 -30.5zM265 665q30 0 47 19.5t17 45.5t-17 45t-47 19q-31 0 -48 -19t-17 -45t17 -45.5t48 -19.5zM353 -6v89h-3q-72 -103 -153 -103q-107 0 -107 144v293q0 51 -10 62
t-54 -1l-6 23l80 22l70 18l14 -13v-404q0 -81 55 -81q50 0 114 81v293q0 51 -10.5 62t-54.5 -1l-6 23l81 22l70 18l14 -13v-405q0 -53 7 -60q8 -9 45 10l11 -21l-143 -72z" />
    <glyph glyph-name="Uhungarumlaut" unicode="&#x170;" horiz-adv-x="787" 
d="M324 874l53 183h72l-95 -183h-30zM428 874l61 183h71l-102 -183h-30zM619 697q0 48 -19.5 63.5t-87.5 15.5v24h255v-24q-68 0 -87.5 -16t-19.5 -63v-457q0 -51 -10.5 -93.5t-36 -82t-75 -62t-119.5 -22.5q-146 0 -219 71t-73 196v450q0 47 -19.5 63t-87.5 16v24h326v-24
q-68 0 -87.5 -16t-19.5 -63v-457q0 -114 47.5 -166.5t144.5 -52.5q188 0 188 219v457z" />
    <glyph glyph-name="uhungarumlaut" unicode="&#x171;" horiz-adv-x="527" 
d="M162 628l53 183h72l-95 -183h-30zM266 628l61 183h71l-102 -183h-30zM353 -6v89h-3q-72 -103 -153 -103q-107 0 -107 144v293q0 51 -10 62t-54 -1l-6 23l80 22l70 18l14 -13v-404q0 -81 55 -81q50 0 114 81v293q0 51 -10.5 62t-54.5 -1l-6 23l81 22l70 18l14 -13v-405
q0 -53 7 -60q8 -9 45 10l11 -21l-143 -72z" />
    <glyph glyph-name="Uogonek" unicode="&#x172;" horiz-adv-x="787" 
d="M767 800v-24q-68 0 -87.5 -16t-19.5 -63v-457q0 -213 -165 -252q-11 -12 -41.5 -35t-44 -43t-13.5 -51q0 -30 17.5 -47.5t49.5 -17.5t82 23l6 -24q-55 -44 -118 -44q-47 0 -79 25.5t-32 71.5q0 26 9 46t26.5 33.5t33 22.5t37.5 19t31 15q-24 -2 -40 -2q-146 0 -219 71
t-73 196v450q0 47 -19.5 63t-87.5 16v24h326v-24q-68 0 -87.5 -16t-19.5 -63v-457q0 -114 47.5 -166.5t144.5 -52.5q188 0 188 219v457q0 48 -19.5 63.5t-87.5 15.5v24h255z" />
    <glyph glyph-name="uogonek" unicode="&#x173;" horiz-adv-x="527" 
d="M366 -19q-8 -8 -28.5 -24t-29.5 -25t-18 -27.5t-9 -39.5q0 -30 17.5 -47.5t49.5 -17.5t82 23l6 -24q-55 -44 -118 -44q-47 0 -79 25.5t-32 71.5q0 43 24.5 69.5t69 46.5t52.5 26v89h-3q-72 -103 -153 -103q-107 0 -107 144v293q0 51 -10 62t-54 -1l-6 23l80 22l70 18
l14 -13v-404q0 -81 55 -81q50 0 114 81v293q0 51 -10.5 62t-54.5 -1l-6 23l81 22l70 18l14 -13v-405q0 -53 7 -60q8 -9 45 10l11 -21l-143 -72z" />
    <glyph glyph-name="Wcircumflex" unicode="&#x174;" horiz-adv-x="995" 
d="M536 999l-106 -129h-38l95 184h97l95 -184h-38zM985 800v-24q-46 0 -65 -14.5t-31 -61.5l-186 -723h-50l-138 515l-163 -515h-48l-196 723q-13 47 -32.5 61.5t-65.5 14.5v24h301v-24q-67 0 -81 -16t1 -60l141 -530h3l121 391l-37 139q-13 47 -32 61.5t-65 14.5v24h301
v-24q-67 0 -80 -14.5t-1 -61.5l134 -513h3l129 513q12 47 -1 61.5t-80 14.5v24h218z" />
    <glyph glyph-name="wcircumflex" unicode="&#x175;" horiz-adv-x="757" 
d="M382 753l-106 -129h-38l95 184h97l95 -184h-38zM747 528v-24q-32 0 -48.5 -15.5t-28.5 -60.5l-129 -451h-57l-89 302l-96 -302h-58l-149 452q-15 45 -32 60t-50 15v24h234v-24q-46 0 -53 -14t11 -61l100 -308h3l71 223l-25 84q-13 46 -29.5 61t-49.5 15v24h229v-24
q-43 0 -49.5 -15t8.5 -61l82 -290h3l83 290q15 46 8 61t-53 15v24h164z" />
    <glyph glyph-name="Ycircumflex" unicode="&#x176;" horiz-adv-x="703" 
d="M386 999l-106 -129h-38l95 184h97l95 -184h-38zM693 800v-24q-47 0 -70.5 -13.5t-43.5 -56.5l-161 -354v-249q0 -48 19.5 -63.5t86.5 -15.5v-24h-326v24q68 0 87.5 15.5t19.5 63.5v249l-178 356q-21 42 -45 55t-72 13v24h311v-24q-66 0 -75.5 -14t14.5 -55l142 -285h3
l129 284q22 42 12 56t-76 14v24h223z" />
    <glyph glyph-name="ycircumflex" unicode="&#x177;" horiz-adv-x="497" 
d="M257 753l-106 -129h-38l95 184h97l95 -184h-38zM480 528v-24q-32 0 -47.5 -15t-28.5 -61l-110 -410q-3 -10 -10.5 -37t-10.5 -38t-10.5 -35t-12.5 -35t-14 -30.5t-17 -28.5t-19.5 -21.5t-24 -18t-28 -10t-33.5 -4.5q-40 0 -65.5 20.5t-25.5 52.5q0 24 15.5 39.5
t37.5 15.5q29 0 51 -28q15 -21 33 -21q26 0 44.5 34.5t36.5 113.5l-144 442q-15 45 -31.5 60t-49.5 15v24h236v-24q-46 0 -53.5 -14.5t8.5 -61.5l83 -281l72 281q14 46 6 61t-54 15v24h166z" />
    <glyph glyph-name="Ydieresis" unicode="&#x178;" horiz-adv-x="703" 
d="M287 909q-24 0 -41.5 17t-17.5 41q0 25 17.5 42t41.5 17t41.5 -17t17.5 -42q0 -24 -17.5 -41t-41.5 -17zM484 909q-24 0 -41 17t-17 41q0 25 17 42t41 17q25 0 42 -17t17 -42q0 -24 -17 -41t-42 -17zM418 103q0 -48 19.5 -63.5t86.5 -15.5v-24h-326v24q68 0 87.5 15.5
t19.5 63.5v249l-178 356q-21 42 -45 55t-72 13v24h311v-24q-66 0 -75.5 -14t14.5 -55l142 -285h3l129 284q22 42 12 56t-76 14v24h223v-24q-47 0 -70.5 -13.5t-43.5 -56.5l-161 -354v-249z" />
    <glyph glyph-name="Zacute" unicode="&#x179;" horiz-adv-x="579" 
d="M269 874l67 183h100l-129 -183h-38zM543 800l-373 -759h250q47 0 68 33.5t36 144.5l24 -3l-27 -191l-3 -25h-488v24l367 735h-219q-47 0 -64 -26t-20 -114l-24 1l5 152l1 28h467z" />
    <glyph glyph-name="zacute" unicode="&#x17a;" horiz-adv-x="435" 
d="M195 628l67 183h100l-129 -183h-38zM302 41q50 0 65 26t15 115h23v-182h-375v24l250 462h-123q-49 0 -64 -21.5t-15 -98.5h-24v162h351v-24l-249 -463h146z" />
    <glyph glyph-name="Zdotaccent" unicode="&#x17b;" horiz-adv-x="579" 
d="M311 909q-24 0 -41.5 17t-17.5 41q0 25 17.5 42t41.5 17t41.5 -17t17.5 -42q0 -24 -17.5 -41t-41.5 -17zM543 800l-373 -759h250q47 0 68 33.5t36 144.5l24 -3l-27 -191l-3 -25h-488v24l367 735h-219q-47 0 -64 -26t-20 -114l-24 1l5 152l1 28h467z" />
    <glyph glyph-name="zdotaccent" unicode="&#x17c;" horiz-adv-x="435" 
d="M237 663q-24 0 -41.5 17t-17.5 41q0 25 17.5 42t41.5 17t41.5 -17t17.5 -42q0 -24 -17.5 -41t-41.5 -17zM302 41q50 0 65 26t15 115h23v-182h-375v24l250 462h-123q-49 0 -64 -21.5t-15 -98.5h-24v162h351v-24l-249 -463h146z" />
    <glyph glyph-name="Zcaron" unicode="&#x17d;" horiz-adv-x="579" 
d="M263 870l-95 184h38l105 -129l106 129h38l-95 -184h-97zM524 219l24 -3l-27 -191l-3 -25h-488v24l367 735h-219q-47 0 -64 -26t-20 -114l-24 1l5 152l1 28h467l-373 -759h250q47 0 68 33.5t36 144.5z" />
    <glyph glyph-name="zcaron" unicode="&#x17e;" horiz-adv-x="435" 
d="M189 624l-95 184h38l105 -129l106 129h38l-95 -184h-97zM405 528v-24l-249 -463h146q50 0 65 26t15 115h23v-182h-375v24l250 462h-123q-49 0 -64 -21.5t-15 -98.5h-24v162h351z" />
    <glyph glyph-name="uni0218" unicode="&#x218;" horiz-adv-x="561" 
d="M57 -4v288h24q3 -118 61.5 -190.5t141.5 -72.5q60 0 96 35t36 92q0 15 -3 29t-10.5 28.5t-14 26t-21 27t-23 25t-28 26.5t-29.5 25.5t-32.5 27.5t-32.5 27q-96 82 -131 130.5t-35 121.5q0 83 56 130.5t141 47.5q37 0 69.5 -11t50.5 -23.5t34 -23.5t23 -11q9 0 12 10.5
t3 42.5h24v-235h-24q-3 93 -53 151.5t-128 58.5q-59 0 -89 -29.5t-30 -72.5q0 -18 7 -36.5t14.5 -31t26.5 -32t28.5 -28.5t36.5 -31.5t36 -30.5q10 -9 37.5 -32t35.5 -30.5t30 -27t28.5 -28t22.5 -26t21 -28t14.5 -28t12.5 -32.5t6 -33.5t3 -38.5q0 -93 -62.5 -148
t-146.5 -55q-43 0 -79 11.5t-54.5 25t-35 25t-25.5 11.5q-12 0 -16.5 -12.5t-4.5 -44.5h-24zM258 -165q-13 0 -23 12t-10 31q0 23 15 35.5t37 12.5q28 0 45 -19t17 -50q0 -79 -103 -104v24q25 6 44.5 20t19.5 33q0 15 -10 15q-3 0 -12.5 -5t-19.5 -5z" />
    <glyph glyph-name="uni0219" unicode="&#x219;" horiz-adv-x="390" 
d="M51 -10v201h23q11 -75 49.5 -122.5t95.5 -47.5q63 0 63 67q0 28 -16.5 55t-34 44t-61.5 56q-36 32 -49.5 44.5t-34.5 37.5t-28.5 47.5t-7.5 50.5q0 56 36.5 90.5t94.5 34.5q31 0 55.5 -10t38.5 -20t20 -10q8 0 10 6t2 24h23v-165h-23q-11 58 -43.5 95.5t-78.5 37.5
q-29 0 -43 -16t-14 -37q0 -22 14 -44.5t30.5 -38.5t53.5 -48q76 -65 105 -105.5t29 -99.5q0 -67 -39.5 -102t-98.5 -35q-35 0 -63 10t-45 20t-24 10q-16 0 -16 -30h-23zM188 -165q-13 0 -23 12t-10 31q0 23 15 35.5t37 12.5q28 0 45 -19t17 -50q0 -79 -103 -104v24
q25 6 44.5 20t19.5 33q0 15 -10 15q-3 0 -12.5 -5t-19.5 -5z" />
    <glyph glyph-name="uni021A" unicode="&#x21a;" horiz-adv-x="662" 
d="M617 773l14 -163l-24 -2q-8 95 -26.5 123t-65.5 28h-128v-656q0 -47 19.5 -63t87.5 -16v-24h-326v24q68 0 87.5 16t19.5 63v656h-129q-47 0 -65.5 -28t-26.5 -123l-23 2l13 163l2 27h569zM331 -74q28 0 45 -19t17 -50q0 -79 -103 -104v24q25 6 44.5 20t19.5 33
q0 15 -10 15q-3 0 -12.5 -5t-19.5 -5q-13 0 -23 12t-10 31q0 23 15 35.5t37 12.5z" />
    <glyph glyph-name="uni021B" unicode="&#x21b;" horiz-adv-x="355" 
d="M312 220h23q-1 -126 -25 -183t-92 -57q-126 0 -126 185v321h-78v42q70 2 101.5 34t38.5 109h31v-143h116v-42h-116v-289q0 -84 11.5 -121t49.5 -37q35 0 50 41t16 140zM172 -165q-13 0 -23 12t-10 31q0 23 15 35.5t37 12.5q28 0 45 -19t17 -50q0 -79 -103 -104v24
q25 6 44.5 20t19.5 33q0 15 -10 15q-3 0 -12.5 -5t-19.5 -5z" />
    <glyph glyph-name="circumflex" unicode="&#x2c6;" horiz-adv-x="367" 
d="M327 624h-38l-106 129l-105 -129h-38l95 184h97z" />
    <glyph glyph-name="caron" unicode="&#x2c7;" horiz-adv-x="367" 
d="M289 808h38l-95 -184h-97l-95 184h38l105 -129z" />
    <glyph glyph-name="breve" unicode="&#x2d8;" horiz-adv-x="375" 
d="M325 793q-4 -69 -40.5 -106t-96.5 -37t-97 37t-41 106h24q5 -34 35.5 -51.5t78.5 -17.5q102 0 113 69h24z" />
    <glyph glyph-name="dotaccent" unicode="&#x2d9;" horiz-adv-x="218" 
d="M109 663q-24 0 -41.5 17t-17.5 41q0 25 17.5 42t41.5 17t41.5 -17t17.5 -42q0 -24 -17.5 -41t-41.5 -17z" />
    <glyph glyph-name="ring" unicode="&#x2da;" horiz-adv-x="304" 
d="M153 627q-44 0 -73.5 30.5t-29.5 72.5q0 41 29.5 71t73.5 30q43 0 72 -30t29 -71q0 -42 -29 -72.5t-72 -30.5zM153 665q30 0 47 19.5t17 45.5t-17 45t-47 19q-31 0 -48 -19t-17 -45t17 -45.5t48 -19.5z" />
    <glyph glyph-name="ogonek" unicode="&#x2db;" horiz-adv-x="329" 
d="M231 -10q-12 -14 -42 -36.5t-44.5 -43t-14.5 -51.5q0 -30 17.5 -47.5t49.5 -17.5t82 23l6 -24q-55 -44 -118 -44q-47 0 -79 25.5t-32 71.5q0 44 26.5 71t70 46t52.5 27h26z" />
    <glyph glyph-name="tilde" unicode="&#x2dc;" horiz-adv-x="415" 
d="M279 662q-33 0 -79 34.5t-72 34.5t-37.5 -17t-16.5 -52h-24q13 139 86 139q33 0 79 -34.5t73 -34.5q26 0 37.5 17t15.5 52h24q-13 -139 -86 -139z" />
    <glyph glyph-name="hungarumlaut" unicode="&#x2dd;" horiz-adv-x="336" 
d="M50 628l53 183h72l-95 -183h-30zM154 628l61 183h71l-102 -183h-30z" />
    <glyph glyph-name="gravecomb" unicode="&#x300;" horiz-adv-x="0" 
d="M-40 628h-38l-129 183h100z" />
    <glyph glyph-name="acutecomb" unicode="&#x301;" horiz-adv-x="0" 
d="M-204 628l67 183h100l-129 -183h-38z" />
    <glyph glyph-name="uni0302" unicode="&#x302;" horiz-adv-x="0" 
d="M-46 624h-38l-105 129l-106 -129h-38l95 184h97z" />
    <glyph glyph-name="tildecomb" unicode="&#x303;" horiz-adv-x="0" 
d="M-136 662q-32 0 -78 34.5t-73 34.5q-26 0 -37.5 -17t-16.5 -52h-24q13 139 86 139q33 0 79 -34.5t73 -34.5q26 0 37.5 17t15.5 52h24q-13 -139 -86 -139z" />
    <glyph glyph-name="uni0304" unicode="&#x304;" horiz-adv-x="0" 
d="M-345 734h295v-41h-295v41z" />
    <glyph glyph-name="uni0306" unicode="&#x306;" horiz-adv-x="0" 
d="M-50 793q-4 -69 -40.5 -106t-96.5 -37t-97 37t-41 106h24q11 -69 114 -69q48 0 78 17.5t35 51.5h24z" />
    <glyph glyph-name="uni0307" unicode="&#x307;" horiz-adv-x="0" 
d="M-109 663q-24 0 -41.5 17t-17.5 41q0 25 17.5 42t41.5 17t41.5 -17t17.5 -42q0 -24 -17.5 -41t-41.5 -17z" />
    <glyph glyph-name="uni0308" unicode="&#x308;" horiz-adv-x="0" 
d="M-306 663q-24 0 -41.5 17t-17.5 41q0 25 17.5 42t41.5 17t41.5 -17t17.5 -42q0 -24 -17.5 -41t-41.5 -17zM-109 663q-24 0 -41 17t-17 41q0 25 17 42t41 17q25 0 42 -17t17 -42q0 -24 -17 -41t-42 -17z" />
    <glyph glyph-name="uni030A" unicode="&#x30a;" horiz-adv-x="0" 
d="M-151 627q-44 0 -73.5 30.5t-29.5 72.5q0 41 29.5 71t73.5 30q43 0 72 -30t29 -71q0 -42 -29 -72.5t-72 -30.5zM-151 665q30 0 47 19.5t17 45.5t-17 45t-47 19q-31 0 -48 -19t-17 -45t17 -45.5t48 -19.5z" />
    <glyph glyph-name="uni030B" unicode="&#x30b;" horiz-adv-x="0" 
d="M-267 628l53 183h72l-95 -183h-30zM-163 628l61 183h71l-102 -183h-30z" />
    <glyph glyph-name="uni030C" unicode="&#x30c;" horiz-adv-x="0" 
d="M-78 808h38l-95 -184h-97l-95 184h38l105 -129z" />
    <glyph glyph-name="uni0312" unicode="&#x312;" horiz-adv-x="0" 
d="M-83 754q13 0 23 -12t10 -31q0 -23 -15 -35.5t-37 -12.5q-28 0 -45 19t-17 50q0 79 103 104v-24q-25 -6 -44.5 -20t-19.5 -33q0 -15 10 -15q3 0 12.5 5t19.5 5z" />
    <glyph glyph-name="uni0326" unicode="&#x326;" horiz-adv-x="0" 
d="M-131 -165q-13 0 -23 12t-10 31q0 23 15 35.5t37 12.5q28 0 45 -19t17 -50q0 -79 -103 -104v24q25 6 44.5 20t19.5 33q0 15 -10 15q-3 0 -12.5 -5t-19.5 -5z" />
    <glyph glyph-name="uni0327" unicode="&#x327;" horiz-adv-x="0" 
d="M-227 -77l82 87h42l-49 -63q42 -3 72 -24t30 -60q0 -46 -36 -75t-87 -36.5t-110 0.5l6 23q72 -5 112.5 14.5t40.5 64.5q0 67 -103 69z" />
    <glyph glyph-name="uni0328" unicode="&#x328;" horiz-adv-x="0" 
d="M-98 -10q-12 -14 -42 -36.5t-44.5 -43t-14.5 -51.5q0 -30 17.5 -47.5t49.5 -17.5t82 23l6 -24q-55 -44 -118 -44q-47 0 -79 25.5t-32 71.5q0 44 26.5 71t70 46t52.5 27h26z" />
    <glyph glyph-name="Wgrave" unicode="&#x1e80;" horiz-adv-x="995" 
d="M590 874h-38l-129 183h100zM985 800v-24q-46 0 -65 -14.5t-31 -61.5l-186 -723h-50l-138 515l-163 -515h-48l-196 723q-13 47 -32.5 61.5t-65.5 14.5v24h301v-24q-67 0 -81 -16t1 -60l141 -530h3l121 391l-37 139q-13 47 -32 61.5t-65 14.5v24h301v-24q-67 0 -80 -14.5
t-1 -61.5l134 -513h3l129 513q12 47 -1 61.5t-80 14.5v24h218z" />
    <glyph glyph-name="wgrave" unicode="&#x1e81;" horiz-adv-x="757" 
d="M436 628h-38l-129 183h100zM747 528v-24q-32 0 -48.5 -15.5t-28.5 -60.5l-129 -451h-57l-89 302l-96 -302h-58l-149 452q-15 45 -32 60t-50 15v24h234v-24q-46 0 -53 -14t11 -61l100 -308h3l71 223l-25 84q-13 46 -29.5 61t-49.5 15v24h229v-24q-43 0 -49.5 -15t8.5 -61
l82 -290h3l83 290q15 46 8 61t-53 15v24h164z" />
    <glyph glyph-name="Wacute" unicode="&#x1e82;" horiz-adv-x="995" 
d="M660 1057l-129 -183h-38l67 183h100zM985 800v-24q-46 0 -65 -14.5t-31 -61.5l-186 -723h-50l-138 515l-163 -515h-48l-196 723q-13 47 -32.5 61.5t-65.5 14.5v24h301v-24q-67 0 -81 -16t1 -60l141 -530h3l121 391l-37 139q-13 47 -32 61.5t-65 14.5v24h301v-24
q-67 0 -80 -14.5t-1 -61.5l134 -513h3l129 513q12 47 -1 61.5t-80 14.5v24h218z" />
    <glyph glyph-name="wacute" unicode="&#x1e83;" horiz-adv-x="757" 
d="M507 811l-129 -183h-38l67 183h100zM747 528v-24q-32 0 -48.5 -15.5t-28.5 -60.5l-129 -451h-57l-89 302l-96 -302h-58l-149 452q-15 45 -32 60t-50 15v24h234v-24q-46 0 -53 -14t11 -61l100 -308h3l71 223l-25 84q-13 46 -29.5 61t-49.5 15v24h229v-24q-43 0 -49.5 -15
t8.5 -61l82 -290h3l83 290q15 46 8 61t-53 15v24h164z" />
    <glyph glyph-name="Wdieresis" unicode="&#x1e84;" horiz-adv-x="995" 
d="M437 909q-24 0 -41.5 17t-17.5 41q0 25 17.5 42t41.5 17t41.5 -17t17.5 -42q0 -24 -17.5 -41t-41.5 -17zM634 909q-24 0 -41 17t-17 41q0 25 17 42t41 17q25 0 42 -17t17 -42q0 -24 -17 -41t-42 -17zM985 800v-24q-46 0 -65 -14.5t-31 -61.5l-186 -723h-50l-138 515
l-163 -515h-48l-196 723q-13 47 -32.5 61.5t-65.5 14.5v24h301v-24q-67 0 -81 -16t1 -60l141 -530h3l121 391l-37 139q-13 47 -32 61.5t-65 14.5v24h301v-24q-67 0 -80 -14.5t-1 -61.5l134 -513h3l129 513q12 47 -1 61.5t-80 14.5v24h218z" />
    <glyph glyph-name="wdieresis" unicode="&#x1e85;" horiz-adv-x="757" 
d="M283 663q-24 0 -41.5 17t-17.5 41q0 25 17.5 42t41.5 17t41.5 -17t17.5 -42q0 -24 -17.5 -41t-41.5 -17zM480 663q-24 0 -41 17t-17 41q0 25 17 42t41 17q25 0 42 -17t17 -42q0 -24 -17 -41t-42 -17zM747 528v-24q-32 0 -48.5 -15.5t-28.5 -60.5l-129 -451h-57l-89 302
l-96 -302h-58l-149 452q-15 45 -32 60t-50 15v24h234v-24q-46 0 -53 -14t11 -61l100 -308h3l71 223l-25 84q-13 46 -29.5 61t-49.5 15v24h229v-24q-43 0 -49.5 -15t8.5 -61l82 -290h3l83 290q15 46 8 61t-53 15v24h164z" />
    <glyph glyph-name="Ygrave" unicode="&#x1ef2;" horiz-adv-x="703" 
d="M440 874h-38l-129 183h100zM418 103q0 -48 19.5 -63.5t86.5 -15.5v-24h-326v24q68 0 87.5 15.5t19.5 63.5v249l-178 356q-21 42 -45 55t-72 13v24h311v-24q-66 0 -75.5 -14t14.5 -55l142 -285h3l129 284q22 42 12 56t-76 14v24h223v-24q-47 0 -70.5 -13.5t-43.5 -56.5
l-161 -354v-249z" />
    <glyph glyph-name="ygrave" unicode="&#x1ef3;" horiz-adv-x="497" 
d="M311 628h-38l-129 183h100zM23 -167q0 24 15.5 39.5t37.5 15.5q29 0 51 -28q15 -21 33 -21q26 0 44.5 34.5t36.5 113.5l-144 442q-15 45 -31.5 60t-49.5 15v24h236v-24q-46 0 -53.5 -14.5t8.5 -61.5l83 -281l72 281q14 46 6 61t-54 15v24h166v-24q-32 0 -47.5 -15
t-28.5 -61l-110 -410q-3 -10 -10.5 -37t-10.5 -38t-10.5 -35t-12.5 -35t-14 -30.5t-17 -28.5t-19.5 -21.5t-24 -18t-28 -10t-33.5 -4.5q-40 0 -65.5 20.5t-25.5 52.5z" />
    <glyph glyph-name="endash" unicode="&#x2013;" horiz-adv-x="600" 
d="M0 233v74h600v-74h-600z" />
    <glyph glyph-name="emdash" unicode="&#x2014;" horiz-adv-x="1200" 
d="M0 233v74h1200v-74h-1200z" />
    <glyph glyph-name="quoteleft" unicode="&#x2018;" horiz-adv-x="234" 
d="M136 688q22 0 35 -16.5t13 -40.5q0 -28 -17.5 -44.5t-45.5 -16.5q-30 0 -50.5 22.5t-20.5 59.5q0 106 131 168v-24q-39 -19 -66.5 -47.5t-27.5 -56.5q0 -18 11 -18q3 0 14 7t24 7z" />
    <glyph glyph-name="quoteright" unicode="&#x2019;" horiz-adv-x="234" 
d="M99 703q-22 0 -35.5 16.5t-13.5 39.5q0 27 18 44t46 17q30 0 50 -22.5t20 -59.5q0 -106 -130 -168v24q38 19 65.5 47.5t27.5 56.5q0 18 -10 18q-3 0 -14 -6.5t-24 -6.5z" />
    <glyph glyph-name="quotesinglbase" unicode="&#x201a;" horiz-adv-x="234" 
d="M99 -20q-23 0 -36 16.5t-13 40.5q0 27 18 44t46 17q30 0 50 -23t20 -60q0 -104 -130 -168v24q38 19 65.5 47.5t27.5 56.5q0 19 -10 19q-3 0 -14 -7t-24 -7z" />
    <glyph glyph-name="quotedblleft" unicode="&#x201c;" horiz-adv-x="423" 
d="M132 688q22 0 35.5 -17t13.5 -40q0 -27 -18 -44t-46 -17q-30 0 -50.5 22.5t-20.5 59.5q0 105 131 168v-24q-38 -19 -65.5 -47.5t-27.5 -56.5q0 -18 10 -18q3 0 14 7t24 7zM324 688q22 0 35.5 -16.5t13.5 -40.5q0 -27 -18 -44t-46 -17q-30 0 -50.5 22.5t-20.5 59.5
q0 105 131 168v-24q-38 -19 -65.5 -47.5t-27.5 -56.5q0 -18 10 -18q3 0 14 7t24 7z" />
    <glyph glyph-name="quotedblright" unicode="&#x201d;" horiz-adv-x="423" 
d="M99 703q-22 0 -35.5 16.5t-13.5 39.5q0 27 18 44t46 17q30 0 50 -22.5t20 -59.5q0 -106 -130 -168v24q38 19 65.5 47.5t27.5 56.5q0 18 -10 18q-3 0 -14 -6.5t-24 -6.5zM291 703q-22 0 -35.5 16.5t-13.5 39.5q0 27 18 44t46 17q30 0 50.5 -22.5t20.5 -59.5
q0 -105 -131 -168v24q38 19 65.5 47.5t27.5 56.5q0 18 -10 18q-3 0 -14 -6.5t-24 -6.5z" />
    <glyph glyph-name="quotedblbase" unicode="&#x201e;" horiz-adv-x="423" 
d="M99 -20q-23 0 -36 16.5t-13 40.5q0 27 18 44t46 17q30 0 50 -23t20 -60q0 -104 -130 -168v24q38 19 65.5 47.5t27.5 56.5q0 19 -10 19q-3 0 -14 -7t-24 -7zM291 -20q-23 0 -36 16.5t-13 40.5q0 27 18 44t46 17q30 0 50.5 -23t20.5 -60q0 -104 -131 -168v24
q38 19 65.5 47.5t27.5 56.5q0 19 -10 19q-3 0 -14 -7t-24 -7z" />
    <glyph glyph-name="dagger" unicode="&#x2020;" horiz-adv-x="503" 
d="M399 659q23 0 38.5 -14.5t15.5 -39.5t-15.5 -39.5t-38.5 -14.5q-18 0 -58.5 21t-79.5 23q1 -46 13 -74.5t38 -61.5q-26 -53 -37 -130.5t-12 -229.5v-362h-24v362q-1 150 -11.5 228t-36.5 132q27 35 39.5 63t13.5 73q-40 -2 -81.5 -23t-59.5 -21q-23 0 -38 14.5t-15 39.5
t15 39.5t38 14.5q18 0 59.5 -22t81.5 -24q-2 41 -24.5 87t-22.5 74q0 26 15 41.5t39 15.5q25 0 40 -15.5t15 -41.5q0 -28 -21.5 -74t-23.5 -87q39 2 79.5 24t58.5 22z" />
    <glyph glyph-name="daggerdbl" unicode="&#x2021;" horiz-adv-x="503" 
d="M399 -3q23 0 38.5 -15t15.5 -40t-15.5 -39.5t-38.5 -14.5q-18 0 -58.5 22t-79.5 24q2 -41 23.5 -87t21.5 -73t-15 -42.5t-40 -15.5q-24 0 -39 15.5t-15 42.5t22.5 72.5t24.5 87.5q-40 -2 -81.5 -24t-59.5 -22q-23 0 -38 14.5t-15 39.5t15 40t38 15q18 0 59.5 -21.5
t81.5 -23.5q-2 59 -40 126q39 84 39 196t-39 196q38 67 40 125q-40 -2 -81.5 -23t-59.5 -21q-23 0 -38 14.5t-15 39.5t15 39.5t38 14.5q18 0 59.5 -22t81.5 -24q-2 41 -24.5 87t-22.5 74q0 26 15 41.5t39 15.5q25 0 40 -15.5t15 -41.5q0 -28 -21.5 -74t-23.5 -87
q39 2 79.5 24t58.5 22q23 0 38.5 -14.5t15.5 -39.5t-15.5 -39.5t-38.5 -14.5q-18 0 -58.5 21t-79.5 23q2 -60 37 -125q-38 -84 -38 -196t38 -196q-35 -65 -37 -126q39 2 79.5 23.5t58.5 21.5z" />
    <glyph glyph-name="bullet" unicode="&#x2022;" horiz-adv-x="394" 
d="M197 242q-61 0 -104 43t-43 104t43 103.5t104 42.5t104 -42.5t43 -103.5t-43 -104t-104 -43z" />
    <glyph glyph-name="ellipsis" unicode="&#x2026;" horiz-adv-x="690" 
d="M109 -20q-25 0 -42 17t-17 42q0 24 17 41.5t42 17.5q24 0 41.5 -17.5t17.5 -41.5q0 -25 -17.5 -42t-41.5 -17zM345 -20q-24 0 -41 17t-17 42q0 24 17 41.5t41 17.5q25 0 42 -17.5t17 -41.5q0 -25 -17 -42t-42 -17zM582 -20q-25 0 -42 17t-17 42q0 24 17 41.5t42 17.5
q24 0 41 -17.5t17 -41.5q0 -25 -17 -42t-41 -17z" />
    <glyph glyph-name="perthousand" unicode="&#x2030;" horiz-adv-x="1061" 
d="M189 410q-58 0 -98.5 59t-40.5 145q0 87 40 146.5t99 59.5q57 0 97 -59.5t40 -146.5q0 -85 -40 -144.5t-97 -59.5zM592 800h43l-497 -800h-43zM189 440q64 0 64 174q0 176 -64 176q-65 0 -65 -176q0 -174 65 -174zM541 -20q-58 0 -98.5 59.5t-40.5 145.5q0 87 40 146.5
t99 59.5q57 0 97.5 -59.5t40.5 -146.5q0 -86 -40.5 -145.5t-97.5 -59.5zM873 -20q-58 0 -98 59.5t-40 145.5q0 87 40 146.5t98 59.5t98 -59.5t40 -146.5q0 -86 -40 -145.5t-98 -59.5zM541 10q64 0 64 175q0 176 -64 176q-65 0 -65 -176q0 -175 65 -175zM873 10q64 0 64 175
q0 176 -64 176t-64 -176q0 -175 64 -175z" />
    <glyph glyph-name="guilsinglleft" unicode="&#x2039;" horiz-adv-x="294" 
d="M146 293l105 -244h-23l-170 244l170 241h23z" />
    <glyph glyph-name="guilsinglright" unicode="&#x203a;" horiz-adv-x="294" 
d="M148 293l-105 241h23l170 -241l-170 -244h-23z" />
    <glyph glyph-name="fraction" unicode="&#x2044;" horiz-adv-x="440" 
d="M447 800h43l-497 -800h-43z" />
    <glyph glyph-name="Euro" unicode="&#x20ac;" horiz-adv-x="675" 
d="M601 298h24q-36 -318 -234 -318q-113 0 -185 99.5t-84 259.5h-72l12 34h58v27q0 25 1 37h-71l12 34h61q15 157 88.5 253t188.5 96q108 0 193 -92v-185h-24q-5 121 -46 178.5t-102 57.5q-78 0 -122.5 -84t-53.5 -224h243l-12 -34h-232q-1 -12 -1 -37v-27h213l-11 -34h-200
q8 -142 52 -226t122 -84q73 0 120.5 70.5t61.5 198.5z" />
    <glyph glyph-name="trademark" unicode="&#x2122;" horiz-adv-x="1145" 
d="M145 759q-47 0 -65.5 -20.5t-26.5 -88.5l-24 3l14 116l4 31h404l3 -31l14 -116l-23 -3q-8 68 -27 88.5t-66 20.5h-66v-296q0 -48 13.5 -63.5t60.5 -15.5v-24h-223v24q47 0 61 16t14 63v296h-67zM805 471h3l139 329h168v-24q-48 0 -61.5 -15.5t-13.5 -63.5v-234
q0 -48 13.5 -63.5t61.5 -15.5v-24h-224v24q48 0 61.5 15.5t13.5 63.5v269h-3l-166 -392h-20l-156 392h-3l2 -269q0 -48 13.5 -63.5t61.5 -15.5v-24h-191v24q47 0 61 16t14 63v234q0 47 -14 63t-61 16v24h170z" />
    <glyph glyph-name="oneeighth" unicode="&#x215b;" horiz-adv-x="853" 
d="M82 342q29 0 37.5 9t8.5 39v337q0 30 -7 33.5t-45 -13.5l-7 13l68 33l49 23l10 -8v-418q0 -30 8.5 -39t37.5 -9v-14h-160v14zM616 800h43l-497 -800h-43zM681 272q104 -81 104 -160q0 -55 -40 -88.5t-102 -33.5q-64 0 -103.5 33.5t-39.5 82.5q0 42 26.5 75t77.5 70
q-48 40 -69.5 69.5t-21.5 66.5q0 47 38 77t95 30q58 0 92 -29t34 -72q0 -25 -14 -48t-29 -36t-48 -37zM648 469q-32 0 -51.5 -19.5t-19.5 -50.5q0 -26 17.5 -49t61.5 -58q62 53 62 104q0 31 -19 52t-51 21zM645 15q35 0 56 22.5t21 61.5q0 36 -22.5 65t-71.5 68
q-74 -63 -74 -126q0 -38 24 -64.5t67 -26.5z" />
    <glyph glyph-name="threeeighths" unicode="&#x215c;" horiz-adv-x="927" 
d="M356 455q0 -66 -50 -106.5t-120 -40.5q-44 0 -78.5 12.5t-34.5 34.5q0 24 32 24q22 0 40 -22q19 -24 52 -24q36 0 62 28.5t26 78.5q0 117 -127 128v14q96 31 96 113q0 32 -18.5 52.5t-53.5 20.5q-69 0 -88 -69h-16q8 53 43 83t89 30q50 0 82.5 -29t32.5 -79
q0 -76 -95 -115v-2q57 -6 91.5 -40.5t34.5 -91.5zM697 800h43l-497 -800h-43zM762 272q105 -83 105 -160q0 -55 -40.5 -88.5t-102.5 -33.5q-64 0 -103 33.5t-39 82.5q0 42 25.5 74t77.5 71q-48 40 -69 69.5t-21 66.5q0 47 38 77t94 30q58 0 92.5 -29t34.5 -72q0 -25 -14 -48
t-29.5 -36t-48.5 -37zM730 469q-32 0 -51.5 -19.5t-19.5 -50.5q0 -26 17.5 -49t61.5 -58q61 52 61 104q0 32 -18.5 52.5t-50.5 20.5zM726 15q35 0 56 22.5t21 61.5q0 36 -22.5 65t-71.5 68q-73 -62 -73 -126q0 -38 23.5 -64.5t66.5 -26.5z" />
    <glyph glyph-name="fiveeighths" unicode="&#x215d;" horiz-adv-x="896" 
d="M346 500q0 -92 -51 -142t-124 -50q-43 0 -72.5 12.5t-29.5 32.5q0 24 29 24q10 0 18.5 -5t10 -7t10.5 -13q16 -19 45 -19q35 0 61.5 40.5t26.5 112.5q0 132 -85 132q-37 0 -66 -26l-23 14l48 194h193l-14 -53h-156l-31 -121l2 -2q34 25 78 25q55 0 92.5 -41.5
t37.5 -107.5zM666 800h43l-497 -800h-43zM731 273q51 -41 78 -79.5t27 -81.5q0 -55 -40.5 -88.5t-102.5 -33.5q-64 0 -103.5 33.5t-39.5 82.5q0 42 26 75t78 71q-48 39 -69 68.5t-21 66.5q0 47 37.5 77t94.5 30q58 0 92 -29t34 -72q0 -37 -22 -62t-69 -58zM698 469
q-31 0 -51 -19.5t-20 -50.5q0 -25 17.5 -48.5t61.5 -58.5q62 53 62 104q0 32 -19 52.5t-51 20.5zM695 15q35 0 56 22.5t21 61.5q0 36 -22.5 65t-71.5 68q-73 -62 -73 -126q0 -38 23.5 -64.5t66.5 -26.5z" />
    <glyph glyph-name="seveneighths" unicode="&#x215e;" horiz-adv-x="844" 
d="M295 747h-163q-28 0 -41 -14t-23 -58l-14 3l18 75l10 47h283l-165 -487l-46 11l141 421v2zM614 800h43l-497 -800h-43zM679 272q104 -81 104 -160q0 -55 -40 -88.5t-102 -33.5q-64 0 -103.5 33.5t-39.5 82.5q0 42 26.5 75t77.5 70q-48 40 -69.5 69.5t-21.5 66.5
q0 47 38 77t95 30q58 0 92 -29t34 -72q0 -25 -14 -48t-29 -36t-48 -37zM646 469q-32 0 -51.5 -19.5t-19.5 -50.5q0 -26 17.5 -49t61.5 -58q62 53 62 104q0 31 -19 52t-51 21zM643 15q35 0 56 22.5t21 61.5q0 36 -22.5 65t-71.5 68q-74 -63 -74 -126q0 -38 24 -64.5t67 -26.5
z" />
    <glyph glyph-name="arrowleft" unicode="&#x2190;" horiz-adv-x="854" 
d="M804 241h-507q-35 0 -85 9.5t-78 9.5v-3q78 -35 119.5 -74t78.5 -95l-57 -49q-43 80 -94 129t-131 85v35q80 36 131 84.5t94 128.5l57 -48q-24 -37 -43.5 -60.5t-59.5 -54.5t-95 -55v-3q28 0 78 9.5t85 9.5h507v-58z" />
    <glyph glyph-name="arrowup" unicode="&#x2191;" horiz-adv-x="570" 
d="M314 -63h-58v507q0 35 9.5 85.5t9.5 78.5h-3q-35 -79 -74.5 -120.5t-94.5 -77.5l-49 56q80 43 129 94t85 131h35q36 -80 84.5 -131t128.5 -94l-48 -56q-56 35 -95.5 77t-74.5 121h-3q0 -28 9.5 -78.5t9.5 -85.5v-507z" />
    <glyph glyph-name="arrowright" unicode="&#x2192;" horiz-adv-x="854" 
d="M50 241v58h507q35 0 85 -9.5t78 -9.5v3q-78 35 -119.5 74.5t-78.5 95.5l57 48q43 -80 94 -128.5t131 -84.5v-35q-80 -36 -131 -85t-94 -129l-57 49q24 37 43.5 60t60 54t94.5 55v3q-28 0 -78 -9.5t-85 -9.5h-507z" />
    <glyph glyph-name="arrowdown" unicode="&#x2193;" horiz-adv-x="570" 
d="M314 628v-507q0 -35 -9.5 -85.5t-9.5 -78.5h3q35 79 74.5 121t95.5 77l48 -56q-80 -43 -128.5 -94t-84.5 -131h-35q-36 80 -85 131t-129 94l49 56q36 -23 59.5 -42.5t54.5 -60t55 -95.5h3q0 28 -9.5 78.5t-9.5 85.5v507h58z" />
    <glyph glyph-name="arrowboth" unicode="&#x2194;" horiz-adv-x="1154" 
d="M879 501q43 -80 94 -128.5t131 -84.5v-35q-80 -36 -131 -85t-94 -129l-57 49q24 37 43.5 60t60 54t94.5 55v3q-29 0 -79 -9.5t-84 -9.5h-560q-35 0 -85 9.5t-78 9.5v-3q78 -35 119.5 -74t78.5 -95l-57 -49q-43 80 -94 129t-131 85v35q80 36 131 84.5t94 128.5l57 -48
q-24 -37 -43.5 -60.5t-59.5 -54.5t-95 -55v-3q28 0 78 9.5t85 9.5h560q35 0 85 -9.5t78 -9.5v3q-78 35 -119.5 74.5t-78.5 95.5z" />
    <glyph glyph-name="arrowupdn" unicode="&#x2195;" horiz-adv-x="563" 
d="M294 -176q35 78 74.5 119.5t95.5 78.5l49 -57q-80 -43 -129 -94t-85 -131h-35q-36 80 -85 131t-129 94l49 57q37 -24 60 -43.5t54 -60t55 -94.5h3q0 28 -9.5 78t-9.5 85v560q0 35 9.5 85t9.5 78h-3q-35 -78 -74 -119.5t-95 -78.5l-49 57q80 43 129 94t85 131h35
q36 -80 85 -131t129 -94l-49 -57q-37 24 -60.5 43.5t-54.5 59.5t-55 95h-3q0 -28 10 -78t10 -85v-560q0 -35 -10 -85t-10 -78h3z" />
    <glyph glyph-name="uni2196" unicode="&#x2196;" horiz-adv-x="671" 
d="M573 -8l-358 358q-25 25 -53.5 67.5t-48.5 62.5l-2 -2q22 -56 28.5 -106.5t3.5 -81t-12 -72.5l-74 5q26 85 24.5 156.5t-32.5 154.5l25 24q82 -31 153.5 -32.5t156.5 24.5l5 -74q-42 -9 -72.5 -12t-80.5 4t-106 28l-3 -2q20 -20 62.5 -48.5t67.5 -53.5l358 -358z" />
    <glyph glyph-name="uni2197" unicode="&#x2197;" horiz-adv-x="671" 
d="M97 -8l-41 42l358 358q25 25 67 53.5t62 48.5l-2 2q-56 -21 -106 -28t-81 -4t-73 12l6 74q85 -26 156.5 -24.5t153.5 32.5l25 -24q-31 -83 -32.5 -154.5t24.5 -156.5l-75 -5q-9 43 -11.5 73t4 80.5t27.5 106.5l-2 2q-19 -20 -48 -62.5t-54 -67.5z" />
    <glyph glyph-name="uni2198" unicode="&#x2198;" horiz-adv-x="671" 
d="M97 548l358 -358q25 -25 54 -67.5t48 -62.5l2 2q-21 56 -27.5 106.5t-4 80.5t11.5 73l75 -5q-26 -85 -24.5 -156.5t32.5 -154.5l-25 -24q-82 31 -153.5 32.5t-156.5 -24.5l-6 74q42 9 73 12t81 -4t106 -28l2 2q-20 20 -62 48.5t-67 53.5l-358 358z" />
    <glyph glyph-name="uni2199" unicode="&#x2199;" horiz-adv-x="671" 
d="M573 548l42 -42l-358 -358q-25 -25 -67.5 -53.5t-62.5 -48.5l3 -2q56 21 106 28t80.5 4t72.5 -12l-5 -74q-85 26 -156.5 24.5t-153.5 -32.5l-25 24q31 83 32.5 154.5t-24.5 156.5l74 5q9 -42 12 -72.5t-3.5 -81t-28.5 -106.5l2 -2q20 20 48.5 62.5t53.5 67.5z" />
    <glyph glyph-name="partialdiff" unicode="&#x2202;" horiz-adv-x="664" 
d="M387 820q128 0 185.5 -112t34.5 -324q-22 -208 -108.5 -326t-213.5 -118t-189.5 87.5t-39.5 234.5q19 118 98.5 187t186.5 69q151 0 226 -121q9 92 -3.5 160t-42 106.5t-67 57t-83.5 18.5q-121 0 -197 -100h-23q35 81 94.5 131t141.5 50zM289 -19q110 0 180 102t94 276
q-64 117 -195 117q-77 0 -138 -61t-79 -169q-20 -117 15 -191t123 -74z" />
    <glyph glyph-name="emptyset" unicode="&#x2205;" horiz-adv-x="651" 
d="M601 554l-82 -82q60 -71 60 -164q0 -105 -74.5 -179.5t-179.5 -74.5q-93 0 -164 61l-82 -82l-29 29l82 82q-60 71 -60 164q0 105 74 179.5t179 74.5q93 0 165 -61l82 82zM113 308q0 -76 48 -135l299 299q-59 48 -135 48q-88 0 -150 -62t-62 -150zM538 308q0 77 -49 135
l-299 -299q59 -48 135 -48q88 0 150.5 62t62.5 150z" />
    <glyph glyph-name="product" unicode="&#x220f;" horiz-adv-x="877" 
d="M827 796q-68 0 -87.5 -16t-19.5 -63v-774q0 -47 19.5 -63t87.5 -16v-24h-310v24q68 0 87.5 15.5t19.5 63.5v836h-371v-836q0 -47 19.5 -63t87.5 -16v-24h-310v24q68 0 87.5 16t19.5 63v774q0 47 -19.5 63t-87.5 16v24h777v-24z" />
    <glyph glyph-name="summation" unicode="&#x2211;" horiz-adv-x="721" 
d="M627 820l3 -28l16 -157l-24 -2q-9 91 -28 118.5t-66 27.5h-346l270 -379l-305 -464h390q47 0 68 33.5t37 144.5l23 -3l-27 -191l-12 -80h-576v24l319 484v3l-319 445v24h577z" />
    <glyph glyph-name="minus" unicode="&#x2212;" horiz-adv-x="445" 
d="M50 233v74h345v-74h-345z" />
    <glyph glyph-name="radical" unicode="&#x221a;" horiz-adv-x="675" 
d="M656 887l-168 -949h-35l-264 519l-119 -59l-20 36l206 103l218 -440h3l138 790h41z" />
    <glyph glyph-name="infinity" unicode="&#x221e;" horiz-adv-x="918" 
d="M689 592q76 0 127.5 -49t51.5 -133q0 -88 -52.5 -140t-128.5 -52q-36 0 -66.5 9.5t-61 32t-50.5 41.5t-54 56q-72 -65 -129 -92t-118 -27q-67 0 -112.5 44t-45.5 121q0 74 48 121.5t124 47.5q57 0 103 -32t104 -93q86 80 140.5 112.5t119.5 32.5zM687 266q57 0 98 40
t41 109q0 53 -34.5 87.5t-87.5 34.5q-23 0 -42 -5.5t-42 -22.5t-34.5 -27.5t-43 -42t-44.5 -43.5q-2 -1 -5.5 -4.5l-5.5 -5.5q59 -62 103 -91t97 -29zM194 293q43 0 85.5 25.5t118.5 98.5q-57 57 -97 82.5t-84 25.5q-55 0 -90.5 -36t-35.5 -89q0 -47 29.5 -77t73.5 -30z" />
    <glyph glyph-name="integral" unicode="&#x222b;" horiz-adv-x="440" 
d="M335 15q0 -90 -38.5 -142.5t-116.5 -52.5q-57 0 -93.5 30.5t-36.5 74.5q0 21 10.5 34t31.5 13q41 0 44 -45q1 -14 1.5 -20t3 -17t7 -16t12.5 -9t20 -4q66 0 66 143q0 72 -22 159.5t-48.5 157t-48.5 159.5t-22 165q0 89 40.5 142t118.5 53q55 0 90.5 -30.5t35.5 -74.5
q0 -21 -10.5 -34t-31.5 -13q-41 0 -44 45q-1 14 -1.5 20t-3 17t-7 16t-12.5 9t-20 4q-66 0 -66 -150q0 -69 22 -155.5t48.5 -155.5t48.5 -158t22 -165z" />
    <glyph glyph-name="approxequal" unicode="&#x2248;" horiz-adv-x="618" 
d="M544 440h24q-3 -70 -37.5 -111t-92.5 -41q-50 0 -134 40t-133 40q-81 0 -97 -79h-24q3 70 37.5 111t91.5 41q50 0 134 -40t133 -40q82 0 98 79zM544 250h24q-3 -70 -37.5 -111t-92.5 -41q-50 0 -134 40t-133 40q-81 0 -97 -79h-24q3 70 37.5 111t91.5 41q50 0 134 -40
t133 -40q82 0 98 79z" />
    <glyph glyph-name="notequal" unicode="&#x2260;" horiz-adv-x="445" 
d="M395 324h-133l-43 -108h176v-74h-205l-56 -139h-36l56 139h-104v74h133l43 108h-176v74h206l56 140h36l-56 -140h103v-74z" />
    <glyph glyph-name="lessequal" unicode="&#x2264;" horiz-adv-x="468" 
d="M418 161l-368 113v107l368 114v-78l-306 -88v-3l306 -88v-77zM418 66h-368v73h368v-73z" />
    <glyph glyph-name="greaterequal" unicode="&#x2265;" horiz-adv-x="468" 
d="M50 161v77l305 88v3l-305 88v78l368 -114v-107zM50 66v73h368v-73h-368z" />
    <glyph glyph-name="uni2460" unicode="&#x2460;" 
d="M471 820q175 0 297 -122t122 -299q0 -173 -122.5 -296t-296.5 -123q-176 0 -298.5 122.5t-122.5 296.5q0 177 122 299t299 122zM471 790q-164 0 -277.5 -114t-113.5 -277t113 -276t278 -113q161 0 275 113.5t114 275.5t-114 276.5t-275 114.5zM504 219q0 -30 8.5 -39
t38.5 -9v-14h-161v14q30 0 38.5 9t8.5 39v337q0 30 -7.5 33.5t-45.5 -13.5l-6 13l67 33l50 23l9 -8v-418z" />
    <glyph glyph-name="uni2461" unicode="&#x2461;" 
d="M471 820q175 0 297 -122t122 -299q0 -173 -122.5 -296t-296.5 -123q-176 0 -298.5 122.5t-122.5 296.5q0 177 122 299t299 122zM471 790q-164 0 -277.5 -114t-113.5 -277t113 -276t278 -113q161 0 275 113.5t114 275.5t-114 276.5t-275 114.5zM553 223q28 0 41.5 12.5
t27.5 49.5l14 -5l-25 -65l-16 -45h-283v14q115 109 170.5 183.5t55.5 144.5q0 44 -21 70t-63 26q-50 0 -78.5 -34.5t-31.5 -94.5h-15q0 84 42.5 133.5t116.5 49.5q58 0 89.5 -33.5t31.5 -85.5q0 -76 -62.5 -155t-162.5 -163v-2h169z" />
    <glyph glyph-name="uni2462" unicode="&#x2462;" 
d="M471 820q175 0 297 -122t122 -299q0 -173 -122.5 -296t-296.5 -123q-176 0 -298.5 122.5t-122.5 296.5q0 177 122 299t299 122zM471 790q-164 0 -277.5 -114t-113.5 -277t113 -276t278 -113q161 0 275 113.5t114 275.5t-114 276.5t-275 114.5zM332 195q0 24 32 24
q22 0 40 -22q19 -24 52 -24q36 0 61.5 28.5t25.5 78.5q0 117 -126 128v14q95 31 95 113q0 32 -18.5 52.5t-52.5 20.5q-69 0 -88 -69h-16q8 53 43 83t89 30q50 0 82.5 -29t32.5 -79q0 -77 -96 -115v-2q57 -6 92 -40.5t35 -91.5q0 -66 -50.5 -106.5t-120.5 -40.5
q-44 0 -78 12.5t-34 34.5z" />
    <glyph glyph-name="uni2463" unicode="&#x2463;" 
d="M471 820q175 0 297 -122t122 -299q0 -173 -122.5 -296t-296.5 -123q-176 0 -298.5 122.5t-122.5 296.5q0 177 122 299t299 122zM471 790q-164 0 -277.5 -114t-113.5 -277t113 -276t278 -113q161 0 275 113.5t114 275.5t-114 276.5t-275 114.5zM298 291v50l203 299h52
v-299h59v-50h-59v-69q0 -30 8.5 -39t38.5 -9v-14h-160v14q29 0 37.5 9t8.5 39v69h-188zM331 341h155v238l-155 -236v-2z" />
    <glyph glyph-name="uni2464" unicode="&#x2464;" 
d="M471 820q175 0 297 -122t122 -299q0 -173 -122.5 -296t-296.5 -123q-176 0 -298.5 122.5t-122.5 296.5q0 177 122 299t299 122zM471 790q-164 0 -277.5 -114t-113.5 -277t113 -276t278 -113q161 0 275 113.5t114 275.5t-114 276.5t-275 114.5zM332 199q0 24 29 24
q18 0 39 -25q16 -19 45 -19q35 0 61.5 40.5t26.5 112.5q0 132 -85 132q-38 0 -67 -26l-22 14l48 194h193l-14 -53h-157l-31 -121l3 -2q32 25 78 25q55 0 92.5 -41.5t37.5 -107.5q0 -92 -51 -142t-124 -50q-43 0 -72.5 12.5t-29.5 32.5z" />
    <glyph glyph-name="uni2465" unicode="&#x2465;" 
d="M471 820q175 0 297 -122t122 -299q0 -173 -122.5 -296t-296.5 -123q-176 0 -298.5 122.5t-122.5 296.5q0 177 122 299t299 122zM471 10q161 0 275 113.5t114 275.5t-114 276.5t-275 114.5q-164 0 -277.5 -114t-113.5 -277t113 -276t278 -113zM496 489q57 0 89.5 -44.5
t32.5 -110.5q0 -74 -39.5 -130t-111.5 -56q-76 0 -118.5 58t-40.5 154q2 111 73.5 191t203.5 101v-14q-154 -35 -190 -198q40 49 101 49zM467 173q75 0 75 148q0 143 -74 143q-42 0 -77 -44q-7 -36 -7 -73q-2 -80 20 -127t63 -47z" />
    <glyph glyph-name="uni2466" unicode="&#x2466;" 
d="M471 820q175 0 297 -122t122 -299q0 -173 -122.5 -296t-296.5 -123q-176 0 -298.5 122.5t-122.5 296.5q0 177 122 299t299 122zM471 790q-164 0 -277.5 -114t-113.5 -277t113 -276t278 -113q161 0 275 113.5t114 275.5t-114 276.5t-275 114.5zM451 141l-45 11l141 421v2
h-164q-28 0 -40.5 -14t-22.5 -58l-14 3l17 75l10 47h284z" />
    <glyph glyph-name="uni2467" unicode="&#x2467;" 
d="M471 820q175 0 297 -122t122 -299q0 -173 -122.5 -296t-296.5 -123q-176 0 -298.5 122.5t-122.5 296.5q0 177 122 299t299 122zM471 10q161 0 275 113.5t114 275.5t-114 276.5t-275 114.5q-164 0 -277.5 -114t-113.5 -277t113 -276t278 -113zM507 431q104 -84 104 -161
q0 -55 -40 -88.5t-102 -33.5q-64 0 -103.5 33.5t-39.5 82.5q0 42 26.5 75t77.5 70q-48 40 -69.5 69.5t-21.5 66.5q0 47 38 77t95 30q58 0 92 -29t34 -72q0 -37 -22 -62t-69 -58zM474 627q-31 0 -51 -19.5t-20 -50.5q0 -25 17.5 -48.5t61.5 -58.5q62 53 62 104q0 31 -19 52
t-51 21zM471 173q35 0 56 22.5t21 61.5q0 36 -22.5 65t-71.5 68q-74 -63 -74 -126q0 -38 24 -64.5t67 -26.5z" />
    <glyph glyph-name="uni2468" unicode="&#x2468;" 
d="M469 820q176 0 298.5 -122.5t122.5 -296.5q0 -177 -122 -299t-299 -122q-175 0 -297 122t-122 299q0 173 122.5 296t296.5 123zM469 10q164 0 277.5 114t113.5 277t-113 276t-278 113q-161 0 -275 -113.5t-114 -275.5t114 -276.5t275 -114.5zM473 652q76 0 118.5 -58
t40.5 -154q-2 -111 -73.5 -191t-203.5 -101v14q154 35 190 198q-39 -48 -101 -48q-58 0 -90 44t-32 110q0 74 39.5 130t111.5 56zM556 453q2 80 -20 127t-63 47q-75 0 -75 -148q0 -143 74 -143q42 0 77 44q7 36 7 73z" />
    <glyph glyph-name="uni2469" unicode="&#x2469;" 
d="M471 820q175 0 297 -122t122 -299q0 -173 -122.5 -296t-296.5 -123q-176 0 -298.5 122.5t-122.5 296.5q0 177 122 299t299 122zM471 790q-164 0 -277.5 -114t-113.5 -277t113 -276t278 -113q161 0 275 113.5t114 275.5t-114 276.5t-275 114.5zM587 148q-76 0 -118 71.5
t-42 180.5t42 180.5t118 71.5q77 0 119 -71.5t42 -180.5t-42 -180.5t-119 -71.5zM356 219q0 -30 8.5 -39t38.5 -9v-14h-161v14q30 0 38.5 9t8.5 39v337q0 30 -7.5 33.5t-45.5 -13.5l-6 13l67 33l50 23l9 -8v-418zM587 173q85 0 85 227t-85 227q-84 0 -84 -227t84 -227z" />
    <glyph glyph-name="uni246A" unicode="&#x246a;" 
d="M471 820q175 0 297 -122t122 -299q0 -173 -122.5 -296t-296.5 -123q-176 0 -298.5 122.5t-122.5 296.5q0 177 122 299t299 122zM471 790q-164 0 -277.5 -114t-113.5 -277t113 -276t278 -113q161 0 275 113.5t114 275.5t-114 276.5t-275 114.5zM390 219q0 -30 8.5 -39
t37.5 -9v-14h-160v14q29 0 37.5 9t8.5 39v337q0 30 -7 33.5t-45 -13.5l-7 13l68 33l49 23l10 -8v-418zM625 219q0 -30 8.5 -39t37.5 -9v-14h-160v14q29 0 37.5 9t8.5 39v337q0 30 -7.5 33.5t-44.5 -13.5l-7 13l68 33l49 23l10 -8v-418z" />
    <glyph glyph-name="uni246B" unicode="&#x246b;" 
d="M471 820q175 0 297 -122t122 -299q0 -173 -122.5 -296t-296.5 -123q-176 0 -298.5 122.5t-122.5 296.5q0 177 122 299t299 122zM471 790q-164 0 -277.5 -114t-113.5 -277t113 -276t278 -113q161 0 275 113.5t114 275.5t-114 276.5t-275 114.5zM663 210q29 0 42.5 12.5
t27.5 49.5l13 -5l-24 -65l-17 -45h-283v14q115 110 171 184t56 144q0 44 -21 70.5t-64 26.5q-50 0 -78 -35t-31 -94h-16q0 83 43 132.5t117 49.5q58 0 89.5 -33.5t31.5 -85.5q0 -75 -62.5 -154.5t-162.5 -163.5v-2h168zM344 219q0 -30 8.5 -39t37.5 -9v-14h-160v14
q30 0 38.5 9t8.5 39v337q0 30 -7.5 33.5t-45.5 -13.5l-6 13l67 33l50 23l9 -8v-418z" />
    <glyph glyph-name="uni246C" unicode="&#x246c;" 
d="M471 820q175 0 297 -122t122 -299q0 -173 -122.5 -296t-296.5 -123q-176 0 -298.5 122.5t-122.5 296.5q0 177 122 299t299 122zM471 790q-164 0 -277.5 -114t-113.5 -277t113 -276t278 -113q161 0 275 113.5t114 275.5t-114 276.5t-275 114.5zM436 195q0 24 32 24
q22 0 40 -22q19 -24 52 -24q36 0 61.5 28.5t25.5 78.5q0 117 -126 128v14q95 31 95 113q0 32 -18.5 52.5t-52.5 20.5q-69 0 -88 -69h-16q8 53 43 83t89 30q50 0 82.5 -29t32.5 -79q0 -77 -96 -115v-2q57 -6 92 -40.5t35 -91.5q0 -66 -50.5 -106.5t-120.5 -40.5
q-44 0 -78 12.5t-34 34.5zM358 219q0 -30 8.5 -39t38.5 -9v-14h-161v14q30 0 38.5 9t8.5 39v337q0 30 -7.5 33.5t-45.5 -13.5l-6 13l68 33l49 23l9 -8v-418z" />
    <glyph glyph-name="uni246D" unicode="&#x246d;" 
d="M471 820q175 0 297 -122t122 -299q0 -173 -122.5 -296t-296.5 -123q-176 0 -298.5 122.5t-122.5 296.5q0 177 122 299t299 122zM471 790q-164 0 -277.5 -114t-113.5 -277t113 -276t278 -113q161 0 275 113.5t114 275.5t-114 276.5t-275 114.5zM344 219q0 -30 8.5 -39
t37.5 -9v-14h-160v14q30 0 38.5 9t8.5 39v337q0 30 -7.5 33.5t-45.5 -13.5l-6 13l67 33l50 23l9 -8v-418zM406 288v50l202 299h53v-299h58v-50h-58v-69q0 -30 8.5 -39t37.5 -9v-14h-160v14q29 0 37.5 9t8.5 39v69h-187zM438 338h155v238l-155 -236v-2z" />
    <glyph glyph-name="uni246E" unicode="&#x246e;" 
d="M471 820q175 0 297 -122t122 -299q0 -173 -122.5 -296t-296.5 -123q-176 0 -298.5 122.5t-122.5 296.5q0 177 122 299t299 122zM471 790q-164 0 -277.5 -114t-113.5 -277t113 -276t278 -113q161 0 275 113.5t114 275.5t-114 276.5t-275 114.5zM444 199q0 24 29 24
q18 0 39 -25q16 -19 45 -19q35 0 61.5 40.5t26.5 112.5q0 132 -85 132q-38 0 -67 -26l-22 14l48 194h193l-14 -53h-157l-31 -121l3 -2q32 25 78 25q55 0 92.5 -41.5t37.5 -107.5q0 -92 -51 -142t-124 -50q-43 0 -72.5 12.5t-29.5 32.5zM359 219q0 -30 8.5 -39t37.5 -9v-14
h-160v14q30 0 38.5 9t8.5 39v337q0 30 -7.5 33.5t-45.5 -13.5l-6 13l67 33l50 23l9 -8v-418z" />
    <glyph glyph-name="uni246F" unicode="&#x246f;" 
d="M471 820q175 0 297 -122t122 -299q0 -173 -122.5 -296t-296.5 -123q-176 0 -298.5 122.5t-122.5 296.5q0 177 122 299t299 122zM471 10q161 0 275 113.5t114 275.5t-114 276.5t-275 114.5q-164 0 -277.5 -114t-113.5 -277t113 -276t278 -113zM613 489q57 0 89.5 -44.5
t32.5 -110.5q0 -74 -39.5 -130t-111.5 -56q-76 0 -118.5 58t-40.5 154q2 111 73.5 191t203.5 101v-14q-154 -35 -190 -198q40 49 101 49zM346 219q0 -30 8.5 -39t37.5 -9v-14h-160v14q29 0 37.5 9t8.5 39v337q0 30 -7 33.5t-45 -13.5l-7 13l68 33l49 23l10 -8v-418zM584 173
q75 0 75 148q0 143 -74 143q-42 0 -77 -44q-7 -36 -7 -73q-2 -80 20 -127t63 -47z" />
    <glyph glyph-name="uni2470" unicode="&#x2470;" 
d="M471 820q175 0 297 -122t122 -299q0 -173 -122.5 -296t-296.5 -123q-176 0 -298.5 122.5t-122.5 296.5q0 177 122 299t299 122zM471 790q-164 0 -277.5 -114t-113.5 -277t113 -276t278 -113q161 0 275 113.5t114 275.5t-114 276.5t-275 114.5zM346 219q0 -30 8.5 -39
t38.5 -9v-14h-161v14q30 0 38.5 9t8.5 39v337q0 30 -7.5 33.5t-45.5 -13.5l-6 13l68 33l49 23l9 -8v-418zM556 155l-46 11l141 421v2h-163q-28 0 -41 -14t-23 -58l-14 3l17 75l11 47h283z" />
    <glyph glyph-name="uni2471" unicode="&#x2471;" 
d="M471 820q175 0 297 -122t122 -299q0 -173 -122.5 -296t-296.5 -123q-176 0 -298.5 122.5t-122.5 296.5q0 177 122 299t299 122zM471 10q161 0 275 113.5t114 275.5t-114 276.5t-275 114.5q-164 0 -277.5 -114t-113.5 -277t113 -276t278 -113zM612 430q105 -82 105 -160
q0 -55 -40.5 -88.5t-102.5 -33.5q-64 0 -103 33.5t-39 82.5q0 42 25.5 74t77.5 71q-48 40 -69 69.5t-21 66.5q0 47 38 77t94 30q58 0 92.5 -29t34.5 -72q0 -25 -14 -48t-29.5 -36t-48.5 -37zM349 219q0 -30 8.5 -39t38.5 -9v-14h-161v14q30 0 38.5 9t8.5 39v337
q0 30 -7.5 33.5t-45.5 -13.5l-6 13l67 33l50 23l9 -8v-418zM580 627q-32 0 -51.5 -19.5t-19.5 -50.5q0 -26 17.5 -49t61.5 -58q61 52 61 104q0 32 -18.5 52.5t-50.5 20.5zM576 173q35 0 56 22.5t21 61.5q0 36 -22.5 65t-71.5 68q-73 -62 -73 -126q0 -38 23.5 -64.5
t66.5 -26.5z" />
    <glyph glyph-name="uni2472" unicode="&#x2472;" 
d="M471 820q175 0 297 -122t122 -299q0 -173 -122.5 -296t-296.5 -123q-176 0 -298.5 122.5t-122.5 296.5q0 177 122 299t299 122zM471 10q161 0 275 113.5t114 275.5t-114 276.5t-275 114.5q-164 0 -277.5 -114t-113.5 -277t113 -276t278 -113zM581 652q75 0 117.5 -58
t41.5 -154q-2 -111 -73.5 -191t-203.5 -101v14q154 35 190 198q-41 -48 -102 -48q-58 0 -90 44t-32 110q0 74 40 130t112 56zM353 219q0 -30 8.5 -39t37.5 -9v-14h-160v14q29 0 37.5 9t8.5 39v337q0 30 -7.5 33.5t-44.5 -13.5l-7 13l68 33l49 23l10 -8v-418zM663 453
q2 80 -20 127t-62 47q-76 0 -76 -148q0 -143 75 -143q42 0 77 45q6 39 6 72z" />
    <glyph glyph-name="uni2473" unicode="&#x2473;" 
d="M471 820q175 0 297 -122t122 -299q0 -173 -122.5 -296t-296.5 -123q-176 0 -298.5 122.5t-122.5 296.5q0 177 122 299t299 122zM471 10q161 0 275 113.5t114 275.5t-114 276.5t-275 114.5q-164 0 -277.5 -114t-113.5 -277q0 -138 85 -245v14q115 109 170.5 183.5
t55.5 144.5q0 97 -84 97q-50 0 -78.5 -35t-30.5 -94h-16q0 83 43 132.5t117 49.5q58 0 89.5 -33.5t31.5 -85.5q0 -75 -62.5 -154.5t-162.5 -163.5v-2h168q29 0 42 12t28 50l13 -5l-24 -65l-17 -45h-283q54 -67 134 -105.5t172 -38.5zM664 652q77 0 119 -71.5t42 -180.5
t-42 -180.5t-119 -71.5t-119 71.5t-42 180.5t42 180.5t119 71.5zM664 173q85 0 85 227t-85 227t-85 -227t85 -227z" />
    <glyph glyph-name="uni24EA" unicode="&#x24ea;" 
d="M471 820q175 0 297 -122t122 -299q0 -173 -122.5 -296t-296.5 -123q-176 0 -298.5 122.5t-122.5 296.5q0 177 122 299t299 122zM471 790q-164 0 -277.5 -114t-113.5 -277t113 -276t278 -113q161 0 275 113.5t114 275.5t-114 276.5t-275 114.5zM469 148q-77 0 -119 71.5
t-42 180.5t42 180.5t119 71.5t119 -71.5t42 -180.5t-42 -180.5t-119 -71.5zM469 173q84 0 84 227t-84 227q-85 0 -85 -227t85 -227z" />
    <glyph glyph-name="uni24EB" unicode="&#x24eb;" 
d="M471 820q-177 0 -299 -122t-122 -299q0 -174 122.5 -296.5t298.5 -122.5q174 0 296.5 123t122.5 296q0 177 -122 299t-297 122zM390 227q0 -30 8 -38.5t38 -8.5v-15h-160v15q30 0 38 8.5t8 38.5v337q0 30 -7 34t-45 -13l-7 13l68 32l49 24l10 -9v-418zM624 227
q0 -30 8.5 -38.5t38.5 -8.5v-15h-161v15q30 0 38.5 9t8.5 38v337q0 31 -7.5 34.5t-45.5 -13.5l-6 13l117 56l9 -9v-418z" />
    <glyph glyph-name="uni24EC" unicode="&#x24ec;" 
d="M471 820q-177 0 -299 -122t-122 -299q0 -174 122.5 -296.5t298.5 -122.5q174 0 296.5 123t122.5 296q0 177 -122 299t-297 122zM659 216q28 0 42 12.5t28 49.5l13 -5l-24 -65l-17 -45h-283v14q115 109 170.5 183.5t55.5 144.5q0 44 -21 70t-63 26q-50 0 -78.5 -34.5
t-31.5 -93.5h-15q0 83 43 132.5t117 49.5q58 0 89 -33t31 -86q0 -76 -62.5 -155t-162.5 -163v-2h169zM337 225q0 -30 8.5 -39t37.5 -9v-14h-160v14q30 0 38.5 9t8.5 39v336q0 31 -7.5 34.5t-45.5 -13.5l-6 13l117 56l9 -8v-418z" />
    <glyph glyph-name="uni24ED" unicode="&#x24ed;" 
d="M471 820q-177 0 -299 -122t-122 -299q0 -174 122.5 -296.5t298.5 -122.5q174 0 296.5 123t122.5 296q0 177 -122 299t-297 122zM434 195q0 24 32 24q22 0 40 -22q19 -24 52 -24q36 0 61.5 28.5t25.5 78.5q0 117 -126 128v14q95 31 95 113q0 32 -18.5 52.5t-52.5 20.5
q-69 0 -88 -69h-16q8 53 43 83t89 30q50 0 82.5 -29t32.5 -79q0 -77 -96 -115v-2q57 -6 92 -40.5t35 -91.5q0 -66 -50.5 -106.5t-120.5 -40.5q-44 0 -78 12.5t-34 34.5zM345 219q0 -30 8.5 -39t38.5 -9v-14h-161v14q30 0 38.5 9t8.5 39v337q0 30 -7.5 33.5t-45.5 -13.5
l-6 13l67 33l50 23l9 -8v-418z" />
    <glyph glyph-name="uni24EE" unicode="&#x24ee;" 
d="M471 820q-177 0 -299 -122t-122 -299q0 -174 122.5 -296.5t298.5 -122.5q174 0 296.5 123t122.5 296q0 177 -122 299t-297 122zM342 225q0 -30 8.5 -39t38.5 -9v-14h-161v14q30 0 38.5 9t8.5 39v336q0 31 -7.5 34.5t-45.5 -13.5l-6 13l117 56l9 -8v-418zM406 294v50
l203 299h52v-299h59v-50h-59v-69q0 -30 8.5 -39t38.5 -9v-14h-160v14q29 0 37.5 9t8.5 39v69h-188zM439 344h155v238l-155 -237v-1z" />
    <glyph glyph-name="uni24EF" unicode="&#x24ef;" 
d="M471 820q-177 0 -299 -122t-122 -299q0 -174 122.5 -296.5t298.5 -122.5q174 0 296.5 123t122.5 296q0 177 -122 299t-297 122zM430 199q0 24 29 24q19 0 40 -25q14 -19 45 -19q34 0 60.5 40.5t26.5 112.5q0 132 -84 132q-38 0 -67 -26l-22 14l48 194h193l-14 -53h-157
l-31 -121l3 -2q32 25 78 25q55 0 92 -41.5t37 -107.5q0 -92 -51 -142t-124 -50q-43 0 -72.5 12.5t-29.5 32.5zM353 219q0 -30 8.5 -39t38.5 -9v-14h-161v14q30 0 38.5 9t8.5 39v337q0 30 -7.5 33.5t-45.5 -13.5l-6 13l67 33l50 23l9 -8v-418z" />
    <glyph glyph-name="uni24F0" unicode="&#x24f0;" 
d="M471 820q-177 0 -299 -122t-122 -299q0 -174 122.5 -296.5t298.5 -122.5q174 0 296.5 123t122.5 296q0 177 -122 299t-297 122zM419 359q2 112 72 192t200 101v-14q-155 -38 -191 -198h2q36 49 101 49q57 0 89 -44.5t32 -110.5q0 -74 -39 -130t-110 -56q-73 0 -115 58
t-41 153zM341 219q0 -30 8.5 -39t38.5 -9v-14h-161v14q30 0 38.5 9t8.5 39v337q0 30 -7.5 33.5t-45.5 -13.5l-6 13l67 33l50 23l9 -8v-418zM491 347q-2 -79 20.5 -126.5t63.5 -47.5q77 0 77 148q0 143 -76 143q-45 0 -81 -48q-4 -26 -4 -69z" />
    <glyph glyph-name="uni24F1" unicode="&#x24f1;" 
d="M471 820q-177 0 -299 -122t-122 -299q0 -174 122.5 -296.5t298.5 -122.5q174 0 296.5 123t122.5 296q0 177 -122 299t-297 122zM346 219q0 -30 8.5 -39t38.5 -9v-14h-161v14q30 0 38.5 9t8.5 39v337q0 30 -7.5 33.5t-45.5 -13.5l-6 13l67 33l50 23l9 -8v-418zM549 155
l-45 11l141 421v2h-164q-28 0 -40.5 -14t-22.5 -58l-14 3l17 75l10 47h284z" />
    <glyph glyph-name="uni24F2" unicode="&#x24f2;" 
d="M471 820q-177 0 -299 -122t-122 -299q0 -174 122.5 -296.5t298.5 -122.5q174 0 296.5 123t122.5 296q0 177 -122 299t-297 122zM420 262q0 75 114 148q-50 36 -73 68t-23 69q0 46 38.5 75.5t98.5 29.5q59 0 96.5 -28.5t37.5 -70.5q0 -36 -23 -64t-73 -60q59 -43 88 -81
t29 -80q0 -54 -43 -87t-112 -33q-70 0 -112.5 33t-42.5 81zM335 219q0 -30 8.5 -39t38.5 -9v-14h-160v14q29 0 37.5 9t8.5 39v337q0 30 -7.5 33.5t-45.5 -13.5l-6 13l68 33l49 23l9 -8v-418zM498 559q0 -26 18.5 -51t66.5 -59q41 30 55 54.5t14 52.5q0 30 -21 50.5t-56 20.5
t-56 -19t-21 -49zM478 262q0 -37 27 -63t78 -26q42 0 65 22t23 61q0 36 -26 66.5t-81 68.5q-86 -62 -86 -129z" />
    <glyph glyph-name="uni24F3" unicode="&#x24f3;" 
d="M471 820q-177 0 -299 -122t-122 -299q0 -174 122.5 -296.5t298.5 -122.5q174 0 296.5 123t122.5 296q0 177 -122 299t-297 122zM740 441q-2 -111 -72 -191.5t-200 -101.5v14q154 38 192 198h-2q-39 -48 -102 -48q-57 0 -88.5 44.5t-31.5 110.5q0 74 38.5 129.5
t110.5 55.5q73 0 115 -58t40 -153zM352 219q0 -30 8.5 -39t38.5 -9v-14h-161v14q30 0 38.5 9t8.5 39v337q0 30 -7.5 33.5t-45.5 -13.5l-6 13l68 33l49 23l9 -8v-418zM668 453q0 80 -22 127t-62 47q-77 0 -77 -148q0 -143 76 -143q45 0 81 48q4 26 4 69z" />
    <glyph glyph-name="uni24F4" unicode="&#x24f4;" 
d="M471 820q-177 0 -299 -122t-122 -299q0 -174 122.5 -296.5t298.5 -122.5q174 0 296.5 123t122.5 296q0 177 -122 299t-297 122zM666 148q-77 0 -119 71.5t-42 180.5t42 180.5t119 71.5t119 -71.5t42 -180.5t-42 -180.5t-119 -71.5zM399 207q28 0 41.5 12.5t27.5 49.5
l14 -5l-25 -65l-16 -45h-283v14q115 109 170.5 183.5t55.5 144.5q0 44 -21 70.5t-63 26.5q-50 0 -78.5 -35t-31.5 -94h-15q0 83 42.5 132.5t116.5 49.5q59 0 90 -33t31 -86q0 -129 -225 -318v-2h169zM666 173q85 0 85 227t-85 227t-85 -227t85 -227z" />
    <glyph glyph-name="uni24FF" unicode="&#x24ff;" 
d="M471 820q-177 0 -299 -122t-122 -299q0 -174 122.5 -296.5t298.5 -122.5q174 0 296.5 123t122.5 296q0 177 -122 299t-297 122zM469 148q-77 0 -119 71.5t-42 180.5t42 180.5t119 71.5t119 -71.5t42 -180.5t-42 -180.5t-119 -71.5zM469 173q84 0 84 227t-84 227
q-85 0 -85 -227t85 -227z" />
    <glyph glyph-name="lozenge" unicode="&#x25ca;" horiz-adv-x="578" 
d="M331 800l197 -411l-197 -411h-86l-195 411l195 411h86zM289 52l157 337l-157 337h-3l-154 -337l154 -337h3z" />
    <glyph glyph-name="uni2776" unicode="&#x2776;" 
d="M471 820q-177 0 -299 -122t-122 -299q0 -174 122.5 -296.5t298.5 -122.5q174 0 296.5 123t122.5 296q0 177 -122 299t-297 122zM504 218q0 -30 8.5 -39t38.5 -9v-14h-161v14q30 0 38.5 9t8.5 39v336q0 31 -7.5 34.5t-45.5 -13.5l-6 13l117 56l9 -8v-418z" />
    <glyph glyph-name="uni2777" unicode="&#x2777;" 
d="M471 820q-177 0 -299 -122t-122 -299q0 -174 122.5 -296.5t298.5 -122.5q174 0 296.5 123t122.5 296q0 177 -122 299t-297 122zM553 217q28 0 41.5 12.5t27.5 49.5l14 -5l-25 -65l-16 -45h-283v14q115 109 170.5 183.5t55.5 144.5q0 44 -21 70.5t-63 26.5
q-50 0 -78.5 -35t-31.5 -94h-15q0 83 42.5 132.5t116.5 49.5q59 0 90 -33t31 -86q0 -129 -225 -318v-2h169z" />
    <glyph glyph-name="uni2778" unicode="&#x2778;" 
d="M471 820q-177 0 -299 -122t-122 -299q0 -174 122.5 -296.5t298.5 -122.5q174 0 296.5 123t122.5 296q0 177 -122 299t-297 122zM332 195q0 24 32 24q22 0 40 -22q19 -24 52 -24q36 0 61.5 28.5t25.5 78.5q0 117 -126 128v14q95 31 95 113q0 32 -18.5 52.5t-52.5 20.5
q-69 0 -88 -69h-16q8 53 43 83t89 30q50 0 82.5 -29t32.5 -79q0 -77 -96 -115v-2q57 -6 92 -40.5t35 -91.5q0 -66 -50.5 -106.5t-120.5 -40.5q-44 0 -78 12.5t-34 34.5z" />
    <glyph glyph-name="uni2779" unicode="&#x2779;" 
d="M471 820q-177 0 -299 -122t-122 -299q0 -174 122.5 -296.5t298.5 -122.5q174 0 296.5 123t122.5 296q0 177 -122 299t-297 122zM296 291v50l203 299h52v-299h58v-50h-58v-69q0 -30 8.5 -39t38.5 -9v-14h-161v14q30 0 38.5 9t8.5 39v69h-188zM329 341h155v238l-155 -236
v-2z" />
    <glyph glyph-name="uni277A" unicode="&#x277a;" 
d="M471 820q-177 0 -299 -122t-122 -299q0 -174 122.5 -296.5t298.5 -122.5q174 0 296.5 123t122.5 296q0 177 -122 299t-297 122zM329 199q0 24 29 24q19 0 40 -25q14 -19 45 -19q34 0 60.5 40.5t26.5 112.5q0 132 -85 132q-37 0 -66 -26l-22 14l47 194h194l-14 -53h-157
l-31 -121l2 -2q34 25 79 25q54 0 91.5 -41.5t37.5 -107.5q0 -92 -51 -142t-124 -50q-43 0 -72.5 12.5t-29.5 32.5z" />
    <glyph glyph-name="uni277B" unicode="&#x277b;" 
d="M471 820q-177 0 -299 -122t-122 -299q0 -174 122.5 -296.5t298.5 -122.5q174 0 296.5 123t122.5 296q0 177 -122 299t-297 122zM308 359q2 112 71.5 192t200.5 101v-14q-154 -38 -192 -198h2q38 49 102 49q57 0 88.5 -44.5t31.5 -110.5q0 -75 -38.5 -130.5t-110.5 -55.5
q-73 0 -115 58.5t-40 152.5zM379 347q-2 -79 21 -126.5t64 -47.5q76 0 76 148q0 143 -76 143q-44 0 -80 -48q-5 -32 -5 -69z" />
    <glyph glyph-name="uni277C" unicode="&#x277c;" 
d="M471 820q-177 0 -299 -122t-122 -299q0 -174 122.5 -296.5t298.5 -122.5q174 0 296.5 123t122.5 296q0 177 -122 299t-297 122zM450 136l-45 11l141 421v2h-164q-28 0 -40.5 -14t-22.5 -58l-14 3l17 76l10 47h284z" />
    <glyph glyph-name="uni277D" unicode="&#x277d;" 
d="M471 820q-177 0 -299 -122t-122 -299q0 -174 122.5 -296.5t298.5 -122.5q174 0 296.5 123t122.5 296q0 177 -122 299t-297 122zM332 264q0 74 99 147q-45 37 -66 67t-21 67q0 48 36 77.5t92 29.5t89.5 -29t33.5 -72q0 -36 -21 -62t-67 -60q103 -81 103 -159
q0 -55 -39.5 -88.5t-100.5 -33.5t-99.5 33.5t-38.5 82.5zM401 557q0 -25 17.5 -49t59.5 -58q64 52 64 104q0 32 -19 52.5t-51 20.5t-51.5 -19.5t-19.5 -50.5zM385 264q0 -38 24 -64.5t67 -26.5q36 0 57 22.5t21 62.5q0 36 -22.5 65t-70.5 68q-76 -65 -76 -127z" />
    <glyph glyph-name="uni277E" unicode="&#x277e;" 
d="M469 -20q177 0 299 122t122 299q0 174 -122.5 296.5t-298.5 122.5q-174 0 -296.5 -123t-122.5 -296q0 -177 122 -299t297 -122zM632 441q-2 -112 -71.5 -192t-200.5 -101v14q156 38 192 198h-2q-39 -48 -101 -48q-58 0 -89.5 44.5t-31.5 110.5q0 74 39 129.5t110 55.5
q73 0 115 -58t40 -153zM561 453q2 79 -21 126.5t-64 47.5q-76 0 -76 -148q0 -143 76 -143q44 0 80 48q5 33 5 69z" />
    <glyph glyph-name="uni277F" unicode="&#x277f;" 
d="M471 820q-177 0 -299 -122t-122 -299q0 -174 122.5 -296.5t298.5 -122.5q174 0 296.5 123t122.5 296q0 177 -122 299t-297 122zM572 148q-76 0 -118 71.5t-42 180.5t42 180.5t118 71.5q77 0 119 -71t42 -181t-42 -181t-119 -71zM341 218q0 -30 8.5 -39t38.5 -9v-14h-161
v14q30 0 38.5 9t8.5 39v336q0 31 -7.5 34.5t-45.5 -13.5l-6 13l68 32l49 24l9 -8v-418zM572 173q85 0 85 227t-85 227q-84 0 -84 -227t84 -227z" />
    <glyph glyph-name="i.loclTRK" horiz-adv-x="281" 
d="M128 663q-24 0 -41.5 17t-17.5 41q0 25 17.5 42t41.5 17t41.5 -17t17.5 -42q0 -24 -17.5 -41t-41.5 -17zM191 103q0 -49 12.5 -64t57.5 -15v-24h-235v24q45 0 58 15t13 64v301q0 30 -0.5 40t-6 18.5t-16 5.5t-32.5 -14l-11 21l75 37l71 36l14 -14v-431z" />
    <glyph glyph-name="C_O" horiz-adv-x="1171" 
d="M36 400q0 183 92.5 301.5t241.5 118.5q47 0 87.5 -14t65 -28t32.5 -14q11 0 15 9t4 37h23l15 -275h-23q-24 244 -197 244q-109 0 -171 -106.5t-62 -272.5q0 -165 61 -268t169 -103q94 0 157 78.5t81 215.5h24q-21 -159 -92 -251t-194 -92q-149 0 -239 118t-90 302z
M930 340q-85 0 -139 68t-54 172t54 172t139 68q86 0 140 -68t54 -172t-54 -172t-140 -68zM948 382q59 5 84.5 60.5t17.5 148.5q-8 92 -42.5 142t-94.5 45q-59 -5 -84.5 -61t-16.5 -147q9 -93 43 -143t93 -45zM928 -20q-25 0 -42 17t-17 42q0 24 17 41.5t42 17.5
q24 0 41 -17.5t17 -41.5q0 -25 -17 -42t-41 -17z" />
    <glyph glyph-name="L_L" horiz-adv-x="986" 
d="M346 800v-24q-68 0 -87.5 -16t-19.5 -63v-589q0 -42 12 -54.5t50 -12.5h151q47 0 72 36t55 153l23 -6l-51 -200l-6 -24h-525v24q68 0 87.5 16t19.5 63v594q0 47 -19.5 63t-87.5 16v24h326zM765 800v-24q-63 0 -81 -16t-18 -63v-287q0 -35 9 -46t38 -11l108 -1
q47 0 69.5 32.5t44.5 138.5l23 -5l-37 -181l-5 -26h-461v24q62 0 80.5 16t18.5 64v282q0 47 -18 63t-81 16v24h310z" />
    <glyph glyph-name="L_T_D" horiz-adv-x="1447" 
d="M346 800v-24q-68 0 -87.5 -16t-19.5 -63v-589q0 -42 12 -54.5t50 -12.5h151q47 0 72 36t55 153l23 -6l-51 -200l-6 -24h-525v24q68 0 87.5 16t19.5 63v594q0 47 -19.5 63t-87.5 16v24h326zM637 759q-47 0 -65.5 -21t-28.5 -88l-24 3l16 116l5 31h400l4 -31l16 -116
l-23 -3q-10 67 -28.5 88t-65.5 21h-68v-296q0 -47 14 -63t61 -16v-24h-221v24q47 0 61 16t14 63v296h-67zM998 360v24q47 0 60.5 15.5t13.5 63.5v234q0 48 -13.5 63.5t-60.5 15.5v24h202q100 0 155 -59.5t55 -160.5t-55 -160.5t-155 -59.5h-202zM1204 401q133 0 133 179
t-133 179q-39 0 -60 -10v-338q21 -10 60 -10zM971 -20q-25 0 -42 17t-17 42q0 24 17 41.5t42 17.5q24 0 41 -17.5t17 -41.5q0 -25 -17 -42t-41 -17z" />
    <glyph glyph-name="O_O" horiz-adv-x="1090" 
d="M728 820q146 0 236 -121t90 -299t-90 -299t-236 -121q-104 0 -183 65q-79 -65 -183 -65q-146 0 -236 121t-90 299t90 299t236 121q104 0 183 -65q79 65 183 65zM750 19q103 10 156.5 120t38.5 281q-15 170 -87 270.5t-175 91.5q-63 -6 -110 -53q55 -58 85 -143.5
t30 -185.5q0 -190 -98 -310q67 -80 160 -71zM407 19q64 6 110 52q-55 58 -85 143.5t-30 185.5q0 189 98 309q-69 80 -160 73q-103 -10 -156.5 -120.5t-38.5 -281.5t86.5 -270.5t175.5 -90.5zM530 668q-57 -110 -42 -288q14 -152 72 -249q57 110 42 289q-14 153 -72 248z" />
    <glyph glyph-name="S_T" horiz-adv-x="1006" 
d="M57 -4v288h24q3 -118 61.5 -190.5t141.5 -72.5q60 0 96 35t36 92q0 15 -3 29t-10.5 28.5t-14 26t-21 27t-23 25t-28 26.5t-29.5 25.5t-32.5 27.5t-32.5 27q-96 82 -131 130.5t-35 121.5q0 83 56 130.5t141 47.5q37 0 69.5 -11t50.5 -23.5t34 -23.5t23 -11q9 0 12 10.5
t3 42.5h24v-235h-24q-3 93 -53 151.5t-128 58.5q-59 0 -89 -29.5t-30 -72.5q0 -18 7 -36.5t14.5 -31t26.5 -32t28.5 -28.5t36.5 -31.5t36 -30.5q10 -9 37.5 -32t35.5 -30.5t30 -27t28.5 -28t22.5 -26t21 -28t14.5 -28t12.5 -32.5t6 -33.5t3 -38.5q0 -93 -62.5 -148
t-146.5 -55q-43 0 -79 11.5t-54.5 25t-35 25t-25.5 11.5q-12 0 -16.5 -12.5t-4.5 -44.5h-24zM655 759q-47 0 -66 -21t-29 -88l-23 3l16 116l4 31h400l4 -31l16 -116l-23 -3q-10 67 -29 88t-66 21h-66v-296q0 -48 13.5 -63.5t60.5 -15.5v-24h-220v24q47 0 60.5 15.5
t13.5 63.5v296h-66zM757 -20q-24 0 -41.5 17t-17.5 42q0 24 17.5 41.5t41.5 17.5q25 0 42 -17.5t17 -41.5q0 -25 -17 -42t-42 -17z" />
    <glyph glyph-name="s_t" horiz-adv-x="740" 
d="M696 220h24q-1 -126 -25.5 -183t-92.5 -57q-126 0 -126 185v321h-78v42q70 2 102 34t39 109q6 61 -24.5 92.5t-82.5 31.5q-62 0 -93 -39t-31 -110q0 -21 2 -41t7 -41.5t8.5 -36t12.5 -37.5t13 -33t14.5 -35.5t13.5 -32.5l-23 -14q-20 29 -29 41.5t-28 34.5t-32.5 31.5
t-33 18t-39.5 8.5q-29 0 -47.5 -16.5t-18.5 -40.5q0 -9 2 -18t8.5 -18.5t11 -15.5t16.5 -17t18.5 -16.5t23 -19.5t23.5 -20q86 -75 105 -98q42 -49 42 -107q0 -67 -44 -104.5t-109 -37.5q-36 0 -65 10t-46 20t-24 10q-16 0 -16 -30h-23v201h23q6 -76 46.5 -124t101.5 -48
q39 0 59 20t20 54q0 9 -1.5 17t-6 16.5t-7.5 14.5t-12 15.5t-13.5 15t-17.5 16.5t-18.5 16t-22 18.5t-23.5 19.5q-77 65 -96 89q-33 41 -33 90q0 57 38 92t98 35q73 0 121 -60l3 1q-43 75 -43 168q0 81 46 133.5t118 52.5q64 0 101.5 -41.5t37.5 -130.5v-143h116v-42h-116
v-289q0 -84 11 -121t49 -37q35 0 50 41t16 140z" />
    <glyph glyph-name="zero.dnom" horiz-adv-x="336" 
d="M166 -10q-76 0 -118 71.5t-42 180.5t42 180.5t118 71.5q77 0 119 -71t42 -181t-42 -181t-119 -71zM166 15q85 0 85 227t-85 227q-84 0 -84 -227t84 -227z" />
    <glyph glyph-name="one.dnom" horiz-adv-x="183" 
d="M126 62q0 -30 8.5 -39t37.5 -9v-14h-160v14q29 0 37.5 9t8.5 39v337q0 30 -7 33.5t-45 -13.5l-7 13l68 33l49 23l10 -8v-418z" />
    <glyph glyph-name="two.dnom" horiz-adv-x="338" 
d="M224 53q29 0 42.5 12.5t27.5 49.5l14 -5l-25 -65l-17 -45h-283v14q115 109 171 183t56 145q0 44 -21 70.5t-63 26.5q-50 0 -78.5 -35t-31.5 -94h-16q0 83 43 132.5t117 49.5q58 0 89.5 -33.5t31.5 -85.5q0 -129 -225 -318v-2h168z" />
    <glyph glyph-name="three.dnom" horiz-adv-x="300" 
d="M-3 37q0 24 32 24q22 0 40 -22q19 -24 52 -24q36 0 61.5 28.5t25.5 78.5q0 117 -126 128v14q95 31 95 113q0 32 -18.5 52.5t-52.5 20.5q-69 0 -88 -69h-16q8 53 43 83t89 30q50 0 82.5 -29t32.5 -79q0 -77 -96 -115v-2q57 -6 92 -40.5t35 -91.5q0 -66 -50.5 -106.5
t-120.5 -40.5q-44 0 -78 12.5t-34 34.5z" />
    <glyph glyph-name="four.dnom" horiz-adv-x="329" 
d="M10 131v50l203 299h52v-299h59v-50h-59v-69q0 -30 8.5 -39t38.5 -9v-14h-160v14q29 0 37.5 9t8.5 39v69h-188zM43 181h155v238l-155 -236v-2z" />
    <glyph glyph-name="five.dnom" horiz-adv-x="293" 
d="M5 35q0 24 29 24q19 0 40 -25q14 -19 45 -19q34 0 60.5 40.5t26.5 112.5q0 132 -85 132q-37 0 -66 -26l-22 14l47 194h194l-14 -53h-157l-31 -121l2 -2q34 25 79 25q54 0 91.5 -41.5t37.5 -107.5q0 -92 -51 -142t-124 -50q-43 0 -72.5 12.5t-29.5 32.5z" />
    <glyph glyph-name="six.dnom" horiz-adv-x="324" 
d="M198 331q58 0 90.5 -44.5t32.5 -110.5q0 -74 -40 -130t-112 -56q-75 0 -118 58t-41 154q2 111 73.5 191t203.5 101v-14q-154 -35 -190 -198q40 49 101 49zM169 15q75 0 75 148q0 143 -74 143q-44 0 -78 -46q-6 -38 -6 -71q-1 -80 20.5 -127t62.5 -47z" />
    <glyph glyph-name="seven.dnom" horiz-adv-x="324" 
d="M142 -6l-45 11l141 421v2h-163q-28 0 -41 -14t-23 -58l-14 3l17 75l11 47h283z" />
    <glyph glyph-name="eight.dnom" horiz-adv-x="298" 
d="M186 272q104 -81 104 -160q0 -55 -40 -88.5t-102 -33.5q-64 0 -103.5 33.5t-39.5 82.5q0 42 26.5 75t77.5 70q-48 40 -69.5 69.5t-21.5 66.5q0 47 38 77t95 30q58 0 92 -29t34 -72q0 -25 -14 -48t-29 -36t-48 -37zM153 469q-32 0 -51.5 -19.5t-19.5 -50.5q0 -26 17.5 -49
t61.5 -58q62 53 62 104q0 31 -19 52t-51 21zM150 15q35 0 56 22.5t21 61.5q0 36 -22.5 65t-71.5 68q-74 -63 -74 -126q0 -38 24 -64.5t67 -26.5z" />
    <glyph glyph-name="nine.dnom" horiz-adv-x="324" 
d="M155 494q75 0 118 -58t41 -154q-2 -111 -73.5 -191t-203.5 -101v14q154 35 190 198q-39 -48 -101 -48q-58 0 -90 44t-32 110q0 74 39.5 130t111.5 56zM238 295q2 80 -20 127t-63 47q-75 0 -75 -148q0 -143 74 -143q44 0 78 46q6 38 6 71z" />
    <glyph glyph-name="zero.numr" horiz-adv-x="336" 
d="M166 316q-76 0 -118 71.5t-42 180.5t42 180.5t118 71.5q77 0 119 -71t42 -181t-42 -181t-119 -71zM166 341q85 0 85 227t-85 227q-84 0 -84 -227t84 -227z" />
    <glyph glyph-name="one.numr" horiz-adv-x="183" 
d="M126 390q0 -30 8.5 -39t37.5 -9v-14h-160v14q29 0 37.5 9t8.5 39v337q0 30 -7 33.5t-45 -13.5l-7 13l68 33l49 23l10 -8v-418z" />
    <glyph glyph-name="two.numr" horiz-adv-x="338" 
d="M224 381q29 0 42.5 12.5t27.5 49.5l14 -5l-25 -65l-17 -45h-283v14q115 109 171 183t56 145q0 44 -21 70.5t-63 26.5q-50 0 -78.5 -35t-31.5 -94h-16q0 83 43 132.5t117 49.5q58 0 89.5 -33.5t31.5 -85.5q0 -129 -225 -318v-2h168z" />
    <glyph glyph-name="three.numr" horiz-adv-x="300" 
d="M-3 355q0 24 32 24q22 0 40 -22q19 -24 52 -24q36 0 61.5 28.5t25.5 78.5q0 117 -126 128v14q95 31 95 113q0 32 -18.5 52.5t-52.5 20.5q-69 0 -88 -69h-16q8 53 43 83t89 30q50 0 82.5 -29t32.5 -79q0 -77 -96 -115v-2q57 -6 92 -40.5t35 -91.5q0 -66 -50.5 -106.5
t-120.5 -40.5q-44 0 -78 12.5t-34 34.5z" />
    <glyph glyph-name="four.numr" horiz-adv-x="329" 
d="M10 459v50l203 299h52v-299h59v-50h-59v-69q0 -30 8.5 -39t38.5 -9v-14h-160v14q29 0 37.5 9t8.5 39v69h-188zM43 509h155v238l-155 -236v-2z" />
    <glyph glyph-name="five.numr" horiz-adv-x="293" 
d="M5 353q0 24 29 24q19 0 40 -25q14 -19 45 -19q34 0 60.5 40.5t26.5 112.5q0 132 -85 132q-37 0 -66 -26l-22 14l47 194h194l-14 -53h-157l-31 -121l2 -2q34 25 79 25q54 0 91.5 -41.5t37.5 -107.5q0 -92 -51 -142t-124 -50q-43 0 -72.5 12.5t-29.5 32.5z" />
    <glyph glyph-name="six.numr" horiz-adv-x="324" 
d="M198 649q58 0 90.5 -44.5t32.5 -110.5q0 -74 -40 -130t-112 -56q-75 0 -118 58t-41 154q2 111 73.5 191t203.5 101v-14q-154 -35 -190 -198q40 49 101 49zM169 333q75 0 75 148q0 143 -74 143q-44 0 -78 -46q-6 -38 -6 -71q-1 -80 20.5 -127t62.5 -47z" />
    <glyph glyph-name="seven.numr" horiz-adv-x="324" 
d="M142 313l-45 11l141 421v2h-163q-28 0 -41 -14t-23 -58l-14 3l17 75l11 47h283z" />
    <glyph glyph-name="eight.numr" horiz-adv-x="298" 
d="M186 590q104 -81 104 -160q0 -55 -40 -88.5t-102 -33.5q-64 0 -103.5 33.5t-39.5 82.5q0 42 26.5 75t77.5 70q-48 40 -69.5 69.5t-21.5 66.5q0 47 38 77t95 30q58 0 92 -29t34 -72q0 -25 -14 -48t-29 -36t-48 -37zM153 787q-32 0 -51.5 -19.5t-19.5 -50.5q0 -26 17.5 -49
t61.5 -58q62 53 62 104q0 31 -19 52t-51 21zM150 333q35 0 56 22.5t21 61.5q0 36 -22.5 65t-71.5 68q-74 -63 -74 -126q0 -38 24 -64.5t67 -26.5z" />
    <glyph glyph-name="nine.numr" horiz-adv-x="324" 
d="M155 812q75 0 118 -58t41 -154q-2 -111 -73.5 -191t-203.5 -101v14q154 35 190 198q-39 -48 -101 -48q-58 0 -90 44t-32 110q0 74 39.5 130t111.5 56zM238 613q2 80 -20 127t-63 47q-75 0 -75 -148q0 -143 74 -143q44 0 78 46q6 38 6 71z" />
    <glyph glyph-name="colon.case" horiz-adv-x="218" 
d="M109 590q-25 0 -42 17t-17 42q0 24 17 41.5t42 17.5q24 0 41.5 -17.5t17.5 -41.5q0 -25 -17.5 -42t-41.5 -17zM109 120q-25 0 -42 17t-17 42q0 24 17 41.5t42 17.5q24 0 41.5 -17.5t17.5 -41.5q0 -25 -17.5 -42t-41.5 -17z" />
    <glyph glyph-name="periodcentered.case" horiz-adv-x="218" 
d="M109 355q-25 0 -42 17t-17 42q0 24 17 41.5t42 17.5q24 0 41.5 -17.5t17.5 -41.5q0 -25 -17.5 -42t-41.5 -17z" />
    <glyph glyph-name="bullet.case" horiz-adv-x="394" 
d="M197 278q-61 0 -104 43t-43 104t43 104t104 43t104 -43t43 -104t-43 -104t-104 -43z" />
    <glyph glyph-name="parenleft.case" horiz-adv-x="386" 
d="M356 -136v-24q-138 90 -222 233t-84 327q0 190 79.5 336t209.5 224v-24q-87 -81 -130.5 -223t-43.5 -313q0 -159 49 -303t142 -233z" />
    <glyph glyph-name="parenright.case" horiz-adv-x="386" 
d="M30 -136q93 89 142 233t49 303q0 171 -43.5 313t-130.5 223v24q130 -78 209.5 -224t79.5 -336q0 -184 -84 -327t-222 -233v24z" />
    <glyph glyph-name="braceleft.case" horiz-adv-x="401" 
d="M371 936q-134 -23 -134 -134q0 -38 26 -108t26 -120q0 -80 -49.5 -123t-111.5 -49v-3q62 -6 111.5 -49.5t49.5 -123.5q0 -50 -26 -120t-26 -108q0 -111 134 -134v-24q-53 6 -93.5 22t-62.5 35.5t-35 45.5t-17 46.5t-4 42.5q0 47 16.5 121.5t16.5 114.5q0 58 -39 89
t-103 31v24q64 0 103 31t39 90q0 39 -16.5 113.5t-16.5 121.5q0 22 4 42.5t17 46.5t35 45.5t62.5 35.5t93.5 22v-24z" />
    <glyph glyph-name="braceright.case" horiz-adv-x="401" 
d="M351 388q-63 0 -102.5 -31t-39.5 -89q0 -40 16.5 -114.5t16.5 -121.5q0 -22 -4 -42.5t-17 -46.5t-35 -45.5t-62.5 -35.5t-93.5 -22v24q135 23 135 134q0 38 -26 108t-26 120q0 80 49.5 123.5t111.5 49.5v3q-62 6 -111.5 49t-49.5 123q0 50 26 120t26 108q0 111 -135 134
v24q53 -6 93.5 -22t62.5 -35.5t35 -45.5t17 -46.5t4 -42.5q0 -47 -16.5 -121.5t-16.5 -113.5q0 -59 39.5 -90t102.5 -31v-24z" />
    <glyph glyph-name="bracketleft.case" horiz-adv-x="294" 
d="M264 919h-99v-1038h99v-41h-214v1120h214v-41z" />
    <glyph glyph-name="bracketright.case" horiz-adv-x="294" 
d="M244 960v-1120h-214v41h99v1038h-99v41h214z" />
    <glyph glyph-name="hyphen.case" horiz-adv-x="400" 
d="M50 363v74h345v-74h-345z" />
    <glyph glyph-name="endash.case" horiz-adv-x="600" 
d="M0 363v74h600v-74h-600z" />
    <glyph glyph-name="emdash.case" horiz-adv-x="1200" 
d="M0 363v74h1200v-74h-1200z" />
    <glyph glyph-name="guillemotleft.case" horiz-adv-x="462" 
d="M146 402l105 -244h-23l-170 244l170 241h23zM314 402l105 -244h-23l-171 244l171 241h23z" />
    <glyph glyph-name="guillemotright.case" horiz-adv-x="462" 
d="M148 402l-105 241h23l170 -241l-170 -244h-23zM316 402l-106 241h24l170 -241l-170 -244h-24z" />
    <glyph glyph-name="guilsinglleft.case" horiz-adv-x="294" 
d="M146 402l105 -244h-23l-170 244l170 241h23z" />
    <glyph glyph-name="guilsinglright.case" horiz-adv-x="294" 
d="M148 402l-105 241h23l170 -241l-170 -244h-23z" />
    </font>
</defs>
</svg>
