<svg width="10" height="13" viewBox="0 0 10 13" fill="none" xmlns="http://www.w3.org/2000/svg">
<path d="M0 13L10 13C10 12.3509 8.7923 12.3509 8.7923 11.7002C8.7923 11.0496 10 11.0501 10 10.4C10 9.74988 8.7923 9.75037 8.7923 9.10024C8.7923 8.45012 10 8.45012 10 7.8C10 7.14988 8.7923 7.14988 8.7923 6.50025C8.7923 5.85061 10 5.85012 10 5.20049C10 4.55085 8.7923 4.54988 8.7923 3.90024C8.7923 3.25061 10 3.25012 10 2.6C10 1.94988 8.7923 1.94988 8.7923 1.29975C8.7923 0.649633 10 0.650122 10 0L0 0L0 13Z" fill="black"/>
</svg>
